<svg xmlns="http://www.w3.org/2000/svg" xmlns:xlink="http://www.w3.org/1999/xlink" xmlns:inkscape="http://www.inkscape.org/namespaces/inkscape" version="1.1" width="145.395" height="100.055" viewBox="0 0 145.395 100.055">
<defs>
<path id="font_1_1" d="M.20599365 .11984253C.17098999 .06594849 .13899231 .039978029 .07998657 .035995485 .069992069 .034988405 .056991579 .034988405 .056991579 .01499939 .056991579 .0039978029 .06599426 0 .070999149 0 .09700012 0 .12998963 .0039978029 .15699768 .0039978029 .18899536 .0039978029 .22999573 0 .2599945 0 .2649994 0 .27999879 0 .27999879 .021987915 .27999879 .034988405 .2669983 .035995485 .2630005 .035995485 .25498963 .036987306 .21899414 .038986207 .21899414 .06594849 .21899414 .077926639 .22898865 .09489441 .23399353 .103881839L.31399537 .22766114H.59999087L.6239929 .061950685C.6199951 .051971437 .6139984 .035995485 .5549927 .035995485 .54299929 .035995485 .5289917 .035995485 .5289917 .01399231 .5289917 .009994507 .5319977 0 .54499819 0 .57398989 0 .644989 .0039978029 .673996 .0039978029 .69200137 .0039978029 .71499636 .0029907227 .73298647 .0029907227 .7509918 .0019989014 .7719879 0 .7899933 0 .8029938 0 .80999758 .0079956059 .80999758 .020996094 .80999758 .035995485 .7979889 .035995485 .7819977 .035995485 .723999 .035995485 .7220001 .04397583 .71899417 .06793213L.6309967 .6848755C.6279907 .70588687 .6259918 .7128906 .6069946 .7128906 .58799746 .7128906 .58200076 .70388796 .57299807 .6898804L.20599365 .11984253M.33799745 .26367188 .5479889 .5908356 .59498599 .26367188H.33799745Z"/>
<path id="font_1_2" d="M.18998719 .07797241C.18099976 .04399109 .1789856 .035995485 .101989749 .035995485 .084991458 .035995485 .07199097 .035995485 .07199097 .01499939 .07199097 0 .083999637 0 .101989749 0H.4889984C.6569977 0 .7859955 .11494446 .7859955 .21388245 .7859955 .28485108 .72099307 .34580995 .61499026 .35681153 .73599246 .37879945 .83699038 .4547577 .83699038 .54067996 .83699038 .6166382 .7599945 .6826172 .6299896 .6826172H.2659912C.24699402 .6826172 .23399353 .6826172 .23399353 .660614 .23399353 .64660647 .24598694 .64660647 .2659912 .64660647 .2669983 .64660647 .28599549 .64660647 .3039856 .64460757 .32499696 .64260867 .32699586 .64060977 .32699586 .63061526 .32699586 .62861636 .32699586 .6236267 .32299806 .6086426L.18998719 .07797241M.34999085 .3688202 .41099549 .6126404C.4189911 .6436157 .41999818 .64660647 .46199037 .64660647H.6139984C.71598818 .64660647 .7389984 .57966616 .7389984 .541687 .7389984 .46073915 .647995 .3688202 .5139923 .3688202H.34999085M.3019867 .035995485C.2709961 .035995485 .269989 .036987306 .269989 .04598999 .269989 .04698181 .269989 .051986696 .27398683 .066970828L.34298707 .3408203H.5549927C.6489868 .3408203 .68499758 .27885438 .68499758 .22088623 .68499758 .12194824 .58399966 .035995485 .46299745 .035995485H.3019867Z"/>
<path id="font_1_3" d="M.84298709 .6901245C.84298709 .69511416 .83999636 .703125 .8299866 .703125 .82299807 .703125 .82099917 .70111086 .81199648 .69111636L.7389984 .61413577C.7299957 .62612918 .673996 .703125 .5509949 .703125 .30799867 .703125 .069992069 .48820497 .069992069 .2623291 .069992069 .09941101 .19799805-.01953125 .3769989-.01953125 .43099977-.01953125 .5269928-.008544922 .6299896 .078430179 .70899966 .14538574 .73098757 .23234558 .73098757 .24034119 .73098757 .25334168 .71899417 .25334168 .71398928 .25334168 .70098879 .25334168 .69898989 .24833679 .69599917 .23735047 .6549988 .10041809 .5149994 .016464234 .3939972 .016464234 .28799439 .016464234 .16999817 .07342529 .16999817 .23135376 .16999817 .2603302 .1769867 .4182434 .2919922 .5441742 .36099244 .6211395 .46598817 .66711428 .5609894 .66711428 .6769867 .66711428 .7449951 .5831604 .7449951 .47122193 .7449951 .4432373 .74198916 .43623353 .74198916 .43023683 .74198916 .4172516 .7549896 .4172516 .7599945 .4172516 .776001 .4172516 .776001 .4202423 .7809906 .4392395L.84298709 .6901245Z"/>
<path id="font_1_4" d="M.84098818 .60165408C.84999087 .63861086 .85198977 .64660647 .9259949 .64660647 .94799807 .64660647 .95999148 .64660647 .95999148 .6686096 .95999148 .6726074 .95700076 .6826172 .94400027 .6826172 .9149933 .6826172 .84199526 .6786041 .8129883 .6786041 .79599 .6786041 .7609863 .6786041 .74398806 .6796112 .723999 .680603 .69999697 .6826172 .68099978 .6826172 .6749878 .6826172 .6599884 .6826172 .6599884 .660614 .6599884 .64660647 .6719971 .64660647 .69200137 .64660647 .69299319 .64660647 .71199038 .64660647 .7299957 .64460757 .7509918 .64260867 .7529907 .64060977 .7529907 .6306305 .7529907 .6296234 .7529907 .6236267 .7489929 .60865786L.6899872 .37290956H.35499574L.41299439 .60466006C.42199708 .63861086 .42399598 .64660647 .5009918 .64660647 .5179901 .64660647 .5309906 .64660647 .5309906 .6686096 .5309906 .6726074 .5279999 .6826172 .5149994 .6826172 .48599244 .6826172 .41299439 .6786041 .38398744 .6786041 .36698915 .6786041 .33198548 .6786041 .31498719 .6796112 .29499818 .680603 .2709961 .6826172 .2519989 .6826172 .24598694 .6826172 .23098755 .6826172 .23098755 .660614 .23098755 .64660647 .24299622 .64660647 .2630005 .64660647 .2639923 .64660647 .2829895 .64660647 .30099488 .64460757 .32199098 .64260867 .32398988 .64060977 .32398988 .6306305 .32398988 .6286316 .32398988 .6236267 .31999208 .60865786L.18699646 .07798767C.1789856 .04399109 .1769867 .035995485 .09899902 .035995485 .08198547 .035995485 .068984989 .035995485 .068984989 .01499939 .068984989 .004989624 .07598877 0 .084991458 0 .11399841 0 .18598938 .0039978029 .21499634 .0039978029 .23199463 .0039978029 .2669983 .0039978029 .28399659 .0029907227 .3039856 .0019989014 .32899476 0 .34799195 0 .35299684 0 .36898805 0 .36898805 .020996094 .36898805 .035995485 .35899354 .035995485 .33599855 .035995485 .31999208 .035995485 .31599427 .035995485 .2979889 .037994386 .27598573 .040985109 .27598573 .04298401 .27598573 .052993776 .27598573 .053985597 .27598573 .0599823 .27999879 .07498169L.34599305 .33691407H.68099978L.6159973 .07798767C.60798647 .04399109 .60598757 .035995485 .5279999 .035995485 .5109863 .035995485 .49798585 .035995485 .49798585 .01499939 .49798585 .004989624 .5049896 0 .5139923 0 .54299929 0 .61499026 .0039978029 .6439972 .0039978029 .6609955 .0039978029 .69599917 .0039978029 .71299746 .0029907227 .73298647 .0019989014 .7579956 0 .7769928 0 .7819977 0 .7979889 0 .7979889 .020996094 .7979889 .035995485 .7879944 .035995485 .7649994 .035995485 .7489929 .035995485 .7449951 .035995485 .72698977 .037994386 .7049866 .040985109 .7049866 .04298401 .7049866 .052993776 .7049866 .05899048 .70799258 .068984989 .70899966 .07498169L.84098818 .60165408Z"/>
</defs>
<path transform="matrix(1,0,0,-1,15.821,85.46)" stroke-width=".79701" stroke-linecap="butt" stroke-miterlimit="10" stroke-linejoin="miter" fill="none" stroke="#2471a3" d="M0 0H113.38724L39.68535 70.867Z"/>
<path transform="matrix(1,0,0,-1,15.821,85.46)" stroke-width=".79701" stroke-linecap="butt" stroke-miterlimit="10" stroke-linejoin="miter" fill="none" stroke="#b30000" d="M39.68535 70.867V0"/>
<path transform="matrix(1,0,0,-1,15.821,85.46)" stroke-width=".3985" stroke-linecap="butt" stroke-miterlimit="10" stroke-linejoin="miter" fill="none" stroke="#000000" d="M39.68535 0V7.08669H46.77203V0"/>
<use data-text="A" xlink:href="#font_1_1" transform="matrix(6.97385,0,0,-6.97385,6.309,93.746)"/>
<use data-text="B" xlink:href="#font_1_2" transform="matrix(6.97385,0,0,-6.97385,132.726,93.746)"/>
<use data-text="C" xlink:href="#font_1_3" transform="matrix(6.97385,0,0,-6.97385,52.404,11.074997)"/>
<use data-text="H" xlink:href="#font_1_4" transform="matrix(6.97385,0,0,-6.97385,51.975999,93.746)"/>
</svg>
