<svg xmlns="http://www.w3.org/2000/svg" xmlns:xlink="http://www.w3.org/1999/xlink" xmlns:inkscape="http://www.inkscape.org/namespaces/inkscape" version="1.1" width="191.057" height="170.046" viewBox="0 0 191.057 170.046">
<defs>
<path id="font_1_8" d="M.33399964 .30233766C.33999635 .32835389 .36299134 .42037965 .43299867 .42037965 .43798829 .42037965 .46199037 .42037965 .48298646 .40734864 .45498658 .402359 .43499757 .37734986 .43499757 .35334779 .43499757 .33735658 .44599916 .31835938 .47299195 .31835938 .49499513 .31835938 .5269928 .3363495 .5269928 .37635804 .5269928 .42837525 .46798707 .4423828 .43399049 .4423828 .37599183 .4423828 .34098817 .38935853 .32899476 .36634828 .3039856 .43237306 .25 .4423828 .22099304 .4423828 .116989139 .4423828 .05999756 .3133545 .05999756 .28834535 .05999756 .27833558 .069992069 .27833558 .07199097 .27833558 .07998657 .27833558 .08299255 .28033448 .084991458 .28933717 .11898804 .39535523 .18499756 .42037965 .21899414 .42037965 .23799134 .42037965 .272995 .4113617 .272995 .35334779 .272995 .32235719 .2559967 .25532533 .21899414 .11528015 .20298767 .053268434 .16799927 .011245728 .12399292 .011245728 .117996219 .011245728 .09498596 .011245728 .07398987 .024276734 .09899902 .029266358 .12098694 .05027771 .12098694 .07827759 .12098694 .105270389 .09899902 .11328125 .083999637 .11328125 .053985597 .11328125 .0289917 .08728027 .0289917 .055267335 .0289917 .009246826 .07899475-.0107421879 .12298584-.0107421879 .18899536-.0107421879 .22499085 .059280397 .22799683 .0652771 .23999024 .028274537 .27598573-.0107421879 .33599855-.0107421879 .43899537-.0107421879 .49598695 .118270877 .49598695 .14328003 .49598695 .1532898 .4869995 .1532898 .48399354 .1532898 .47499085 .1532898 .47299195 .14929199 .47099305 .14228821 .43798829 .03527832 .36999513 .011245728 .33799745 .011245728 .29899598 .011245728 .2829895 .043273927 .2829895 .07727051 .2829895 .09927368 .2889862 .121276859 .2999878 .16529846L.33399964 .30233766Z"/>
<path id="font_1_9" d="M.48599244 .38136292C.48999024 .39537049 .48999024 .39736939 .48999024 .40437318 .48999024 .42237855 .47599793 .43138124 .46099855 .43138124 .45098878 .43138124 .43499757 .42536927 .42599488 .41036988 .42399598 .405365 .41600038 .37435914 .4119873 .35635377 .40499879 .33035279 .397995 .30334474 .3919983 .27633668L.34700013 .09628296C.34298707 .08126831 .2999878 .011245728 .23399353 .011245728 .18299866 .011245728 .17199707 .055267335 .17199707 .0922699 .17199707 .1382904 .18899536 .20030213 .22299195 .28833009 .23899842 .3293457 .24299622 .3403473 .24299622 .36035157 .24299622 .405365 .21099854 .4423828 .16099549 .4423828 .06599426 .4423828 .0289917 .29733277 .0289917 .28833009 .0289917 .27833558 .038986207 .27833558 .040985109 .27833558 .050994874 .27833558 .051986696 .28033448 .056991579 .29634095 .083999637 .3903656 .12399292 .42037965 .1579895 .42037965 .1659851 .42037965 .18299866 .42037965 .18299866 .3883667 .18299866 .36335755 .17298889 .3373413 .1659851 .31834413 .12599182 .21231079 .10798645 .1552887 .10798645 .10827637 .10798645 .019256592 .17098999-.0107421879 .22999573-.0107421879 .2689972-.0107421879 .30299378 .0062561037 .33099366 .03425598 .31799317-.017745972 .30599977-.06674194 .2659912-.11973572 .23999024-.15385437 .20199585-.18309021 .1559906-.18309021 .14199829-.18309021 .09700012-.18005371 .07998657-.14074707 .09599304-.14074707 .10899353-.14074707 .12298584-.1287384 .1329956-.11973572 .14299011-.10673523 .14299011-.08773804 .14299011-.056747438 .115997318-.052734376 .10598755-.052734376 .08299255-.052734376 .049987794-.068740848 .049987794-.11773682 .049987794-.16796875 .09399414-.20507813 .1559906-.20507813 .25898744-.20507813 .3619995-.11373901 .3899994-.00074768069L.48599244 .38136292Z"/>
<path id="font_2_5" d="M.68699648 .32714845C.70199587 .32714845 .72099307 .32714845 .72099307 .34713746 .72099307 .36714173 .70199587 .36714173 .6879883 .36714173H.08898926C.07499695 .36714173 .055999757 .36714173 .055999757 .34713746 .055999757 .32714845 .07499695 .32714845 .08999634 .32714845H.68699648M.6879883 .13284302C.70199587 .13284302 .72099307 .13284302 .72099307 .15284729 .72099307 .17285156 .70199587 .17285156 .68699648 .17285156H.08999634C.07499695 .17285156 .055999757 .17285156 .055999757 .15284729 .055999757 .13284302 .07499695 .13284302 .08898926 .13284302H.6879883Z"/>
<path id="font_1_7" d="M.36698915 .3996582H.45298768C.47299195 .3996582 .48298646 .3996582 .48298646 .41966249 .48298646 .43066407 .47299195 .43066407 .45599366 .43066407H.37298585L.3939972 .5449524C.397995 .5660095 .4119873 .6370239 .41799928 .6490326 .4269867 .66804507 .44400025 .68307498 .46499635 .68307498 .46899415 .68307498 .49499513 .68307498 .5139923 .66503909 .46998597 .661026 .45999146 .6260376 .45999146 .6110382 .45999146 .58802798 .47799684 .57603457 .49699403 .57603457 .522995 .57603457 .5519867 .5980377 .5519867 .6360321 .5519867 .6820679 .5059967 .7050781 .46499635 .7050781 .43099977 .7050781 .36799623 .68707278 .33799745 .58802798 .33198548 .56700137 .32899476 .5569763 .30499269 .43066407H.23599243C.21699524 .43066407 .20599365 .43066407 .20599365 .4116516 .20599365 .3996582 .21499634 .3996582 .23399353 .3996582H.2999878L.22499085 .0048828127C.20698548-.09207153 .18998719-.18309021 .13798523-.18309021 .13398743-.18309021 .10899353-.18309021 .08999634-.16506958 .13598633-.1620636 .14498902-.12606812 .14498902-.111068729 .14498902-.08807373 .1269989-.07606506 .10798645-.07606506 .08198547-.07606506 .052993776-.09806824 .052993776-.13606262 .052993776-.18109131 .09700012-.20507813 .13798523-.20507813 .19299317-.20507813 .23298645-.14607239 .25099183-.108062747 .2829895-.04508972 .30599977 .07583618 .30699159 .082839969L.36698915 .3996582Z"/>
<path id="font_2_1" d="M.33099366-.2400055C.33099366-.23701477 .33099366-.23500061 .31399537-.21800232 .18899536-.0920105 .15699768 .09700012 .15699768 .25 .15699768 .42399598 .19499207 .59799197 .31799317 .72299197 .33099366 .73498538 .33099366 .7369995 .33099366 .73999026 .33099366 .746994 .32699586 .75 .32099916 .75 .31098939 .75 .22099304 .6819916 .1619873 .5549927 .11099243 .44499208 .09899902 .33399964 .09899902 .25 .09899902 .17199707 .10998535 .050994874 .16499329-.06201172 .22499085-.18501282 .31098939-.25 .32099916-.25 .32699586-.25 .33099366-.24700928 .33099366-.2400055Z"/>
<path id="font_2_2" d="M.2889862 .25C.2889862 .32798768 .27799989 .44898988 .22299195 .56199648 .16299439 .68499758 .07699585 .75 .066986087 .75 .06098938 .75 .056991579 .74598696 .056991579 .73999026 .056991579 .7369995 .056991579 .73498538 .07598877 .71699526 .17399597 .6179962 .23098755 .45899964 .23098755 .25 .23098755 .07899475 .19400025-.09700012 .069992069-.2230072 .056991579-.23500061 .056991579-.23701477 .056991579-.2400055 .056991579-.2460022 .06098938-.25 .066986087-.25 .07699585-.25 .16699219-.18200684 .22599793-.055007936 .2769928 .054992677 .2889862 .16600037 .2889862 .25Z"/>
<path id="font_1_2" d="M.7599945 .69506838C.7599945 .69807437 .7579956 .7050781 .7489929 .7050781 .74598696 .7050781 .7449951 .70407107 .73399356 .69306948L.6639862 .61602786C.6549988 .6300354 .60899356 .7050781 .49798585 .7050781 .2749939 .7050781 .049987794 .48391725 .049987794 .25172425 .049987794 .08659363 .16799927-.022460938 .32099916-.022460938 .4079895-.022460938 .48399354 .017532349 .5369873 .063583377 .6299896 .14564514 .6469879 .2367096 .6469879 .23971558 .6469879 .24972534 .6369934 .24972534 .6349945 .24972534 .6289978 .24972534 .6239929 .24772644 .621994 .23971558 .61299136 .21069336 .58999636 .13963318 .5209961 .081588748 .45199586 .025543213 .3889923 .008529663 .33699037 .008529663 .24699402 .008529663 .14099121 .060577394 .14099121 .21670532 .14099121 .27374269 .1619873 .43588258 .2619934 .55296328 .32299806 .62402346 .4169922 .67407229 .5059967 .67407229 .60798647 .67407229 .6669922 .5970001 .6669922 .48091126 .6669922 .44088746 .6639862 .43988038 .6639862 .4298706 .6639862 .41986085 .6749878 .41986085 .67900088 .41986085 .69200137 .41986085 .69200137 .42185975 .69699099 .43988038L.7599945 .69506838Z"/>
<path id="font_1_1" d="M.20298767 .0009918213C.20298767 .066986087 .17799378 .10598755 .13899231 .10598755 .10598755 .10598755 .085998538 .08099365 .085998538 .052993776 .085998538 .025985718 .10598755 0 .13899231 0 .15098572 0 .1639862 .0039978029 .17399597 .0129852299 .1769867 .01499939 .17799378 .015991211 .1789856 .015991211 .17999268 .015991211 .18099976 .01499939 .18099976 .0009918213 .18099976-.07316589 .1459961-.13328552 .11299133-.16635132 .101989749-.17736817 .101989749-.17936707 .101989749-.18237305 .101989749-.18936157 .10699463-.19335938 .11199951-.19335938 .12298584-.19335938 .20298767-.116256717 .20298767 .0009918213Z"/>
<path id="font_1_6" d="M.5159912 .68333438C.5159912 .6843262 .5159912 .69433596 .5029907 .69433596 .48799134 .69433596 .3929901 .68533328 .37599183 .68333438 .36799623 .6823273 .3619995 .6773224 .3619995 .6643219 .3619995 .6523285 .37098695 .6523285 .38598634 .6523285 .43399049 .6523285 .43598939 .6453247 .43598939 .6353302L.43299867 .6153412 .37298585 .37835694C.35499574 .41537477 .32598878 .4423828 .2809906 .4423828 .1639862 .4423828 .039993287 .29533387 .039993287 .14929199 .039993287 .055267335 .09498596-.0107421879 .17298889-.0107421879 .19299317-.0107421879 .24299622-.0067443849 .30299378 .06427002 .31098939 .022247315 .34599305-.0107421879 .3939972-.0107421879 .42900086-.0107421879 .45199586 .012252808 .46798707 .044265748 .4850006 .08027649 .49798585 .14129639 .49798585 .14329529 .49798585 .1532898 .4889984 .1532898 .48599244 .1532898 .47599793 .1532898 .47499085 .14929199 .47200013 .13528443 .45498658 .07026672 .43699647 .011245728 .3959961 .011245728 .36898805 .011245728 .3659973 .037261964 .3659973 .057266237 .3659973 .08126831 .36799623 .088272098 .37199403 .105285648L.5159912 .68333438M.30799867 .119277957C.30299378 .10127258 .30299378 .09927368 .28799439 .08227539 .24398804 .027252198 .20298767 .011245728 .1749878 .011245728 .125 .011245728 .11099243 .06626892 .11099243 .105285648 .11099243 .1552887 .14299011 .27833558 .1659851 .32434083 .19699097 .38336183 .24198914 .42037965 .28199769 .42037965 .34700013 .42037965 .36099244 .3383484 .36099244 .33235169 .36099244 .32633973 .35899354 .32034303 .35798646 .31533814L.30799867 .119277957Z"/>
<path id="font_1_3" d="M.15899658 .07795715C.14898682 .038986207 .14698792 .0309906 .067993167 .0309906 .050994874 .0309906 .039993287 .0309906 .039993287 .011993408 .039993287 0 .04899597 0 .067993167 0H.39898683C.6069946 0 .80400088 .21087647 .80400088 .42974855 .80400088 .5706482 .71899417 .6826172 .56900027 .6826172H.23298645C.21398926 .6826172 .20298767 .6826172 .20298767 .66360476 .20298767 .6516113 .21199036 .6516113 .23199463 .6516113 .24499512 .6516113 .2630005 .65060427 .2749939 .6496124 .29100038 .6476135 .29699708 .64460757 .29699708 .6336212 .29699708 .6296234 .29599 .62661746 .29299928 .614624L.15899658 .07795715M.375 .6136322C.38398744 .64860537 .38598634 .6516113 .42900086 .6516113H.5359955C.6339874 .6516113 .71699526 .5986328 .71699526 .46672059 .71699526 .41775514 .69699099 .25386048 .6119995 .1439209 .58299258 .10694885 .5039978 .0309906 .3809967 .0309906H.2679901C.2539978 .0309906 .2519989 .0309906 .24598694 .03199768 .23599243 .032989503 .23298645 .033996583 .23298645 .041992189 .23298645 .04498291 .23298645 .04698181 .23799134 .064971927L.375 .6136322Z"/>
<path id="font_1_4" d="M.70799258 .23292542C.70999148 .23791504 .71299746 .24491883 .71299746 .24691773 .71299746 .24790955 .71299746 .2579193 .70098879 .2579193 .69200137 .2579193 .6899872 .25190736 .6879883 .24591065 .6230011 .097961429 .58599856 .0309906 .4149933 .0309906H.2689972C.25498963 .0309906 .25299073 .0309906 .24699402 .03199768 .23699951 .032989503 .23399353 .033996583 .23399353 .041992189 .23399353 .04498291 .23399353 .04698181 .23899842 .06498718L.30699159 .33789063H.4059906C.4909973 .33789063 .4909973 .31689454 .4909973 .29190064 .4909973 .28489686 .4909973 .27290345 .48399354 .24291992 .48199464 .23791504 .48098756 .23492432 .48098756 .23191834 .48098756 .22692871 .4850006 .220932 .49398805 .220932 .5019989 .220932 .5049896 .22592163 .5089874 .24092102L.56599429 .47477723C.56599429 .48077394 .5609894 .48576356 .55400088 .48576356 .54499819 .48576356 .54299929 .47976686 .5399933 .4677887 .5189972 .39186097 .5009918 .36888124 .40899659 .36888124H.31498719L.375 .60964968C.38398744 .64460757 .3849945 .64860537 .42900086 .64860537H.56999209C.69200137 .64860537 .7220001 .61964419 .7220001 .5377197 .7220001 .51374819 .7220001 .51174929 .71798709 .48477174 .71798709 .47877503 .71699526 .4717865 .71699526 .46678163 .71699526 .461792 .7200012 .45480348 .72898867 .45480348 .73999026 .45480348 .7409973 .46080018 .7429962 .47976686L.7630005 .65260317C.7659912 .6796112 .7609863 .6796112 .73599246 .6796112H.23098755C.21099854 .6796112 .20098877 .6796112 .20098877 .65960696 .20098877 .64860537 .20999146 .64860537 .22898865 .64860537 .2659912 .64860537 .2939911 .64860537 .2939911 .6306305 .2939911 .6266327 .2939911 .6246338 .2889862 .6066437L.15699768 .07797241C.14698792 .038986207 .14498902 .0309906 .06599426 .0309906 .04899597 .0309906 .037994386 .0309906 .037994386 .011993408 .037994386 0 .04699707 0 .06599426 0H.58499148C.60798647 0 .60899356 .0009918213 .6159973 .016998291L.70799258 .23292542Z"/>
<path id="font_2_4" d="M.2899933 .35191346C.37199403 .37893678 .42999269 .4490509 .42999269 .52809146 .42999269 .6100464 .34199525 .6660156 .24598694 .6660156 .14498902 .6660156 .068984989 .60606387 .068984989 .53009036 .068984989 .49710084 .09098816 .47808839 .11999512 .47808839 .15098572 .47808839 .17098999 .50009158 .17098999 .5290985 .17098999 .57910159 .12399292 .57910159 .10899353 .57910159 .13999939 .62802127 .20599365 .64100649 .24198914 .64100649 .2829895 .64100649 .33799745 .6190338 .33799745 .5290985 .33799745 .51708987 .33599855 .45906068 .30999757 .4149933 .27999879 .36691285 .24598694 .36390687 .22099304 .36291505 .21299744 .36190797 .18899536 .35990907 .18199158 .35990907 .17399597 .35890199 .16699219 .35791017 .16699219 .3479004 .16699219 .33691407 .17399597 .33691407 .19099427 .33691407H.23498535C.31698609 .33691407 .35398866 .2686615 .35398866 .17037964 .35398866 .034469606 .2849884 .0055389406 .24099732 .0055389406 .19799805 .0055389406 .12298584 .022491456 .08799744 .08137512 .12298584 .07637024 .1539917 .09837341 .1539917 .1363678 .1539917 .17237854 .1269989 .19238281 .09799194 .19238281 .07398987 .19238281 .041992189 .17837525 .041992189 .1343689 .041992189 .043441774 .1349945-.022460938 .24398804-.022460938 .3659973-.022460938 .45700074 .06838989 .45700074 .17037964 .45700074 .252594 .3939972 .33088685 .2899933 .35191346Z"/>
<path id="font_3_1" d="M.6589966 .23046875C.6759949 .23046875 .69400027 .23046875 .69400027 .25045777 .69400027 .27046205 .6759949 .27046205 .6589966 .27046205H.117996219C.100997928 .27046205 .08299255 .27046205 .08299255 .25045777 .08299255 .23046875 .100997928 .23046875 .117996219 .23046875H.6589966Z"/>
<path id="font_2_3" d="M.2939911 .64004519C.2939911 .66400149 .2939911 .6660156 .2709961 .6660156 .20899964 .60227969 .12098694 .60227969 .08898926 .60227969V.57128909C.10899353 .57128909 .16799927 .57128909 .21998596 .5972748V.07902527C.21998596 .042999269 .21699524 .0309906 .1269989 .0309906H.09498596V0C.12998963 .0029907227 .21699524 .0029907227 .25698854 .0029907227 .29699708 .0029907227 .38398744 .0029907227 .4189911 0V.0309906H.3869934C.29699708 .0309906 .2939911 .041992189 .2939911 .07902527V.64004519Z"/>
<path id="font_1_5" d="M.37298585 .37835694C.35499574 .41537477 .32598878 .4423828 .2809906 .4423828 .1639862 .4423828 .039993287 .29533387 .039993287 .14929199 .039993287 .055267335 .09498596-.0107421879 .17298889-.0107421879 .19299317-.0107421879 .24299622-.0067443849 .30299378 .06427002 .31098939 .022247315 .34599305-.0107421879 .3939972-.0107421879 .42900086-.0107421879 .45199586 .012252808 .46798707 .044265748 .4850006 .08027649 .49798585 .14129639 .49798585 .14329529 .49798585 .1532898 .4889984 .1532898 .48599244 .1532898 .47599793 .1532898 .47499085 .14929199 .47200013 .13528443 .45498658 .07026672 .43699647 .011245728 .3959961 .011245728 .36898805 .011245728 .3659973 .037261964 .3659973 .057266237 .3659973 .07926941 .36799623 .08728027 .3789978 .13128662 .3899994 .17329407 .3919983 .18330384 .40098573 .22131348L.43699647 .36135865C.44400025 .38935853 .44400025 .39135743 .44400025 .39537049 .44400025 .41236878 .43199159 .42237855 .4149933 .42237855 .3909912 .42237855 .37599183 .4003601 .37298585 .37835694M.30799867 .119277957C.30299378 .10127258 .30299378 .09927368 .28799439 .08227539 .24398804 .027252198 .20298767 .011245728 .1749878 .011245728 .125 .011245728 .11099243 .06626892 .11099243 .105285648 .11099243 .1552887 .14299011 .27833558 .1659851 .32434083 .19699097 .38336183 .24198914 .42037965 .28199769 .42037965 .34700013 .42037965 .36099244 .3383484 .36099244 .33235169 .36099244 .32633973 .35899354 .32034303 .35798646 .31533814L.30799867 .119277957Z"/>
</defs>
<path transform="matrix(1,0,0,-1,89.361,145.315)" stroke-width=".3985" stroke-linecap="butt" stroke-miterlimit="10" stroke-linejoin="miter" fill="none" stroke="#000000" d="M-86.17432 0H84.1818"/>
<path transform="matrix(1,0,0,-1,173.5428,145.315)" d="M1.99252 0-1.19551 1.59401 0 0-1.19551-1.59401"/>
<use data-text="x" xlink:href="#font_1_8" transform="matrix(9.96264,0,0,-9.96264,179.054,147.46)"/>
<path transform="matrix(1,0,0,-1,89.361,145.315)" stroke-width=".3985" stroke-linecap="butt" stroke-miterlimit="10" stroke-linejoin="miter" fill="none" stroke="#000000" d="M0-21.54315V127.26816"/>
<path transform="matrix(0,-1,-1,-0,89.361,18.046845)" d="M1.99252 0-1.19551 1.59401 0 0-1.19551-1.59401"/>
<use data-text="y" xlink:href="#font_1_9" transform="matrix(9.96264,0,0,-9.96264,86.74,10.598999)"/>
<path transform="matrix(1,0,0,-1,89.361,145.315)" stroke-width=".79701" stroke-linecap="butt" stroke-miterlimit="10" stroke-linejoin="miter" fill="none" stroke="#000000" d="M-47.47072-.0008C-47.47072-.0008-44.61292 2.7666-43.5153 3.75406-42.4177 4.7415-40.6575 6.23503-39.55989 7.11612-38.4623 7.99718-36.70209 9.32397-35.60448 10.10425-34.50687 10.8845-32.74666 12.05658-31.64906 12.7398-30.55145 13.42307-28.79124 14.43863-27.69365 15.0286-26.59604 15.61853-24.83583 16.492-23.73824 16.9919-22.64063 17.49179-20.88043 18.2189-19.7828 18.63144-18.6852 19.04399-16.925 19.63756-15.8274 19.96524-14.72978 20.29294-12.96959 20.74959-11.87198 20.99336-10.77438 21.23714-9.01418 21.56075-7.91656 21.72229-6.81895 21.88383-5.05876 22.07735-3.96114 22.15787-2.86354 22.23836-1.10333 22.30206-.00574 22.3025 1.09184 22.30293 2.85202 22.24153 3.94962 22.16115 5.04723 22.08078 6.80743 21.88492 7.90503 21.72313 9.00266 21.56136 10.76285 21.23856 11.86046 20.99501 12.95807 20.75145 14.71829 20.29474 15.8159 19.96773 16.91351 19.6407 18.6737 19.05045 19.77132 18.63802 20.86891 18.22559 22.62912 17.49509 23.72675 16.9952 24.82434 16.49532 26.58455 15.62451 27.68214 15.03514 28.77975 14.44579 30.53996 13.4301 31.63756 12.74722 32.73517 12.06432 34.49538 10.8932 35.59297 10.11328 36.6906 9.33337 38.45078 8.0068 39.5484 7.12596 40.64601 6.24512 42.4062 4.75208 43.50381 3.76474 44.60143 2.7774 47.45923 .00983 47.45923 .00983"/>
<use data-text="y" xlink:href="#font_1_9" transform="matrix(9.96264,0,0,-9.96264,124.259998,138.112)"/>
<use data-text="=" xlink:href="#font_2_5" transform="matrix(9.96264,0,0,-9.96264,132.26999,138.112)"/>
<use data-text="f" xlink:href="#font_1_7" transform="matrix(9.96264,0,0,-9.96264,142.78598,138.112)"/>
<use data-text="(" xlink:href="#font_2_1" transform="matrix(9.96264,0,0,-9.96264,148.736,138.112)"/>
<use data-text="x" xlink:href="#font_1_8" transform="matrix(9.96264,0,0,-9.96264,152.60999,138.112)"/>
<use data-text=")" xlink:href="#font_2_2" transform="matrix(9.96264,0,0,-9.96264,158.30399,138.112)"/>
<path transform="matrix(1,0,0,-1,89.361,145.315)" stroke-width=".3985" stroke-linecap="butt" stroke-miterlimit="10" stroke-linejoin="miter" fill="none" stroke="#000000" d="M-47.48068 0 56.55183-16.15776 78.1114 83.49876-26.92935 99.63902Z"/>
<path transform="matrix(1,0,0,-1,89.361,145.315)" d="M16.62392 41.74893C16.62392 42.48071 16.03067 43.07396 15.29889 43.07396 14.5671 43.07396 13.97385 42.48071 13.97385 41.74893 13.97385 41.01714 14.5671 40.42389 15.29889 40.42389 16.03067 40.42389 16.62392 41.01714 16.62392 41.74893ZM15.29889 41.74893"/>
<use data-text="C" xlink:href="#font_1_2" transform="matrix(9.96264,0,0,-9.96264,70.251,97.55599)"/>
<use data-text="(" xlink:href="#font_2_1" transform="matrix(9.96264,0,0,-9.96264,78.084,97.55599)"/>
<use data-text="x" xlink:href="#font_1_8" transform="matrix(9.96264,0,0,-9.96264,81.959,97.55599)"/>
<use data-text="," xlink:href="#font_1_1" transform="matrix(9.96264,0,0,-9.96264,87.65763,97.55599)"/>
<use data-text="d" xlink:href="#font_1_6" transform="matrix(9.96264,0,0,-9.96264,92.08105,97.55599)"/>
<use data-text=")" xlink:href="#font_2_2" transform="matrix(9.96264,0,0,-9.96264,97.266,97.55599)"/>
<path transform="matrix(1,0,0,-1,89.361,145.315)" d="M-46.15564 0C-46.15564 .73178-46.74889 1.32503-47.48068 1.32503-48.21248 1.32503-48.80571 .73178-48.80571 0-48.80571-.73178-48.21248-1.32503-47.48068-1.32503-46.74889-1.32503-46.15564-.73178-46.15564 0ZM-47.48068 0"/>
<use data-text="D" xlink:href="#font_1_3" transform="matrix(9.96264,0,0,-9.96264,29.835999,155.643)"/>
<path transform="matrix(1,0,0,-1,89.361,145.315)" d="M79.43645 83.49876C79.43645 84.23055 78.8432 84.82379 78.1114 84.82379 77.37961 84.82379 76.78638 84.23055 76.78638 83.49876 76.78638 82.76697 77.37961 82.17372 78.1114 82.17372 78.8432 82.17372 79.43645 82.76697 79.43645 83.49876ZM78.1114 83.49876"/>
<use data-text="E" xlink:href="#font_1_4" transform="matrix(9.96264,0,0,-9.96264,170.991,65.22099)"/>
<path transform="matrix(1,0,0,-1,89.361,145.315)" stroke-width=".3985" stroke-linecap="butt" stroke-miterlimit="10" stroke-linejoin="miter" fill="none" stroke="#000000" d="M-1.07738 107.71751H1.07738"/>
<use data-text="3" xlink:href="#font_2_4" transform="matrix(9.96264,0,0,-9.96264,79.244,40.809007)"/>
<path transform="matrix(1,0,0,-1,89.361,145.315)" stroke-width=".3985" stroke-linecap="butt" stroke-miterlimit="10" stroke-linejoin="miter" fill="none" stroke="#000000" d="M-64.63034-1.61568V1.61568"/>
<path transform="matrix(1,0,0,-1,89.361,145.315)" stroke-width=".3985" stroke-linecap="butt" stroke-miterlimit="10" stroke-linejoin="miter" fill="none" stroke="#000000" d="M-47.47072-1.61568V1.61568"/>
<path transform="matrix(1,0,0,-1,89.361,145.315)" stroke-width=".3985" stroke-linecap="butt" stroke-miterlimit="10" stroke-linejoin="miter" fill="none" stroke="#000000" d="M47.47072-1.61568V1.61568"/>
<path transform="matrix(1,0,0,-1,89.361,145.315)" stroke-width=".3985" stroke-linecap="butt" stroke-miterlimit="10" stroke-linejoin="miter" fill="none" stroke="#000000" d="M64.63034-1.61568V1.61568"/>
<use data-text="&#x2212;" xlink:href="#font_3_1" transform="matrix(9.96264,0,0,-9.96264,18.366997,156.871)"/>
<use data-text="1" xlink:href="#font_2_3" transform="matrix(9.96264,0,0,-9.96264,26.114996,156.871)"/>
<use data-text="&#x2212;" xlink:href="#font_3_1" transform="matrix(9.96264,0,0,-9.96264,35.384,157.878)"/>
<use data-text="a" xlink:href="#font_1_5" transform="matrix(9.96264,0,0,-9.96264,43.132,157.878)"/>
<use data-text="a" xlink:href="#font_1_5" transform="matrix(9.96264,0,0,-9.96264,134.198,156.356)"/>
<use data-text="1" xlink:href="#font_2_3" transform="matrix(9.96264,0,0,-9.96264,151.5,156.871)"/>
</svg>
