<svg xmlns="http://www.w3.org/2000/svg" xmlns:xlink="http://www.w3.org/1999/xlink" xmlns:inkscape="http://www.inkscape.org/namespaces/inkscape" version="1.1" width="120.16" height="148.507" viewBox="0 0 120.16 148.507">
<path transform="matrix(1,0,0,-1,3.387,74.254009)" stroke-width=".79701" stroke-linecap="butt" stroke-miterlimit="10" stroke-linejoin="miter" fill="none" stroke="#2471a3" d="M0 0 56.69362 28.3468 113.38724 0 56.69362-28.3468Z"/>
<path transform="matrix(1,0,0,-1,3.387,74.254009)" stroke-width=".79701" stroke-linecap="butt" stroke-miterlimit="10" stroke-linejoin="miter" fill="none" stroke="#2471a3" d="M0 0 56.69362 70.867 113.38724 0"/>
<path transform="matrix(1,0,0,-1,3.387,74.254009)" stroke-width=".79701" stroke-linecap="butt" stroke-miterlimit="10" stroke-linejoin="miter" fill="none" stroke="#2471a3" d="M0 0 56.69362-70.867 113.38724 0"/>
<path transform="matrix(1,0,0,-1,3.387,74.254009)" stroke-width=".79701" stroke-linecap="butt" stroke-dasharray="2.98883,2.98883" stroke-miterlimit="10" stroke-linejoin="miter" fill="none" stroke="#2471a3" d="M56.69362 28.3468V70.867"/>
<path transform="matrix(1,0,0,-1,3.387,74.254009)" stroke-width=".79701" stroke-linecap="butt" stroke-dasharray="2.98883,2.98883" stroke-miterlimit="10" stroke-linejoin="miter" fill="none" stroke="#2471a3" d="M56.69362 28.3468V-70.867"/>
<path transform="matrix(1,0,0,-1,3.387,74.254009)" stroke-width=".79701" stroke-linecap="butt" stroke-dasharray="2.98883,2.98883" stroke-miterlimit="10" stroke-linejoin="miter" fill="none" stroke="#2471a3" d="M56.69362-28.3468V70.867"/>
<path transform="matrix(1,0,0,-1,3.387,74.254009)" stroke-width=".79701" stroke-linecap="butt" stroke-dasharray="2.98883,2.98883" stroke-miterlimit="10" stroke-linejoin="miter" fill="none" stroke="#2471a3" d="M56.69362-28.3468V-70.867"/>
</svg>
