<svg xmlns="http://www.w3.org/2000/svg" xmlns:xlink="http://www.w3.org/1999/xlink" xmlns:inkscape="http://www.inkscape.org/namespaces/inkscape" version="1.1" width="185.544" height="123.886" viewBox="0 0 185.544 123.886">
<defs>
<path id="font_1_1" d="M.6589966 .23046875C.6759949 .23046875 .69400027 .23046875 .69400027 .25045777 .69400027 .27046205 .6759949 .27046205 .6589966 .27046205H.117996219C.100997928 .27046205 .08299255 .27046205 .08299255 .25045777 .08299255 .23046875 .100997928 .23046875 .117996219 .23046875H.6589966Z"/>
<path id="font_2_3" d="M.2899933 .35191346C.37199403 .37893678 .42999269 .4490509 .42999269 .52809146 .42999269 .6100464 .34199525 .6660156 .24598694 .6660156 .14498902 .6660156 .068984989 .60606387 .068984989 .53009036 .068984989 .49710084 .09098816 .47808839 .11999512 .47808839 .15098572 .47808839 .17098999 .50009158 .17098999 .5290985 .17098999 .57910159 .12399292 .57910159 .10899353 .57910159 .13999939 .62802127 .20599365 .64100649 .24198914 .64100649 .2829895 .64100649 .33799745 .6190338 .33799745 .5290985 .33799745 .51708987 .33599855 .45906068 .30999757 .4149933 .27999879 .36691285 .24598694 .36390687 .22099304 .36291505 .21299744 .36190797 .18899536 .35990907 .18199158 .35990907 .17399597 .35890199 .16699219 .35791017 .16699219 .3479004 .16699219 .33691407 .17399597 .33691407 .19099427 .33691407H.23498535C.31698609 .33691407 .35398866 .2686615 .35398866 .17037964 .35398866 .034469606 .2849884 .0055389406 .24099732 .0055389406 .19799805 .0055389406 .12298584 .022491456 .08799744 .08137512 .12298584 .07637024 .1539917 .09837341 .1539917 .1363678 .1539917 .17237854 .1269989 .19238281 .09799194 .19238281 .07398987 .19238281 .041992189 .17837525 .041992189 .1343689 .041992189 .043441774 .1349945-.022460938 .24398804-.022460938 .3659973-.022460938 .45700074 .06838989 .45700074 .17037964 .45700074 .252594 .3939972 .33088685 .2899933 .35191346Z"/>
<path id="font_2_2" d="M.1269989 .07699585 .23298645 .18003845C.3889923 .31811524 .44898988 .3721466 .44898988 .47216798 .44898988 .5860901 .35899354 .6660156 .23699951 .6660156 .12399292 .6660156 .049987794 .57411196 .049987794 .48516847 .049987794 .4291687 .099990848 .4291687 .102996829 .4291687 .11999512 .4291687 .15499878 .44117738 .15499878 .48217774 .15499878 .5081787 .13699341 .5341797 .101989749 .5341797 .09399414 .5341797 .09199524 .5341797 .08898926 .5331726 .11199951 .59806826 .1659851 .63500979 .22399903 .63500979 .31498719 .63500979 .35798646 .5541382 .35798646 .47216798 .35798646 .39215089 .30799867 .31311036 .25299073 .25108338L.06098938 .036987306C.049987794 .025985718 .049987794 .023986817 .049987794 0H.42099L.44898988 .17404175H.42399598C.4189911 .14402771 .4119873 .1000061 .4019928 .084991458 .394989 .07699585 .32899476 .07699585 .30699159 .07699585H.1269989Z"/>
<path id="font_2_1" d="M.2939911 .64004519C.2939911 .66400149 .2939911 .6660156 .2709961 .6660156 .20899964 .60227969 .12098694 .60227969 .08898926 .60227969V.57128909C.10899353 .57128909 .16799927 .57128909 .21998596 .5972748V.07902527C.21998596 .042999269 .21699524 .0309906 .1269989 .0309906H.09498596V0C.12998963 .0029907227 .21699524 .0029907227 .25698854 .0029907227 .29699708 .0029907227 .38398744 .0029907227 .4189911 0V.0309906H.3869934C.29699708 .0309906 .2939911 .041992189 .2939911 .07902527V.64004519Z"/>
<path id="font_2_4" d="M.2939911 .16503906V.07800293C.2939911 .041992189 .2919922 .0309906 .21798706 .0309906H.19699097V0C.23799134 .0029907227 .2899933 .0029907227 .33198548 .0029907227 .37399293 .0029907227 .4269867 .0029907227 .46798707 0V.0309906H.44699098C.37298585 .0309906 .37098695 .041992189 .37098695 .07800293V.16503906H.47099305V.19602967H.37098695V.65075686C.37098695 .67074587 .37098695 .6767578 .35499574 .6767578 .34599305 .6767578 .34298707 .6767578 .33499146 .66474917L.027999878 .19602967V.16503906H.2939911M.2999878 .19602967H.055999757L.2999878 .5688019V.19602967Z"/>
<clipPath id="clip_3">
<path transform="matrix(.85,0,0,-.85,11.221251,114.992908)" d="M0 0H195.75891V125.23997H0Z"/>
</clipPath>
<path id="font_1_2" d="M.44400025 .24998474C.44400025 .35688783 .35499574 .44381715 .25 .44381715 .14199829 .44381715 .054992677 .35488893 .054992677 .24998474 .054992677 .14407349 .14199829 .056137086 .25 .056137086 .35499574 .056137086 .44400025 .14308167 .44400025 .24998474Z"/>
<path id="font_4_1" d="M.9259949 .6056366C.93499758 .6416168 .93699648 .6516113 1.0119934 .6516113 1.0349884 .6516113 1.0439911 .6516113 1.0439911 .6716156 1.0439911 .6826172 1.0339966 .6826172 1.0169983 .6826172H.8849945C.85899356 .6826172 .8580017 .6826172 .84599307 .66360476L.48098756 .093948367 .40299989 .65960696C.3999939 .6826172 .397995 .6826172 .37199403 .6826172H.23498535C.21598816 .6826172 .20498657 .6826172 .20498657 .66360476 .20498657 .6516113 .21398926 .6516113 .23399353 .6516113 .24699402 .6516113 .2649994 .65060427 .2769928 .6496124 .29299928 .6476135 .29899598 .64460757 .29899598 .6336212 .29899598 .6296234 .2979889 .62661746 .29499818 .614624L.16799927 .10594177C.1579895 .065963748 .14099121 .033996583 .05999756 .0309906 .054992677 .0309906 .041992189 .02999878 .041992189 .011993408 .041992189 .0029907227 .04798889 0 .055999757 0 .08799744 0 .12298584 .0029907227 .1559906 .0029907227 .18998719 .0029907227 .22599793 0 .25898744 0 .2639923 0 .2769928 0 .2769928 .019989014 .2769928 .0309906 .2659912 .0309906 .25898744 .0309906 .20199585 .03199768 .19099427 .051986696 .19099427 .07496643 .19099427 .081954959 .19198609 .08695984 .19499207 .09794617L.33099366 .64260867H.33198548L.41799928 .022994996C.41999818 .010986328 .42099 0 .43299867 0 .44400025 0 .44999696 .010986328 .45498658 .017990113L.85899356 .65060427H.8600006L.71699526 .07795715C.70700076 .038986207 .7049866 .0309906 .6259918 .0309906 .60899356 .0309906 .59799197 .0309906 .59799197 .011993408 .59799197 0 .6100006 0 .61299136 0 .6409912 0 .70899966 .0029907227 .7369995 .0029907227 .7779999 .0029907227 .82099917 0 .8619995 0 .8679962 0 .8809967 0 .8809967 .019989014 .8809967 .0309906 .871994 .0309906 .8529968 .0309906 .81599429 .0309906 .7879944 .0309906 .7879944 .048980714 .7879944 .052978517 .7879944 .054977418 .79299929 .07296753L.9259949 .6056366Z"/>
<path id="font_4_2" d="M.08799744 .059265138C.084991458 .044265748 .07899475 .021255494 .07899475 .01625061 .07899475-.0017547608 .09298706-.0107421879 .10798645-.0107421879 .11999512-.0107421879 .13798523-.002746582 .14498902 .01725769 .1459961 .019256592 .1579895 .06626892 .1639862 .091278079L.18598938 .18130493C.19198609 .2033081 .19799805 .22531128 .20298767 .24832154 .20698548 .26531983 .21499634 .29434205 .21598816 .29833985 .23098755 .3293457 .28399659 .42037965 .3789978 .42037965 .42399598 .42037965 .43299867 .38336183 .43299867 .35035707 .43299867 .3253479 .42599488 .29733277 .41799928 .26733399L.3899994 .1512909 .36999513 .07527161C.3659973 .055267335 .35699464 .021255494 .35699464 .01625061 .35699464-.0017547608 .37098695-.0107421879 .38598634-.0107421879 .4169922-.0107421879 .4229889 .014251709 .43099977 .04626465 .44499208 .10227966 .48199464 .24832154 .4909973 .28733827 .49398805 .30033876 .5469971 .42037965 .6559906 .42037965 .69898989 .42037965 .70999148 .3863678 .70999148 .35035707 .70999148 .29333497 .66799929 .17930603 .647995 .12628174 .6389923 .10227966 .6349945 .091278079 .6349945 .0712738 .6349945 .024261475 .66999819-.0107421879 .71699526-.0107421879 .8109894-.0107421879 .84799197 .13528443 .84799197 .14329529 .84799197 .1532898 .83898928 .1532898 .83599856 .1532898 .82598879 .1532898 .82598879 .15029907 .82099917 .13528443 .80599978 .08227539 .7739868 .011245728 .71899417 .011245728 .70199587 .011245728 .69499209 .021255494 .69499209 .044265748 .69499209 .0692749 .70399478 .09327698 .71299746 .11528015 .7319946 .16729737 .7739868 .27833558 .7739868 .3353424 .7739868 .4003601 .73399356 .4423828 .6589966 .4423828 .58399966 .4423828 .5329895 .3983612 .49598695 .34535218 .49499513 .35835267 .49198915 .3923645 .46398927 .41636659 .43899537 .43737794 .40699769 .4423828 .38198854 .4423828 .2919922 .4423828 .24299622 .37835694 .22599793 .35534669 .22099304 .41236878 .1789856 .4423828 .13398743 .4423828 .08799744 .4423828 .068984989 .4033661 .05999756 .38536073 .041992189 .35035707 .0289917 .29133607 .0289917 .28833009 .0289917 .27833558 .038986207 .27833558 .040985109 .27833558 .050994874 .27833558 .051986696 .2793274 .057998659 .30133058 .07499695 .37236024 .09498596 .42037965 .1309967 .42037965 .14698792 .42037965 .1619873 .41236878 .1619873 .37435914 .1619873 .35334779 .15899658 .3423462 .1459961 .29032899L.08799744 .059265138Z"/>
<path id="font_4_3" d="M.33399964 .30233766C.33999635 .32835389 .36299134 .42037965 .43299867 .42037965 .43798829 .42037965 .46199037 .42037965 .48298646 .40734864 .45498658 .402359 .43499757 .37734986 .43499757 .35334779 .43499757 .33735658 .44599916 .31835938 .47299195 .31835938 .49499513 .31835938 .5269928 .3363495 .5269928 .37635804 .5269928 .42837525 .46798707 .4423828 .43399049 .4423828 .37599183 .4423828 .34098817 .38935853 .32899476 .36634828 .3039856 .43237306 .25 .4423828 .22099304 .4423828 .116989139 .4423828 .05999756 .3133545 .05999756 .28834535 .05999756 .27833558 .069992069 .27833558 .07199097 .27833558 .07998657 .27833558 .08299255 .28033448 .084991458 .28933717 .11898804 .39535523 .18499756 .42037965 .21899414 .42037965 .23799134 .42037965 .272995 .4113617 .272995 .35334779 .272995 .32235719 .2559967 .25532533 .21899414 .11528015 .20298767 .053268434 .16799927 .011245728 .12399292 .011245728 .117996219 .011245728 .09498596 .011245728 .07398987 .024276734 .09899902 .029266358 .12098694 .05027771 .12098694 .07827759 .12098694 .105270389 .09899902 .11328125 .083999637 .11328125 .053985597 .11328125 .0289917 .08728027 .0289917 .055267335 .0289917 .009246826 .07899475-.0107421879 .12298584-.0107421879 .18899536-.0107421879 .22499085 .059280397 .22799683 .0652771 .23999024 .028274537 .27598573-.0107421879 .33599855-.0107421879 .43899537-.0107421879 .49598695 .118270877 .49598695 .14328003 .49598695 .1532898 .4869995 .1532898 .48399354 .1532898 .47499085 .1532898 .47299195 .14929199 .47099305 .14228821 .43798829 .03527832 .36999513 .011245728 .33799745 .011245728 .29899598 .011245728 .2829895 .043273927 .2829895 .07727051 .2829895 .09927368 .2889862 .121276859 .2999878 .16529846L.33399964 .30233766Z"/>
<path id="font_4_4" d="M.48599244 .38136292C.48999024 .39537049 .48999024 .39736939 .48999024 .40437318 .48999024 .42237855 .47599793 .43138124 .46099855 .43138124 .45098878 .43138124 .43499757 .42536927 .42599488 .41036988 .42399598 .405365 .41600038 .37435914 .4119873 .35635377 .40499879 .33035279 .397995 .30334474 .3919983 .27633668L.34700013 .09628296C.34298707 .08126831 .2999878 .011245728 .23399353 .011245728 .18299866 .011245728 .17199707 .055267335 .17199707 .0922699 .17199707 .1382904 .18899536 .20030213 .22299195 .28833009 .23899842 .3293457 .24299622 .3403473 .24299622 .36035157 .24299622 .405365 .21099854 .4423828 .16099549 .4423828 .06599426 .4423828 .0289917 .29733277 .0289917 .28833009 .0289917 .27833558 .038986207 .27833558 .040985109 .27833558 .050994874 .27833558 .051986696 .28033448 .056991579 .29634095 .083999637 .3903656 .12399292 .42037965 .1579895 .42037965 .1659851 .42037965 .18299866 .42037965 .18299866 .3883667 .18299866 .36335755 .17298889 .3373413 .1659851 .31834413 .12599182 .21231079 .10798645 .1552887 .10798645 .10827637 .10798645 .019256592 .17098999-.0107421879 .22999573-.0107421879 .2689972-.0107421879 .30299378 .0062561037 .33099366 .03425598 .31799317-.017745972 .30599977-.06674194 .2659912-.11973572 .23999024-.15385437 .20199585-.18309021 .1559906-.18309021 .14199829-.18309021 .09700012-.18005371 .07998657-.14074707 .09599304-.14074707 .10899353-.14074707 .12298584-.1287384 .1329956-.11973572 .14299011-.10673523 .14299011-.08773804 .14299011-.056747438 .115997318-.052734376 .10598755-.052734376 .08299255-.052734376 .049987794-.068740848 .049987794-.11773682 .049987794-.16796875 .09399414-.20507813 .1559906-.20507813 .25898744-.20507813 .3619995-.11373901 .3899994-.00074768069L.48599244 .38136292Z"/>
</defs>
<path transform="matrix(.85,0,0,-.85,11.221251,114.992908)" stroke-width=".19925" stroke-linecap="butt" stroke-miterlimit="10" stroke-linejoin="miter" fill="none" stroke="#7f807f" d="M0 60.49411V64.74583M32.62648 60.49411V64.74583M65.25296 60.49411V64.74583M130.50594 60.49411V64.74583M163.13242 60.49411V64.74583M195.75891 60.49411V64.74583"/>
<path transform="matrix(.85,0,0,-.85,11.221251,114.992908)" stroke-width=".19925" stroke-linecap="butt" stroke-miterlimit="10" stroke-linejoin="miter" fill="none" stroke="#7f807f" d="M95.75351 0H100.00537M95.75351 31.30998H100.00537M95.75351 93.92998H100.00537M95.75351 125.23997H100.00537"/>
<path transform="matrix(.85,0,0,-.85,11.221251,114.992908)" stroke-width=".79701" stroke-linecap="butt" stroke-miterlimit="10" stroke-linejoin="miter" fill="none" stroke="#000000" d="M0 62.61998H193.16864"/>
<path transform="matrix(.85,0,0,-.85,175.4146,61.76592)" d="M2.59026 0-1.55415 2.0722 0 0-1.55415-2.0722"/>
<path transform="matrix(.85,0,0,-.85,11.221251,114.992908)" stroke-width=".79701" stroke-linecap="butt" stroke-miterlimit="10" stroke-linejoin="miter" fill="none" stroke="#000000" d="M97.87946 0V122.6497"/>
<path transform="matrix(0,-.85,-.85,-0,94.4188,10.740662)" d="M2.59026 0-1.55415 2.0722 0 0-1.55415-2.0722"/>
<use data-text="&#x2212;" xlink:href="#font_1_1" transform="matrix(8.468244,0,0,-8.468244,5.8110005,72.192)"/>
<use data-text="3" xlink:href="#font_2_3" transform="matrix(8.468244,0,0,-8.468244,12.39765,72.192)"/>
<use data-text="&#x2212;" xlink:href="#font_1_1" transform="matrix(8.468244,0,0,-8.468244,33.5431,72.192)"/>
<use data-text="2" xlink:href="#font_2_2" transform="matrix(8.468244,0,0,-8.468244,40.129747,72.192)"/>
<use data-text="&#x2212;" xlink:href="#font_1_1" transform="matrix(8.468244,0,0,-8.468244,61.2752,72.192)"/>
<use data-text="1" xlink:href="#font_2_1" transform="matrix(8.468244,0,0,-8.468244,67.86185,72.192)"/>
<use data-text="1" xlink:href="#font_2_1" transform="matrix(8.468244,0,0,-8.468244,120.033168,72.192)"/>
<use data-text="2" xlink:href="#font_2_2" transform="matrix(8.468244,0,0,-8.468244,147.76526,72.192)"/>
<use data-text="3" xlink:href="#font_2_3" transform="matrix(8.468244,0,0,-8.468244,175.49736,72.192)"/>
<use data-text="&#x2212;" xlink:href="#font_1_1" transform="matrix(8.468244,0,0,-8.468244,78.629657,117.36865)"/>
<use data-text="4" xlink:href="#font_2_4" transform="matrix(8.468244,0,0,-8.468244,85.215457,117.36865)"/>
<use data-text="&#x2212;" xlink:href="#font_1_1" transform="matrix(8.468244,0,0,-8.468244,78.629657,90.756)"/>
<use data-text="2" xlink:href="#font_2_2" transform="matrix(8.468244,0,0,-8.468244,85.215457,90.756)"/>
<use data-text="2" xlink:href="#font_2_2" transform="matrix(8.468244,0,0,-8.468244,85.215457,37.8826)"/>
<use data-text="4" xlink:href="#font_2_4" transform="matrix(8.468244,0,0,-8.468244,85.215457,11.269104)"/>
<g clip-path="url(#clip_3)">
<path transform="matrix(.85,0,0,-.85,11.221251,114.992908)" stroke-width="1.19553" stroke-linecap="butt" stroke-miterlimit="10" stroke-linejoin="miter" fill="none" stroke="#2471a3" d="M16.31302-64.5789C16.31302-64.5789 16.9053-60.13577 17.13277-58.45746 17.36024-56.77914 17.72505-54.12056 17.95253-52.48277 18.18-50.84499 18.54482-48.25102 18.77228-46.65335 18.99974-45.05566 19.36456-42.52568 19.59203-40.9677 19.81949-39.40971 20.18431-36.94307 20.41177-35.42435 20.63925-33.90562 21.00406-31.50163 21.23154-30.02179 21.459-28.54193 21.82382-26.19995 22.05128-24.75854 22.27875-23.31714 22.64357-21.03648 22.87103-19.63312 23.0985-18.22975 23.46332-16.00977 23.69078-14.64401 23.91826-13.27826 24.28307-11.11829 24.51054-9.78976 24.738-8.46123 25.10283-6.36058 25.33029-5.06885 25.55775-3.77711 25.92258-1.73515 26.15004-.4798 26.3775 .77554 26.74232 2.75948 26.96979 3.97885 27.19727 5.19823 27.56207 7.12483 27.78955 8.30865 28.01701 9.49248 28.38182 11.3624 28.6093 12.51106 28.83676 13.65974 29.20158 15.47363 29.42905 16.58757 29.65651 17.7015 30.02132 19.46005 30.24878 20.53967 30.47626 21.61931 30.84106 23.32312 31.06853 24.36885 31.296 25.41458 31.66081 27.06436 31.88829 28.0766 32.11575 29.08884 32.48058 30.68524 32.70804 31.66441 32.9355 32.64357 33.30032 34.18729 33.52779 35.13377 33.75525 36.08026 34.12007 37.57191 34.34753 38.48616 34.57501 39.4004 34.93982 40.84067 35.1673 41.72308 35.39476 42.6055 35.75958 43.99506 35.98705 44.84604 36.21451 45.69704 36.57933 47.03651 36.8068 47.85649 37.03426 48.67647 37.39908 49.96655 37.62654 50.75595 37.85402 51.54533 38.21883 52.78668 38.4463 53.54588 38.67377 54.3051 39.03857 55.49838 39.26605 56.22783 39.49352 56.95726 39.85834 58.10312 40.0858 58.8032 40.31326 59.50328 40.67809 60.60243 40.90555 61.27357 41.13303 61.94472 41.49783 62.99777 41.7253 63.64037 41.95277 64.28297 42.31758 65.29062 42.54506 65.90512 42.77252 66.5196 43.13734 67.48248 43.3648 68.06929 43.59227 68.65608 43.95708 69.57486 44.18454 70.13437 44.412 70.69388 44.77682 71.56923 45.00429 72.10187 45.23177 72.63449 45.59657 73.4671 45.82405 73.97327 46.05151 74.47943 46.41634 75.26993 46.6438 75.75005 46.87126 76.23018 47.23608 76.97922 47.46355 77.43372 47.69101 77.88821 48.05583 78.59647 48.2833 79.02574 48.51077 79.45502 48.87558 80.12317 49.10306 80.52763 49.33052 80.9321 49.69534 81.5608 49.9228 81.94087 50.15027 82.32094 50.51509 82.91087 50.74255 83.26695 50.97002 83.62305 51.33484 84.17484 51.5623 84.50737 51.78978 84.83989 52.15459 85.35422 52.38206 85.66359 52.60953 85.97298 52.97433 86.4505 53.20181 86.73714 53.42928 87.02376 53.7941 87.46515 54.02156 87.72946 54.24902 87.99376 54.61385 88.39967 54.84131 88.64207 55.06879 88.88448 55.4336 89.2556 55.66106 89.47649 55.88853 89.69737 56.25334 90.03435 56.48082 90.23415 56.70828 90.43394 57.0731 90.73744 57.30057 90.91656 57.52803 91.09569 57.89285 91.36638 58.12032 91.52525 58.34778 91.68413 58.7126 91.92264 58.94006 92.06166 59.16754 92.20067 59.53233 92.4077 59.75981 92.52728 59.98727 92.64688 60.3521 92.82307 60.57956 92.92365 60.80702 93.02423 61.17184 93.17024 61.3993 93.25221 61.62677 93.33418 61.9916 93.4507 62.21906 93.51448 62.44653 93.57825 62.81134 93.66592 63.03882 93.71191 63.26628 93.75792 63.63109 93.81741 63.85857 93.84604 64.08603 93.87468 64.45085 93.90668 64.67831 93.91835 64.90578 93.93002 65.2706 93.93513 65.49806 93.9303 65.72554 93.92546 66.09035 93.90436 66.31781 93.88339 66.54529 93.86243 66.9101 93.81581 67.13757 93.77913 67.36504 93.74245 67.72986 93.67096 67.95732 93.61899 68.18478 93.56702 68.5496 93.47133 68.77707 93.40448 69.00453 93.33762 69.36935 93.2184 69.59682 93.13707 69.8243 93.05574 70.1891 92.91365 70.41658 92.81825 70.64404 92.72287 71.00887 92.55855 71.23633 92.44952 71.46379 92.34048 71.82861 92.15463 72.05608 92.03238 72.28354 91.91013 72.64836 91.70337 72.87582 91.56828 73.1033 91.4332 73.4681 91.20625 73.69557 91.05876 73.92303 90.91127 74.28786 90.66475 74.51532 90.50528 74.74278 90.34581 75.1076 90.0804 75.33507 89.90935 75.56253 89.7383 75.92735 89.45464 76.15482 89.27243 76.3823 89.09021 76.7471 88.78897 76.97458 88.59601 77.20204 88.40306 77.56685 88.08492 77.79433 87.88162 78.02179 87.67833 78.38661 87.34395 78.61407 87.13072 78.84154 86.9175 79.20636 86.56754 79.43382 86.34482 79.6613 86.12209 80.02611 85.75722 80.25357 85.52538 80.48105 85.29355 80.84586 84.91443 81.07333 84.67392 81.3008 84.43341 81.66562 84.04068 81.89308 83.7919 82.12054 83.54312 82.48537 83.13747 82.71283 82.88083 82.94029 82.62419 83.30511 82.20627 83.53258 81.9422 83.76006 81.67813 84.12486 81.2486 84.35234 80.9775 84.5798 80.7064 84.94463 80.26593 85.17209 79.9882 85.39955 79.71048 85.76437 79.25977 85.99184 78.97583 86.2193 78.69191 86.58412 78.23157 86.81158 77.94185 87.03906 77.65213 87.40385 77.18283 87.63133 76.88774 87.8588 76.59265 88.2236 76.11507 88.45108 75.81503 88.67854 75.51498 89.04337 75.02977 89.27083 74.72516 89.49829 74.42056 89.86311 73.92839 90.09058 73.61966 90.31805 73.31094 90.68286 72.81245 90.91032 72.5 91.1378 72.18756 91.50261 71.68343 91.73009 71.36768 91.95755 71.05191 92.32237 70.54283 92.54984 70.22418 92.7773 69.90553 93.14212 69.39214 93.36958 69.071 93.59705 68.74988 93.96187 68.2328 94.18933 67.90962 94.41681 67.58643 94.78162 67.06639 95.0091 66.74155 95.23656 66.41669 95.60138 65.89435 95.82884 65.56825 96.0563 65.24216 96.42113 64.71814 96.64859 64.39122 96.87605 64.0643 97.24088 63.5393 97.46834 63.21198 97.69582 62.88464 98.06062 62.3593 98.2881 62.03197 98.51556 61.70464 98.88039 61.17964 99.10785 60.85272 99.33531 60.5258 99.70013 60.00179 99.9276 59.67569 100.15506 59.3496 100.51988 58.82726 100.74734 58.50241 100.97482 58.17755 101.33963 57.6575 101.56711 57.33432 101.79457 57.01112 102.15936 56.49406 102.38684 56.17294 102.6143 55.85182 102.97913 55.33841 103.20659 55.01978 103.43405 54.70113 103.79887 54.19202 104.02634 53.87627 104.25381 53.5605 104.61862 53.05638 104.84608 52.74394 105.07356 52.43149 105.43837 51.933 105.66585 51.62428 105.89331 51.31557 106.25813 50.82338 106.4856 50.51878 106.71306 50.21417 107.07788 49.72896 107.30534 49.42892 107.5328 49.12888 107.89763 48.65128 108.12509 48.35619 108.35257 48.06111 108.71738 47.59181 108.94485 47.30211 109.17232 47.0124 109.53714 46.55203 109.7646 46.26811 109.99207 45.98418 110.35689 45.53346 110.58435 45.25574 110.81181 44.97801 111.17664 44.53755 111.4041 44.26643 111.63158 43.99533 111.99638 43.56581 112.22386 43.30173 112.45132 43.03766 112.81613 42.61974 113.04361 42.3631 113.27107 42.10646 113.6359 41.70082 113.86336 41.45204 114.09082 41.20326 114.45564 40.81055 114.6831 40.57002 114.91058 40.32951 115.27539 39.9504 115.50285 39.71857 115.73033 39.48674 116.09514 39.12186 116.32262 38.89912 116.55008 38.67638 116.91489 38.32643 117.14235 38.1132 117.36981 37.89998 117.73463 37.56561 117.9621 37.36232 118.18956 37.15903 118.55438 36.84088 118.78185 36.64792 119.00932 36.45496 119.37413 36.15373 119.60161 35.97153 119.82907 35.7893 120.1939 35.50566 120.42136 35.33461 120.64882 35.16356 121.01364 34.89813 121.2411 34.73866 121.46857 34.5792 121.83339 34.33266 122.06085 34.18518 122.28833 34.0377 122.65314 33.81075 122.88062 33.67566 123.10808 33.54057 123.4729 33.33385 123.70036 33.21158 123.92783 33.08931 124.29265 32.90344 124.52011 32.79442 124.74757 32.68538 125.1124 32.52109 125.33986 32.42569 125.56734 32.33029 125.93214 32.1882 126.15962 32.10687 126.38708 32.02554 126.75189 31.90631 126.97937 31.83946 127.20683 31.7726 127.57166 31.67691 127.79912 31.62494 128.02658 31.57297 128.3914 31.50148 128.61887 31.4648 128.84635 31.42812 129.21115 31.38152 129.43862 31.36055 129.66609 31.33958 130.0309 31.31848 130.25838 31.31364 130.48584 31.30882 130.85065 31.31392 131.07811 31.32559 131.30558 31.33728 131.6704 31.36926 131.89786 31.39789 132.12532 31.42651 132.49015 31.48601 132.7176 31.53201 132.94509 31.57802 133.30989 31.6657 133.53737 31.72948 133.76483 31.79324 134.12966 31.90976 134.35712 31.99173 134.58458 32.0737 134.9494 32.21973 135.17687 32.3203 135.40433 32.42087 135.76915 32.59705 135.99662 32.71664 136.22409 32.83624 136.5889 33.04327 136.81638 33.1823 137.04384 33.32132 137.40865 33.55981 137.63613 33.71869 137.86359 33.87756 138.22841 34.14824 138.45587 34.32736 138.68334 34.50648 139.04816 34.81 139.27562 35.0098 139.5031 35.2096 139.8679 35.54659 140.09537 35.76747 140.32285 35.98836 140.68766 36.35948 140.91513 36.60185 141.1426 36.84424 141.50742 37.25017 141.73488 37.51448 141.96234 37.77878 142.32717 38.22018 142.55463 38.50682 142.78209 38.79346 143.14691 39.271 143.37438 39.58035 143.60186 39.88971 143.96666 40.40404 144.19414 40.73657 144.4216 41.06909 144.7864 41.6209 145.01387 41.97699 145.24134 42.33308 145.60616 42.92299 145.83362 43.30305 146.06108 43.68312 146.4259 44.31184 146.65337 44.71631 146.88085 45.12077 147.24565 45.78891 147.47313 46.21819 147.70059 46.64746 148.06542 47.35574 148.29288 47.81023 148.52034 48.26472 148.88516 49.01376 149.11263 49.4939 149.34009 49.97401 149.70491 50.76451 149.93238 51.27068 150.15985 51.77684 150.52466 52.60945 150.75214 53.14207 150.9796 53.67471 151.3444 54.55006 151.57189 55.10957 151.79935 55.66907 152.16417 56.58786 152.39163 57.17467 152.6191 57.76146 152.98392 58.72433 153.21138 59.33884 153.43886 59.95332 153.80367 60.96097 154.03113 61.60358 154.2586 62.24619 154.62342 63.29924 154.85089 63.97037 155.07836 64.64151 155.44318 65.74065 155.67064 66.44072 155.8981 67.14081 156.26293 68.28668 156.49039 69.01613 156.71785 69.74556 157.08267 70.93884 157.31014 71.69804 157.53762 72.45724 157.90242 73.6986 158.1299 74.48799 158.35736 75.27737 158.72219 76.56746 158.94965 77.38744 159.17711 78.20743 159.54192 79.54692 159.76938 80.3979 159.99684 81.2489 160.36167 82.63843 160.58913 83.52084 160.8166 84.40326 161.18141 85.84352 161.40889 86.75777 161.63636 87.67203 162.00116 89.16367 162.22864 90.11017 162.4561 91.05669 162.82093 92.60039 163.04839 93.57954 163.27585 94.5587 163.64067 96.1551 163.86814 97.16734 164.09561 98.17958 164.46042 99.82936 164.68788 100.87509 164.91536 101.92082 165.28017 103.62465 165.50765 104.70427 165.7351 105.7839 166.09993 107.54242 166.3274 108.65636 166.55486 109.7703 166.91968 111.5842 167.14714 112.73288 167.3746 113.88156 167.73943 115.75146 167.96689 116.93529 168.19437 118.11911 168.55918 120.0457 168.78665 121.26508 169.01412 122.48447 169.37894 124.46841 169.6064 125.72375 169.83386 126.97911 170.19869 129.02109 170.42615 130.3128 170.65361 131.60454 171.01844 133.7052 171.2459 135.03372 171.47338 136.36226 171.83818 138.52225 172.06566 139.88797 172.29312 141.25371 172.65795 143.47371 172.8854 144.87706 173.11287 146.28043 173.47769 148.56108 173.70516 150.00249 173.93262 151.4439 174.29743 153.7859 174.52489 155.26575 174.75237 156.7456 175.11717 159.14958 175.34465 160.6683 175.57212 162.18703 175.93692 164.65367 176.1644 166.21166 176.39186 167.76966 176.75669 170.2996 176.98415 171.8973 177.21161 173.49498 177.57643 176.08892 177.8039 177.72672 178.03137 179.36452 178.39618 182.0231 178.62364 183.70142 178.85112 185.37973 179.4434 189.82288 179.4434 189.82288"/>
<use data-text="&#x2022;" xlink:href="#font_1_2" transform="matrix(8.468244,0,0,-8.468244,64.568958,37.036005)" fill="#1e8449"/>
<use data-text="M" xlink:href="#font_4_1" transform="matrix(8.468244,0,0,-8.468244,54.385957,31.99295)" fill="#1e8449"/>
<use data-text="&#x2022;" xlink:href="#font_1_2" transform="matrix(8.468244,0,0,-8.468244,120.033168,90.26215)" fill="#1e8449"/>
<use data-text="m" xlink:href="#font_4_2" transform="matrix(8.468244,0,0,-8.468244,125.31165,95.18706)" fill="#1e8449"/>
</g>
<use data-text="x" xlink:href="#font_4_3" transform="matrix(8.468244,0,0,-8.468244,169.61365,58.605607)"/>
<use data-text="y" xlink:href="#font_4_4" transform="matrix(8.468244,0,0,-8.468244,97.57955,15.347397)"/>
</svg>
