<svg xmlns="http://www.w3.org/2000/svg" xmlns:xlink="http://www.w3.org/1999/xlink" xmlns:inkscape="http://www.inkscape.org/namespaces/inkscape" version="1.1" width="233.309" height="112.834" viewBox="0 0 233.309 112.834">
<defs>
<clipPath id="clip_1">
<path transform="matrix(1,0,0,-1,3.188,109.645999)" d="M0 0H226.93607V106.45964H0Z"/>
</clipPath>
<clipPath id="clip_2">
<path transform="matrix(1,0,0,-1,3.188,109.645999)" d="M0 0H226.93607V106.45964H0Z"/>
</clipPath>
<clipPath id="clip_3">
<path transform="matrix(1,0,0,-1,3.188,109.645999)" d="M0 0H226.93607V106.45964H0Z"/>
</clipPath>
<clipPath id="clip_4">
<path transform="matrix(1,0,0,-1,3.188,109.645999)" d="M0 0H226.93607V106.45964H0Z"/>
</clipPath>
<path id="font_5_1" d="M.6589966 .23046875C.6759949 .23046875 .69400027 .23046875 .69400027 .25045777 .69400027 .27046205 .6759949 .27046205 .6589966 .27046205H.117996219C.100997928 .27046205 .08299255 .27046205 .08299255 .25045777 .08299255 .23046875 .100997928 .23046875 .117996219 .23046875H.6589966Z"/>
<path id="font_6_1" d="M.2649994 .37265016H.37799073C.34498597 .22489929 .33599855 .18196106 .33599855 .11508179 .33599855 .100097659 .33599855 .073150638 .34399415 .03919983 .35398866-.0047454836 .36499024-.0107421879 .37998963-.0107421879 .3999939-.0107421879 .42099 .007247925 .42099 .02722168 .42099 .033218385 .42099 .035202028 .4149933 .049179079 .38598634 .12106323 .38598634 .18595886 .38598634 .21391297 .38598634 .26683045 .3929901 .32073976 .4039917 .37265016H.5179901C.5309906 .37265016 .5669861 .37265016 .5669861 .406662 .5669861 .43066407 .54599 .43066407 .5269928 .43066407H.19198609C.16999817 .43066407 .13198853 .43066407 .08799744 .38365174 .052993776 .34469605 .026992798 .29878236 .026992798 .29379273 .026992798 .29278565 .026992798 .28379823 .038986207 .28379823 .04699707 .28379823 .04899597 .28779603 .054992677 .29577638 .10398865 .37265016 .1619873 .37265016 .18199158 .37265016H.23899842C.20698548 .25186158 .15299988 .13105774 .11099243 .04020691 .102996829 .025222779 .102996829 .023223877 .102996829 .016235352 .102996829-.002746582 .11898804-.0107421879 .13198853-.0107421879 .1619873-.0107421879 .16999817 .017242432 .18199158 .05418396 .19599915 .100097659 .19599915 .10209656 .20899964 .15202332L.2649994 .37265016Z"/>
<path id="font_7_3" d="M.272995 .33428956C.35099793 .33428956 .40699769 .2803192 .40699769 .1733551 .40699769 .04940796 .33499146 .012466431 .2769928 .012466431 .23699951 .012466431 .14898682 .0234375 .10699463 .082351688 .1539917 .084350589 .16499329 .11735535 .16499329 .13835144 .16499329 .17034912 .14099121 .19335938 .10998535 .19335938 .08198547 .19335938 .053985597 .17634583 .053985597 .13534546 .053985597 .041412355 .1579895-.01953125 .2789917-.01953125 .41799928-.01953125 .5139923 .07336426 .5139923 .1733551 .5139923 .2513275 .44999696 .32929994 .33999635 .35229493 .44499208 .39024354 .48298646 .4650879 .48298646 .5260773 .48298646 .60505679 .3919983 .6640625 .2809906 .6640625 .16999817 .6640625 .084991458 .61006167 .084991458 .5300751 .084991458 .49606324 .10699463 .47706605 .13699341 .47706605 .16799927 .47706605 .18798828 .5000763 .18798828 .5280762 .18798828 .5570679 .16799927 .57806399 .13699341 .5800781 .17199707 .62405398 .24099732 .63505557 .27799989 .63505557 .32299806 .63505557 .38598634 .6130676 .38598634 .5260773 .38598634 .48406983 .37199403 .43814088 .34599305 .4072113 .31298829 .36927796 .2849884 .3672943 .23498535 .36428834 .20999146 .3623047 .20799256 .3623047 .20298767 .3612976 .20098877 .3612976 .19299317 .3592987 .19299317 .34829713 .19299317 .33428956 .20199585 .33428956 .21899414 .33428956H.272995Z"/>
<path id="font_8_1" d="M.31098939 .36265565H.42999269C.4149933 .30274964 .3929901 .2118988 .3929901 .13302613 .3929901 .09309387 .397995 .06613159 .4039917 .044174196 .41999818-.0057678224 .43299867-.009765625 .44898988-.009765625 .47200013-.009765625 .49598695 .011230469 .49598695 .035186769 .49598695 .043182374 .49398805 .047164918 .48799134 .057159425 .46899415 .09408569 .45098878 .15100098 .45098878 .23286438 .45098878 .25183106 .45098878 .29177857 .46499635 .36265565H.58999636C.60798647 .36265565 .6159973 .36265565 .6269989 .37065126 .6409912 .380661 .6439972 .39665223 .6439972 .4016571 .6439972 .43066407 .6179962 .43066407 .6009979 .43066407H.22399903C.18299866 .43066407 .15499878 .42166139 .10998535 .37965394 .083999637 .35665895 .04499817 .30274964 .04499817 .2937622 .04499817 .28178407 .057998659 .28178407 .06199646 .28178407 .07299805 .28178407 .07398987 .28378297 .07998657 .2927704 .1309967 .36265565 .19299317 .36265565 .21499634 .36265565H.27598573C.24499512 .25283814 .19099427 .13502503 .16099549 .07511902 .15499878 .062149049 .14498902 .04118347 .14199829 .03718567 .14099121 .033187868 .13899231 .029190064 .13899231 .022201539 .13899231 .006225586 .15098572-.009765625 .17399597-.009765625 .21398926-.009765625 .22499085 .035186769 .24899292 .12504578L.31098939 .36265565Z"/>
<path id="font_7_4" d="M.5289917 .1640625V.20005799H.41799928V.64582827C.41799928 .66682437 .41799928 .6738281 .3959961 .6738281 .38398744 .6738281 .37998963 .6738281 .36999513 .65982058L.038986207 .20005799V.1640625H.33299256V.08201599C.33299256 .04800415 .33299256 .035995485 .2519989 .035995485H.22499085V0C.2749939 .0019989014 .33898927 .0039978029 .375 .0039978029 .4119873 .0039978029 .47599793 .0019989014 .526001 0V.035995485H.49899293C.41799928 .035995485 .41799928 .04800415 .41799928 .08201599V.1640625H.5289917M.33999635 .5658722V.20005799H.07598877L.33999635 .5658722Z"/>
<path id="font_9_1" d="M.2939911 .64004519C.2939911 .66400149 .2939911 .6660156 .2709961 .6660156 .20899964 .60227969 .12098694 .60227969 .08898926 .60227969V.57128909C.10899353 .57128909 .16799927 .57128909 .21998596 .5972748V.07902527C.21998596 .042999269 .21699524 .0309906 .1269989 .0309906H.09498596V0C.12998963 .0029907227 .21699524 .0029907227 .25698854 .0029907227 .29699708 .0029907227 .38398744 .0029907227 .4189911 0V.0309906H.3869934C.29699708 .0309906 .2939911 .041992189 .2939911 .07902527V.64004519Z"/>
<clipPath id="clip_10">
<path transform="matrix(1,0,0,-1,3.188,109.645999)" d="M0 0H226.93607V106.45964H0Z"/>
</clipPath>
<path id="font_8_2" d="M.40699769 .39465333H.5049896C.5249939 .39465333 .5379944 .39465333 .5379944 .4166565 .5379944 .43066407 .5249939 .43066407 .5069885 .43066407H.4139862C.43699647 .5580139 .44499208 .6040497 .45298768 .63305667 .45799256 .6550598 .47999574 .6760864 .5039978 .6760864 .5049896 .6760864 .5319977 .6760864 .5509949 .6640625 .5099945 .651062 .5069885 .61505129 .5069885 .60905459 .5069885 .5870514 .5239868 .572052 .5469971 .572052 .57398989 .572052 .60398867 .59506228 .60398867 .63305667 .60398867 .6790924 .5549927 .70410159 .5039978 .70410159 .45999146 .70410159 .41099549 .6790924 .38398744 .62905886 .3639984 .5920563 .35598756 .5469818 .33499146 .43066407H.2559967C.23599243 .43066407 .22299195 .43066407 .22299195 .4086609 .22299195 .39465333 .23599243 .39465333 .2539978 .39465333H.32798768C.32699586 .38865663 .2639923 .028869629 .23999024-.078063968 .23498535-.10006714 .21798706-.17610169 .16999817-.17610169 .16899109-.17610169 .14498902-.17610169 .12599182-.1640625 .16699219-.15107727 .16999817-.11506653 .16999817-.109069827 .16999817-.08706665 .15299988-.07206726 .12998963-.07206726 .102996829-.07206726 .07299805-.095077518 .07299805-.1330719 .07299805-.17811585 .11999512-.20410156 .16999817-.20410156 .23399353-.20410156 .27799989-.13807678 .2899933-.11607361 .32598878-.049087526 .34899903 .07385254 .35099793 .08584595L.40699769 .39465333Z"/>
<path id="font_7_1" d="M.35499574 .75C.16499329 .61598208 .114990238 .40397645 .114990238 .25097657 .114990238 .10997009 .15699768-.10902405 .35499574-.24902344 .36299134-.24902344 .375-.24902344 .375-.23703003 .375-.23103333 .37199403-.22903443 .36499024-.22203064 .23199463-.10203552 .18299866 .067977908 .18299866 .24996948 .18299866 .519989 .28599549 .65197756 .36799623 .72598269 .37199403 .7299957 .375 .73298647 .375 .73799136 .375 .75 .36299134 .75 .35499574 .75Z"/>
<path id="font_8_3" d="M.24899292 .10601807C.23899842 .072021488 .20599365 .018234253 .15499878 .018234253 .1519928 .018234253 .12199402 .018234253 .100997928 .03215027 .14199829 .04508972 .14498902 .08100891 .14498902 .087020877 .14498902 .10900879 .12799073 .12402344 .10499573 .12402344 .07699585 .12402344 .04798889 .10002136 .04798889 .0630188 .04798889 .01322937 .10398865-.009765625 .15299988-.009765625 .19898987-.009765625 .23999024 .019226075 .2649994 .061019899 .2889862 .008224487 .34399415-.009765625 .38398744-.009765625 .49899293-.009765625 .55999758 .11502075 .55999758 .14305115 .55999758 .15608216 .5469971 .15608216 .5439911 .15608216 .5299988 .15608216 .5289917 .15107727 .5249939 .13905335 .5039978 .07002258 .44400025 .018234253 .3880005 .018234253 .34799195 .018234253 .32699586 .04508972 .32699586 .08302307 .32699586 .10900879 .35099793 .20018006 .3789978 .31140138 .39898683 .38841249 .44400025 .4133911 .47698976 .4133911 .47898866 .4133911 .5099945 .4133911 .5309906 .39941407 .49899293 .39041139 .4869995 .3624115 .4869995 .34440614 .4869995 .32240296 .5039978 .30740357 .5269928 .30740357 .5499878 .30740357 .58299258 .32640077 .58299258 .3684082 .58299258 .4243927 .5189972 .44140626 .47898866 .44140626 .42900086 .44140626 .3889923 .4084015 .36698915 .3704071 .34899903 .4113922 .30299378 .44140626 .24699402 .44140626 .1349945 .44140626 .070999149 .31840516 .070999149 .2883606 .070999149 .27534486 .084991458 .27534486 .08799744 .27534486 .100997928 .27534486 .101989749 .27934266 .10699463 .29237367 .13198853 .3704071 .19499207 .4133911 .24398804 .4133911 .2769928 .4133911 .3039856 .395401 .3039856 .3474121 .3039856 .32740785 .2919922 .27734376 .2829895 .24327088L.24899292 .10601807Z"/>
<path id="font_7_2" d="M.08999634 .75C.08299255 .75 .070999149 .75 .070999149 .73799136 .070999149 .73298647 .07398987 .7299957 .07998657 .72299197 .1659851 .64398196 .2619934 .5089874 .2619934 .25097657 .2619934 .04197693 .19699097-.11602783 .08898926-.21403504 .07199097-.23103333 .070999149-.23202515 .070999149-.23703003 .070999149-.24203491 .07398987-.24902344 .083999637-.24902344 .09599304-.24902344 .19099427-.18302918 .25698854-.058029176 .30099488 .024978638 .32998658 .13298035 .32998658 .24996948 .32998658 .39097596 .28799439 .60998538 .08999634 .75Z"/>
<path id="font_7_5" d="M.7679901 .3359375C.7829895 .3359375 .80599978 .3359375 .80599978 .3609314 .80599978 .38493348 .7819977 .38493348 .7689972 .38493348H.10699463C.09399414 .38493348 .069992069 .38493348 .069992069 .3609314 .069992069 .3359375 .09298706 .3359375 .10798645 .3359375H.7679901M.7689972 .11602783C.7819977 .11602783 .80599978 .11602783 .80599978 .1400299 .80599978 .16503906 .7829895 .16503906 .7679901 .16503906H.10798645C.09298706 .16503906 .069992069 .16503906 .069992069 .1400299 .069992069 .11602783 .09399414 .11602783 .10699463 .11602783H.7689972Z"/>
<path id="font_7_10" d="M.3789978 .4202881C.3789978 .43728639 .3789978 .44628907 .36499024 .44628907 .3600006 .44628907 .35798646 .44628907 .34498597 .4342804 .34298707 .43328858 .33299256 .4242859 .32699586 .419281 .29699708 .4402771 .25898744 .44628907 .22200012 .44628907 .07899475 .44628907 .04499817 .37127687 .04499817 .3212738 .04499817 .28926087 .05899048 .2632599 .08299255 .24325562 .12098694 .21025086 .15899658 .20324707 .22099304 .19325257 .2709961 .18424988 .35198976 .17024231 .35198976 .10324097 .35198976 .0642395 .32499696 .018234253 .22898865 .018234253 .1329956 .018234253 .09799194 .08123779 .07998657 .14924622 .07699585 .1622467 .07598877 .1662445 .06199646 .1662445 .04499817 .1662445 .04499817 .15924073 .04499817 .13923645V.016220093C.04499817-.00077819827 .04499817-.009765625 .05899048-.009765625 .067993167-.009765625 .08699036 .011230469 .10699463 .033233644 .15098572-.0077667238 .20498657-.009765625 .22898865-.009765625 .35899354-.009765625 .40699769 .06022644 .40699769 .13124085 .40699769 .16925049 .3899994 .19924927 .3639984 .22325135 .32598878 .258255 .27999879 .26626588 .24499512 .27226258 .16499329 .28627015 .099990848 .29826356 .099990848 .35127259 .099990848 .38327027 .1269989 .422287 .22200012 .422287 .33799745 .422287 .34298707 .34127809 .34498597 .31227113 .34599305 .30126954 .35798646 .30126954 .3619995 .30126954 .3789978 .30126954 .3789978 .30827333 .3789978 .3272705V.4202881Z"/>
<path id="font_7_7" d="M.21099854 .6168213C.21099854 .645813 .18699646 .6738281 .15299988 .6738281 .12298584 .6738281 .09599304 .64982607 .09599304 .6168213 .09599304 .5808258 .125 .55882266 .15299988 .55882266 .18499756 .55882266 .21099854 .5838165 .21099854 .6168213M.05899048 .43040467V.39439393C.12199402 .39439393 .1309967 .38839723 .1309967 .3393402V.07904053C.1309967 .035995485 .12098694 .035995485 .055999757 .035995485V0C.057998659 0 .12799073 .0039978029 .16799927 .0039978029 .20298767 .0039978029 .23899842 .0029907227 .27398683 0V.035995485C.21598816 .035995485 .20599365 .035995485 .20599365 .07803345V.44140626L.05899048 .43040467Z"/>
<path id="font_7_8" d="M.5149994 .3032837C.5149994 .3903656 .47200013 .44140626 .36499024 .44140626 .2829895 .44140626 .22999573 .39637757 .20199585 .34432984H.20098877V.44140626L.053985597 .43040467V.39437867C.12098694 .39437867 .1289978 .38737489 .1289978 .33831788V.07904053C.1289978 .035995485 .11898804 .035995485 .053985597 .035995485V0C.055999757 0 .12599182 .0039978029 .16799927 .0039978029 .20498657 .0039978029 .27398683 .0009918213 .2829895 0V.035995485C.21798706 .035995485 .20799256 .035995485 .20799256 .07904053V.25923158C.20799256 .36434938 .29100038 .4133911 .35699464 .4133911 .4269867 .4133911 .43598939 .3583374 .43598939 .3072815V.07904053C.43598939 .035995485 .42599488 .035995485 .36099244 .035995485V0C.36299134 0 .43299867 .0039978029 .47499085 .0039978029 .5119934 .0039978029 .58099368 .0009918213 .58999636 0V.035995485C.5249939 .035995485 .5149994 .035995485 .5149994 .07904053V.3032837Z"/>
<path id="font_11_1" d="M.58898928 .19296265H.5469971C.5439911 .17396546 .5339966 .11198425 .5179901 .101989749 .5099945 .09599304 .42599488 .09599304 .41099549 .09599304H.21499634C.2809906 .14497376 .35499574 .20095825 .4149933 .24093628 .5049896 .30291749 .58898928 .36090089 .58898928 .46687318 .58898928 .59495547 .46798707 .6660156 .32499696 .6660156 .18998719 .6660156 .09098816 .58795168 .09098816 .48986817 .09098816 .4378662 .1349945 .42886354 .14898682 .42886354 .17599488 .42886354 .20799256 .4468689 .20799256 .48786927 .20799256 .52386477 .18199158 .543869 .15098572 .546875 .1789856 .59194949 .23699951 .6220093 .3039856 .6220093 .40098573 .6220093 .48199464 .5639038 .48199464 .4658661 .48199464 .3818817 .42399598 .31791688 .34700013 .2529297L.102996829 .04598999C.09298706 .036987306 .09199524 .036987306 .09098816 .02999878V0H.55599978L.58898928 .19296265Z"/>
<path id="font_12_1" d="M.74398806 .2263794C.7599945 .2263794 .7839966 .2263794 .7839966 .25038148 .7839966 .27539063 .7609863 .27539063 .74398806 .27539063H.147995C.13198853 .27539063 .10798645 .27539063 .10798645 .25138856 .10798645 .2263794 .1309967 .2263794 .147995 .2263794H.74398806Z"/>
<path id="font_7_6" d="M.3889923 .39941407C.37098695 .3914032 .36099244 .375412 .36099244 .3554077 .36099244 .32839967 .37998963 .30841065 .4079895 .30841065 .43499757 .30841065 .45599366 .32540895 .45599366 .35740663 .45599366 .44628907 .31698609 .44628907 .2889862 .44628907 .13899231 .44628907 .04598999 .33140565 .04598999 .21635437 .04598999 .090270999 .15299988-.009765625 .28399659-.009765625 .43299867-.009765625 .46798707 .10827637 .46798707 .120285037 .46798707 .1322937 .45498658 .1322937 .45098878 .1322937 .43798829 .1322937 .43699647 .12928772 .43199159 .11528015 .4099884 .053253175 .35699464 .022232056 .29599 .022232056 .22698975 .022232056 .13699341 .07325745 .13699341 .21734619 .13699341 .34440614 .19898987 .41427613 .2919922 .41427613 .30499269 .41427613 .35299684 .41427613 .3889923 .39941407Z"/>
<path id="font_7_9" d="M.5289917 .21325684C.5289917 .3382721 .42199708 .44628907 .28399659 .44628907 .1459961 .44628907 .038986207 .3382721 .038986207 .21325684 .038986207 .0892334 .14898682-.009765625 .28399659-.009765625 .4189911-.009765625 .5289917 .0892334 .5289917 .21325684M.28399659 .022232056C.24699402 .022232056 .19299317 .034225465 .1599884 .083236698 .1329956 .12423706 .12998963 .17625427 .12998963 .22225952 .12998963 .2652588 .1309967 .32426454 .1659851 .36727906 .19099427 .39627076 .23298645 .41827394 .28399659 .41827394 .34298707 .41827394 .3849945 .39027406 .40699769 .3592682 .43499757 .32026673 .43798829 .27026368 .43798829 .22225952 .43798829 .17424011 .43499757 .12124634 .4059906 .08023071 .3789978 .042236329 .33299256 .022232056 .28399659 .022232056Z"/>
<path id="font_6_2" d="M.33399964 .30233766C.33999635 .32835389 .36299134 .42037965 .43299867 .42037965 .43798829 .42037965 .46199037 .42037965 .48298646 .40734864 .45498658 .402359 .43499757 .37734986 .43499757 .35334779 .43499757 .33735658 .44599916 .31835938 .47299195 .31835938 .49499513 .31835938 .5269928 .3363495 .5269928 .37635804 .5269928 .42837525 .46798707 .4423828 .43399049 .4423828 .37599183 .4423828 .34098817 .38935853 .32899476 .36634828 .3039856 .43237306 .25 .4423828 .22099304 .4423828 .116989139 .4423828 .05999756 .3133545 .05999756 .28834535 .05999756 .27833558 .069992069 .27833558 .07199097 .27833558 .07998657 .27833558 .08299255 .28033448 .084991458 .28933717 .11898804 .39535523 .18499756 .42037965 .21899414 .42037965 .23799134 .42037965 .272995 .4113617 .272995 .35334779 .272995 .32235719 .2559967 .25532533 .21899414 .11528015 .20298767 .053268434 .16799927 .011245728 .12399292 .011245728 .117996219 .011245728 .09498596 .011245728 .07398987 .024276734 .09899902 .029266358 .12098694 .05027771 .12098694 .07827759 .12098694 .105270389 .09899902 .11328125 .083999637 .11328125 .053985597 .11328125 .0289917 .08728027 .0289917 .055267335 .0289917 .009246826 .07899475-.0107421879 .12298584-.0107421879 .18899536-.0107421879 .22499085 .059280397 .22799683 .0652771 .23999024 .028274537 .27598573-.0107421879 .33599855-.0107421879 .43899537-.0107421879 .49598695 .118270877 .49598695 .14328003 .49598695 .1532898 .4869995 .1532898 .48399354 .1532898 .47499085 .1532898 .47299195 .14929199 .47099305 .14228821 .43798829 .03527832 .36999513 .011245728 .33799745 .011245728 .29899598 .011245728 .2829895 .043273927 .2829895 .07727051 .2829895 .09927368 .2889862 .121276859 .2999878 .16529846L.33399964 .30233766Z"/>
<path id="font_6_3" d="M.48599244 .38136292C.48999024 .39537049 .48999024 .39736939 .48999024 .40437318 .48999024 .42237855 .47599793 .43138124 .46099855 .43138124 .45098878 .43138124 .43499757 .42536927 .42599488 .41036988 .42399598 .405365 .41600038 .37435914 .4119873 .35635377 .40499879 .33035279 .397995 .30334474 .3919983 .27633668L.34700013 .09628296C.34298707 .08126831 .2999878 .011245728 .23399353 .011245728 .18299866 .011245728 .17199707 .055267335 .17199707 .0922699 .17199707 .1382904 .18899536 .20030213 .22299195 .28833009 .23899842 .3293457 .24299622 .3403473 .24299622 .36035157 .24299622 .405365 .21099854 .4423828 .16099549 .4423828 .06599426 .4423828 .0289917 .29733277 .0289917 .28833009 .0289917 .27833558 .038986207 .27833558 .040985109 .27833558 .050994874 .27833558 .051986696 .28033448 .056991579 .29634095 .083999637 .3903656 .12399292 .42037965 .1579895 .42037965 .1659851 .42037965 .18299866 .42037965 .18299866 .3883667 .18299866 .36335755 .17298889 .3373413 .1659851 .31834413 .12599182 .21231079 .10798645 .1552887 .10798645 .10827637 .10798645 .019256592 .17098999-.0107421879 .22999573-.0107421879 .2689972-.0107421879 .30299378 .0062561037 .33099366 .03425598 .31799317-.017745972 .30599977-.06674194 .2659912-.11973572 .23999024-.15385437 .20199585-.18309021 .1559906-.18309021 .14199829-.18309021 .09700012-.18005371 .07998657-.14074707 .09599304-.14074707 .10899353-.14074707 .12298584-.1287384 .1329956-.11973572 .14299011-.10673523 .14299011-.08773804 .14299011-.056747438 .115997318-.052734376 .10598755-.052734376 .08299255-.052734376 .049987794-.068740848 .049987794-.11773682 .049987794-.16796875 .09399414-.20507813 .1559906-.20507813 .25898744-.20507813 .3619995-.11373901 .3899994-.00074768069L.48599244 .38136292Z"/>
</defs>
<path transform="matrix(1,0,0,-1,3.188,109.645999)" stroke-width=".3985" stroke-linecap="butt" stroke-miterlimit="10" stroke-linejoin="miter" fill="none" stroke="#e5e6e5" d="M11.61943 0V106.45964M37.08781 0V106.45964M88.0058 0V106.45964M138.93024 0V106.45964M215.3166 0V106.45964"/>
<path transform="matrix(1,0,0,-1,3.188,109.645999)" stroke-width=".3985" stroke-linecap="butt" stroke-miterlimit="10" stroke-linejoin="miter" fill="none" stroke="#e5e6e5" d="M0 7.88588H226.93607M0 86.74489H226.93607"/>
<path transform="matrix(1,0,0,-1,3.188,109.645999)" stroke-width=".19925" stroke-linecap="butt" stroke-miterlimit="10" stroke-linejoin="miter" fill="none" stroke="#7f807f" d="M11.61943 45.50836V49.1224M37.08781 45.50836V49.1224M88.0058 45.50836V49.1224M138.93024 45.50836V49.1224M215.3166 45.50836V49.1224"/>
<path transform="matrix(1,0,0,-1,3.188,109.645999)" stroke-width=".19925" stroke-linecap="butt" stroke-miterlimit="10" stroke-linejoin="miter" fill="none" stroke="#7f807f" d="M111.66089 7.88588H115.27513M111.66089 86.74489H115.27513"/>
<path transform="matrix(1,0,0,-1,3.188,109.645999)" stroke-width=".3985" stroke-linecap="butt" stroke-miterlimit="10" stroke-linejoin="miter" fill="none" stroke="#000000" d="M0 47.31538H224.94355"/>
<path transform="matrix(1,0,0,-1,228.13155,62.330617)" d="M1.99252 0-1.19551 1.59401 0 0-1.19551-1.59401"/>
<path transform="matrix(1,0,0,-1,3.188,109.645999)" stroke-width=".3985" stroke-linecap="butt" stroke-miterlimit="10" stroke-linejoin="miter" fill="none" stroke="#000000" d="M113.46803 0V104.46712"/>
<path transform="matrix(0,-1,-1,-0,116.65604,5.178879)" d="M1.99252 0-1.19551 1.59401 0 0-1.19551-1.59401"/>
<g clip-path="url(#clip_1)">
</g>
<g clip-path="url(#clip_2)">
</g>
<g clip-path="url(#clip_3)">
</g>
<g clip-path="url(#clip_4)">
</g>
<use data-text="&#x2212;" xlink:href="#font_5_1" transform="matrix(9.96264,0,0,-9.96264,7.915,73.468997)"/>
<use data-text="&#x03c0;" xlink:href="#font_6_1" transform="matrix(9.96264,0,0,-9.96264,15.663,73.468997)"/>
<use data-text="&#x2212;" xlink:href="#font_5_1" transform="matrix(9.96264,0,0,-9.96264,30.765,76.075)"/>
<use data-text="3" xlink:href="#font_7_3" transform="matrix(6.97385,0,0,-6.97385,39.71,72.152)"/>
<use data-text="&#x03c0;" xlink:href="#font_8_1" transform="matrix(6.97385,0,0,-6.97385,43.681,72.152)"/>
<path transform="matrix(1,0,0,-1,39.71,73.584)" stroke-width=".398" stroke-linecap="butt" stroke-miterlimit="10" stroke-linejoin="miter" fill="none" stroke="#000000" d="M0 0H8.88"/>
<use data-text="4" xlink:href="#font_7_4" transform="matrix(6.97385,0,0,-6.97385,42.164,79.509998)"/>
<use data-text="&#x2212;" xlink:href="#font_5_1" transform="matrix(9.96264,0,0,-9.96264,83.66801,74.58299)"/>
<use data-text="&#x03c0;" xlink:href="#font_8_1" transform="matrix(6.97385,0,0,-6.97385,92.61301,70.660999)"/>
<path transform="matrix(1,0,0,-1,92.61301,72.091999)" stroke-width=".398" stroke-linecap="butt" stroke-miterlimit="10" stroke-linejoin="miter" fill="none" stroke="#000000" d="M0 0H4.909"/>
<use data-text="4" xlink:href="#font_7_4" transform="matrix(6.97385,0,0,-6.97385,93.08101,78.019)"/>
<use data-text="&#x03c0;" xlink:href="#font_8_1" transform="matrix(6.97385,0,0,-6.97385,139.662,70.660999)"/>
<path transform="matrix(1,0,0,-1,139.662,72.091999)" stroke-width=".398" stroke-linecap="butt" stroke-miterlimit="10" stroke-linejoin="miter" fill="none" stroke="#000000" d="M0 0H4.909"/>
<use data-text="4" xlink:href="#font_7_4" transform="matrix(6.97385,0,0,-6.97385,140.131,78.019)"/>
<use data-text="&#x03c0;" xlink:href="#font_6_1" transform="matrix(9.96264,0,0,-9.96264,215.48401,71.94699)"/>
<use data-text="&#x2212;" xlink:href="#font_5_1" transform="matrix(9.96264,0,0,-9.96264,98.59801,104.55499)"/>
<use data-text="1" xlink:href="#font_9_1" transform="matrix(9.96264,0,0,-9.96264,106.34601,104.55499)"/>
<use data-text="1" xlink:href="#font_9_1" transform="matrix(9.96264,0,0,-9.96264,106.346,26.112)"/>
<g clip-path="url(#clip_10)">
<path transform="matrix(1,0,0,-1,3.188,109.645999)" stroke-width=".79701" stroke-linecap="butt" stroke-miterlimit="10" stroke-linejoin="miter" fill="none" stroke="#2471a3" d="M11.67105 47.25201 12.69415 46.0519 13.71724 44.9353 14.74033 43.90671 15.76341 42.9702 16.7865 42.12949 17.8096 41.38794 18.83269 40.74849 19.85579 40.21371 20.87889 39.7857 21.90196 39.4662 22.92506 39.25645 23.94815 39.1573 24.97125 39.16914 25.99434 39.29193 27.01743 39.52518 28.04051 39.86795 29.06361 40.3189 30.08672 40.87619 31.1098 41.53764 32.13289 42.30063 33.15598 43.16206 34.17908 44.11853 35.20216 45.16628 36.22525 46.30106 37.24834 47.51839 38.27144 48.81342 39.29454 50.18098 40.31763 51.61563 41.34071 53.11168 42.3638 54.66315 43.3869 56.26385 44.40999 57.90742 45.43307 59.58734 46.45618 61.29688 47.47926 63.02925 48.50237 64.77754 49.52545 66.5348 50.54855 68.29402 51.57164 70.04823 52.59471 71.7904 53.61781 73.51361 54.6409 75.211 55.664 76.87581 56.6871 78.50142 57.71019 80.08131 58.73328 81.60924 59.75636 83.0791 60.77946 84.48508 61.80255 85.82152 62.82564 87.08311 63.84872 88.26486 64.87183 89.36206 65.89493 90.3703 66.918 91.2856 67.9411 92.10428 68.96419 92.82314 69.98729 93.43925 71.01038 93.95021 72.03346 94.35397 73.05655 94.6489 74.07967 94.83385 75.10275 94.90807 76.12584 94.87126 77.14893 94.7236 78.17201 94.46562 79.19511 94.09842 80.2182 93.6234 81.2413 93.04247 82.26439 92.35796 83.28748 91.57257 84.31058 90.68947 85.33366 89.71213 86.35677 88.64445 87.37985 87.4907 88.40294 86.2555 89.42603 84.9437 90.44911 83.56058 91.47221 82.11159 92.4953 80.60257 93.5184 79.03949 94.54149 77.42859 95.56459 75.77626 96.58768 74.08911 97.61076 72.37384 98.63385 70.6373 99.65694 68.88635 100.68004 67.12807 101.70314 65.36934 102.72623 63.61725 103.74931 61.87874 104.7724 60.16072 105.7955 58.47008 106.81859 56.8135 107.84167 55.19763 108.86476 53.62886 109.88788 52.11346 110.91096 50.65746 111.93407 49.26665 112.95715 47.94656 113.98022 46.70248 115.00333 45.53934 116.02641 44.46178 117.04951 43.47409 118.0726 42.5802 119.0957 41.78368 120.11879 41.08769 121.14188 40.49501 122.16498 40.00798 123.18806 39.62856 124.21115 39.35826 125.23424 39.19815 126.25734 39.14886 127.28043 39.21063 128.30352 39.38316 129.32662 39.66579 130.3497 40.05739 131.3728 40.55638 132.39589 41.1608 133.41898 41.86823 134.44207 42.67589 135.46515 43.58049 136.48825 44.57848 137.51136 45.66586 138.53444 46.83833 139.55753 48.09122 140.58063 49.41951 141.60372 50.81795 142.62682 52.28091 143.6499 53.80263 144.67298 55.377 145.69608 56.99777 146.71918 58.65851 147.74228 60.35255 148.76537 62.07321 149.78845 63.8136 150.81154 65.56679 151.83463 67.32582 152.85773 69.08363 153.88082 70.83331 154.90392 72.56781 155.927 74.28024 156.9501 75.9638 157.97319 77.6118 158.99628 79.21765 160.01937 80.77496 161.04245 82.27754 162.06555 83.71939 163.08864 85.09479 164.11174 86.39822 165.13483 87.62453 166.15792 88.76881 167.18102 89.82654 168.2041 90.79347 169.22719 91.66577 170.25028 92.43997 171.27338 93.11298 172.29647 93.6821 173.31955 94.14508 174.34267 94.50008 175.36574 94.7457 176.38884 94.88094 177.41193 94.90526 178.43503 94.81856 179.45812 94.62123 180.4812 94.314 181.50429 93.89812 182.52739 93.37523 183.55049 92.74744 184.57358 92.0172 185.59667 91.1875 186.61975 90.26155 187.64286 89.24312 188.66594 88.13618 189.68903 86.94524 190.71212 85.67496 191.73522 84.33043 192.75832 82.917 193.7814 81.44032 194.8045 79.90623 195.82758 78.32088 196.85066 76.69055 197.87377 75.02174 198.89685 73.3211 199.91996 71.59543 200.94304 69.85156 201.96614 68.09645 202.98923 66.3371 204.01232 64.58047 205.03542 62.83363 206.05849 61.1035 207.08159 59.39693 208.10468 57.7208 209.12778 56.0817 210.15088 54.4862 211.17395 52.94067 212.19705 51.45123 213.22014 50.02383 214.24324 48.66415 215.26633 47.37761"/>
<use data-text="f" xlink:href="#font_8_2" transform="matrix(6.97385,0,0,-6.97385,130.461,25.524994)" fill="#2471a3"/>
<use data-text="(" xlink:href="#font_7_1" transform="matrix(6.97385,0,0,-6.97385,135.128,25.524994)" fill="#2471a3"/>
<use data-text="x" xlink:href="#font_8_3" transform="matrix(6.97385,0,0,-6.97385,138.241,25.524994)" fill="#2471a3"/>
<use data-text=")" xlink:href="#font_7_2" transform="matrix(6.97385,0,0,-6.97385,142.759,25.524994)" fill="#2471a3"/>
<use data-text="=" xlink:href="#font_7_5" transform="matrix(6.97385,0,0,-6.97385,148.13584,25.524994)" fill="#2471a3"/>
<use data-text="s" xlink:href="#font_7_10" transform="matrix(6.97385,0,0,-6.97385,156.5184,25.524994)" fill="#2471a3"/>
<use data-text="i" xlink:href="#font_7_7" transform="matrix(6.97385,0,0,-6.97385,159.67755,25.524994)" fill="#2471a3"/>
<use data-text="n" xlink:href="#font_7_8" transform="matrix(6.97385,0,0,-6.97385,161.9301,25.524994)" fill="#2471a3"/>
<use data-text="2" xlink:href="#font_11_1" transform="matrix(4.98132,0,0,-4.98132,166.336,22.51799)" fill="#2471a3"/>
<use data-text="x" xlink:href="#font_8_3" transform="matrix(6.97385,0,0,-6.97385,171.584,25.524994)" fill="#2471a3"/>
<use data-text="&#x2212;" xlink:href="#font_12_1" transform="matrix(6.97385,0,0,-6.97385,177.916,25.524994)" fill="#2471a3"/>
<use data-text="s" xlink:href="#font_7_10" transform="matrix(6.97385,0,0,-6.97385,185.957,25.524994)" fill="#2471a3"/>
<use data-text="i" xlink:href="#font_7_7" transform="matrix(6.97385,0,0,-6.97385,189.11615,25.524994)" fill="#2471a3"/>
<use data-text="n" xlink:href="#font_7_8" transform="matrix(6.97385,0,0,-6.97385,191.3687,25.524994)" fill="#2471a3"/>
<use data-text="x" xlink:href="#font_8_3" transform="matrix(6.97385,0,0,-6.97385,197.13,25.524994)" fill="#2471a3"/>
<use data-text="c" xlink:href="#font_7_6" transform="matrix(6.97385,0,0,-6.97385,203.008,25.524994)" fill="#2471a3"/>
<use data-text="o" xlink:href="#font_7_9" transform="matrix(6.97385,0,0,-6.97385,206.5507,25.524994)" fill="#2471a3"/>
<use data-text="s" xlink:href="#font_7_10" transform="matrix(6.97385,0,0,-6.97385,210.51883,25.524994)" fill="#2471a3"/>
<use data-text="x" xlink:href="#font_8_3" transform="matrix(6.97385,0,0,-6.97385,215.039,25.524994)" fill="#2471a3"/>
</g>
<path transform="matrix(1,0,0,-1,3.188,109.645999)" d="M13.7366 47.31471C13.7366 48.48395 12.78874 49.43181 11.6195 49.43181 10.45026 49.43181 9.5024 48.48395 9.5024 47.31471 9.5024 46.14546 10.45026 45.1976 11.6195 45.1976 12.78874 45.1976 13.7366 46.14546 13.7366 47.31471ZM11.6195 47.31471" fill="#b30000"/>
<path transform="matrix(1,0,0,-1,3.188,109.645999)" stroke-width=".79701" stroke-linecap="butt" stroke-miterlimit="10" stroke-linejoin="miter" fill="none" stroke="#b30000" d="M13.7366 47.31471C13.7366 48.48395 12.78874 49.43181 11.6195 49.43181 10.45026 49.43181 9.5024 48.48395 9.5024 47.31471 9.5024 46.14546 10.45026 45.1976 11.6195 45.1976 12.78874 45.1976 13.7366 46.14546 13.7366 47.31471ZM11.6195 47.31471"/>
<path transform="matrix(1,0,0,-1,3.188,109.645999)" d="M39.20514 47.31471C39.20514 48.48395 38.25728 49.43181 37.08803 49.43181 35.9188 49.43181 34.97093 48.48395 34.97093 47.31471 34.97093 46.14546 35.9188 45.1976 37.08803 45.1976 38.25728 45.1976 39.20514 46.14546 39.20514 47.31471ZM37.08803 47.31471" fill="#b30000"/>
<path transform="matrix(1,0,0,-1,3.188,109.645999)" stroke-width=".79701" stroke-linecap="butt" stroke-miterlimit="10" stroke-linejoin="miter" fill="none" stroke="#b30000" d="M39.20514 47.31471C39.20514 48.48395 38.25728 49.43181 37.08803 49.43181 35.9188 49.43181 34.97093 48.48395 34.97093 47.31471 34.97093 46.14546 35.9188 45.1976 37.08803 45.1976 38.25728 45.1976 39.20514 46.14546 39.20514 47.31471ZM37.08803 47.31471"/>
<path transform="matrix(1,0,0,-1,3.188,109.645999)" d="M141.04817 47.31471C141.04817 48.48395 140.10031 49.43181 138.93108 49.43181 137.76183 49.43181 136.81397 48.48395 136.81397 47.31471 136.81397 46.14546 137.76183 45.1976 138.93108 45.1976 140.10031 45.1976 141.04817 46.14546 141.04817 47.31471ZM138.93108 47.31471" fill="#b30000"/>
<path transform="matrix(1,0,0,-1,3.188,109.645999)" stroke-width=".79701" stroke-linecap="butt" stroke-miterlimit="10" stroke-linejoin="miter" fill="none" stroke="#b30000" d="M141.04817 47.31471C141.04817 48.48395 140.10031 49.43181 138.93108 49.43181 137.76183 49.43181 136.81397 48.48395 136.81397 47.31471 136.81397 46.14546 137.76183 45.1976 138.93108 45.1976 140.10031 45.1976 141.04817 46.14546 141.04817 47.31471ZM138.93108 47.31471"/>
<path transform="matrix(1,0,0,-1,3.188,109.645999)" d="M217.43498 47.31471C217.43498 48.48395 216.48712 49.43181 215.31789 49.43181 214.14864 49.43181 213.20078 48.48395 213.20078 47.31471 213.20078 46.14546 214.14864 45.1976 215.31789 45.1976 216.48712 45.1976 217.43498 46.14546 217.43498 47.31471ZM215.31789 47.31471" fill="#b30000"/>
<path transform="matrix(1,0,0,-1,3.188,109.645999)" stroke-width=".79701" stroke-linecap="butt" stroke-miterlimit="10" stroke-linejoin="miter" fill="none" stroke="#b30000" d="M217.43498 47.31471C217.43498 48.48395 216.48712 49.43181 215.31789 49.43181 214.14864 49.43181 213.20078 48.48395 213.20078 47.31471 213.20078 46.14546 214.14864 45.1976 215.31789 45.1976 216.48712 45.1976 217.43498 46.14546 217.43498 47.31471ZM215.31789 47.31471"/>
<path transform="matrix(1,0,0,-1,3.188,109.645999)" stroke-width=".79701" stroke-linecap="butt" stroke-miterlimit="10" stroke-linejoin="miter" fill="none" stroke="#b30000" d=""/>
<use data-text="x" xlink:href="#font_6_2" transform="matrix(9.96264,0,0,-9.96264,220.70801,58.612)"/>
<use data-text="y" xlink:href="#font_6_3" transform="matrix(9.96264,0,0,-9.96264,120.374,11.195999)"/>
</svg>
