<svg xmlns="http://www.w3.org/2000/svg" xmlns:xlink="http://www.w3.org/1999/xlink" xmlns:inkscape="http://www.inkscape.org/namespaces/inkscape" version="1.1" width="157.543" height="101.751" viewBox="0 0 157.543 101.751">
<defs>
<path id="font_1_1" d="M.5109863 .35635377C.5309906 .44036866 .5309906 .49430848 .5309906 .5063019 .5309906 .5432434 .5249939 .7050781 .41999818 .7050781 .33699037 .7050781 .27198792 .60017397 .27198792 .52227786 .27198792 .42536927 .3659973 .3773651 .43598939 .35435487 .4139862 .264328 .397995 .20631409 .36499024 .1382904 .35198976 .11027527 .3039856 .011245728 .24499512 .011245728 .1769867 .011245728 .17098999 .06227112 .17098999 .091278079 .17098999 .11727905 .1789856 .14929199 .18399048 .17230225 .18998719 .1973114 .19599915 .21931458 .20298767 .24932862L.21499634 .29733277C.21998596 .3143463 .22499085 .3353424 .22499085 .35035707 .22499085 .41036988 .17999268 .4423828 .13398743 .4423828 .08799744 .4423828 .068984989 .4033661 .05999756 .38536073 .041992189 .35134889 .0289917 .29133607 .0289917 .28833009 .0289917 .27833558 .038986207 .27833558 .040985109 .27833558 .050994874 .27833558 .051986696 .2793274 .057998659 .30133058 .07499695 .37236024 .09498596 .42037965 .1309967 .42037965 .147995 .42037965 .1619873 .41236878 .1619873 .37435914 .1619873 .35235597 .147995 .29833985 .13899231 .26132203 .1349945 .24432373 .12599182 .21031189 .12098694 .18830872 .11299133 .15829468 .10699463 .13328552 .10699463 .104278568 .10699463 .009246826 .1769867-.0107421879 .24198914-.0107421879 .34799195-.0107421879 .45498658 .14729309 .5059967 .3353424 .5159912 .3333435 .54499819 .32633973 .5509949 .32633973 .5549927 .32633973 .5609894 .3293457 .5609894 .3383484 .5609894 .346344 .55400088 .34735108 .5399933 .35035707L.5109863 .35635377M.44198609 .37635804C.3929901 .39337159 .29699708 .43237306 .29699708 .52326968 .29699708 .5851898 .34899903 .68307498 .4189911 .68307498 .44400025 .68307498 .47099305 .6680908 .47099305 .56422427 .47099305 .501297 .45498658 .43338014 .44198609 .37635804Z"/>
<path id="font_1_2" d="M.1789856 .114868167C.13899231 .047973634 .099990848 .033981325 .055999757 .0309906 .04399109 .02999878 .034988405 .02999878 .034988405 .010986328 .034988405 .004989624 .039993287 0 .04798889 0 .07499695 0 .10598755 .0029907227 .13398743 .0029907227 .16699219 .0029907227 .20199585 0 .23399353 0 .23999024 0 .25299073 0 .25299073 .018997193 .25299073 .02999878 .24398804 .0309906 .23699951 .0309906 .21398926 .032989503 .18998719 .04096985 .18998719 .06593323 .18998719 .077926639 .19599915 .088897708 .20399475 .102890018L.27999879 .23068238H.5309906C.5329895 .2097168 .5469971 .07392883 .5469971 .063949588 .5469971 .033981325 .49499513 .0309906 .47499085 .0309906 .46099855 .0309906 .45098878 .0309906 .45098878 .010986328 .45098878 0 .46299745 0 .46499635 0 .5059967 0 .548996 .0029907227 .58999636 .0029907227 .61499026 .0029907227 .6779938 0 .7029877 0 .70899966 0 .72099307 0 .72099307 .019989014 .72099307 .0309906 .71099856 .0309906 .69799807 .0309906 .6359863 .0309906 .6359863 .037979127 .6329956 .06694031L.57199099 .691803C.56999209 .71180728 .56999209 .7158203 .5529938 .7158203 .5369873 .7158203 .5329895 .7088165 .5269928 .69880679L.1789856 .114868167M.29899598 .26168824 .49598695 .5917816 .5279999 .26168824H.29899598Z"/>
<path id="font_1_3" d="M.1599884 .07795715C.1499939 .038986207 .147995 .0309906 .068984989 .0309906 .051986696 .0309906 .041992189 .0309906 .041992189 .010986328 .041992189 0 .050994874 0 .068984989 0H.42599488C.58399966 0 .70199587 .11791992 .70199587 .21585083 .70199587 .28778077 .6439972 .3457489 .5469971 .35673524 .651001 .37573243 .7559967 .44970704 .7559967 .5446625 .7559967 .6186218 .6899872 .6826172 .56999209 .6826172H.23399353C.21499634 .6826172 .20498657 .6826172 .20498657 .6626129 .20498657 .6516113 .21398926 .6516113 .23298645 .6516113 .23498535 .6516113 .2539978 .6516113 .2709961 .6496124 .2889862 .6476135 .2979889 .64660647 .2979889 .6336212 .2979889 .6296234 .29699708 .62661746 .2939911 .614624L.1599884 .07795715M.31098939 .36573792 .37298585 .6136322C.38198854 .64860537 .38398744 .6516113 .4269867 .6516113H.55599978C.6439972 .6516113 .6649933 .5926361 .6649933 .5486603 .6649933 .46069337 .57899478 .36573792 .45700074 .36573792H.31098939M.2659912 .0309906C.2519989 .0309906 .25 .0309906 .24398804 .03199768 .23399353 .032989503 .23098755 .033996583 .23098755 .04197693 .23098755 .04498291 .23098755 .04698181 .23599243 .064971927L.30499269 .34375H.49398805C.58999636 .34375 .60899356 .2698059 .60899356 .22683716 .60899356 .12791443 .519989 .0309906 .4019928 .0309906H.2659912Z"/>
<path id="font_2_1" d="M.6589966 .23046875C.6759949 .23046875 .69400027 .23046875 .69400027 .25045777 .69400027 .27046205 .6759949 .27046205 .6589966 .27046205H.117996219C.100997928 .27046205 .08299255 .27046205 .08299255 .25045777 .08299255 .23046875 .100997928 .23046875 .117996219 .23046875H.6589966Z"/>
<path id="font_3_1" d="M.2939911 .64004519C.2939911 .66400149 .2939911 .6660156 .2709961 .6660156 .20899964 .60227969 .12098694 .60227969 .08898926 .60227969V.57128909C.10899353 .57128909 .16799927 .57128909 .21998596 .5972748V.07902527C.21998596 .042999269 .21699524 .0309906 .1269989 .0309906H.09498596V0C.12998963 .0029907227 .21699524 .0029907227 .25698854 .0029907227 .29699708 .0029907227 .38398744 .0029907227 .4189911 0V.0309906H.3869934C.29699708 .0309906 .2939911 .041992189 .2939911 .07902527V.64004519Z"/>
</defs>
<path transform="matrix(1,0,0,-1,80.709,84.671)" stroke-width=".79701" stroke-linecap="butt" stroke-miterlimit="10" stroke-linejoin="miter" fill="none" stroke="#000000" d="M-68.0353 0C-37.41788 62.58945-8.1635 67.01169 0 68.0353"/>
<path transform="matrix(1,0,0,-1,80.709,84.671)" stroke-width=".79701" stroke-linecap="butt" stroke-miterlimit="10" stroke-linejoin="miter" fill="none" stroke="#000000" d="M0 68.0353C8.1635 67.01169 37.41788 62.58945 68.0353 0"/>
<path transform="matrix(1,0,0,-1,80.709,84.671)" stroke-width=".79701" stroke-linecap="butt" stroke-miterlimit="10" stroke-linejoin="miter" fill="none" stroke="#000000" d="M-68.0353 0H68.0353"/>
<path transform="matrix(1,0,0,-1,80.709,84.671)" stroke-width=".3985" stroke-linecap="butt" stroke-dasharray="2.98883,2.98883" stroke-miterlimit="10" stroke-linejoin="miter" fill="none" stroke="#000000" d="M0 0V68.0353"/>
<path transform="matrix(1,0,0,-1,80.709,84.671)" stroke-width=".3985" stroke-linecap="butt" stroke-miterlimit="10" stroke-linejoin="miter" fill="none" stroke="#000000" d="M-12.24525 58.50769-4.2875 64.76027"/>
<path transform="matrix(.7863,-.6178,-.6178,-.7863,76.4215,19.910752)" d="M1.99252 0-1.19551 1.59401 0 0-1.19551-1.59401"/>
<path transform="matrix(1,0,0,-1,80.709,84.671)" stroke-width=".3985" stroke-linecap="butt" stroke-miterlimit="10" stroke-linejoin="miter" fill="none" stroke="#000000" d="M12.24525 58.50769 4.2875 64.76027"/>
<path transform="matrix(-.7863,-.6178,-.6178,.7863,84.9965,19.910752)" d="M1.99252 0-1.19551 1.59401 0 0-1.19551-1.59401"/>
<use data-text="&#x03d1;" xlink:href="#font_1_1" transform="matrix(9.96264,0,0,-9.96264,77.763,35.065996)"/>
<path transform="matrix(1,0,0,-1,80.709,84.671)" d="M1.22493 0C1.22493 .67651 .67651 1.22493 0 1.22493-.67651 1.22493-1.22493 .67651-1.22493 0-1.22493-.67651-.67651-1.22493 0-1.22493 .67651-1.22493 1.22493-.67651 1.22493 0ZM0 0"/>
<path transform="matrix(1,0,0,-1,80.709,84.671)" d="M1.22493 68.0353C1.22493 68.7118 .67651 69.26022 0 69.26022-.67651 69.26022-1.22493 68.7118-1.22493 68.0353-1.22493 67.35878-.67651 66.81036 0 66.81036 .67651 66.81036 1.22493 67.35878 1.22493 68.0353ZM0 68.0353"/>
<use data-text="A" xlink:href="#font_1_2" transform="matrix(9.96264,0,0,-9.96264,76.973,94.999)"/>
<use data-text="B" xlink:href="#font_1_3" transform="matrix(9.96264,0,0,-9.96264,76.68,13.116997)"/>
<use data-text="&#x2212;" xlink:href="#font_2_1" transform="matrix(9.96264,0,0,-9.96264,6.308998,94.611)"/>
<use data-text="1" xlink:href="#font_3_1" transform="matrix(9.96264,0,0,-9.96264,14.057998,94.611)"/>
<use data-text="1" xlink:href="#font_3_1" transform="matrix(9.96264,0,0,-9.96264,146.25299,94.611)"/>
</svg>
