<svg xmlns="http://www.w3.org/2000/svg" xmlns:xlink="http://www.w3.org/1999/xlink" xmlns:inkscape="http://www.inkscape.org/namespaces/inkscape" version="1.1" width="105.41" height="73.688" viewBox="0 0 105.41 73.688">
<defs>
<path id="font_1_2" d="M.20599365 .11984253C.17098999 .06594849 .13899231 .039978029 .07998657 .035995485 .069992069 .034988405 .056991579 .034988405 .056991579 .01499939 .056991579 .0039978029 .06599426 0 .070999149 0 .09700012 0 .12998963 .0039978029 .15699768 .0039978029 .18899536 .0039978029 .22999573 0 .2599945 0 .2649994 0 .27999879 0 .27999879 .021987915 .27999879 .034988405 .2669983 .035995485 .2630005 .035995485 .25498963 .036987306 .21899414 .038986207 .21899414 .06594849 .21899414 .077926639 .22898865 .09489441 .23399353 .103881839L.31399537 .22766114H.59999087L.6239929 .061950685C.6199951 .051971437 .6139984 .035995485 .5549927 .035995485 .54299929 .035995485 .5289917 .035995485 .5289917 .01399231 .5289917 .009994507 .5319977 0 .54499819 0 .57398989 0 .644989 .0039978029 .673996 .0039978029 .69200137 .0039978029 .71499636 .0029907227 .73298647 .0029907227 .7509918 .0019989014 .7719879 0 .7899933 0 .8029938 0 .80999758 .0079956059 .80999758 .020996094 .80999758 .035995485 .7979889 .035995485 .7819977 .035995485 .723999 .035995485 .7220001 .04397583 .71899417 .06793213L.6309967 .6848755C.6279907 .70588687 .6259918 .7128906 .6069946 .7128906 .58799746 .7128906 .58200076 .70388796 .57299807 .6898804L.20599365 .11984253M.33799745 .26367188 .5479889 .5908356 .59498599 .26367188H.33799745Z"/>
<path id="font_1_3" d="M.18998719 .07797241C.18099976 .04399109 .1789856 .035995485 .101989749 .035995485 .084991458 .035995485 .07199097 .035995485 .07199097 .01499939 .07199097 0 .083999637 0 .101989749 0H.4889984C.6569977 0 .7859955 .11494446 .7859955 .21388245 .7859955 .28485108 .72099307 .34580995 .61499026 .35681153 .73599246 .37879945 .83699038 .4547577 .83699038 .54067996 .83699038 .6166382 .7599945 .6826172 .6299896 .6826172H.2659912C.24699402 .6826172 .23399353 .6826172 .23399353 .660614 .23399353 .64660647 .24598694 .64660647 .2659912 .64660647 .2669983 .64660647 .28599549 .64660647 .3039856 .64460757 .32499696 .64260867 .32699586 .64060977 .32699586 .63061526 .32699586 .62861636 .32699586 .6236267 .32299806 .6086426L.18998719 .07797241M.34999085 .3688202 .41099549 .6126404C.4189911 .6436157 .41999818 .64660647 .46199037 .64660647H.6139984C.71598818 .64660647 .7389984 .57966616 .7389984 .541687 .7389984 .46073915 .647995 .3688202 .5139923 .3688202H.34999085M.3019867 .035995485C.2709961 .035995485 .269989 .036987306 .269989 .04598999 .269989 .04698181 .269989 .051986696 .27398683 .066970828L.34298707 .3408203H.5549927C.6489868 .3408203 .68499758 .27885438 .68499758 .22088623 .68499758 .12194824 .58399966 .035995485 .46299745 .035995485H.3019867Z"/>
<path id="font_1_4" d="M.84298709 .6901245C.84298709 .69511416 .83999636 .703125 .8299866 .703125 .82299807 .703125 .82099917 .70111086 .81199648 .69111636L.7389984 .61413577C.7299957 .62612918 .673996 .703125 .5509949 .703125 .30799867 .703125 .069992069 .48820497 .069992069 .2623291 .069992069 .09941101 .19799805-.01953125 .3769989-.01953125 .43099977-.01953125 .5269928-.008544922 .6299896 .078430179 .70899966 .14538574 .73098757 .23234558 .73098757 .24034119 .73098757 .25334168 .71899417 .25334168 .71398928 .25334168 .70098879 .25334168 .69898989 .24833679 .69599917 .23735047 .6549988 .10041809 .5149994 .016464234 .3939972 .016464234 .28799439 .016464234 .16999817 .07342529 .16999817 .23135376 .16999817 .2603302 .1769867 .4182434 .2919922 .5441742 .36099244 .6211395 .46598817 .66711428 .5609894 .66711428 .6769867 .66711428 .7449951 .5831604 .7449951 .47122193 .7449951 .4432373 .74198916 .43623353 .74198916 .43023683 .74198916 .4172516 .7549896 .4172516 .7599945 .4172516 .776001 .4172516 .776001 .4202423 .7809906 .4392395L.84298709 .6901245Z"/>
<path id="font_1_5" d="M.18899536 .07797241C.18099976 .04399109 .1789856 .035995485 .100997928 .035995485 .08299255 .035995485 .070999149 .035995485 .070999149 .01399231 .070999149 0 .08299255 0 .100997928 0H.45799256C.6799927 0 .8929901 .20388794 .8929901 .42175294 .8929901 .5676575 .7919922 .6826172 .6289978 .6826172H.2649994C.24499512 .6826172 .23298645 .6826172 .23298645 .660614 .23298645 .64660647 .24398804 .64660647 .2659912 .64660647 .28199769 .64660647 .28599549 .64660647 .3039856 .64460757 .32398988 .64260867 .32598878 .64060977 .32598878 .63061526 .32598878 .62861636 .32598878 .6236267 .32199098 .6086426L.18899536 .07797241M.41299439 .6126251C.42099 .6436157 .42199708 .64660647 .46398927 .64660647H.59199526C.70399478 .64660647 .7979889 .59065249 .7979889 .45472718 .7979889 .43174745 .7879944 .2588501 .6879883 .14492798 .6489868 .09994507 .5629883 .035995485 .43998719 .035995485H.3039856C.272995 .035995485 .27198792 .036987306 .27198792 .04598999 .27198792 .04698181 .27198792 .051986696 .27598573 .066970828L.41299439 .6126251Z"/>
<path id="font_2_1" d="M.7679901 .3359375C.7829895 .3359375 .80599978 .3359375 .80599978 .3609314 .80599978 .38493348 .7819977 .38493348 .7689972 .38493348H.10699463C.09399414 .38493348 .069992069 .38493348 .069992069 .3609314 .069992069 .3359375 .09298706 .3359375 .10798645 .3359375H.7679901M.7689972 .11602783C.7819977 .11602783 .80599978 .11602783 .80599978 .1400299 .80599978 .16503906 .7829895 .16503906 .7679901 .16503906H.10798645C.09298706 .16503906 .069992069 .16503906 .069992069 .1400299 .069992069 .11602783 .09399414 .11602783 .10699463 .11602783H.7689972Z"/>
<path id="font_1_6" d="M.42199708 .38238526C.40098573 .41540528 .36698915 .44140626 .31900025 .44140626 .19099427 .44140626 .06098938 .300354 .06098938 .15628052 .06098938 .059249879 .12599182-.009765625 .21199036-.009765625 .2659912-.009765625 .31399537 .021224976 .35398866 .0602417 .37298585 .00022888184 .43099977-.009765625 .45700074-.009765625 .49299623-.009765625 .5179901 .01222229 .5359955 .04324341 .55799868 .08226013 .57099917 .13928223 .57099917 .14328003 .57099917 .15628052 .55799868 .15628052 .5549927 .15628052 .54100039 .15628052 .5399933 .15228272 .5329895 .12527466 .5209961 .07725525 .5019989 .018234253 .45999146 .018234253 .43399049 .018234253 .4269867 .040237428 .4269867 .06724548 .4269867 .08425903 .43499757 .120269779 .44198609 .14628601 .44898988 .17329407 .45899964 .21430969 .46398927 .23632813L.48399354 .3123474C.48999024 .33836366 .5019989 .38539125 .5019989 .39038087 .5019989 .4123993 .48399354 .4223938 .46798707 .4223938 .45098878 .4223938 .42799378 .4104004 .42199708 .38238526M.35798646 .12527466C.35099793 .09725952 .32899476 .07725525 .30699159 .058242799 .2979889 .050247194 .2579956 .018234253 .21499634 .018234253 .17799378 .018234253 .14199829 .04423523 .14199829 .11526489 .14199829 .16828919 .17098999 .27833558 .19400025 .31835938 .23999024 .39839173 .29100038 .4133911 .31900025 .4133911 .3889923 .4133911 .4079895 .33737184 .4079895 .32635499 .4079895 .32235719 .4059906 .3153534 .40499879 .3123474L.35798646 .12527466Z"/>
<path id="font_1_1" d="M.31599427-.008773804C.32699586-.009765625 .33898927-.009765625 .34999085-.009765625 .5299988-.009765625 .69499209 .13726807 .69499209 .29534913 .69499209 .3843994 .6419983 .44140626 .56399539 .44140626 .42599488 .44140626 .35299684 .26533509 .32499696 .19029236 .31199647 .15327454 .2899933 .083236698 .28399659 .06422424 .17399597 .07923889 .10398865 .12927246 .10398865 .2033081 .10398865 .20429993 .10998535 .31636048 .19099427 .4064026 .19799805 .4133911 .19898987 .41540528 .19898987 .41940309 .19898987 .43139649 .18598938 .43139649 .18299866 .43139649 .17399597 .43139649 .16999817 .43139649 .15098572 .4093933 .09498596 .3403778 .068984989 .23632813 .068984989 .19329834 .068984989 .10424805 .13398743 .02722168 .2630005-.00077819827 .21299744-.15582276 .20698548-.17481995 .20698548-.18382263 .20698548-.21083069 .22999573-.21582031 .24099732-.21582031 .2519989-.21582031 .27198792-.20883179 .27999879-.1938324 .2869873-.17881775 .29599-.12780762 .31599427-.008773804M.32899476 .05923462C.34899903 .17428589 .35699464 .21931458 .40499879 .28434754 .44999696 .3453827 .5029907 .37339784 .5529938 .37339784 .621994 .37339784 .6589966 .32737733 .6589966 .27534486 .6589966 .17428589 .5329895 .05822754 .36099244 .05822754 .35198976 .05822754 .33799745 .05822754 .32899476 .05923462Z"/>
</defs>
<path transform="matrix(1,0,0,-1,15.821,57.737005)" stroke-width=".79701" stroke-linecap="butt" stroke-miterlimit="10" stroke-linejoin="miter" fill="none" stroke="#2471a3" d="M0 0H73.40247L59.3847 43.14351H14.0184Z"/>
<path transform="matrix(1,0,0,-1,15.821,57.737005)" stroke-width=".79701" stroke-linecap="butt" stroke-miterlimit="10" stroke-linejoin="miter" fill="none" stroke="#b30000" d="M0 0 59.3847 43.14351"/>
<path transform="matrix(1,0,0,-1,15.821,57.737005)" d="M.95642 0C.95642 .52821 .52821 .95642 0 .95642-.52821 .95642-.95642 .52821-.95642 0-.95642-.52821-.52821-.95642 0-.95642 .52821-.95642 .95642-.52821 .95642 0ZM0 0"/>
<path transform="matrix(1,0,0,-1,15.821,57.737005)" d="M74.3589 0C74.3589 .52821 73.9307 .95642 73.40247 .95642 72.87425 .95642 72.44604 .52821 72.44604 0 72.44604-.52821 72.87425-.95642 73.40247-.95642 73.9307-.95642 74.3589-.52821 74.3589 0ZM73.40247 0"/>
<path transform="matrix(1,0,0,-1,15.821,57.737005)" d="M60.34114 43.14351C60.34114 43.67174 59.91293 44.09995 59.3847 44.09995 58.85649 44.09995 58.42828 43.67174 58.42828 43.14351 58.42828 42.6153 58.85649 42.18707 59.3847 42.18707 59.91293 42.18707 60.34114 42.6153 60.34114 43.14351ZM59.3847 43.14351"/>
<path transform="matrix(1,0,0,-1,15.821,57.737005)" d="M14.97484 43.14351C14.97484 43.67174 14.54663 44.09995 14.0184 44.09995 13.49019 44.09995 13.06197 43.67174 13.06197 43.14351 13.06197 42.6153 13.49019 42.18707 14.0184 42.18707 14.54663 42.18707 14.97484 42.6153 14.97484 43.14351ZM14.0184 43.14351"/>
<use data-text="A" xlink:href="#font_1_2" transform="matrix(6.97385,0,0,-6.97385,6.309,66.023)"/>
<use data-text="B" xlink:href="#font_1_3" transform="matrix(6.97385,0,0,-6.97385,92.742,66.023)"/>
<use data-text="C" xlink:href="#font_1_4" transform="matrix(6.97385,0,0,-6.97385,78.724,11.075005)"/>
<use data-text="D" xlink:href="#font_1_5" transform="matrix(6.97385,0,0,-6.97385,19.59,11.075005)"/>
<use data-text="A" xlink:href="#font_1_2" transform="matrix(6.97385,0,0,-6.97385,35.822,66.023)"/>
<use data-text="B" xlink:href="#font_1_3" transform="matrix(6.97385,0,0,-6.97385,41.812536,66.023)"/>
<use data-text="=" xlink:href="#font_2_1" transform="matrix(6.97385,0,0,-6.97385,50.441,66.023)"/>
<use data-text="a" xlink:href="#font_1_6" transform="matrix(6.97385,0,0,-6.97385,58.824,66.023)"/>
<use data-text="&#x03d5;" xlink:href="#font_1_1" transform="matrix(6.97385,0,0,-6.97385,63.14779,66.023)"/>
<use data-text="C" xlink:href="#font_1_4" transform="matrix(6.97385,0,0,-6.97385,38.152,11.085003)"/>
<use data-text="D" xlink:href="#font_1_5" transform="matrix(6.97385,0,0,-6.97385,44.351755,11.085003)"/>
<use data-text="=" xlink:href="#font_2_1" transform="matrix(6.97385,0,0,-6.97385,53.351,11.085003)"/>
<use data-text="a" xlink:href="#font_1_6" transform="matrix(6.97385,0,0,-6.97385,61.735,11.085003)"/>
</svg>
