<svg xmlns="http://www.w3.org/2000/svg" xmlns:xlink="http://www.w3.org/1999/xlink" xmlns:inkscape="http://www.inkscape.org/namespaces/inkscape" version="1.1" width="367.688" height="203.496" viewBox="0 0 367.688 203.496">
<defs>
<path id="font_1_9" d="M.33399964 .30233766C.33999635 .32835389 .36299134 .42037965 .43299867 .42037965 .43798829 .42037965 .46199037 .42037965 .48298646 .40734864 .45498658 .402359 .43499757 .37734986 .43499757 .35334779 .43499757 .33735658 .44599916 .31835938 .47299195 .31835938 .49499513 .31835938 .5269928 .3363495 .5269928 .37635804 .5269928 .42837525 .46798707 .4423828 .43399049 .4423828 .37599183 .4423828 .34098817 .38935853 .32899476 .36634828 .3039856 .43237306 .25 .4423828 .22099304 .4423828 .116989139 .4423828 .05999756 .3133545 .05999756 .28834535 .05999756 .27833558 .069992069 .27833558 .07199097 .27833558 .07998657 .27833558 .08299255 .28033448 .084991458 .28933717 .11898804 .39535523 .18499756 .42037965 .21899414 .42037965 .23799134 .42037965 .272995 .4113617 .272995 .35334779 .272995 .32235719 .2559967 .25532533 .21899414 .11528015 .20298767 .053268434 .16799927 .011245728 .12399292 .011245728 .117996219 .011245728 .09498596 .011245728 .07398987 .024276734 .09899902 .029266358 .12098694 .05027771 .12098694 .07827759 .12098694 .105270389 .09899902 .11328125 .083999637 .11328125 .053985597 .11328125 .0289917 .08728027 .0289917 .055267335 .0289917 .009246826 .07899475-.0107421879 .12298584-.0107421879 .18899536-.0107421879 .22499085 .059280397 .22799683 .0652771 .23999024 .028274537 .27598573-.0107421879 .33599855-.0107421879 .43899537-.0107421879 .49598695 .118270877 .49598695 .14328003 .49598695 .1532898 .4869995 .1532898 .48399354 .1532898 .47499085 .1532898 .47299195 .14929199 .47099305 .14228821 .43798829 .03527832 .36999513 .011245728 .33799745 .011245728 .29899598 .011245728 .2829895 .043273927 .2829895 .07727051 .2829895 .09927368 .2889862 .121276859 .2999878 .16529846L.33399964 .30233766Z"/>
<path id="font_1_10" d="M.48599244 .38136292C.48999024 .39537049 .48999024 .39736939 .48999024 .40437318 .48999024 .42237855 .47599793 .43138124 .46099855 .43138124 .45098878 .43138124 .43499757 .42536927 .42599488 .41036988 .42399598 .405365 .41600038 .37435914 .4119873 .35635377 .40499879 .33035279 .397995 .30334474 .3919983 .27633668L.34700013 .09628296C.34298707 .08126831 .2999878 .011245728 .23399353 .011245728 .18299866 .011245728 .17199707 .055267335 .17199707 .0922699 .17199707 .1382904 .18899536 .20030213 .22299195 .28833009 .23899842 .3293457 .24299622 .3403473 .24299622 .36035157 .24299622 .405365 .21099854 .4423828 .16099549 .4423828 .06599426 .4423828 .0289917 .29733277 .0289917 .28833009 .0289917 .27833558 .038986207 .27833558 .040985109 .27833558 .050994874 .27833558 .051986696 .28033448 .056991579 .29634095 .083999637 .3903656 .12399292 .42037965 .1579895 .42037965 .1659851 .42037965 .18299866 .42037965 .18299866 .3883667 .18299866 .36335755 .17298889 .3373413 .1659851 .31834413 .12599182 .21231079 .10798645 .1552887 .10798645 .10827637 .10798645 .019256592 .17098999-.0107421879 .22999573-.0107421879 .2689972-.0107421879 .30299378 .0062561037 .33099366 .03425598 .31799317-.017745972 .30599977-.06674194 .2659912-.11973572 .23999024-.15385437 .20199585-.18309021 .1559906-.18309021 .14199829-.18309021 .09700012-.18005371 .07998657-.14074707 .09599304-.14074707 .10899353-.14074707 .12298584-.1287384 .1329956-.11973572 .14299011-.10673523 .14299011-.08773804 .14299011-.056747438 .115997318-.052734376 .10598755-.052734376 .08299255-.052734376 .049987794-.068740848 .049987794-.11773682 .049987794-.16796875 .09399414-.20507813 .1559906-.20507813 .25898744-.20507813 .3619995-.11373901 .3899994-.00074768069L.48599244 .38136292Z"/>
<path id="font_1_3" d="M.1599884 .07795715C.1499939 .038986207 .147995 .0309906 .068984989 .0309906 .051986696 .0309906 .041992189 .0309906 .041992189 .010986328 .041992189 0 .050994874 0 .068984989 0H.42599488C.58399966 0 .70199587 .11791992 .70199587 .21585083 .70199587 .28778077 .6439972 .3457489 .5469971 .35673524 .651001 .37573243 .7559967 .44970704 .7559967 .5446625 .7559967 .6186218 .6899872 .6826172 .56999209 .6826172H.23399353C.21499634 .6826172 .20498657 .6826172 .20498657 .6626129 .20498657 .6516113 .21398926 .6516113 .23298645 .6516113 .23498535 .6516113 .2539978 .6516113 .2709961 .6496124 .2889862 .6476135 .2979889 .64660647 .2979889 .6336212 .2979889 .6296234 .29699708 .62661746 .2939911 .614624L.1599884 .07795715M.31098939 .36573792 .37298585 .6136322C.38198854 .64860537 .38398744 .6516113 .4269867 .6516113H.55599978C.6439972 .6516113 .6649933 .5926361 .6649933 .5486603 .6649933 .46069337 .57899478 .36573792 .45700074 .36573792H.31098939M.2659912 .0309906C.2519989 .0309906 .25 .0309906 .24398804 .03199768 .23399353 .032989503 .23098755 .033996583 .23098755 .04197693 .23098755 .04498291 .23098755 .04698181 .23599243 .064971927L.30499269 .34375H.49398805C.58999636 .34375 .60899356 .2698059 .60899356 .22683716 .60899356 .12791443 .519989 .0309906 .4019928 .0309906H.2659912Z"/>
<path id="font_2_1" d="M.33099366-.2400055C.33099366-.23701477 .33099366-.23500061 .31399537-.21800232 .18899536-.0920105 .15699768 .09700012 .15699768 .25 .15699768 .42399598 .19499207 .59799197 .31799317 .72299197 .33099366 .73498538 .33099366 .7369995 .33099366 .73999026 .33099366 .746994 .32699586 .75 .32099916 .75 .31098939 .75 .22099304 .6819916 .1619873 .5549927 .11099243 .44499208 .09899902 .33399964 .09899902 .25 .09899902 .17199707 .10998535 .050994874 .16499329-.06201172 .22499085-.18501282 .31098939-.25 .32099916-.25 .32699586-.25 .33099366-.24700928 .33099366-.2400055Z"/>
<path id="font_2_4" d="M.2939911 .64004519C.2939911 .66400149 .2939911 .6660156 .2709961 .6660156 .20899964 .60227969 .12098694 .60227969 .08898926 .60227969V.57128909C.10899353 .57128909 .16799927 .57128909 .21998596 .5972748V.07902527C.21998596 .042999269 .21699524 .0309906 .1269989 .0309906H.09498596V0C.12998963 .0029907227 .21699524 .0029907227 .25698854 .0029907227 .29699708 .0029907227 .38398744 .0029907227 .4189911 0V.0309906H.3869934C.29699708 .0309906 .2939911 .041992189 .2939911 .07902527V.64004519Z"/>
<path id="font_1_1" d="M.20298767 .0009918213C.20298767 .066986087 .17799378 .10598755 .13899231 .10598755 .10598755 .10598755 .085998538 .08099365 .085998538 .052993776 .085998538 .025985718 .10598755 0 .13899231 0 .15098572 0 .1639862 .0039978029 .17399597 .0129852299 .1769867 .01499939 .17799378 .015991211 .1789856 .015991211 .17999268 .015991211 .18099976 .01499939 .18099976 .0009918213 .18099976-.07316589 .1459961-.13328552 .11299133-.16635132 .101989749-.17736817 .101989749-.17936707 .101989749-.18237305 .101989749-.18936157 .10699463-.19335938 .11199951-.19335938 .12298584-.19335938 .20298767-.116256717 .20298767 .0009918213Z"/>
<path id="font_2_7" d="M.2939911 .16503906V.07800293C.2939911 .041992189 .2919922 .0309906 .21798706 .0309906H.19699097V0C.23799134 .0029907227 .2899933 .0029907227 .33198548 .0029907227 .37399293 .0029907227 .4269867 .0029907227 .46798707 0V.0309906H.44699098C.37298585 .0309906 .37098695 .041992189 .37098695 .07800293V.16503906H.47099305V.19602967H.37098695V.65075686C.37098695 .67074587 .37098695 .6767578 .35499574 .6767578 .34599305 .6767578 .34298707 .6767578 .33499146 .66474917L.027999878 .19602967V.16503906H.2939911M.2999878 .19602967H.055999757L.2999878 .5688019V.19602967Z"/>
<path id="font_2_2" d="M.2889862 .25C.2889862 .32798768 .27799989 .44898988 .22299195 .56199648 .16299439 .68499758 .07699585 .75 .066986087 .75 .06098938 .75 .056991579 .74598696 .056991579 .73999026 .056991579 .7369995 .056991579 .73498538 .07598877 .71699526 .17399597 .6179962 .23098755 .45899964 .23098755 .25 .23098755 .07899475 .19400025-.09700012 .069992069-.2230072 .056991579-.23500061 .056991579-.23701477 .056991579-.2400055 .056991579-.2460022 .06098938-.25 .066986087-.25 .07699585-.25 .16699219-.18200684 .22599793-.055007936 .2769928 .054992677 .2889862 .16600037 .2889862 .25Z"/>
<path id="font_1_2" d="M.1789856 .114868167C.13899231 .047973634 .099990848 .033981325 .055999757 .0309906 .04399109 .02999878 .034988405 .02999878 .034988405 .010986328 .034988405 .004989624 .039993287 0 .04798889 0 .07499695 0 .10598755 .0029907227 .13398743 .0029907227 .16699219 .0029907227 .20199585 0 .23399353 0 .23999024 0 .25299073 0 .25299073 .018997193 .25299073 .02999878 .24398804 .0309906 .23699951 .0309906 .21398926 .032989503 .18998719 .04096985 .18998719 .06593323 .18998719 .077926639 .19599915 .088897708 .20399475 .102890018L.27999879 .23068238H.5309906C.5329895 .2097168 .5469971 .07392883 .5469971 .063949588 .5469971 .033981325 .49499513 .0309906 .47499085 .0309906 .46099855 .0309906 .45098878 .0309906 .45098878 .010986328 .45098878 0 .46299745 0 .46499635 0 .5059967 0 .548996 .0029907227 .58999636 .0029907227 .61499026 .0029907227 .6779938 0 .7029877 0 .70899966 0 .72099307 0 .72099307 .019989014 .72099307 .0309906 .71099856 .0309906 .69799807 .0309906 .6359863 .0309906 .6359863 .037979127 .6329956 .06694031L.57199099 .691803C.56999209 .71180728 .56999209 .7158203 .5529938 .7158203 .5369873 .7158203 .5329895 .7088165 .5269928 .69880679L.1789856 .114868167M.29899598 .26168824 .49598695 .5917816 .5279999 .26168824H.29899598Z"/>
<path id="font_2_3" d="M.45999146 .31976319C.45999146 .39982606 .45498658 .47988893 .41999818 .5539398 .37399293 .65000918 .2919922 .6660156 .25 .6660156 .18998719 .6660156 .116989139 .64001467 .07598877 .54693606 .04399109 .47789 .038986207 .39982606 .038986207 .31976319 .038986207 .24472046 .042999269 .15464783 .083999637 .07859802 .1269989-.0024719239 .19999695-.022460938 .24899292-.022460938 .30299378-.022460938 .3789978-.0014648438 .4229889 .09359741 .45498658 .16265869 .45999146 .2407074 .45999146 .31976319M.24899292-.00047302247C.20999146-.00047302247 .15098572 .024551392 .1329956 .12062073 .12199402 .18066406 .12199402 .2727356 .12199402 .3317871 .12199402 .39582826 .12199402 .46188355 .12998963 .5159149 .14898682 .63500979 .22399903 .64401248 .24899292 .64401248 .28199769 .64401248 .34799195 .6259918 .36698915 .52693179 .3769989 .47088624 .3769989 .39482118 .3769989 .3317871 .3769989 .25672914 .3769989 .18867493 .3659973 .12461853 .35099793 .029556275 .2939911-.00047302247 .24899292-.00047302247Z"/>
<path id="font_1_4" d="M.7599945 .69506838C.7599945 .69807437 .7579956 .7050781 .7489929 .7050781 .74598696 .7050781 .7449951 .70407107 .73399356 .69306948L.6639862 .61602786C.6549988 .6300354 .60899356 .7050781 .49798585 .7050781 .2749939 .7050781 .049987794 .48391725 .049987794 .25172425 .049987794 .08659363 .16799927-.022460938 .32099916-.022460938 .4079895-.022460938 .48399354 .017532349 .5369873 .063583377 .6299896 .14564514 .6469879 .2367096 .6469879 .23971558 .6469879 .24972534 .6369934 .24972534 .6349945 .24972534 .6289978 .24972534 .6239929 .24772644 .621994 .23971558 .61299136 .21069336 .58999636 .13963318 .5209961 .081588748 .45199586 .025543213 .3889923 .008529663 .33699037 .008529663 .24699402 .008529663 .14099121 .060577394 .14099121 .21670532 .14099121 .27374269 .1619873 .43588258 .2619934 .55296328 .32299806 .62402346 .4169922 .67407229 .5059967 .67407229 .60798647 .67407229 .6669922 .5970001 .6669922 .48091126 .6669922 .44088746 .6639862 .43988038 .6639862 .4298706 .6639862 .41986085 .6749878 .41986085 .67900088 .41986085 .69200137 .41986085 .69200137 .42185975 .69699099 .43988038L.7599945 .69506838Z"/>
<path id="font_2_6" d="M.2899933 .35191346C.37199403 .37893678 .42999269 .4490509 .42999269 .52809146 .42999269 .6100464 .34199525 .6660156 .24598694 .6660156 .14498902 .6660156 .068984989 .60606387 .068984989 .53009036 .068984989 .49710084 .09098816 .47808839 .11999512 .47808839 .15098572 .47808839 .17098999 .50009158 .17098999 .5290985 .17098999 .57910159 .12399292 .57910159 .10899353 .57910159 .13999939 .62802127 .20599365 .64100649 .24198914 .64100649 .2829895 .64100649 .33799745 .6190338 .33799745 .5290985 .33799745 .51708987 .33599855 .45906068 .30999757 .4149933 .27999879 .36691285 .24598694 .36390687 .22099304 .36291505 .21299744 .36190797 .18899536 .35990907 .18199158 .35990907 .17399597 .35890199 .16699219 .35791017 .16699219 .3479004 .16699219 .33691407 .17399597 .33691407 .19099427 .33691407H.23498535C.31698609 .33691407 .35398866 .2686615 .35398866 .17037964 .35398866 .034469606 .2849884 .0055389406 .24099732 .0055389406 .19799805 .0055389406 .12298584 .022491456 .08799744 .08137512 .12298584 .07637024 .1539917 .09837341 .1539917 .1363678 .1539917 .17237854 .1269989 .19238281 .09799194 .19238281 .07398987 .19238281 .041992189 .17837525 .041992189 .1343689 .041992189 .043441774 .1349945-.022460938 .24398804-.022460938 .3659973-.022460938 .45700074 .06838989 .45700074 .17037964 .45700074 .252594 .3939972 .33088685 .2899933 .35191346Z"/>
<path id="font_2_5" d="M.1269989 .07699585 .23298645 .18003845C.3889923 .31811524 .44898988 .3721466 .44898988 .47216798 .44898988 .5860901 .35899354 .6660156 .23699951 .6660156 .12399292 .6660156 .049987794 .57411196 .049987794 .48516847 .049987794 .4291687 .099990848 .4291687 .102996829 .4291687 .11999512 .4291687 .15499878 .44117738 .15499878 .48217774 .15499878 .5081787 .13699341 .5341797 .101989749 .5341797 .09399414 .5341797 .09199524 .5341797 .08898926 .5331726 .11199951 .59806826 .1659851 .63500979 .22399903 .63500979 .31498719 .63500979 .35798646 .5541382 .35798646 .47216798 .35798646 .39215089 .30799867 .31311036 .25299073 .25108338L.06098938 .036987306C.049987794 .025985718 .049987794 .023986817 .049987794 0H.42099L.44898988 .17404175H.42399598C.4189911 .14402771 .4119873 .1000061 .4019928 .084991458 .394989 .07699585 .32899476 .07699585 .30699159 .07699585H.1269989Z"/>
<path id="font_1_5" d="M.15899658 .07795715C.14898682 .038986207 .14698792 .0309906 .067993167 .0309906 .050994874 .0309906 .039993287 .0309906 .039993287 .011993408 .039993287 0 .04899597 0 .067993167 0H.39898683C.6069946 0 .80400088 .21087647 .80400088 .42974855 .80400088 .5706482 .71899417 .6826172 .56900027 .6826172H.23298645C.21398926 .6826172 .20298767 .6826172 .20298767 .66360476 .20298767 .6516113 .21199036 .6516113 .23199463 .6516113 .24499512 .6516113 .2630005 .65060427 .2749939 .6496124 .29100038 .6476135 .29699708 .64460757 .29699708 .6336212 .29699708 .6296234 .29599 .62661746 .29299928 .614624L.15899658 .07795715M.375 .6136322C.38398744 .64860537 .38598634 .6516113 .42900086 .6516113H.5359955C.6339874 .6516113 .71699526 .5986328 .71699526 .46672059 .71699526 .41775514 .69699099 .25386048 .6119995 .1439209 .58299258 .10694885 .5039978 .0309906 .3809967 .0309906H.2679901C.2539978 .0309906 .2519989 .0309906 .24598694 .03199768 .23599243 .032989503 .23298645 .033996583 .23298645 .041992189 .23298645 .04498291 .23298645 .04698181 .23799134 .064971927L.375 .6136322Z"/>
<path id="font_2_8" d="M.44898988 .20022583C.44898988 .3193512 .36698915 .41944886 .25898744 .41944886 .21099854 .41944886 .16799927 .40345765 .13198853 .36842347V.5637665C.1519928 .5577698 .18499756 .55078127 .21699524 .55078127 .33999635 .55078127 .4099884 .6417694 .4099884 .6547699 .4099884 .6607666 .40699769 .6657715 .3999939 .6657715 .39898683 .6657715 .39698792 .6657715 .3919983 .66278079 .37199403 .6537781 .32299806 .6337738 .2559967 .6337738 .21598816 .6337738 .16999817 .6407776 .12298584 .6617737 .114990238 .66477969 .11299133 .66477969 .11099243 .66477969 .100997928 .66477969 .100997928 .6567688 .100997928 .6407776V.34439088C.100997928 .32637025 .100997928 .31835938 .114990238 .31835938 .12199402 .31835938 .12399292 .32136537 .12799073 .32736207 .13899231 .3433838 .17599488 .39746095 .25698854 .39746095 .30899049 .39746095 .33399964 .35139466 .34199525 .33337403 .35798646 .29632569 .3600006 .25727845 .3600006 .20722962 .3600006 .17222595 .3600006 .11222839 .33599855 .07035828 .31199647 .031463624 .2749939 .0055389406 .22898865 .0055389406 .1559906 .0055389406 .09899902 .058380128 .08198547 .11723328 .084991458 .1162262 .08799744 .115234378 .09899902 .115234378 .13198853 .115234378 .14898682 .14022827 .14898682 .16423035 .14898682 .18823242 .13198853 .21322632 .09899902 .21322632 .084991458 .21322632 .049987794 .20622254 .049987794 .16023255 .049987794 .07434082 .11898804-.022460938 .23098755-.022460938 .34700013-.022460938 .44898988 .073349 .44898988 .20022583Z"/>
<path id="font_1_7" d="M.30299378 .3244629H.3999939C.47499085 .3244629 .48298646 .30848695 .48298646 .27954103 .48298646 .2725525 .48298646 .26057435 .47599793 .2306366 .47399903 .22564698 .47299195 .22164917 .47299195 .21965027 .47299195 .21166992 .47898866 .20767212 .4850006 .20767212 .49499513 .20767212 .49499513 .21066284 .5 .2286377L.5549927 .44551087C.55799868 .45651246 .55799868 .45851136 .55799868 .46151734 .55799868 .46351625 .55599978 .47251893 .54599 .47251893 .5359955 .47251893 .5349884 .46751405 .5309906 .45150758 .5099945 .37347413 .4869995 .35546876 .4019928 .35546876H.31098939L.375 .6095886C.38398744 .64460757 .3849945 .64860537 .42900086 .64860537H.5609894C.6839905 .64860537 .70700076 .6156006 .70700076 .53855898 .70700076 .5155487 .70700076 .51153567 .70399478 .4845276 .70199587 .4715271 .70199587 .46951295 .70199587 .46652223 .70199587 .46151734 .7049866 .45451356 .71398928 .45451356 .72499087 .45451356 .7259979 .46051026 .7279968 .4795227L.7480011 .65260317C.7509918 .6796112 .74598696 .6796112 .72099307 .6796112H.23098755C.21099854 .6796112 .20098877 .6796112 .20098877 .65960696 .20098877 .64860537 .20999146 .64860537 .22898865 .64860537 .2659912 .64860537 .2939911 .64860537 .2939911 .6306 .2939911 .6266022 .2939911 .6246033 .2889862 .60658267L.15699768 .07791138C.14698792 .038970949 .14498902 .0309906 .06599426 .0309906 .04899597 .0309906 .037994386 .0309906 .037994386 .011993408 .037994386 0 .049987794 0 .052993776 0 .08198547 0 .1559906 .0029907227 .18499756 .0029907227 .21798706 .0029907227 .30099488 0 .33399964 0 .34298707 0 .35499574 0 .35499574 .018997193 .35499574 .026992798 .34899903 .0289917 .34899903 .02999878 .34599305 .0309906 .34399415 .0309906 .32099916 .0309906 .29899598 .0309906 .2939911 .0309906 .2689972 .032989503 .23999024 .035980226 .23699951 .039978029 .23699951 .052947999 .23699951 .0549469 .23699951 .060943605 .24099732 .075912479L.30299378 .3244629Z"/>
<path id="font_2_10" d="M.16299439 .4569702C.116989139 .486969 .11299133 .52098086 .11299133 .5379791 .11299133 .598999 .17799378 .64100649 .24899292 .64100649 .32199098 .64100649 .38598634 .58898928 .38598634 .51698306 .38598634 .45996095 .34700013 .4119568 .2869873 .37695313L.16299439 .4569702M.30899049 .36193849C.3809967 .3989563 .42999269 .45095826 .42999269 .51698306 .42999269 .6090088 .34098817 .6660156 .25 .6660156 .1499939 .6660156 .068984989 .59199526 .068984989 .49897767 .068984989 .4809723 .070999149 .43595887 .11299133 .38894654 .12399292 .37695313 .16099549 .35194398 .18598938 .33494569 .12799073 .30592347 .041992189 .24984741 .041992189 .15072632 .041992189 .04458618 .14399719-.022460938 .24899292-.022460938 .3619995-.022460938 .45700074 .06060791 .45700074 .16773987 .45700074 .20379639 .44599916 .24885559 .4079895 .2909088 .3889923 .31193543 .37298585 .3219452 .30899049 .36193849M.20899964 .3199463 .33198548 .24183655C.3600006 .2228241 .40699769 .19277954 .40699769 .13169861 .40699769 .05760193 .33198548 .0055389406 .25 .0055389406 .1639862 .0055389406 .09199524 .067611698 .09199524 .15072632 .09199524 .20880127 .12399292 .27288819 .20899964 .3199463Z"/>
<path id="font_1_8" d="M.7599945 .69506838C.7599945 .69807437 .7579956 .7050781 .7489929 .7050781 .74598696 .7050781 .7449951 .70407107 .73399356 .69306948L.6639862 .61598208C.6549988 .6300049 .60899356 .7050781 .49798585 .7050781 .2749939 .7050781 .049987794 .4837799 .049987794 .25144959 .049987794 .09249878 .16099549-.022460938 .32299806-.022460938 .36698915-.022460938 .4119873-.013473511 .44799806 .0015258789 .49798585 .021530152 .5169983 .042526246 .5349884 .06251526 .5439911 .037521364 .56999209 .0005340576 .5799866 .0005340576 .58499148 .0005340576 .58699038 .0035247803 .58699038 .0045318605 .58898928 .0065307619 .598999 .044525148 .60398867 .06550598L.6230011 .14248657C.6269989 .15948487 .6319885 .1764679 .6359863 .19346619 .6469879 .2384491 .647995 .240448 .7049866 .24145508 .70999148 .24145508 .72099307 .2424469 .72099307 .26145936 .72099307 .26844789 .71598818 .27246095 .70799258 .27246095 .68499758 .27246095 .6259918 .26945497 .6029968 .26945497 .57199099 .26945497 .49398805 .27246095 .46299745 .27246095 .45399476 .27246095 .44198609 .27246095 .44198609 .25245667 .44198609 .24145508 .44999696 .24145508 .47200013 .24145508 .47299195 .24145508 .5019989 .24145508 .5249939 .23945618 .5509949 .2364502 .55599978 .23345948 .55599978 .22045899 .55599978 .2114563 .54499819 .16647339 .5349884 .12948609 .5069885 .01953125 .3769989 .008529663 .34199525 .008529663 .24598694 .008529663 .14099121 .06550598 .14099121 .21846009 .14099121 .24945069 .15098572 .41467286 .2559967 .5448761 .30999757 .6129761 .40699769 .67407229 .5059967 .67407229 .60798647 .67407229 .6669922 .59695437 .6669922 .48077394 .6669922 .44070436 .6639862 .43971253 .6639862 .4296875 .6639862 .41967774 .6749878 .41967774 .67900088 .41967774 .69200137 .41967774 .69200137 .42167665 .69699099 .43971253L.7599945 .69506838Z"/>
<path id="font_1_6" d="M.70799258 .23292542C.70999148 .23791504 .71299746 .24491883 .71299746 .24691773 .71299746 .24790955 .71299746 .2579193 .70098879 .2579193 .69200137 .2579193 .6899872 .25190736 .6879883 .24591065 .6230011 .097961429 .58599856 .0309906 .4149933 .0309906H.2689972C.25498963 .0309906 .25299073 .0309906 .24699402 .03199768 .23699951 .032989503 .23399353 .033996583 .23399353 .041992189 .23399353 .04498291 .23399353 .04698181 .23899842 .06498718L.30699159 .33789063H.4059906C.4909973 .33789063 .4909973 .31689454 .4909973 .29190064 .4909973 .28489686 .4909973 .27290345 .48399354 .24291992 .48199464 .23791504 .48098756 .23492432 .48098756 .23191834 .48098756 .22692871 .4850006 .220932 .49398805 .220932 .5019989 .220932 .5049896 .22592163 .5089874 .24092102L.56599429 .47477723C.56599429 .48077394 .5609894 .48576356 .55400088 .48576356 .54499819 .48576356 .54299929 .47976686 .5399933 .4677887 .5189972 .39186097 .5009918 .36888124 .40899659 .36888124H.31498719L.375 .60964968C.38398744 .64460757 .3849945 .64860537 .42900086 .64860537H.56999209C.69200137 .64860537 .7220001 .61964419 .7220001 .5377197 .7220001 .51374819 .7220001 .51174929 .71798709 .48477174 .71798709 .47877503 .71699526 .4717865 .71699526 .46678163 .71699526 .461792 .7200012 .45480348 .72898867 .45480348 .73999026 .45480348 .7409973 .46080018 .7429962 .47976686L.7630005 .65260317C.7659912 .6796112 .7609863 .6796112 .73599246 .6796112H.23098755C.21099854 .6796112 .20098877 .6796112 .20098877 .65960696 .20098877 .64860537 .20999146 .64860537 .22898865 .64860537 .2659912 .64860537 .2939911 .64860537 .2939911 .6306305 .2939911 .6266327 .2939911 .6246338 .2889862 .6066437L.15699768 .07797241C.14698792 .038986207 .14498902 .0309906 .06599426 .0309906 .04899597 .0309906 .037994386 .0309906 .037994386 .011993408 .037994386 0 .04699707 0 .06599426 0H.58499148C.60798647 0 .60899356 .0009918213 .6159973 .016998291L.70799258 .23292542Z"/>
<path id="font_3_1" d="M.41299439-1.1491852C.41299439-1.1451874 .41099549-1.1431885 .40899659-1.1401825 .36299134-1.0911713 .29499818-1.0101624 .25299073-.84713748 .22999573-.7561188 .22099304-.65309146 .22099304-.56007388 .22099304-.2970276 .28399659-.11299133 .4039917 .017044068 .41299439 .026031495 .41299439 .028030396 .41299439 .030029297 .41299439 .040039064 .40499879 .040039064 .40098573 .040039064 .38598634 .040039064 .33198548-.019973755 .31900025-.034973146 .21699524-.1559906 .1519928-.33602906 .1519928-.5590668 .1519928-.7010956 .1769867-.9021454 .30799867-1.071167 .31799317-1.0831757 .3829956-1.1591797 .40098573-1.1591797 .40499879-1.1591797 .41299439-1.1591797 .41299439-1.1491852Z"/>
<path id="font_2_9" d="M.47599793 .609375C.4850006 .6213684 .4850006 .62338259 .4850006 .64437869H.24198914C.11999512 .64437869 .117996219 .65737918 .11399841 .67637637H.08898926L.055999757 .4702301H.08099365C.083999637 .48625184 .09298706 .5493469 .10598755 .56137087 .11299133 .5673828 .19099427 .5673828 .20399475 .5673828H.41099549C.3999939 .5513611 .32099916 .4421997 .29899598 .40914918 .20899964 .27394105 .17599488 .1347351 .17599488 .032577516 .17599488 .022567749 .17599488-.022460938 .22200012-.022460938 .2679901-.022460938 .2679901 .022567749 .2679901 .032577516V.08366394C.2679901 .13873291 .2709961 .19381714 .2789917 .24790955 .2829895 .27093507 .29699708 .35707093 .34098817 .41915895L.47599793 .609375Z"/>
<path id="font_4_1" d="M.6589966 .23046875C.6759949 .23046875 .69400027 .23046875 .69400027 .25045777 .69400027 .27046205 .6759949 .27046205 .6589966 .27046205H.117996219C.100997928 .27046205 .08299255 .27046205 .08299255 .25045777 .08299255 .23046875 .100997928 .23046875 .117996219 .23046875H.6589966Z"/>
<path id="font_5_1" d="M.272995 .33428956C.35099793 .33428956 .40699769 .2803192 .40699769 .1733551 .40699769 .04940796 .33499146 .012466431 .2769928 .012466431 .23699951 .012466431 .14898682 .0234375 .10699463 .082351688 .1539917 .084350589 .16499329 .11735535 .16499329 .13835144 .16499329 .17034912 .14099121 .19335938 .10998535 .19335938 .08198547 .19335938 .053985597 .17634583 .053985597 .13534546 .053985597 .041412355 .1579895-.01953125 .2789917-.01953125 .41799928-.01953125 .5139923 .07336426 .5139923 .1733551 .5139923 .2513275 .44999696 .32929994 .33999635 .35229493 .44499208 .39024354 .48298646 .4650879 .48298646 .5260773 .48298646 .60505679 .3919983 .6640625 .2809906 .6640625 .16999817 .6640625 .084991458 .61006167 .084991458 .5300751 .084991458 .49606324 .10699463 .47706605 .13699341 .47706605 .16799927 .47706605 .18798828 .5000763 .18798828 .5280762 .18798828 .5570679 .16799927 .57806399 .13699341 .5800781 .17199707 .62405398 .24099732 .63505557 .27799989 .63505557 .32299806 .63505557 .38598634 .6130676 .38598634 .5260773 .38598634 .48406983 .37199403 .43814088 .34599305 .4072113 .31298829 .36927796 .2849884 .3672943 .23498535 .36428834 .20999146 .3623047 .20799256 .3623047 .20298767 .3612976 .20098877 .3612976 .19299317 .3592987 .19299317 .34829713 .19299317 .33428956 .20199585 .33428956 .21899414 .33428956H.272995Z"/>
<path id="font_5_2" d="M.5289917 .1640625V.20005799H.41799928V.64582827C.41799928 .66682437 .41799928 .6738281 .3959961 .6738281 .38398744 .6738281 .37998963 .6738281 .36999513 .65982058L.038986207 .20005799V.1640625H.33299256V.08201599C.33299256 .04800415 .33299256 .035995485 .2519989 .035995485H.22499085V0C.2749939 .0019989014 .33898927 .0039978029 .375 .0039978029 .4119873 .0039978029 .47599793 .0019989014 .526001 0V.035995485H.49899293C.41799928 .035995485 .41799928 .04800415 .41799928 .08201599V.1640625H.5289917M.33999635 .5658722V.20005799H.07598877L.33999635 .5658722Z"/>
<path id="font_3_2" d="M.30499269-.56007388C.30499269-.41804505 .27999879-.2170105 .14898682-.047973634 .13899231-.035964967 .07398987 .040039064 .055999757 .040039064 .050994874 .040039064 .04399109 .038024904 .04399109 .030029297 .04399109 .026031495 .04598999 .023025513 .049987794 .02003479 .09799194-.031967164 .16299439-.11299133 .20399475-.27201844 .22698975-.3630371 .23599243-.4660492 .23599243-.5590668 .23599243-.6600952 .22698975-.7621155 .20098877-.86013796 .16299439-1.0001679 .10398865-1.0801697 .052993776-1.1361847 .04399109-1.1451874 .04399109-1.1471863 .04399109-1.1491852 .04399109-1.1571808 .050994874-1.1591797 .055999757-1.1591797 .070999149-1.1591797 .12599182-1.098175 .13798523-1.0841827 .23999024-.96315 .30499269-.7831116 .30499269-.56007388Z"/>
</defs>
<path transform="matrix(1,0,0,-1,39.44,157.788)" stroke-width=".3985" stroke-linecap="butt" stroke-miterlimit="10" stroke-linejoin="miter" fill="none" stroke="#000000" d="M-14.17339 0H309.82237"/>
<path transform="matrix(1,0,0,-1,349.26237,157.788)" d="M1.99252 0-1.19551 1.59401 0 0-1.19551-1.59401"/>
<use data-text="x" xlink:href="#font_1_9" transform="matrix(9.96264,0,0,-9.96264,354.771,165.59799)"/>
<path transform="matrix(1,0,0,-1,39.44,157.788)" stroke-width=".3985" stroke-linecap="butt" stroke-miterlimit="10" stroke-linejoin="miter" fill="none" stroke="#000000" d="M0-42.5202V139.74152"/>
<path transform="matrix(0,-1,-1,-0,39.44,18.046479)" d="M1.99252 0-1.19551 1.59401 0 0-1.19551-1.59401"/>
<use data-text="y" xlink:href="#font_1_10" transform="matrix(9.96264,0,0,-9.96264,36.819,10.598999)"/>
<path transform="matrix(1,0,0,-1,39.44,157.788)" stroke-width=".79701" stroke-linecap="butt" stroke-miterlimit="10" stroke-linejoin="miter" fill="none" stroke="#0000ff" d="M0 28.3468C0 28.3468 9.46912 107.09468 28.3468 113.38724 47.22449 119.6798 59.87018 81.86386 85.04042 56.69362 110.21068 31.52336 116.5638 17.30452 141.73404 0 166.9043-17.30452 179.54999-21.2601 198.42766-21.2601 217.30535-21.2601 226.77448 0 226.77448 0"/>
<path transform="matrix(1,0,0,-1,39.44,157.788)" stroke-width=".79701" stroke-linecap="butt" stroke-miterlimit="10" stroke-linejoin="miter" fill="none" stroke="#0000ff" d="M226.77448 0 283.4681 113.38724"/>
<path transform="matrix(1,0,0,-1,39.44,157.788)" d="M1.99255 28.3468C1.99255 29.44728 1.10046 30.33936 0 30.33936-1.10046 30.33936-1.99255 29.44728-1.99255 28.3468-1.99255 27.24634-1.10046 26.35425 0 26.35425 1.10046 26.35425 1.99255 27.24634 1.99255 28.3468ZM0 28.3468"/>
<path transform="matrix(1,0,0,-1,39.44,157.788)" d="M30.33936 113.38724C30.33936 114.4877 29.44728 115.37979 28.3468 115.37979 27.24634 115.37979 26.35425 114.4877 26.35425 113.38724 26.35425 112.28676 27.24634 111.39468 28.3468 111.39468 29.44728 111.39468 30.33936 112.28676 30.33936 113.38724ZM28.3468 113.38724"/>
<path transform="matrix(1,0,0,-1,39.44,157.788)" d="M87.03297 56.69362C87.03297 57.79408 86.1409 58.68617 85.04042 58.68617 83.93996 58.68617 83.04787 57.79408 83.04787 56.69362 83.04787 55.59314 83.93996 54.70107 85.04042 54.70107 86.1409 54.70107 87.03297 55.59314 87.03297 56.69362ZM85.04042 56.69362"/>
<path transform="matrix(1,0,0,-1,39.44,157.788)" d="M143.7266 0C143.7266 1.10046 142.83452 1.99255 141.73404 1.99255 140.63358 1.99255 139.74149 1.10046 139.74149 0 139.74149-1.10046 140.63358-1.99255 141.73404-1.99255 142.83452-1.99255 143.7266-1.10046 143.7266 0ZM141.73404 0"/>
<path transform="matrix(1,0,0,-1,39.44,157.788)" d="M228.76703 0C228.76703 1.10046 227.87494 1.99255 226.77448 1.99255 225.674 1.99255 224.78192 1.10046 224.78192 0 224.78192-1.10046 225.674-1.99255 226.77448-1.99255 227.87494-1.99255 228.76703-1.10046 228.76703 0ZM226.77448 0"/>
<path transform="matrix(1,0,0,-1,39.44,157.788)" d="M285.46067 113.38724C285.46067 114.4877 284.56858 115.37979 283.4681 115.37979 282.3676 115.37979 281.47554 114.4877 281.47554 113.38724 281.47554 112.28676 282.3676 111.39468 283.4681 111.39468 284.56858 111.39468 285.46067 112.28676 285.46067 113.38724ZM283.4681 113.38724"/>
<path transform="matrix(1,0,0,-1,39.44,157.788)" d="M200.42021-21.2601C200.42021-20.15962 199.52814-19.26755 198.42766-19.26755 197.3272-19.26755 196.4351-20.15962 196.4351-21.2601 196.4351-22.36057 197.3272-23.25266 198.42766-23.25266 199.52814-23.25266 200.42021-22.36057 200.42021-21.2601ZM198.42766-21.2601"/>
<use data-text="B" xlink:href="#font_1_3" transform="matrix(9.96264,0,0,-9.96264,52.689,38.392)"/>
<use data-text="(" xlink:href="#font_2_1" transform="matrix(9.96264,0,0,-9.96264,60.745,38.392)"/>
<use data-text="1" xlink:href="#font_2_4" transform="matrix(9.96264,0,0,-9.96264,64.62047,38.392)"/>
<use data-text="," xlink:href="#font_1_1" transform="matrix(9.96264,0,0,-9.96264,69.601,38.392)"/>
<use data-text="4" xlink:href="#font_2_7" transform="matrix(9.96264,0,0,-9.96264,74.029,38.392)"/>
<use data-text=")" xlink:href="#font_2_2" transform="matrix(9.96264,0,0,-9.96264,79.01032,38.392)"/>
<use data-text="A" xlink:href="#font_1_2" transform="matrix(9.96264,0,0,-9.96264,6.308998,131.932)"/>
<use data-text="(" xlink:href="#font_2_1" transform="matrix(9.96264,0,0,-9.96264,13.780998,131.932)"/>
<use data-text="0" xlink:href="#font_2_3" transform="matrix(9.96264,0,0,-9.96264,17.656466,131.932)"/>
<use data-text="," xlink:href="#font_1_1" transform="matrix(9.96264,0,0,-9.96264,22.636998,131.932)"/>
<use data-text="1" xlink:href="#font_2_4" transform="matrix(9.96264,0,0,-9.96264,27.064999,131.932)"/>
<use data-text=")" xlink:href="#font_2_2" transform="matrix(9.96264,0,0,-9.96264,32.046319,131.932)"/>
<use data-text="C" xlink:href="#font_1_4" transform="matrix(9.96264,0,0,-9.96264,127.99899,95.085)"/>
<use data-text="(" xlink:href="#font_2_1" transform="matrix(9.96264,0,0,-9.96264,135.83298,95.085)"/>
<use data-text="3" xlink:href="#font_2_6" transform="matrix(9.96264,0,0,-9.96264,139.70847,95.085)"/>
<use data-text="," xlink:href="#font_1_1" transform="matrix(9.96264,0,0,-9.96264,144.68799,95.085)"/>
<use data-text="2" xlink:href="#font_2_5" transform="matrix(9.96264,0,0,-9.96264,149.116,95.085)"/>
<use data-text=")" xlink:href="#font_2_2" transform="matrix(9.96264,0,0,-9.96264,154.09732,95.085)"/>
<use data-text="D" xlink:href="#font_1_5" transform="matrix(9.96264,0,0,-9.96264,165.84,168.78)"/>
<use data-text="(" xlink:href="#font_2_1" transform="matrix(9.96264,0,0,-9.96264,174.365,168.78)"/>
<use data-text="5" xlink:href="#font_2_8" transform="matrix(9.96264,0,0,-9.96264,178.24048,168.78)"/>
<use data-text="," xlink:href="#font_1_1" transform="matrix(9.96264,0,0,-9.96264,183.221,168.78)"/>
<use data-text="0" xlink:href="#font_2_3" transform="matrix(9.96264,0,0,-9.96264,187.649,168.78)"/>
<use data-text=")" xlink:href="#font_2_2" transform="matrix(9.96264,0,0,-9.96264,192.63033,168.78)"/>
<use data-text="F" xlink:href="#font_1_7" transform="matrix(9.96264,0,0,-9.96264,269.732,168.78)"/>
<use data-text="(" xlink:href="#font_2_1" transform="matrix(9.96264,0,0,-9.96264,277.522,168.78)"/>
<use data-text="8" xlink:href="#font_2_10" transform="matrix(9.96264,0,0,-9.96264,281.39747,168.78)"/>
<use data-text="," xlink:href="#font_1_1" transform="matrix(9.96264,0,0,-9.96264,286.378,168.78)"/>
<use data-text="0" xlink:href="#font_2_3" transform="matrix(9.96264,0,0,-9.96264,290.805,168.78)"/>
<use data-text=")" xlink:href="#font_2_2" transform="matrix(9.96264,0,0,-9.96264,295.78633,168.78)"/>
<use data-text="G" xlink:href="#font_1_8" transform="matrix(9.96264,0,0,-9.96264,326.425,46.893007)"/>
<use data-text="(" xlink:href="#font_2_1" transform="matrix(9.96264,0,0,-9.96264,334.258,46.893007)"/>
<use data-text="1" xlink:href="#font_2_4" transform="matrix(9.96264,0,0,-9.96264,338.13346,46.893007)"/>
<use data-text="0" xlink:href="#font_2_3" transform="matrix(9.96264,0,0,-9.96264,343.11479,46.893007)"/>
<use data-text="," xlink:href="#font_1_1" transform="matrix(9.96264,0,0,-9.96264,348.095,46.893007)"/>
<use data-text="4" xlink:href="#font_2_7" transform="matrix(9.96264,0,0,-9.96264,352.522,46.893007)"/>
<use data-text=")" xlink:href="#font_2_2" transform="matrix(9.96264,0,0,-9.96264,357.50334,46.893007)"/>
<use data-text="E" xlink:href="#font_1_6" transform="matrix(9.96264,0,0,-9.96264,241.38501,191.036)"/>
<use data-text="&#xfffd;" xlink:href="#font_3_1" transform="matrix(9.96264,0,0,-9.96264,250.97402,182.966)"/>
<use data-text="7" xlink:href="#font_2_9" transform="matrix(9.96264,0,0,-9.96264,255.54001,191.036)"/>
<use data-text="," xlink:href="#font_1_1" transform="matrix(9.96264,0,0,-9.96264,260.52204,191.036)"/>
<use data-text="&#x2212;" xlink:href="#font_4_1" transform="matrix(9.96264,0,0,-9.96264,264.95,191.036)"/>
<use data-text="3" xlink:href="#font_5_1" transform="matrix(6.97385,0,0,-6.97385,273.89405,187.114)"/>
<path transform="matrix(1,0,0,-1,273.89405,188.545)" stroke-width=".398" stroke-linecap="butt" stroke-miterlimit="10" stroke-linejoin="miter" fill="none" stroke="#000000" d="M0 0H3.971"/>
<use data-text="4" xlink:href="#font_5_2" transform="matrix(6.97385,0,0,-6.97385,273.89405,194.472)"/>
<use data-text="&#xfffd;" xlink:href="#font_3_2" transform="matrix(9.96264,0,0,-9.96264,279.06105,182.966)"/>
</svg>
