<svg xmlns="http://www.w3.org/2000/svg" xmlns:xlink="http://www.w3.org/1999/xlink" xmlns:inkscape="http://www.inkscape.org/namespaces/inkscape" version="1.1" width="149.704" height="89.174" viewBox="0 0 149.704 89.174">
<defs>
<clipPath id="clip_1">
<path transform="matrix(1,0,0,-1,3.337,78.33301)" d="M0 0H143.18128V75.14565H0Z"/>
</clipPath>
<path id="font_2_1" d="M.6589966 .23046875C.6759949 .23046875 .69400027 .23046875 .69400027 .25045777 .69400027 .27046205 .6759949 .27046205 .6589966 .27046205H.117996219C.100997928 .27046205 .08299255 .27046205 .08299255 .25045777 .08299255 .23046875 .100997928 .23046875 .117996219 .23046875H.6589966Z"/>
<path id="font_3_2" d="M.1269989 .07699585 .23298645 .18003845C.3889923 .31811524 .44898988 .3721466 .44898988 .47216798 .44898988 .5860901 .35899354 .6660156 .23699951 .6660156 .12399292 .6660156 .049987794 .57411196 .049987794 .48516847 .049987794 .4291687 .099990848 .4291687 .102996829 .4291687 .11999512 .4291687 .15499878 .44117738 .15499878 .48217774 .15499878 .5081787 .13699341 .5341797 .101989749 .5341797 .09399414 .5341797 .09199524 .5341797 .08898926 .5331726 .11199951 .59806826 .1659851 .63500979 .22399903 .63500979 .31498719 .63500979 .35798646 .5541382 .35798646 .47216798 .35798646 .39215089 .30799867 .31311036 .25299073 .25108338L.06098938 .036987306C.049987794 .025985718 .049987794 .023986817 .049987794 0H.42099L.44898988 .17404175H.42399598C.4189911 .14402771 .4119873 .1000061 .4019928 .084991458 .394989 .07699585 .32899476 .07699585 .30699159 .07699585H.1269989Z"/>
<path id="font_3_1" d="M.2939911 .64004519C.2939911 .66400149 .2939911 .6660156 .2709961 .6660156 .20899964 .60227969 .12098694 .60227969 .08898926 .60227969V.57128909C.10899353 .57128909 .16799927 .57128909 .21998596 .5972748V.07902527C.21998596 .042999269 .21699524 .0309906 .1269989 .0309906H.09498596V0C.12998963 .0029907227 .21699524 .0029907227 .25698854 .0029907227 .29699708 .0029907227 .38398744 .0029907227 .4189911 0V.0309906H.3869934C.29699708 .0309906 .2939911 .041992189 .2939911 .07902527V.64004519Z"/>
<path id="font_3_3" d="M.2939911 .16503906V.07800293C.2939911 .041992189 .2919922 .0309906 .21798706 .0309906H.19699097V0C.23799134 .0029907227 .2899933 .0029907227 .33198548 .0029907227 .37399293 .0029907227 .4269867 .0029907227 .46798707 0V.0309906H.44699098C.37298585 .0309906 .37098695 .041992189 .37098695 .07800293V.16503906H.47099305V.19602967H.37098695V.65075686C.37098695 .67074587 .37098695 .6767578 .35499574 .6767578 .34599305 .6767578 .34298707 .6767578 .33499146 .66474917L.027999878 .19602967V.16503906H.2939911M.2999878 .19602967H.055999757L.2999878 .5688019V.19602967Z"/>
<clipPath id="clip_4">
<path transform="matrix(1,0,0,-1,3.337,78.33301)" d="M0 0H143.18128V75.14565H0Z"/>
</clipPath>
<path id="font_5_1" d="M.33399964 .30233766C.33999635 .32835389 .36299134 .42037965 .43299867 .42037965 .43798829 .42037965 .46199037 .42037965 .48298646 .40734864 .45498658 .402359 .43499757 .37734986 .43499757 .35334779 .43499757 .33735658 .44599916 .31835938 .47299195 .31835938 .49499513 .31835938 .5269928 .3363495 .5269928 .37635804 .5269928 .42837525 .46798707 .4423828 .43399049 .4423828 .37599183 .4423828 .34098817 .38935853 .32899476 .36634828 .3039856 .43237306 .25 .4423828 .22099304 .4423828 .116989139 .4423828 .05999756 .3133545 .05999756 .28834535 .05999756 .27833558 .069992069 .27833558 .07199097 .27833558 .07998657 .27833558 .08299255 .28033448 .084991458 .28933717 .11898804 .39535523 .18499756 .42037965 .21899414 .42037965 .23799134 .42037965 .272995 .4113617 .272995 .35334779 .272995 .32235719 .2559967 .25532533 .21899414 .11528015 .20298767 .053268434 .16799927 .011245728 .12399292 .011245728 .117996219 .011245728 .09498596 .011245728 .07398987 .024276734 .09899902 .029266358 .12098694 .05027771 .12098694 .07827759 .12098694 .105270389 .09899902 .11328125 .083999637 .11328125 .053985597 .11328125 .0289917 .08728027 .0289917 .055267335 .0289917 .009246826 .07899475-.0107421879 .12298584-.0107421879 .18899536-.0107421879 .22499085 .059280397 .22799683 .0652771 .23999024 .028274537 .27598573-.0107421879 .33599855-.0107421879 .43899537-.0107421879 .49598695 .118270877 .49598695 .14328003 .49598695 .1532898 .4869995 .1532898 .48399354 .1532898 .47499085 .1532898 .47299195 .14929199 .47099305 .14228821 .43798829 .03527832 .36999513 .011245728 .33799745 .011245728 .29899598 .011245728 .2829895 .043273927 .2829895 .07727051 .2829895 .09927368 .2889862 .121276859 .2999878 .16529846L.33399964 .30233766Z"/>
<path id="font_5_2" d="M.48599244 .38136292C.48999024 .39537049 .48999024 .39736939 .48999024 .40437318 .48999024 .42237855 .47599793 .43138124 .46099855 .43138124 .45098878 .43138124 .43499757 .42536927 .42599488 .41036988 .42399598 .405365 .41600038 .37435914 .4119873 .35635377 .40499879 .33035279 .397995 .30334474 .3919983 .27633668L.34700013 .09628296C.34298707 .08126831 .2999878 .011245728 .23399353 .011245728 .18299866 .011245728 .17199707 .055267335 .17199707 .0922699 .17199707 .1382904 .18899536 .20030213 .22299195 .28833009 .23899842 .3293457 .24299622 .3403473 .24299622 .36035157 .24299622 .405365 .21099854 .4423828 .16099549 .4423828 .06599426 .4423828 .0289917 .29733277 .0289917 .28833009 .0289917 .27833558 .038986207 .27833558 .040985109 .27833558 .050994874 .27833558 .051986696 .28033448 .056991579 .29634095 .083999637 .3903656 .12399292 .42037965 .1579895 .42037965 .1659851 .42037965 .18299866 .42037965 .18299866 .3883667 .18299866 .36335755 .17298889 .3373413 .1659851 .31834413 .12599182 .21231079 .10798645 .1552887 .10798645 .10827637 .10798645 .019256592 .17098999-.0107421879 .22999573-.0107421879 .2689972-.0107421879 .30299378 .0062561037 .33099366 .03425598 .31799317-.017745972 .30599977-.06674194 .2659912-.11973572 .23999024-.15385437 .20199585-.18309021 .1559906-.18309021 .14199829-.18309021 .09700012-.18005371 .07998657-.14074707 .09599304-.14074707 .10899353-.14074707 .12298584-.1287384 .1329956-.11973572 .14299011-.10673523 .14299011-.08773804 .14299011-.056747438 .115997318-.052734376 .10598755-.052734376 .08299255-.052734376 .049987794-.068740848 .049987794-.11773682 .049987794-.16796875 .09399414-.20507813 .1559906-.20507813 .25898744-.20507813 .3619995-.11373901 .3899994-.00074768069L.48599244 .38136292Z"/>
</defs>
<path transform="matrix(1,0,0,-1,3.337,78.33301)" stroke-width=".3985" stroke-linecap="butt" stroke-miterlimit="10" stroke-linejoin="miter" fill="none" stroke="#e5e6e5" d="M9.3379 0V75.14565M40.46426 0V75.14565M102.717 0V75.14565M133.84337 0V75.14565"/>
<path transform="matrix(1,0,0,-1,3.337,78.33301)" stroke-width=".3985" stroke-linecap="butt" stroke-miterlimit="10" stroke-linejoin="miter" fill="none" stroke="#e5e6e5" d="M0 37.57281H143.18128M0 67.63109H143.18128"/>
<path transform="matrix(1,0,0,-1,3.337,78.33301)" stroke-width=".19925" stroke-linecap="butt" stroke-miterlimit="10" stroke-linejoin="miter" fill="none" stroke="#7f807f" d="M9.3379 6.23892V8.79019M40.46426 6.23892V8.79019M102.717 6.23892V8.79019M133.84337 6.23892V8.79019"/>
<path transform="matrix(1,0,0,-1,3.337,78.33301)" stroke-width=".19925" stroke-linecap="butt" stroke-miterlimit="10" stroke-linejoin="miter" fill="none" stroke="#7f807f" d="M70.31499 37.57281H72.86629M70.31499 67.63109H72.86629"/>
<path transform="matrix(1,0,0,-1,3.337,78.33301)" stroke-width=".3985" stroke-linecap="butt" stroke-miterlimit="10" stroke-linejoin="miter" fill="none" stroke="#000000" d="M0 7.51456H141.18875"/>
<path transform="matrix(1,0,0,-1,144.52576,70.81845)" d="M1.99252 0-1.19551 1.59401 0 0-1.19551-1.59401"/>
<path transform="matrix(1,0,0,-1,3.337,78.33301)" stroke-width=".3985" stroke-linecap="butt" stroke-miterlimit="10" stroke-linejoin="miter" fill="none" stroke="#000000" d="M71.59062 0V73.15312"/>
<path transform="matrix(0,-1,-1,-0,74.92762,5.179886)" d="M1.99252 0-1.19551 1.59401 0 0-1.19551-1.59401"/>
<g clip-path="url(#clip_1)">
</g>
<use data-text="&#x2212;" xlink:href="#font_2_1" transform="matrix(9.96264,0,0,-9.96264,6.309,82.034008)"/>
<use data-text="2" xlink:href="#font_3_2" transform="matrix(9.96264,0,0,-9.96264,14.058,82.034008)"/>
<use data-text="&#x2212;" xlink:href="#font_2_1" transform="matrix(9.96264,0,0,-9.96264,37.434999,82.034008)"/>
<use data-text="1" xlink:href="#font_3_1" transform="matrix(9.96264,0,0,-9.96264,45.183996,82.034008)"/>
<use data-text="1" xlink:href="#font_3_1" transform="matrix(9.96264,0,0,-9.96264,103.562,82.034008)"/>
<use data-text="2" xlink:href="#font_3_2" transform="matrix(9.96264,0,0,-9.96264,134.688,82.034008)"/>
<use data-text="2" xlink:href="#font_3_2" transform="matrix(9.96264,0,0,-9.96264,65.15,43.971014)"/>
<use data-text="4" xlink:href="#font_3_3" transform="matrix(9.96264,0,0,-9.96264,65.15,13.91301)"/>
<g clip-path="url(#clip_4)">
<path transform="matrix(1,0,0,-1,3.337,78.33301)" stroke-width=".79701" stroke-linecap="butt" stroke-miterlimit="10" stroke-linejoin="miter" fill="none" stroke="#2471a3" d="M0-11.87305 .71948-10.28299 1.43898-8.70901 2.15848-7.15108 2.87798-5.60922 3.59746-4.0834 4.31696-2.57367 5.03645-1.07999 5.75595 .3976 6.47545 1.85916 7.19493 3.30466 7.91443 4.73409 8.63393 6.14748 9.35344 7.5448 10.07294 8.92604 10.79242 10.29123 11.51192 11.64037 12.23141 12.97343 12.95091 14.29045 13.6704 15.59138 14.3899 16.87627 15.10939 18.14511 15.82889 19.39787 16.54839 20.63458 17.26787 21.85522 17.98737 23.0598 18.70686 24.24832 19.42636 25.42079 20.14586 26.57716 20.86534 27.71751 21.58484 28.8418 22.30434 29.95 23.02385 31.04216 23.74333 32.11826 24.46283 33.17828 25.18233 34.22226 25.90182 35.25015 26.62132 36.26202 27.3408 37.25781 28.0603 38.23753 28.7798 39.2012 29.4993 40.1488 30.2188 41.08034 30.93828 41.99582 31.65778 42.89525 32.37729 43.77861 33.09679 44.6459 33.81627 45.49715 34.53577 46.33232 35.25526 47.15144 35.97476 47.9545 36.69426 48.74149 37.41374 49.5124 38.13324 50.26727 38.85274 51.0061 39.57224 51.72884 40.29173 52.43553 41.01123 53.12616 41.73071 53.80072 42.45021 54.45924 43.16971 55.10167 43.8892 55.72806 44.60869 56.3384 45.32819 56.93265 46.0477 57.51083 46.7672 58.07298 47.48668 58.61906 48.20618 59.14906 48.92567 59.66302 49.64517 60.16092 50.36467 60.64275 51.08415 61.10852 51.80365 61.55823 52.52315 61.99188 53.24265 62.40947 53.96214 62.81099 54.68163 63.19646 55.40114 63.56587 56.12064 63.91922 56.84013 64.2565 57.55962 64.57773 58.27911 64.88287 58.99861 65.17198 59.71811 65.44502 60.4376 65.702 61.15709 65.9429 61.87659 66.16776 62.59608 66.37656 63.31558 66.56929 64.0351 66.74597 64.75458 66.90657 65.47408 67.05113 66.19357 67.17961 66.91307 67.29205 67.63255 67.38841 68.35204 67.46872 69.07155 67.53296 69.79105 67.58115 70.51054 67.61327 71.23003 67.62932H71.94952L72.66902 67.61327 73.38852 67.58115 74.10802 67.53296 74.8275 67.46872 75.547 67.38841 76.2665 67.29205 76.986 67.17961 77.70549 67.05113 78.42499 66.90657 79.14449 66.74597 79.86398 66.56929 80.58348 66.37656 81.30296 66.16776 82.02246 65.9429 82.74196 65.702 83.46146 65.44502 84.18095 65.17198 84.90044 64.88287 85.61993 64.57773 86.33943 64.2565 87.05894 63.91922 87.77844 63.56587 88.49792 63.19646 89.21742 62.81099 89.93692 62.40947 90.65642 61.99188 91.3759 61.55823 92.0954 61.10852 92.8149 60.64275 93.5344 60.16092 94.25389 59.66302 94.97337 59.14906 95.69289 58.61906 96.41238 58.07298 97.13187 57.51083 97.85136 56.93265 98.57085 56.3384 99.29034 55.72806 100.00984 55.10167 100.72935 54.45924 101.44884 53.80072 102.16833 53.12616 102.88783 52.43553 103.60733 51.72884 104.32683 51.0061 105.04631 50.26727 105.76581 49.5124 106.4853 48.74149 107.2048 47.9545 107.9243 47.15144 108.64378 46.33232 109.36328 45.49715 110.0828 44.6459 110.80229 43.77861 111.52177 42.89525 112.24127 41.99582 112.96077 41.08034 113.68027 40.1488 114.39977 39.2012 115.11925 38.23753 115.83875 37.25781 116.55824 36.26202 117.27774 35.25015 117.99724 34.22226 118.71674 33.17828 119.43623 32.11826 120.15573 31.04216 120.87523 29.95 121.59473 28.8418 122.31421 27.71751 123.0337 26.57716 123.7532 25.42079 124.4727 24.24832 125.19218 23.0598 125.91168 21.85522 126.63118 20.63458 127.35068 19.39787 128.07018 18.14511 128.78966 16.87627 129.50916 15.59138 130.22866 14.29045 130.94815 12.97343 131.66765 11.64037 132.38713 10.29123 133.10665 8.92604 133.82614 7.5448 134.54564 6.14748 135.26512 4.73409 135.98462 3.30466 136.70412 1.85916 137.42362 .3976 138.14311-1.07999 138.8626-2.57367 139.58209-4.0834 140.30159-5.60922 141.02109-7.15108 141.7406-8.70901 142.46009-10.28299 143.17958-11.87305"/>
<path transform="matrix(1,0,0,-1,3.337,78.33301)" stroke-width=".79701" stroke-linecap="butt" stroke-miterlimit="10" stroke-linejoin="miter" fill="none" stroke="#b30000" d="M0 7.51457H.71948 1.43898 2.15848 2.87798 3.59746 4.31696 5.03645 5.75595 6.47545 7.19493 7.91443 8.63393 9.35344 10.07294 10.79242 11.51192 12.23141 12.95091 13.6704 14.3899 15.10939 15.82889 16.54839 17.26787 17.98737 18.70686 19.42636 20.14586 20.86534 21.58484 22.30434 23.02385 23.74333 24.46283 25.18233 25.90182 26.62132 27.3408 28.0603 28.7798 29.4993 30.2188 30.93828 31.65778 32.37729 33.09679 33.81627 34.53577 35.25526 35.97476 36.69426 37.41374 38.13324 38.85274 39.57224 40.29173 41.01123 41.73071 42.45021 43.16971 43.8892 44.60869 45.32819 46.0477 46.7672 47.48668 48.20618 48.92567 49.64517 50.36467 51.08415 51.80365 52.52315 53.24265 53.96214 54.68163 55.40114 56.12064 56.84013 57.55962 58.27911 58.99861 59.71811 60.4376 61.15709 61.87659 62.59608 63.31558 64.0351 64.75458 65.47408 66.19357 66.91307 67.63255 68.35204 69.07155 69.79105 70.51054 71.23003 71.94952 72.66902 73.38852 74.10802 74.8275 75.547 76.2665 76.986 77.70549 78.42499 79.14449 79.86398 80.58348 81.30296 82.02246 82.74196 83.46146 84.18095 84.90044 85.61993 86.33943 87.05894 87.77844 88.49792 89.21742 89.93692 90.65642 91.3759 92.0954 92.8149 93.5344 94.25389 94.97337 95.69289 96.41238 97.13187 97.85136 98.57085 99.29034 100.00984 100.72935 101.44884 102.16833 102.88783 103.60733 104.32683 105.04631 105.76581 106.4853 107.2048 107.9243 108.64378 109.36328 110.0828 110.80229 111.52177 112.24127 112.96077 113.68027 114.39977 115.11925 115.83875 116.55824 117.27774 117.99724 118.71674 119.43623 120.15573 120.87523 121.59473 122.31421 123.0337 123.7532 124.4727 125.19218 125.91168 126.63118 127.35068 128.07018 128.78966 129.50916 130.22866 130.94815 131.66765 132.38713 133.10665 133.82614 134.54564 135.26512 135.98462 136.70412 137.42362 138.14311 138.8626 139.58209 140.30159 141.02109 141.7406 142.46009 143.17958"/>
</g>
<use data-text="x" xlink:href="#font_5_1" transform="matrix(9.96264,0,0,-9.96264,137.10301,67.100009)"/>
<use data-text="y" xlink:href="#font_5_2" transform="matrix(9.96264,0,0,-9.96264,78.645,11.197006)"/>
</svg>
