<svg xmlns="http://www.w3.org/2000/svg" xmlns:xlink="http://www.w3.org/1999/xlink" xmlns:inkscape="http://www.inkscape.org/namespaces/inkscape" version="1.1" width="108.544" height="100.055" viewBox="0 0 108.544 100.055">
<defs>
<path id="font_1_4" d="M.41299439 .6036377C.42199708 .637619 .42399598 .64660647 .49899293 .64660647 .5239868 .64660647 .5359955 .64660647 .5359955 .66760256 .5359955 .6766052 .5289917 .6826172 .519989 .6826172 .49899293 .6826172 .47399903 .6796112 .45298768 .6796112 .43099977 .6796112 .40699769 .6786041 .3849945 .6786041L.31599427 .6796112C.2939911 .6796112 .2689972 .6826172 .24699402 .6826172 .24099732 .6826172 .22599793 .6826172 .22599793 .660614 .22599793 .64660647 .23699951 .64660647 .25898744 .64660647 .2599945 .64660647 .27999879 .64660647 .29699708 .64460757 .31698609 .64260867 .32398988 .6416168 .32398988 .63061526 .32398988 .62461856 .32199098 .61763 .31999208 .6096344L.18699646 .07896423C.1789856 .04598999 .17599488 .035995485 .100997928 .035995485 .07398987 .035995485 .06399536 .035995485 .06399536 .01399231 .06399536 .0129852299 .06399536 0 .07998657 0 .10998535 0 .18499756 .0039978029 .21499634 .0039978029L.28399659 .0029907227C.30599977 .0029907227 .33099366 0 .35299684 0 .35899354 0 .37399293 0 .37399293 .021987915 .37399293 .035995485 .3619995 .035995485 .34199525 .035995485 .33999635 .035995485 .31900025 .035995485 .29899598 .037994386 .27598573 .039993287 .27598573 .04399109 .27598573 .052978517 .27598573 .053985597 .27598573 .0599823 .27999879 .07496643L.41299439 .6036377Z"/>
<path id="font_1_1" d="M.20599365 .11984253C.17098999 .06594849 .13899231 .039978029 .07998657 .035995485 .069992069 .034988405 .056991579 .034988405 .056991579 .01499939 .056991579 .0039978029 .06599426 0 .070999149 0 .09700012 0 .12998963 .0039978029 .15699768 .0039978029 .18899536 .0039978029 .22999573 0 .2599945 0 .2649994 0 .27999879 0 .27999879 .021987915 .27999879 .034988405 .2669983 .035995485 .2630005 .035995485 .25498963 .036987306 .21899414 .038986207 .21899414 .06594849 .21899414 .077926639 .22898865 .09489441 .23399353 .103881839L.31399537 .22766114H.59999087L.6239929 .061950685C.6199951 .051971437 .6139984 .035995485 .5549927 .035995485 .54299929 .035995485 .5289917 .035995485 .5289917 .01399231 .5289917 .009994507 .5319977 0 .54499819 0 .57398989 0 .644989 .0039978029 .673996 .0039978029 .69200137 .0039978029 .71499636 .0029907227 .73298647 .0029907227 .7509918 .0019989014 .7719879 0 .7899933 0 .8029938 0 .80999758 .0079956059 .80999758 .020996094 .80999758 .035995485 .7979889 .035995485 .7819977 .035995485 .723999 .035995485 .7220001 .04397583 .71899417 .06793213L.6309967 .6848755C.6279907 .70588687 .6259918 .7128906 .6069946 .7128906 .58799746 .7128906 .58200076 .70388796 .57299807 .6898804L.20599365 .11984253M.33799745 .26367188 .5479889 .5908356 .59498599 .26367188H.33799745Z"/>
<path id="font_1_2" d="M.18998719 .07797241C.18099976 .04399109 .1789856 .035995485 .101989749 .035995485 .084991458 .035995485 .07199097 .035995485 .07199097 .01499939 .07199097 0 .083999637 0 .101989749 0H.4889984C.6569977 0 .7859955 .11494446 .7859955 .21388245 .7859955 .28485108 .72099307 .34580995 .61499026 .35681153 .73599246 .37879945 .83699038 .4547577 .83699038 .54067996 .83699038 .6166382 .7599945 .6826172 .6299896 .6826172H.2659912C.24699402 .6826172 .23399353 .6826172 .23399353 .660614 .23399353 .64660647 .24598694 .64660647 .2659912 .64660647 .2669983 .64660647 .28599549 .64660647 .3039856 .64460757 .32499696 .64260867 .32699586 .64060977 .32699586 .63061526 .32699586 .62861636 .32699586 .6236267 .32299806 .6086426L.18998719 .07797241M.34999085 .3688202 .41099549 .6126404C.4189911 .6436157 .41999818 .64660647 .46199037 .64660647H.6139984C.71598818 .64660647 .7389984 .57966616 .7389984 .541687 .7389984 .46073915 .647995 .3688202 .5139923 .3688202H.34999085M.3019867 .035995485C.2709961 .035995485 .269989 .036987306 .269989 .04598999 .269989 .04698181 .269989 .051986696 .27398683 .066970828L.34298707 .3408203H.5549927C.6489868 .3408203 .68499758 .27885438 .68499758 .22088623 .68499758 .12194824 .58399966 .035995485 .46299745 .035995485H.3019867Z"/>
<path id="font_1_3" d="M.84298709 .6901245C.84298709 .69511416 .83999636 .703125 .8299866 .703125 .82299807 .703125 .82099917 .70111086 .81199648 .69111636L.7389984 .61413577C.7299957 .62612918 .673996 .703125 .5509949 .703125 .30799867 .703125 .069992069 .48820497 .069992069 .2623291 .069992069 .09941101 .19799805-.01953125 .3769989-.01953125 .43099977-.01953125 .5269928-.008544922 .6299896 .078430179 .70899966 .14538574 .73098757 .23234558 .73098757 .24034119 .73098757 .25334168 .71899417 .25334168 .71398928 .25334168 .70098879 .25334168 .69898989 .24833679 .69599917 .23735047 .6549988 .10041809 .5149994 .016464234 .3939972 .016464234 .28799439 .016464234 .16999817 .07342529 .16999817 .23135376 .16999817 .2603302 .1769867 .4182434 .2919922 .5441742 .36099244 .6211395 .46598817 .66711428 .5609894 .66711428 .6769867 .66711428 .7449951 .5831604 .7449951 .47122193 .7449951 .4432373 .74198916 .43623353 .74198916 .43023683 .74198916 .4172516 .7549896 .4172516 .7599945 .4172516 .776001 .4172516 .776001 .4202423 .7809906 .4392395L.84298709 .6901245Z"/>
</defs>
<path transform="matrix(1,0,0,-1,49.836,85.46)" stroke-width=".3985" stroke-linecap="butt" stroke-miterlimit="10" stroke-linejoin="miter" fill="none" stroke="#b2b3b2" d="M17.00824 17.00824C17.00824 26.40175 9.39351 34.01648 0 34.01648-9.39351 34.01648-17.00824 26.40175-17.00824 17.00824-17.00824 7.61473-9.39351 0 0 0 9.39351 0 17.00824 7.61473 17.00824 17.00824ZM0 17.00824"/>
<path transform="matrix(1,0,0,-1,49.836,85.46)" stroke-width=".79701" stroke-linecap="butt" stroke-miterlimit="10" stroke-linejoin="miter" fill="none" stroke="#2471a3" d="M-34.01608 0H42.5202L0 70.867Z"/>
<path transform="matrix(1,0,0,-1,49.836,85.46)" d="M1.49442 17.00824C1.49442 17.83359 .82533 18.50266 0 18.50266-.82533 18.50266-1.49442 17.83359-1.49442 17.00824-1.49442 16.18289-.82533 15.51382 0 15.51382 .82533 15.51382 1.49442 16.18289 1.49442 17.00824ZM0 17.00824"/>
<use data-text="I" xlink:href="#font_1_4" transform="matrix(6.97385,0,0,-6.97385,53.356,70.835)"/>
<use data-text="A" xlink:href="#font_1_1" transform="matrix(6.97385,0,0,-6.97385,6.308998,93.746)"/>
<use data-text="B" xlink:href="#font_1_2" transform="matrix(6.97385,0,0,-6.97385,95.876,93.746)"/>
<use data-text="C" xlink:href="#font_1_3" transform="matrix(6.97385,0,0,-6.97385,46.734998,11.074997)"/>
</svg>
