<svg xmlns="http://www.w3.org/2000/svg" xmlns:xlink="http://www.w3.org/1999/xlink" xmlns:inkscape="http://www.inkscape.org/namespaces/inkscape" version="1.1" width="227.056" height="250.72" viewBox="0 0 227.056 250.72">
<defs>
<path id="font_1_5" d="M.33399964 .30233766C.33999635 .32835389 .36299134 .42037965 .43299867 .42037965 .43798829 .42037965 .46199037 .42037965 .48298646 .40734864 .45498658 .402359 .43499757 .37734986 .43499757 .35334779 .43499757 .33735658 .44599916 .31835938 .47299195 .31835938 .49499513 .31835938 .5269928 .3363495 .5269928 .37635804 .5269928 .42837525 .46798707 .4423828 .43399049 .4423828 .37599183 .4423828 .34098817 .38935853 .32899476 .36634828 .3039856 .43237306 .25 .4423828 .22099304 .4423828 .116989139 .4423828 .05999756 .3133545 .05999756 .28834535 .05999756 .27833558 .069992069 .27833558 .07199097 .27833558 .07998657 .27833558 .08299255 .28033448 .084991458 .28933717 .11898804 .39535523 .18499756 .42037965 .21899414 .42037965 .23799134 .42037965 .272995 .4113617 .272995 .35334779 .272995 .32235719 .2559967 .25532533 .21899414 .11528015 .20298767 .053268434 .16799927 .011245728 .12399292 .011245728 .117996219 .011245728 .09498596 .011245728 .07398987 .024276734 .09899902 .029266358 .12098694 .05027771 .12098694 .07827759 .12098694 .105270389 .09899902 .11328125 .083999637 .11328125 .053985597 .11328125 .0289917 .08728027 .0289917 .055267335 .0289917 .009246826 .07899475-.0107421879 .12298584-.0107421879 .18899536-.0107421879 .22499085 .059280397 .22799683 .0652771 .23999024 .028274537 .27598573-.0107421879 .33599855-.0107421879 .43899537-.0107421879 .49598695 .118270877 .49598695 .14328003 .49598695 .1532898 .4869995 .1532898 .48399354 .1532898 .47499085 .1532898 .47299195 .14929199 .47099305 .14228821 .43798829 .03527832 .36999513 .011245728 .33799745 .011245728 .29899598 .011245728 .2829895 .043273927 .2829895 .07727051 .2829895 .09927368 .2889862 .121276859 .2999878 .16529846L.33399964 .30233766Z"/>
<path id="font_1_6" d="M.48599244 .38136292C.48999024 .39537049 .48999024 .39736939 .48999024 .40437318 .48999024 .42237855 .47599793 .43138124 .46099855 .43138124 .45098878 .43138124 .43499757 .42536927 .42599488 .41036988 .42399598 .405365 .41600038 .37435914 .4119873 .35635377 .40499879 .33035279 .397995 .30334474 .3919983 .27633668L.34700013 .09628296C.34298707 .08126831 .2999878 .011245728 .23399353 .011245728 .18299866 .011245728 .17199707 .055267335 .17199707 .0922699 .17199707 .1382904 .18899536 .20030213 .22299195 .28833009 .23899842 .3293457 .24299622 .3403473 .24299622 .36035157 .24299622 .405365 .21099854 .4423828 .16099549 .4423828 .06599426 .4423828 .0289917 .29733277 .0289917 .28833009 .0289917 .27833558 .038986207 .27833558 .040985109 .27833558 .050994874 .27833558 .051986696 .28033448 .056991579 .29634095 .083999637 .3903656 .12399292 .42037965 .1579895 .42037965 .1659851 .42037965 .18299866 .42037965 .18299866 .3883667 .18299866 .36335755 .17298889 .3373413 .1659851 .31834413 .12599182 .21231079 .10798645 .1552887 .10798645 .10827637 .10798645 .019256592 .17098999-.0107421879 .22999573-.0107421879 .2689972-.0107421879 .30299378 .0062561037 .33099366 .03425598 .31799317-.017745972 .30599977-.06674194 .2659912-.11973572 .23999024-.15385437 .20199585-.18309021 .1559906-.18309021 .14199829-.18309021 .09700012-.18005371 .07998657-.14074707 .09599304-.14074707 .10899353-.14074707 .12298584-.1287384 .1329956-.11973572 .14299011-.10673523 .14299011-.08773804 .14299011-.056747438 .115997318-.052734376 .10598755-.052734376 .08299255-.052734376 .049987794-.068740848 .049987794-.11773682 .049987794-.16796875 .09399414-.20507813 .1559906-.20507813 .25898744-.20507813 .3619995-.11373901 .3899994-.00074768069L.48599244 .38136292Z"/>
<path id="font_1_3" d="M.30299378 .3157959H.47299195C.61499026 .3157959 .7539978 .41973878 .7539978 .53167727 .7539978 .6086273 .6879883 .6826172 .5569916 .6826172H.23298645C.21398926 .6826172 .20298767 .6826172 .20298767 .66360476 .20298767 .6516113 .21199036 .6516113 .23199463 .6516113 .24499512 .6516113 .2630005 .65060427 .2749939 .6496124 .29100038 .6476135 .29699708 .64460757 .29699708 .6336212 .29699708 .6296234 .29599 .62661746 .29299928 .614624L.15899658 .07795715C.14898682 .038986207 .14698792 .0309906 .067993167 .0309906 .050994874 .0309906 .039993287 .0309906 .039993287 .011993408 .039993287 0 .051986696 0 .054992677 0 .08299255 0 .1539917 .0029907227 .18199158 .0029907227 .20298767 .0029907227 .22499085 .0019989014 .24598694 .0019989014 .2679901 .0019989014 .2899933 0 .31098939 0 .31799317 0 .33099366 0 .33099366 .019989014 .33099366 .0309906 .32199098 .0309906 .30299378 .0309906 .2659912 .0309906 .23799134 .0309906 .23799134 .048980714 .23799134 .054977418 .23999024 .05996704 .24099732 .065963748L.30299378 .3157959M.375 .6136322C.38398744 .64860537 .38598634 .6516113 .42900086 .6516113H.5249939C.60798647 .6516113 .6609955 .62461856 .6609955 .55566409 .6609955 .5166931 .6409912 .43074037 .60198977 .39476014 .5519867 .34977723 .49198915 .34179688 .44799806 .34179688H.30699159L.375 .6136322Z"/>
<path id="font_1_4" d="M.43798829 .0055236818C.59298709 .0644989 .73999026 .24256897 .73999026 .43579103 .73999026 .5969696 .6339874 .7050781 .4850006 .7050781 .2689972 .7050781 .04899597 .47784425 .04899597 .24456787 .04899597 .07847595 .16099549-.022460938 .30499269-.022460938 .32998658-.022460938 .3639984-.018463135 .40299989-.007461548 .39898683-.06939697 .39898683-.071380618 .39898683-.084365848 .39898683-.11634827 .39898683-.19433594 .48199464-.19433594 .6009979-.19433594 .6489868-.011474609 .6489868-.00047302247 .6489868 .0065307619 .6419983 .009521484 .6380005 .009521484 .6299896 .009521484 .6279907 .0045318605 .6259918-.0014648438 .60198977-.072387699 .5439911-.097335819 .5089874-.097335819 .46299745-.097335819 .44799806-.070388797 .43798829 .0055236818M.24899292 .013519287C.17098999 .044509889 .13699341 .12245178 .13699341 .21252442 .13699341 .2816162 .16299439 .4237671 .23899842 .5319061 .31199647 .63401797 .4059906 .68006899 .47898866 .68006899 .57899478 .68006899 .6519928 .6019745 .6519928 .4678192 .6519928 .3677063 .6009979 .13345337 .43299867 .039505006 .42799378 .07447815 .41799928 .14746094 .34498597 .14746094 .2919922 .14746094 .24299622 .097473148 .24299622 .04550171 .24299622 .025512696 .24899292 .014526367 .24899292 .013519287M.31098939 .002532959C.29699708 .002532959 .2649994 .002532959 .2649994 .04550171 .2649994 .08547974 .30299378 .12545777 .34498597 .12545777 .3869934 .12545777 .4059906 .10147095 .4059906 .040512086 .4059906 .025512696 .40499879 .024520874 .394989 .020523072 .36898805 .009521484 .33898927 .002532959 .31098939 .002532959Z"/>
<path id="font_1_2" d="M.30299378 .3244629H.3999939C.47499085 .3244629 .48298646 .30848695 .48298646 .27954103 .48298646 .2725525 .48298646 .26057435 .47599793 .2306366 .47399903 .22564698 .47299195 .22164917 .47299195 .21965027 .47299195 .21166992 .47898866 .20767212 .4850006 .20767212 .49499513 .20767212 .49499513 .21066284 .5 .2286377L.5549927 .44551087C.55799868 .45651246 .55799868 .45851136 .55799868 .46151734 .55799868 .46351625 .55599978 .47251893 .54599 .47251893 .5359955 .47251893 .5349884 .46751405 .5309906 .45150758 .5099945 .37347413 .4869995 .35546876 .4019928 .35546876H.31098939L.375 .6095886C.38398744 .64460757 .3849945 .64860537 .42900086 .64860537H.5609894C.6839905 .64860537 .70700076 .6156006 .70700076 .53855898 .70700076 .5155487 .70700076 .51153567 .70399478 .4845276 .70199587 .4715271 .70199587 .46951295 .70199587 .46652223 .70199587 .46151734 .7049866 .45451356 .71398928 .45451356 .72499087 .45451356 .7259979 .46051026 .7279968 .4795227L.7480011 .65260317C.7509918 .6796112 .74598696 .6796112 .72099307 .6796112H.23098755C.21099854 .6796112 .20098877 .6796112 .20098877 .65960696 .20098877 .64860537 .20999146 .64860537 .22898865 .64860537 .2659912 .64860537 .2939911 .64860537 .2939911 .6306 .2939911 .6266022 .2939911 .6246033 .2889862 .60658267L.15699768 .07791138C.14698792 .038970949 .14498902 .0309906 .06599426 .0309906 .04899597 .0309906 .037994386 .0309906 .037994386 .011993408 .037994386 0 .049987794 0 .052993776 0 .08198547 0 .1559906 .0029907227 .18499756 .0029907227 .21798706 .0029907227 .30099488 0 .33399964 0 .34298707 0 .35499574 0 .35499574 .018997193 .35499574 .026992798 .34899903 .0289917 .34899903 .02999878 .34599305 .0309906 .34399415 .0309906 .32099916 .0309906 .29899598 .0309906 .2939911 .0309906 .2689972 .032989503 .23999024 .035980226 .23699951 .039978029 .23699951 .052947999 .23699951 .0549469 .23699951 .060943605 .24099732 .075912479L.30299378 .3244629Z"/>
<path id="font_1_1" d="M.1599884 .07795715C.1499939 .038986207 .147995 .0309906 .068984989 .0309906 .051986696 .0309906 .041992189 .0309906 .041992189 .010986328 .041992189 0 .050994874 0 .068984989 0H.42599488C.58399966 0 .70199587 .11791992 .70199587 .21585083 .70199587 .28778077 .6439972 .3457489 .5469971 .35673524 .651001 .37573243 .7559967 .44970704 .7559967 .5446625 .7559967 .6186218 .6899872 .6826172 .56999209 .6826172H.23399353C.21499634 .6826172 .20498657 .6826172 .20498657 .6626129 .20498657 .6516113 .21398926 .6516113 .23298645 .6516113 .23498535 .6516113 .2539978 .6516113 .2709961 .6496124 .2889862 .6476135 .2979889 .64660647 .2979889 .6336212 .2979889 .6296234 .29699708 .62661746 .2939911 .614624L.1599884 .07795715M.31098939 .36573792 .37298585 .6136322C.38198854 .64860537 .38398744 .6516113 .4269867 .6516113H.55599978C.6439972 .6516113 .6649933 .5926361 .6649933 .5486603 .6649933 .46069337 .57899478 .36573792 .45700074 .36573792H.31098939M.2659912 .0309906C.2519989 .0309906 .25 .0309906 .24398804 .03199768 .23399353 .032989503 .23098755 .033996583 .23098755 .04197693 .23098755 .04498291 .23098755 .04698181 .23599243 .064971927L.30499269 .34375H.49398805C.58999636 .34375 .60899356 .2698059 .60899356 .22683716 .60899356 .12791443 .519989 .0309906 .4019928 .0309906H.2659912Z"/>
<path id="font_2_119" d="M.59498599 .2688446H.56399539C.55599978 .12992859 .5339966 .035995485 .34498597 .035995485H.16799927L.58099368 .6436157C.58898928 .65560916 .58898928 .65960696 .58898928 .6646118 .58898928 .6826172 .57899478 .6826172 .5609894 .6826172H.085998538L.07398987 .45573426H.10499573C.11299133 .6036377 .18199158 .6496124 .31399537 .6496124H.48098756L.066986087 .040985109C.05899048 .0289917 .05899048 .023986817 .05899048 .018997193 .05899048 0 .067993167 0 .08699036 0H.57699587L.59498599 .2688446Z"/>
<path id="font_2_74" d="M.9229889 0V.032989503H.901001C.82398989 .032989503 .82199099 .04399109 .82199099 .080963138V.6016388C.82199099 .63861086 .82398989 .6496124 .901001 .6496124H.9229889V.6826172H.7539978C.72698977 .6826172 .72499087 .6796112 .71798709 .66160586L.48599244 .094955448 .2539978 .65960696C.24598694 .6796112 .24499512 .6826172 .21699524 .6826172H.04899597V.6496124H.070999149C.147995 .6496124 .1499939 .63861086 .1499939 .6016388V.10694885C.1499939 .080963138 .1499939 .032989503 .04899597 .032989503V0C.09399414 .0029907227 .14099121 .0029907227 .16699219 .0029907227 .19299317 .0029907227 .23999024 .0029907227 .2849884 0V.032989503C.18399048 .032989503 .18399048 .080963138 .18399048 .10694885V.637619L.18499756 .63861086 .43699647 .023986817C.44299317 .010986328 .44699098 0 .46099855 0 .47399903 0 .47898866 .011993408 .48399354 .023986817L.7389984 .64660647 .73999026 .6456146V.080963138C.73999026 .04399109 .73799136 .032989503 .6609955 .032989503H.6389923V0L.7809906 .0029907227 .9229889 0Z"/>
<path id="font_2_83" d="M.6629944 .49568177C.6629944 .5936432 .5569916 .6826172 .41299439 .6826172H.04598999V.6496124H.067993167C.14498902 .6496124 .14698792 .63861086 .14698792 .6016388V.0809021C.14698792 .043914796 .14498902 .032928468 .067993167 .032928468H.04598999V0L.19299317 .0029296876 .33999635 0V.032989503H.31799317C.24099732 .032989503 .23899842 .04399109 .23899842 .080963138V.31178285H.42099C.5439911 .31178285 .6629944 .39079286 .6629944 .49578858V.49568177M.5589905 .49578858C.5589905 .4517212 .5589905 .34179688 .3880005 .34179688H.23599243V.6086273C.23599243 .64260867 .23799134 .6496124 .28399659 .6496124H.3880005C.5589905 .6496124 .5589905 .54067996 .5589905 .49569703V.49578858Z"/>
</defs>
<path transform="matrix(1,0,0,-1,21.046,188.005)" d="M0 11.90567V130.96167C65.7537 130.96167 119.05606 77.6593 119.05606 11.90561V11.9056Z" fill="#ffecd9"/>
<path transform="matrix(1,0,0,-1,21.046,188.005)" stroke-width=".3985" stroke-linecap="butt" stroke-miterlimit="10" stroke-linejoin="miter" fill="none" stroke="#b35900" d="M0 130.96167C65.7537 130.96167 119.05606 77.6593 119.05606 11.90561"/>
<path transform="matrix(1,0,0,-1,21.046,188.005)" stroke-width=".3985" stroke-linecap="butt" stroke-miterlimit="10" stroke-linejoin="miter" fill="none" stroke="#b35900" d="M0 130.96167V11.90567L119.05606 11.9056"/>
<path transform="matrix(1,0,0,-1,21.046,188.005)" stroke-width=".3985" stroke-linecap="butt" stroke-miterlimit="10" stroke-linejoin="miter" fill="none" stroke="#7f807f" d="M-17.8584 11.9056H187.42581"/>
<path transform="matrix(1,0,0,-1,206.75363,176.09941)" d="M4.21463 0 .64343 1.34572 1.8178 0 .64343-1.34572Z" fill="#7f807f"/>
<path transform="matrix(1,0,0,-1,206.75363,176.09941)" stroke-width=".3985" stroke-linecap="butt" stroke-miterlimit="10" stroke-linejoin="miter" fill="none" stroke="#7f807f" d="M4.21463 0 .64343 1.34572 1.8178 0 .64343-1.34572Z"/>
<use data-text="x" xlink:href="#font_1_5" transform="matrix(9.96264,0,0,-9.96264,215.05301,183.908)" fill="#7f807f"/>
<path transform="matrix(1,0,0,-1,21.046,188.005)" stroke-width=".3985" stroke-linecap="butt" stroke-miterlimit="10" stroke-linejoin="miter" fill="none" stroke="#7f807f" d="M0-35.71681V175.5202"/>
<path transform="matrix(0,-1,-1,-0,21.046,14.203003)" d="M4.21463 0 .64343 1.34572 1.8178 0 .64343-1.34572Z" fill="#7f807f"/>
<path transform="matrix(0,-1,-1,-0,21.046,14.203003)" stroke-width=".3985" stroke-linecap="butt" stroke-miterlimit="10" stroke-linejoin="miter" fill="none" stroke="#7f807f" d="M4.21463 0 .64343 1.34572 1.8178 0 .64343-1.34572Z"/>
<use data-text="y" xlink:href="#font_1_6" transform="matrix(9.96264,0,0,-9.96264,12.283999,10.598999)" fill="#7f807f"/>
<path transform="matrix(1,0,0,-1,21.046,188.005)" stroke-width=".3985" stroke-linecap="butt" stroke-miterlimit="10" stroke-linejoin="miter" fill="none" stroke="#000000" d="M190.48972 178.5841 47.62242 35.71681"/>
<path transform="matrix(1,0,0,-1,21.046,188.005)" stroke-width="1.19553" stroke-linecap="butt" stroke-miterlimit="10" stroke-linejoin="miter" fill="none" stroke="#000000" d="M102.38828 90.48267 94.12904 82.22345"/>
<path transform="matrix(-.7071,.7071,.7071,.7071,117.446239,103.51037)" d="M6.66628 0 1.93044 1.79556 3.5108 0 1.93044-1.79556Z"/>
<path transform="matrix(-.7071,.7071,.7071,.7071,117.446239,103.51037)" stroke-width="1.19553" stroke-linecap="butt" stroke-miterlimit="10" stroke-linejoin="miter" fill="none" stroke="#000000" d="M6.66628 0 1.93044 1.79556 3.5108 0 1.93044-1.79556Z"/>
<path transform="matrix(1,0,0,-1,21.046,188.005)" d="M168.35224 154.77289C168.35224 155.69727 167.60289 156.44663 166.6785 156.44663 165.7541 156.44663 165.00476 155.69727 165.00476 154.77289 165.00476 153.8485 165.7541 153.09915 166.6785 153.09915 167.60289 153.09915 168.35224 153.8485 168.35224 154.77289ZM166.6785 154.77289"/>
<use data-text="P" xlink:href="#font_1_3" transform="matrix(9.96264,0,0,-9.96264,191.242,36.638)"/>
<path transform="matrix(1,0,0,-1,21.046,188.005)" stroke-width=".3985" stroke-linecap="butt" stroke-miterlimit="10" stroke-linejoin="miter" fill="none" stroke="#000000" d="M47.62242 59.52802 166.6785-59.52802"/>
<path transform="matrix(1,0,0,-1,21.046,188.005)" stroke-width="1.19553" stroke-linecap="butt" stroke-miterlimit="10" stroke-linejoin="miter" fill="none" stroke="#000000" d="M138.1051-7.14342 146.36434-15.40265"/>
<path transform="matrix(.7071,.7071,.7071,-.7071,165.13915,201.13646)" d="M6.66628 0 1.93044 1.79556 3.5108 0 1.93044-1.79556Z"/>
<path transform="matrix(.7071,.7071,.7071,-.7071,165.13915,201.13646)" stroke-width="1.19553" stroke-linecap="butt" stroke-miterlimit="10" stroke-linejoin="miter" fill="none" stroke="#000000" d="M6.66628 0 1.93044 1.79556 3.5108 0 1.93044-1.79556Z"/>
<path transform="matrix(1,0,0,-1,21.046,188.005)" d="M144.54103-23.8112C144.54103-22.88681 143.79167-22.13747 142.8673-22.13747 141.9429-22.13747 141.19356-22.88681 141.19356-23.8112 141.19356-24.73558 141.9429-25.48494 142.8673-25.48494 143.79167-25.48494 144.54103-24.73558 144.54103-23.8112ZM142.8673-23.8112"/>
<use data-text="Q" xlink:href="#font_1_4" transform="matrix(9.96264,0,0,-9.96264,167.431,214.251)"/>
<path transform="matrix(1,0,0,-1,21.046,188.005)" d="M1.67374 11.90567C1.67374 12.83005 .92438 13.5794 0 13.5794-.92438 13.5794-1.67374 12.83005-1.67374 11.90567-1.67374 10.98128-.92438 10.23193 0 10.23193 .92438 10.23193 1.67374 10.98128 1.67374 11.90567ZM0 11.90567"/>
<use data-text="F" xlink:href="#font_1_2" transform="matrix(9.96264,0,0,-9.96264,9.735999,179.50299)"/>
<path transform="matrix(1,0,0,-1,21.046,188.005)" stroke-width=".79701" stroke-linecap="butt" stroke-miterlimit="10" stroke-linejoin="miter" fill="none" stroke="#000000" d="M0 47.62242 .39673 48.0188 .79349 48.41248 1.19025 48.80087 1.58702 49.18127 1.98376 49.55115 2.38051 49.90793 2.77727 50.24875 3.17404 50.57101 3.5708 50.87204 3.96754 51.14944 4.3643 51.40033 4.76106 51.62233 5.15782 51.81235 5.55458 51.96803 5.95132 52.08665 6.3481 52.16586 6.74486 52.20255 7.1416 52.19438 7.53836 52.13861 7.93512 52.0327 8.33188 51.87393 8.72864 51.65938 9.1254 51.38687 9.52214 51.05353 9.9189 50.65677 10.31566 50.19388 10.71242 49.66216 11.10918 49.0592 11.50594 48.38214 11.90268 47.62823 12.29944 46.79549 12.6962 45.88025 13.09296 44.8809 13.48972 43.794 13.88647 42.61717 14.28322 41.34807 14.67998 39.98376 15.07674 38.52135 15.4735 36.95866"/>
<path transform="matrix(1,0,0,-1,21.046,188.005)" stroke-width=".79701" stroke-linecap="butt" stroke-miterlimit="10" stroke-linejoin="miter" fill="none" stroke="#000000" d="M0 11.9056 15.47731 27.38292"/>
<path transform="matrix(1,0,0,-1,21.046,188.005)" d="M16.7326 27.38292C16.7326 28.0762 16.1706 28.63823 15.47731 28.63823 14.78403 28.63823 14.222 28.0762 14.222 27.38292 14.222 26.68964 14.78403 26.12762 15.47731 26.12762 16.1706 26.12762 16.7326 26.68964 16.7326 27.38292ZM15.47731 27.38292"/>
<use data-text="B" xlink:href="#font_1_1" transform="matrix(9.96264,0,0,-9.96264,40.043,164.026)"/>
<use data-text="Z" xlink:href="#font_2_119" transform="matrix(7.97011,0,0,-7.97011,21.821,166.916)"/>
<use data-text="M" xlink:href="#font_2_74" transform="matrix(7.97011,0,0,-7.97011,26.9936,166.916)"/>
<use data-text="P" xlink:href="#font_2_83" transform="matrix(7.97011,0,0,-7.97011,34.74852,166.916)"/>
</svg>
