<svg xmlns="http://www.w3.org/2000/svg" xmlns:xlink="http://www.w3.org/1999/xlink" xmlns:inkscape="http://www.inkscape.org/namespaces/inkscape" version="1.1" width="222.644" height="114.396" viewBox="0 0 222.644 114.396">
<defs>
<clipPath id="clip_1">
<path transform="matrix(1,0,0,-1,16.617,109.647)" d="M0 0H202.84082V106.4599H0Z"/>
</clipPath>
<path id="font_2_1" d="M.45999146 .31976319C.45999146 .39982606 .45498658 .47988893 .41999818 .5539398 .37399293 .65000918 .2919922 .6660156 .25 .6660156 .18998719 .6660156 .116989139 .64001467 .07598877 .54693606 .04399109 .47789 .038986207 .39982606 .038986207 .31976319 .038986207 .24472046 .042999269 .15464783 .083999637 .07859802 .1269989-.0024719239 .19999695-.022460938 .24899292-.022460938 .30299378-.022460938 .3789978-.0014648438 .4229889 .09359741 .45498658 .16265869 .45999146 .2407074 .45999146 .31976319M.24899292-.00047302247C.20999146-.00047302247 .15098572 .024551392 .1329956 .12062073 .12199402 .18066406 .12199402 .2727356 .12199402 .3317871 .12199402 .39582826 .12199402 .46188355 .12998963 .5159149 .14898682 .63500979 .22399903 .64401248 .24899292 .64401248 .28199769 .64401248 .34799195 .6259918 .36698915 .52693179 .3769989 .47088624 .3769989 .39482118 .3769989 .3317871 .3769989 .25672914 .3769989 .18867493 .3659973 .12461853 .35099793 .029556275 .2939911-.00047302247 .24899292-.00047302247Z"/>
<path id="font_3_1" d="M.19198609 .052993776C.19198609 .08198547 .16799927 .10598755 .13899231 .10598755 .10998535 .10598755 .085998538 .08198547 .085998538 .052993776 .085998538 .023986817 .10998535 0 .13899231 0 .16799927 0 .19198609 .023986817 .19198609 .052993776Z"/>
<path id="font_2_5" d="M.44898988 .20022583C.44898988 .3193512 .36698915 .41944886 .25898744 .41944886 .21099854 .41944886 .16799927 .40345765 .13198853 .36842347V.5637665C.1519928 .5577698 .18499756 .55078127 .21699524 .55078127 .33999635 .55078127 .4099884 .6417694 .4099884 .6547699 .4099884 .6607666 .40699769 .6657715 .3999939 .6657715 .39898683 .6657715 .39698792 .6657715 .3919983 .66278079 .37199403 .6537781 .32299806 .6337738 .2559967 .6337738 .21598816 .6337738 .16999817 .6407776 .12298584 .6617737 .114990238 .66477969 .11299133 .66477969 .11099243 .66477969 .100997928 .66477969 .100997928 .6567688 .100997928 .6407776V.34439088C.100997928 .32637025 .100997928 .31835938 .114990238 .31835938 .12199402 .31835938 .12399292 .32136537 .12799073 .32736207 .13899231 .3433838 .17599488 .39746095 .25698854 .39746095 .30899049 .39746095 .33399964 .35139466 .34199525 .33337403 .35798646 .29632569 .3600006 .25727845 .3600006 .20722962 .3600006 .17222595 .3600006 .11222839 .33599855 .07035828 .31199647 .031463624 .2749939 .0055389406 .22898865 .0055389406 .1559906 .0055389406 .09899902 .058380128 .08198547 .11723328 .084991458 .1162262 .08799744 .115234378 .09899902 .115234378 .13198853 .115234378 .14898682 .14022827 .14898682 .16423035 .14898682 .18823242 .13198853 .21322632 .09899902 .21322632 .084991458 .21322632 .049987794 .20622254 .049987794 .16023255 .049987794 .07434082 .11898804-.022460938 .23098755-.022460938 .34700013-.022460938 .44898988 .073349 .44898988 .20022583Z"/>
<path id="font_2_2" d="M.2939911 .64004519C.2939911 .66400149 .2939911 .6660156 .2709961 .6660156 .20899964 .60227969 .12098694 .60227969 .08898926 .60227969V.57128909C.10899353 .57128909 .16799927 .57128909 .21998596 .5972748V.07902527C.21998596 .042999269 .21699524 .0309906 .1269989 .0309906H.09498596V0C.12998963 .0029907227 .21699524 .0029907227 .25698854 .0029907227 .29699708 .0029907227 .38398744 .0029907227 .4189911 0V.0309906H.3869934C.29699708 .0309906 .2939911 .041992189 .2939911 .07902527V.64004519Z"/>
<path id="font_2_3" d="M.1269989 .07699585 .23298645 .18003845C.3889923 .31811524 .44898988 .3721466 .44898988 .47216798 .44898988 .5860901 .35899354 .6660156 .23699951 .6660156 .12399292 .6660156 .049987794 .57411196 .049987794 .48516847 .049987794 .4291687 .099990848 .4291687 .102996829 .4291687 .11999512 .4291687 .15499878 .44117738 .15499878 .48217774 .15499878 .5081787 .13699341 .5341797 .101989749 .5341797 .09399414 .5341797 .09199524 .5341797 .08898926 .5331726 .11199951 .59806826 .1659851 .63500979 .22399903 .63500979 .31498719 .63500979 .35798646 .5541382 .35798646 .47216798 .35798646 .39215089 .30799867 .31311036 .25299073 .25108338L.06098938 .036987306C.049987794 .025985718 .049987794 .023986817 .049987794 0H.42099L.44898988 .17404175H.42399598C.4189911 .14402771 .4119873 .1000061 .4019928 .084991458 .394989 .07699585 .32899476 .07699585 .30699159 .07699585H.1269989Z"/>
<path id="font_2_4" d="M.2899933 .35191346C.37199403 .37893678 .42999269 .4490509 .42999269 .52809146 .42999269 .6100464 .34199525 .6660156 .24598694 .6660156 .14498902 .6660156 .068984989 .60606387 .068984989 .53009036 .068984989 .49710084 .09098816 .47808839 .11999512 .47808839 .15098572 .47808839 .17098999 .50009158 .17098999 .5290985 .17098999 .57910159 .12399292 .57910159 .10899353 .57910159 .13999939 .62802127 .20599365 .64100649 .24198914 .64100649 .2829895 .64100649 .33799745 .6190338 .33799745 .5290985 .33799745 .51708987 .33599855 .45906068 .30999757 .4149933 .27999879 .36691285 .24598694 .36390687 .22099304 .36291505 .21299744 .36190797 .18899536 .35990907 .18199158 .35990907 .17399597 .35890199 .16699219 .35791017 .16699219 .3479004 .16699219 .33691407 .17399597 .33691407 .19099427 .33691407H.23498535C.31698609 .33691407 .35398866 .2686615 .35398866 .17037964 .35398866 .034469606 .2849884 .0055389406 .24099732 .0055389406 .19799805 .0055389406 .12298584 .022491456 .08799744 .08137512 .12298584 .07637024 .1539917 .09837341 .1539917 .1363678 .1539917 .17237854 .1269989 .19238281 .09799194 .19238281 .07398987 .19238281 .041992189 .17837525 .041992189 .1343689 .041992189 .043441774 .1349945-.022460938 .24398804-.022460938 .3659973-.022460938 .45700074 .06838989 .45700074 .17037964 .45700074 .252594 .3939972 .33088685 .2899933 .35191346Z"/>
<clipPath id="clip_4">
<path transform="matrix(1,0,0,-1,16.617,109.647)" d="M0 0H202.84082V106.4599H0Z"/>
</clipPath>
<path id="font_5_1" d="M.18199158 .116867069C.1329956 .036987306 .08898926 .033981325 .04899597 .0309906 .041992189 .02999878 .036987306 .021987915 .036987306 .0129852299 .036987306 .0069885256 .040985109 0 .050994874 0 .069992069 0 .116989139 .0029907227 .13598633 .0029907227 .1579895 .0029907227 .21199036 0 .23399353 0 .23999024 0 .25299073 0 .25299073 .017990113 .25299073 .02999878 .24099732 .0309906 .23799134 .0309906 .22898865 .03199768 .19099427 .033981325 .19099427 .063949588 .19099427 .077926639 .20199585 .09689331 .20498657 .101882938L.28399659 .23068238H.54499819C.5479889 .2077179 .5509949 .17378235 .55400088 .14881897 .55799868 .10987854 .56399539 .06593323 .56399539 .062942508 .56399539 .047973634 .5499878 .0309906 .49198915 .0309906 .48199464 .0309906 .46899415 .0309906 .46899415 .0129852299 .46899415 .0019989014 .47698976 0 .48399354 0 .5029907 0 .5269928 .0019989014 .5469971 .0019989014 .5669861 .0019989014 .59098818 .0029907227 .6069946 .0029907227 .6399994 .0029907227 .6419983 .0029907227 .66600039 .0019989014 .6819916 .0009918213 .7049866 0 .72099307 0 .72698977 0 .73999026 0 .73999026 .017990113 .73999026 .0309906 .72898867 .0309906 .71699526 .0309906 .6569977 .0309906 .6559906 .037979127 .6529999 .06694031L.58299258 .68881228C.58099368 .7108154 .5799866 .7158203 .5629883 .7158203 .548996 .7158203 .54299929 .7088165 .5349884 .69581606L.18199158 .116867069M.30299378 .26168824 .5049896 .5917816 .5419922 .26168824H.30299378Z"/>
<path id="font_3_2" d="M.33399964 .30233766C.33999635 .32835389 .36299134 .42037965 .43299867 .42037965 .43798829 .42037965 .46199037 .42037965 .48298646 .40734864 .45498658 .402359 .43499757 .37734986 .43499757 .35334779 .43499757 .33735658 .44599916 .31835938 .47299195 .31835938 .49499513 .31835938 .5269928 .3363495 .5269928 .37635804 .5269928 .42837525 .46798707 .4423828 .43399049 .4423828 .37599183 .4423828 .34098817 .38935853 .32899476 .36634828 .3039856 .43237306 .25 .4423828 .22099304 .4423828 .116989139 .4423828 .05999756 .3133545 .05999756 .28834535 .05999756 .27833558 .069992069 .27833558 .07199097 .27833558 .07998657 .27833558 .08299255 .28033448 .084991458 .28933717 .11898804 .39535523 .18499756 .42037965 .21899414 .42037965 .23799134 .42037965 .272995 .4113617 .272995 .35334779 .272995 .32235719 .2559967 .25532533 .21899414 .11528015 .20298767 .053268434 .16799927 .011245728 .12399292 .011245728 .117996219 .011245728 .09498596 .011245728 .07398987 .024276734 .09899902 .029266358 .12098694 .05027771 .12098694 .07827759 .12098694 .105270389 .09899902 .11328125 .083999637 .11328125 .053985597 .11328125 .0289917 .08728027 .0289917 .055267335 .0289917 .009246826 .07899475-.0107421879 .12298584-.0107421879 .18899536-.0107421879 .22499085 .059280397 .22799683 .0652771 .23999024 .028274537 .27598573-.0107421879 .33599855-.0107421879 .43899537-.0107421879 .49598695 .118270877 .49598695 .14328003 .49598695 .1532898 .4869995 .1532898 .48399354 .1532898 .47499085 .1532898 .47299195 .14929199 .47099305 .14228821 .43798829 .03527832 .36999513 .011245728 .33799745 .011245728 .29899598 .011245728 .2829895 .043273927 .2829895 .07727051 .2829895 .09927368 .2889862 .121276859 .2999878 .16529846L.33399964 .30233766Z"/>
<path id="font_3_3" d="M.48599244 .38136292C.48999024 .39537049 .48999024 .39736939 .48999024 .40437318 .48999024 .42237855 .47599793 .43138124 .46099855 .43138124 .45098878 .43138124 .43499757 .42536927 .42599488 .41036988 .42399598 .405365 .41600038 .37435914 .4119873 .35635377 .40499879 .33035279 .397995 .30334474 .3919983 .27633668L.34700013 .09628296C.34298707 .08126831 .2999878 .011245728 .23399353 .011245728 .18299866 .011245728 .17199707 .055267335 .17199707 .0922699 .17199707 .1382904 .18899536 .20030213 .22299195 .28833009 .23899842 .3293457 .24299622 .3403473 .24299622 .36035157 .24299622 .405365 .21099854 .4423828 .16099549 .4423828 .06599426 .4423828 .0289917 .29733277 .0289917 .28833009 .0289917 .27833558 .038986207 .27833558 .040985109 .27833558 .050994874 .27833558 .051986696 .28033448 .056991579 .29634095 .083999637 .3903656 .12399292 .42037965 .1579895 .42037965 .1659851 .42037965 .18299866 .42037965 .18299866 .3883667 .18299866 .36335755 .17298889 .3373413 .1659851 .31834413 .12599182 .21231079 .10798645 .1552887 .10798645 .10827637 .10798645 .019256592 .17098999-.0107421879 .22999573-.0107421879 .2689972-.0107421879 .30299378 .0062561037 .33099366 .03425598 .31799317-.017745972 .30599977-.06674194 .2659912-.11973572 .23999024-.15385437 .20199585-.18309021 .1559906-.18309021 .14199829-.18309021 .09700012-.18005371 .07998657-.14074707 .09599304-.14074707 .10899353-.14074707 .12298584-.1287384 .1329956-.11973572 .14299011-.10673523 .14299011-.08773804 .14299011-.056747438 .115997318-.052734376 .10598755-.052734376 .08299255-.052734376 .049987794-.068740848 .049987794-.11773682 .049987794-.16796875 .09399414-.20507813 .1559906-.20507813 .25898744-.20507813 .3619995-.11373901 .3899994-.00074768069L.48599244 .38136292Z"/>
</defs>
<path transform="matrix(1,0,0,-1,16.617,109.647)" stroke-width=".3985" stroke-linecap="butt" stroke-miterlimit="10" stroke-linejoin="miter" fill="none" stroke="#e5e6e5" d="M31.69386 0V106.4599M63.38774 0V106.4599M95.08163 0V106.4599M126.77551 0V106.4599M158.46939 0V106.4599M190.16327 0V106.4599"/>
<path transform="matrix(1,0,0,-1,16.617,109.647)" stroke-width=".3985" stroke-linecap="butt" stroke-miterlimit="10" stroke-linejoin="miter" fill="none" stroke="#e5e6e5" d="M0 39.92245H202.84082M0 66.53743H202.84082M0 93.1524H202.84082"/>
<path transform="matrix(1,0,0,-1,16.617,109.647)" stroke-width=".19925" stroke-linecap="butt" stroke-miterlimit="10" stroke-linejoin="miter" fill="none" stroke="#7f807f" d="M31.69386 11.50049V15.11446M63.38774 11.50049V15.11446M95.08163 11.50049V15.11446M126.77551 11.50049V15.11446M158.46939 11.50049V15.11446M190.16327 11.50049V15.11446"/>
<path transform="matrix(1,0,0,-1,16.617,109.647)" stroke-width=".19925" stroke-linecap="butt" stroke-miterlimit="10" stroke-linejoin="miter" fill="none" stroke="#7f807f" d="M-1.80702 39.92245H1.80702M-1.80702 66.53743H1.80702M-1.80702 93.1524H1.80702"/>
<path transform="matrix(1,0,0,-1,16.617,109.647)" stroke-width=".3985" stroke-linecap="butt" stroke-miterlimit="10" stroke-linejoin="miter" fill="none" stroke="#000000" d="M0 13.30746H200.8483"/>
<path transform="matrix(1,0,0,-1,217.4653,96.33955)" d="M1.99252 0-1.19551 1.59401 0 0-1.19551-1.59401"/>
<path transform="matrix(1,0,0,-1,16.617,109.647)" stroke-width=".3985" stroke-linecap="butt" stroke-miterlimit="10" stroke-linejoin="miter" fill="none" stroke="#000000" d="M0 0V104.46738"/>
<path transform="matrix(0,-1,-1,-0,16.617,5.1796267)" d="M1.99252 0-1.19551 1.59401 0 0-1.19551-1.59401"/>
<g clip-path="url(#clip_1)">
</g>
<use data-text="0" xlink:href="#font_2_1" transform="matrix(9.96264,0,0,-9.96264,41.946,108.087009)"/>
<use data-text="." xlink:href="#font_3_1" transform="matrix(9.96264,0,0,-9.96264,46.927,108.087009)"/>
<use data-text="5" xlink:href="#font_2_5" transform="matrix(9.96264,0,0,-9.96264,49.695,108.087009)"/>
<use data-text="1" xlink:href="#font_2_2" transform="matrix(9.96264,0,0,-9.96264,77.514,108.087009)"/>
<use data-text="1" xlink:href="#font_2_2" transform="matrix(9.96264,0,0,-9.96264,105.33301,108.087009)"/>
<use data-text="." xlink:href="#font_3_1" transform="matrix(9.96264,0,0,-9.96264,110.31401,108.087009)"/>
<use data-text="5" xlink:href="#font_2_5" transform="matrix(9.96264,0,0,-9.96264,113.08201,108.087009)"/>
<use data-text="2" xlink:href="#font_2_3" transform="matrix(9.96264,0,0,-9.96264,140.901,108.087009)"/>
<use data-text="2" xlink:href="#font_2_3" transform="matrix(9.96264,0,0,-9.96264,168.72,108.087009)"/>
<use data-text="." xlink:href="#font_3_1" transform="matrix(9.96264,0,0,-9.96264,173.701,108.087009)"/>
<use data-text="5" xlink:href="#font_2_5" transform="matrix(9.96264,0,0,-9.96264,176.468,108.087009)"/>
<use data-text="3" xlink:href="#font_2_4" transform="matrix(9.96264,0,0,-9.96264,204.28801,108.087009)"/>
<use data-text="1" xlink:href="#font_2_2" transform="matrix(9.96264,0,0,-9.96264,6.309001,72.935)"/>
<use data-text="2" xlink:href="#font_2_3" transform="matrix(9.96264,0,0,-9.96264,6.309001,46.32)"/>
<use data-text="3" xlink:href="#font_2_4" transform="matrix(9.96264,0,0,-9.96264,6.309001,19.706002)"/>
<g clip-path="url(#clip_4)">
<path transform="matrix(1,0,0,-1,16.617,109.647)" stroke-width=".79701" stroke-linecap="butt" stroke-miterlimit="10" stroke-linejoin="miter" fill="none" stroke="#2471a3" d="M3.16937 9.32104 5.05821 7.93802 6.94702 6.85846 8.83585 5.99725 10.72469 5.30692 12.61351 4.75696 14.50235 4.32623 16.39116 3.99908 18.28 3.76355 20.16882 3.61008 22.05765 3.53102 23.94647 3.51993 25.8353 3.57149 27.72414 3.68106 29.61296 3.84471 31.50179 4.05898 33.39061 4.32083 35.27943 4.62758 37.16827 4.9768 39.0571 5.36635 40.94592 5.79425 42.83475 6.25877 44.72357 6.75826 46.61241 7.29126 48.50124 7.8564 50.39006 8.45242 52.27888 9.0782 54.16771 9.73264 56.05655 10.41473 57.94537 11.12355 59.8342 11.85823 61.72302 12.61794 63.61185 13.40193 65.50069 14.20947 67.38951 15.0399 69.27832 15.89253 71.16716 16.76682 73.05598 17.66214 74.94482 18.57797 76.83365 19.5138 78.72246 20.46912 80.6113 21.44348 82.50012 22.43642 84.38896 23.4475 86.27779 24.47635 88.1666 25.52257 90.05545 26.58575 91.94426 27.6656 93.8331 28.76173 95.72192 29.87384 97.61075 31.00159 99.49959 32.14468 101.38841 33.30283 103.27725 34.47577 105.16606 35.66321 107.05489 36.86488 108.94373 38.08054 110.83255 39.30997 112.72139 40.55293 114.6102 41.80914 116.49904 43.07845 118.38786 44.36061 120.27669 45.65543 122.16553 46.96269 124.05434 48.28223 125.94318 49.61382 127.832 50.95732 129.72083 52.31256 131.60965 53.67932 133.49848 55.05746 135.38732 56.44684 137.27614 57.84727 139.16497 59.25864 141.05379 60.68076 142.94261 62.11348 144.83145 63.5567 146.72028 65.01027 148.6091 66.47401 150.49793 67.94788 152.38675 69.43169 154.27559 70.92532 156.16442 72.42867 158.05324 73.94159 159.94207 75.464 161.83089 76.99579 163.71973 78.53683 165.60855 80.08702 167.49738 81.64626 169.3862 83.21443 171.27503 84.79146 173.16387 86.37721 175.05269 87.97165 176.9415 89.57462 178.83034 91.18605 180.71916 92.80588 182.608 94.43398 184.49683 96.0703 186.38564 97.71472 188.27448 99.36719 190.1633 101.02763"/>
<path transform="matrix(1,0,0,-1,16.617,109.647)" stroke-width=".3985" stroke-linecap="butt" stroke-dasharray="2.98883,2.98883" stroke-miterlimit="10" stroke-linejoin="miter" fill="none" stroke="#000000" d="M63.38774 0V106.4599"/>
<path transform="matrix(1,0,0,-1,16.617,109.647)" stroke-width=".3985" stroke-linecap="butt" stroke-dasharray="2.98883,2.98883" stroke-miterlimit="10" stroke-linejoin="miter" fill="none" stroke="#000000" d="M172.28794 0V106.4599"/>
<use data-text="A" xlink:href="#font_5_1" transform="matrix(8.96638,0,0,-8.96638,130.428,86.09599)"/>
</g>
<use data-text="x" xlink:href="#font_3_2" transform="matrix(9.96264,0,0,-9.96264,210.043,92.621)"/>
<use data-text="y" xlink:href="#font_3_3" transform="matrix(9.96264,0,0,-9.96264,20.336,11.197006)"/>
</svg>
