<svg xmlns="http://www.w3.org/2000/svg" xmlns:xlink="http://www.w3.org/1999/xlink" xmlns:inkscape="http://www.inkscape.org/namespaces/inkscape" version="1.1" width="170.077" height="90.84" viewBox="0 0 170.077 90.84">
<defs>
<path id="font_1_1" d="M.18199158 .116867069C.1329956 .036987306 .08898926 .033981325 .04899597 .0309906 .041992189 .02999878 .036987306 .021987915 .036987306 .0129852299 .036987306 .0069885256 .040985109 0 .050994874 0 .069992069 0 .116989139 .0029907227 .13598633 .0029907227 .1579895 .0029907227 .21199036 0 .23399353 0 .23999024 0 .25299073 0 .25299073 .017990113 .25299073 .02999878 .24099732 .0309906 .23799134 .0309906 .22898865 .03199768 .19099427 .033981325 .19099427 .063949588 .19099427 .077926639 .20199585 .09689331 .20498657 .101882938L.28399659 .23068238H.54499819C.5479889 .2077179 .5509949 .17378235 .55400088 .14881897 .55799868 .10987854 .56399539 .06593323 .56399539 .062942508 .56399539 .047973634 .5499878 .0309906 .49198915 .0309906 .48199464 .0309906 .46899415 .0309906 .46899415 .0129852299 .46899415 .0019989014 .47698976 0 .48399354 0 .5029907 0 .5269928 .0019989014 .5469971 .0019989014 .5669861 .0019989014 .59098818 .0029907227 .6069946 .0029907227 .6399994 .0029907227 .6419983 .0029907227 .66600039 .0019989014 .6819916 .0009918213 .7049866 0 .72099307 0 .72698977 0 .73999026 0 .73999026 .017990113 .73999026 .0309906 .72898867 .0309906 .71699526 .0309906 .6569977 .0309906 .6559906 .037979127 .6529999 .06694031L.58299258 .68881228C.58099368 .7108154 .5799866 .7158203 .5629883 .7158203 .548996 .7158203 .54299929 .7088165 .5349884 .69581606L.18199158 .116867069M.30299378 .26168824 .5049896 .5917816 .5419922 .26168824H.30299378Z"/>
<path id="font_1_2" d="M.16299439 .07595825C.1539917 .039993287 .1519928 .0309906 .07699585 .0309906 .057998659 .0309906 .04699707 .0309906 .04699707 .0129852299 .04699707 0 .056991579 0 .07499695 0H.43899537C.6009979 0 .7200012 .11793518 .7200012 .21485901 .7200012 .28581239 .6609955 .34576417 .56199648 .35676576 .6759949 .37875367 .772995 .4547119 .772995 .54367068 .772995 .6216278 .70098879 .6826172 .58200076 .6826172H.23999024C.22200012 .6826172 .20999146 .6826172 .20999146 .6646118 .20999146 .6516113 .21899414 .6516113 .23999024 .6516113 .24398804 .6516113 .2619934 .6516113 .27799989 .6496124 .29499818 .6476135 .3019867 .6456146 .3019867 .63461306 .3019867 .6296234 .30099488 .6256256 .2979889 .614624L.16299439 .07595825M.31900025 .36776734 .37998963 .6126251C.3889923 .64860537 .3909912 .6516113 .43299867 .6516113H.56799319C.6719971 .6516113 .68099978 .5726471 .68099978 .54766848 .68099978 .45870973 .58799746 .36776734 .47499085 .36776734H.31900025M.2709961 .0309906C.25698854 .0309906 .25498963 .0309906 .25099183 .03199768 .24099732 .032989503 .23799134 .033996583 .23799134 .040985109 .23799134 .04397583 .23799134 .04597473 .24299622 .063964847L.31199647 .34277345H.5C.56199648 .34277345 .625 .31578065 .625 .22485352 .625 .12593079 .5339966 .0309906 .4139862 .0309906H.2709961Z"/>
<path id="font_1_3" d="M.7739868 .67807009C.7769928 .6900635 .7769928 .69207766 .7769928 .69407656 .7769928 .69506838 .776001 .7050781 .7649994 .7050781 .7589874 .7050781 .7559967 .70207217 .7489929 .69407656L.6879883 .6270294C.6839905 .62202456 .6799927 .61802676 .67900088 .61802676 .6779938 .61802676 .6769867 .61901858 .67099 .62602236 .6559906 .64604189 .61099246 .7050781 .5069885 .7050781 .27799989 .7050781 .050994874 .48291017 .050994874 .25473023 .050994874 .09159851 .16999817-.022460938 .33099366-.022460938 .43499757-.022460938 .5169983 .031555177 .55599978 .0665741 .6469879 .14764405 .6639862 .23571778 .6639862 .23971558 .6639862 .24372864 .6619873 .25073243 .6499939 .25073243 .6389923 .25073243 .6369934 .24472046 .6359863 .24072266 .58699038 .079589847 .44400025 .008529663 .34399415 .008529663 .24699402 .008529663 .14399719 .06758118 .14399719 .21870423 .14399719 .2637329 .15899658 .42185975 .2599945 .54496768 .31999208 .61701968 .41799928 .67407229 .5139923 .67407229 .625 .67407229 .6839905 .5890045 .6839905 .47891236 .6839905 .44488526 .68099978 .43788148 .68099978 .4298706 .68099978 .41886903 .69299319 .41886903 .69599917 .41886903 .70899966 .41886903 .70899966 .42086793 .71398928 .43988038L.7739868 .67807009Z"/>
<path id="font_1_4" d="M.16099549 .07595825C.1519928 .039993287 .1499939 .0309906 .07499695 .0309906 .055999757 .0309906 .04499817 .0309906 .04499817 .0129852299 .04499817 0 .054992677 0 .07299805 0H.4099884C.6239929 0 .82299807 .21188355 .82299807 .42774964 .82299807 .56466677 .7369995 .6826172 .58099368 .6826172H.23799134C.21998596 .6826172 .20799256 .6826172 .20799256 .6646118 .20799256 .6516113 .21699524 .6516113 .23799134 .6516113 .24198914 .6516113 .2599945 .6516113 .27598573 .6496124 .29299928 .6476135 .2999878 .6456146 .2999878 .63461306 .2999878 .6296234 .29899598 .6256256 .29599 .614624L.16099549 .07595825M.3809967 .6126251C.3899994 .64860537 .3919983 .6516113 .43399049 .6516113H.5469971C.651001 .6516113 .73399356 .5936432 .73399356 .46472169 .73399356 .40675355 .70899966 .24685669 .6309967 .1479187 .58499148 .09095764 .5019989 .0309906 .3919983 .0309906H.27198792C.2579956 .0309906 .2559967 .0309906 .2519989 .03199768 .24198914 .032989503 .23899842 .033996583 .23899842 .040985109 .23899842 .04399109 .23899842 .04598999 .24398804 .063964847L.3809967 .6126251Z"/>
<path id="font_2_1" d="M.23498535 .2023468C.23599243 .2083435 .25898744 .29840089 .26098634 .30340577 .2630005 .31140138 .2919922 .36140443 .32398988 .3854065 .33499146 .3934021 .3619995 .4133911 .40499879 .4133911 .4149933 .4133911 .43998719 .4123993 .45999146 .39941407 .42799378 .39041139 .41600038 .3624115 .41600038 .34440614 .41600038 .32240296 .43299867 .30740357 .45599366 .30740357 .47898866 .30740357 .5119934 .32640077 .5119934 .3684082 .5119934 .4203949 .45700074 .44140626 .4059906 .44140626 .35398866 .44140626 .30899049 .4203949 .2649994 .3704071 .24699402 .43139649 .18598938 .44140626 .1619873 .44140626 .125 .44140626 .099990848 .418396 .083999637 .39041139 .06098938 .3514099 .04699707 .293396 .04699707 .2883911 .04699707 .27539063 .06098938 .27539063 .06399536 .27539063 .07798767 .27539063 .07899475 .2783966 .085998538 .30540467 .100997928 .3664093 .11999512 .4133911 .15899658 .4133911 .18499756 .4133911 .19198609 .3914032 .19198609 .3644104 .19198609 .3454132 .18299866 .30841065 .17599488 .28138734 .16899109 .25437928 .15899658 .21334839 .1539917 .19132996L.12199402 .06326294C.117996219 .050247194 .11199951 .025238038 .11199951 .022232056 .11199951 .00022888184 .12998963-.009765625 .1459961-.009765625 .16099549-.009765625 .18099976-.00077819827 .18899536 .019226075 .19099427 .025238038 .20199585 .06925964 .20799256 .09428406L.23498535 .2023468Z"/>
<path id="font_3_1" d="M.5049896 .18203736H.47099305C.46798707 .16001892 .45799256 .100997928 .44499208 .09098816 .43699647 .084991458 .3600006 .084991458 .34599305 .084991458H.1619873C.2669983 .17803955 .3019867 .20603943 .3619995 .25306703 .43598939 .312088 .5049896 .374115 .5049896 .46914674 .5049896 .5900879 .39898683 .6640625 .2709961 .6640625 .14698792 .6640625 .06298828 .57710269 .06298828 .4851532 .06298828 .43414308 .10598755 .42915345 .115997318 .42915345 .13999939 .42915345 .16899109 .44615174 .16899109 .48214723 .16899109 .5001526 .1619873 .53515627 .10998535 .53515627 .14099121 .6060791 .20899964 .62805178 .2559967 .62805178 .35598756 .62805178 .4079895 .5501404 .4079895 .46914674 .4079895 .38212586 .34599305 .3130951 .31399537 .27708436L.07299805 .038986207C.06298828 .02999878 .06298828 .027999878 .06298828 0H.47499085L.5049896 .18203736Z"/>
</defs>
<path transform="matrix(1,0,0,-1,84.784,74.883998)" stroke-width=".79701" stroke-linecap="butt" stroke-miterlimit="10" stroke-linejoin="miter" fill="none" stroke="#2471a3" d="M-68.03217 0C-68.03217 37.5736-37.5736 68.03217 0 68.03217 37.5736 68.03217 68.03217 37.5736 68.03217 0"/>
<path transform="matrix(1,0,0,-1,84.784,74.883998)" stroke-width=".79701" stroke-linecap="butt" stroke-miterlimit="10" stroke-linejoin="miter" fill="none" stroke="#2471a3" d="M-68.03217 0H68.03217"/>
<path transform="matrix(1,0,0,-1,84.784,74.883998)" d="M-68.04524 0-34.02261 58.92906H34.02261L68.04524 0Z" fill="#ddede4" fill-opacity=".5"/>
<path transform="matrix(1,0,0,-1,84.784,74.883998)" stroke-width="1.19553" stroke-linecap="butt" stroke-miterlimit="10" stroke-linejoin="miter" fill="none" stroke="#1e8449" d="M-68.04524 0-34.02261 58.92906H34.02261L68.04524 0"/>
<path transform="matrix(1,0,0,-1,84.784,74.883998)" d="M-65.65419 0C-65.65419 1.32054-66.7247 2.39105-68.04524 2.39105-69.3658 2.39105-70.43631 1.32054-70.43631 0-70.43631-1.32054-69.3658-2.39105-68.04524-2.39105-66.7247-2.39105-65.65419-1.32054-65.65419 0ZM-68.04524 0"/>
<use data-text="A" xlink:href="#font_1_1" transform="matrix(8.96638,0,0,-8.96638,6.308998,84.531)"/>
<path transform="matrix(1,0,0,-1,84.784,74.883998)" d="M70.43631 0C70.43631 1.32054 69.3658 2.39105 68.04524 2.39105 66.7247 2.39105 65.65419 1.32054 65.65419 0 65.65419-1.32054 66.7247-2.39105 68.04524-2.39105 69.3658-2.39105 70.43631-1.32054 70.43631 0ZM68.04524 0"/>
<use data-text="B" xlink:href="#font_1_2" transform="matrix(8.96638,0,0,-8.96638,156.34799,84.531)"/>
<path transform="matrix(1,0,0,-1,84.784,74.883998)" d="M36.41367 58.92906C36.41367 60.24962 35.34317 61.32011 34.02261 61.32011 32.70206 61.32011 31.63156 60.24962 31.63156 58.92906 31.63156 57.6085 32.70206 56.53801 34.02261 56.53801 35.34317 56.53801 36.41367 57.6085 36.41367 58.92906ZM34.02261 58.92906"/>
<use data-text="C" xlink:href="#font_1_3" transform="matrix(8.96638,0,0,-8.96638,122.326,12.435997)"/>
<path transform="matrix(1,0,0,-1,84.784,74.883998)" d="M-31.63156 58.92906C-31.63156 60.24962-32.70206 61.32011-34.02261 61.32011-35.34317 61.32011-36.41367 60.24962-36.41367 58.92906-36.41367 57.6085-35.34317 56.53801-34.02261 56.53801-32.70206 56.53801-31.63156 57.6085-31.63156 58.92906ZM-34.02261 58.92906"/>
<use data-text="D" xlink:href="#font_1_4" transform="matrix(8.96638,0,0,-8.96638,39.386999,12.435997)"/>
<use data-text="r" xlink:href="#font_2_1" transform="matrix(6.97385,0,0,-6.97385,26.316998,46.920999)" fill="#1e8449"/>
<use data-text="r" xlink:href="#font_2_1" transform="matrix(6.97385,0,0,-6.97385,82.826999,12.435997)" fill="#1e8449"/>
<use data-text="r" xlink:href="#font_2_1" transform="matrix(6.97385,0,0,-6.97385,139.337,46.920999)" fill="#1e8449"/>
<use data-text="2" xlink:href="#font_3_1" transform="matrix(6.97385,0,0,-6.97385,80.840999,82.897998)"/>
<use data-text="r" xlink:href="#font_2_1" transform="matrix(6.97385,0,0,-6.97385,84.81199,82.897998)"/>
<path transform="matrix(1,0,0,-1,84.784,74.883998)" d="M1.79327 0C1.79327 .9904 .9904 1.79327 0 1.79327-.9904 1.79327-1.79327 .9904-1.79327 0-1.79327-.9904-.9904-1.79327 0-1.79327 .9904-1.79327 1.79327-.9904 1.79327 0ZM0 0" fill="#2471a3"/>
</svg>
