<svg xmlns="http://www.w3.org/2000/svg" xmlns:xlink="http://www.w3.org/1999/xlink" xmlns:inkscape="http://www.inkscape.org/namespaces/inkscape" version="1.1" width="155.884" height="81.771" viewBox="0 0 155.884 81.771">
<defs>
<clipPath id="clip_1">
<path transform="matrix(1,0,0,-1,9.517,78.336009)" d="M0 0H143.18128V75.14912H0Z"/>
</clipPath>
<path id="font_2_2" d="M.2939911 .64004519C.2939911 .66400149 .2939911 .6660156 .2709961 .6660156 .20899964 .60227969 .12098694 .60227969 .08898926 .60227969V.57128909C.10899353 .57128909 .16799927 .57128909 .21998596 .5972748V.07902527C.21998596 .042999269 .21699524 .0309906 .1269989 .0309906H.09498596V0C.12998963 .0029907227 .21699524 .0029907227 .25698854 .0029907227 .29699708 .0029907227 .38398744 .0029907227 .4189911 0V.0309906H.3869934C.29699708 .0309906 .2939911 .041992189 .2939911 .07902527V.64004519Z"/>
<path id="font_2_3" d="M.1269989 .07699585 .23298645 .18003845C.3889923 .31811524 .44898988 .3721466 .44898988 .47216798 .44898988 .5860901 .35899354 .6660156 .23699951 .6660156 .12399292 .6660156 .049987794 .57411196 .049987794 .48516847 .049987794 .4291687 .099990848 .4291687 .102996829 .4291687 .11999512 .4291687 .15499878 .44117738 .15499878 .48217774 .15499878 .5081787 .13699341 .5341797 .101989749 .5341797 .09399414 .5341797 .09199524 .5341797 .08898926 .5331726 .11199951 .59806826 .1659851 .63500979 .22399903 .63500979 .31498719 .63500979 .35798646 .5541382 .35798646 .47216798 .35798646 .39215089 .30799867 .31311036 .25299073 .25108338L.06098938 .036987306C.049987794 .025985718 .049987794 .023986817 .049987794 0H.42099L.44898988 .17404175H.42399598C.4189911 .14402771 .4119873 .1000061 .4019928 .084991458 .394989 .07699585 .32899476 .07699585 .30699159 .07699585H.1269989Z"/>
<path id="font_2_4" d="M.2899933 .35191346C.37199403 .37893678 .42999269 .4490509 .42999269 .52809146 .42999269 .6100464 .34199525 .6660156 .24598694 .6660156 .14498902 .6660156 .068984989 .60606387 .068984989 .53009036 .068984989 .49710084 .09098816 .47808839 .11999512 .47808839 .15098572 .47808839 .17098999 .50009158 .17098999 .5290985 .17098999 .57910159 .12399292 .57910159 .10899353 .57910159 .13999939 .62802127 .20599365 .64100649 .24198914 .64100649 .2829895 .64100649 .33799745 .6190338 .33799745 .5290985 .33799745 .51708987 .33599855 .45906068 .30999757 .4149933 .27999879 .36691285 .24598694 .36390687 .22099304 .36291505 .21299744 .36190797 .18899536 .35990907 .18199158 .35990907 .17399597 .35890199 .16699219 .35791017 .16699219 .3479004 .16699219 .33691407 .17399597 .33691407 .19099427 .33691407H.23498535C.31698609 .33691407 .35398866 .2686615 .35398866 .17037964 .35398866 .034469606 .2849884 .0055389406 .24099732 .0055389406 .19799805 .0055389406 .12298584 .022491456 .08799744 .08137512 .12298584 .07637024 .1539917 .09837341 .1539917 .1363678 .1539917 .17237854 .1269989 .19238281 .09799194 .19238281 .07398987 .19238281 .041992189 .17837525 .041992189 .1343689 .041992189 .043441774 .1349945-.022460938 .24398804-.022460938 .3659973-.022460938 .45700074 .06838989 .45700074 .17037964 .45700074 .252594 .3939972 .33088685 .2899933 .35191346Z"/>
<path id="font_2_5" d="M.2939911 .16503906V.07800293C.2939911 .041992189 .2919922 .0309906 .21798706 .0309906H.19699097V0C.23799134 .0029907227 .2899933 .0029907227 .33198548 .0029907227 .37399293 .0029907227 .4269867 .0029907227 .46798707 0V.0309906H.44699098C.37298585 .0309906 .37098695 .041992189 .37098695 .07800293V.16503906H.47099305V.19602967H.37098695V.65075686C.37098695 .67074587 .37098695 .6767578 .35499574 .6767578 .34599305 .6767578 .34298707 .6767578 .33499146 .66474917L.027999878 .19602967V.16503906H.2939911M.2999878 .19602967H.055999757L.2999878 .5688019V.19602967Z"/>
<path id="font_2_1" d="M.45999146 .31976319C.45999146 .39982606 .45498658 .47988893 .41999818 .5539398 .37399293 .65000918 .2919922 .6660156 .25 .6660156 .18998719 .6660156 .116989139 .64001467 .07598877 .54693606 .04399109 .47789 .038986207 .39982606 .038986207 .31976319 .038986207 .24472046 .042999269 .15464783 .083999637 .07859802 .1269989-.0024719239 .19999695-.022460938 .24899292-.022460938 .30299378-.022460938 .3789978-.0014648438 .4229889 .09359741 .45498658 .16265869 .45999146 .2407074 .45999146 .31976319M.24899292-.00047302247C.20999146-.00047302247 .15098572 .024551392 .1329956 .12062073 .12199402 .18066406 .12199402 .2727356 .12199402 .3317871 .12199402 .39582826 .12199402 .46188355 .12998963 .5159149 .14898682 .63500979 .22399903 .64401248 .24899292 .64401248 .28199769 .64401248 .34799195 .6259918 .36698915 .52693179 .3769989 .47088624 .3769989 .39482118 .3769989 .3317871 .3769989 .25672914 .3769989 .18867493 .3659973 .12461853 .35099793 .029556275 .2939911-.00047302247 .24899292-.00047302247Z"/>
<path id="font_3_1" d="M.19198609 .052993776C.19198609 .08198547 .16799927 .10598755 .13899231 .10598755 .10998535 .10598755 .085998538 .08198547 .085998538 .052993776 .085998538 .023986817 .10998535 0 .13899231 0 .16799927 0 .19198609 .023986817 .19198609 .052993776Z"/>
<path id="font_2_6" d="M.44898988 .20022583C.44898988 .3193512 .36698915 .41944886 .25898744 .41944886 .21099854 .41944886 .16799927 .40345765 .13198853 .36842347V.5637665C.1519928 .5577698 .18499756 .55078127 .21699524 .55078127 .33999635 .55078127 .4099884 .6417694 .4099884 .6547699 .4099884 .6607666 .40699769 .6657715 .3999939 .6657715 .39898683 .6657715 .39698792 .6657715 .3919983 .66278079 .37199403 .6537781 .32299806 .6337738 .2559967 .6337738 .21598816 .6337738 .16999817 .6407776 .12298584 .6617737 .114990238 .66477969 .11299133 .66477969 .11099243 .66477969 .100997928 .66477969 .100997928 .6567688 .100997928 .6407776V.34439088C.100997928 .32637025 .100997928 .31835938 .114990238 .31835938 .12199402 .31835938 .12399292 .32136537 .12799073 .32736207 .13899231 .3433838 .17599488 .39746095 .25698854 .39746095 .30899049 .39746095 .33399964 .35139466 .34199525 .33337403 .35798646 .29632569 .3600006 .25727845 .3600006 .20722962 .3600006 .17222595 .3600006 .11222839 .33599855 .07035828 .31199647 .031463624 .2749939 .0055389406 .22898865 .0055389406 .1559906 .0055389406 .09899902 .058380128 .08198547 .11723328 .084991458 .1162262 .08799744 .115234378 .09899902 .115234378 .13198853 .115234378 .14898682 .14022827 .14898682 .16423035 .14898682 .18823242 .13198853 .21322632 .09899902 .21322632 .084991458 .21322632 .049987794 .20622254 .049987794 .16023255 .049987794 .07434082 .11898804-.022460938 .23098755-.022460938 .34700013-.022460938 .44898988 .073349 .44898988 .20022583Z"/>
<clipPath id="clip_4">
<path transform="matrix(1,0,0,-1,9.517,78.336009)" d="M0 0H143.18128V75.14912H0Z"/>
</clipPath>
<path id="font_5_2" d="M.82899478 .4252472C.82899478 .5821686 .71598818 .703125 .5389862 .703125 .2999878 .703125 .068984989 .47921754 .068984989 .2543335 .068984989 .09341431 .18798828-.01953125 .3600006-.01953125 .59799197-.01953125 .82899478 .19836426 .82899478 .4252472M.36799623 .013458252C.2619934 .013458252 .17199707 .0854187 .17199707 .23335266 .17199707 .28431703 .18598938 .426239 .27799989 .54019168 .34498597 .6221466 .44198609 .67111209 .5309906 .67111209 .6349945 .67111209 .73098757 .6051483 .73098757 .4602356 .73098757 .38726808 .69999697 .24134827 .6069946 .13439942 .5369873 .05444336 .44599916 .013458252 .36799623 .013458252Z"/>
<path id="font_5_1" d="M.20599365 .11984253C.17098999 .06594849 .13899231 .039978029 .07998657 .035995485 .069992069 .034988405 .056991579 .034988405 .056991579 .01499939 .056991579 .0039978029 .06599426 0 .070999149 0 .09700012 0 .12998963 .0039978029 .15699768 .0039978029 .18899536 .0039978029 .22999573 0 .2599945 0 .2649994 0 .27999879 0 .27999879 .021987915 .27999879 .034988405 .2669983 .035995485 .2630005 .035995485 .25498963 .036987306 .21899414 .038986207 .21899414 .06594849 .21899414 .077926639 .22898865 .09489441 .23399353 .103881839L.31399537 .22766114H.59999087L.6239929 .061950685C.6199951 .051971437 .6139984 .035995485 .5549927 .035995485 .54299929 .035995485 .5289917 .035995485 .5289917 .01399231 .5289917 .009994507 .5319977 0 .54499819 0 .57398989 0 .644989 .0039978029 .673996 .0039978029 .69200137 .0039978029 .71499636 .0029907227 .73298647 .0029907227 .7509918 .0019989014 .7719879 0 .7899933 0 .8029938 0 .80999758 .0079956059 .80999758 .020996094 .80999758 .035995485 .7979889 .035995485 .7819977 .035995485 .723999 .035995485 .7220001 .04397583 .71899417 .06793213L.6309967 .6848755C.6279907 .70588687 .6259918 .7128906 .6069946 .7128906 .58799746 .7128906 .58200076 .70388796 .57299807 .6898804L.20599365 .11984253M.33799745 .26367188 .5479889 .5908356 .59498599 .26367188H.33799745Z"/>
<path id="font_6_112" d="M.56799319 .39465333V.43066407C.54299929 .4286499 .5169983 .426651 .49198915 .426651 .46499635 .426651 .42799378 .42765809 .40098573 .43066407V.39465333C.44299317 .39265443 .44299317 .35964967 .44299317 .35665895 .44299317 .35165406 .44198609 .34165956 .43499757 .32765199L.32199098 .08065796 .19799805 .35266114C.19799805 .35266114 .19198609 .36465455 .19198609 .37165834 .19198609 .39465333 .22599793 .39465333 .24299622 .39465333V.43066407C.24299622 .43066407 .16999817 .426651 .1289978 .426651 .09899902 .426651 .05999756 .42765809 .0309906 .43066407V.39465333C.085998538 .39453126 .09799194 .3925171 .11299133 .3585205L.2709961 .011184692C.27598573-.00079345706 .28199769-.009765625 .29899598-.009765625 .31799317-.009765625 .32199098-.00079345706 .32699586 .010192871L.47399903 .33258058C.5019989 .39352418 .5519867 .39453126 .56799319 .39453126V.39465333Z"/>
<path id="font_6_50" d="M.46798707 .12036133C.46798707 .12435913 .46598817 .13438416 .45098878 .13438416 .43798829 .13438416 .43598939 .12837219 .43299867 .11836243 .4019928 .037246705 .32598878 .022232056 .2899933 .022232056 .24299622 .022232056 .19799805 .043258668 .16799927 .08131409 .1309967 .12837219 .12998963 .18945313 .12998963 .22851563H.43998719C.46099855 .22851563 .46798707 .22851563 .46798707 .25050355 .46798707 .33839417 .4189911 .44628907 .269989 .44628907 .13899231 .44628907 .038986207 .34239198 .038986207 .21949768 .038986207 .092315677 .1499939-.009765625 .2829895-.009765625 .41799928-.009765625 .46798707 .09832764 .46798707 .12036133M.397995 .25450135H.1309967C.14199829 .39530946 .23199463 .41827394 .269989 .41827394 .3929901 .41827394 .39698792 .27947999 .397995 .25450135Z"/>
<path id="font_6_96" d="M.40699769 .37739564C.40699769 .4113922 .375 .44140626 .32798768 .44140626 .27799989 .44140626 .22299195 .4104004 .19299317 .33439637H.19198609V.44140626L.04899597 .43052674V.39453126C.115997318 .39453126 .12399292 .3875122 .12399292 .33843995V.079055789C.12399292 .035995485 .11399841 .035995485 .04899597 .035995485V0C.053985597 0 .12199402 .0039978029 .16299439 .0039978029L.29299928 0V.035995485H.272995C.19898987 .036071779 .19898987 .047073366 .19898987 .081085208V.22807312C.19898987 .31207276 .23799134 .41308595 .33299256 .41308595 .32398988 .40608216 .31599427 .39308167 .31599427 .3770752 .31599427 .3440857 .34199525 .3310852 .36099244 .3310852 .3849945 .3310852 .40699769 .34707643 .40699769 .3770752V.37739564Z"/>
<path id="font_6_105" d="M.375 .12606812V.1809845H.34098817V.12705994C.34098817 .059173585 .30899049 .022232056 .269989 .022232056 .20098877 .022232056 .20098877 .10609436 .20098877 .124069217V.39465333H.35699464V.43066407H.20098877V.6142578H.16699219C.1659851 .5244446 .125 .42565919 .0289917 .4226532V.39465333H.12199402V.1250763C.12199402 .01322937 .20599365-.009765625 .2619934-.009765625 .32899476-.010009766 .375 .04699707 .375 .12599182V.12606812Z"/>
<path id="font_6_66" d="M.27398683 0V.035995485C.21598816 .035995485 .20599365 .035995485 .20599365 .07803345V.44140626L.05899048 .43052674V.39453126C.12199402 .39453126 .1309967 .3885193 .1309967 .33952333V.07952881C.1309967 .035995485 .12098694 .035995485 .055999757 .035995485V0C.055999757 0 .12799073 .0039978029 .16799927 .0039978029 .20298767 .0039978029 .23899842 .0029907227 .27398683 0M.21899414 .60214236C.21899414 .6341553 .19400025 .66015627 .1619873 .66015627 .12799073 .66015627 .10499573 .6321411 .10499573 .6031494 .10499573 .57115176 .12998963 .54515078 .1619873 .54515078 .19599915 .54515078 .21899414 .57315066 .21899414 .60214236Z"/>
<path id="font_6_43" d="M.46798707 .120407108C.46798707 .13243103 .45498658 .13243103 .45098878 .13243103 .43798829 .13243103 .43699647 .12942505 .43199159 .11540222 .4099884 .05328369 .35699464 .022232056 .29599 .022232056 .22698975 .022232056 .13699341 .07331848 .13699341 .21759033 .13699341 .34448243 .19898987 .41427613 .2919922 .41427613 .30499269 .41441346 .35299684 .41441346 .3889923 .39941407 .37098695 .39128114 .36099244 .37527467 .36099244 .35528565 .36099244 .3284607 .37998963 .30859376 .4079895 .30859376 .43499757 .30859376 .45599366 .32546998 .45599366 .35728456 .45599366 .44628907 .31698609 .44628907 .2889862 .44628907 .13899231 .44628907 .04598999 .33143617 .04598999 .21658325 .04598999 .09034729 .15299988-.009765625 .28399659-.009765625 .43299867-.009765625 .46798707 .10838318 .46798707 .120407108Z"/>
<path id="font_5_3" d="M.55599978 .37738038C.55999758 .39138795 .55999758 .39338685 .55999758 .3993988 .55999758 .41940309 .5439911 .43139649 .5269928 .43139649 .5159912 .43139649 .49699403 .4263916 .48599244 .4073944 .48298646 .4013977 .47499085 .36938478 .46998597 .34936524L.44898988 .2663269C.44299317 .24232483 .4119873 .11627197 .40899659 .105270389 .4079895 .105270389 .3639984 .018234253 .28599549 .018234253 .21798706 .018234253 .21798706 .08325195 .21798706 .101257327 .21798706 .1552887 .24099732 .2183075 .2709961 .29534913 .2829895 .32736207 .28799439 .33937074 .28799439 .35636903 .28799439 .40438844 .24699402 .44140626 .19299317 .44140626 .09199524 .44140626 .04699707 .3053589 .04699707 .28834535 .04699707 .27534486 .06098938 .27534486 .06399536 .27534486 .07798767 .27534486 .07899475 .28033448 .08198547 .29135133 .10699463 .3743744 .1499939 .4133911 .18998719 .4133911 .20698548 .4133911 .21499634 .40238954 .21499634 .37838746 .21499634 .3553772 .20599365 .33335877 .20098877 .32035829 .15299988 .19830323 .14299011 .1612854 .14299011 .117263797 .14299011 .1002655 .14299011 .053237916 .18199158 .021224976 .21299744-.004776001 .25498963-.009765625 .28199769-.009765625 .32199098-.009765625 .35798646 .0052337648 .3909912 .035232545 .37799073-.01977539 .36698915-.061782838 .32499696-.11178589 .2979889-.14279175 .2579956-.17610169 .20498657-.17610169 .19799805-.17610169 .15098572-.17610169 .12998963-.14279175 .18399048-.13679505 .18399048-.08879089 .18399048-.08778381 .18399048-.055786134 .15499878-.04978943 .14498902-.04978943 .11999512-.04978943 .08699036-.0697937 .08699036-.11578369 .08699036-.1670227 .1349945-.20410156 .20599365-.20410156 .30699159-.20410156 .42999269-.12579346 .46099855-.00077819827L.55599978 .37738038Z"/>
<path id="font_7_1" d="M.7679901 .3359375C.7829895 .3359375 .80599978 .3359375 .80599978 .3609314 .80599978 .38493348 .7819977 .38493348 .7689972 .38493348H.10699463C.09399414 .38493348 .069992069 .38493348 .069992069 .3609314 .069992069 .3359375 .09298706 .3359375 .10798645 .3359375H.7679901M.7689972 .11602783C.7819977 .11602783 .80599978 .11602783 .80599978 .1400299 .80599978 .16503906 .7829895 .16503906 .7679901 .16503906H.10798645C.09298706 .16503906 .069992069 .16503906 .069992069 .1400299 .069992069 .11602783 .09399414 .11602783 .10699463 .11602783H.7689972Z"/>
<path id="font_8_1" d="M.42900086 .36079408C.5319977 .40382386 .5649872 .45687867 .5649872 .513916 .5649872 .6179962 .44999696 .6660156 .34098817 .6660156 .21699524 .6660156 .114990238 .5959778 .114990238 .4958954 .114990238 .40382386 .19400025 .36279298 .24598694 .3357849 .13999939 .29473878 .07998657 .23570252 .07998657 .15364075 .07998657 .03353882 .21299744-.022460938 .33898927-.022460938 .47898866-.022460938 .59999087 .05255127 .59999087 .1706543 .59999087 .27973939 .49598695 .33078004 .42900086 .36079408M.23298645 .46287538C.18998719 .4848938 .1769867 .51091006 .1769867 .53492739 .1769867 .59898379 .25898744 .628006 .33898927 .628006 .4189911 .628006 .5029907 .588974 .5029907 .51290896 .5029907 .42485047 .3889923 .38381959 .3880005 .38381959 .3869934 .38381959 .38598634 .38381959 .3769989 .38882447L.23298645 .46287538M.2889862 .31376649 .44400025 .23469544C.47999574 .21568299 .5309906 .18865967 .5309906 .1346283 .5309906 .05355835 .42999269 .01852417 .34098817 .01852417 .25 .01852417 .14898682 .063568118 .14898682 .15463257 .14898682 .2537079 .25698854 .29974366 .2889862 .31376649Z"/>
<path id="font_8_2" d="M.49398805 .31782533C.49398805 .25479127 .48999024 .17860413 .45599366 .1194458 .4229889 .061447145 .3639984 .01852417 .2829895 .01852417 .27198792 .01852417 .21099854 .01852417 .1769867 .04244995 .20199585 .049453737 .21699524 .06845093 .21699524 .094451908 .21699524 .12644959 .19299317 .14746094 .1639862 .14746094 .14698792 .14746094 .11099243 .13845825 .11099243 .09144592 .11099243-.022460938 .2579956-.022460938 .2849884-.022460938 .45298768-.022460938 .59999087 .12045288 .59999087 .32783509 .59999087 .5699768 .48199464 .6660156 .34399415 .6660156 .24398804 .6660156 .19499207 .63101199 .15499878 .59698489 .09298706 .5459595 .07998657 .49093629 .07998657 .43989564 .07998657 .38287355 .09700012 .3318329 .15098572 .2848053 .19799805 .2427826 .24398804 .21679688 .32899476 .21679688 .36999513 .21679688 .44198609 .23078919 .49398805 .31782533M.33099366 .25079347C.29100038 .25079347 .25299073 .25779725 .21699524 .30282594 .18699646 .33984376 .18598938 .38085938 .18598938 .43989564 .18598938 .51194766 .18899536 .54196169 .22698975 .5819855 .24198914 .598999 .27198792 .628006 .34399415 .628006 .4909973 .628006 .4909973 .46290589 .4909973 .41989137 .4909973 .33683778 .43199159 .25079347 .33099366 .25079347Z"/>
<path id="font_9_1" d="M.6539917 .67807009C.6569977 .68907168 .6569977 .69107058 .6569977 .69407656 .6569977 .69506838 .6559906 .7050781 .644989 .7050781 .6399994 .7050781 .6389923 .70407107 .6269989 .6900635 .61299136 .6750641 .625 .6880646 .57899478 .6340332 .5419922 .6900635 .48399354 .7050781 .43099977 .7050781 .3019867 .7050781 .17999268 .58999636 .17999268 .46990968 .17999268 .42886354 .19299317 .39483644 .21899414 .3668213 .24798584 .336792 .272995 .3307953 .34498597 .31178285L.42900086 .29075624C.46099855 .27975465 .49398805 .24871826 .49398805 .19168091 .49398805 .1026001 .40899659 .008529663 .30899049 .008529663 .25 .008529663 .1309967 .026550293 .1309967 .15464783 .1309967 .16365052 .1309967 .17866516 .13699341 .20869446 .13899231 .21269226 .13899231 .21469116 .13899231 .21569824 .13899231 .21969605 .13699341 .22669983 .125 .22669983 .11299133 .22669983 .11199951 .2217102 .10798645 .20469666L.054992677-.011474609C.054992677-.017471314 .05999756-.022460938 .066986087-.022460938 .07199097-.022460938 .07299805-.021469117 .085998538-.007461548 .09199524-.00047302247 .12098694 .03555298 .1329956 .048568727 .18499756-.018463135 .2769928-.022460938 .30699159-.022460938 .44499208-.022460938 .5649872 .10661316 .5649872 .23271179 .5649872 .35681153 .46699525 .38183595 .43598939 .38883973L.34498597 .41285707C.31199647 .42086793 .25099183 .4368744 .25099183 .51293948 .25099183 .5890045 .33099366 .677063 .43099977 .677063 .47099305 .677063 .5099945 .6660614 .5379944 .63804629 .57598879 .6010132 .57699587 .54696658 .57699587 .5209503 .57699587 .48791505 .57299807 .47691346 .57299807 .4689026 .57299807 .46089173 .57699587 .45588685 .58699038 .45588685 .59799197 .45588685 .59799197 .457901 .6029968 .47691346L.6539917 .67807009Z"/>
<path id="font_10_1" d="M.70799258 .3310089C.7220001 .3310089 .7409973 .3310089 .7409973 .35202027 .7409973 .37402345 .71899417 .37402345 .70399478 .37402345H.09399414C.07899475 .37402345 .056991579 .37402345 .056991579 .35202027 .056991579 .3310089 .07699585 .3310089 .08999634 .3310089H.70799258M.70399478 .12695313C.71899417 .12695313 .7409973 .12695313 .7409973 .14894104 .7409973 .1699524 .7220001 .1699524 .70799258 .1699524H.08999634C.07699585 .1699524 .056991579 .1699524 .056991579 .14894104 .056991579 .12695313 .07899475 .12695313 .09399414 .12695313H.70399478Z"/>
<path id="font_11_2" d="M.3849945 .36080934C.45899964 .39382936 .5149994 .4428711 .5149994 .51493838 .5149994 .61302188 .4099884 .66503909 .30599977 .66503909 .19299317 .66503909 .09498596 .5970001 .09498596 .49591065 .09498596 .4338684 .13598633 .38581849 .17799378 .36080934 .18798828 .35479737 .21199036 .34178163 .22200012 .3357849 .1559906 .3107605 .06298828 .25471498 .06298828 .15362549 .06298828 .03652954 .18798828-.021484375 .3039856-.021484375 .43699647-.021484375 .5469971 .058547975 .5469971 .16964722 .5469971 .23869324 .5049896 .27973939 .48999024 .29475404 .47099305 .3127594 .42099 .3407898 .3849945 .36080934M.20399475 .45988465C.20199585 .46089173 .15098572 .48890687 .15098572 .5349579 .15098572 .6000061 .22999573 .6320343 .3039856 .6320343 .38198854 .6320343 .45899964 .58898928 .45899964 .5139313 .45899964 .4368744 .37599183 .39582826 .34799195 .38182069L.20399475 .45988465M.2619934 .3147583C.272995 .3087616 .37998963 .248703 .40699769 .23469544 .42799378 .22167969 .48298646 .19166565 .48298646 .13461304 .48298646 .055541994 .3909912 .014511108 .30599977 .014511108 .21299744 .014511108 .1269989 .06855774 .1269989 .15362549 .1269989 .23869324 .20698548 .29475404 .2619934 .3147583Z"/>
<path id="font_11_1" d="M.2939911 .33203126C.3789978 .33203126 .43598939 .274765 .43598939 .17237854 .43598939 .062408449 .36999513 .014511108 .29699708 .014511108 .269989 .014511108 .16699219 .020492554 .12199402 .07836914 .16099549 .0823822 .1769867 .10836792 .1769867 .13537598 .1769867 .16937256 .15299988 .19238281 .11999512 .19238281 .09298706 .19238281 .06298828 .17536927 .06298828 .13337708 .06298828 .034469606 .17298889-.021484375 .2999878-.021484375 .44799806-.021484375 .5469971 .07337952 .5469971 .17237854 .5469971 .24562073 .4909973 .3229828 .37199403 .35302735 .45098878 .37902833 .5149994 .44306947 .5149994 .5251007 .5149994 .60505679 .42099 .66503909 .30099488 .66503909 .18399048 .66503909 .09498596 .61105349 .09498596 .5290985 .09498596 .48609925 .12799073 .47409059 .147995 .47409059 .17399597 .47409059 .20098877 .49209596 .20098877 .5270996 .20098877 .5580902 .1789856 .5760956 .1519928 .5800934 .19898987 .6320343 .2899933 .6320343 .29899598 .6320343 .34999085 .6320343 .4139862 .60806277 .4139862 .5251007 .4139862 .47009278 .3829956 .37402345 .2829895 .36802674 .2649994 .36701966 .23799134 .36502076 .22898865 .36502076 .21899414 .36402894 .20799256 .36302186 .20799256 .34802247 .20799256 .33203126 .21899414 .33203126 .23599243 .33203126H.2939911Z"/>
<path id="font_3_2" d="M.33399964 .30233766C.33999635 .32835389 .36299134 .42037965 .43299867 .42037965 .43798829 .42037965 .46199037 .42037965 .48298646 .40734864 .45498658 .402359 .43499757 .37734986 .43499757 .35334779 .43499757 .33735658 .44599916 .31835938 .47299195 .31835938 .49499513 .31835938 .5269928 .3363495 .5269928 .37635804 .5269928 .42837525 .46798707 .4423828 .43399049 .4423828 .37599183 .4423828 .34098817 .38935853 .32899476 .36634828 .3039856 .43237306 .25 .4423828 .22099304 .4423828 .116989139 .4423828 .05999756 .3133545 .05999756 .28834535 .05999756 .27833558 .069992069 .27833558 .07199097 .27833558 .07998657 .27833558 .08299255 .28033448 .084991458 .28933717 .11898804 .39535523 .18499756 .42037965 .21899414 .42037965 .23799134 .42037965 .272995 .4113617 .272995 .35334779 .272995 .32235719 .2559967 .25532533 .21899414 .11528015 .20298767 .053268434 .16799927 .011245728 .12399292 .011245728 .117996219 .011245728 .09498596 .011245728 .07398987 .024276734 .09899902 .029266358 .12098694 .05027771 .12098694 .07827759 .12098694 .105270389 .09899902 .11328125 .083999637 .11328125 .053985597 .11328125 .0289917 .08728027 .0289917 .055267335 .0289917 .009246826 .07899475-.0107421879 .12298584-.0107421879 .18899536-.0107421879 .22499085 .059280397 .22799683 .0652771 .23999024 .028274537 .27598573-.0107421879 .33599855-.0107421879 .43899537-.0107421879 .49598695 .118270877 .49598695 .14328003 .49598695 .1532898 .4869995 .1532898 .48399354 .1532898 .47499085 .1532898 .47299195 .14929199 .47099305 .14228821 .43798829 .03527832 .36999513 .011245728 .33799745 .011245728 .29899598 .011245728 .2829895 .043273927 .2829895 .07727051 .2829895 .09927368 .2889862 .121276859 .2999878 .16529846L.33399964 .30233766Z"/>
<path id="font_3_3" d="M.48599244 .38136292C.48999024 .39537049 .48999024 .39736939 .48999024 .40437318 .48999024 .42237855 .47599793 .43138124 .46099855 .43138124 .45098878 .43138124 .43499757 .42536927 .42599488 .41036988 .42399598 .405365 .41600038 .37435914 .4119873 .35635377 .40499879 .33035279 .397995 .30334474 .3919983 .27633668L.34700013 .09628296C.34298707 .08126831 .2999878 .011245728 .23399353 .011245728 .18299866 .011245728 .17199707 .055267335 .17199707 .0922699 .17199707 .1382904 .18899536 .20030213 .22299195 .28833009 .23899842 .3293457 .24299622 .3403473 .24299622 .36035157 .24299622 .405365 .21099854 .4423828 .16099549 .4423828 .06599426 .4423828 .0289917 .29733277 .0289917 .28833009 .0289917 .27833558 .038986207 .27833558 .040985109 .27833558 .050994874 .27833558 .051986696 .28033448 .056991579 .29634095 .083999637 .3903656 .12399292 .42037965 .1579895 .42037965 .1659851 .42037965 .18299866 .42037965 .18299866 .3883667 .18299866 .36335755 .17298889 .3373413 .1659851 .31834413 .12599182 .21231079 .10798645 .1552887 .10798645 .10827637 .10798645 .019256592 .17098999-.0107421879 .22999573-.0107421879 .2689972-.0107421879 .30299378 .0062561037 .33099366 .03425598 .31799317-.017745972 .30599977-.06674194 .2659912-.11973572 .23999024-.15385437 .20199585-.18309021 .1559906-.18309021 .14199829-.18309021 .09700012-.18005371 .07998657-.14074707 .09599304-.14074707 .10899353-.14074707 .12298584-.1287384 .1329956-.11973572 .14299011-.10673523 .14299011-.08773804 .14299011-.056747438 .115997318-.052734376 .10598755-.052734376 .08299255-.052734376 .049987794-.068740848 .049987794-.11773682 .049987794-.16796875 .09399414-.20507813 .1559906-.20507813 .25898744-.20507813 .3619995-.11373901 .3899994-.00074768069L.48599244 .38136292Z"/>
</defs>
<path transform="matrix(1,0,0,-1,9.517,78.336009)" stroke-width=".3985" stroke-linecap="butt" stroke-miterlimit="10" stroke-linejoin="miter" fill="none" stroke="#e5e6e5" d="M42.95436 0V75.14912M71.59062 0V75.14912M100.2269 0V75.14912M128.86315 0V75.14912"/>
<path transform="matrix(1,0,0,-1,9.517,78.336009)" stroke-width=".3985" stroke-linecap="butt" stroke-miterlimit="10" stroke-linejoin="miter" fill="none" stroke="#e5e6e5" d="M0 37.57455H143.18128M0 61.05865H143.18128"/>
<path transform="matrix(1,0,0,-1,9.517,78.336009)" stroke-width=".19925" stroke-linecap="butt" stroke-miterlimit="10" stroke-linejoin="miter" fill="none" stroke="#7f807f" d="M42.95436 12.81485V15.36604M71.59062 12.81485V15.36604M100.2269 12.81485V15.36604M128.86315 12.81485V15.36604"/>
<path transform="matrix(1,0,0,-1,9.517,78.336009)" stroke-width=".19925" stroke-linecap="butt" stroke-miterlimit="10" stroke-linejoin="miter" fill="none" stroke="#7f807f" d="M13.04257 37.57455H15.59364M13.04257 61.05865H15.59364"/>
<path transform="matrix(1,0,0,-1,9.517,78.336009)" stroke-width=".3985" stroke-linecap="butt" stroke-miterlimit="10" stroke-linejoin="miter" fill="none" stroke="#000000" d="M0 14.09045H141.18875"/>
<path transform="matrix(1,0,0,-1,150.70575,64.24556)" d="M1.99252 0-1.19551 1.59401 0 0-1.19551-1.59401"/>
<path transform="matrix(1,0,0,-1,9.517,78.336009)" stroke-width=".3985" stroke-linecap="butt" stroke-miterlimit="10" stroke-linejoin="miter" fill="none" stroke="#000000" d="M14.31812 0V73.1566"/>
<path transform="matrix(0,-1,-1,-0,23.835122,5.179405)" d="M1.99252 0-1.19551 1.59401 0 0-1.19551-1.59401"/>
<g clip-path="url(#clip_1)">
</g>
<use data-text="1" xlink:href="#font_2_2" transform="matrix(9.96264,0,0,-9.96264,49.980005,75.462009)"/>
<use data-text="2" xlink:href="#font_2_3" transform="matrix(9.96264,0,0,-9.96264,78.616,75.462009)"/>
<use data-text="3" xlink:href="#font_2_4" transform="matrix(9.96264,0,0,-9.96264,107.252,75.462009)"/>
<use data-text="4" xlink:href="#font_2_5" transform="matrix(9.96264,0,0,-9.96264,135.888,75.462009)"/>
<use data-text="0" xlink:href="#font_2_1" transform="matrix(9.96264,0,0,-9.96264,6.309,43.97201)"/>
<use data-text="." xlink:href="#font_3_1" transform="matrix(9.96264,0,0,-9.96264,11.291,43.97201)"/>
<use data-text="5" xlink:href="#font_2_6" transform="matrix(9.96264,0,0,-9.96264,14.058,43.97201)"/>
<use data-text="1" xlink:href="#font_2_2" transform="matrix(9.96264,0,0,-9.96264,14.058001,20.48901)"/>
<g clip-path="url(#clip_4)">
<path transform="matrix(1,0,0,-1,9.517,78.336009)" stroke-width=".79701" stroke-linecap="butt" stroke-miterlimit="10" stroke-linejoin="miter" fill="none" stroke="#2471a3" d="M5.72723-1.05678 6.38919 .18547 7.05113 1.4152 7.71307 2.63239 8.37502 3.83702 9.03696 5.0291 9.6989 6.20863 10.36084 7.37563 11.0228 8.53006 11.68474 9.67195 12.34668 10.8013 13.00864 11.91809 13.67056 13.02234 14.3325 14.11404 14.99446 15.19319 15.6564 16.25978 16.31834 17.31383 16.98029 18.35533 17.64224 19.3843 18.30418 20.4007 18.96613 21.40456 19.62807 22.39586 20.29001 23.37463 20.95195 24.34085 21.61389 25.29453 22.27585 26.23564 22.93779 27.16422 23.59973 28.08022 24.26169 28.9837 24.92361 29.87463 25.58556 30.753 26.2475 31.61884 26.90945 32.47212 27.5714 33.31285 28.23334 34.14104 28.8953 34.95667 29.55724 35.75977 30.21916 36.5503 30.88112 37.32828 31.54306 38.09373 32.205 38.84662 32.86694 39.58696 33.52888 40.31476 34.19084 41.03003 34.85278 41.73273 35.51474 42.42288 36.17667 43.10048 36.83861 43.76553 37.50055 44.41805 38.16249 45.058 38.82445 45.68542 39.48639 46.30028 40.14833 46.90259 40.81029 47.49236 41.47221 48.0696 42.13416 48.63425 42.79611 49.18637 43.45805 49.72595 44.12 50.25299 44.78194 50.76746 45.4439 51.26938 46.10583 51.75877 46.76779 52.2356 47.42972 52.69989 48.09166 53.15163 48.7536 53.5908 49.41554 54.01746 50.0775 54.43156 50.73944 54.83308 51.40138 55.22208 52.06334 55.59854 52.72527 55.96243 53.3872 56.31378 54.04915 56.65259 54.7111 56.97885 55.37305 57.29256 56.03499 57.5937 56.69695 57.88231 57.35889 58.15839 58.02083 58.42189 58.68277 58.67285 59.34471 58.91125 60.00665 59.13713 60.6686 59.35046 61.33054 59.55124 61.9925 59.73946 62.65443 59.91513 63.31639 60.07826 63.97832 60.22884 64.64026 60.36687 65.3022 60.49234 65.96414 60.60529 66.6261 60.70567 67.28804 60.7935 67.94998 60.86879 68.61194 60.93155 69.27388 60.98174 69.9358 61.01938 70.59776 61.04446 71.2597 61.05702H71.92165L72.58359 61.04446 73.24554 61.01938 73.90749 60.98174 74.56944 60.93155 75.23137 60.86879 75.89331 60.7935 76.55525 60.70567 77.2172 60.60529 77.87915 60.49234 78.54109 60.36687 79.20303 60.22884 79.86499 60.07826 80.52693 59.91513 81.18886 59.73946 81.8508 59.55124 82.51276 59.35046 83.1747 59.13713 83.83664 58.91125 84.4986 58.67285 85.16054 58.42189 85.82248 58.15839 86.48442 57.88231 87.14636 57.5937 87.8083 57.29256 88.47025 56.97885 89.13219 56.65259 89.79414 56.31378 90.45609 55.96243 91.11804 55.59854 91.77997 55.22208 92.44191 54.83308 93.10385 54.43156 93.7658 54.01746 94.42775 53.5908 95.08969 53.15163 95.75163 52.69989 96.41359 52.2356 97.07553 51.75877 97.73747 51.26938 98.39941 50.76746 99.06136 50.25299 99.7233 49.72595 100.38524 49.18637 101.0472 48.63425 101.70914 48.0696 102.3711 47.49236 103.03302 46.90259 103.69496 46.30028 104.3569 45.68542 105.01884 45.058 105.6808 44.41805 106.34274 43.76553 107.00468 43.10048 107.66664 42.42288 108.32858 41.73273 108.99051 41.03003 109.65245 40.31476 110.3144 39.58696 110.97635 38.84662 111.63829 38.09373 112.30025 37.32828 112.96219 36.5503 113.62413 35.75977 114.28607 34.95667 114.94801 34.14104 115.60995 33.31285 116.2719 32.47212 116.93384 31.61884 117.5958 30.753 118.25774 29.87463 118.9197 28.9837 119.58163 28.08022 120.24356 27.16422 120.9055 26.23564 121.56744 25.29453 122.2294 24.34085 122.89134 23.37463 123.55328 22.39586 124.21524 21.40456 124.87718 20.4007 125.53912 19.3843 126.20107 18.35533 126.863 17.31383 127.52495 16.25978 128.18689 15.19319 128.84885 14.11404 129.51079 13.02234 130.17275 11.91809 130.83469 10.8013 131.49662 9.67195 132.15856 8.53006 132.8205 7.37563 133.48246 6.20863 134.1444 5.0291 134.80634 3.83702 135.46829 2.63239 136.13024 1.4152 136.79216 .18547 137.4541-1.05678"/>
<path transform="matrix(1,0,0,-1,9.517,78.336009)" stroke-width=".79701" stroke-linecap="butt" stroke-dasharray="2.98883,2.98883" stroke-miterlimit="10" stroke-linejoin="miter" fill="none" stroke="#b30000" d="M5.72723 55.8399H6.38919 7.05113 7.71307 8.37502 9.03696 9.6989 10.36084 11.0228 11.68474 12.34668 13.00864 13.67056 14.3325 14.99446 15.6564 16.31834 16.98029 17.64224 18.30418 18.96613 19.62807 20.29001 20.95195 21.61389 22.27585 22.93779 23.59973 24.26169 24.92361 25.58556 26.2475 26.90945 27.5714 28.23334 28.8953 29.55724 30.21916 30.88112 31.54306 32.205 32.86694 33.52888 34.19084 34.85278 35.51474 36.17667 36.83861 37.50055 38.16249 38.82445 39.48639 40.14833 40.81029 41.47221 42.13416 42.79611 43.45805 44.12 44.78194 45.4439 46.10583 46.76779 47.42972 48.09166 48.7536 49.41554 50.0775 50.73944 51.40138 52.06334 52.72527 53.3872 54.04915 54.7111 55.37305 56.03499 56.69695 57.35889 58.02083 58.68277 59.34471 60.00665 60.6686 61.33054 61.9925 62.65443 63.31639 63.97832 64.64026 65.3022 65.96414 66.6261 67.28804 67.94998 68.61194 69.27388 69.9358 70.59776 71.2597 71.92165 72.58359 73.24554 73.90749 74.56944 75.23137 75.89331 76.55525 77.2172 77.87915 78.54109 79.20303 79.86499 80.52693 81.18886 81.8508 82.51276 83.1747 83.83664 84.4986 85.16054 85.82248 86.48442 87.14636 87.8083 88.47025 89.13219 89.79414 90.45609 91.11804 91.77997 92.44191 93.10385 93.7658 94.42775 95.08969 95.75163 96.41359 97.07553 97.73747 98.39941 99.06136 99.7233 100.38524 101.0472 101.70914 102.3711 103.03302 103.69496 104.3569 105.01884 105.6808 106.34274 107.00468 107.66664 108.32858 108.99051 109.65245 110.3144 110.97635 111.63829 112.30025 112.96219 113.62413 114.28607 114.94801 115.60995 116.2719 116.93384 117.5958 118.25774 118.9197 119.58163 120.24356 120.9055 121.56744 122.2294 122.89134 123.55328 124.21524 124.87718 125.53912 126.20107 126.863 127.52495 128.18689 128.84885 129.51079 130.17275 130.83469 131.49662 132.15856 132.8205 133.48246 134.1444 134.80634 135.46829 136.13024 136.79216 137.4541"/>
<path transform="matrix(1,0,0,-1,9.517,78.336009)" stroke-width=".3985" stroke-linecap="butt" stroke-miterlimit="10" stroke-linejoin="miter" fill="none" stroke="#1b4f72" d="M27.37625 14.09045V55.84517H115.805V14.09045Z"/>
<use data-text="O" xlink:href="#font_5_2" transform="matrix(6.97385,0,0,-6.97385,20.698,72.531009)"/>
<use data-text="A" xlink:href="#font_5_1" transform="matrix(6.97385,0,0,-6.97385,135.382,72.531009)"/>
<use data-text="v" xlink:href="#font_6_112" transform="matrix(6.97385,0,0,-6.97385,69.572,13.689003)" fill="#1e8449"/>
<use data-text="e" xlink:href="#font_6_50" transform="matrix(6.97385,0,0,-6.97385,73.54012,13.689003)" fill="#1e8449"/>
<use data-text="r" xlink:href="#font_6_96" transform="matrix(6.97385,0,0,-6.97385,77.08284,13.689003)" fill="#1e8449"/>
<use data-text="t" xlink:href="#font_6_105" transform="matrix(6.97385,0,0,-6.97385,80.19318,13.689003)" fill="#1e8449"/>
<use data-text="i" xlink:href="#font_6_66" transform="matrix(6.97385,0,0,-6.97385,83.30351,13.689003)" fill="#1e8449"/>
<use data-text="c" xlink:href="#font_6_43" transform="matrix(6.97385,0,0,-6.97385,85.55607,13.689003)" fill="#1e8449"/>
<use data-text="e" xlink:href="#font_6_50" transform="matrix(6.97385,0,0,-6.97385,89.098789,13.689003)" fill="#1e8449"/>
<use data-text="y" xlink:href="#font_5_3" transform="matrix(6.97385,0,0,-6.97385,141.898,24.235005)" fill="#b30000"/>
<use data-text="=" xlink:href="#font_7_1" transform="matrix(6.97385,0,0,-6.97385,148.456,24.235005)" fill="#b30000"/>
<use data-text="8" xlink:href="#font_8_1" transform="matrix(4.98132,0,0,-4.98132,158.036,21.558003)" fill="#b30000"/>
<path transform="matrix(1,0,0,-1,158.036,22.492005)" stroke-width=".339" stroke-linecap="butt" stroke-miterlimit="10" stroke-linejoin="miter" fill="none" stroke="#b30000" d="M0 0H3.39"/>
<use data-text="9" xlink:href="#font_8_2" transform="matrix(4.98132,0,0,-4.98132,158.036,26.636006)" fill="#b30000"/>
<use data-text="S" xlink:href="#font_9_1" transform="matrix(8.96638,0,0,-8.96638,68.871,47.700006)" fill="#2471a3"/>
<use data-text="=" xlink:href="#font_10_1" transform="matrix(8.96638,0,0,-8.96638,77.57,47.700006)" fill="#2471a3"/>
<use data-text="8" xlink:href="#font_11_2" transform="matrix(5.97758,0,0,-5.97758,88.493,44.027006)" fill="#2471a3"/>
<path transform="matrix(1,0,0,-1,88.493,45.459005)" stroke-width=".379" stroke-linecap="butt" stroke-miterlimit="10" stroke-linejoin="miter" fill="none" stroke="#2471a3" d="M0 0H3.653"/>
<use data-text="3" xlink:href="#font_11_1" transform="matrix(5.97758,0,0,-5.97758,88.493,50.743005)" fill="#2471a3"/>
</g>
<path transform="matrix(1,0,0,-1,9.517,78.336009)" d="M15.51367 14.09044C15.51367 14.75072 14.97841 15.28598 14.31813 15.28598 13.65785 15.28598 13.12259 14.75072 13.12259 14.09044 13.12259 13.43015 13.65785 12.89488 14.31813 12.89488 14.97841 12.89488 15.51367 13.43015 15.51367 14.09044ZM14.31813 14.09044" fill="#1e8449"/>
<path transform="matrix(1,0,0,-1,9.517,78.336009)" stroke-width=".79701" stroke-linecap="butt" stroke-miterlimit="10" stroke-linejoin="miter" fill="none" stroke="#1e8449" d="M15.51367 14.09044C15.51367 14.75072 14.97841 15.28598 14.31813 15.28598 13.65785 15.28598 13.12259 14.75072 13.12259 14.09044 13.12259 13.43015 13.65785 12.89488 14.31813 12.89488 14.97841 12.89488 15.51367 13.43015 15.51367 14.09044ZM14.31813 14.09044"/>
<path transform="matrix(1,0,0,-1,9.517,78.336009)" d="M130.05878 14.09044C130.05878 14.75072 129.52352 15.28598 128.86322 15.28598 128.20294 15.28598 127.66768 14.75072 127.66768 14.09044 127.66768 13.43015 128.20294 12.89488 128.86322 12.89488 129.52352 12.89488 130.05878 13.43015 130.05878 14.09044ZM128.86322 14.09044" fill="#1e8449"/>
<path transform="matrix(1,0,0,-1,9.517,78.336009)" stroke-width=".79701" stroke-linecap="butt" stroke-miterlimit="10" stroke-linejoin="miter" fill="none" stroke="#1e8449" d="M130.05878 14.09044C130.05878 14.75072 129.52352 15.28598 128.86322 15.28598 128.20294 15.28598 127.66768 14.75072 127.66768 14.09044 127.66768 13.43015 128.20294 12.89488 128.86322 12.89488 129.52352 12.89488 130.05878 13.43015 130.05878 14.09044ZM128.86322 14.09044"/>
<path transform="matrix(1,0,0,-1,9.517,78.336009)" d="M72.78621 61.0586C72.78621 61.71887 72.25095 62.25414 71.59067 62.25414 70.93039 62.25414 70.39513 61.71887 70.39513 61.0586 70.39513 60.3983 70.93039 59.86304 71.59067 59.86304 72.25095 59.86304 72.78621 60.3983 72.78621 61.0586ZM71.59067 61.0586" fill="#1e8449"/>
<path transform="matrix(1,0,0,-1,9.517,78.336009)" stroke-width=".79701" stroke-linecap="butt" stroke-miterlimit="10" stroke-linejoin="miter" fill="none" stroke="#1e8449" d="M72.78621 61.0586C72.78621 61.71887 72.25095 62.25414 71.59067 62.25414 70.93039 62.25414 70.39513 61.71887 70.39513 61.0586 70.39513 60.3983 70.93039 59.86304 71.59067 59.86304 72.25095 59.86304 72.78621 60.3983 72.78621 61.0586ZM71.59067 61.0586"/>
<path transform="matrix(1,0,0,-1,9.517,78.336009)" stroke-width=".79701" stroke-linecap="butt" stroke-miterlimit="10" stroke-linejoin="miter" fill="none" stroke="#1e8449" d=""/>
<use data-text="x" xlink:href="#font_3_2" transform="matrix(9.96264,0,0,-9.96264,143.283,60.52701)"/>
<use data-text="y" xlink:href="#font_3_3" transform="matrix(9.96264,0,0,-9.96264,27.554,11.197006)"/>
</svg>
