<svg xmlns="http://www.w3.org/2000/svg" xmlns:xlink="http://www.w3.org/1999/xlink" xmlns:inkscape="http://www.inkscape.org/namespaces/inkscape" version="1.1" width="239.814" height="131.666" viewBox="0 0 239.814 131.666">
<defs>
<path id="font_1_1" d="M.33399964 .30233766C.33999635 .32835389 .36299134 .42037965 .43299867 .42037965 .43798829 .42037965 .46199037 .42037965 .48298646 .40734864 .45498658 .402359 .43499757 .37734986 .43499757 .35334779 .43499757 .33735658 .44599916 .31835938 .47299195 .31835938 .49499513 .31835938 .5269928 .3363495 .5269928 .37635804 .5269928 .42837525 .46798707 .4423828 .43399049 .4423828 .37599183 .4423828 .34098817 .38935853 .32899476 .36634828 .3039856 .43237306 .25 .4423828 .22099304 .4423828 .116989139 .4423828 .05999756 .3133545 .05999756 .28834535 .05999756 .27833558 .069992069 .27833558 .07199097 .27833558 .07998657 .27833558 .08299255 .28033448 .084991458 .28933717 .11898804 .39535523 .18499756 .42037965 .21899414 .42037965 .23799134 .42037965 .272995 .4113617 .272995 .35334779 .272995 .32235719 .2559967 .25532533 .21899414 .11528015 .20298767 .053268434 .16799927 .011245728 .12399292 .011245728 .117996219 .011245728 .09498596 .011245728 .07398987 .024276734 .09899902 .029266358 .12098694 .05027771 .12098694 .07827759 .12098694 .105270389 .09899902 .11328125 .083999637 .11328125 .053985597 .11328125 .0289917 .08728027 .0289917 .055267335 .0289917 .009246826 .07899475-.0107421879 .12298584-.0107421879 .18899536-.0107421879 .22499085 .059280397 .22799683 .0652771 .23999024 .028274537 .27598573-.0107421879 .33599855-.0107421879 .43899537-.0107421879 .49598695 .118270877 .49598695 .14328003 .49598695 .1532898 .4869995 .1532898 .48399354 .1532898 .47499085 .1532898 .47299195 .14929199 .47099305 .14228821 .43798829 .03527832 .36999513 .011245728 .33799745 .011245728 .29899598 .011245728 .2829895 .043273927 .2829895 .07727051 .2829895 .09927368 .2889862 .121276859 .2999878 .16529846L.33399964 .30233766Z"/>
<path id="font_1_2" d="M.48599244 .38136292C.48999024 .39537049 .48999024 .39736939 .48999024 .40437318 .48999024 .42237855 .47599793 .43138124 .46099855 .43138124 .45098878 .43138124 .43499757 .42536927 .42599488 .41036988 .42399598 .405365 .41600038 .37435914 .4119873 .35635377 .40499879 .33035279 .397995 .30334474 .3919983 .27633668L.34700013 .09628296C.34298707 .08126831 .2999878 .011245728 .23399353 .011245728 .18299866 .011245728 .17199707 .055267335 .17199707 .0922699 .17199707 .1382904 .18899536 .20030213 .22299195 .28833009 .23899842 .3293457 .24299622 .3403473 .24299622 .36035157 .24299622 .405365 .21099854 .4423828 .16099549 .4423828 .06599426 .4423828 .0289917 .29733277 .0289917 .28833009 .0289917 .27833558 .038986207 .27833558 .040985109 .27833558 .050994874 .27833558 .051986696 .28033448 .056991579 .29634095 .083999637 .3903656 .12399292 .42037965 .1579895 .42037965 .1659851 .42037965 .18299866 .42037965 .18299866 .3883667 .18299866 .36335755 .17298889 .3373413 .1659851 .31834413 .12599182 .21231079 .10798645 .1552887 .10798645 .10827637 .10798645 .019256592 .17098999-.0107421879 .22999573-.0107421879 .2689972-.0107421879 .30299378 .0062561037 .33099366 .03425598 .31799317-.017745972 .30599977-.06674194 .2659912-.11973572 .23999024-.15385437 .20199585-.18309021 .1559906-.18309021 .14199829-.18309021 .09700012-.18005371 .07998657-.14074707 .09599304-.14074707 .10899353-.14074707 .12298584-.1287384 .1329956-.11973572 .14299011-.10673523 .14299011-.08773804 .14299011-.056747438 .115997318-.052734376 .10598755-.052734376 .08299255-.052734376 .049987794-.068740848 .049987794-.11773682 .049987794-.16796875 .09399414-.20507813 .1559906-.20507813 .25898744-.20507813 .3619995-.11373901 .3899994-.00074768069L.48599244 .38136292Z"/>
<path id="font_2_1" d="M.69898989 .22743225C.71499636 .22743225 .7369995 .22743225 .7369995 .25042726 .7369995 .2734375 .71499636 .2734375 .69898989 .2734375H.12599182C.10998535 .2734375 .08799744 .2734375 .08799744 .25042726 .08799744 .22743225 .10998535 .22743225 .12599182 .22743225H.69898989Z"/>
<path id="font_3_2" d="M.28199769 .20405579C.2979889 .21907044 .33999635 .2520752 .35598756 .26608277 .41799928 .32312013 .47698976 .3781433 .47698976 .46917726 .47698976 .588089 .3769989 .66503909 .2519989 .66503909 .13198853 .66503909 .052993776 .57411196 .052993776 .48516847 .052993776 .4361725 .09199524 .4291687 .10598755 .4291687 .1269989 .4291687 .1579895 .4441681 .1579895 .48217774 .1579895 .5341797 .10798645 .5341797 .09599304 .5341797 .125 .6070709 .19198609 .6320343 .24099732 .6320343 .33399964 .6320343 .38198854 .55314639 .38198854 .46917726 .38198854 .36514283 .30899049 .28910829 .19099427 .16804505L.06498718 .037994386C.052993776 .026992798 .052993776 .024993897 .052993776 0H.44799806L.47698976 .17904663H.44599916C.44299317 .1590271 .43499757 .10900879 .4229889 .08999634 .4169922 .08198547 .34098817 .08198547 .32499696 .08198547H.14698792L.28199769 .20405579Z"/>
<path id="font_3_1" d="M.31399537 .63708499C.31399537 .664032 .31199647 .66503909 .2849884 .66503909 .24398804 .6251831 .19099427 .6013489 .09599304 .6013489V.5683594C.12298584 .5683594 .1769867 .5683594 .23498535 .5953522V.08203125C.23498535 .04499817 .23199463 .032989503 .13699341 .032989503H.101989749V0C.14299011 .0029907227 .22898865 .0029907227 .27398683 .0029907227 .31900025 .0029907227 .4059906 .0029907227 .44699098 0V.032989503H.4119873C.31698609 .032989503 .31399537 .04499817 .31399537 .08203125V.63708499Z"/>
<path id="font_4_1" d="M.55400088 .6796112H.032989503V.64860537H.056991579C.13398743 .64860537 .13598633 .637619 .13598633 .6016388V.07795715C.13598633 .041992189 .13398743 .0309906 .056991579 .0309906H.032989503V0C.067993167 .0029907227 .1459961 .0029907227 .18499756 .0029907227 .22599793 .0029907227 .31698609 .0029907227 .35299684 0V.0309906H.31999208C.22499085 .0309906 .22499085 .04399109 .22499085 .07896423V.6086273C.22499085 .6416168 .22698975 .64860537 .27398683 .64860537H.3769989C.519989 .64860537 .54100039 .5896454 .5569916 .45472718H.58200076L.55400088 .6796112Z"/>
<path id="font_5_1" d="M.33499146 .63612368C.33499146 .6630554 .33299256 .6640625 .30499269 .6640625 .24099732 .6014404 .1499939 .6004486 .10899353 .6004486V.5644531C.1329956 .5644531 .19898987 .5644531 .2539978 .592453V.08203125C.2539978 .04899597 .2539978 .035995485 .1539917 .035995485H.115997318V0C.13398743 .0009918213 .25698854 .0039978029 .2939911 .0039978029 .32499696 .0039978029 .45098878 .0009918213 .47299195 0V.035995485H.43499757C.33499146 .035995485 .33499146 .04899597 .33499146 .08203125V.63612368Z"/>
<path id="font_5_2" d="M.5049896 .18203736H.47099305C.46798707 .16001892 .45799256 .100997928 .44499208 .09098816 .43699647 .084991458 .3600006 .084991458 .34599305 .084991458H.1619873C.2669983 .17803955 .3019867 .20603943 .3619995 .25306703 .43598939 .312088 .5049896 .374115 .5049896 .46914674 .5049896 .5900879 .39898683 .6640625 .2709961 .6640625 .14698792 .6640625 .06298828 .57710269 .06298828 .4851532 .06298828 .43414308 .10598755 .42915345 .115997318 .42915345 .13999939 .42915345 .16899109 .44615174 .16899109 .48214723 .16899109 .5001526 .1619873 .53515627 .10998535 .53515627 .14099121 .6060791 .20899964 .62805178 .2559967 .62805178 .35598756 .62805178 .4079895 .5501404 .4079895 .46914674 .4079895 .38212586 .34599305 .3130951 .31399537 .27708436L.07299805 .038986207C.06298828 .02999878 .06298828 .027999878 .06298828 0H.47499085L.5049896 .18203736Z"/>
<path id="font_5_3" d="M.272995 .33428956C.35099793 .33428956 .40699769 .2803192 .40699769 .1733551 .40699769 .04940796 .33499146 .012466431 .2769928 .012466431 .23699951 .012466431 .14898682 .0234375 .10699463 .082351688 .1539917 .084350589 .16499329 .11735535 .16499329 .13835144 .16499329 .17034912 .14099121 .19335938 .10998535 .19335938 .08198547 .19335938 .053985597 .17634583 .053985597 .13534546 .053985597 .041412355 .1579895-.01953125 .2789917-.01953125 .41799928-.01953125 .5139923 .07336426 .5139923 .1733551 .5139923 .2513275 .44999696 .32929994 .33999635 .35229493 .44499208 .39024354 .48298646 .4650879 .48298646 .5260773 .48298646 .60505679 .3919983 .6640625 .2809906 .6640625 .16999817 .6640625 .084991458 .61006167 .084991458 .5300751 .084991458 .49606324 .10699463 .47706605 .13699341 .47706605 .16799927 .47706605 .18798828 .5000763 .18798828 .5280762 .18798828 .5570679 .16799927 .57806399 .13699341 .5800781 .17199707 .62405398 .24099732 .63505557 .27799989 .63505557 .32299806 .63505557 .38598634 .6130676 .38598634 .5260773 .38598634 .48406983 .37199403 .43814088 .34599305 .4072113 .31298829 .36927796 .2849884 .3672943 .23498535 .36428834 .20999146 .3623047 .20799256 .3623047 .20298767 .3612976 .20098877 .3612976 .19299317 .3592987 .19299317 .34829713 .19299317 .33428956 .20199585 .33428956 .21899414 .33428956H.272995Z"/>
</defs>
<path transform="matrix(1,0,0,-1,113.739,102.966)" stroke-width=".3985" stroke-linecap="butt" stroke-miterlimit="10" stroke-linejoin="miter" fill="none" stroke="#000000" d="M-110.5528 0H106.96625"/>
<path transform="matrix(1,0,0,-1,220.70525,102.966)" d="M3.58653 0C2.52383 .19925 .797 .797-.3985 1.49438V-1.49438C.797-.797 2.52383-.19925 3.58653 0"/>
<use data-text="x" xlink:href="#font_1_1" transform="matrix(9.96264,0,0,-9.96264,227.811,110.775)"/>
<path transform="matrix(1,0,0,-1,113.739,102.966)" stroke-width=".3985" stroke-linecap="butt" stroke-miterlimit="10" stroke-linejoin="miter" fill="none" stroke="#000000" d="M0-25.51236V89.9578"/>
<path transform="matrix(0,-1,-1,-0,113.739,13.008202)" d="M3.58653 0C2.52383 .19925 .797 .797-.3985 1.49438V-1.49438C.797-.797 2.52383-.19925 3.58653 0"/>
<use data-text="y" xlink:href="#font_1_2" transform="matrix(9.96264,0,0,-9.96264,104.978,10.599014)"/>
<path transform="matrix(1,0,0,-1,113.739,102.966)" stroke-width=".3985" stroke-linecap="butt" stroke-miterlimit="10" stroke-linejoin="miter" fill="none" stroke="#000000" d="M-85.04042 2.12611V-2.12611"/>
<use data-text="&#x2212;" xlink:href="#font_2_1" transform="matrix(7.97011,0,0,-7.97011,23.29,113.748)"/>
<use data-text="2" xlink:href="#font_3_2" transform="matrix(7.97011,0,0,-7.97011,29.876,113.748)"/>
<path transform="matrix(1,0,0,-1,113.739,102.966)" stroke-width=".3985" stroke-linecap="butt" stroke-miterlimit="10" stroke-linejoin="miter" fill="none" stroke="#000000" d="M-42.5202 2.12611V-2.12611"/>
<use data-text="&#x2212;" xlink:href="#font_2_1" transform="matrix(7.97011,0,0,-7.97011,65.809,113.748)"/>
<use data-text="1" xlink:href="#font_3_1" transform="matrix(7.97011,0,0,-7.97011,72.396,113.748)"/>
<path transform="matrix(1,0,0,-1,113.739,102.966)" stroke-width=".3985" stroke-linecap="butt" stroke-miterlimit="10" stroke-linejoin="miter" fill="none" stroke="#000000" d="M42.5202 2.12611V-2.12611"/>
<use data-text="1" xlink:href="#font_3_1" transform="matrix(7.97011,0,0,-7.97011,154.142,113.748)"/>
<path transform="matrix(1,0,0,-1,113.739,102.966)" stroke-width=".3985" stroke-linecap="butt" stroke-miterlimit="10" stroke-linejoin="miter" fill="none" stroke="#000000" d="M85.04042 2.12611V-2.12611"/>
<use data-text="2" xlink:href="#font_3_2" transform="matrix(7.97011,0,0,-7.97011,196.66199,113.748)"/>
<path transform="matrix(1,0,0,-1,113.739,102.966)" stroke-width=".3985" stroke-linecap="butt" stroke-miterlimit="10" stroke-linejoin="miter" fill="none" stroke="#000000" d="M2.12611 42.5202H-2.12611"/>
<use data-text="1" xlink:href="#font_3_1" transform="matrix(7.97011,0,0,-7.97011,103.859,63.014)"/>
<path transform="matrix(1,0,0,-1,113.739,102.966)" stroke-width=".3985" stroke-linecap="butt" stroke-miterlimit="10" stroke-linejoin="miter" fill="none" stroke="#000000" d="M2.12611 85.04042H-2.12611"/>
<use data-text="2" xlink:href="#font_3_2" transform="matrix(7.97011,0,0,-7.97011,103.859,20.495003)"/>
<path transform="matrix(1,0,0,-1,113.739,102.966)" stroke-width=".79701" stroke-linecap="butt" stroke-miterlimit="10" stroke-linejoin="miter" fill="none" stroke="#000000" d="M-85.04042 0C-85.04042 0-82.48047 .03244-81.49727 .0733-80.51408 .11417-78.93735 .21262-77.95415 .29453-76.97095 .37643-75.3942 .54076-74.411 .66371-73.4278 .78667-71.85106 1.01697-70.86787 1.18079-69.88467 1.3446-68.30792 1.63976-67.32472 1.84454-66.34154 2.04935-64.7648 2.41109-63.7816 2.65683-62.7984 2.90259-61.22165 3.32909-60.23845 3.61578-59.25525 3.9025-57.67851 4.39554-56.69533 4.72328-55.71213 5.05103-54.13539 5.60945-53.1522 5.97807-52.169 6.34671-50.59225 6.97055-49.60905 7.38014-48.62585 7.78973-47.04913 8.47943-46.06592 8.93015-45.08273 9.38087-43.50597 10.13715-42.52278 10.62872-41.53958 11.12032-39.96284 11.94081-38.97966 12.47328-37.99646 13.00575-36.41971 13.89299-35.43651 14.46642-34.45331 15.03984-32.87659 15.99171-31.89337 16.60617-30.91019 17.22066-29.33345 18.23967-28.35025 18.89519-27.36707 19.5507-25.7903 20.6345-24.80711 21.3308-23.82391 22.02708-22.24718 23.17644-21.26399 23.91371-20.28078 24.65097-18.70404 25.86613-17.72083 26.64453-16.73764 27.42293-15.1609 28.70459-14.1777 29.52396-13.19452 30.3433-11.61775 31.68983-10.63457 32.54997-9.65137 33.4101-8.07463 34.82219-7.09145 35.7233-6.10825 36.6244-4.53151 38.1022-3.54831 39.04453-2.56511 39.98686-.00516 42.515-.00516 42.515"/>
<path transform="matrix(1,0,0,-1,113.739,102.966)" stroke-width=".79701" stroke-linecap="butt" stroke-miterlimit="10" stroke-linejoin="miter" fill="none" stroke="#000000" d="M42.5202 0C42.5202 0 42.47809 2.01082 42.42743 2.78076 42.37675 3.5507 42.25555 4.78424 42.15492 5.54922 42.05429 6.31422 41.85237 7.53735 41.70206 8.29431 41.55174 9.05128 41.27118 10.2596 41.07143 11.00504 40.87167 11.7505 40.5106 12.9365 40.26234 13.6671 40.0141 14.3977 39.57735 15.55788 39.282 16.27075 38.98665 16.98361 38.47472 18.11275 38.13362 18.80501 37.79254 19.49725 37.20947 20.59177 36.82365 21.26009 36.43782 21.92839 35.78177 22.98027 35.35281 23.62173 34.92387 24.26321 34.2019 25.27116 33.7321 25.88347 33.26228 26.49577 32.4753 27.45459 31.96669 28.03493 31.4581 28.6153 30.61185 29.52081 30.06635 30.06635 29.52081 30.61185 28.6153 31.4581 28.03493 31.96669 27.45459 32.4753 26.49577 33.26228 25.88347 33.7321 25.27116 34.2019 24.26321 34.92387 23.62173 35.35281 22.98027 35.78177 21.92839 36.43782 21.26009 36.82365 20.59177 37.20947 19.49725 37.79254 18.80501 38.13362 18.11275 38.47472 16.98361 38.98665 16.27075 39.282 15.55788 39.57735 14.3977 40.0141 13.6671 40.26234 12.9365 40.5106 11.7505 40.87167 11.00504 41.07143 10.2596 41.27118 9.05128 41.55174 8.29431 41.70206 7.53735 41.85237 6.31422 42.05429 5.54922 42.15492 4.78424 42.25555 3.5507 42.37675 2.78076 42.42743 2.01082 42.47809 0 42.5202 0 42.5202"/>
<path transform="matrix(1,0,0,-1,113.739,102.966)" stroke-width=".79701" stroke-linecap="butt" stroke-miterlimit="10" stroke-linejoin="miter" fill="none" stroke="#000000" d="M42.5202 0C42.5202 0 43.79993 9.9416 44.29143 12.39934 44.78293 14.85706 45.57118 16.394 46.06267 17.7137 46.55417 19.0334 47.34242 20.82384 47.83391 21.91083 48.32541 22.99783 49.11366 24.58708 49.60516 25.54803 50.09665 26.509 50.8849 27.95753 51.3764 28.83685 51.86789 29.71616 52.65614 31.06409 53.14764 31.8856 53.63914 32.70712 54.4274 33.97974 54.91888 34.75787 55.41039 35.536 56.19864 36.74968 56.69012 37.49388 57.18163 38.23808 57.96988 39.40463 58.46138 40.12155 58.95287 40.83849 59.74112 41.96648 60.23262 42.66098 60.7241 43.3555 61.51236 44.45134 62.00386 45.1271 62.49536 45.80287 63.28362 46.87163 63.7751 47.53156 64.2666 48.19151 65.05486 49.23735 65.54634 49.8835 66.03784 50.52968 66.8261 51.55453 67.3176 52.1887 67.80908 52.82289 68.59734 53.8306 69.08884 54.45435 69.58032 55.0781 70.36858 56.06972 70.86008 56.6843 71.35158 57.29884 72.13983 58.27728 72.63132 58.88374 73.12282 59.49022 73.91107 60.45622 74.40256 61.0553 74.89406 61.65439 75.68231 62.60905 76.17381 63.20157 76.6653 63.79408 77.45355 64.73918 77.94505 65.32574 78.43654 65.91231 79.2248 66.84804 79.7163 67.42918 80.2078 68.01035 80.99605 68.93825 81.48753 69.51445 81.97903 70.09065 82.76729 71.01048 83.25877 71.5822 83.75027 72.15392 85.03003 73.63503 85.03003 73.63503"/>
<path transform="matrix(1,0,0,-1,113.739,102.966)" d="M-83.546 0C-83.546 .82533-84.21507 1.49442-85.04042 1.49442-85.86577 1.49442-86.53484 .82533-86.53484 0-86.53484-.82533-85.86577-1.49442-85.04042-1.49442-84.21507-1.49442-83.546-.82533-83.546 0ZM-85.04042 0"/>
<path transform="matrix(1,0,0,-1,113.739,102.966)" d="M1.49442 42.5202C1.49442 43.34555 .82533 44.01462 0 44.01462-.82533 44.01462-1.49442 43.34555-1.49442 42.5202-1.49442 41.69485-.82533 41.02579 0 41.02579 .82533 41.02579 1.49442 41.69485 1.49442 42.5202ZM0 42.5202"/>
<path transform="matrix(1,0,0,-1,113.739,102.966)" d="M44.01462 0C44.01462 .82533 43.34555 1.49442 42.5202 1.49442 41.69485 1.49442 41.02579 .82533 41.02579 0 41.02579-.82533 41.69485-1.49442 42.5202-1.49442 43.34555-1.49442 44.01462-.82533 44.01462 0ZM42.5202 0"/>
<path transform="matrix(1,0,0,-1,113.739,102.966)" d="M86.53484 73.64478C86.53484 74.47012 85.86577 75.13919 85.04042 75.13919 84.21507 75.13919 83.546 74.47012 83.546 73.64478 83.546 72.81943 84.21507 72.15036 85.04042 72.15036 85.86577 72.15036 86.53484 72.81943 86.53484 73.64478ZM85.04042 73.64478"/>
<use data-text="&#x0393;" xlink:href="#font_4_1" transform="matrix(9.96264,0,0,-9.96264,50.989999,63.103013)"/>
<use data-text="1" xlink:href="#font_5_1" transform="matrix(6.97385,0,0,-6.97385,57.215997,64.597019)"/>
<use data-text="&#x0393;" xlink:href="#font_4_1" transform="matrix(9.96264,0,0,-9.96264,144.533,69.481)"/>
<use data-text="2" xlink:href="#font_5_2" transform="matrix(6.97385,0,0,-6.97385,150.76,70.975)"/>
<use data-text="&#x0393;" xlink:href="#font_4_1" transform="matrix(9.96264,0,0,-9.96264,182.801,56.725)"/>
<use data-text="3" xlink:href="#font_5_3" transform="matrix(6.97385,0,0,-6.97385,189.027,58.22)"/>
</svg>
