<svg version="1.1" xmlns="http://www.w3.org/2000/svg" style="display: block;" viewBox="0 0 2048 2048" width="1024" height="1024" preserveAspectRatio="none">
<path transform="translate(0,0)" fill="rgb(168,60,52)" d="M 992.888 83.2893 C 1512.16 65.8717 1947.21 472.774 1964.5 992.053 C 1981.8 1511.33 1574.79 1946.28 1055.51 1963.45 C 536.399 1980.62 101.628 1573.78 84.338 1054.67 C 67.0484 535.568 473.786 100.701 992.888 83.2893 z M 1817.84 566.806 L 1773.28 586.19 C 1891.2 783.088 1924.61 1019.26 1865.93 1241.14 C 1853.52 1288.11 1837.29 1333.98 1817.38 1378.3 C 1799.55 1416.65 1782.09 1449.94 1759.18 1485.62 C 1657.55 1643.91 1499.63 1775.68 1322.42 1840.33 C 1106.86 1919.17 868.87 1909.55 660.382 1813.56 C 448.401 1714.63 284.477 1535.45 204.758 1315.52 C 128.161 1101.92 139.426 866.656 236.082 661.352 C 333.857 449.814 511.892 285.955 730.797 206.026 C 945.861 128.412 1182.87 138.83 1390.29 235.017 C 1466.26 271.571 1536.89 318.32 1600.22 373.971 C 1624.42 395.388 1647.32 418.235 1668.79 442.389 C 1675.41 449.852 1696.11 478.358 1702.05 481.797 C 1723.13 494.009 1765.87 513.764 1788.2 521.647 C 1771.66 489.9 1741.77 452.676 1718.23 425.549 C 1607 297.115 1462.76 201.54 1301.13 149.163 C 1221.97 124.431 1139.99 109.849 1057.15 105.766 C 1042.15 105.091 1015.72 104.216 1000.51 105.425 C 961.551 107.169 928.256 109.532 889.419 115.407 C 681.988 146.061 491.561 247.57 350.479 402.693 C 183.401 583.947 95.8525 824.552 107.379 1070.79 C 117.774 1303.9 230.17 1539.16 402.593 1695.62 C 527.201 1808.7 658.187 1880.02 821.935 1917.92 C 902.569 1936.87 985.449 1944.51 1068.19 1940.6 C 1312.3 1927.53 1541.17 1817.83 1704.26 1635.73 C 1830.54 1496.82 1910.93 1322.36 1934.49 1136.12 C 1940.86 1083.25 1941.8 1015.32 1939.12 962.651 C 1932.24 848.818 1903.54 737.369 1854.58 634.37 C 1842.05 608.203 1830.77 590.898 1817.84 566.806 z M 437.799 426.513 C 434.01 430.772 430.671 434.302 428.65 439.78 C 423.972 452.457 423.926 466.961 423.361 480.365 C 417.138 628.107 485.186 768.505 594.497 865.848 C 694.882 955.243 823.2 1004.17 956.364 1015.64 C 964.286 1016.33 972.225 1016.87 980.148 1017.56 C 989.282 1018.26 1000.1 1019.04 1009.21 1018.93 C 1011.13 983.886 1007.84 950.222 1003.45 915.513 C 988.612 798.217 941.197 688.402 861.952 599.818 C 770.439 496.858 642.009 434.147 504.542 425.296 C 490.114 424.501 471.63 424.639 457.141 425.439 C 451.014 425.771 443.819 425.972 437.799 426.513 z M 1037.15 1010.8 C 1067.17 1013.54 1116.18 1011.92 1148.21 1011.95 L 1352.42 1012.09 L 1694.08 1012.15 C 1749.83 1012.12 1810.34 1013.64 1865.47 1011.92 C 1862.99 978.308 1862.89 948.67 1858.4 914.017 C 1844.71 808.504 1804.36 686.314 1745.53 597.256 C 1721.66 605.255 1698.34 615.87 1674.86 625.076 C 1675.35 639.629 1674.67 656.569 1674.64 671.348 L 1674.96 758.288 C 1641.81 779.87 1605.51 796.163 1567.35 806.582 C 1439.83 841.262 1303.77 824.008 1188.94 758.598 C 1187.93 716.065 1187.94 673.514 1188.99 630.982 C 1172.25 622.606 1148.65 614.253 1130.93 608.129 C 1132.07 647.601 1128.56 690.362 1131.21 728.493 C 1133.62 731.736 1135.82 735.061 1138.08 738.406 C 1136.15 744.768 1134.42 747.585 1131.25 753.422 C 1137.2 776.872 1166.74 902.53 1165.49 917.515 C 1163.66 920.945 1161.46 921.732 1158.07 923.71 L 1155.01 925.839 C 1151.95 928.493 1150.95 930.202 1147.24 928.857 C 1139.44 920.646 1133.81 896.671 1130.58 885.28 C 1131.04 897.504 1132.13 913.786 1129.83 925.494 C 1105.62 919.623 1110.39 914.899 1111.11 891.517 C 1107.07 908.251 1106.11 915.763 1098.33 931.061 C 1088.84 928.506 1084.19 926.094 1075.94 921.18 C 1076.79 913.143 1079.08 902.261 1081.42 894.438 C 1095.29 848.11 1102.69 799.107 1115.78 752.77 C 1105.14 740.985 1106.82 737.525 1117.17 727.047 L 1116.91 653.835 C 1116.9 637.593 1116.51 617.951 1118.09 602.033 C 1092.34 593.382 1063.36 579.886 1037.24 569.883 C 1038.46 665.265 1037.41 762.888 1037.52 858.42 L 1037.62 958.479 C 1037.64 971.862 1038.4 998.206 1037.15 1010.8 z M 425.157 1611.78 C 532.583 1624.03 639.422 1605.98 733.972 1552.2 C 751.755 1542.18 769.021 1531.27 785.703 1519.5 C 795.129 1512.98 808.757 1502.77 818.045 1497.16 C 807.68 1474.03 797.151 1450.97 786.461 1427.98 C 779.345 1412.6 768.27 1389.74 762.966 1373.9 C 750.861 1375.46 746.579 1375.44 734.551 1373.46 C 718.835 1395.08 701.21 1418.27 686.115 1440.12 C 693.724 1453.9 698.653 1464.84 693.936 1481.34 C 690.416 1493.52 681.991 1503.69 670.679 1509.41 C 659.385 1515.26 646.173 1516.17 634.186 1511.92 C 623.941 1508.26 615.616 1500.61 611.112 1490.71 C 602.156 1471.47 607.414 1455 619.359 1438.89 C 576.381 1399.95 536.895 1357.05 492.685 1318.75 C 470.989 1340.62 446.271 1368.65 424.812 1389.13 C 440.113 1422.59 408.308 1460.94 376.569 1450.92 C 364.81 1447.92 355.642 1441.86 349.383 1431.23 C 343.39 1421.01 341.782 1408.8 344.926 1397.37 C 347.935 1386.18 355.376 1376.71 365.53 1371.13 C 381.404 1362.53 396.377 1366.44 411.27 1374.48 C 428.428 1354.3 447.38 1335.03 464.439 1314.65 C 468.155 1310.21 472.81 1305 476.925 1301.01 C 454.26 1279.71 431.973 1258.01 410.074 1235.93 C 401.097 1226.99 384.972 1211.83 377.017 1202.62 C 352.474 1214.69 326.628 1216.71 312.573 1188.4 C 306.775 1176.91 305.971 1163.53 310.35 1151.42 C 318.778 1127.43 344.449 1117.78 367.445 1127 C 377.382 1131.06 385.278 1138.93 389.368 1148.85 C 394.922 1162.47 392.513 1176.22 388.119 1189.6 C 417.244 1218.93 447.317 1247.16 476.657 1276.26 C 480.756 1280.33 484.324 1283.97 488.875 1287.53 C 520.252 1257.41 549.747 1229.12 583.163 1201.13 C 681.253 1118.96 778.717 1073.57 900.733 1039.39 C 869.893 1036.05 821.395 1037.05 789.764 1037.09 L 627.636 1037.03 L 336.211 1036.95 C 286.597 1037.01 232.844 1035.99 183.611 1037.54 C 182.713 1062.19 186.449 1104.59 189.35 1129.26 C 210.689 1302.7 286.442 1464.92 405.731 1592.62 C 412.053 1599.42 418.176 1605.64 425.157 1611.78 z M 1529.26 413.418 C 1568.7 429.214 1612.36 445.851 1650.65 463.631 C 1500.4 296.663 1290.41 195.61 1066.18 182.361 C 1057.26 181.91 1046.32 181.86 1037.63 181.029 C 1036.05 220.437 1037.07 263.84 1037.36 303.426 L 1037.03 454.811 C 1037.01 481.744 1038.08 512.357 1037.5 538.631 C 1057.32 529.653 1081.83 521.017 1102.41 512.767 L 1214.21 466.984 L 1335.36 416.862 C 1368.64 402.704 1400.85 388.226 1434.45 374.607 C 1466.03 387.584 1497.36 401.276 1529.26 413.418 z M 1007.18 1267.61 C 972.399 1363.68 923.254 1445.23 844.213 1510.83 C 858.617 1538.78 872.033 1567.76 884.995 1596.43 C 890.834 1609.35 900.686 1628.81 905.544 1641.66 C 952.665 1637.57 975.483 1681.42 946.935 1718.78 C 932.605 1737.53 901.762 1737.16 884.502 1720.99 C 875.165 1712.28 869.755 1700.16 869.506 1687.4 C 869.323 1674.5 874.404 1662.09 883.577 1653.02 C 885.76 1650.82 887.295 1649.52 889.729 1647.67 C 876.997 1622.02 864.648 1596.18 852.684 1570.16 C 846.876 1557.5 836.303 1532.43 829.505 1521.36 C 750.525 1583.42 668.418 1622.89 568.416 1637.7 C 525.775 1644.09 498.106 1643.63 454.856 1643.05 C 606.549 1781.94 803.402 1861.21 1009.02 1866.2 C 1010.12 1768 1008.68 1666.47 1008.7 1567.96 L 1008.81 1382.68 C 1008.82 1366.86 1010.59 1276 1007.18 1267.61 z M 1422.52 526.795 C 1432.39 528.803 1437.48 531.265 1446.59 535.564 C 1441.83 541.621 1436.05 549.993 1427.81 551.07 C 1423.32 551.656 1413.88 549.234 1410.04 550 C 1387.98 554.4 1365.44 559.128 1343.47 563.757 L 1272.51 579.065 C 1258.91 582.05 1231.76 587.34 1219.98 593.026 L 1231.63 598.008 C 1297.28 623.964 1366.23 649.169 1430.74 676.817 L 1672.07 582.035 C 1690.58 574.902 1709 567.549 1727.33 559.977 C 1741.65 554.001 1755.31 547.403 1770.17 542.936 C 1672.91 497.935 1571.22 460.786 1472.79 418.435 C 1460.52 413.156 1448.46 407.797 1436.02 402.904 C 1363.88 434.1 1291.41 464.51 1218.62 494.128 L 1138.74 526.636 C 1126.54 531.661 1106.98 539.128 1095.68 545.296 C 1124.33 558.854 1158.11 569.254 1188.59 582.635 C 1229.4 573.098 1270.33 564.137 1311.39 555.754 C 1346.47 548.445 1391.03 542.88 1422.52 526.795 z M 832.846 1485.54 C 943.089 1386.19 1000.84 1252.69 1008.58 1105.46 C 1009.4 1086.57 1009.48 1067.66 1008.83 1048.77 C 1005.75 1048.89 1000.08 1048.92 997.255 1049.4 C 857.425 1064.69 716.147 1128.71 606.895 1216.01 C 582.234 1236.09 558.204 1256.94 534.84 1278.51 C 525.874 1286.78 515.287 1297.85 506.515 1305.42 C 549.001 1346.05 589.728 1388.67 631.584 1429.12 C 647.469 1423.32 657.998 1423.29 673.698 1429.99 C 688.18 1411.15 707.956 1380.73 723.06 1365.05 C 713.954 1352.22 706.963 1340.69 709.919 1323.94 C 711.814 1312.55 718.346 1302.45 727.96 1296.04 C 745.961 1284.17 764.784 1288.87 781.609 1299.84 C 794.305 1289.43 806.668 1278.62 818.678 1267.42 C 829.478 1257.73 844 1244.09 855.332 1235.28 C 824.432 1173.35 909.901 1142.62 930.289 1192.09 C 947.248 1233.24 910.243 1269.13 866.139 1247.72 C 840.787 1269.71 817.664 1290.23 791.764 1311.71 C 799.402 1335.09 797.505 1350.5 778.369 1367.07 C 785.498 1383.46 792.807 1399.89 799.788 1416.33 C 809.81 1439.93 822.157 1462.39 832.846 1485.54 z M 746.712 1304.4 C 736.592 1306.36 728.309 1313.61 725.034 1323.39 C 721.76 1333.16 724 1343.94 730.899 1351.6 C 737.797 1359.26 748.285 1362.61 758.347 1360.37 C 773.607 1356.98 783.311 1341.96 780.129 1326.65 C 776.948 1311.34 762.061 1301.43 746.712 1304.4 z M 895.484 1239.55 C 910.998 1237.3 921.839 1223.02 919.843 1207.47 C 917.848 1191.92 903.753 1180.85 888.173 1182.59 C 877.862 1183.73 868.973 1190.36 864.919 1199.91 C 860.865 1209.46 862.276 1220.45 868.61 1228.67 C 874.944 1236.88 885.218 1241.04 895.484 1239.55 z M 1043 1039.12 C 1044.39 1053.67 1044.34 1070.83 1044.87 1085.72 C 1045.89 1114.2 1047.12 1141.66 1050.66 1170 C 1066.76 1302.89 1133.07 1424.59 1236.01 1510.15 C 1330.06 1587.94 1449.46 1629.52 1571.76 1617.97 C 1585.86 1616.59 1599.88 1614.52 1613.78 1611.79 C 1619.41 1606.06 1620.92 1552.03 1620.82 1540.39 C 1619.68 1407.36 1559.78 1280.17 1465.8 1187.46 C 1382.38 1106 1273.86 1055.15 1157.88 1043.17 C 1122.12 1039.2 1079.47 1039.23 1043 1039.12 z M 1443.26 689.475 C 1461.84 681.495 1569.91 641.345 1575.46 635.518 L 1573.94 635.185 C 1559.24 637.706 1551.23 643.659 1537.83 648.398 C 1507.81 659.014 1470.22 671.451 1442.3 685.889 L 1441.23 687.42 C 1441.96 688.248 1442.38 688.887 1443.26 689.475 z M 1781.25 548.188 C 1777.83 550.206 1752.2 565.032 1751.49 566.586 C 1753.54 566.021 1754.42 565.85 1756.37 565.02 C 1767.3 560.532 1778.08 555.957 1789.53 552.919 C 1787.21 551.519 1783.59 549.164 1781.25 548.188 z M 1089.44 558.958 C 1102.75 565.188 1145.86 584.39 1158.63 585.045 C 1148.99 576.719 1101.39 559.31 1089.44 558.958 z M 380.027 1381.52 C 370.086 1383.78 362.135 1391.23 359.222 1401 C 356.309 1410.77 358.886 1421.35 365.965 1428.69 C 373.044 1436.02 383.527 1438.98 393.396 1436.42 C 408.339 1432.54 417.402 1417.38 413.749 1402.38 C 410.097 1387.38 395.081 1378.09 380.027 1381.52 z M 392.597 470.712 C 366.761 506.02 336.916 541.685 313.665 578.248 C 227.446 713.831 188.902 851.974 183.443 1011.05 C 232.78 1013.42 285.453 1011.64 335.021 1011.45 L 574.5 1011.23 L 712.925 1010.85 C 733.092 1010.68 765.863 1011.09 785.496 1009.2 C 772.763 1001.86 752.725 995.431 738.704 989.86 C 721.036 982.742 703.849 974.483 687.252 965.135 C 557.62 893.154 457.954 777.627 415.995 634.491 C 405.49 598.24 398.629 561.03 395.515 523.416 C 394.672 514.096 395.222 474.418 392.597 470.712 z M 1200.37 596.825 C 1200.22 598.369 1199.51 600.113 1200.59 601.372 C 1205.86 607.493 1380.97 675.801 1402.08 683.113 C 1408.41 685.307 1414.92 687.59 1421.61 688.295 C 1419.5 684.318 1417.72 683.817 1413.06 681.835 C 1368.56 662.922 1322.68 646.572 1277.76 628.634 C 1262.1 622.433 1246.52 616.032 1231.02 609.433 C 1223.3 606.1 1207.78 598.442 1200.37 596.825 z M 1590.25 631.427 C 1595.13 629.543 1612.74 623.243 1615.43 620.518 C 1612.93 619.383 1612.06 619.75 1609.29 619.977 C 1603.44 622.125 1589.27 627.141 1585.23 631.776 L 1585.9 632.753 L 1590.25 631.427 z"/>
<path transform="translate(0,0)" fill="rgb(168,60,52)" d="M 1308.02 1242.23 C 1362.68 1237.84 1381.6 1282.91 1388.71 1328.71 C 1399.61 1318.98 1423.88 1295.83 1432.12 1285.13 C 1429.27 1279.11 1424.44 1270.02 1428.15 1263.92 C 1440.58 1258.86 1483.42 1256.98 1497.42 1261.41 C 1500.49 1262.38 1501.34 1264.09 1502.36 1266.69 C 1502.02 1270.54 1499.69 1274.18 1496.76 1276.56 C 1463.36 1303.64 1427.76 1330.54 1396.88 1360.51 C 1398.6 1375.19 1401.62 1386.79 1404.49 1402.44 C 1408.04 1425.67 1429.97 1465.01 1456.62 1440.67 C 1471.82 1426.79 1455.54 1404.23 1465.13 1394.59 C 1502.76 1382.45 1490.96 1503.4 1406.26 1477.43 C 1369.67 1464.57 1366.54 1424.81 1355.19 1393.55 C 1337.85 1406.17 1265.14 1477.02 1251.07 1472.94 C 1241.63 1466.36 1253.17 1423.55 1255.81 1413.01 C 1259.19 1399.53 1276.08 1410.28 1283.8 1414.1 C 1306.74 1398.69 1325.03 1377.56 1345.59 1364.39 C 1336.81 1339.36 1336.18 1305.69 1320.08 1283.8 C 1309.66 1269.62 1291.56 1277.03 1281.15 1287.48 C 1265.35 1303.34 1282.94 1320.76 1283.46 1337.45 C 1281.58 1342.78 1274.78 1346.92 1270.5 1343.51 C 1237.98 1317.58 1252.66 1260.73 1290.33 1247.21 C 1297.19 1244.74 1301.52 1243.67 1308.02 1242.23 z"/>
<path transform="translate(0,0)" fill="rgb(168,60,52)" d="M 598.314 490.099 C 602.312 490.258 602.724 490.164 606.374 491.579 C 610.599 495.821 624.143 580.859 626.466 593.283 C 638.56 591.124 660.459 590.491 673.378 589.734 C 696.673 588.452 719.947 586.799 743.189 584.776 C 742.82 583.198 742.461 581.618 742.11 580.036 C 740.153 571.18 736.996 558.769 742.118 550.72 C 751.669 549.411 754.616 577.813 755.704 585.036 C 766.004 583.509 790.14 578.402 796.543 587.046 C 796.97 591.316 797.363 589.421 795.838 593.027 C 788.359 596.251 766.94 596.183 757.351 596.86 C 763.118 625.654 771.349 668.472 775.436 697.372 C 802.319 694.735 829.339 693.442 856.184 690.39 C 860.722 689.874 865.145 689.302 869.724 689.446 C 872.183 692.616 872.333 696.593 871.837 700.414 C 867.887 703 786.897 708.659 776.308 709.219 C 777.744 714.852 778.952 721.383 779.906 727.164 C 784.245 753.474 790.518 780.765 793.339 807.247 L 860.383 802.261 C 871.201 801.393 891.382 799.114 901.233 799.6 C 903.131 802.459 903.315 805.089 902.244 808.376 C 900.79 809.851 898.789 811.345 896.619 811.456 C 863.252 813.157 829.236 817.359 795.894 818.272 C 801.378 845.074 808.932 886.907 812.743 913.723 C 810.257 916.5 806.037 916.084 802.95 914.809 C 798.532 909.119 785.803 829.149 784.236 818.592 C 751.151 823.653 698.707 827.075 664.993 829.131 C 666.737 839.741 670.191 855.441 669.501 866.056 C 669.389 867.782 668.365 867.796 666.296 869.213 C 664.365 869.408 662.312 869.979 660.833 867.787 C 655.713 860.193 654.387 838.908 653.515 830.019 C 645.415 831.277 620.808 835.966 617.798 825.762 C 621.371 817.549 642.589 818.14 650.402 817.871 C 648.405 810.31 646 793.8 644.618 785.521 C 640.956 763.37 637.566 741.176 634.448 718.941 C 615.163 719.138 548.751 728.527 537.176 723.827 C 534.878 720.76 535.365 722.395 535.219 718.915 C 545.737 709.982 614.055 708.375 632.673 706.824 C 628.641 673.507 619.861 638.613 616.518 606.229 C 596.5 607.065 576.368 608.775 556.388 609.917 C 548.292 610.38 519.436 614.454 513.74 610.13 C 512.794 606.453 512.548 606.376 513.227 602.512 C 516.771 599.584 551.223 598.521 559.072 597.943 C 577.15 596.611 595.573 595.279 613.656 593.876 C 608.828 565.561 598.858 517.412 598.314 490.099 z M 627.865 605.186 C 634.52 637.665 637.906 675.872 644.87 707.242 C 647.698 706.7 650.358 706.035 653.21 705.925 C 688.887 701.927 728.38 702.762 763.087 697.784 C 757.014 664.839 750.491 629.97 745.627 596.933 C 744.037 597.022 738.653 597.212 737.345 597.424 C 700.766 599.91 664.385 601.835 627.865 605.186 z M 646.534 718.351 C 651.391 746.09 654.784 774.231 660.034 801.94 C 660.963 806.843 661.894 812.328 662.499 817.276 L 672.751 816.119 C 702.79 814.667 732.979 811.438 763.005 809.482 C 769.347 809.069 775.945 808.581 782.236 807.823 C 775.776 775.31 769.79 742.705 764.28 710.018 L 754.893 710.443 C 732.252 711.889 709.622 713.508 687.006 715.301 C 674.702 716.278 658.475 718.104 646.534 718.351 z"/>
<path transform="translate(0,0)" fill="rgb(168,60,52)" fill-opacity="0.827451" d="M 693.397 639.551 C 696.884 639.816 696.786 639.592 699.661 641.472 C 702.792 647.657 698.488 650.275 693.585 653.326 C 689.304 652.176 688.043 650.438 687.629 646.495 C 688.886 642.54 689.904 642.234 693.397 639.551 z"/>
<path transform="translate(0,0)" fill="rgb(168,60,52)" d="M 820.016 637.089 C 826.477 636.253 832.536 635.953 834.5 643.343 C 833.649 647.39 832.654 647.833 829.511 650.885 C 823.195 651.815 816.421 651.521 815.02 644.209 C 815.976 640.592 817.36 639.721 820.016 637.089 z"/>
<path transform="translate(0,0)" fill="rgb(168,60,52)" d="M 840.96 863.707 C 844.458 862.769 848.056 864.833 849.012 868.326 C 849.968 871.819 847.922 875.428 844.434 876.401 C 840.921 877.382 837.28 875.318 836.317 871.8 C 835.355 868.282 837.437 864.652 840.96 863.707 z"/>
<path transform="translate(0,0)" fill="rgb(168,60,52)" d="M 819.908 752.425 C 822.987 750.715 826.869 751.799 828.616 754.858 C 830.363 757.917 829.325 761.812 826.288 763.595 C 824.29 764.768 821.816 764.776 819.811 763.616 C 817.806 762.457 816.579 760.309 816.599 757.993 C 816.619 755.677 817.883 753.55 819.908 752.425 z"/>
<path transform="translate(0,0)" fill="rgb(168,60,52)" d="M 875.265 745.485 C 877.179 744.325 879.567 744.283 881.521 745.374 C 883.474 746.464 884.691 748.52 884.707 750.758 C 884.724 752.995 883.537 755.068 881.6 756.188 C 878.648 757.894 874.873 756.905 873.137 753.971 C 871.4 751.037 872.35 747.252 875.265 745.485 z"/>
<path transform="translate(0,0)" fill="rgb(168,60,52)" d="M 740.862 892.437 C 742.865 891.456 745.245 891.659 747.052 892.966 C 748.859 894.273 749.797 896.47 749.492 898.679 C 749.186 900.888 747.686 902.748 745.592 903.516 C 742.58 904.619 739.231 903.171 737.971 900.221 C 736.711 897.27 737.982 893.85 740.862 892.437 z"/>
<path transform="translate(0,0)" fill="rgb(168,60,52)" d="M 911.276 860.453 C 913.962 858.995 917.32 859.986 918.784 862.667 C 920.249 865.349 919.267 868.71 916.589 870.181 C 913.901 871.657 910.526 870.671 909.057 867.98 C 907.587 865.289 908.582 861.916 911.276 860.453 z"/>
<path transform="translate(0,0)" fill="rgb(168,60,52)" d="M 860.816 935.441 C 863.371 934.108 866.523 935.114 867.833 937.681 C 869.143 940.249 868.109 943.391 865.53 944.678 C 862.983 945.948 859.889 944.93 858.596 942.395 C 857.303 939.861 858.293 936.757 860.816 935.441 z"/>
<path transform="translate(0,0)" fill="rgb(168,60,52)" d="M 923.47 925.384 C 926.239 925.186 928.663 927.228 928.94 929.99 C 929.216 932.753 927.245 935.234 924.491 935.589 C 922.638 935.828 920.803 935.041 919.698 933.535 C 918.594 932.029 918.395 930.042 919.179 928.347 C 919.963 926.652 921.607 925.517 923.47 925.384 z"/>
<path transform="translate(0,0)" fill="rgb(231,173,91)" d="M 1004.79 181.424 C 1007.35 181.33 1007.25 181.162 1009.37 182.533 C 1012.03 191.045 1010.84 234.315 1010.86 245.985 L 1010.82 410.902 L 1011.86 711.087 C 1011.75 748.936 1013.12 792.073 1011.48 829.422 C 1006.15 808.692 1002.84 793.858 995.709 773.12 C 966.723 691.356 919.765 617.136 858.294 555.925 C 838.763 536.705 817.811 519.617 796.274 502.74 C 689.969 428.712 594.8 397.224 464.574 396.944 C 496.942 369.998 524.439 347.292 559.791 323.739 C 698.565 231.279 840.1 190.637 1004.79 181.424 z"/>
<path transform="translate(0,0)" fill="rgb(231,173,91)" d="M 1037.21 1251.8 C 1041.37 1256.64 1046.33 1280.36 1049 1287.96 C 1051.88 1296.15 1054.77 1304 1058.11 1312.21 C 1090.66 1392.13 1141.09 1463.54 1205.53 1520.94 C 1288.85 1595.92 1395.05 1640.56 1506.92 1647.61 C 1534.68 1649.18 1558.55 1647.47 1586.2 1645.81 C 1571.51 1657.16 1555.98 1672.11 1540.96 1684.17 C 1514.06 1705.78 1489.24 1722.78 1460.17 1741.17 C 1333.22 1820.84 1186.79 1864.05 1036.92 1866.05 C 1035.58 1849.06 1035.89 1829.17 1035.89 1812.01 L 1036.74 1706.35 C 1036.2 1603.56 1036.26 1500.76 1036.94 1397.97 L 1037.01 1305 C 1037.08 1287.18 1037.76 1269.62 1037.21 1251.8 z"/>
<path transform="translate(0,0)" fill="rgb(231,173,91)" d="M 1284.39 1039.39 C 1369.18 1041.64 1459.01 1040.63 1544.04 1040.22 L 1865.81 1039.94 C 1864.34 1070.07 1863.49 1094.47 1859.86 1124.88 C 1845.75 1242.54 1806.18 1355.71 1743.9 1456.53 C 1715.24 1504.24 1684.62 1540.87 1649.08 1582.91 C 1651.92 1528 1646.28 1472.98 1632.34 1419.79 C 1594.86 1278.1 1503.07 1156.88 1376.86 1082.39 C 1354.35 1069.04 1333.38 1059.15 1308.72 1050.38 C 1301.29 1047.73 1290.92 1043.43 1284.39 1039.39 z"/>
<path transform="translate(0,0)" fill="rgb(231,173,91)" d="M 909.954 1656.47 C 926.564 1653.94 942.101 1665.3 944.721 1681.9 C 947.342 1698.49 936.062 1714.09 919.479 1716.79 C 902.775 1719.52 887.04 1708.14 884.4 1691.42 C 881.76 1674.7 893.223 1659.03 909.954 1656.47 z"/>
<path transform="translate(0,0)" fill="rgb(231,173,91)" d="M 645.636 1439.71 C 662.093 1436.87 677.722 1447.96 680.463 1464.44 C 683.204 1480.91 672.009 1496.47 655.517 1499.1 C 639.173 1501.72 623.787 1490.64 621.071 1474.32 C 618.355 1457.99 629.328 1442.53 645.636 1439.71 z"/>
<path transform="translate(0,0)" fill="rgb(231,173,91)" d="M 344.547 1138.47 C 360.514 1135.4 375.94 1145.88 378.97 1161.86 C 382.001 1177.83 371.485 1193.23 355.503 1196.22 C 339.577 1199.2 324.244 1188.73 321.224 1172.81 C 318.204 1156.89 328.636 1141.53 344.547 1138.47 z"/>
<path transform="translate(0,0)" fill="rgb(252,251,251)" d="M 1745.03 564.069 L 1746.19 565.515 C 1746.41 566.749 1747 568.341 1746.22 568.709 C 1730.23 576.217 1648.87 610.157 1637.42 610.804 C 1635.77 610.222 1636.12 610.3 1634.65 609.283 C 1644.98 604.167 1663.9 596.915 1675.14 592.373 L 1745.03 564.069 z"/>
<path transform="translate(0,0)" fill="rgb(252,251,251)" d="M 1155.01 925.839 C 1151.44 921.492 1151.14 914.076 1150.49 908.413 L 1158.07 923.71 L 1155.01 925.839 z"/>
</svg>