<svg xmlns="http://www.w3.org/2000/svg" xmlns:xlink="http://www.w3.org/1999/xlink" xmlns:inkscape="http://www.inkscape.org/namespaces/inkscape" version="1.1" width="359.385" height="230.604" viewBox="0 0 359.385 230.604">
<defs>
<path id="font_1_75" d="M.8569946 0V.032989503C.79299929 .032989503 .7809906 .032989503 .7809906 .07803345V.3032837C.7809906 .3843689 .74598696 .44140626 .6369934 .44140626 .54499819 .44140626 .49899293 .37835694 .48298646 .34933473 .46499635 .42140199 .4079895 .44140626 .34298707 .44140626 .24598694 .44140626 .19999695 .37236024 .18699646 .34532167H.18598938V.44140626L.040985109 .43045045V.39746095C.10899353 .39746095 .116989139 .3904419 .116989139 .3413849V.078048709C.116989139 .032989503 .10499573 .032989503 .040985109 .032989503V0C.083999637 .0029907227 .12799073 .0029907227 .15499878 .0029907227 .18399048 .0029907227 .22599793 .0029907227 .2689972 0V.032989503C.20498657 .032989503 .19299317 .032989503 .19299317 .078048709V.25927735C.19299317 .36434938 .27198792 .4133911 .33499146 .4133911 .3999939 .4133911 .41099549 .36235047 .41099549 .3072815V.07803345C.41099549 .032989503 .39898683 .032989503 .33499146 .032989503V0C.37799073 .0029907227 .42199708 .0029907227 .44898988 .0029907227 .47799684 .0029907227 .519989 .0029907227 .5629883 0V.032989503C.49899293 .032989503 .4869995 .032989503 .4869995 .07803345V.25923158C.4869995 .36434938 .56599429 .4133911 .6289978 .4133911 .69400027 .4133911 .7049866 .36235047 .7049866 .3072815V.07803345C.7049866 .032989503 .69299319 .032989503 .6289978 .032989503V0C.6719971 .0029907227 .71598818 .0029907227 .7429962 .0029907227 .7719879 .0029907227 .81399539 .0029907227 .8569946 0Z"/>
<path id="font_1_50" d="M.44099427 .12036133C.44099427 .12435913 .43798829 .13438416 .4249878 .13438416 .4139862 .13438416 .4119873 .12736511 .4099884 .12136841 .37399293 .024230957 .28799439 .021224976 .269989 .021224976 .22499085 .021224976 .1789856 .042251588 .14898682 .08831787 .11898804 .13438416 .11898804 .19847107 .11898804 .22851563H.41299439C.43499757 .22851563 .44099427 .22851563 .44099427 .25151063 .44099427 .34039308 .3919983 .44628907 .25099183 .44628907 .1269989 .44628907 .02999878 .3433838 .02999878 .21949768 .02999878 .09031677 .13798523-.009765625 .2639923-.009765625 .3909912-.009765625 .44099427 .097335819 .44099427 .12036133M.37298585 .25450135H.11999512C.1289978 .39431764 .21398926 .41827394 .25099183 .41827394 .36799623 .41827394 .37199403 .27748109 .37298585 .25450135Z"/>
<path id="font_1_105" d="M.35299684 .1250763V.1809845H.32199098V.12705994C.32199098 .058166505 .29100038 .021224976 .25299073 .021224976 .18598938 .021224976 .18598938 .10710144 .18598938 .12307739V.3976593H.33499146V.43066407H.18598938V.6142578H.15499878C.1539917 .52345278 .11299133 .4286499 .019989014 .42565919V.3976593H.10998535V.1250763C.10998535 .008224487 .19999695-.009765625 .24598694-.009765625 .31298829-.010009766 .35299684 .049987794 .35299684 .125V.1250763Z"/>
<path id="font_1_96" d="M.38398744 .3784027C.38398744 .4133911 .35198976 .44140626 .30799867 .44140626 .24299622 .44140626 .19898987 .39239503 .17799378 .33639527H.1769867V.44140626L.034988405 .43045045V.39746095C.102996829 .39746095 .11099243 .3904419 .11099243 .3413849V.078048709C.11099243 .032989503 .09899902 .032989503 .034988405 .032989503V0C.07398987 .0029907227 .1289978 .0029907227 .15299988 .0029907227 .21199036 .0029907227 .21398926 .0029907227 .2789917 0V.032989503H.25898744C.18598938 .032989503 .18399048 .044006349 .18399048 .08004761V.22824097C.18399048 .30332948 .21499634 .41145326 .31098939 .41345216 .30499269 .40899659 .29499818 .40098573 .29499818 .37799073 .29499818 .34700013 .31900025 .33299256 .33898927 .33299256 .36299134 .33299256 .38398744 .34899903 .38398744 .37799073V.3784027Z"/>
<path id="font_1_66" d="M.2599945 .0001373291V.03314209C.19499207 .03314209 .19099427 .038146974 .19099427 .07714844V.44140626L.04499817 .43045045V.39746095C.10899353 .39746095 .117996219 .39144898 .117996219 .34239198V.07814026C.117996219 .03314209 .10598755 .03314209 .041992189 .03314209V0C.08099365 .0029907227 .13699341 .0029907227 .1519928 .0029907227 .16499329 .0029907227 .22499085 .0029907227 .2599945 0V.0001373291M.20298767 .6021881C.20298767 .6351929 .1769867 .6582031 .147995 .6582031 .11898804 .6582031 .09298706 .6351929 .09298706 .6021881 .09298706 .5731964 .115997318 .54719546 .147995 .54719546 .1789856 .54719546 .20298767 .5731964 .20298767 .6021881Z"/>
<path id="font_1_82" d="M.44699098 0V.032989503H.4119873C.31698609 .032989503 .31399537 .04499817 .31399537 .08203125V.6371765C.31399537 .664032 .31199647 .66503909 .2849884 .66503909 .24398804 .6252289 .19099427 .6013489 .09599304 .6013489V.5683594C.12298584 .5683594 .1769867 .5683594 .23498535 .5953522V.08203125C.23498535 .04499817 .23199463 .032989503 .13699341 .032989503H.101989749V0C.14299011 .0029907227 .22898865 .0029907227 .27398683 .0029907227 .31900025 .0029907227 .4059906 .0029907227 .44699098 0Z"/>
<path id="font_1_107" d="M.47698976 .17900086H.44599916C.44299317 .15899658 .43499757 .10899353 .4229889 .08999634 .4169922 .08198547 .34098817 .08198547 .32499696 .08198547H.14698792L.28199769 .20399475C.2979889 .2190094 .33999635 .2519989 .35598756 .26600648 .41799928 .3230133 .47698976 .37802125 .47698976 .46902467 .47698976 .58802798 .3769989 .66503909 .2519989 .66503909 .13198853 .6651764 .052993776 .574173 .052993776 .48516847 .052993776 .4361725 .09199524 .4291687 .10598755 .4291687 .1269989 .4291687 .1579895 .4441681 .1579895 .48217774 .1579895 .5341797 .10798645 .5341797 .09599304 .5341797 .125 .6070709 .19198609 .6320343 .24099732 .6320343 .33399964 .6320343 .38198854 .55314639 .38198854 .46917726 .38198854 .36517335 .30899049 .2891693 .19099427 .16816712L.06498718 .03817749C.052993776 .026992798 .052993776 .024993897 .052993776 0H.44799806L.47698976 .17900086Z"/>
<path id="font_1_106" d="M.48599244 .17131043C.48599244 .25431825 .41999818 .330307 .31799317 .35231019 .39698792 .38031007 .45599366 .44831849 .45599366 .5283203 .45599366 .6080475 .3659973 .66503909 .2619934 .66503909 .15499878 .66503909 .07398987 .6070404 .07398987 .53105166 .07398987 .49404908 .09899902 .4780426 .125 .4780426 .1559906 .4780426 .17599488 .5000458 .17599488 .52905276 .17599488 .56604006 .14399719 .5800476 .12199402 .5810547 .1639862 .6360321 .24099732 .6390381 .25898744 .6390381 .2849884 .63931277 .36099244 .63131716 .36099244 .5283203 .36099244 .458313 .33198548 .41630555 .31799317 .40031434 .28799439 .36930848 .2649994 .36730958 .20399475 .36331178 .18499756 .36231996 .1769867 .36131288 .1769867 .34831239 .1769867 .3343048 .18598938 .3343048 .20298767 .3343048H.25299073C.33198548 .3343048 .38198854 .27630616 .38198854 .17131043 .38198854 .045440675 .31098939 .008514404 .2579956 .008514404 .20298767 .008514404 .12799073 .0284729 .09298706 .08137512 .1289978 .08137512 .1539917 .10437012 .1539917 .13737488 .1539917 .16937256 .1309967 .19238281 .09899902 .19238281 .07199097 .19238281 .04399109 .17536927 .04399109 .13537598 .04399109 .04045105 .1459961-.021484375 .2599945-.021484375 .3929901-.021484375 .48599244 .070388797 .48599244 .17037964V.17131043Z"/>
<path id="font_1_57" d="M.5 .1640625V.197052H.3939972V.64682009C.3939972 .6668091 .3939972 .6748047 .37298585 .6748047 .3600006 .6748047 .35899354 .6737976 .34899903 .6598053L.02999878 .197052V.1640625H.31199647V.08100891C.31199647 .04399109 .30899049 .032989503 .23199463 .032989503H.20899964V0L.35299684 .0029907227 .49699403 0V.032989503H.47399903C.39698792 .032989503 .3939972 .04399109 .3939972 .08100891V.1640625H.5M.31900025 .197052H.06498718L.31900025 .56585696V.197052Z"/>
<path id="font_1_56" d="M.47698976 .19924927C.47698976 .31576539 .3929901 .4189453 .2749939 .4189453 .22499085 .4189453 .17799378 .40293885 .13999939 .36886598V.5618439C.15299988 .55784609 .19299317 .54785159 .23498535 .54785159 .3600006 .54785159 .43598939 .63586428 .43598939 .6509552 .43598939 .6620178 .42900086 .66503909 .42399598 .66503909 .42399598 .66503909 .41999818 .66503909 .41099549 .66000369 .37199403 .6449127 .32598878 .632843 .27198792 .632843 .21299744 .632843 .1639862 .64793398 .1329956 .66000369 .12298584 .66503909 .11999512 .66503909 .11999512 .66503909 .10699463 .66503909 .10699463 .6539612 .10699463 .63586428V.34277345C.10699463 .32476808 .10699463 .3127594 .12298584 .3127594 .1309967 .3127594 .13398743 .31677247 .13899231 .32476808 .15098572 .33976747 .18899536 .39093019 .27398683 .39093019 .32998658 .39093019 .35699464 .34477235 .3659973 .3257599 .3829956 .2896576 .3849945 .24345398 .3849945 .20426941 .3849945 .16725159 .38398744 .11325073 .35598756 .069366458 .33699037 .03942871 .29699708 .008514404 .24398804 .008514404 .1789856 .008514404 .114990238 .04940796 .09199524 .11425781 .09498596 .11387634 .101989749 .11387634 .101989749 .11387634 .12998963 .11387634 .1519928 .13188172 .1519928 .16288758 .1519928 .19989014 .12298584 .21289063 .102996829 .21289063 .084991458 .21289063 .052993776 .20288086 .052993776 .15988159 .052993776 .069732669 .1309967-.021484375 .24598694-.021484375 .37098695-.021743775 .47698976 .07525635 .47698976 .19924927Z"/>
<path id="font_1_101" d="M.48599244 .20263672C.48599244 .33372499 .3869934 .42578126 .27598573 .42578126 .20399475 .42578126 .16099549 .37976075 .13798523 .33073426 .13798523 .41377259 .14498902 .4868164 .18099976 .54782107 .21099854 .5978241 .2619934 .6390381 .32499696 .6390381 .34498597 .6390381 .3909912 .63601687 .4139862 .60084536 .36898805 .5988312 .36499024 .5648346 .36499024 .553833 .36499024 .5238342 .3880005 .50683596 .4119873 .50683596 .42999269 .50683596 .45899964 .51782229 .45899964 .5558319 .45899964 .615921 .4139862 .66503909 .32398988 .66503909 .18499756 .66503909 .04399109 .53282168 .04399109 .31672669 .04399109 .045532228 .16999817-.021484375 .2669983-.021484375 .31498719-.021224976 .36698915-.008224487 .4119873 .03477478 .45199586 .073776248 .48599244 .11578369 .48599244 .20277405V.20263672M.3919983 .20378113C.3919983 .152771 .3919983 .10877991 .37199403 .072784427 .34599305 .026779175 .31098939 .0087890629 .2669983 .0087890629 .21398926 .0087890629 .18099976 .045776369 .1659851 .073776248 .14299011 .118774417 .14099121 .18678284 .14099121 .22477722 .14099121 .32377626 .19499207 .3977661 .27198792 .3977661 .32199098 .3977661 .35198976 .37176515 .37098695 .33677674 .3919983 .29977418 .3919983 .254776 .3919983 .20378113Z"/>
<path id="font_1_100" d="M.5149994 .6435547H.26098634C.23599243 .6435547 .20498657 .64456179 .17999268 .6465759 .12799073 .65060427 .1269989 .65966799 .12399292 .67578127H.09298706L.05899048 .46455384H.08999634C.09199524 .47955323 .102996829 .54855349 .116989139 .5565491 .12799073 .56155398 .20298767 .56155398 .21798706 .56155398H.42999269L.32699586 .42355348C.21299744 .27153016 .18899536 .11351013 .18899536 .03451538 .18899536 .024505616 .18899536-.021484375 .23599243-.021484375 .2829895-.021484375 .2829895 .023513794 .2829895 .035507204V.08351135C.2829895 .2275238 .30699159 .34553529 .35598756 .41053773L.5059967 .608551C.5149994 .6195526 .5149994 .6215515 .5149994 .6435547Z"/>
<path id="font_1_51" d="M.48599244 .16799927C.48599244 .23098755 .45199586 .272995 .43598939 .2899933 .4189911 .30599977 .41799928 .30699159 .33198548 .36099244 .3880005 .388031 .45599366 .43803407 .45599366 .516037 .45599366 .6110382 .35899354 .66503909 .2659912 .66503909 .1599884 .66503909 .07398987 .59202578 .07398987 .49803163 .07398987 .46102906 .08699036 .42703248 .11199951 .3980255 .1289978 .37702943 .1329956 .37503053 .19499207 .33602906 .070999149 .28050233 .04399109 .20750427 .04399109 .15150452 .04399109 .041503908 .15499878-.021484375 .2639923-.021484375 .3869934-.021484375 .48599244 .06150818 .48599244 .16751099V.16799927M.4059906 .5155029C.4059906 .45750428 .36099244 .4085083 .3019867 .37950135L.1769867 .45451356C.147995 .4718933 .12399292 .5009155 .12399292 .5359497 .12399292 .598999 .19299317 .6390381 .2639923 .6390381 .34199525 .6390381 .4059906 .5859833 .4059906 .5159302V.5155029M.42900086 .13360596C.42900086 .056549074 .34799195 .008514404 .2659912 .008514404 .1769867 .008987427 .100997928 .069992069 .100997928 .1519928 .100997928 .22698975 .15699768 .28599549 .22599793 .31799317L.36099244 .23498535C.3769989 .22599793 .42900086 .19400025 .42900086 .13398743V.13360596Z"/>
<path id="font_1_78" d="M.48599244 .3287964C.48599244 .58898928 .37098695 .66503909 .2679901 .66503909 .1499939 .66503909 .04399109 .5729828 .04399109 .44187928 .04399109 .31278993 .14099121 .21875 .2539978 .21875 .32499696 .21875 .36799623 .26374818 .3919983 .31478883V.29478456C.3919983 .05055237 .27598573 .008514404 .21798706 .008514404 .19699097 .008514404 .14498902 .011505127 .117996219 .042541505 .1619873 .046707155 .16499329 .079711917 .16499329 .08970642 .16499329 .1197052 .14199829 .13671875 .117996219 .13671875 .099990848 .13671875 .070999149 .12571717 .070999149 .08770752 .070999149 .019577027 .1269989-.021484375 .21899414-.021484375 .35598756-.021484375 .48599244 .114715579 .48599244 .32873536V.3287964M.3899994 .42074586C.3899994 .34173585 .34700013 .24674988 .2579956 .24674988 .21199036 .24674988 .18299866 .26774598 .16099549 .30474855 .13798523 .34199525 .13798523 .3899994 .13798523 .44099427 .13798523 .5000305 .13798523 .54203799 .16499329 .58303835 .18998719 .6190338 .22200012 .6390381 .2689972 .6390381 .33599855 .6390381 .36499024 .57302859 .36799623 .5680237 .3889923 .5190277 .3899994 .44102479 .3899994 .42103578V.42074586Z"/>
<path id="font_1_121" d="M.4889984 .31877137C.4889984 .42585755 .47799684 .49090577 .44499208 .55496218 .40098573 .6430359 .31999208 .66503909 .2649994 .66503909 .13899231 .66503909 .09298706 .5709839 .07899475 .5429535 .042999269 .4698944 .040985109 .3708191 .040985109 .31877137 .040985109 .25271607 .04399109 .15162659 .09199524 .07156372 .13798523-.0024871827 .21199036-.021484375 .2649994-.021484375 .31298829-.021484375 .39898683-.0064849855 .44898988 .09257507 .48599244 .16464234 .4889984 .2537079 .4889984 .31877137M.3999939 .33078004C.3999939 .27172853 .3999939 .18165589 .3880005 .12561035 .36698915 .020523072 .2979889 .006515503 .2649994 .006515503 .23098755 .006515503 .1619873 .022521973 .14099121 .12760926 .12998963 .18466187 .12998963 .2787323 .12998963 .33078004 .12998963 .3998413 .12998963 .4698944 .14099121 .5249481 .1619873 .6270294 .23999024 .6370239 .2649994 .6370239 .29899598 .6370239 .36799623 .62002566 .3880005 .5289459 .3999939 .4738922 .3999939 .39883424 .3999939 .33078004Z"/>
</defs>
<path transform="matrix(1,0,0,-1,34.996,212.952)" stroke-width=".19925" stroke-linecap="butt" stroke-miterlimit="10" stroke-linejoin="miter" fill="none" stroke="#d9d9d9" d="M0 0H283.4681M0 28.3468H283.4681M0 56.69362H283.4681M0 85.04042H283.4681M0 113.38724H283.4681M0 141.73404H283.4681M0 170.08086H283.4681M0 198.41771H283.4681M0 0V198.42766M28.3468 0V198.42766M56.69362 0V198.42766M85.04042 0V198.42766M113.38724 0V198.42766M141.73404 0V198.42766M170.08086 0V198.42766M198.42766 0V198.42766M226.77448 0V198.42766M255.12128 0V198.42766M283.45814 0V198.42766M283.4681 198.42766"/>
<path transform="matrix(1,0,0,-1,34.996,212.952)" stroke-width=".3985" stroke-linecap="butt" stroke-miterlimit="10" stroke-linejoin="miter" fill="none" stroke="#000000" d="M0 0H292.81413"/>
<path transform="matrix(1,0,0,-1,327.81013,212.952)" d="M1.99252 0-1.19551 1.59401 0 0-1.19551-1.59401"/>
<use data-text="m" xlink:href="#font_1_75" transform="matrix(7.97011,0,0,-7.97011,333.318,221.716)"/>
<use data-text="e" xlink:href="#font_1_50" transform="matrix(7.97011,0,0,-7.97011,340.37156,221.716)"/>
<use data-text="t" xlink:href="#font_1_105" transform="matrix(7.97011,0,0,-7.97011,344.13346,221.716)"/>
<use data-text="r" xlink:href="#font_1_96" transform="matrix(7.97011,0,0,-7.97011,347.4251,221.716)"/>
<use data-text="i" xlink:href="#font_1_66" transform="matrix(7.97011,0,0,-7.97011,350.72474,221.716)"/>
<path transform="matrix(1,0,0,-1,34.996,212.952)" stroke-width=".3985" stroke-linecap="butt" stroke-miterlimit="10" stroke-linejoin="miter" fill="none" stroke="#000000" d="M0 0V207.77368"/>
<path transform="matrix(0,-1,-1,-0,34.996,5.178314)" d="M1.99252 0-1.19551 1.59401 0 0-1.19551-1.59401"/>
<use data-text="m" xlink:href="#font_1_75" transform="matrix(0,-7.97011,-7.97011,-0,11.554001,123.618)"/>
<use data-text="e" xlink:href="#font_1_50" transform="matrix(0,-7.97011,-7.97011,-0,11.554001,116.56445)"/>
<use data-text="t" xlink:href="#font_1_105" transform="matrix(0,-7.97011,-7.97011,-0,11.554001,112.80256)"/>
<use data-text="r" xlink:href="#font_1_96" transform="matrix(0,-7.97011,-7.97011,-0,11.554001,109.5109)"/>
<use data-text="i" xlink:href="#font_1_66" transform="matrix(0,-7.97011,-7.97011,-0,11.554001,106.21127)"/>
<path transform="matrix(1,0,0,-1,34.996,212.952)" stroke-width=".3985" stroke-linecap="butt" stroke-miterlimit="10" stroke-linejoin="miter" fill="none" stroke="#000000" d="M28.3468 2.26778V-2.26778"/>
<use data-text="1" xlink:href="#font_1_82" transform="matrix(7.97011,0,0,-7.97011,61.225999,224.04)"/>
<path transform="matrix(1,0,0,-1,34.996,212.952)" stroke-width=".3985" stroke-linecap="butt" stroke-miterlimit="10" stroke-linejoin="miter" fill="none" stroke="#000000" d="M56.69362 2.26778V-2.26778"/>
<use data-text="2" xlink:href="#font_1_107" transform="matrix(7.97011,0,0,-7.97011,89.572,224.04)"/>
<path transform="matrix(1,0,0,-1,34.996,212.952)" stroke-width=".3985" stroke-linecap="butt" stroke-miterlimit="10" stroke-linejoin="miter" fill="none" stroke="#000000" d="M85.04042 2.26778V-2.26778"/>
<use data-text="3" xlink:href="#font_1_106" transform="matrix(7.97011,0,0,-7.97011,117.91899,224.04)"/>
<path transform="matrix(1,0,0,-1,34.996,212.952)" stroke-width=".3985" stroke-linecap="butt" stroke-miterlimit="10" stroke-linejoin="miter" fill="none" stroke="#000000" d="M113.38724 2.26778V-2.26778"/>
<use data-text="4" xlink:href="#font_1_57" transform="matrix(7.97011,0,0,-7.97011,146.265,224.11899)"/>
<path transform="matrix(1,0,0,-1,34.996,212.952)" stroke-width=".3985" stroke-linecap="butt" stroke-miterlimit="10" stroke-linejoin="miter" fill="none" stroke="#000000" d="M141.73404 2.26778V-2.26778"/>
<use data-text="5" xlink:href="#font_1_56" transform="matrix(7.97011,0,0,-7.97011,174.612,224.04)"/>
<path transform="matrix(1,0,0,-1,34.996,212.952)" stroke-width=".3985" stroke-linecap="butt" stroke-miterlimit="10" stroke-linejoin="miter" fill="none" stroke="#000000" d="M170.08086 2.26778V-2.26778"/>
<use data-text="6" xlink:href="#font_1_101" transform="matrix(7.97011,0,0,-7.97011,202.95801,224.04)"/>
<path transform="matrix(1,0,0,-1,34.996,212.952)" stroke-width=".3985" stroke-linecap="butt" stroke-miterlimit="10" stroke-linejoin="miter" fill="none" stroke="#000000" d="M198.42766 2.26778V-2.26778"/>
<use data-text="7" xlink:href="#font_1_100" transform="matrix(7.97011,0,0,-7.97011,231.30501,224.127)"/>
<path transform="matrix(1,0,0,-1,34.996,212.952)" stroke-width=".3985" stroke-linecap="butt" stroke-miterlimit="10" stroke-linejoin="miter" fill="none" stroke="#000000" d="M226.77448 2.26778V-2.26778"/>
<use data-text="8" xlink:href="#font_1_51" transform="matrix(7.97011,0,0,-7.97011,259.651,224.04)"/>
<path transform="matrix(1,0,0,-1,34.996,212.952)" stroke-width=".3985" stroke-linecap="butt" stroke-miterlimit="10" stroke-linejoin="miter" fill="none" stroke="#000000" d="M255.12128 2.26778V-2.26778"/>
<use data-text="9" xlink:href="#font_1_78" transform="matrix(7.97011,0,0,-7.97011,287.997,224.04)"/>
<path transform="matrix(1,0,0,-1,34.996,212.952)" stroke-width=".3985" stroke-linecap="butt" stroke-miterlimit="10" stroke-linejoin="miter" fill="none" stroke="#000000" d="M283.4681 2.26778V-2.26778"/>
<use data-text="1" xlink:href="#font_1_82" transform="matrix(7.97011,0,0,-7.97011,314.228,224.04)"/>
<use data-text="0" xlink:href="#font_1_121" transform="matrix(7.97011,0,0,-7.97011,318.4601,224.04)"/>
<path transform="matrix(1,0,0,-1,34.996,212.952)" stroke-width=".3985" stroke-linecap="butt" stroke-miterlimit="10" stroke-linejoin="miter" fill="none" stroke="#000000" d="M2.26778 28.3468H-2.26778"/>
<use data-text="1" xlink:href="#font_1_82" transform="matrix(7.97011,0,0,-7.97011,24.975998,187.25601)"/>
<path transform="matrix(1,0,0,-1,34.996,212.952)" stroke-width=".3985" stroke-linecap="butt" stroke-miterlimit="10" stroke-linejoin="miter" fill="none" stroke="#000000" d="M2.26778 56.69362H-2.26778"/>
<use data-text="2" xlink:href="#font_1_107" transform="matrix(7.97011,0,0,-7.97011,24.975998,158.909)"/>
<path transform="matrix(1,0,0,-1,34.996,212.952)" stroke-width=".3985" stroke-linecap="butt" stroke-miterlimit="10" stroke-linejoin="miter" fill="none" stroke="#000000" d="M2.26778 85.04042H-2.26778"/>
<use data-text="3" xlink:href="#font_1_106" transform="matrix(7.97011,0,0,-7.97011,24.975998,130.479)"/>
<path transform="matrix(1,0,0,-1,34.996,212.952)" stroke-width=".3985" stroke-linecap="butt" stroke-miterlimit="10" stroke-linejoin="miter" fill="none" stroke="#000000" d="M2.26778 113.38724H-2.26778"/>
<use data-text="4" xlink:href="#font_1_57" transform="matrix(7.97011,0,0,-7.97011,24.975998,102.256)"/>
<path transform="matrix(1,0,0,-1,34.996,212.952)" stroke-width=".3985" stroke-linecap="butt" stroke-miterlimit="10" stroke-linejoin="miter" fill="none" stroke="#000000" d="M2.26778 141.73404H-2.26778"/>
<use data-text="5" xlink:href="#font_1_56" transform="matrix(7.97011,0,0,-7.97011,24.975998,73.785999)"/>
<path transform="matrix(1,0,0,-1,34.996,212.952)" stroke-width=".3985" stroke-linecap="butt" stroke-miterlimit="10" stroke-linejoin="miter" fill="none" stroke="#000000" d="M2.26778 170.08086H-2.26778"/>
<use data-text="6" xlink:href="#font_1_101" transform="matrix(7.97011,0,0,-7.97011,24.975998,45.440004)"/>
<path transform="matrix(1,0,0,-1,34.996,212.952)" stroke-width=".3985" stroke-linecap="butt" stroke-miterlimit="10" stroke-linejoin="miter" fill="none" stroke="#000000" d="M2.26778 198.42766H-2.26778"/>
<use data-text="7" xlink:href="#font_1_100" transform="matrix(7.97011,0,0,-7.97011,24.975998,17.136994)"/>
<path transform="matrix(1,0,0,-1,34.996,212.952)" d="M0 0V170.08086H141.73404C198.42766 170.08086 226.77448 113.38724 226.77448 0Z" fill="#ebebff"/>
<path transform="matrix(1,0,0,-1,34.996,212.952)" stroke-width=".79701" stroke-linecap="butt" stroke-miterlimit="10" stroke-linejoin="miter" fill="none" stroke="#000000" d="M0 0V170.08086H141.73404C198.42766 170.08086 226.77448 113.38724 226.77448 0Z"/>
</svg>
