<svg xmlns="http://www.w3.org/2000/svg" xmlns:xlink="http://www.w3.org/1999/xlink" xmlns:inkscape="http://www.inkscape.org/namespaces/inkscape" version="1.1" width="229.007" height="152.738" viewBox="0 0 229.007 152.738">
<defs>
<path id="font_1_1" d="M.6589966 .23046875C.6759949 .23046875 .69400027 .23046875 .69400027 .25045777 .69400027 .27046205 .6759949 .27046205 .6589966 .27046205H.117996219C.100997928 .27046205 .08299255 .27046205 .08299255 .25045777 .08299255 .23046875 .100997928 .23046875 .117996219 .23046875H.6589966Z"/>
<path id="font_2_5" d="M.2899933 .35191346C.37199403 .37893678 .42999269 .4490509 .42999269 .52809146 .42999269 .6100464 .34199525 .6660156 .24598694 .6660156 .14498902 .6660156 .068984989 .60606387 .068984989 .53009036 .068984989 .49710084 .09098816 .47808839 .11999512 .47808839 .15098572 .47808839 .17098999 .50009158 .17098999 .5290985 .17098999 .57910159 .12399292 .57910159 .10899353 .57910159 .13999939 .62802127 .20599365 .64100649 .24198914 .64100649 .2829895 .64100649 .33799745 .6190338 .33799745 .5290985 .33799745 .51708987 .33599855 .45906068 .30999757 .4149933 .27999879 .36691285 .24598694 .36390687 .22099304 .36291505 .21299744 .36190797 .18899536 .35990907 .18199158 .35990907 .17399597 .35890199 .16699219 .35791017 .16699219 .3479004 .16699219 .33691407 .17399597 .33691407 .19099427 .33691407H.23498535C.31698609 .33691407 .35398866 .2686615 .35398866 .17037964 .35398866 .034469606 .2849884 .0055389406 .24099732 .0055389406 .19799805 .0055389406 .12298584 .022491456 .08799744 .08137512 .12298584 .07637024 .1539917 .09837341 .1539917 .1363678 .1539917 .17237854 .1269989 .19238281 .09799194 .19238281 .07398987 .19238281 .041992189 .17837525 .041992189 .1343689 .041992189 .043441774 .1349945-.022460938 .24398804-.022460938 .3659973-.022460938 .45700074 .06838989 .45700074 .17037964 .45700074 .252594 .3939972 .33088685 .2899933 .35191346Z"/>
<path id="font_2_4" d="M.1269989 .07699585 .23298645 .18003845C.3889923 .31811524 .44898988 .3721466 .44898988 .47216798 .44898988 .5860901 .35899354 .6660156 .23699951 .6660156 .12399292 .6660156 .049987794 .57411196 .049987794 .48516847 .049987794 .4291687 .099990848 .4291687 .102996829 .4291687 .11999512 .4291687 .15499878 .44117738 .15499878 .48217774 .15499878 .5081787 .13699341 .5341797 .101989749 .5341797 .09399414 .5341797 .09199524 .5341797 .08898926 .5331726 .11199951 .59806826 .1659851 .63500979 .22399903 .63500979 .31498719 .63500979 .35798646 .5541382 .35798646 .47216798 .35798646 .39215089 .30799867 .31311036 .25299073 .25108338L.06098938 .036987306C.049987794 .025985718 .049987794 .023986817 .049987794 0H.42099L.44898988 .17404175H.42399598C.4189911 .14402771 .4119873 .1000061 .4019928 .084991458 .394989 .07699585 .32899476 .07699585 .30699159 .07699585H.1269989Z"/>
<path id="font_2_3" d="M.2939911 .64004519C.2939911 .66400149 .2939911 .6660156 .2709961 .6660156 .20899964 .60227969 .12098694 .60227969 .08898926 .60227969V.57128909C.10899353 .57128909 .16799927 .57128909 .21998596 .5972748V.07902527C.21998596 .042999269 .21699524 .0309906 .1269989 .0309906H.09498596V0C.12998963 .0029907227 .21699524 .0029907227 .25698854 .0029907227 .29699708 .0029907227 .38398744 .0029907227 .4189911 0V.0309906H.3869934C.29699708 .0309906 .2939911 .041992189 .2939911 .07902527V.64004519Z"/>
<clipPath id="clip_3">
<path transform="matrix(1,0,0,-1,12.674,142.80301)" d="M0 0H212.94855V139.41809H0Z"/>
</clipPath>
<path id="font_4_75" d="M.8569946 0V.032989503C.79299929 .032989503 .7809906 .032989503 .7809906 .07803345V.3032837C.7809906 .3843689 .74598696 .44140626 .6369934 .44140626 .54499819 .44140626 .49899293 .37835694 .48298646 .34933473 .46499635 .42140199 .4079895 .44140626 .34298707 .44140626 .24598694 .44140626 .19999695 .37236024 .18699646 .34532167H.18598938V.44140626L.040985109 .43045045V.39746095C.10899353 .39746095 .116989139 .3904419 .116989139 .3413849V.078048709C.116989139 .032989503 .10499573 .032989503 .040985109 .032989503V0C.083999637 .0029907227 .12799073 .0029907227 .15499878 .0029907227 .18399048 .0029907227 .22599793 .0029907227 .2689972 0V.032989503C.20498657 .032989503 .19299317 .032989503 .19299317 .078048709V.25927735C.19299317 .36434938 .27198792 .4133911 .33499146 .4133911 .3999939 .4133911 .41099549 .36235047 .41099549 .3072815V.07803345C.41099549 .032989503 .39898683 .032989503 .33499146 .032989503V0C.37799073 .0029907227 .42199708 .0029907227 .44898988 .0029907227 .47799684 .0029907227 .519989 .0029907227 .5629883 0V.032989503C.49899293 .032989503 .4869995 .032989503 .4869995 .07803345V.25923158C.4869995 .36434938 .56599429 .4133911 .6289978 .4133911 .69400027 .4133911 .7049866 .36235047 .7049866 .3072815V.07803345C.7049866 .032989503 .69299319 .032989503 .6289978 .032989503V0C.6719971 .0029907227 .71598818 .0029907227 .7429962 .0029907227 .7719879 .0029907227 .81399539 .0029907227 .8569946 0Z"/>
<path id="font_4_28" d="M.5139923 .09020996V.14530945H.48298646V.09020996C.48298646 .0491333 .46798707 .033111574 .44699098 .033111574 .4099884 .033111574 .4099884 .079193118 .4099884 .09020996V.29856874C.4099884 .39653016 .31498719 .44628907 .22399903 .44628907 .14099121 .44628907 .066986087 .4143219 .066986087 .34857179 .066986087 .318573 .08799744 .30056764 .11399841 .30056764 .14199829 .30056764 .16099549 .3205719 .16099549 .3475647 .16099549 .37156678 .1459961 .38856507 .12399292 .3935547 .16099549 .41827394 .21499634 .41827394 .22200012 .41827394 .27799989 .41827394 .33399964 .37957765 .33399964 .29756166V.26651C.27598573 .26350404 .20899964 .26049806 .13899231 .23144531 .050994874 .1933899 .033996583 .13528443 .033996583 .10223389 .033996583 .016220093 .1349945-.009765625 .20399475-.009765625 .2769928-.009765625 .32199098 .031219483 .34399415 .07122803 .34899903 .033111574 .375-.0048828127 .4189911-.0048828127 .42900086-.0048828127 .5139923-.00088500979 .5139923 .09010315V.09020996M.33399964 .14111328C.33399964 .04421997 .2519989 .018234253 .21199036 .018234253 .1599884 .018234253 .115997318 .053222658 .115997318 .10122681 .115997318 .16722107 .17799378 .23522949 .33399964 .24023438V.14111328Z"/>
<path id="font_4_116" d="M.5439911 0V.032989503C.48199464 .032989503 .47200013 .037994386 .44599916 .06895447L.30799867 .23381043C.33599855 .2687683 .36499024 .30274964 .394989 .33570863 .42799378 .37068177 .46299745 .39665223 .526001 .3976593V.43066407C.4869995 .42765809 .4850006 .42765809 .43998719 .42765809 .43499757 .42765809 .37599183 .42765809 .34498597 .43066407V.3976593C.3639984 .3956604 .36799623 .383667 .36799623 .37068177 .36799623 .35769654 .36299134 .34570313 .35099793 .33171083L.28799439 .25778199 .20899964 .35169984C.19699097 .36569215 .19699097 .37467958 .19699097 .37467958 .19699097 .3816681 .20298767 .39665223 .22799683 .3976593V.43066407C.18798828 .42765809 .13198853 .42765809 .12098694 .42765809 .102996829 .42765809 .051986696 .42765809 .021987915 .43066407V.3976593C.08999634 .3976593 .09098816 .39665223 .14299011 .33570863L.24598694 .21083069 .15499878 .10392761C.12998963 .07595825 .09298706 .034988405 .016998291 .032989503V0C.053985597 .0029907227 .06098938 .0029907227 .102996829 .0029907227 .102996829 .0029907227 .1659851 .0029907227 .19799805 0V.032989503C.18499756 .034988405 .17399597 .04197693 .17399597 .05996704 .17399597 .07795715 .18598938 .091934207 .18899536 .09693909L.2669983 .18585205 .34899903 .0879364C.36898805 .064956668 .36898805 .06295776 .36898805 .05596924 .36898805 .047973634 .3619995 .033996583 .33799745 .032989503V0C.3809967 .0029907227 .42599488 .0029907227 .44499208 .0029907227 .46299745 .0029907227 .5139923 .0029907227 .5439911 0Z"/>
<path id="font_5_1" d="M.33299256-.25C.34098817-.25 .35299684-.25 .35299684-.23800659 .35299684-.23400879 .35198976-.23300171 .33898927-.22000122 .20199585-.09100342 .16799927 .09498596 .16799927 .25 .16799927 .5379944 .2869873 .6729889 .33799745 .71899417 .35198976 .7319946 .35299684 .73298647 .35299684 .73799136 .35299684 .7429962 .34899903 .75 .33898927 .75 .32299806 .75 .272995 .69898989 .2649994 .6899872 .1309967 .5499878 .102996829 .36999513 .102996829 .25 .102996829 .025985718 .19699097-.15400696 .33299256-.25Z"/>
<path id="font_5_4" d="M.31399537 .63708499C.31399537 .664032 .31199647 .66503909 .2849884 .66503909 .24398804 .6251831 .19099427 .6013489 .09599304 .6013489V.5683594C.12298584 .5683594 .1769867 .5683594 .23498535 .5953522V.08203125C.23498535 .04499817 .23199463 .032989503 .13699341 .032989503H.101989749V0C.14299011 .0029907227 .22898865 .0029907227 .27398683 .0029907227 .31900025 .0029907227 .4059906 .0029907227 .44699098 0V.032989503H.4119873C.31698609 .032989503 .31399537 .04499817 .31399537 .08203125V.63708499Z"/>
<path id="font_6_2" d="M.46499635 .70799258C.47099305 .7220001 .47099305 .723999 .47099305 .72698977 .47099305 .73999026 .46099855 .75 .44799806 .75 .43199159 .75 .42799378 .73799136 .42399598 .7279968L.06498718-.20800781C.05899048-.22200012 .05899048-.22401428 .05899048-.227005 .05899048-.2400055 .068984989-.25 .08198547-.25 .09799194-.25 .101989749-.23800659 .10598755-.22801209L.46499635 .70799258Z"/>
<path id="font_5_6" d="M.25299073 .33370973C.33198548 .33370973 .38198854 .27557374 .38198854 .17037964 .38198854 .045440675 .31098939 .008514404 .2579956 .008514404 .20298767 .008514404 .12799073 .0284729 .09298706 .08137512 .1289978 .08137512 .1539917 .10437012 .1539917 .13737488 .1539917 .16937256 .1309967 .19238281 .09899902 .19238281 .07199097 .19238281 .04399109 .17536927 .04399109 .13537598 .04399109 .04045105 .1459961-.021484375 .2599945-.021484375 .3929901-.021484375 .48599244 .070388797 .48599244 .17037964 .48599244 .25352479 .41999818 .32969667 .31799317 .3517456 .39698792 .37982179 .45599366 .4479828 .45599366 .52804568 .45599366 .6080475 .3659973 .66503909 .2619934 .66503909 .15499878 .66503909 .07398987 .6070404 .07398987 .53105166 .07398987 .49404908 .09899902 .4780426 .125 .4780426 .1559906 .4780426 .17599488 .5000458 .17599488 .52905276 .17599488 .56604006 .14399719 .5800476 .12199402 .5810547 .1639862 .6360321 .24099732 .6390381 .25898744 .6390381 .2849884 .6390381 .36099244 .6310272 .36099244 .52804568 .36099244 .45799256 .33198548 .41589356 .31799317 .39985658 .28799439 .36878968 .2649994 .36679078 .20399475 .3627777 .18499756 .36177064 .1769867 .36076356 .1769867 .3477478 .1769867 .33370973 .18598938 .33370973 .20298767 .33370973H.25299073Z"/>
<path id="font_6_1" d="M.18699646 .01499939C.18699646-.050109865 .17298889-.10720825 .11099243-.16934204 .10699463-.17234802 .10499573-.17434693 .10499573-.17933655 .10499573-.18734741 .11299133-.19334412 .11999512-.19334412 .13198853-.19334412 .21499634-.114227298 .21499634 .0029907227 .21499634 .066986087 .19099427 .11099243 .14698792 .11099243 .11199951 .11099243 .09199524 .08299255 .09199524 .055999757 .09199524 .027999878 .11099243 0 .147995 0 .17199707 0 .18699646 .01399231 .18699646 .01499939Z"/>
<path id="font_5_7" d="M.3939972 .6468048C.3939972 .6667938 .3939972 .6748047 .37298585 .6748047 .3600006 .6748047 .35899354 .6737976 .34899903 .65979006L.02999878 .197052V.1640625H.31199647V.08100891C.31199647 .04399109 .30899049 .032989503 .23199463 .032989503H.20899964V0C.2939911 .0029907227 .29599 .0029907227 .35299684 .0029907227 .4099884 .0029907227 .4119873 .0029907227 .49699403 0V.032989503H.47399903C.39698792 .032989503 .3939972 .04399109 .3939972 .08100891V.1640625H.5V.197052H.3939972V.6468048M.31900025 .5658417V.197052H.06498718L.31900025 .5658417Z"/>
<path id="font_5_5" d="M.28199769 .20405579C.2979889 .21907044 .33999635 .2520752 .35598756 .26608277 .41799928 .32312013 .47698976 .3781433 .47698976 .46917726 .47698976 .588089 .3769989 .66503909 .2519989 .66503909 .13198853 .66503909 .052993776 .57411196 .052993776 .48516847 .052993776 .4361725 .09199524 .4291687 .10598755 .4291687 .1269989 .4291687 .1579895 .4441681 .1579895 .48217774 .1579895 .5341797 .10798645 .5341797 .09599304 .5341797 .125 .6070709 .19198609 .6320343 .24099732 .6320343 .33399964 .6320343 .38198854 .55314639 .38198854 .46917726 .38198854 .36514283 .30899049 .28910829 .19099427 .16804505L.06498718 .037994386C.052993776 .026992798 .052993776 .024993897 .052993776 0H.44799806L.47698976 .17904663H.44599916C.44299317 .1590271 .43499757 .10900879 .4229889 .08999634 .4169922 .08198547 .34098817 .08198547 .32499696 .08198547H.14698792L.28199769 .20405579Z"/>
<path id="font_5_8" d="M.5059967 .608551C.5149994 .6195526 .5149994 .6215515 .5149994 .6435547H.26098634C.23599243 .6435547 .20498657 .64456179 .17999268 .64660647 .12799073 .65068057 .1269989 .6597748 .12399292 .67578127H.09298706L.05899048 .46453858H.08999634C.09199524 .47953797 .102996829 .54855349 .116989139 .5565491 .12799073 .56155398 .20298767 .56155398 .21798706 .56155398H.42999269L.32699586 .4235382C.21299744 .27153016 .18899536 .11351013 .18899536 .03451538 .18899536 .024505616 .18899536-.021484375 .23599243-.021484375 .2829895-.021484375 .2829895 .023513794 .2829895 .035507204V.08351135C.2829895 .2275238 .30699159 .34553529 .35598756 .41053773L.5059967 .608551Z"/>
<path id="font_5_2" d="M.30899049 .25C.30899049 .34500123 .29299928 .45899964 .23098755 .57699587 .18199158 .6689911 .09098816 .75 .07299805 .75 .06298828 .75 .05999756 .7429962 .05999756 .73799136 .05999756 .73399356 .05999756 .7319946 .07199097 .7200012 .21199036 .58699038 .24398804 .4039917 .24398804 .25 .24398804-.037002565 .125-.17300415 .07398987-.2190094 .06098938-.23200989 .05999756-.23300171 .05999756-.23800659 .05999756-.24301148 .06298828-.25 .07299805-.25 .08898926-.25 .13899231-.19900513 .14698792-.19000244 .2809906-.05000305 .30899049 .12998963 .30899049 .25Z"/>
<path id="font_4_66" d="M.2599945 .0001373291V.03314209C.19499207 .03314209 .19099427 .038146974 .19099427 .07714844V.44140626L.04499817 .43045045V.39746095C.10899353 .39746095 .117996219 .39144898 .117996219 .34239198V.07814026C.117996219 .03314209 .10598755 .03314209 .041992189 .03314209V0C.08099365 .0029907227 .13699341 .0029907227 .1519928 .0029907227 .16499329 .0029907227 .22499085 .0029907227 .2599945 0V.0001373291M.20298767 .6021881C.20298767 .6351929 .1769867 .6582031 .147995 .6582031 .11898804 .6582031 .09298706 .6351929 .09298706 .6021881 .09298706 .5731964 .115997318 .54719546 .147995 .54719546 .1789856 .54719546 .20298767 .5731964 .20298767 .6021881Z"/>
<path id="font_4_77" d="M.56199648 0V.032989503C.49798585 .032989503 .48599244 .032989503 .48599244 .07803345V.3032837C.48599244 .38737489 .44799806 .44140626 .34298707 .44140626 .24398804 .44140626 .19898987 .36935426 .18699646 .34532167H.18598938V.44140626L.040985109 .43045045V.39746095C.10899353 .39746095 .116989139 .3904419 .116989139 .3413849V.078048709C.116989139 .032989503 .10499573 .032989503 .040985109 .032989503V0C.083999637 .0029907227 .12799073 .0029907227 .15499878 .0029907227 .18399048 .0029907227 .22599793 .0029907227 .2689972 0V.032989503C.20498657 .032989503 .19299317 .032989503 .19299317 .078048709V.25927735C.19299317 .36434938 .272995 .4133911 .33399964 .4133911 .394989 .4133911 .4099884 .37036134 .4099884 .3072815V.07803345C.4099884 .032989503 .397995 .032989503 .33399964 .032989503V0C.3769989 .0029907227 .42099 .0029907227 .44799806 .0029907227 .47698976 .0029907227 .5189972 .0029907227 .56199648 0Z"/>
<path id="font_5_3" d="M.4889984 .31877137C.4889984 .42585755 .47799684 .49090577 .44499208 .55496218 .40098573 .6430359 .31999208 .66503909 .2649994 .66503909 .13899231 .66503909 .09298706 .5709839 .07899475 .5429535 .042999269 .4698944 .040985109 .3708191 .040985109 .31877137 .040985109 .25271607 .04399109 .15162659 .09199524 .07156372 .13798523-.0024871827 .21199036-.021484375 .2649994-.021484375 .31298829-.021484375 .39898683-.0064849855 .44898988 .09257507 .48599244 .16464234 .4889984 .2537079 .4889984 .31877137M.2649994 .006515503C.23098755 .006515503 .1619873 .022521973 .14099121 .12760926 .12998963 .18466187 .12998963 .2787323 .12998963 .33078004 .12998963 .3998413 .12998963 .4698944 .14099121 .5249481 .1619873 .6270294 .23999024 .6370239 .2649994 .6370239 .29899598 .6370239 .36799623 .62002566 .3880005 .5289459 .3999939 .4738922 .3999939 .39883424 .3999939 .33078004 .3999939 .27172853 .3999939 .18165589 .3880005 .12561035 .36698915 .020523072 .2979889 .006515503 .2649994 .006515503Z"/>
<path id="font_7_1" d="M.69898989 .22743225C.71499636 .22743225 .7369995 .22743225 .7369995 .25042726 .7369995 .2734375 .71499636 .2734375 .69898989 .2734375H.12599182C.10998535 .2734375 .08799744 .2734375 .08799744 .25042726 .08799744 .22743225 .10998535 .22743225 .12599182 .22743225H.69898989Z"/>
<path id="font_5_9" d="M.19099427 .69433596 .041992189 .68333438V.6503296C.10998535 .6503296 .117996219 .6433258 .117996219 .5942993V.07801819C.117996219 .032989503 .10598755 .032989503 .041992189 .032989503V0C.08099365 .0029907227 .13699341 .0029907227 .1539917 .0029907227 .17399597 .0029907227 .22799683 .0029907227 .2669983 0V.032989503C.20298767 .032989503 .19099427 .032989503 .19099427 .07801819V.69433596Z"/>
<path id="font_5_10" d="M.48599244 .3032837C.48599244 .38737489 .44799806 .44140626 .34298707 .44140626 .24398804 .44140626 .19898987 .36935426 .18699646 .34532167H.18598938V.44140626L.040985109 .43040467V.39738465C.10899353 .39738465 .116989139 .39038087 .116989139 .34132386V.07803345C.116989139 .032989503 .10499573 .032989503 .040985109 .032989503V0C.083999637 .0029907227 .12799073 .0029907227 .15499878 .0029907227 .18399048 .0029907227 .22599793 .0029907227 .2689972 0V.032989503C.20498657 .032989503 .19299317 .032989503 .19299317 .07803345V.25923158C.19299317 .36434938 .272995 .4133911 .33399964 .4133911 .394989 .4133911 .4099884 .37036134 .4099884 .3072815V.07803345C.4099884 .032989503 .397995 .032989503 .33399964 .032989503V0C.3769989 .0029907227 .42099 .0029907227 .44799806 .0029907227 .47698976 .0029907227 .5189972 .0029907227 .56199648 0V.032989503C.49798585 .032989503 .48599244 .032989503 .48599244 .07803345V.3032837Z"/>
<path id="font_6_3" d="M.31498719 .31178285H.49699403C.6409912 .31178285 .79100039 .41174317 .79100039 .52967837 .79100039 .614624 .71099856 .6826172 .58200076 .6826172H.24499512C.22698975 .6826172 .21398926 .6826172 .21398926 .66360476 .21398926 .6496124 .22698975 .6496124 .24299622 .6496124 .27598573 .6496124 .30499269 .6496124 .30499269 .6336212 .30499269 .6296234 .3039856 .62861636 .30099488 .6156311L.16699219 .07896423C.1579895 .041992189 .1559906 .032989503 .084991458 .032989503 .06199646 .032989503 .050994874 .032989503 .050994874 .01399231 .050994874 .009994507 .053985597 0 .066986087 0 .085998538 0 .10998535 .0019989014 .1289978 .0029907227H.19299317C.2889862 .0029907227 .31498719 0 .32199098 0 .32798768 0 .34199525 0 .34199525 .018997193 .34199525 .032989503 .32899476 .032989503 .31199647 .032989503 .30899049 .032989503 .29100038 .032989503 .27398683 .034988405 .25299073 .036987306 .25099183 .039993287 .25099183 .048980714 .25099183 .053970338 .25299073 .05996704 .2539978 .064971927L.31498719 .31178285M.3880005 .6126251C.39698792 .64660647 .397995 .6496124 .43899537 .6496124H.548996C.6309967 .6496124 .69400027 .6256256 .69400027 .55166628 .69400027 .53868106 .68899539 .4497223 .6329956 .39476014 .6179962 .37976075 .56999209 .34179688 .47200013 .34179688H.31999208L.3880005 .6126251Z"/>
<path id="font_8_1" d="M.5379944 .18702698H.5009918C.49899293 .17301941 .4889984 .10699463 .47399903 .09599304 .46699525 .08999634 .38598634 .08999634 .37199403 .08999634H.18499756L.31298829 .19403076C.34700013 .22103882 .43598939 .28504945 .46699525 .31506349 .49699403 .3450775 .5379944 .39608766 .5379944 .46710206 .5379944 .5920563 .4249878 .66503909 .29100038 .66503909 .1619873 .66503909 .07199097 .58006289 .07199097 .48609925 .07199097 .43510438 .114990238 .42910768 .12599182 .42910768 .15098572 .42910768 .17999268 .44709779 .17999268 .48310853 .17999268 .50509646 .16699219 .5371094 .12298584 .5371094 .1459961 .5880585 .20698548 .6260376 .27598573 .6260376 .3809967 .6260376 .43699647 .5480957 .43699647 .46710206 .43699647 .39608766 .3899994 .32305909 .31999208 .25904847L.08299255 .041992189C.07299805 .03199768 .07199097 .0309906 .07199097 0H.5069885L.5379944 .18702698Z"/>
<path id="font_6_4" d="M.5009918 .39942933C.45700074 .38842774 .45498658 .34942628 .45498658 .34542848 .45498658 .3234253 .47200013 .3084259 .49398805 .3084259 .5159912 .3084259 .5499878 .3254242 .5499878 .36842347 .5499878 .42539979 .4869995 .44140626 .44999696 .44140626 .40299989 .44140626 .36499024 .4084015 .34199525 .36943055 .31999208 .4223938 .2679901 .44140626 .22698975 .44140626 .117996219 .44140626 .056991579 .31643678 .056991579 .28840638 .056991579 .27938844 .06399536 .27539063 .07199097 .27539063 .083999637 .27539063 .085998538 .2803955 .08898926 .29240418 .11199951 .36543275 .17199707 .4133911 .22399903 .4133911 .2630005 .4133911 .28199769 .385437 .28199769 .34942628 .28199769 .32943727 .269989 .2834015 .2619934 .25135804 .25498963 .22232056 .23298645 .13320923 .22799683 .11419678 .21398926 .060195924 .17799378 .018234253 .1329956 .018234253 .1289978 .018234253 .102996829 .018234253 .08198547 .032196046 .12799073 .04319763 .12799073 .08518982 .12799073 .0861969 .12799073 .109191898 .10998535 .12319946 .08799744 .12319946 .06098938 .12319946 .03199768 .10018921 .03199768 .062194826 .03199768 .016220093 .08099365-.009765625 .13198853-.009765625 .18499756-.009765625 .22200012 .030197144 .23999024 .062194826 .2619934 .01322937 .30799867-.009765625 .35598756-.009765625 .46499635-.009765625 .5249939 .1151886 .5249939 .143219 .5249939 .15322876 .5169983 .15623474 .5099945 .15623474 .49798585 .15623474 .49598695 .14923096 .49299623 .13922119 .47299195 .07218933 .41600038 .018234253 .35798646 .018234253 .32499696 .018234253 .30099488 .04019165 .30099488 .0821991 .30099488 .10218811 .30699159 .12519837 .32099916 .18127442 .32798768 .21130371 .34999085 .29942323 .35499574 .31843568 .36898805 .37042237 .4039917 .4133911 .44898988 .4133911 .45399476 .4133911 .47999574 .4133911 .5009918 .39942933Z"/>
<path id="font_8_2" d="M.2939911 .33203126C.3789978 .33203126 .43598939 .274765 .43598939 .17237854 .43598939 .062408449 .36999513 .014511108 .29699708 .014511108 .269989 .014511108 .16699219 .020492554 .12199402 .07836914 .16099549 .0823822 .1769867 .10836792 .1769867 .13537598 .1769867 .16937256 .15299988 .19238281 .11999512 .19238281 .09298706 .19238281 .06298828 .17536927 .06298828 .13337708 .06298828 .034469606 .17298889-.021484375 .2999878-.021484375 .44799806-.021484375 .5469971 .07337952 .5469971 .17237854 .5469971 .24562073 .4909973 .3229828 .37199403 .35302735 .45098878 .37902833 .5149994 .44306947 .5149994 .5251007 .5149994 .60505679 .42099 .66503909 .30099488 .66503909 .18399048 .66503909 .09498596 .61105349 .09498596 .5290985 .09498596 .48609925 .12799073 .47409059 .147995 .47409059 .17399597 .47409059 .20098877 .49209596 .20098877 .5270996 .20098877 .5580902 .1789856 .5760956 .1519928 .5800934 .19898987 .6320343 .2899933 .6320343 .29899598 .6320343 .34999085 .6320343 .4139862 .60806277 .4139862 .5251007 .4139862 .47009278 .3829956 .37402345 .2829895 .36802674 .2649994 .36701966 .23799134 .36502076 .22898865 .36502076 .21899414 .36402894 .20799256 .36302186 .20799256 .34802247 .20799256 .33203126 .21899414 .33203126 .23599243 .33203126H.2939911Z"/>
<path id="font_9_2" d="M.33399964 .30233766C.33999635 .32835389 .36299134 .42037965 .43299867 .42037965 .43798829 .42037965 .46199037 .42037965 .48298646 .40734864 .45498658 .402359 .43499757 .37734986 .43499757 .35334779 .43499757 .33735658 .44599916 .31835938 .47299195 .31835938 .49499513 .31835938 .5269928 .3363495 .5269928 .37635804 .5269928 .42837525 .46798707 .4423828 .43399049 .4423828 .37599183 .4423828 .34098817 .38935853 .32899476 .36634828 .3039856 .43237306 .25 .4423828 .22099304 .4423828 .116989139 .4423828 .05999756 .3133545 .05999756 .28834535 .05999756 .27833558 .069992069 .27833558 .07199097 .27833558 .07998657 .27833558 .08299255 .28033448 .084991458 .28933717 .11898804 .39535523 .18499756 .42037965 .21899414 .42037965 .23799134 .42037965 .272995 .4113617 .272995 .35334779 .272995 .32235719 .2559967 .25532533 .21899414 .11528015 .20298767 .053268434 .16799927 .011245728 .12399292 .011245728 .117996219 .011245728 .09498596 .011245728 .07398987 .024276734 .09899902 .029266358 .12098694 .05027771 .12098694 .07827759 .12098694 .105270389 .09899902 .11328125 .083999637 .11328125 .053985597 .11328125 .0289917 .08728027 .0289917 .055267335 .0289917 .009246826 .07899475-.0107421879 .12298584-.0107421879 .18899536-.0107421879 .22499085 .059280397 .22799683 .0652771 .23999024 .028274537 .27598573-.0107421879 .33599855-.0107421879 .43899537-.0107421879 .49598695 .118270877 .49598695 .14328003 .49598695 .1532898 .4869995 .1532898 .48399354 .1532898 .47499085 .1532898 .47299195 .14929199 .47099305 .14228821 .43798829 .03527832 .36999513 .011245728 .33799745 .011245728 .29899598 .011245728 .2829895 .043273927 .2829895 .07727051 .2829895 .09927368 .2889862 .121276859 .2999878 .16529846L.33399964 .30233766Z"/>
<path id="font_9_1" d="M.36698915 .3996582H.45298768C.47299195 .3996582 .48298646 .3996582 .48298646 .41966249 .48298646 .43066407 .47299195 .43066407 .45599366 .43066407H.37298585L.3939972 .5449524C.397995 .5660095 .4119873 .6370239 .41799928 .6490326 .4269867 .66804507 .44400025 .68307498 .46499635 .68307498 .46899415 .68307498 .49499513 .68307498 .5139923 .66503909 .46998597 .661026 .45999146 .6260376 .45999146 .6110382 .45999146 .58802798 .47799684 .57603457 .49699403 .57603457 .522995 .57603457 .5519867 .5980377 .5519867 .6360321 .5519867 .6820679 .5059967 .7050781 .46499635 .7050781 .43099977 .7050781 .36799623 .68707278 .33799745 .58802798 .33198548 .56700137 .32899476 .5569763 .30499269 .43066407H.23599243C.21699524 .43066407 .20599365 .43066407 .20599365 .4116516 .20599365 .3996582 .21499634 .3996582 .23399353 .3996582H.2999878L.22499085 .0048828127C.20698548-.09207153 .18998719-.18309021 .13798523-.18309021 .13398743-.18309021 .10899353-.18309021 .08999634-.16506958 .13598633-.1620636 .14498902-.12606812 .14498902-.111068729 .14498902-.08807373 .1269989-.07606506 .10798645-.07606506 .08198547-.07606506 .052993776-.09806824 .052993776-.13606262 .052993776-.18109131 .09700012-.20507813 .13798523-.20507813 .19299317-.20507813 .23298645-.14607239 .25099183-.108062747 .2829895-.04508972 .30599977 .07583618 .30699159 .082839969L.36698915 .3996582Z"/>
<path id="font_2_1" d="M.33099366-.2400055C.33099366-.23701477 .33099366-.23500061 .31399537-.21800232 .18899536-.0920105 .15699768 .09700012 .15699768 .25 .15699768 .42399598 .19499207 .59799197 .31799317 .72299197 .33099366 .73498538 .33099366 .7369995 .33099366 .73999026 .33099366 .746994 .32699586 .75 .32099916 .75 .31098939 .75 .22099304 .6819916 .1619873 .5549927 .11099243 .44499208 .09899902 .33399964 .09899902 .25 .09899902 .17199707 .10998535 .050994874 .16499329-.06201172 .22499085-.18501282 .31098939-.25 .32099916-.25 .32699586-.25 .33099366-.24700928 .33099366-.2400055Z"/>
<path id="font_2_2" d="M.2889862 .25C.2889862 .32798768 .27799989 .44898988 .22299195 .56199648 .16299439 .68499758 .07699585 .75 .066986087 .75 .06098938 .75 .056991579 .74598696 .056991579 .73999026 .056991579 .7369995 .056991579 .73498538 .07598877 .71699526 .17399597 .6179962 .23098755 .45899964 .23098755 .25 .23098755 .07899475 .19400025-.09700012 .069992069-.2230072 .056991579-.23500061 .056991579-.23701477 .056991579-.2400055 .056991579-.2460022 .06098938-.25 .066986087-.25 .07699585-.25 .16699219-.18200684 .22599793-.055007936 .2769928 .054992677 .2889862 .16600037 .2889862 .25Z"/>
</defs>
<path transform="matrix(1,0,0,-1,12.674,142.80301)" stroke-width=".3985" stroke-linecap="butt" stroke-miterlimit="10" stroke-linejoin="miter" fill="none" stroke="#ececec" d="M0 0V139.41809M38.71791 0V139.41809M77.43584 0V139.41809M154.87168 0V139.41809M193.58959 0V139.41809"/>
<path transform="matrix(1,0,0,-1,12.674,142.80301)" stroke-width=".3985" stroke-linecap="butt" stroke-miterlimit="10" stroke-linejoin="miter" fill="none" stroke="#ececec" d="M0 0H212.94855M0 79.66748H212.94855M0 119.50122H212.94855"/>
<path transform="matrix(1,0,0,-1,12.674,142.80301)" stroke-width=".19925" stroke-linecap="butt" stroke-miterlimit="10" stroke-linejoin="miter" fill="none" stroke="#7f807f" d="M0 37.70778V41.95967M38.71791 37.70778V41.95967M77.43584 37.70778V41.95967M154.87168 37.70778V41.95967M193.58959 37.70778V41.95967"/>
<path transform="matrix(1,0,0,-1,12.674,142.80301)" stroke-width=".19925" stroke-linecap="butt" stroke-miterlimit="10" stroke-linejoin="miter" fill="none" stroke="#7f807f" d="M114.02779 0H118.2797M114.02779 79.66748H118.2797M114.02779 119.50122H118.2797"/>
<path transform="matrix(1,0,0,-1,12.674,142.80301)" stroke-width=".79701" stroke-linecap="butt" stroke-miterlimit="10" stroke-linejoin="miter" fill="none" stroke="#000000" d="M0 39.83374H210.35828"/>
<path transform="matrix(1,0,0,-1,223.03227,102.96927)" d="M2.59026 0-1.55415 2.0722 0 0-1.55415-2.0722"/>
<path transform="matrix(1,0,0,-1,12.674,142.80301)" stroke-width=".79701" stroke-linecap="butt" stroke-miterlimit="10" stroke-linejoin="miter" fill="none" stroke="#000000" d="M116.15375 0V136.82784"/>
<path transform="matrix(0,-1,-1,-0,128.82775,5.975174)" d="M2.59026 0-1.55415 2.0722 0 0-1.55415-2.0722"/>
<use data-text="&#x2212;" xlink:href="#font_1_1" transform="matrix(9.96264,0,0,-9.96264,6.309,115.23501)"/>
<use data-text="3" xlink:href="#font_2_5" transform="matrix(9.96264,0,0,-9.96264,14.058,115.23501)"/>
<use data-text="&#x2212;" xlink:href="#font_1_1" transform="matrix(9.96264,0,0,-9.96264,45.027,115.23501)"/>
<use data-text="2" xlink:href="#font_2_4" transform="matrix(9.96264,0,0,-9.96264,52.775,115.23501)"/>
<use data-text="&#x2212;" xlink:href="#font_1_1" transform="matrix(9.96264,0,0,-9.96264,83.744,115.23501)"/>
<use data-text="1" xlink:href="#font_2_3" transform="matrix(9.96264,0,0,-9.96264,91.493,115.23501)"/>
<use data-text="1" xlink:href="#font_2_3" transform="matrix(9.96264,0,0,-9.96264,165.053,115.23501)"/>
<use data-text="2" xlink:href="#font_2_4" transform="matrix(9.96264,0,0,-9.96264,203.771,115.23501)"/>
<use data-text="&#x2212;" xlink:href="#font_1_1" transform="matrix(9.96264,0,0,-9.96264,110.252,145.598)"/>
<use data-text="1" xlink:href="#font_2_3" transform="matrix(9.96264,0,0,-9.96264,118,145.598)"/>
<use data-text="1" xlink:href="#font_2_3" transform="matrix(9.96264,0,0,-9.96264,118,66.34701)"/>
<use data-text="2" xlink:href="#font_2_4" transform="matrix(9.96264,0,0,-9.96264,118,26.514008)"/>
<g clip-path="url(#clip_3)">
<path transform="matrix(1,0,0,-1,12.674,142.80301)" stroke-width=".79701" stroke-linecap="butt" stroke-miterlimit="10" stroke-linejoin="miter" fill="none" stroke="#2471a3" d="M0 117.3478 .38846 117.06186 .77695 116.77501 1.16542 116.48726 1.55391 116.19861 1.94238 115.90903 2.33087 115.61852 2.71935 115.3271 3.1078 115.03471 3.49629 114.74141 3.88477 114.44717 4.27325 114.15196 4.66173 113.85582 5.05022 113.55872 5.43869 113.26065 5.82716 112.96161 6.21564 112.66159 6.60411 112.3606 6.9926 112.05862 7.38107 111.75566 7.76956 111.4517 8.15804 111.14674 8.54651 110.84079 8.93498 110.53383 9.32346 110.22585 9.71194 109.91685 10.10042 109.60683 10.4889 109.29578 10.87738 108.98369 11.26585 108.67056 11.65433 108.3564 12.04282 108.04117 12.43129 107.72488 12.81976 107.40755 13.20825 107.08914 13.59673 106.76967 13.9852 106.44913 14.37367 106.12749 14.76216 105.80476 15.15063 105.48096 15.53912 105.15605 15.9276 104.83002 16.31607 104.5029 16.70454 104.17467 17.09302 103.8453 17.4815 103.51482 17.86998 103.18321 18.25847 102.85046 18.64694 102.51659 19.03542 102.18155 19.42389 101.84537 19.81236 101.50803 20.20085 101.16953 20.58932 100.82986 20.97781 100.48903 21.36629 100.147 21.75476 99.8038 22.14323 99.45943 22.53171 99.11385 22.9202 98.76706 23.30867 98.41908 23.69716 98.0699 24.08563 97.71951 24.4741 97.36789 24.86258 97.01505 25.25105 96.661 25.63954 96.3057 26.02802 95.94916 26.4165 95.59138 26.80498 95.23236 27.19345 94.87209 27.58192 94.51056 27.9704 94.14777 28.35889 93.78372 28.74736 93.41838 29.13585 93.0518 29.52432 92.68393 29.9128 92.31477 30.30127 91.94434 30.68976 91.5726 31.07823 91.1996 31.4667 90.82527 31.8552 90.44965 32.24367 90.07274 32.63214 89.6945 33.02061 89.31497 33.4091 88.93411 33.79758 88.55196 34.18605 88.16849 34.57454 87.78368 34.96301 87.39755 35.35149 87.0101 35.73996 86.62132 36.12845 86.2312 36.51692 85.83977 36.90541 85.447 37.29388 85.05289 37.68236 84.65746 38.07083 84.26067 38.4593 83.86256 38.8478 83.4631 39.23627 83.06232 39.62476 82.66019 40.01323 82.25673 40.4017 81.85194 40.79018 81.4458 41.17865 81.03835 41.56714 80.62955 41.95561 80.21944 42.3441 79.808 42.73257 79.39522 43.12106 78.98112 43.50952 78.56572 43.898 78.149 44.28648 77.73097 44.67496 77.31165 45.06345 76.891 45.45192 76.46909 45.84041 76.04588 46.22887 75.6214 46.61734 75.19565 47.00583 74.76863 47.3943 74.34036 47.78279 73.91084 48.17126 73.48009 48.55975 73.04811 48.94821 72.61491 49.33669 72.18053 49.72517 71.74493 50.11365 71.30818 50.50214 70.87027 50.89061 70.4312 51.2791 69.991 51.66756 69.54968 52.05605 69.10727 52.44452 68.66377 52.833 68.21922 53.22148 67.77364 53.60995 67.32701 53.99844 66.87941 54.3869 66.43083 54.77539 65.98131 55.16386 65.53085 55.55235 65.07951 55.94083 64.6273 56.3293 64.17422 56.71779 63.72037 57.10626 63.26573 57.49474 62.81035 57.88321 62.35425 58.2717 61.89748 58.66017 61.44006 59.04865 60.98207 59.43713 60.52353 59.8256 60.06445 60.21408 59.60492 60.60255 59.14494 60.99104 58.6846 61.37952 58.22394 61.768 57.763 62.15648 57.30183 62.54495 56.8405 62.93343 56.37906 63.3219 55.91756 63.71039 55.45607 64.09886 54.99466 64.48735 54.53337 64.87582 54.07231 65.2643 53.6115 65.65277 53.15106 66.04124 52.69104 66.42973 52.2315 66.8182 51.77258 67.2067 51.3143 67.59517 50.85677 67.98364 50.40009 68.37212 49.94432 68.76059 49.48956 69.14908 49.03593 69.53755 48.58351 69.92604 48.1324 70.31451 47.68272 70.70299 47.23456 71.09146 46.78806 71.47993 46.34326 71.86842 45.90036 72.2569 45.45944 72.64539 45.02063 73.03386 44.58405 73.42233 44.14983 73.8108 43.71808 74.19928 43.28899 74.58777 42.86263 74.97624 42.43918 75.36473 42.01878 75.7532 41.60156 76.14168 41.18767 76.53015 40.77728 76.91864 40.37053 77.30711 39.96758 77.69559 39.56859 78.08408 39.17369 78.47255 38.78311 78.86102 38.39696 79.2495 38.01543 79.63799 37.63867 80.02646 37.26688 80.41495 36.90022 80.80342 36.53888 81.1919 36.18301 81.58037 35.83281 81.96884 35.48843 82.35733 35.15009 82.7458 34.81793 83.1343 34.49217 83.52277 34.17296 83.91124 33.86049 84.29971 33.55493 84.68819 33.25648 85.07668 32.9653 85.46515 32.68158 85.85364 32.4055 86.24211 32.13722 86.63058 31.8769 87.01906 31.62474 87.40753 31.38089 87.79602 31.14552 88.1845 30.91876 88.57298 30.70082 88.96146 30.4918 89.34995 30.29189 89.7384 30.10118 90.12688 29.91988 90.51537 29.74806 90.90384 29.58588 91.29233 29.43344 91.6808 29.29088 92.06929 29.15828 92.45775 29.03575 92.84622 28.92342 93.23471 28.82133 93.62318 28.72957 94.01167 28.64824 94.40015 28.57738 94.78864 28.51703 95.1771 28.46729 95.56558 28.42815 95.95406 28.39966 96.34253 28.38184 96.73102 28.37471 97.11949 28.37827 97.50798 28.39253 97.89644 28.41747 98.28493 28.45305 98.6734 28.49928 99.06187 28.55609 99.45036 28.62344 99.83884 28.70131 100.22733 28.7896 100.61578 28.88823 101.00427 28.99718 101.39275 29.11632 101.78123 29.24556 102.16971 29.38481 102.55818 29.53397 102.94667 29.69292 103.33513 29.86154 103.72362 30.0397 104.11209 30.22728 104.50058 30.42413 104.88905 30.63014 105.27753 30.84512 105.66602 31.06895 106.05447 31.30148 106.44296 31.54253 106.83144 31.79193 107.21992 32.04955 107.6084 32.3152 107.99689 32.5887 108.38536 32.86989 108.77382 33.15862 109.16231 33.45465 109.55078 33.75786 109.93927 34.06804 110.32774 34.38503 110.71623 34.70863 111.1047 35.03867 111.49318 35.37498 111.88165 35.71736 112.27013 36.06564 112.65862 36.41965 113.04709 36.77919 113.43558 37.14409 113.82405 37.51419 114.21252 37.8893 114.601 38.26926 114.98947 38.65388 115.37796 39.04301 115.76643 39.4365 116.15492 39.83414"/>
<path transform="matrix(1,0,0,-1,12.674,142.80301)" stroke-width=".79701" stroke-linecap="butt" stroke-miterlimit="10" stroke-linejoin="miter" fill="none" stroke="#b30000" d="M116.15492 39.83414 116.4398 40.12292 116.72469 40.40318 117.00955 40.67503 117.29445 40.9385 117.57933 41.19376 117.86421 41.44084 118.1491 41.6799 118.43399 41.91096 118.71887 42.13419 119.00375 42.34964 119.28864 42.5574 119.57353 42.7576 119.85841 42.95029 120.1433 43.13562 120.42816 43.31364 120.71304 43.48448 120.99794 43.64821 121.28282 43.80492 121.5677 43.95471 121.85258 44.0977 122.13748 44.23398 122.42236 44.36362 122.70724 44.48672 122.99213 44.60341 123.27701 44.71373 123.5619 44.81781 123.84679 44.91574 124.13165 45.00763 124.41653 45.09355 124.70143 45.1736 124.98631 45.24788 125.2712 45.31648 125.55608 45.37952 125.84097 45.43704 126.12585 45.48921 126.41074 45.53606 126.69562 45.57773 126.9805 45.61429 127.2654 45.64583 127.55028 45.67247 127.83514 45.69427 128.12003 45.71138 128.40493 45.72385 128.6898 45.73178 128.97469 45.73528 129.25957 45.73445 129.54447 45.72935 129.82935 45.72011 130.11423 45.7068 130.39911 45.68956 130.68399 45.66843 130.96889 45.64354 131.25376 45.61496 131.53864 45.58281 131.82352 45.54716 132.10842 45.50815 132.3933 45.46582 132.67818 45.4203 132.96306 45.37167 133.24794 45.32004 133.53284 45.26549 133.81772 45.20811 134.1026 45.14803 134.38748 45.08533 134.67238 45.02007 134.95725 44.95238 135.24213 44.88234 135.52701 44.81006 135.8119 44.73563 136.09679 44.65915 136.38167 44.58069 136.66655 44.50038 136.95143 44.41829 137.23633 44.33452 137.52121 44.24918 137.80609 44.16235 138.09098 44.07413 138.37587 43.9846 138.66074 43.89389 138.94562 43.80206 139.2305 43.70924 139.5154 43.6155 139.80028 43.52092 140.08516 43.42563 140.37004 43.32971 140.65493 43.23326 140.93982 43.13637 141.2247 43.03914 141.50959 42.94165 141.79447 42.84401 142.07935 42.7463 142.36423 42.64867 142.64911 42.55113 142.93399 42.45384 143.21887 42.35687 143.50377 42.26031 143.78865 42.16428 144.07353 42.06885 144.35842 41.97412 144.64331 41.8802 144.92819 41.78716 145.21308 41.69511 145.49796 41.60416 145.78284 41.51437 146.06772 41.42587 146.3526 41.33873 146.63748 41.25307 146.92237 41.16896 147.20726 41.0865 147.49214 41.00581 147.77703 40.92696 148.0619 40.85004 148.3468 40.77516 148.63169 40.70242 148.91657 40.6319 149.20143 40.5637 149.48633 40.49792 149.77121 40.43468 150.05609 40.37401 150.34098 40.31607 150.62586 40.2609 150.91075 40.20865 151.19564 40.15938 151.48052 40.11317 151.7654 40.07018 152.0503 40.03044 152.33518 39.99406 152.62006 39.96118 152.90493 39.93184 153.1898 39.90616 153.4747 39.88422 153.75959 39.86613 154.04447 39.85199 154.32935 39.84189 154.61425 39.83589 154.89913 39.83415 155.184 39.83672 155.46889 39.8437 155.75379 39.8552 156.03867 39.8713 156.32355 39.8921 156.60842 39.91772 156.8933 39.94823 157.17819 39.9837 157.46308 40.02428 157.74796 40.07002 158.03284 40.12105 158.31774 40.17744 158.60262 40.23929 158.8875 40.30672 159.17238 40.37979 159.45728 40.4586 159.74216 40.54327 160.02703 40.63388 160.3119 40.73051 160.59679 40.83328 160.88169 40.94228 161.16657 41.0576 161.45145 41.17934 161.73633 41.30759 162.02123 41.44244 162.3061 41.58398 162.59099 41.73235 162.87587 41.88759 163.16075 42.04982 163.44565 42.21913 163.73052 42.39561 164.0154 42.57939 164.30028 42.77051 164.58518 42.96912 164.87006 43.17526 165.15494 43.38908 165.43982 43.61064 165.72472 43.84006 166.0096 44.07738 166.29448 44.32275 166.57936 44.57626 166.86425 44.838 167.14914 45.10806 167.434 45.38654 167.71889 45.67351 168.00377 45.96909 168.28867 46.27339 168.57355 46.58646 168.85843 46.90843 169.14331 47.2394 169.4282 47.57944 169.71309 47.92865 169.99797 48.28714 170.28285 48.65501 170.56774 49.03233 170.85262 49.41922 171.1375 49.81575 171.42238 50.22205 171.70726 50.63817 171.99216 51.06422 172.27704 51.50032 172.56192 51.94655 172.8468 52.403 173.13169 52.86978 173.41658 53.34697 173.70146 53.83467 173.98635 54.33298 174.27123 54.84198 174.5561 55.36177 174.84099 55.89247 175.12587 56.43414 175.41075 56.98691 175.69565 57.55084 175.98053 58.12604 176.26541 58.71262 176.5503 59.31065 176.83518 59.92024 177.12007 60.54149 177.40496 61.17447 177.68984 61.8193 177.9747 62.47609 178.2596 63.1449 178.54448 63.82584 178.82936 64.519 179.11425 65.22447 179.39914 65.94235 179.68402 66.67278 179.9689 67.41577 180.25379 68.17146 180.53867 68.93997 180.82357 69.72137 181.10845 70.51575 181.39331 71.32321 181.67819 72.14384 181.96309 72.97774 182.24797 73.82501 182.53285 74.68575 182.81774 75.56004 183.10262 76.44797 183.38751 77.34967 183.6724 78.2652 183.95728 79.19467 184.24216 80.13817 184.52706 81.0958 184.81194 82.06764 185.0968 83.05382 185.38169 84.05441 185.66658 85.06949 185.95146 86.0992 186.23635 87.14359 186.52123 88.20277 186.8061 89.27686 187.091 90.36592 187.37589 91.47005 187.66077 92.58937 187.94565 93.72395 188.23055 94.87392 188.51543 96.03934 188.8003 97.2203 189.08518 98.41693 189.37007 99.6293 189.65496 100.8575 189.93984 102.10167 190.22472 103.36183 190.5096 104.63814 190.7945 105.93068 191.07938 107.23952 191.36426 108.56479 191.64914 109.90654 191.93404 111.26491 192.2189 112.63998 192.50379 114.03185 192.78867 115.4406 193.07355 116.86635 193.35845 118.30914 193.64333 119.76915 193.9282 121.2464 194.21309 122.74103 194.49799 124.2531 194.78287 125.78275 195.06775 127.33003 195.35263 128.89508 195.63753 130.47795 195.9224 132.07877 196.20728 133.6976 196.49216 135.33457 196.77704 136.98976 197.06194 138.66327 197.34682 140.3552 197.6317 142.06563 197.91658 143.79465 198.20148 145.54238 198.48636 147.30892 198.77124 149.09432 199.05612 150.89871 199.34102 152.72219 199.62589 154.56484 199.91077 156.42675 200.19565 158.30802 200.48053 160.20874 200.76543 162.12905 201.05031 164.06899 201.33519 166.02867"/>
<path transform="matrix(1,0,0,-1,12.674,142.80301)" stroke-width=".79701" stroke-linecap="butt" stroke-dasharray="2.98883,2.98883" stroke-miterlimit="10" stroke-linejoin="miter" fill="none" stroke="#d4ac0d" d="M0 39.83414H.7122 1.42442 2.13661 2.84883 3.56104 4.27325 4.98546 5.69766 6.40988 7.12209 7.8343 8.54651 9.25871 9.97093 10.68314 11.39536 12.10756 12.81976 13.53197 14.24419 14.95639 15.66861 16.38081 17.09302 17.80524 18.51744 19.22966 19.94186 20.65407 21.36629 22.07849 22.79071 23.5029 24.21512 24.92732 25.63954 26.35176 27.06395 27.77617 28.48837 29.20059 29.9128 30.625 31.33722 32.04942 32.76164 33.47385 34.18605 34.89827 35.61047 36.3227 37.0349 37.74712 38.4593 39.17152 39.88373 40.59595 41.30815 42.02036 42.73257 43.44478 44.157 44.8692 45.5814 46.29362 47.00583 47.71805 48.43024 49.14246 49.85466 50.56688 51.2791 51.99129 52.7035 53.41571 54.12793 54.84013 55.55235 56.26456 56.97676 57.68898 58.40118 59.1134 59.8256 60.53781 61.25003 61.96223 62.67445 63.38664 64.09886 64.81107 65.52328 66.2355 66.9477 67.65991 68.37212 69.08434 69.79654 70.50874 71.22096 71.93317 72.64539 73.35759 74.0698 74.782 75.49422 76.20644 76.91864 77.63084 78.34305 79.05527 79.76747 80.47969 81.1919 81.9041 82.61632 83.32852 84.04074 84.75294 85.46515 86.17737 86.88957 87.60179 88.31398 89.0262 89.7384 90.45062 91.16284 91.87503 92.58725 93.29945 94.01167 94.72388 95.43608 96.1483 96.8605 97.57272 98.28493 98.99713 99.70934 100.42155 101.13377 101.84598 102.55818 103.27039 103.9826 104.69481 105.40703 106.11923 106.83144 107.54366 108.25586 108.96808 109.68027 110.39249 111.1047 111.81691 112.52913 113.24132 113.95354 114.66574 115.37796 116.09018 116.80237 117.51459 118.22679 118.93901 119.65121 120.36342 121.07564 121.78784 122.50006 123.21227 123.92447 124.63667 125.34889 126.06111 126.77332 127.48552 128.19773 128.90995 129.62215 130.33437 131.04657 131.75878 132.471 133.1832 133.89542 134.6076 135.31983 136.03205 136.74425 137.45647 138.16866 138.88088 139.59308 140.3053 141.01752 141.7297 142.44193 143.15413 143.86635 144.57855 145.29076 146.00298 146.71518 147.4274 148.1396 148.85182 149.56401 150.27623 150.98845 151.70066 152.41287 153.12506 153.83728 154.54949 155.2617 155.97393 156.68611 157.39833 158.11054 158.82276 159.53496 160.24716 160.95938 161.67159 162.3838 163.096 163.80821 164.52042 165.23264 165.94486 166.65706 167.36927 168.08147 168.79369 169.50589 170.21811 170.93032 171.64252 172.35474 173.06694 173.77916 174.49135 175.20357 175.91579 176.62799 177.34021 178.0524 178.76462 179.47682 180.18904 180.90126 181.61345 182.32567 183.03787 183.75009 184.4623 185.1745 185.88672 186.59893 187.31114 188.02335 188.73555 189.44776 190.15998 190.8722 191.5844 192.2966 193.0088 193.72103 194.43323 195.14545 195.85765 196.56986 197.28208 197.99428 198.7065 199.41869 200.1309 200.84313 201.55533 202.26755 202.97974 203.69196 204.40416 205.11638 205.8286 206.54079 207.253 207.96521 208.67743 209.38964 210.10184 210.81406 211.52626 212.23848 212.95069"/>
<use data-text="m" xlink:href="#font_4_75" transform="matrix(7.97011,0,0,-7.97011,112.44701,91.28401)" fill="#1e8449"/>
<use data-text="a" xlink:href="#font_4_28" transform="matrix(7.97011,0,0,-7.97011,119.50056,91.28401)" fill="#1e8449"/>
<use data-text="x" xlink:href="#font_4_116" transform="matrix(7.97011,0,0,-7.97011,123.73269,91.28401)" fill="#1e8449"/>
<use data-text="(" xlink:href="#font_5_1" transform="matrix(7.97011,0,0,-7.97011,131.026,91.28401)" fill="#1e8449"/>
<use data-text="1" xlink:href="#font_5_4" transform="matrix(7.97011,0,0,-7.97011,134.31766,91.28401)" fill="#1e8449"/>
<use data-text="/" xlink:href="#font_6_2" transform="matrix(7.97011,0,0,-7.97011,138.55301,91.28401)" fill="#1e8449"/>
<use data-text="3" xlink:href="#font_5_6" transform="matrix(7.97011,0,0,-7.97011,142.78702,91.28401)" fill="#1e8449"/>
<use data-text="," xlink:href="#font_6_1" transform="matrix(7.97011,0,0,-7.97011,147.021,91.28401)" fill="#1e8449"/>
<use data-text="4" xlink:href="#font_5_7" transform="matrix(7.97011,0,0,-7.97011,150.785,91.28401)" fill="#1e8449"/>
<use data-text="/" xlink:href="#font_6_2" transform="matrix(7.97011,0,0,-7.97011,155.01902,91.28401)" fill="#1e8449"/>
<use data-text="2" xlink:href="#font_5_5" transform="matrix(7.97011,0,0,-7.97011,159.25302,91.28401)" fill="#1e8449"/>
<use data-text="7" xlink:href="#font_5_8" transform="matrix(7.97011,0,0,-7.97011,163.48514,91.28401)" fill="#1e8449"/>
<use data-text=")" xlink:href="#font_5_2" transform="matrix(7.97011,0,0,-7.97011,167.71729,91.28401)" fill="#1e8449"/>
<use data-text="m" xlink:href="#font_4_75" transform="matrix(7.97011,0,0,-7.97011,149.67,112.66701)" fill="#1e8449"/>
<use data-text="i" xlink:href="#font_4_66" transform="matrix(7.97011,0,0,-7.97011,156.72354,112.66701)" fill="#1e8449"/>
<use data-text="n" xlink:href="#font_4_77" transform="matrix(7.97011,0,0,-7.97011,159.07472,112.66701)" fill="#1e8449"/>
<use data-text="(" xlink:href="#font_5_1" transform="matrix(7.97011,0,0,-7.97011,166.599,112.66701)" fill="#1e8449"/>
<use data-text="1" xlink:href="#font_5_4" transform="matrix(7.97011,0,0,-7.97011,169.89066,112.66701)" fill="#1e8449"/>
<use data-text="," xlink:href="#font_6_1" transform="matrix(7.97011,0,0,-7.97011,174.126,112.66701)" fill="#1e8449"/>
<use data-text="0" xlink:href="#font_5_3" transform="matrix(7.97011,0,0,-7.97011,177.89,112.66701)" fill="#1e8449"/>
<use data-text=")" xlink:href="#font_5_2" transform="matrix(7.97011,0,0,-7.97011,182.12213,112.66701)" fill="#1e8449"/>
<use data-text="m" xlink:href="#font_4_75" transform="matrix(7.97011,0,0,-7.97011,75.599,124.218)" fill="#1e8449"/>
<use data-text="i" xlink:href="#font_4_66" transform="matrix(7.97011,0,0,-7.97011,82.65255,124.218)" fill="#1e8449"/>
<use data-text="n" xlink:href="#font_4_77" transform="matrix(7.97011,0,0,-7.97011,85.00373,124.218)" fill="#1e8449"/>
<use data-text="(" xlink:href="#font_5_1" transform="matrix(7.97011,0,0,-7.97011,92.527,124.218)" fill="#1e8449"/>
<use data-text="&#x2212;" xlink:href="#font_7_1" transform="matrix(7.97011,0,0,-7.97011,95.82,124.218)" fill="#1e8449"/>
<use data-text="1" xlink:href="#font_5_4" transform="matrix(7.97011,0,0,-7.97011,102.407,124.218)" fill="#1e8449"/>
<use data-text="/" xlink:href="#font_6_2" transform="matrix(7.97011,0,0,-7.97011,106.641,124.218)" fill="#1e8449"/>
<use data-text="2" xlink:href="#font_5_5" transform="matrix(7.97011,0,0,-7.97011,110.875,124.218)" fill="#1e8449"/>
<use data-text="," xlink:href="#font_6_1" transform="matrix(7.97011,0,0,-7.97011,115.109,124.218)" fill="#1e8449"/>
<use data-text="l" xlink:href="#font_5_9" transform="matrix(7.97011,0,0,-7.97011,118.873,124.218)" fill="#1e8449"/>
<use data-text="n" xlink:href="#font_5_10" transform="matrix(7.97011,0,0,-7.97011,121.22418,124.218)" fill="#1e8449"/>
<use data-text="3" xlink:href="#font_5_6" transform="matrix(7.97011,0,0,-7.97011,127.33726,124.218)" fill="#1e8449"/>
<use data-text="/" xlink:href="#font_6_2" transform="matrix(7.97011,0,0,-7.97011,131.576,124.218)" fill="#1e8449"/>
<use data-text="4" xlink:href="#font_5_7" transform="matrix(7.97011,0,0,-7.97011,135.81,124.218)" fill="#1e8449"/>
<use data-text=")" xlink:href="#font_5_2" transform="matrix(7.97011,0,0,-7.97011,140.04213,124.218)" fill="#1e8449"/>
<use data-text="l" xlink:href="#font_5_9" transform="matrix(7.97011,0,0,-7.97011,36.721,53.17901)" fill="#2471a3"/>
<use data-text="n" xlink:href="#font_5_10" transform="matrix(7.97011,0,0,-7.97011,39.07218,53.17901)" fill="#2471a3"/>
<use data-text="P" xlink:href="#font_6_3" transform="matrix(7.97011,0,0,-7.97011,45.189,53.17901)" fill="#2471a3"/>
<use data-text="2" xlink:href="#font_8_1" transform="matrix(5.97758,0,0,-5.97758,50.558,54.286005)" fill="#2471a3"/>
<use data-text="(" xlink:href="#font_5_1" transform="matrix(7.97011,0,0,-7.97011,54.709,53.17901)" fill="#2471a3"/>
<use data-text="x" xlink:href="#font_6_4" transform="matrix(7.97011,0,0,-7.97011,58.002,53.17901)" fill="#2471a3"/>
<use data-text=")" xlink:href="#font_5_2" transform="matrix(7.97011,0,0,-7.97011,62.769,53.17901)" fill="#2471a3"/>
<use data-text="P" xlink:href="#font_6_3" transform="matrix(7.97011,0,0,-7.97011,184.20999,77.07901)" fill="#b30000"/>
<use data-text="3" xlink:href="#font_8_2" transform="matrix(5.97758,0,0,-5.97758,189.57799,78.186008)" fill="#b30000"/>
<use data-text="(" xlink:href="#font_5_1" transform="matrix(7.97011,0,0,-7.97011,193.72899,77.07901)" fill="#b30000"/>
<use data-text="x" xlink:href="#font_6_4" transform="matrix(7.97011,0,0,-7.97011,197.02298,77.07901)" fill="#b30000"/>
<use data-text=")" xlink:href="#font_5_2" transform="matrix(7.97011,0,0,-7.97011,201.78998,77.07901)" fill="#b30000"/>
</g>
<path transform="matrix(1,0,0,-1,12.674,142.80301)" d="M131.55042 45.73357C131.55042 47.10915 130.4353 48.22426 129.05973 48.22426 127.68414 48.22426 126.56903 47.10915 126.56903 45.73357 126.56903 44.35799 127.68414 43.24287 129.05973 43.24287 130.4353 43.24287 131.55042 44.35799 131.55042 45.73357ZM129.05973 45.73357" fill="#1e8449"/>
<path transform="matrix(1,0,0,-1,12.674,142.80301)" stroke-width=".79701" stroke-linecap="butt" stroke-miterlimit="10" stroke-linejoin="miter" fill="none" stroke="#1e8449" d="M131.55042 45.73357C131.55042 47.10915 130.4353 48.22426 129.05973 48.22426 127.68414 48.22426 126.56903 47.10915 126.56903 45.73357 126.56903 44.35799 127.68414 43.24287 129.05973 43.24287 130.4353 43.24287 131.55042 44.35799 131.55042 45.73357ZM129.05973 45.73357"/>
<path transform="matrix(1,0,0,-1,12.674,142.80301)" d="M157.3639 39.83414C157.3639 41.20972 156.2488 42.32483 154.87322 42.32483 153.49764 42.32483 152.38253 41.20972 152.38253 39.83414 152.38253 38.45856 153.49764 37.34344 154.87322 37.34344 156.2488 37.34344 157.3639 38.45856 157.3639 39.83414ZM154.87322 39.83414" fill="#1e8449"/>
<path transform="matrix(1,0,0,-1,12.674,142.80301)" stroke-width=".79701" stroke-linecap="butt" stroke-miterlimit="10" stroke-linejoin="miter" fill="none" stroke="#1e8449" d="M157.3639 39.83414C157.3639 41.20972 156.2488 42.32483 154.87322 42.32483 153.49764 42.32483 152.38253 41.20972 152.38253 39.83414 152.38253 38.45856 153.49764 37.34344 154.87322 37.34344 156.2488 37.34344 157.3639 38.45856 157.3639 39.83414ZM154.87322 39.83414"/>
<path transform="matrix(1,0,0,-1,12.674,142.80301)" d="M144.4591 42.78584C144.4591 44.16142 143.344 45.27654 141.96842 45.27654 140.59284 45.27654 139.47772 44.16142 139.47772 42.78584 139.47772 41.41026 140.59284 40.29515 141.96842 40.29515 143.344 40.29515 144.4591 41.41026 144.4591 42.78584ZM141.96842 42.78584" fill="#1e8449"/>
<path transform="matrix(1,0,0,-1,12.674,142.80301)" stroke-width=".79701" stroke-linecap="butt" stroke-miterlimit="10" stroke-linejoin="miter" fill="none" stroke="#1e8449" d="M144.4591 42.78584C144.4591 44.16142 143.344 45.27654 141.96842 45.27654 140.59284 45.27654 139.47772 44.16142 139.47772 42.78584 139.47772 41.41026 140.59284 40.29515 141.96842 40.29515 143.344 40.29515 144.4591 41.41026 144.4591 42.78584ZM141.96842 42.78584"/>
<path transform="matrix(1,0,0,-1,12.674,142.80301)" d="M99.28645 28.37384C99.28645 29.74944 98.17134 30.86453 96.79576 30.86453 95.42018 30.86453 94.30507 29.74944 94.30507 28.37384 94.30507 26.99826 95.42018 25.88315 96.79576 25.88315 98.17134 25.88315 99.28645 26.99826 99.28645 28.37384ZM96.79576 28.37384" fill="#1e8449"/>
<path transform="matrix(1,0,0,-1,12.674,142.80301)" stroke-width=".79701" stroke-linecap="butt" stroke-miterlimit="10" stroke-linejoin="miter" fill="none" stroke="#1e8449" d="M99.28645 28.37384C99.28645 29.74944 98.17134 30.86453 96.79576 30.86453 95.42018 30.86453 94.30507 29.74944 94.30507 28.37384 94.30507 26.99826 95.42018 25.88315 96.79576 25.88315 98.17134 25.88315 99.28645 26.99826 99.28645 28.37384ZM96.79576 28.37384"/>
<path transform="matrix(1,0,0,-1,12.674,142.80301)" stroke-width=".79701" stroke-linecap="butt" stroke-miterlimit="10" stroke-linejoin="miter" fill="none" stroke="#1e8449" d=""/>
<use data-text="x" xlink:href="#font_9_2" transform="matrix(9.96264,0,0,-9.96264,216.207,99.25101)"/>
<use data-text="f" xlink:href="#font_9_1" transform="matrix(9.96264,0,0,-9.96264,132.546,14.578003)"/>
<use data-text="(" xlink:href="#font_2_1" transform="matrix(9.96264,0,0,-9.96264,138.496,14.578003)"/>
<use data-text="x" xlink:href="#font_9_2" transform="matrix(9.96264,0,0,-9.96264,142.37,14.578003)"/>
<use data-text=")" xlink:href="#font_2_2" transform="matrix(9.96264,0,0,-9.96264,148.064,14.578003)"/>
</svg>
