<svg xmlns="http://www.w3.org/2000/svg" xmlns:xlink="http://www.w3.org/1999/xlink" xmlns:inkscape="http://www.inkscape.org/namespaces/inkscape" version="1.1" width="202.136" height="117.448" viewBox="0 0 202.136 117.448">
<defs>
<clipPath id="clip_1">
<path transform="matrix(1,0,0,-1,3.1879998,114.259998)" d="M0 0H195.76256V111.0737H0Z"/>
</clipPath>
<path id="font_2_81" d="M.5 .21325684C.5 .3382721 .39698792 .44628907 .2649994 .44628907 .1329956 .44628907 .02999878 .3382721 .02999878 .21325684 .02999878 .08824158 .13699341-.009765625 .2649994-.009765625 .3939972-.009765625 .5 .08824158 .5 .21325684M.41099549 .22225952C.41099549 .17625427 .40899659 .12124634 .3809967 .07923889 .35398866 .039230348 .30899049 .021224976 .2649994 .021224976 .21099854 .021224976 .16899109 .047225954 .14698792 .082229617 .12199402 .12324524 .11898804 .17224121 .11898804 .22225952 .11898804 .2602539 .11898804 .32026673 .1499939 .363266 .17599488 .3982849 .21798706 .41827394 .2649994 .41827394 .31698609 .41827394 .3600006 .39328004 .3829956 .35827638 .4099884 .31626893 .41099549 .2622528 .41099549 .22225952Z"/>
<path id="font_2_105" d="M.35299684 .1250763V.1809845H.32199098V.12705994C.32199098 .058166505 .29100038 .021224976 .25299073 .021224976 .18598938 .021224976 .18598938 .10710144 .18598938 .12307739V.3976593H.33499146V.43066407H.18598938V.6142578H.15499878C.1539917 .52345278 .11299133 .4286499 .019989014 .42565919V.3976593H.10998535V.1250763C.10998535 .008224487 .19999695-.009765625 .24598694-.009765625 .31298829-.010009766 .35299684 .049987794 .35299684 .125V.1250763Z"/>
<path id="font_2_66" d="M.2599945 .0001373291V.03314209C.19499207 .03314209 .19099427 .038146974 .19099427 .07714844V.44140626L.04499817 .43045045V.39746095C.10899353 .39746095 .117996219 .39144898 .117996219 .34239198V.07814026C.117996219 .03314209 .10598755 .03314209 .041992189 .03314209V0C.08099365 .0029907227 .13699341 .0029907227 .1519928 .0029907227 .16499329 .0029907227 .22499085 .0029907227 .2599945 0V.0001373291M.20298767 .6021881C.20298767 .6351929 .1769867 .6582031 .147995 .6582031 .11898804 .6582031 .09298706 .6351929 .09298706 .6021881 .09298706 .5731964 .115997318 .54719546 .147995 .54719546 .1789856 .54719546 .20298767 .5731964 .20298767 .6021881Z"/>
<path id="font_2_75" d="M.8569946 0V.032989503C.79299929 .032989503 .7809906 .032989503 .7809906 .07803345V.3032837C.7809906 .3843689 .74598696 .44140626 .6369934 .44140626 .54499819 .44140626 .49899293 .37835694 .48298646 .34933473 .46499635 .42140199 .4079895 .44140626 .34298707 .44140626 .24598694 .44140626 .19999695 .37236024 .18699646 .34532167H.18598938V.44140626L.040985109 .43045045V.39746095C.10899353 .39746095 .116989139 .3904419 .116989139 .3413849V.078048709C.116989139 .032989503 .10499573 .032989503 .040985109 .032989503V0C.083999637 .0029907227 .12799073 .0029907227 .15499878 .0029907227 .18399048 .0029907227 .22599793 .0029907227 .2689972 0V.032989503C.20498657 .032989503 .19299317 .032989503 .19299317 .078048709V.25927735C.19299317 .36434938 .27198792 .4133911 .33499146 .4133911 .3999939 .4133911 .41099549 .36235047 .41099549 .3072815V.07803345C.41099549 .032989503 .39898683 .032989503 .33499146 .032989503V0C.37799073 .0029907227 .42199708 .0029907227 .44898988 .0029907227 .47799684 .0029907227 .519989 .0029907227 .5629883 0V.032989503C.49899293 .032989503 .4869995 .032989503 .4869995 .07803345V.25923158C.4869995 .36434938 .56599429 .4133911 .6289978 .4133911 .69400027 .4133911 .7049866 .36235047 .7049866 .3072815V.07803345C.7049866 .032989503 .69299319 .032989503 .6289978 .032989503V0C.6719971 .0029907227 .71598818 .0029907227 .7429962 .0029907227 .7719879 .0029907227 .81399539 .0029907227 .8569946 0Z"/>
<path id="font_3_1" d="M.3829956 .3976593H.47599793C.49598695 .3976593 .5079956 .3976593 .5079956 .4166565 .5079956 .43066407 .49499513 .43066407 .47799684 .43066407H.3889923C.40499879 .5209503 .4149933 .578125 .4249878 .62312319 .42900086 .64012148 .43199159 .65112307 .44699098 .66311648 .45999146 .6741028 .46798707 .6760864 .47898866 .6760864 .49398805 .6760864 .5099945 .6730957 .522995 .66511538 .5179901 .66311648 .5119934 .66012576 .5069885 .65711978 .48999024 .6481323 .47799684 .63012698 .47799684 .6101227 .47799684 .5871277 .49598695 .5731201 .5179901 .5731201 .5469971 .5731201 .57398989 .5981293 .57398989 .6331177 .57398989 .6800995 .526001 .70410159 .47799684 .70410159 .44400025 .70410159 .3809967 .6880951 .34899903 .5961304 .33999635 .5731201 .33999635 .5711212 .31298829 .43066407H.23799134C.21798706 .43066407 .20599365 .43066407 .20599365 .4116516 .20599365 .3976593 .21899414 .3976593 .23599243 .3976593H.30699159L.23498535 .00982666C.21598816-.09114075 .20098877-.17610169 .147995-.17610169 .14498902-.17610169 .12399292-.17610169 .10499573-.1641388 .15098572-.1531372 .15098572-.11114502 .15098572-.11013794 .15098572-.087142948 .1329956-.073135379 .11099243-.073135379 .083999637-.073135379 .054992677-.09614563 .054992677-.13414002 .054992677-.17610169 .09799194-.20410156 .147995-.20410156 .20899964-.20410156 .25099183-.14013672 .2639923-.11514282 .2999878-.04914856 .32299806 .075790408 .32499696 .08578491L.3829956 .3976593Z"/>
<path id="font_4_1" d="M.33299256-.25C.34098817-.25 .35299684-.25 .35299684-.23800659 .35299684-.23400879 .35198976-.23300171 .33898927-.22000122 .20199585-.09100342 .16799927 .09498596 .16799927 .25 .16799927 .5379944 .2869873 .6729889 .33799745 .71899417 .35198976 .7319946 .35299684 .73298647 .35299684 .73799136 .35299684 .7429962 .34899903 .75 .33898927 .75 .32299806 .75 .272995 .69898989 .2649994 .6899872 .1309967 .5499878 .102996829 .36999513 .102996829 .25 .102996829 .025985718 .19699097-.15400696 .33299256-.25Z"/>
<path id="font_3_2" d="M.5009918 .39942933C.45700074 .38842774 .45498658 .34942628 .45498658 .34542848 .45498658 .3234253 .47200013 .3084259 .49398805 .3084259 .5159912 .3084259 .5499878 .3254242 .5499878 .36842347 .5499878 .42539979 .4869995 .44140626 .44999696 .44140626 .40299989 .44140626 .36499024 .4084015 .34199525 .36943055 .31999208 .4223938 .2679901 .44140626 .22698975 .44140626 .117996219 .44140626 .056991579 .31643678 .056991579 .28840638 .056991579 .27938844 .06399536 .27539063 .07199097 .27539063 .083999637 .27539063 .085998538 .2803955 .08898926 .29240418 .11199951 .36543275 .17199707 .4133911 .22399903 .4133911 .2630005 .4133911 .28199769 .385437 .28199769 .34942628 .28199769 .32943727 .269989 .2834015 .2619934 .25135804 .25498963 .22232056 .23298645 .13320923 .22799683 .11419678 .21398926 .060195924 .17799378 .018234253 .1329956 .018234253 .1289978 .018234253 .102996829 .018234253 .08198547 .032196046 .12799073 .04319763 .12799073 .08518982 .12799073 .0861969 .12799073 .109191898 .10998535 .12319946 .08799744 .12319946 .06098938 .12319946 .03199768 .10018921 .03199768 .062194826 .03199768 .016220093 .08099365-.009765625 .13198853-.009765625 .18499756-.009765625 .22200012 .030197144 .23999024 .062194826 .2619934 .01322937 .30799867-.009765625 .35598756-.009765625 .46499635-.009765625 .5249939 .1151886 .5249939 .143219 .5249939 .15322876 .5169983 .15623474 .5099945 .15623474 .49798585 .15623474 .49598695 .14923096 .49299623 .13922119 .47299195 .07218933 .41600038 .018234253 .35798646 .018234253 .32499696 .018234253 .30099488 .04019165 .30099488 .0821991 .30099488 .10218811 .30699159 .12519837 .32099916 .18127442 .32798768 .21130371 .34999085 .29942323 .35499574 .31843568 .36898805 .37042237 .4039917 .4133911 .44898988 .4133911 .45399476 .4133911 .47999574 .4133911 .5009918 .39942933Z"/>
<path id="font_4_2" d="M.30899049 .25C.30899049 .34500123 .29299928 .45899964 .23098755 .57699587 .18199158 .6689911 .09098816 .75 .07299805 .75 .06298828 .75 .05999756 .7429962 .05999756 .73799136 .05999756 .73399356 .05999756 .7319946 .07199097 .7200012 .21199036 .58699038 .24398804 .4039917 .24398804 .25 .24398804-.037002565 .125-.17300415 .07398987-.2190094 .06098938-.23200989 .05999756-.23300171 .05999756-.23800659 .05999756-.24301148 .06298828-.25 .07299805-.25 .08898926-.25 .13899231-.19900513 .14698792-.19000244 .2809906-.05000305 .30899049 .12998963 .30899049 .25Z"/>
<path id="font_5_2" d="M.33399964 .30233766C.33999635 .32835389 .36299134 .42037965 .43299867 .42037965 .43798829 .42037965 .46199037 .42037965 .48298646 .40734864 .45498658 .402359 .43499757 .37734986 .43499757 .35334779 .43499757 .33735658 .44599916 .31835938 .47299195 .31835938 .49499513 .31835938 .5269928 .3363495 .5269928 .37635804 .5269928 .42837525 .46798707 .4423828 .43399049 .4423828 .37599183 .4423828 .34098817 .38935853 .32899476 .36634828 .3039856 .43237306 .25 .4423828 .22099304 .4423828 .116989139 .4423828 .05999756 .3133545 .05999756 .28834535 .05999756 .27833558 .069992069 .27833558 .07199097 .27833558 .07998657 .27833558 .08299255 .28033448 .084991458 .28933717 .11898804 .39535523 .18499756 .42037965 .21899414 .42037965 .23799134 .42037965 .272995 .4113617 .272995 .35334779 .272995 .32235719 .2559967 .25532533 .21899414 .11528015 .20298767 .053268434 .16799927 .011245728 .12399292 .011245728 .117996219 .011245728 .09498596 .011245728 .07398987 .024276734 .09899902 .029266358 .12098694 .05027771 .12098694 .07827759 .12098694 .105270389 .09899902 .11328125 .083999637 .11328125 .053985597 .11328125 .0289917 .08728027 .0289917 .055267335 .0289917 .009246826 .07899475-.0107421879 .12298584-.0107421879 .18899536-.0107421879 .22499085 .059280397 .22799683 .0652771 .23999024 .028274537 .27598573-.0107421879 .33599855-.0107421879 .43899537-.0107421879 .49598695 .118270877 .49598695 .14328003 .49598695 .1532898 .4869995 .1532898 .48399354 .1532898 .47499085 .1532898 .47299195 .14929199 .47099305 .14228821 .43798829 .03527832 .36999513 .011245728 .33799745 .011245728 .29899598 .011245728 .2829895 .043273927 .2829895 .07727051 .2829895 .09927368 .2889862 .121276859 .2999878 .16529846L.33399964 .30233766Z"/>
<path id="font_5_1" d="M.36698915 .3996582H.45298768C.47299195 .3996582 .48298646 .3996582 .48298646 .41966249 .48298646 .43066407 .47299195 .43066407 .45599366 .43066407H.37298585L.3939972 .5449524C.397995 .5660095 .4119873 .6370239 .41799928 .6490326 .4269867 .66804507 .44400025 .68307498 .46499635 .68307498 .46899415 .68307498 .49499513 .68307498 .5139923 .66503909 .46998597 .661026 .45999146 .6260376 .45999146 .6110382 .45999146 .58802798 .47799684 .57603457 .49699403 .57603457 .522995 .57603457 .5519867 .5980377 .5519867 .6360321 .5519867 .6820679 .5059967 .7050781 .46499635 .7050781 .43099977 .7050781 .36799623 .68707278 .33799745 .58802798 .33198548 .56700137 .32899476 .5569763 .30499269 .43066407H.23599243C.21699524 .43066407 .20599365 .43066407 .20599365 .4116516 .20599365 .3996582 .21499634 .3996582 .23399353 .3996582H.2999878L.22499085 .0048828127C.20698548-.09207153 .18998719-.18309021 .13798523-.18309021 .13398743-.18309021 .10899353-.18309021 .08999634-.16506958 .13598633-.1620636 .14498902-.12606812 .14498902-.111068729 .14498902-.08807373 .1269989-.07606506 .10798645-.07606506 .08198547-.07606506 .052993776-.09806824 .052993776-.13606262 .052993776-.18109131 .09700012-.20507813 .13798523-.20507813 .19299317-.20507813 .23298645-.14607239 .25099183-.108062747 .2829895-.04508972 .30599977 .07583618 .30699159 .082839969L.36698915 .3996582Z"/>
<path id="font_6_1" d="M.33099366-.2400055C.33099366-.23701477 .33099366-.23500061 .31399537-.21800232 .18899536-.0920105 .15699768 .09700012 .15699768 .25 .15699768 .42399598 .19499207 .59799197 .31799317 .72299197 .33099366 .73498538 .33099366 .7369995 .33099366 .73999026 .33099366 .746994 .32699586 .75 .32099916 .75 .31098939 .75 .22099304 .6819916 .1619873 .5549927 .11099243 .44499208 .09899902 .33399964 .09899902 .25 .09899902 .17199707 .10998535 .050994874 .16499329-.06201172 .22499085-.18501282 .31098939-.25 .32099916-.25 .32699586-.25 .33099366-.24700928 .33099366-.2400055Z"/>
<path id="font_6_2" d="M.2889862 .25C.2889862 .32798768 .27799989 .44898988 .22299195 .56199648 .16299439 .68499758 .07699585 .75 .066986087 .75 .06098938 .75 .056991579 .74598696 .056991579 .73999026 .056991579 .7369995 .056991579 .73498538 .07598877 .71699526 .17399597 .6179962 .23098755 .45899964 .23098755 .25 .23098755 .07899475 .19400025-.09700012 .069992069-.2230072 .056991579-.23500061 .056991579-.23701477 .056991579-.2400055 .056991579-.2460022 .06098938-.25 .066986087-.25 .07699585-.25 .16699219-.18200684 .22599793-.055007936 .2769928 .054992677 .2889862 .16600037 .2889862 .25Z"/>
</defs>
<path transform="matrix(1,0,0,-1,3.1879998,114.259998)" stroke-width=".3985" stroke-linecap="butt" stroke-miterlimit="10" stroke-linejoin="miter" fill="none" stroke="#000000" d="M0 10.0976H193.77004"/>
<path transform="matrix(1,0,0,-1,196.95804,104.16239)" d="M1.99252 0-1.19551 1.59401 0 0-1.19551-1.59401"/>
<path transform="matrix(1,0,0,-1,3.1879998,114.259998)" stroke-width=".3985" stroke-linecap="butt" stroke-miterlimit="10" stroke-linejoin="miter" fill="none" stroke="#000000" d="M15.45493 0V109.08118"/>
<path transform="matrix(0,-1,-1,-0,18.64293,5.1788179)" d="M1.99252 0-1.19551 1.59401 0 0-1.19551-1.59401"/>
<g clip-path="url(#clip_1)">
<path transform="matrix(1,0,0,-1,3.1879998,114.259998)" stroke-width=".79701" stroke-linecap="butt" stroke-miterlimit="10" stroke-linejoin="miter" fill="none" stroke="#2471a3" d="M15.45493 8.41455 17.41125 12.20049 19.36758 15.88936 21.3239 19.48114 23.28023 22.97586 25.23656 26.3735 27.19287 29.67407 29.1492 32.87755 31.1055 35.98398 33.06183 38.99332 35.01816 41.90558 36.97447 44.72076 38.9308 47.43887 40.88713 50.0599 42.84344 52.58388 44.79977 55.01077 46.75609 57.34058 48.7124 59.5733 50.66873 61.70897 52.62506 63.74756 54.58138 65.68906 56.5377 67.53351 58.49403 69.28085 60.45033 70.93115 62.40666 72.48434 64.36298 73.94049 66.3193 75.29955 68.27563 76.56152 70.23195 77.72641 72.18828 78.79425 74.1446 79.765 76.1009 80.63869 78.05724 81.41528 80.01357 82.09482 81.96988 82.67728 83.92621 83.16264 85.88254 83.55095 87.83885 83.84218 89.79518 84.03633 91.7515 84.13339H93.70781L95.66414 84.03633 97.62045 83.84218 99.57678 83.55095 101.53311 83.16264 103.48943 82.67728 105.44576 82.09482 107.40207 81.41528 109.35838 80.63869 111.31471 79.765 113.27104 78.79425 115.22736 77.72641 117.18369 76.56152 119.14001 75.29955 121.09633 73.94049 123.05264 72.48434 125.00897 70.93115 126.96529 69.28085 128.92162 67.53351 130.87793 65.68906 132.83426 63.74756 134.79059 61.70897 136.7469 59.5733 138.70322 57.34058 140.65955 55.01077 142.61586 52.58388 144.57219 50.0599 146.52852 47.43887 148.48484 44.72076 150.44116 41.90558 152.39749 38.99332 154.35379 35.98398 156.31012 32.87755 158.26645 29.67407 160.22277 26.3735 162.1791 22.97586 164.1354 19.48114 166.09174 15.88936 168.04807 12.20049 170.00437 8.41455"/>
<path transform="matrix(1,0,0,-1,3.1879998,114.259998)" d="M94.72218 84.14674C94.72218 85.24721 93.8301 86.1393 92.72963 86.1393 91.62915 86.1393 90.73708 85.24721 90.73708 84.14674 90.73708 83.04626 91.62915 82.15419 92.72963 82.15419 93.8301 82.15419 94.72218 83.04626 94.72218 84.14674ZM92.72963 84.14674" fill="#1e8449"/>
<path transform="matrix(1,0,0,-1,3.1879998,114.259998)" stroke-width=".3985" stroke-linecap="butt" stroke-miterlimit="10" stroke-linejoin="miter" fill="none" stroke="#1e8449" d="M94.72218 84.14674C94.72218 85.24721 93.8301 86.1393 92.72963 86.1393 91.62915 86.1393 90.73708 85.24721 90.73708 84.14674 90.73708 83.04626 91.62915 82.15419 92.72963 82.15419 93.8301 82.15419 94.72218 83.04626 94.72218 84.14674ZM92.72963 84.14674"/>
<use data-text="o" xlink:href="#font_2_81" transform="matrix(7.97011,0,0,-7.97011,83.69,23.148995)" fill="#1e8449"/>
<use data-text="t" xlink:href="#font_2_105" transform="matrix(7.97011,0,0,-7.97011,87.922138,23.148995)" fill="#1e8449"/>
<use data-text="t" xlink:href="#font_2_105" transform="matrix(7.97011,0,0,-7.97011,91.21379,23.148995)" fill="#1e8449"/>
<use data-text="i" xlink:href="#font_2_66" transform="matrix(7.97011,0,0,-7.97011,94.50545,23.148995)" fill="#1e8449"/>
<use data-text="m" xlink:href="#font_2_75" transform="matrix(7.97011,0,0,-7.97011,96.85663,23.148995)" fill="#1e8449"/>
<use data-text="o" xlink:href="#font_2_81" transform="matrix(7.97011,0,0,-7.97011,103.91018,23.148995)" fill="#1e8449"/>
<use data-text="f" xlink:href="#font_3_1" transform="matrix(7.97011,0,0,-7.97011,156.104,80.002)"/>
<use data-text="(" xlink:href="#font_4_1" transform="matrix(7.97011,0,0,-7.97011,161.05,80.002)"/>
<use data-text="x" xlink:href="#font_3_2" transform="matrix(7.97011,0,0,-7.97011,164.344,80.002)"/>
<use data-text=")" xlink:href="#font_4_2" transform="matrix(7.97011,0,0,-7.97011,169.111,80.002)"/>
</g>
<use data-text="x" xlink:href="#font_5_2" transform="matrix(9.96264,0,0,-9.96264,189.73401,100.643)"/>
<use data-text="f" xlink:href="#font_5_1" transform="matrix(9.96264,0,0,-9.96264,22.163,14.178993)"/>
<use data-text="(" xlink:href="#font_6_1" transform="matrix(9.96264,0,0,-9.96264,28.112,14.178993)"/>
<use data-text="x" xlink:href="#font_5_2" transform="matrix(9.96264,0,0,-9.96264,31.987,14.178993)"/>
<use data-text=")" xlink:href="#font_6_2" transform="matrix(9.96264,0,0,-9.96264,37.681,14.178993)"/>
</svg>
