<svg xmlns="http://www.w3.org/2000/svg" xmlns:xlink="http://www.w3.org/1999/xlink" xmlns:inkscape="http://www.inkscape.org/namespaces/inkscape" version="1.1" width="185.394" height="185.394" viewBox="0 0 185.394 185.394">
<defs>
<path id="font_1_1" d="M.6589966 .23046875C.6759949 .23046875 .69400027 .23046875 .69400027 .25045777 .69400027 .27046205 .6759949 .27046205 .6589966 .27046205H.117996219C.100997928 .27046205 .08299255 .27046205 .08299255 .25045777 .08299255 .23046875 .100997928 .23046875 .117996219 .23046875H.6589966Z"/>
<path id="font_2_2" d="M.1269989 .07699585 .23298645 .18003845C.3889923 .31811524 .44898988 .3721466 .44898988 .47216798 .44898988 .5860901 .35899354 .6660156 .23699951 .6660156 .12399292 .6660156 .049987794 .57411196 .049987794 .48516847 .049987794 .4291687 .099990848 .4291687 .102996829 .4291687 .11999512 .4291687 .15499878 .44117738 .15499878 .48217774 .15499878 .5081787 .13699341 .5341797 .101989749 .5341797 .09399414 .5341797 .09199524 .5341797 .08898926 .5331726 .11199951 .59806826 .1659851 .63500979 .22399903 .63500979 .31498719 .63500979 .35798646 .5541382 .35798646 .47216798 .35798646 .39215089 .30799867 .31311036 .25299073 .25108338L.06098938 .036987306C.049987794 .025985718 .049987794 .023986817 .049987794 0H.42099L.44898988 .17404175H.42399598C.4189911 .14402771 .4119873 .1000061 .4019928 .084991458 .394989 .07699585 .32899476 .07699585 .30699159 .07699585H.1269989Z"/>
<path id="font_2_1" d="M.2939911 .64004519C.2939911 .66400149 .2939911 .6660156 .2709961 .6660156 .20899964 .60227969 .12098694 .60227969 .08898926 .60227969V.57128909C.10899353 .57128909 .16799927 .57128909 .21998596 .5972748V.07902527C.21998596 .042999269 .21699524 .0309906 .1269989 .0309906H.09498596V0C.12998963 .0029907227 .21699524 .0029907227 .25698854 .0029907227 .29699708 .0029907227 .38398744 .0029907227 .4189911 0V.0309906H.3869934C.29699708 .0309906 .2939911 .041992189 .2939911 .07902527V.64004519Z"/>
<path id="font_2_3" d="M.2899933 .35191346C.37199403 .37893678 .42999269 .4490509 .42999269 .52809146 .42999269 .6100464 .34199525 .6660156 .24598694 .6660156 .14498902 .6660156 .068984989 .60606387 .068984989 .53009036 .068984989 .49710084 .09098816 .47808839 .11999512 .47808839 .15098572 .47808839 .17098999 .50009158 .17098999 .5290985 .17098999 .57910159 .12399292 .57910159 .10899353 .57910159 .13999939 .62802127 .20599365 .64100649 .24198914 .64100649 .2829895 .64100649 .33799745 .6190338 .33799745 .5290985 .33799745 .51708987 .33599855 .45906068 .30999757 .4149933 .27999879 .36691285 .24598694 .36390687 .22099304 .36291505 .21299744 .36190797 .18899536 .35990907 .18199158 .35990907 .17399597 .35890199 .16699219 .35791017 .16699219 .3479004 .16699219 .33691407 .17399597 .33691407 .19099427 .33691407H.23498535C.31698609 .33691407 .35398866 .2686615 .35398866 .17037964 .35398866 .034469606 .2849884 .0055389406 .24099732 .0055389406 .19799805 .0055389406 .12298584 .022491456 .08799744 .08137512 .12298584 .07637024 .1539917 .09837341 .1539917 .1363678 .1539917 .17237854 .1269989 .19238281 .09799194 .19238281 .07398987 .19238281 .041992189 .17837525 .041992189 .1343689 .041992189 .043441774 .1349945-.022460938 .24398804-.022460938 .3659973-.022460938 .45700074 .06838989 .45700074 .17037964 .45700074 .252594 .3939972 .33088685 .2899933 .35191346Z"/>
<clipPath id="clip_3">
<path transform="matrix(.85,0,0,-.85,3.3273,182.0667)" d="M0 0H210.28227V210.28227H0Z"/>
</clipPath>
<path id="font_4_2" d="M.20599365 .11984253C.17098999 .06594849 .13899231 .039978029 .07998657 .035995485 .069992069 .034988405 .056991579 .034988405 .056991579 .01499939 .056991579 .0039978029 .06599426 0 .070999149 0 .09700012 0 .12998963 .0039978029 .15699768 .0039978029 .18899536 .0039978029 .22999573 0 .2599945 0 .2649994 0 .27999879 0 .27999879 .021987915 .27999879 .034988405 .2669983 .035995485 .2630005 .035995485 .25498963 .036987306 .21899414 .038986207 .21899414 .06594849 .21899414 .077926639 .22898865 .09489441 .23399353 .103881839L.31399537 .22766114H.59999087L.6239929 .061950685C.6199951 .051971437 .6139984 .035995485 .5549927 .035995485 .54299929 .035995485 .5289917 .035995485 .5289917 .01399231 .5289917 .009994507 .5319977 0 .54499819 0 .57398989 0 .644989 .0039978029 .673996 .0039978029 .69200137 .0039978029 .71499636 .0029907227 .73298647 .0029907227 .7509918 .0019989014 .7719879 0 .7899933 0 .8029938 0 .80999758 .0079956059 .80999758 .020996094 .80999758 .035995485 .7979889 .035995485 .7819977 .035995485 .723999 .035995485 .7220001 .04397583 .71899417 .06793213L.6309967 .6848755C.6279907 .70588687 .6259918 .7128906 .6069946 .7128906 .58799746 .7128906 .58200076 .70388796 .57299807 .6898804L.20599365 .11984253M.33799745 .26367188 .5479889 .5908356 .59498599 .26367188H.33799745Z"/>
<path id="font_5_1" d="M.35499574 .75C.16499329 .61598208 .114990238 .40397645 .114990238 .25097657 .114990238 .10997009 .15699768-.10902405 .35499574-.24902344 .36299134-.24902344 .375-.24902344 .375-.23703003 .375-.23103333 .37199403-.22903443 .36499024-.22203064 .23199463-.10203552 .18299866 .067977908 .18299866 .24996948 .18299866 .519989 .28599549 .65197756 .36799623 .72598269 .37199403 .7299957 .375 .73298647 .375 .73799136 .375 .75 .36299134 .75 .35499574 .75Z"/>
<path id="font_5_4" d="M.33499146 .63612368C.33499146 .6630554 .33299256 .6640625 .30499269 .6640625 .24099732 .6014404 .1499939 .6004486 .10899353 .6004486V.5644531C.1329956 .5644531 .19898987 .5644531 .2539978 .592453V.08203125C.2539978 .04899597 .2539978 .035995485 .1539917 .035995485H.115997318V0C.13398743 .0009918213 .25698854 .0039978029 .2939911 .0039978029 .32499696 .0039978029 .45098878 .0009918213 .47299195 0V.035995485H.43499757C.33499146 .035995485 .33499146 .04899597 .33499146 .08203125V.63612368Z"/>
<path id="font_4_1" d="M.21099854 .015991211C.21099854-.03907776 .20098877-.10321045 .1329956-.16732788 .1289978-.17134094 .12599182-.17434693 .12599182-.17933655 .12599182-.18634033 .13398743-.19334412 .13999939-.19334412 .1539917-.19334412 .23899842-.113220218 .23899842 .005996704 .23899842 .067993167 .21499634 .114990238 .16899109 .114990238 .13598633 .114990238 .11199951 .08898926 .11199951 .057998659 .11199951 .025985718 .1349945 0 .16999817 0 .19400025 0 .20999146 .015991211 .21099854 .015991211Z"/>
<path id="font_5_5" d="M.5049896 .18203736H.47099305C.46798707 .16001892 .45799256 .100997928 .44499208 .09098816 .43699647 .084991458 .3600006 .084991458 .34599305 .084991458H.1619873C.2669983 .17803955 .3019867 .20603943 .3619995 .25306703 .43598939 .312088 .5049896 .374115 .5049896 .46914674 .5049896 .5900879 .39898683 .6640625 .2709961 .6640625 .14698792 .6640625 .06298828 .57710269 .06298828 .4851532 .06298828 .43414308 .10598755 .42915345 .115997318 .42915345 .13999939 .42915345 .16899109 .44615174 .16899109 .48214723 .16899109 .5001526 .1619873 .53515627 .10998535 .53515627 .14099121 .6060791 .20899964 .62805178 .2559967 .62805178 .35598756 .62805178 .4079895 .5501404 .4079895 .46914674 .4079895 .38212586 .34599305 .3130951 .31399537 .27708436L.07299805 .038986207C.06298828 .02999878 .06298828 .027999878 .06298828 0H.47499085L.5049896 .18203736Z"/>
<path id="font_5_2" d="M.08999634 .75C.08299255 .75 .070999149 .75 .070999149 .73799136 .070999149 .73298647 .07398987 .7299957 .07998657 .72299197 .1659851 .64398196 .2619934 .5089874 .2619934 .25097657 .2619934 .04197693 .19699097-.11602783 .08898926-.21403504 .07199097-.23103333 .070999149-.23202515 .070999149-.23703003 .070999149-.24203491 .07398987-.24902344 .083999637-.24902344 .09599304-.24902344 .19099427-.18302918 .25698854-.058029176 .30099488 .024978638 .32998658 .13298035 .32998658 .24996948 .32998658 .39097596 .28799439 .60998538 .08999634 .75Z"/>
<path id="font_4_3" d="M.18998719 .07797241C.18099976 .04399109 .1789856 .035995485 .101989749 .035995485 .084991458 .035995485 .07199097 .035995485 .07199097 .01499939 .07199097 0 .083999637 0 .101989749 0H.4889984C.6569977 0 .7859955 .11494446 .7859955 .21388245 .7859955 .28485108 .72099307 .34580995 .61499026 .35681153 .73599246 .37879945 .83699038 .4547577 .83699038 .54067996 .83699038 .6166382 .7599945 .6826172 .6299896 .6826172H.2659912C.24699402 .6826172 .23399353 .6826172 .23399353 .660614 .23399353 .64660647 .24598694 .64660647 .2659912 .64660647 .2669983 .64660647 .28599549 .64660647 .3039856 .64460757 .32499696 .64260867 .32699586 .64060977 .32699586 .63061526 .32699586 .62861636 .32699586 .6236267 .32299806 .6086426L.18998719 .07797241M.34999085 .3688202 .41099549 .6126404C.4189911 .6436157 .41999818 .64660647 .46199037 .64660647H.6139984C.71598818 .64660647 .7389984 .57966616 .7389984 .541687 .7389984 .46073915 .647995 .3688202 .5139923 .3688202H.34999085M.3019867 .035995485C.2709961 .035995485 .269989 .036987306 .269989 .04598999 .269989 .04698181 .269989 .051986696 .27398683 .066970828L.34298707 .3408203H.5549927C.6489868 .3408203 .68499758 .27885438 .68499758 .22088623 .68499758 .12194824 .58399966 .035995485 .46299745 .035995485H.3019867Z"/>
<path id="font_4_4" d="M.84298709 .6901245C.84298709 .69511416 .83999636 .703125 .8299866 .703125 .82299807 .703125 .82099917 .70111086 .81199648 .69111636L.7389984 .61413577C.7299957 .62612918 .673996 .703125 .5509949 .703125 .30799867 .703125 .069992069 .48820497 .069992069 .2623291 .069992069 .09941101 .19799805-.01953125 .3769989-.01953125 .43099977-.01953125 .5269928-.008544922 .6299896 .078430179 .70899966 .14538574 .73098757 .23234558 .73098757 .24034119 .73098757 .25334168 .71899417 .25334168 .71398928 .25334168 .70098879 .25334168 .69898989 .24833679 .69599917 .23735047 .6549988 .10041809 .5149994 .016464234 .3939972 .016464234 .28799439 .016464234 .16999817 .07342529 .16999817 .23135376 .16999817 .2603302 .1769867 .4182434 .2919922 .5441742 .36099244 .6211395 .46598817 .66711428 .5609894 .66711428 .6769867 .66711428 .7449951 .5831604 .7449951 .47122193 .7449951 .4432373 .74198916 .43623353 .74198916 .43023683 .74198916 .4172516 .7549896 .4172516 .7599945 .4172516 .776001 .4172516 .776001 .4202423 .7809906 .4392395L.84298709 .6901245Z"/>
<path id="font_4_5" d="M.82899478 .4252472C.82899478 .5821686 .71598818 .703125 .5389862 .703125 .2999878 .703125 .068984989 .47921754 .068984989 .2543335 .068984989 .09341431 .18798828-.01953125 .3600006-.01953125 .59799197-.01953125 .82899478 .19836426 .82899478 .4252472M.36799623 .013458252C.2619934 .013458252 .17199707 .0854187 .17199707 .23335266 .17199707 .28431703 .18598938 .426239 .27799989 .54019168 .34498597 .6221466 .44198609 .67111209 .5309906 .67111209 .6349945 .67111209 .73098757 .6051483 .73098757 .4602356 .73098757 .38726808 .69999697 .24134827 .6069946 .13439942 .5369873 .05444336 .44599916 .013458252 .36799623 .013458252Z"/>
<path id="font_4_6" d="M.24899292 .10601807C.23899842 .072021488 .20599365 .018234253 .15499878 .018234253 .1519928 .018234253 .12199402 .018234253 .100997928 .03215027 .14199829 .04508972 .14498902 .08100891 .14498902 .087020877 .14498902 .10900879 .12799073 .12402344 .10499573 .12402344 .07699585 .12402344 .04798889 .10002136 .04798889 .0630188 .04798889 .01322937 .10398865-.009765625 .15299988-.009765625 .19898987-.009765625 .23999024 .019226075 .2649994 .061019899 .2889862 .008224487 .34399415-.009765625 .38398744-.009765625 .49899293-.009765625 .55999758 .11502075 .55999758 .14305115 .55999758 .15608216 .5469971 .15608216 .5439911 .15608216 .5299988 .15608216 .5289917 .15107727 .5249939 .13905335 .5039978 .07002258 .44400025 .018234253 .3880005 .018234253 .34799195 .018234253 .32699586 .04508972 .32699586 .08302307 .32699586 .10900879 .35099793 .20018006 .3789978 .31140138 .39898683 .38841249 .44400025 .4133911 .47698976 .4133911 .47898866 .4133911 .5099945 .4133911 .5309906 .39941407 .49899293 .39041139 .4869995 .3624115 .4869995 .34440614 .4869995 .32240296 .5039978 .30740357 .5269928 .30740357 .5499878 .30740357 .58299258 .32640077 .58299258 .3684082 .58299258 .4243927 .5189972 .44140626 .47898866 .44140626 .42900086 .44140626 .3889923 .4084015 .36698915 .3704071 .34899903 .4113922 .30299378 .44140626 .24699402 .44140626 .1349945 .44140626 .070999149 .31840516 .070999149 .2883606 .070999149 .27534486 .084991458 .27534486 .08799744 .27534486 .100997928 .27534486 .101989749 .27934266 .10699463 .29237367 .13198853 .3704071 .19499207 .4133911 .24398804 .4133911 .2769928 .4133911 .3039856 .395401 .3039856 .3474121 .3039856 .32740785 .2919922 .27734376 .2829895 .24327088L.24899292 .10601807Z"/>
<path id="font_5_3" d="M.46299745 .2263794H.7689972C.7819977 .2263794 .80599978 .2263794 .80599978 .25038148 .80599978 .27539063 .7829895 .27539063 .7689972 .27539063H.46299745V.5821533C.46299745 .59513857 .46299745 .6191406 .43899537 .6191406 .4139862 .6191406 .4139862 .5961304 .4139862 .5821533V.27539063H.10699463C.09399414 .27539063 .069992069 .27539063 .069992069 .25138856 .069992069 .2263794 .09298706 .2263794 .10699463 .2263794H.4139862V-.08114624C.4139862-.09416199 .4139862-.11816406 .43798829-.11816406 .46299745-.11816406 .46299745-.09516907 .46299745-.08114624V.2263794Z"/>
<path id="font_4_7" d="M.55599978 .37738038C.55999758 .39138795 .55999758 .39338685 .55999758 .3993988 .55999758 .41940309 .5439911 .43139649 .5269928 .43139649 .5159912 .43139649 .49699403 .4263916 .48599244 .4073944 .48298646 .4013977 .47499085 .36938478 .46998597 .34936524L.44898988 .2663269C.44299317 .24232483 .4119873 .11627197 .40899659 .105270389 .4079895 .105270389 .3639984 .018234253 .28599549 .018234253 .21798706 .018234253 .21798706 .08325195 .21798706 .101257327 .21798706 .1552887 .24099732 .2183075 .2709961 .29534913 .2829895 .32736207 .28799439 .33937074 .28799439 .35636903 .28799439 .40438844 .24699402 .44140626 .19299317 .44140626 .09199524 .44140626 .04699707 .3053589 .04699707 .28834535 .04699707 .27534486 .06098938 .27534486 .06399536 .27534486 .07798767 .27534486 .07899475 .28033448 .08198547 .29135133 .10699463 .3743744 .1499939 .4133911 .18998719 .4133911 .20698548 .4133911 .21499634 .40238954 .21499634 .37838746 .21499634 .3553772 .20599365 .33335877 .20098877 .32035829 .15299988 .19830323 .14299011 .1612854 .14299011 .117263797 .14299011 .1002655 .14299011 .053237916 .18199158 .021224976 .21299744-.004776001 .25498963-.009765625 .28199769-.009765625 .32199098-.009765625 .35798646 .0052337648 .3909912 .035232545 .37799073-.01977539 .36698915-.061782838 .32499696-.11178589 .2979889-.14279175 .2579956-.17610169 .20498657-.17610169 .19799805-.17610169 .15098572-.17610169 .12998963-.14279175 .18399048-.13679505 .18399048-.08879089 .18399048-.08778381 .18399048-.055786134 .15499878-.04978943 .14498902-.04978943 .11999512-.04978943 .08699036-.0697937 .08699036-.11578369 .08699036-.1670227 .1349945-.20410156 .20599365-.20410156 .30699159-.20410156 .42999269-.12579346 .46099855-.00077819827L.55599978 .37738038Z"/>
<path id="font_5_7" d="M.7679901 .3359375C.7829895 .3359375 .80599978 .3359375 .80599978 .3609314 .80599978 .38493348 .7819977 .38493348 .7689972 .38493348H.10699463C.09399414 .38493348 .069992069 .38493348 .069992069 .3609314 .069992069 .3359375 .09298706 .3359375 .10798645 .3359375H.7679901M.7689972 .11602783C.7819977 .11602783 .80599978 .11602783 .80599978 .1400299 .80599978 .16503906 .7829895 .16503906 .7679901 .16503906H.10798645C.09298706 .16503906 .069992069 .16503906 .069992069 .1400299 .069992069 .11602783 .09399414 .11602783 .10699463 .11602783H.7689972Z"/>
<path id="font_5_6" d="M.15499878 .5588074C.20599365 .5458069 .23599243 .5458069 .2519989 .5458069 .38398744 .5458069 .46199037 .6358032 .46199037 .6508026 .46199037 .6618042 .45498658 .6648102 .44999696 .6648102 .44799806 .6648102 .44599916 .6648102 .44198609 .6618042 .41799928 .6528015 .36499024 .6328125 .29100038 .6328125 .2630005 .6328125 .20999146 .6348114 .14498902 .6598053 .1349945 .6648102 .1329956 .6648102 .13198853 .6648102 .11898804 .6648102 .11898804 .6538086 .11898804 .6378021V.34251405C.11898804 .32548524 .11898804 .3134613 .1349945 .3134613 .14399719 .3134613 .14498902 .3154602 .15499878 .32748414 .19799805 .38259889 .25898744 .390625 .2939911 .390625 .35398866 .390625 .3809967 .34251405 .38598634 .33450318 .4039917 .30143739 .4099884 .26335145 .4099884 .20524597 .4099884 .17524719 .4099884 .116256717 .37998963 .07234192 .35499574 .03640747 .31199647 .012466431 .2630005 .012466431 .19799805 .012466431 .1309967 .04838562 .10598755 .11425781 .14399719 .11125183 .16299439 .13624573 .16299439 .16325379 .16299439 .20625305 .12599182 .21424866 .11299133 .21424866 .11099243 .21424866 .06298828 .21424866 .06298828 .1602478 .06298828 .07034302 .14498902-.01953125 .2649994-.01953125 .3929901-.01953125 .5049896 .07533264 .5049896 .20124817 .5049896 .31445313 .4189911 .41862489 .29499818 .41862489 .25099183 .41862489 .19898987 .4076233 .15499878 .36956788V.5588074Z"/>
<path id="font_6_1" d="M.33399964 .30233766C.33999635 .32835389 .36299134 .42037965 .43299867 .42037965 .43798829 .42037965 .46199037 .42037965 .48298646 .40734864 .45498658 .402359 .43499757 .37734986 .43499757 .35334779 .43499757 .33735658 .44599916 .31835938 .47299195 .31835938 .49499513 .31835938 .5269928 .3363495 .5269928 .37635804 .5269928 .42837525 .46798707 .4423828 .43399049 .4423828 .37599183 .4423828 .34098817 .38935853 .32899476 .36634828 .3039856 .43237306 .25 .4423828 .22099304 .4423828 .116989139 .4423828 .05999756 .3133545 .05999756 .28834535 .05999756 .27833558 .069992069 .27833558 .07199097 .27833558 .07998657 .27833558 .08299255 .28033448 .084991458 .28933717 .11898804 .39535523 .18499756 .42037965 .21899414 .42037965 .23799134 .42037965 .272995 .4113617 .272995 .35334779 .272995 .32235719 .2559967 .25532533 .21899414 .11528015 .20298767 .053268434 .16799927 .011245728 .12399292 .011245728 .117996219 .011245728 .09498596 .011245728 .07398987 .024276734 .09899902 .029266358 .12098694 .05027771 .12098694 .07827759 .12098694 .105270389 .09899902 .11328125 .083999637 .11328125 .053985597 .11328125 .0289917 .08728027 .0289917 .055267335 .0289917 .009246826 .07899475-.0107421879 .12298584-.0107421879 .18899536-.0107421879 .22499085 .059280397 .22799683 .0652771 .23999024 .028274537 .27598573-.0107421879 .33599855-.0107421879 .43899537-.0107421879 .49598695 .118270877 .49598695 .14328003 .49598695 .1532898 .4869995 .1532898 .48399354 .1532898 .47499085 .1532898 .47299195 .14929199 .47099305 .14228821 .43798829 .03527832 .36999513 .011245728 .33799745 .011245728 .29899598 .011245728 .2829895 .043273927 .2829895 .07727051 .2829895 .09927368 .2889862 .121276859 .2999878 .16529846L.33399964 .30233766Z"/>
<path id="font_6_2" d="M.48599244 .38136292C.48999024 .39537049 .48999024 .39736939 .48999024 .40437318 .48999024 .42237855 .47599793 .43138124 .46099855 .43138124 .45098878 .43138124 .43499757 .42536927 .42599488 .41036988 .42399598 .405365 .41600038 .37435914 .4119873 .35635377 .40499879 .33035279 .397995 .30334474 .3919983 .27633668L.34700013 .09628296C.34298707 .08126831 .2999878 .011245728 .23399353 .011245728 .18299866 .011245728 .17199707 .055267335 .17199707 .0922699 .17199707 .1382904 .18899536 .20030213 .22299195 .28833009 .23899842 .3293457 .24299622 .3403473 .24299622 .36035157 .24299622 .405365 .21099854 .4423828 .16099549 .4423828 .06599426 .4423828 .0289917 .29733277 .0289917 .28833009 .0289917 .27833558 .038986207 .27833558 .040985109 .27833558 .050994874 .27833558 .051986696 .28033448 .056991579 .29634095 .083999637 .3903656 .12399292 .42037965 .1579895 .42037965 .1659851 .42037965 .18299866 .42037965 .18299866 .3883667 .18299866 .36335755 .17298889 .3373413 .1659851 .31834413 .12599182 .21231079 .10798645 .1552887 .10798645 .10827637 .10798645 .019256592 .17098999-.0107421879 .22999573-.0107421879 .2689972-.0107421879 .30299378 .0062561037 .33099366 .03425598 .31799317-.017745972 .30599977-.06674194 .2659912-.11973572 .23999024-.15385437 .20199585-.18309021 .1559906-.18309021 .14199829-.18309021 .09700012-.18005371 .07998657-.14074707 .09599304-.14074707 .10899353-.14074707 .12298584-.1287384 .1329956-.11973572 .14299011-.10673523 .14299011-.08773804 .14299011-.056747438 .115997318-.052734376 .10598755-.052734376 .08299255-.052734376 .049987794-.068740848 .049987794-.11773682 .049987794-.16796875 .09399414-.20507813 .1559906-.20507813 .25898744-.20507813 .3619995-.11373901 .3899994-.00074768069L.48599244 .38136292Z"/>
</defs>
<path transform="matrix(.85,0,0,-.85,3.3273,182.0667)" stroke-width=".3985" stroke-linecap="butt" stroke-miterlimit="10" stroke-linejoin="miter" fill="none" stroke="#e5e6e5" d="M24.73909 0V210.28227M55.66295 0V210.28227M117.51068 0V210.28227M148.43454 0V210.28227M179.35842 0V210.28227"/>
<path transform="matrix(.85,0,0,-.85,3.3273,182.0667)" stroke-width=".3985" stroke-linecap="butt" stroke-miterlimit="10" stroke-linejoin="miter" fill="none" stroke="#e5e6e5" d="M0 24.73909H210.28227M0 55.66295H210.28227M0 117.51068H210.28227M0 148.43454H210.28227M0 179.35842H210.28227"/>
<path transform="matrix(.85,0,0,-.85,3.3273,182.0667)" stroke-width=".19925" stroke-linecap="butt" stroke-miterlimit="10" stroke-linejoin="miter" fill="none" stroke="#7f807f" d="M24.73909 84.46092V88.71269M55.66295 84.46092V88.71269M117.51068 84.46092V88.71269M148.43454 84.46092V88.71269M179.35842 84.46092V88.71269"/>
<path transform="matrix(.85,0,0,-.85,3.3273,182.0667)" stroke-width=".19925" stroke-linecap="butt" stroke-miterlimit="10" stroke-linejoin="miter" fill="none" stroke="#7f807f" d="M84.46092 24.73909H88.71269M84.46092 55.66295H88.71269M84.46092 117.51068H88.71269M84.46092 148.43454H88.71269M84.46092 179.35842H88.71269"/>
<path transform="matrix(.85,0,0,-.85,3.3273,182.0667)" stroke-width=".79701" stroke-linecap="butt" stroke-miterlimit="10" stroke-linejoin="miter" fill="none" stroke="#000000" d="M0 86.5868H207.692"/>
<path transform="matrix(.85,0,0,-.85,179.86551,108.46791)" d="M2.59026 0-1.55415 2.0722 0 0-1.55415-2.0722"/>
<path transform="matrix(.85,0,0,-.85,3.3273,182.0667)" stroke-width=".79701" stroke-linecap="butt" stroke-miterlimit="10" stroke-linejoin="miter" fill="none" stroke="#000000" d="M86.5868 0V207.692"/>
<path transform="matrix(0,-.85,-.85,-0,76.92609,5.528488)" d="M2.59026 0-1.55415 2.0722 0 0-1.55415-2.0722"/>
<use data-text="&#x2212;" xlink:href="#font_1_1" transform="matrix(8.468244,0,0,-8.468244,18.945202,118.893848)"/>
<use data-text="2" xlink:href="#font_2_2" transform="matrix(8.468244,0,0,-8.468244,25.531853,118.893848)"/>
<use data-text="&#x2212;" xlink:href="#font_1_1" transform="matrix(8.468244,0,0,-8.468244,45.22975,118.893848)"/>
<use data-text="1" xlink:href="#font_2_1" transform="matrix(8.468244,0,0,-8.468244,51.816404,118.893848)"/>
<use data-text="1" xlink:href="#font_2_1" transform="matrix(8.468244,0,0,-8.468244,101.09345,118.893848)"/>
<use data-text="2" xlink:href="#font_2_2" transform="matrix(8.468244,0,0,-8.468244,127.378009,118.893848)"/>
<use data-text="3" xlink:href="#font_2_3" transform="matrix(8.468244,0,0,-8.468244,153.6634,118.893848)"/>
<use data-text="&#x2212;" xlink:href="#font_1_1" transform="matrix(8.468244,0,0,-8.468244,61.136655,163.4143)"/>
<use data-text="2" xlink:href="#font_2_2" transform="matrix(8.468244,0,0,-8.468244,67.723308,163.4143)"/>
<use data-text="&#x2212;" xlink:href="#font_1_1" transform="matrix(8.468244,0,0,-8.468244,61.136655,137.12975)"/>
<use data-text="1" xlink:href="#font_2_1" transform="matrix(8.468244,0,0,-8.468244,67.723308,137.12975)"/>
<use data-text="1" xlink:href="#font_2_1" transform="matrix(8.468244,0,0,-8.468244,67.723308,84.912548)"/>
<use data-text="2" xlink:href="#font_2_2" transform="matrix(8.468244,0,0,-8.468244,67.723308,58.627145)"/>
<use data-text="3" xlink:href="#font_2_3" transform="matrix(8.468244,0,0,-8.468244,67.723308,32.34259)"/>
<g clip-path="url(#clip_3)">
<path transform="matrix(.85,0,0,-.85,3.3273,182.0667)" stroke-width=".79701" stroke-linecap="butt" stroke-miterlimit="10" stroke-linejoin="miter" fill="none" stroke="#2471a3" d="M7001.163 86.5868C7001.163 3905.451 3905.451 7001.163 86.5868 7001.163-3732.2774 7001.163-6827.9895 3905.451-6827.9895 86.5868-6827.9895-3732.2774-3732.2774-6827.9895 86.5868-6827.9895 3905.451-6827.9895 7001.163-3732.2774 7001.163 86.5868ZM86.5868 86.5868"/>
<path transform="matrix(.85,0,0,-.85,3.3273,182.0667)" stroke-width=".79701" stroke-linecap="butt" stroke-miterlimit="10" stroke-linejoin="miter" fill="none" stroke="#2471a3" d="M155.73755 86.58841 155.70308 88.77133 155.59972 90.9521 155.42757 93.12851 155.18679 95.29842 154.87764 97.45961 154.50043 99.61 154.0555 101.74739 153.54332 103.86967 152.96442 105.97473 152.31934 108.06046 151.60874 110.12479 150.83332 112.16565 149.99385 114.18102 149.09119 116.16888 148.12624 118.12727 147.09992 120.05421 146.01329 121.94778 144.86743 123.80612 143.66349 125.62737 142.40262 127.40967 141.08614 129.1513 139.71533 130.85051 138.29155 132.50559 136.81626 134.1149 135.29087 135.67684 133.71695 137.18982 132.09606 138.65239 130.42978 140.06304 128.7198 141.42041 126.96785 142.7231 125.17563 143.96985 123.34496 145.15938 121.47763 146.29055 119.57553 147.3622 117.64055 148.37326 115.6746 149.32274 113.67969 150.20967 111.65775 151.0332 109.61084 151.79248 107.54094 152.48677 105.45018 153.11537 103.34064 153.67765 101.21437 154.17305 99.07353 154.60109 96.92026 154.96134 94.75665 155.2534 92.58493 155.47704 90.40724 155.632 88.22572 155.71816 86.04259 155.73538 83.85999 155.6837 81.68011 155.56313 79.50513 155.37381 77.3372 155.1159 75.1785 154.7897 73.03116 154.39551 70.89735 153.93373 68.77919 153.40483 66.67876 152.80933 64.59819 152.1478 62.53954 151.42093 60.50485 150.62943 58.49617 149.77408 56.51549 148.85576 54.56479 147.87537 52.64601 146.83388 50.76106 145.73233 48.91182 144.57184 47.10016 143.35355 45.32784 142.07868 43.59666 140.74848 41.90834 139.3643 40.26454 137.92749 38.66695 136.43955 37.1171 134.90187 35.61656 133.31607 34.16684 131.68367 32.76938 130.00632 31.42557 128.28569 30.13673 126.52348 28.90417 124.7215 27.72911 122.88147 26.61273 121.0053 25.55612 119.09479 24.56036 117.1519 23.62645 115.17853 22.75528 113.17665 21.94774 111.14828 21.20464 109.09543 20.5267 107.02014 19.91464 104.92448 19.36903 102.81055 18.89043 100.68045 18.4793 98.5363 18.13606 96.38023 17.86107 94.21442 17.65459 92.041 17.5168 89.86214 17.44788 87.68002V85.4968L17.5168 83.31468 17.65459 81.13582 17.86107 78.9624 18.13606 76.79657 18.4793 74.64052 18.89043 72.49635 19.36903 70.36626 19.91464 68.25233 20.5267 66.15668 21.20464 64.08138 21.94774 62.02853 22.75528 60.00017 23.62645 57.99829 24.56036 56.02492 25.55612 54.08202 26.61273 52.17152 27.72911 50.29533 28.90417 48.45532 30.13673 46.65332 31.42557 44.89113 32.76938 43.1705 34.16684 41.49315 35.61656 39.86075 37.1171 38.27493 38.66695 36.73727 40.26454 35.24931 41.90834 33.81252 43.59666 32.42833 45.32784 31.09814 47.10016 29.82326 48.91182 28.60498 50.76106 27.44447 52.64601 26.34294 54.56479 25.30145 56.51549 24.32106 58.49617 23.40274 60.50485 22.5474 62.53954 21.75589 64.59819 21.02902 66.67876 20.3675 68.77919 19.77199 70.89735 19.24307 73.03116 18.7813 75.1785 18.3871 77.3372 18.0609 79.50513 17.80301 81.68011 17.6137 83.85999 17.49312 86.04259 17.44142 88.22572 17.45866 90.40724 17.5448 92.58493 17.69977 94.75665 17.9234 96.92026 18.21548 99.07353 18.57573 101.21437 19.00375 103.34064 19.49918 105.45018 20.06145 107.54094 20.69005 109.61084 21.38432 111.65775 22.14362 113.67969 22.96715 115.6746 23.85408 117.64055 24.80356 119.57553 25.81462 121.47763 26.88628 123.34496 28.01743 125.17563 29.20697 126.96785 30.4537 128.7198 31.75641 130.42978 33.11377 132.09606 34.52443 133.71695 35.98698 135.29087 37.49998 136.81626 39.06192 138.29155 40.67123 139.71533 42.3263 141.08614 44.0255 142.40262 45.76714 143.66349 47.54945 144.86743 49.37068 146.01329 51.22902 147.09992 53.1226 148.12624 55.04955 149.09119 57.00793 149.99385 58.99579 150.83332 61.01115 151.60874 63.05202 152.31934 65.11636 152.96442 67.20209 153.54332 69.30713 154.0555 71.42943 154.50043 73.56682 154.87764 75.71718 155.18679 77.8784 155.42757 80.0483 155.59972 82.22472 155.70308 84.40547 155.73755 86.58841"/>
<path transform="matrix(.85,0,0,-.85,3.3273,182.0667)" stroke-width=".79701" stroke-linecap="butt" stroke-miterlimit="10" stroke-linejoin="miter" fill="none" stroke="#b30000" d="M71.12619 171.6306 76.28027 169.05356 81.43433 166.47652 86.58841 163.89949 91.74248 161.32247 96.89655 158.74542 102.05063 156.16838 107.2047 153.59134 112.35878 151.01432 117.51283 148.43727 122.66692 145.86025 127.82098 143.2832 132.97505 140.70616 138.12914 138.12914 143.2832 135.5521 148.43727 132.97505 153.59134 130.39801 158.74542 127.82098 163.89949 125.24396 169.05356 122.66692 174.20764 120.08987 179.36171 117.51283 184.51578 114.93579 189.66985 112.35878 194.82393 109.78174"/>
<path transform="matrix(.85,0,0,-.85,3.3273,182.0667)" stroke-width=".79701" stroke-linecap="butt" stroke-miterlimit="10" stroke-linejoin="miter" fill="none" stroke="#0000b3" d="M71.12619 272.135 76.28027 261.82688 81.43433 251.51873 86.58841 241.21057 91.74248 230.90244 96.89655 220.59429 102.05063 210.28615 107.2047 199.978 112.35878 189.66985 117.51283 179.36171 122.66692 169.05356 127.82098 158.74542 132.97505 148.43727 138.12914 138.12914 143.2832 127.82098 148.43727 117.51283 153.59134 107.2047 158.74542 96.89655 163.89949 86.58841 169.05356 76.28027 174.20764 65.97212 179.36171 55.66397 184.51578 45.35582 189.66985 35.04768 194.82393 24.73953"/>
<use data-text="A" xlink:href="#font_4_2" transform="matrix(5.9277727,0,0,-5.9277727,79.74485,51.255937)"/>
<use data-text="(" xlink:href="#font_5_1" transform="matrix(5.9277727,0,0,-5.9277727,84.83805,51.255937)"/>
<use data-text="1" xlink:href="#font_5_4" transform="matrix(5.9277727,0,0,-5.9277727,87.481838,51.255937)"/>
<use data-text="," xlink:href="#font_4_1" transform="matrix(5.9277727,0,0,-5.9277727,90.85945,51.255937)"/>
<use data-text="2" xlink:href="#font_5_5" transform="matrix(5.9277727,0,0,-5.9277727,94.027408,51.255937)"/>
<use data-text=")" xlink:href="#font_5_2" transform="matrix(5.9277727,0,0,-5.9277727,97.40031,51.255937)"/>
<use data-text="B" xlink:href="#font_4_3" transform="matrix(5.9277727,0,0,-5.9277727,132.6565,89.790699)"/>
<use data-text="(" xlink:href="#font_5_1" transform="matrix(5.9277727,0,0,-5.9277727,138.06163,89.790699)"/>
<use data-text="2" xlink:href="#font_5_5" transform="matrix(5.9277727,0,0,-5.9277727,140.70542,89.790699)"/>
<use data-text="," xlink:href="#font_4_1" transform="matrix(5.9277727,0,0,-5.9277727,144.0839,89.790699)"/>
<use data-text="1" xlink:href="#font_5_4" transform="matrix(5.9277727,0,0,-5.9277727,147.25099,89.790699)"/>
<use data-text=")" xlink:href="#font_5_2" transform="matrix(5.9277727,0,0,-5.9277727,150.62389,89.790699)"/>
<use data-text="C" xlink:href="#font_4_4" transform="matrix(5.9277727,0,0,-5.9277727,123.8947,61.49929)"/>
<use data-text="O" xlink:href="#font_4_5" transform="matrix(5.9277727,0,0,-5.9277727,68.43136,115.68)"/>
<use data-text="x" xlink:href="#font_4_6" transform="matrix(5.9277727,0,0,-5.9277727,139.99286,77.869449)" fill="#b30000"/>
<use data-text="+" xlink:href="#font_5_3" transform="matrix(5.9277727,0,0,-5.9277727,145.37505,77.869449)" fill="#b30000"/>
<use data-text="2" xlink:href="#font_5_5" transform="matrix(5.9277727,0,0,-5.9277727,152.11493,77.869449)" fill="#b30000"/>
<use data-text="y" xlink:href="#font_4_7" transform="matrix(5.9277727,0,0,-5.9277727,155.4909,77.869449)" fill="#b30000"/>
<use data-text="=" xlink:href="#font_5_7" transform="matrix(5.9277727,0,0,-5.9277727,161.06606,77.869449)" fill="#b30000"/>
<use data-text="5" xlink:href="#font_5_6" transform="matrix(5.9277727,0,0,-5.9277727,168.19124,77.869449)" fill="#b30000"/>
<use data-text="2" xlink:href="#font_5_5" transform="matrix(5.9277727,0,0,-5.9277727,153.68466,122.94495)" fill="#0000b3"/>
<use data-text="x" xlink:href="#font_4_6" transform="matrix(5.9277727,0,0,-5.9277727,157.06002,122.94495)" fill="#0000b3"/>
<use data-text="+" xlink:href="#font_5_3" transform="matrix(5.9277727,0,0,-5.9277727,162.44222,122.94495)" fill="#0000b3"/>
<use data-text="y" xlink:href="#font_4_7" transform="matrix(5.9277727,0,0,-5.9277727,169.18273,122.94495)" fill="#0000b3"/>
<use data-text="=" xlink:href="#font_5_7" transform="matrix(5.9277727,0,0,-5.9277727,174.75702,122.94495)" fill="#0000b3"/>
<use data-text="5" xlink:href="#font_5_6" transform="matrix(5.9277727,0,0,-5.9277727,181.8822,122.94495)" fill="#0000b3"/>
</g>
<path transform="matrix(.85,0,0,-.85,3.3273,182.0667)" d="M120.00352 148.43727C120.00352 149.81287 118.88841 150.92797 117.51283 150.92797 116.13725 150.92797 115.02214 149.81287 115.02214 148.43727 115.02214 147.06169 116.13725 145.94658 117.51283 145.94658 118.88841 145.94658 120.00352 147.06169 120.00352 148.43727ZM117.51283 148.43727" fill="#1e8449"/>
<path transform="matrix(.85,0,0,-.85,3.3273,182.0667)" stroke-width=".79701" stroke-linecap="butt" stroke-miterlimit="10" stroke-linejoin="miter" fill="none" stroke="#1e8449" d="M120.00352 148.43727C120.00352 149.81287 118.88841 150.92797 117.51283 150.92797 116.13725 150.92797 115.02214 149.81287 115.02214 148.43727 115.02214 147.06169 116.13725 145.94658 117.51283 145.94658 118.88841 145.94658 120.00352 147.06169 120.00352 148.43727ZM117.51283 148.43727"/>
<path transform="matrix(.85,0,0,-.85,3.3273,182.0667)" d="M150.92797 117.51283C150.92797 118.88841 149.81287 120.00352 148.43727 120.00352 147.06169 120.00352 145.94658 118.88841 145.94658 117.51283 145.94658 116.13725 147.06169 115.02214 148.43727 115.02214 149.81287 115.02214 150.92797 116.13725 150.92797 117.51283ZM148.43727 117.51283" fill="#1e8449"/>
<path transform="matrix(.85,0,0,-.85,3.3273,182.0667)" stroke-width=".79701" stroke-linecap="butt" stroke-miterlimit="10" stroke-linejoin="miter" fill="none" stroke="#1e8449" d="M150.92797 117.51283C150.92797 118.88841 149.81287 120.00352 148.43727 120.00352 147.06169 120.00352 145.94658 118.88841 145.94658 117.51283 145.94658 116.13725 147.06169 115.02214 148.43727 115.02214 149.81287 115.02214 150.92797 116.13725 150.92797 117.51283ZM148.43727 117.51283"/>
<path transform="matrix(.85,0,0,-.85,3.3273,182.0667)" d="M140.61962 138.12892C140.61962 139.5045 139.5045 140.61962 138.12892 140.61962 136.75334 140.61962 135.63823 139.5045 135.63823 138.12892 135.63823 136.75334 136.75334 135.63823 138.12892 135.63823 139.5045 135.63823 140.61962 136.75334 140.61962 138.12892ZM138.12892 138.12892" fill="#1e8449"/>
<path transform="matrix(.85,0,0,-.85,3.3273,182.0667)" stroke-width=".79701" stroke-linecap="butt" stroke-miterlimit="10" stroke-linejoin="miter" fill="none" stroke="#1e8449" d="M140.61962 138.12892C140.61962 139.5045 139.5045 140.61962 138.12892 140.61962 136.75334 140.61962 135.63823 139.5045 135.63823 138.12892 135.63823 136.75334 136.75334 135.63823 138.12892 135.63823 139.5045 135.63823 140.61962 136.75334 140.61962 138.12892ZM138.12892 138.12892"/>
<path transform="matrix(.85,0,0,-.85,3.3273,182.0667)" stroke-width=".79701" stroke-linecap="butt" stroke-miterlimit="10" stroke-linejoin="miter" fill="none" stroke="#1e8449" d=""/>
<use data-text="x" xlink:href="#font_6_1" transform="matrix(8.468244,0,0,-8.468244,174.06426,105.30744)"/>
<use data-text="y" xlink:href="#font_6_2" transform="matrix(8.468244,0,0,-8.468244,80.086559,10.136337)"/>
</svg>
