<svg xmlns="http://www.w3.org/2000/svg" xmlns:xlink="http://www.w3.org/1999/xlink" xmlns:inkscape="http://www.inkscape.org/namespaces/inkscape" version="1.1" width="313.515" height="188.358" viewBox="0 0 313.515 188.358">
<defs>
<path id="font_1_1" d="M.33399964 .30233766C.33999635 .32835389 .36299134 .42037965 .43299867 .42037965 .43798829 .42037965 .46199037 .42037965 .48298646 .40734864 .45498658 .402359 .43499757 .37734986 .43499757 .35334779 .43499757 .33735658 .44599916 .31835938 .47299195 .31835938 .49499513 .31835938 .5269928 .3363495 .5269928 .37635804 .5269928 .42837525 .46798707 .4423828 .43399049 .4423828 .37599183 .4423828 .34098817 .38935853 .32899476 .36634828 .3039856 .43237306 .25 .4423828 .22099304 .4423828 .116989139 .4423828 .05999756 .3133545 .05999756 .28834535 .05999756 .27833558 .069992069 .27833558 .07199097 .27833558 .07998657 .27833558 .08299255 .28033448 .084991458 .28933717 .11898804 .39535523 .18499756 .42037965 .21899414 .42037965 .23799134 .42037965 .272995 .4113617 .272995 .35334779 .272995 .32235719 .2559967 .25532533 .21899414 .11528015 .20298767 .053268434 .16799927 .011245728 .12399292 .011245728 .117996219 .011245728 .09498596 .011245728 .07398987 .024276734 .09899902 .029266358 .12098694 .05027771 .12098694 .07827759 .12098694 .105270389 .09899902 .11328125 .083999637 .11328125 .053985597 .11328125 .0289917 .08728027 .0289917 .055267335 .0289917 .009246826 .07899475-.0107421879 .12298584-.0107421879 .18899536-.0107421879 .22499085 .059280397 .22799683 .0652771 .23999024 .028274537 .27598573-.0107421879 .33599855-.0107421879 .43899537-.0107421879 .49598695 .118270877 .49598695 .14328003 .49598695 .1532898 .4869995 .1532898 .48399354 .1532898 .47499085 .1532898 .47299195 .14929199 .47099305 .14228821 .43798829 .03527832 .36999513 .011245728 .33799745 .011245728 .29899598 .011245728 .2829895 .043273927 .2829895 .07727051 .2829895 .09927368 .2889862 .121276859 .2999878 .16529846L.33399964 .30233766Z"/>
<path id="font_1_2" d="M.48599244 .38136292C.48999024 .39537049 .48999024 .39736939 .48999024 .40437318 .48999024 .42237855 .47599793 .43138124 .46099855 .43138124 .45098878 .43138124 .43499757 .42536927 .42599488 .41036988 .42399598 .405365 .41600038 .37435914 .4119873 .35635377 .40499879 .33035279 .397995 .30334474 .3919983 .27633668L.34700013 .09628296C.34298707 .08126831 .2999878 .011245728 .23399353 .011245728 .18299866 .011245728 .17199707 .055267335 .17199707 .0922699 .17199707 .1382904 .18899536 .20030213 .22299195 .28833009 .23899842 .3293457 .24299622 .3403473 .24299622 .36035157 .24299622 .405365 .21099854 .4423828 .16099549 .4423828 .06599426 .4423828 .0289917 .29733277 .0289917 .28833009 .0289917 .27833558 .038986207 .27833558 .040985109 .27833558 .050994874 .27833558 .051986696 .28033448 .056991579 .29634095 .083999637 .3903656 .12399292 .42037965 .1579895 .42037965 .1659851 .42037965 .18299866 .42037965 .18299866 .3883667 .18299866 .36335755 .17298889 .3373413 .1659851 .31834413 .12599182 .21231079 .10798645 .1552887 .10798645 .10827637 .10798645 .019256592 .17098999-.0107421879 .22999573-.0107421879 .2689972-.0107421879 .30299378 .0062561037 .33099366 .03425598 .31799317-.017745972 .30599977-.06674194 .2659912-.11973572 .23999024-.15385437 .20199585-.18309021 .1559906-.18309021 .14199829-.18309021 .09700012-.18005371 .07998657-.14074707 .09599304-.14074707 .10899353-.14074707 .12298584-.1287384 .1329956-.11973572 .14299011-.10673523 .14299011-.08773804 .14299011-.056747438 .115997318-.052734376 .10598755-.052734376 .08299255-.052734376 .049987794-.068740848 .049987794-.11773682 .049987794-.16796875 .09399414-.20507813 .1559906-.20507813 .25898744-.20507813 .3619995-.11373901 .3899994-.00074768069L.48599244 .38136292Z"/>
<path id="font_2_1" d="M.74398806 .2263794C.7599945 .2263794 .7839966 .2263794 .7839966 .25038148 .7839966 .27539063 .7609863 .27539063 .74398806 .27539063H.147995C.13198853 .27539063 .10798645 .27539063 .10798645 .25138856 .10798645 .2263794 .1309967 .2263794 .147995 .2263794H.74398806Z"/>
<path id="font_3_3" d="M.5049896 .18203736H.47099305C.46798707 .16001892 .45799256 .100997928 .44499208 .09098816 .43699647 .084991458 .3600006 .084991458 .34599305 .084991458H.1619873C.2669983 .17803955 .3019867 .20603943 .3619995 .25306703 .43598939 .312088 .5049896 .374115 .5049896 .46914674 .5049896 .5900879 .39898683 .6640625 .2709961 .6640625 .14698792 .6640625 .06298828 .57710269 .06298828 .4851532 .06298828 .43414308 .10598755 .42915345 .115997318 .42915345 .13999939 .42915345 .16899109 .44615174 .16899109 .48214723 .16899109 .5001526 .1619873 .53515627 .10998535 .53515627 .14099121 .6060791 .20899964 .62805178 .2559967 .62805178 .35598756 .62805178 .4079895 .5501404 .4079895 .46914674 .4079895 .38212586 .34599305 .3130951 .31399537 .27708436L.07299805 .038986207C.06298828 .02999878 .06298828 .027999878 .06298828 0H.47499085L.5049896 .18203736Z"/>
<path id="font_3_2" d="M.33499146 .63612368C.33499146 .6630554 .33299256 .6640625 .30499269 .6640625 .24099732 .6014404 .1499939 .6004486 .10899353 .6004486V.5644531C.1329956 .5644531 .19898987 .5644531 .2539978 .592453V.08203125C.2539978 .04899597 .2539978 .035995485 .1539917 .035995485H.115997318V0C.13398743 .0009918213 .25698854 .0039978029 .2939911 .0039978029 .32499696 .0039978029 .45098878 .0009918213 .47299195 0V.035995485H.43499757C.33499146 .035995485 .33499146 .04899597 .33499146 .08203125V.63612368Z"/>
<path id="font_3_1" d="M.5159912 .31925965C.5159912 .42918397 .5029907 .50813296 .45700074 .5780945 .42599488 .62405398 .3639984 .6640625 .28399659 .6640625 .051986696 .6640625 .051986696 .39120484 .051986696 .31925965 .051986696 .2472992 .051986696-.01953125 .28399659-.01953125 .5159912-.01953125 .5159912 .2472992 .5159912 .31925965M.28399659 .008468628C.23799134 .008468628 .1769867 .035446168 .15699768 .117385867 .14299011 .17634583 .14299011 .25830079 .14299011 .33224488 .14299011 .40519715 .14299011 .4811554 .1579895 .53611758 .1789856 .6150665 .24299622 .63604739 .28399659 .63604739 .33799745 .63604739 .3899994 .6030731 .4079895 .545105 .42399598 .4911499 .4249878 .41918946 .4249878 .33224488 .4249878 .25830079 .4249878 .18434143 .4119873 .12138367 .3919983 .030441285 .32398988 .008468628 .28399659 .008468628Z"/>
<path id="font_4_1" d="M.22698975 .056991579C.22698975 .09298706 .19699097 .114990238 .16999817 .114990238 .13699341 .114990238 .11199951 .08799744 .11199951 .057998659 .11199951 .021987915 .14199829 0 .16899109 0 .20199585 0 .22698975 .026992798 .22698975 .056991579Z"/>
<path id="font_3_5" d="M.15499878 .5588074C.20599365 .5458069 .23599243 .5458069 .2519989 .5458069 .38398744 .5458069 .46199037 .6358032 .46199037 .6508026 .46199037 .6618042 .45498658 .6648102 .44999696 .6648102 .44799806 .6648102 .44599916 .6648102 .44198609 .6618042 .41799928 .6528015 .36499024 .6328125 .29100038 .6328125 .2630005 .6328125 .20999146 .6348114 .14498902 .6598053 .1349945 .6648102 .1329956 .6648102 .13198853 .6648102 .11898804 .6648102 .11898804 .6538086 .11898804 .6378021V.34251405C.11898804 .32548524 .11898804 .3134613 .1349945 .3134613 .14399719 .3134613 .14498902 .3154602 .15499878 .32748414 .19799805 .38259889 .25898744 .390625 .2939911 .390625 .35398866 .390625 .3809967 .34251405 .38598634 .33450318 .4039917 .30143739 .4099884 .26335145 .4099884 .20524597 .4099884 .17524719 .4099884 .116256717 .37998963 .07234192 .35499574 .03640747 .31199647 .012466431 .2630005 .012466431 .19799805 .012466431 .1309967 .04838562 .10598755 .11425781 .14399719 .11125183 .16299439 .13624573 .16299439 .16325379 .16299439 .20625305 .12599182 .21424866 .11299133 .21424866 .11099243 .21424866 .06298828 .21424866 .06298828 .1602478 .06298828 .07034302 .14498902-.01953125 .2649994-.01953125 .3929901-.01953125 .5049896 .07533264 .5049896 .20124817 .5049896 .31445313 .4189911 .41862489 .29499818 .41862489 .25099183 .41862489 .19898987 .4076233 .15499878 .36956788V.5588074Z"/>
<path id="font_5_1" d="M.55400088 .6796112H.032989503V.64860537H.056991579C.13398743 .64860537 .13598633 .637619 .13598633 .6016388V.07795715C.13598633 .041992189 .13398743 .0309906 .056991579 .0309906H.032989503V0C.067993167 .0029907227 .1459961 .0029907227 .18499756 .0029907227 .22599793 .0029907227 .31698609 .0029907227 .35299684 0V.0309906H.31999208C.22499085 .0309906 .22499085 .04399109 .22499085 .07896423V.6086273C.22499085 .6416168 .22698975 .64860537 .27398683 .64860537H.3769989C.519989 .64860537 .54100039 .5896454 .5569916 .45472718H.58200076L.55400088 .6796112Z"/>
<path id="font_3_4" d="M.272995 .33428956C.35099793 .33428956 .40699769 .2803192 .40699769 .1733551 .40699769 .04940796 .33499146 .012466431 .2769928 .012466431 .23699951 .012466431 .14898682 .0234375 .10699463 .082351688 .1539917 .084350589 .16499329 .11735535 .16499329 .13835144 .16499329 .17034912 .14099121 .19335938 .10998535 .19335938 .08198547 .19335938 .053985597 .17634583 .053985597 .13534546 .053985597 .041412355 .1579895-.01953125 .2789917-.01953125 .41799928-.01953125 .5139923 .07336426 .5139923 .1733551 .5139923 .2513275 .44999696 .32929994 .33999635 .35229493 .44499208 .39024354 .48298646 .4650879 .48298646 .5260773 .48298646 .60505679 .3919983 .6640625 .2809906 .6640625 .16999817 .6640625 .084991458 .61006167 .084991458 .5300751 .084991458 .49606324 .10699463 .47706605 .13699341 .47706605 .16799927 .47706605 .18798828 .5000763 .18798828 .5280762 .18798828 .5570679 .16799927 .57806399 .13699341 .5800781 .17199707 .62405398 .24099732 .63505557 .27799989 .63505557 .32299806 .63505557 .38598634 .6130676 .38598634 .5260773 .38598634 .48406983 .37199403 .43814088 .34599305 .4072113 .31298829 .36927796 .2849884 .3672943 .23498535 .36428834 .20999146 .3623047 .20799256 .3623047 .20298767 .3612976 .20098877 .3612976 .19299317 .3592987 .19299317 .34829713 .19299317 .33428956 .20199585 .33428956 .21899414 .33428956H.272995Z"/>
</defs>
<path transform="matrix(1,0,0,-1,150.59,134.147)" stroke-width=".3985" stroke-linecap="butt" stroke-miterlimit="10" stroke-linejoin="miter" fill="none" stroke="#7f807f" d="M-147.40373 0H145.41121"/>
<path transform="matrix(1,0,0,-1,296.00123,134.147)" d="M1.99252 0-1.19551 1.59401 0 0-1.19551-1.59401" fill="#7f807f"/>
<use data-text="x" xlink:href="#font_1_1" transform="matrix(9.96264,0,0,-9.96264,301.511,141.956)" fill="#7f807f"/>
<path transform="matrix(1,0,0,-1,150.59,134.147)" stroke-width=".3985" stroke-linecap="butt" stroke-miterlimit="10" stroke-linejoin="miter" fill="none" stroke="#7f807f" d="M0-51.02388V122.73326"/>
<path transform="matrix(0,-1,-1,-0,150.59,11.413742)" d="M1.99252 0-1.19551 1.59401 0 0-1.19551-1.59401" fill="#7f807f"/>
<use data-text="y" xlink:href="#font_1_2" transform="matrix(9.96264,0,0,-9.96264,141.828,10.598999)" fill="#7f807f"/>
<path transform="matrix(1,0,0,-1,150.59,134.147)" stroke-width=".3985" stroke-linecap="butt" stroke-miterlimit="10" stroke-linejoin="miter" fill="none" stroke="#7f807f" d="M-113.38724 2.26733V-2.26733"/>
<use data-text="&#x2212;" xlink:href="#font_2_1" transform="matrix(6.97385,0,0,-6.97385,32.104997,144.42801)" fill="#7f807f"/>
<use data-text="2" xlink:href="#font_3_3" transform="matrix(6.97385,0,0,-6.97385,38.331998,144.42801)" fill="#7f807f"/>
<path transform="matrix(1,0,0,-1,150.59,134.147)" stroke-width=".3985" stroke-linecap="butt" stroke-miterlimit="10" stroke-linejoin="miter" fill="none" stroke="#7f807f" d="M-56.69362 2.26733V-2.26733"/>
<use data-text="&#x2212;" xlink:href="#font_2_1" transform="matrix(6.97385,0,0,-6.97385,88.798,144.42801)" fill="#7f807f"/>
<use data-text="1" xlink:href="#font_3_2" transform="matrix(6.97385,0,0,-6.97385,95.025,144.42801)" fill="#7f807f"/>
<path transform="matrix(1,0,0,-1,150.59,134.147)" stroke-width=".3985" stroke-linecap="butt" stroke-miterlimit="10" stroke-linejoin="miter" fill="none" stroke="#7f807f" d="M56.69362 2.26733V-2.26733"/>
<use data-text="1" xlink:href="#font_3_2" transform="matrix(6.97385,0,0,-6.97385,205.297,144.42801)" fill="#7f807f"/>
<path transform="matrix(1,0,0,-1,150.59,134.147)" stroke-width=".3985" stroke-linecap="butt" stroke-miterlimit="10" stroke-linejoin="miter" fill="none" stroke="#7f807f" d="M113.38724 2.26733V-2.26733"/>
<use data-text="2" xlink:href="#font_3_3" transform="matrix(6.97385,0,0,-6.97385,261.99,144.42801)" fill="#7f807f"/>
<path transform="matrix(1,0,0,-1,150.59,134.147)" stroke-width=".3985" stroke-linecap="butt" stroke-miterlimit="10" stroke-linejoin="miter" fill="none" stroke="#7f807f" d="M2.26733 28.34679H-2.26733"/>
<use data-text="0" xlink:href="#font_3_1" transform="matrix(6.97385,0,0,-6.97385,134.49399,108.047008)" fill="#7f807f"/>
<use data-text="." xlink:href="#font_4_1" transform="matrix(6.97385,0,0,-6.97385,138.46498,108.047008)" fill="#7f807f"/>
<use data-text="5" xlink:href="#font_3_5" transform="matrix(6.97385,0,0,-6.97385,140.83199,108.047008)" fill="#7f807f"/>
<path transform="matrix(1,0,0,-1,150.59,134.147)" stroke-width=".3985" stroke-linecap="butt" stroke-miterlimit="10" stroke-linejoin="miter" fill="none" stroke="#7f807f" d="M2.26733 56.69362H-2.26733"/>
<use data-text="1" xlink:href="#font_3_2" transform="matrix(6.97385,0,0,-6.97385,140.832,79.701007)" fill="#7f807f"/>
<path transform="matrix(1,0,0,-1,150.59,134.147)" stroke-width=".3985" stroke-linecap="butt" stroke-miterlimit="10" stroke-linejoin="miter" fill="none" stroke="#7f807f" d="M2.26733 85.0404H-2.26733"/>
<use data-text="1" xlink:href="#font_3_2" transform="matrix(6.97385,0,0,-6.97385,134.49399,51.354997)" fill="#7f807f"/>
<use data-text="." xlink:href="#font_4_1" transform="matrix(6.97385,0,0,-6.97385,138.46498,51.354997)" fill="#7f807f"/>
<use data-text="5" xlink:href="#font_3_5" transform="matrix(6.97385,0,0,-6.97385,140.83199,51.354997)" fill="#7f807f"/>
<path transform="matrix(1,0,0,-1,150.59,134.147)" stroke-width=".3985" stroke-linecap="butt" stroke-miterlimit="10" stroke-linejoin="miter" fill="none" stroke="#7f807f" d="M2.26733 113.38724H-2.26733"/>
<use data-text="2" xlink:href="#font_3_3" transform="matrix(6.97385,0,0,-6.97385,140.832,23.007996)" fill="#7f807f"/>
<path transform="matrix(1,0,0,-1,150.59,134.147)" stroke-width=".79701" stroke-linecap="butt" stroke-miterlimit="10" stroke-linejoin="miter" fill="none" stroke="#ff0000" d="M-113.38724 0C-113.38724 0-111.99905 .00659-111.46588 .01556-110.93272 .02452-110.07767 .04672-109.54454 .06485-109.0114 .08296-108.15636 .11905-107.62321 .14618-107.09009 .1733-106.235 .22426-105.70187 .26038-105.16873 .2965-104.31369 .36143-103.78055 .40656-103.24742 .45168-102.39233 .53151-101.8592 .58563-101.32608 .63976-100.47102 .73346-99.9379 .79669-99.40475 .85994-98.54968 .96918-98.01654 1.04153-97.48341 1.1139-96.62836 1.2371-96.09523 1.31834-95.56209 1.39958-94.70702 1.53694-94.17387 1.62718-93.64075 1.71742-92.78569 1.86954-92.25256 1.96889-91.71942 2.06825-90.86438 2.23499-90.3312 2.34348-89.79805 2.45195-88.943 2.63356-88.40987 2.75092-87.87672 2.86827-87.02168 3.06313-86.48854 3.18951-85.95541 3.3159-85.10033 3.52625-84.5672 3.66185-84.03407 3.79744-83.17902 4.0224-82.64589 4.16704-82.11275 4.31168-81.25768 4.55077-80.72453 4.70427-80.1914 4.85779-79.33635 5.11096-78.80322 5.27347-78.27008 5.43597-77.41501 5.70396-76.88187 5.87558-76.34874 6.04721-75.49368 6.32979-74.96056 6.51054-74.42741 6.6913-73.57234 6.98862-73.0392 7.17836-72.50607 7.36812-71.65102 7.67961-71.11789 7.87823-70.58475 8.07686-69.7297 8.40234-69.19653 8.61009-68.66338 8.81784-67.80832 9.15878-67.27519 9.37566-66.74207 9.59253-65.88701 9.9474-65.35388 10.17328-64.82074 10.39915-63.96567 10.76886-63.43253 11.00374-62.8994 11.2386-62.04434 11.62236-61.51122 11.86623-60.97807 12.1101-60.123 12.50858-59.58986 12.76157-59.05673 13.01456-58.20168 13.42778-57.66855 13.6898-57.1354 13.95183-56.28033 14.37915-55.7472 14.65005-55.21407 14.92094-54.35901 15.36226-53.82588 15.64229-53.29274 15.9223-52.43767 16.37912-51.90453 16.66826-51.3714 16.9574-50.51634 17.42812-49.98322 17.72626-49.45009 18.0244-48.59503 18.50998-48.06187 18.81712-47.5287 19.12427-46.67366 19.6237-46.14052 19.93997-45.60739 20.25624-44.75233 20.77133-44.21921 21.0966-43.68607 21.42186-42.831 21.9502-42.29785 22.28433-41.76472 22.61847-40.90967 23.1617-40.37654 23.50496-39.8434 23.84822-38.98833 24.40607-38.45518 24.75845-37.92206 25.11084-37.067 25.68343-36.53387 26.04482-36.00073 26.40619-35.14566 26.99294-34.61252 27.36319-34.07939 27.73344-33.22433 28.3342-32.69121 28.71358-32.15808 29.09296-31.303 29.70906-30.76987 30.09769-30.23672 30.48631-29.38168 31.11717-28.84854 31.5147-28.31541 31.91223-27.46033 32.55643-26.9272 32.96284-26.39406 33.36925-25.53902 34.02832-25.00587 34.44385-24.47275 34.85938-23.61769 35.53294-23.08453 35.95772-22.55136 36.38249-21.69632 37.07169-21.16318 37.50534-20.63005 37.939-19.775 38.64072-19.24187 39.08325-18.70874 39.52577-17.85365 40.24321-17.32051 40.69487-16.78738 41.14651-15.93233 41.87776-15.3992 42.33853-14.86607 42.7993-14.01099 43.54604-13.47786 44.01591-12.94472 44.48581-12.08968 45.24652-11.55653 45.7253-11.0234 46.20407-10.16832 46.97906-9.6352 47.4667-9.10205 47.95436-8.24701 48.7431-7.71387 49.24011-7.18074 49.73712-6.32565 50.54295-5.79253 51.04897-5.25938 51.55498-4.40434 52.37248-3.8712 52.88725-3.33807 53.40202-2.48302 54.23537-1.94986 54.75928-1.4167 55.2832-.02852 56.66333-.02852 56.66333"/>
<path transform="matrix(1,0,0,-1,150.59,134.147)" stroke-width=".79701" stroke-linecap="butt" stroke-miterlimit="10" stroke-linejoin="miter" fill="none" stroke="#ff0000" d="M0 56.69362C0 56.69362 .69376 56.69035 .9602 56.68579 1.22667 56.68124 1.65399 56.6698 1.92046 56.66072 2.18692 56.65163 2.61421 56.63362 2.88068 56.62007 3.14714 56.6065 3.57446 56.58109 3.84093 56.56297 4.10739 56.54485 4.53468 56.51201 4.80115 56.48946 5.0676 56.46689 5.49493 56.42746 5.76138 56.40033 6.02785 56.37321 6.45515 56.32585 6.7216 56.29391 6.98807 56.262 7.41539 56.2066 7.68185 56.17024 7.94832 56.13388 8.37561 56.07286 8.64207 56.03181 8.90854 55.99077 9.33586 55.92032 9.60233 55.87437 9.86879 55.82843 10.29608 55.75102 10.56255 55.7005 10.829 55.64996 11.25633 55.56548 11.52278 55.51016 11.78925 55.45486 12.21658 55.3618 12.48303 55.30168 12.7495 55.24158 13.17679 55.14168 13.44325 55.07677 13.70972 55.01184 14.13704 54.90364 14.4035 54.83368 14.66997 54.76372 15.09726 54.64743 15.36372 54.57242 15.63017 54.4974 16.05751 54.37318 16.32397 54.293 16.59042 54.21283 17.01773 54.07988 17.28418 53.99457 17.55064 53.90924 17.97797 53.76854 18.24443 53.67793 18.5109 53.58733 18.93819 53.43732 19.20465 53.34143 19.47112 53.24553 19.89844 53.08813 20.1649 52.98672 20.43137 52.88533 20.85866 52.7175 21.12512 52.61046 21.39157 52.5034 21.81891 52.32782 22.08537 52.2151 22.35182 52.1024 22.77916 51.91669 23.04561 51.79813 23.31207 51.67955 23.73936 51.48495 24.00583 51.3604 24.2723 51.23582 24.69962 51.03087 24.96608 50.90016 25.23254 50.76945 25.65984 50.55539 25.9263 50.41832 26.19276 50.28127 26.62009 50.05591 26.88655 49.91225 27.153 49.7686 27.5803 49.53308 27.84676 49.38283 28.11322 49.23257 28.54056 48.98642 28.807 48.82921 29.07347 48.67198 29.50076 48.414 29.76723 48.24959 30.03369 48.08516 30.46101 47.8159 30.72748 47.64403 30.99394 47.47215 31.42123 47.19046 31.6877 47.0108 31.95416 46.83115 32.38148 46.53674 32.64795 46.34903 32.9144 46.16132 33.34174 45.85393 33.60818 45.65782 33.87465 45.46172 34.30196 45.14047 34.5684 44.93549 34.83487 44.7305 35.26219 44.39464 35.52866 44.18028 35.79512 43.96594 36.22241 43.61478 36.48888 43.39046 36.75534 43.16614 37.18266 42.79794 37.44913 42.56343 37.71559 42.32893 38.14288 41.94557 38.40935 41.70012 38.6758 41.45467 39.10313 41.05171 39.36958 40.79437 39.63605 40.53703 40.06335 40.11519 40.3298 39.84538 40.59627 39.57558 41.02359 39.13304 41.29005 38.84969 41.55652 38.56631 41.98381 38.10095 42.25027 37.80293 42.51674 37.50491 42.94406 37.01569 43.21053 36.7017 43.47697 36.38773 43.90431 35.87128 44.17078 35.5399 44.43723 35.20854 44.86453 34.66406 45.13098 34.31323 45.39745 33.9624 45.82477 33.3838 46.09123 33.01128 46.3577 32.63873 46.78499 32.02493 47.05145 31.628 47.31792 31.2311 47.74524 30.57549 48.0117 30.15047 48.27817 29.72545 48.70546 29.02267 48.97192 28.56479 49.23837 28.1069 49.66571 27.34735 49.93217 26.85022 50.19862 26.35307 50.62593 25.52643 50.89238 24.98164 51.15884 24.43687 51.58617 23.52953 51.85263 22.92363 52.1191 22.31775 52.54639 21.30307 52.81285 20.61473 53.07932 19.92638 53.50664 18.77197 53.7731 17.9624 54.03957 17.15285 54.46689 15.80112 54.73335 14.77982 54.9998 13.75851 55.42711 12.35783 55.69356 10.60149 55.96002 8.84514 56.65381 2.12115 56.65381 2.12115"/>
<path transform="matrix(1,0,0,-1,150.59,134.147)" stroke-width=".79701" stroke-linecap="butt" stroke-miterlimit="10" stroke-linejoin="miter" fill="none" stroke="#ff0000" d="M56.69362 0C56.69362 0 57.38737 8.41133 57.65382 10.47604 57.92029 12.54074 58.34761 13.7954 58.61407 14.88103 58.88054 15.96666 59.30783 17.42134 59.5743 18.30064 59.84076 19.17996 60.26808 20.45267 60.53455 21.21855 60.80101 21.98442 61.2283 23.12971 61.49477 23.82071 61.76122 24.51169 62.18855 25.56172 62.45502 26.1988 62.72147 26.83589 63.14877 27.81636 63.41522 28.41252 63.68169 29.00868 64.10901 29.93214 64.37547 30.49565 64.64194 31.05916 65.06923 31.9372 65.3357 32.47406 65.60216 33.01094 66.02948 33.85057 66.29594 34.36513 66.56241 34.87968 66.9897 35.68694 67.25616 36.18265 67.52261 36.67836 67.94995 37.45839 68.2164 37.9379 68.48286 38.4174 68.9102 39.17342 69.17665 39.63864 69.44312 40.10385 69.8704 40.83807 70.13687 41.29091 70.40334 41.74374 70.83066 42.46075 71.09712 42.90256 71.36359 43.34436 71.79088 44.04341 72.05734 44.47527 72.3238 44.90712 72.75113 45.59215 73.0176 46.0151 73.28404 46.43805 73.71135 47.10898 73.9778 47.52377 74.24426 47.93858 74.6716 48.59721 74.93805 49.00482 75.20451 49.41241 75.6318 50.06071 75.89827 50.4616 76.16473 50.86247 76.59206 51.49953 76.85852 51.89417 77.12498 52.2888 77.55228 52.91687 77.81874 53.30597 78.0852 53.69508 78.51253 54.3149 78.77899 54.69872 79.04544 55.08253 79.47278 55.69353 79.73923 56.07246 80.00569 56.45139 80.433 57.0553 80.69945 57.42978 80.96591 57.80428 81.39323 58.40125 81.6597 58.77151 81.92616 59.14177 82.35345 59.73209 82.61992 60.09853 82.88638 60.46495 83.3137 61.04987 83.58017 61.41258 83.84662 61.7753 84.27393 62.3537 84.54039 62.7128 84.80684 63.0719 85.23418 63.64502 85.50063 64.0009 85.76709 64.35678 86.19438 64.92476 86.46085 65.27774 86.72731 65.63074 87.15463 66.19498 87.4211 66.54507 87.68756 66.89517 88.11485 67.45384 88.38132 67.80118 88.64778 68.14851 89.0751 68.70381 89.34157 69.04863 89.60802 69.39343 90.03535 69.94423 90.30182 70.28651 90.56827 70.62881 90.99557 71.17578 91.26202 71.51581 91.52849 71.85585 91.95581 72.39944 92.22227 72.73729 92.48874 73.07515 92.91603 73.61517 93.1825 73.95099 93.44896 74.2868 93.87628 74.824 94.14275 75.15778 94.40921 75.49156 94.8365 76.0249 95.10297 76.35677 95.36942 76.68863 95.79675 77.21965 96.0632 77.54973 96.32967 77.87979 96.75697 78.40746 97.02342 78.73572 97.28989 79.064 97.71721 79.589 97.98367 79.9157 98.25014 80.24239 98.67743 80.76534 98.9439 81.09047 99.21036 81.41562 99.63768 81.9356 99.90414 82.25917 100.17061 82.58276 100.59793 83.10057 100.8644 83.4227 101.13084 83.74483 101.55815 84.26024 101.8246 84.58107 102.09106 84.90189 102.5184 85.41559 102.78485 85.73508 103.05132 86.05457 103.4786 86.56572 103.74507 86.8839 104.01154 87.20207 104.43886 87.71143 104.70532 88.02838 104.97179 88.34535 105.39908 88.85287 105.66554 89.16853 105.93199 89.48419 106.35933 89.98892 106.6258 90.30351 106.89224 90.6181 107.31955 91.1223 107.586 91.43591 107.85246 91.74953 108.27979 92.25156 108.54625 92.56398 108.81271 92.87642 109.24 93.37627 109.50647 93.68771 109.77293 93.99918 110.20026 94.49835 110.46672 94.80884 110.73318 95.11932 111.1605 95.61612 111.42697 95.92566 111.69342 96.2352 112.12073 96.73119 112.38719 97.03987 112.65364 97.34857 113.34743 98.15062 113.34743 98.15062"/>
<path transform="matrix(1,0,0,-1,150.59,134.147)" d="M-111.39468 0C-111.39468 1.10046-112.28676 1.99255-113.38724 1.99255-114.4877 1.99255-115.37979 1.10046-115.37979 0-115.37979-1.10046-114.4877-1.99255-113.38724-1.99255-112.28676-1.99255-111.39468-1.10046-111.39468 0ZM-113.38724 0"/>
<path transform="matrix(1,0,0,-1,150.59,134.147)" d="M1.99255 56.69362C1.99255 57.79408 1.10046 58.68617 0 58.68617-1.10046 58.68617-1.99255 57.79408-1.99255 56.69362-1.99255 55.59314-1.10046 54.70107 0 54.70107 1.10046 54.70107 1.99255 55.59314 1.99255 56.69362ZM0 56.69362"/>
<path transform="matrix(1,0,0,-1,150.59,134.147)" d="M58.68617 0C58.68617 1.10046 57.79408 1.99255 56.69362 1.99255 55.59314 1.99255 54.70107 1.10046 54.70107 0 54.70107-1.10046 55.59314-1.99255 56.69362-1.99255 57.79408-1.99255 58.68617-1.10046 58.68617 0ZM56.69362 0"/>
<path transform="matrix(1,0,0,-1,150.59,134.147)" d="M115.37979 98.19304C115.37979 99.2935 114.4877 100.1856 113.38724 100.1856 112.28676 100.1856 111.39468 99.2935 111.39468 98.19304 111.39468 97.09256 112.28676 96.20049 113.38724 96.20049 114.4877 96.20049 115.37979 97.09256 115.37979 98.19304ZM113.38724 98.19304"/>
<use data-text="&#x0393;" xlink:href="#font_5_1" transform="matrix(9.96264,0,0,-9.96264,57.367998,105.622)" fill="#ff0000"/>
<use data-text="1" xlink:href="#font_3_2" transform="matrix(6.97385,0,0,-6.97385,63.593999,107.117008)" fill="#ff0000"/>
<use data-text="&#x0393;" xlink:href="#font_5_1" transform="matrix(9.96264,0,0,-9.96264,180.39099,92.583)" fill="#ff0000"/>
<use data-text="2" xlink:href="#font_3_3" transform="matrix(6.97385,0,0,-6.97385,186.61798,94.077)" fill="#ff0000"/>
<use data-text="&#x0393;" xlink:href="#font_5_1" transform="matrix(9.96264,0,0,-9.96264,250.124,54.599)" fill="#ff0000"/>
<use data-text="3" xlink:href="#font_3_4" transform="matrix(6.97385,0,0,-6.97385,256.351,56.093004)" fill="#ff0000"/>
</svg>
