<svg xmlns="http://www.w3.org/2000/svg" xmlns:xlink="http://www.w3.org/1999/xlink" xmlns:inkscape="http://www.inkscape.org/namespaces/inkscape" version="1.1" width="149.556" height="89.178" viewBox="0 0 149.556 89.178">
<defs>
<clipPath id="clip_1">
<path transform="matrix(1,0,0,-1,3.188,78.338)" d="M0 0H143.18128V75.1502H0Z"/>
</clipPath>
<path id="font_2_1" d="M.6589966 .23046875C.6759949 .23046875 .69400027 .23046875 .69400027 .25045777 .69400027 .27046205 .6759949 .27046205 .6589966 .27046205H.117996219C.100997928 .27046205 .08299255 .27046205 .08299255 .25045777 .08299255 .23046875 .100997928 .23046875 .117996219 .23046875H.6589966Z"/>
<path id="font_3_2" d="M.1269989 .07699585 .23298645 .18003845C.3889923 .31811524 .44898988 .3721466 .44898988 .47216798 .44898988 .5860901 .35899354 .6660156 .23699951 .6660156 .12399292 .6660156 .049987794 .57411196 .049987794 .48516847 .049987794 .4291687 .099990848 .4291687 .102996829 .4291687 .11999512 .4291687 .15499878 .44117738 .15499878 .48217774 .15499878 .5081787 .13699341 .5341797 .101989749 .5341797 .09399414 .5341797 .09199524 .5341797 .08898926 .5331726 .11199951 .59806826 .1659851 .63500979 .22399903 .63500979 .31498719 .63500979 .35798646 .5541382 .35798646 .47216798 .35798646 .39215089 .30799867 .31311036 .25299073 .25108338L.06098938 .036987306C.049987794 .025985718 .049987794 .023986817 .049987794 0H.42099L.44898988 .17404175H.42399598C.4189911 .14402771 .4119873 .1000061 .4019928 .084991458 .394989 .07699585 .32899476 .07699585 .30699159 .07699585H.1269989Z"/>
<path id="font_3_1" d="M.2939911 .64004519C.2939911 .66400149 .2939911 .6660156 .2709961 .6660156 .20899964 .60227969 .12098694 .60227969 .08898926 .60227969V.57128909C.10899353 .57128909 .16799927 .57128909 .21998596 .5972748V.07902527C.21998596 .042999269 .21699524 .0309906 .1269989 .0309906H.09498596V0C.12998963 .0029907227 .21699524 .0029907227 .25698854 .0029907227 .29699708 .0029907227 .38398744 .0029907227 .4189911 0V.0309906H.3869934C.29699708 .0309906 .2939911 .041992189 .2939911 .07902527V.64004519Z"/>
<path id="font_3_3" d="M.2899933 .35191346C.37199403 .37893678 .42999269 .4490509 .42999269 .52809146 .42999269 .6100464 .34199525 .6660156 .24598694 .6660156 .14498902 .6660156 .068984989 .60606387 .068984989 .53009036 .068984989 .49710084 .09098816 .47808839 .11999512 .47808839 .15098572 .47808839 .17098999 .50009158 .17098999 .5290985 .17098999 .57910159 .12399292 .57910159 .10899353 .57910159 .13999939 .62802127 .20599365 .64100649 .24198914 .64100649 .2829895 .64100649 .33799745 .6190338 .33799745 .5290985 .33799745 .51708987 .33599855 .45906068 .30999757 .4149933 .27999879 .36691285 .24598694 .36390687 .22099304 .36291505 .21299744 .36190797 .18899536 .35990907 .18199158 .35990907 .17399597 .35890199 .16699219 .35791017 .16699219 .3479004 .16699219 .33691407 .17399597 .33691407 .19099427 .33691407H.23498535C.31698609 .33691407 .35398866 .2686615 .35398866 .17037964 .35398866 .034469606 .2849884 .0055389406 .24099732 .0055389406 .19799805 .0055389406 .12298584 .022491456 .08799744 .08137512 .12298584 .07637024 .1539917 .09837341 .1539917 .1363678 .1539917 .17237854 .1269989 .19238281 .09799194 .19238281 .07398987 .19238281 .041992189 .17837525 .041992189 .1343689 .041992189 .043441774 .1349945-.022460938 .24398804-.022460938 .3659973-.022460938 .45700074 .06838989 .45700074 .17037964 .45700074 .252594 .3939972 .33088685 .2899933 .35191346Z"/>
<path id="font_3_4" d="M.2939911 .16503906V.07800293C.2939911 .041992189 .2919922 .0309906 .21798706 .0309906H.19699097V0C.23799134 .0029907227 .2899933 .0029907227 .33198548 .0029907227 .37399293 .0029907227 .4269867 .0029907227 .46798707 0V.0309906H.44699098C.37298585 .0309906 .37098695 .041992189 .37098695 .07800293V.16503906H.47099305V.19602967H.37098695V.65075686C.37098695 .67074587 .37098695 .6767578 .35499574 .6767578 .34599305 .6767578 .34298707 .6767578 .33499146 .66474917L.027999878 .19602967V.16503906H.2939911M.2999878 .19602967H.055999757L.2999878 .5688019V.19602967Z"/>
<path id="font_3_5" d="M.13198853 .327713V.35173036C.13198853 .6047821 .2559967 .64100649 .30699159 .64100649 .33099366 .64100649 .37298585 .634964 .394989 .6007538 .37998963 .6007538 .33999635 .6007538 .33999635 .5557556 .33999635 .524765 .3639984 .5097656 .38598634 .5097656 .4019928 .5097656 .43199159 .51875308 .43199159 .5577545 .43199159 .6178589 .3880005 .6660156 .30499269 .6660156 .1769867 .6660156 .041992189 .5367584 .041992189 .31570436 .041992189 .048553468 .1579895-.022460938 .25099183-.022460938 .3619995-.022460938 .45700074 .07156372 .45700074 .2036438 .45700074 .33070375 .36799623 .4267578 .25698854 .4267578 .18899536 .4267578 .1519928 .37573243 .13198853 .327713M.25099183 .0055389406C.18798828 .0055389406 .1579895 .06556702 .1519928 .080566409 .13398743 .127594 .13398743 .2076416 .13398743 .22564698 .13398743 .30369569 .1659851 .40374757 .2559967 .40374757 .27198792 .40374757 .31799317 .40374757 .34899903 .34172059 .36698915 .30470277 .36698915 .2536621 .36698915 .20463562 .36698915 .15661621 .36698915 .10658264 .34999085 .0705719 .31999208 .010528564 .27398683 .0055389406 .25099183 .0055389406Z"/>
<path id="font_3_6" d="M.16299439 .4569702C.116989139 .486969 .11299133 .52098086 .11299133 .5379791 .11299133 .598999 .17799378 .64100649 .24899292 .64100649 .32199098 .64100649 .38598634 .58898928 .38598634 .51698306 .38598634 .45996095 .34700013 .4119568 .2869873 .37695313L.16299439 .4569702M.30899049 .36193849C.3809967 .3989563 .42999269 .45095826 .42999269 .51698306 .42999269 .6090088 .34098817 .6660156 .25 .6660156 .1499939 .6660156 .068984989 .59199526 .068984989 .49897767 .068984989 .4809723 .070999149 .43595887 .11299133 .38894654 .12399292 .37695313 .16099549 .35194398 .18598938 .33494569 .12799073 .30592347 .041992189 .24984741 .041992189 .15072632 .041992189 .04458618 .14399719-.022460938 .24899292-.022460938 .3619995-.022460938 .45700074 .06060791 .45700074 .16773987 .45700074 .20379639 .44599916 .24885559 .4079895 .2909088 .3889923 .31193543 .37298585 .3219452 .30899049 .36193849M.20899964 .3199463 .33198548 .24183655C.3600006 .2228241 .40699769 .19277954 .40699769 .13169861 .40699769 .05760193 .33198548 .0055389406 .25 .0055389406 .1639862 .0055389406 .09199524 .067611698 .09199524 .15072632 .09199524 .20880127 .12399292 .27288819 .20899964 .3199463Z"/>
<clipPath id="clip_4">
<path transform="matrix(1,0,0,-1,3.188,78.338)" d="M0 0H143.18128V75.1502H0Z"/>
</clipPath>
<path id="font_5_2" d="M.20599365 .11984253C.17098999 .06594849 .13899231 .039978029 .07998657 .035995485 .069992069 .034988405 .056991579 .034988405 .056991579 .01499939 .056991579 .0039978029 .06599426 0 .070999149 0 .09700012 0 .12998963 .0039978029 .15699768 .0039978029 .18899536 .0039978029 .22999573 0 .2599945 0 .2649994 0 .27999879 0 .27999879 .021987915 .27999879 .034988405 .2669983 .035995485 .2630005 .035995485 .25498963 .036987306 .21899414 .038986207 .21899414 .06594849 .21899414 .077926639 .22898865 .09489441 .23399353 .103881839L.31399537 .22766114H.59999087L.6239929 .061950685C.6199951 .051971437 .6139984 .035995485 .5549927 .035995485 .54299929 .035995485 .5289917 .035995485 .5289917 .01399231 .5289917 .009994507 .5319977 0 .54499819 0 .57398989 0 .644989 .0039978029 .673996 .0039978029 .69200137 .0039978029 .71499636 .0029907227 .73298647 .0029907227 .7509918 .0019989014 .7719879 0 .7899933 0 .8029938 0 .80999758 .0079956059 .80999758 .020996094 .80999758 .035995485 .7979889 .035995485 .7819977 .035995485 .723999 .035995485 .7220001 .04397583 .71899417 .06793213L.6309967 .6848755C.6279907 .70588687 .6259918 .7128906 .6069946 .7128906 .58799746 .7128906 .58200076 .70388796 .57299807 .6898804L.20599365 .11984253M.33799745 .26367188 .5479889 .5908356 .59498599 .26367188H.33799745Z"/>
<path id="font_5_3" d="M.18998719 .07797241C.18099976 .04399109 .1789856 .035995485 .101989749 .035995485 .084991458 .035995485 .07199097 .035995485 .07199097 .01499939 .07199097 0 .083999637 0 .101989749 0H.4889984C.6569977 0 .7859955 .11494446 .7859955 .21388245 .7859955 .28485108 .72099307 .34580995 .61499026 .35681153 .73599246 .37879945 .83699038 .4547577 .83699038 .54067996 .83699038 .6166382 .7599945 .6826172 .6299896 .6826172H.2659912C.24699402 .6826172 .23399353 .6826172 .23399353 .660614 .23399353 .64660647 .24598694 .64660647 .2659912 .64660647 .2669983 .64660647 .28599549 .64660647 .3039856 .64460757 .32499696 .64260867 .32699586 .64060977 .32699586 .63061526 .32699586 .62861636 .32699586 .6236267 .32299806 .6086426L.18998719 .07797241M.34999085 .3688202 .41099549 .6126404C.4189911 .6436157 .41999818 .64660647 .46199037 .64660647H.6139984C.71598818 .64660647 .7389984 .57966616 .7389984 .541687 .7389984 .46073915 .647995 .3688202 .5139923 .3688202H.34999085M.3019867 .035995485C.2709961 .035995485 .269989 .036987306 .269989 .04598999 .269989 .04698181 .269989 .051986696 .27398683 .066970828L.34298707 .3408203H.5549927C.6489868 .3408203 .68499758 .27885438 .68499758 .22088623 .68499758 .12194824 .58399966 .035995485 .46299745 .035995485H.3019867Z"/>
<path id="font_5_5" d="M.71499636 .5637207C.7519989 .61764529 .7839966 .64260867 .83799746 .64660647 .84999087 .6476135 .86099246 .64860537 .86099246 .6686096 .86099246 .6716156 .85899356 .6826172 .8470001 .6826172 .82299807 .6826172 .7919922 .6786041 .7669983 .6786041 .7350006 .6786041 .69299319 .6826172 .6629944 .6826172 .6539917 .6826172 .6429901 .6796112 .6429901 .660614 .6429901 .6476135 .6569977 .64660647 .6609955 .64660647 .69299319 .64460757 .70199587 .6326294 .70199587 .61764529 .70199587 .6036682 .69499209 .5936737 .6839905 .57769778L.35598756 .09434509 .2649994 .60466006C.2630005 .61364749 .2630005 .61564639 .2630005 .61964419 .2630005 .64660647 .31900025 .64660647 .32598878 .64660647 .34298707 .64660647 .35598756 .64660647 .35598756 .6686096 .35598756 .6696167 .35499574 .6826172 .33898927 .6826172 .30999757 .6826172 .23899842 .6786041 .20999146 .6786041 .18499756 .6786041 .12399292 .6826172 .09899902 .6826172 .08999634 .6826172 .07899475 .6796112 .07899475 .660614 .07899475 .64660647 .09298706 .64660647 .10398865 .64660647 .1599884 .64660647 .16099549 .64060977 .1659851 .61465457L.2749939 .007446289C.2789917-.013534546 .27999879-.01953125 .29899598-.01953125 .31799317-.01953125 .32299806-.012542725 .33299256 .002456665L.71499636 .5637207Z"/>
<path id="font_5_4" d="M.84298709 .6901245C.84298709 .69511416 .83999636 .703125 .8299866 .703125 .82299807 .703125 .82099917 .70111086 .81199648 .69111636L.7389984 .61413577C.7299957 .62612918 .673996 .703125 .5509949 .703125 .30799867 .703125 .069992069 .48820497 .069992069 .2623291 .069992069 .09941101 .19799805-.01953125 .3769989-.01953125 .43099977-.01953125 .5269928-.008544922 .6299896 .078430179 .70899966 .14538574 .73098757 .23234558 .73098757 .24034119 .73098757 .25334168 .71899417 .25334168 .71398928 .25334168 .70098879 .25334168 .69898989 .24833679 .69599917 .23735047 .6549988 .10041809 .5149994 .016464234 .3939972 .016464234 .28799439 .016464234 .16999817 .07342529 .16999817 .23135376 .16999817 .2603302 .1769867 .4182434 .2919922 .5441742 .36099244 .6211395 .46598817 .66711428 .5609894 .66711428 .6769867 .66711428 .7449951 .5831604 .7449951 .47122193 .7449951 .4432373 .74198916 .43623353 .74198916 .43023683 .74198916 .4172516 .7549896 .4172516 .7599945 .4172516 .776001 .4172516 .776001 .4202423 .7809906 .4392395L.84298709 .6901245Z"/>
<path id="font_6_1" d="M.35499574 .75C.16499329 .61598208 .114990238 .40397645 .114990238 .25097657 .114990238 .10997009 .15699768-.10902405 .35499574-.24902344 .36299134-.24902344 .375-.24902344 .375-.23703003 .375-.23103333 .37199403-.22903443 .36499024-.22203064 .23199463-.10203552 .18299866 .067977908 .18299866 .24996948 .18299866 .519989 .28599549 .65197756 .36799623 .72598269 .37199403 .7299957 .375 .73298647 .375 .73799136 .375 .75 .36299134 .75 .35499574 .75Z"/>
<path id="font_6_3" d="M.5159912 .31925965C.5159912 .42918397 .5029907 .50813296 .45700074 .5780945 .42599488 .62405398 .3639984 .6640625 .28399659 .6640625 .051986696 .6640625 .051986696 .39120484 .051986696 .31925965 .051986696 .2472992 .051986696-.01953125 .28399659-.01953125 .5159912-.01953125 .5159912 .2472992 .5159912 .31925965M.28399659 .008468628C.23799134 .008468628 .1769867 .035446168 .15699768 .117385867 .14299011 .17634583 .14299011 .25830079 .14299011 .33224488 .14299011 .40519715 .14299011 .4811554 .1579895 .53611758 .1789856 .6150665 .24299622 .63604739 .28399659 .63604739 .33799745 .63604739 .3899994 .6030731 .4079895 .545105 .42399598 .4911499 .4249878 .41918946 .4249878 .33224488 .4249878 .25830079 .4249878 .18434143 .4119873 .12138367 .3919983 .030441285 .32398988 .008468628 .28399659 .008468628Z"/>
<path id="font_5_1" d="M.21099854 .015991211C.21099854-.03907776 .20098877-.10321045 .1329956-.16732788 .1289978-.17134094 .12599182-.17434693 .12599182-.17933655 .12599182-.18634033 .13398743-.19334412 .13999939-.19334412 .1539917-.19334412 .23899842-.113220218 .23899842 .005996704 .23899842 .067993167 .21499634 .114990238 .16899109 .114990238 .13598633 .114990238 .11199951 .08898926 .11199951 .057998659 .11199951 .025985718 .1349945 0 .16999817 0 .19400025 0 .20999146 .015991211 .21099854 .015991211Z"/>
<path id="font_6_5" d="M.35499574 .36123658C.43299867 .3992157 .48298646 .44618226 .48298646 .5151367 .48298646 .6120758 .38198854 .6640625 .2849884 .6640625 .1749878 .6640625 .084991458 .5920868 .084991458 .4971466 .084991458 .45018006 .10699463 .41619874 .125 .39620973 .14299011 .37522889 .1499939 .37123109 .20899964 .33624269 .15299988 .31227113 .053985597 .25830079 .053985597 .15336609 .053985597 .042434694 .16899109-.01953125 .2829895-.01953125 .4099884-.01953125 .5139923 .061431886 .5139923 .1693573 .5139923 .23532105 .47499085 .29127503 .4169922 .32525636 .4039917 .33325196 .36898805 .35324098 .35499574 .36123658M.19198609 .45617677C.1659851 .4711609 .13798523 .49813844 .13798523 .53512576 .13798523 .5980835 .21099854 .63505557 .2829895 .63505557 .36099244 .63505557 .42999269 .5860901 .42999269 .5151367 .42999269 .42619325 .32598878 .3812256 .32398988 .3812256 .32199098 .3812256 .31999208 .3822174 .31298829 .3862152L.19198609 .45617677M.24099732 .31726075 .37799073 .23831177C.4039917 .22332764 .45399476 .19334412 .45399476 .13438416 .45399476 .059432985 .37098695 .012466431 .2849884 .012466431 .19299317 .012466431 .11399841 .07142639 .11399841 .15336609 .11399841 .22732544 .16899109 .2842865 .24099732 .31726075Z"/>
<path id="font_6_2" d="M.08999634 .75C.08299255 .75 .070999149 .75 .070999149 .73799136 .070999149 .73298647 .07398987 .7299957 .07998657 .72299197 .1659851 .64398196 .2619934 .5089874 .2619934 .25097657 .2619934 .04197693 .19699097-.11602783 .08898926-.21403504 .07199097-.23103333 .070999149-.23202515 .070999149-.23703003 .070999149-.24203491 .07398987-.24902344 .083999637-.24902344 .09599304-.24902344 .19099427-.18302918 .25698854-.058029176 .30099488 .024978638 .32998658 .13298035 .32998658 .24996948 .32998658 .39097596 .28799439 .60998538 .08999634 .75Z"/>
<path id="font_5_8" d="M.55599978 .37738038C.55999758 .39138795 .55999758 .39338685 .55999758 .3993988 .55999758 .41940309 .5439911 .43139649 .5269928 .43139649 .5159912 .43139649 .49699403 .4263916 .48599244 .4073944 .48298646 .4013977 .47499085 .36938478 .46998597 .34936524L.44898988 .2663269C.44299317 .24232483 .4119873 .11627197 .40899659 .105270389 .4079895 .105270389 .3639984 .018234253 .28599549 .018234253 .21798706 .018234253 .21798706 .08325195 .21798706 .101257327 .21798706 .1552887 .24099732 .2183075 .2709961 .29534913 .2829895 .32736207 .28799439 .33937074 .28799439 .35636903 .28799439 .40438844 .24699402 .44140626 .19299317 .44140626 .09199524 .44140626 .04699707 .3053589 .04699707 .28834535 .04699707 .27534486 .06098938 .27534486 .06399536 .27534486 .07798767 .27534486 .07899475 .28033448 .08198547 .29135133 .10699463 .3743744 .1499939 .4133911 .18998719 .4133911 .20698548 .4133911 .21499634 .40238954 .21499634 .37838746 .21499634 .3553772 .20599365 .33335877 .20098877 .32035829 .15299988 .19830323 .14299011 .1612854 .14299011 .117263797 .14299011 .1002655 .14299011 .053237916 .18199158 .021224976 .21299744-.004776001 .25498963-.009765625 .28199769-.009765625 .32199098-.009765625 .35798646 .0052337648 .3909912 .035232545 .37799073-.01977539 .36698915-.061782838 .32499696-.11178589 .2979889-.14279175 .2579956-.17610169 .20498657-.17610169 .19799805-.17610169 .15098572-.17610169 .12998963-.14279175 .18399048-.13679505 .18399048-.08879089 .18399048-.08778381 .18399048-.055786134 .15499878-.04978943 .14498902-.04978943 .11999512-.04978943 .08699036-.0697937 .08699036-.11578369 .08699036-.1670227 .1349945-.20410156 .20599365-.20410156 .30699159-.20410156 .42999269-.12579346 .46099855-.00077819827L.55599978 .37738038Z"/>
<path id="font_6_6" d="M.7679901 .3359375C.7829895 .3359375 .80599978 .3359375 .80599978 .3609314 .80599978 .38493348 .7819977 .38493348 .7689972 .38493348H.10699463C.09399414 .38493348 .069992069 .38493348 .069992069 .3609314 .069992069 .3359375 .09298706 .3359375 .10798645 .3359375H.7679901M.7689972 .11602783C.7819977 .11602783 .80599978 .11602783 .80599978 .1400299 .80599978 .16503906 .7829895 .16503906 .7679901 .16503906H.10798645C.09298706 .16503906 .069992069 .16503906 .069992069 .1400299 .069992069 .11602783 .09399414 .11602783 .10699463 .11602783H.7689972Z"/>
<path id="font_6_4" d="M.5289917 .1640625V.20005799H.41799928V.64582827C.41799928 .66682437 .41799928 .6738281 .3959961 .6738281 .38398744 .6738281 .37998963 .6738281 .36999513 .65982058L.038986207 .20005799V.1640625H.33299256V.08201599C.33299256 .04800415 .33299256 .035995485 .2519989 .035995485H.22499085V0C.2749939 .0019989014 .33898927 .0039978029 .375 .0039978029 .4119873 .0039978029 .47599793 .0019989014 .526001 0V.035995485H.49899293C.41799928 .035995485 .41799928 .04800415 .41799928 .08201599V.1640625H.5289917M.33999635 .5658722V.20005799H.07598877L.33999635 .5658722Z"/>
<path id="font_7_1" d="M.74398806 .2263794C.7599945 .2263794 .7839966 .2263794 .7839966 .25038148 .7839966 .27539063 .7609863 .27539063 .74398806 .27539063H.147995C.13198853 .27539063 .10798645 .27539063 .10798645 .25138856 .10798645 .2263794 .1309967 .2263794 .147995 .2263794H.74398806Z"/>
<path id="font_5_7" d="M.24899292 .10601807C.23899842 .072021488 .20599365 .018234253 .15499878 .018234253 .1519928 .018234253 .12199402 .018234253 .100997928 .03215027 .14199829 .04508972 .14498902 .08100891 .14498902 .087020877 .14498902 .10900879 .12799073 .12402344 .10499573 .12402344 .07699585 .12402344 .04798889 .10002136 .04798889 .0630188 .04798889 .01322937 .10398865-.009765625 .15299988-.009765625 .19898987-.009765625 .23999024 .019226075 .2649994 .061019899 .2889862 .008224487 .34399415-.009765625 .38398744-.009765625 .49899293-.009765625 .55999758 .11502075 .55999758 .14305115 .55999758 .15608216 .5469971 .15608216 .5439911 .15608216 .5299988 .15608216 .5289917 .15107727 .5249939 .13905335 .5039978 .07002258 .44400025 .018234253 .3880005 .018234253 .34799195 .018234253 .32699586 .04508972 .32699586 .08302307 .32699586 .10900879 .35099793 .20018006 .3789978 .31140138 .39898683 .38841249 .44400025 .4133911 .47698976 .4133911 .47898866 .4133911 .5099945 .4133911 .5309906 .39941407 .49899293 .39041139 .4869995 .3624115 .4869995 .34440614 .4869995 .32240296 .5039978 .30740357 .5269928 .30740357 .5499878 .30740357 .58299258 .32640077 .58299258 .3684082 .58299258 .4243927 .5189972 .44140626 .47898866 .44140626 .42900086 .44140626 .3889923 .4084015 .36698915 .3704071 .34899903 .4113922 .30299378 .44140626 .24699402 .44140626 .1349945 .44140626 .070999149 .31840516 .070999149 .2883606 .070999149 .27534486 .084991458 .27534486 .08799744 .27534486 .100997928 .27534486 .101989749 .27934266 .10699463 .29237367 .13198853 .3704071 .19499207 .4133911 .24398804 .4133911 .2769928 .4133911 .3039856 .395401 .3039856 .3474121 .3039856 .32740785 .2919922 .27734376 .2829895 .24327088L.24899292 .10601807Z"/>
<path id="font_8_1" d="M.58898928 .19296265H.5469971C.5439911 .17396546 .5339966 .11198425 .5179901 .101989749 .5099945 .09599304 .42599488 .09599304 .41099549 .09599304H.21499634C.2809906 .14497376 .35499574 .20095825 .4149933 .24093628 .5049896 .30291749 .58898928 .36090089 .58898928 .46687318 .58898928 .59495547 .46798707 .6660156 .32499696 .6660156 .18998719 .6660156 .09098816 .58795168 .09098816 .48986817 .09098816 .4378662 .1349945 .42886354 .14898682 .42886354 .17599488 .42886354 .20799256 .4468689 .20799256 .48786927 .20799256 .52386477 .18199158 .543869 .15098572 .546875 .1789856 .59194949 .23699951 .6220093 .3039856 .6220093 .40098573 .6220093 .48199464 .5639038 .48199464 .4658661 .48199464 .3818817 .42399598 .31791688 .34700013 .2529297L.102996829 .04598999C.09298706 .036987306 .09199524 .036987306 .09098816 .02999878V0H.55599978L.58898928 .19296265Z"/>
<path id="font_5_6" d="M.24598694 .39465333H.34799195C.36698915 .39465333 .37998963 .39465333 .37998963 .4166565 .37998963 .43066407 .36698915 .43066407 .34999085 .43066407H.25498963L.2919922 .57850649C.29299928 .58351138 .29499818 .588501 .29499818 .5924988 .29499818 .6104889 .2809906 .6244812 .26098634 .6244812 .23599243 .6244812 .22099304 .6074829 .21398926 .58151248 .20698548 .5565338 .21998596 .6044922 .17599488 .43066407H.07398987C.054992677 .43066407 .041992189 .43066407 .041992189 .4086609 .041992189 .39465333 .053985597 .39465333 .07199097 .39465333H.16699219L.10798645 .15901184C.101989749 .13404846 .09298706 .098098758 .09298706 .085128787 .09298706 .0262146 .14299011-.009765625 .19999695-.009765625 .31098939-.009765625 .37399293 .13005066 .37399293 .14303589 .37399293 .15602112 .36099244 .15602112 .35798646 .15602112 .34599305 .15602112 .34498597 .15402222 .33699037 .13703919 .30899049 .074142459 .2579956 .018234253 .20298767 .018234253 .18199158 .018234253 .16799927 .031204224 .16799927 .06715393 .16799927 .07713318 .17199707 .098098758 .17399597 .10809326L.24598694 .39465333Z"/>
<path id="font_9_2" d="M.24798584 .082977298C.23999024 .052993776 .23899842 .04499817 .16299439 .04499817 .13699341 .04499817 .12098694 .04499817 .12098694 .016998291 .12098694 0 .13699341 0 .1539917 0H.58898928C.7689972 0 .9149933 .111968997 .9149933 .21191406 .9149933 .27389527 .8569946 .3408661 .72099307 .35786439 .81999209 .37086488 .96099856 .4367981 .96099856 .53671267 .96099856 .6206207 .8619995 .6826172 .7259979 .6826172H.31599427C.29699708 .6826172 .2809906 .6826172 .2809906 .65460208 .2809906 .63760378 .2939911 .63760378 .31799317 .63760378 .32798768 .63760378 .36099244 .63760378 .38198854 .6316223 .38198854 .6196289 .38198854 .61763 .3789978 .6066437L.24798584 .082977298M.4169922 .3718567 .47499085 .6046448C.48298646 .63560488 .48298646 .63760378 .5249939 .63760378H.70799258C.8069916 .63760378 .85398867 .58665469 .85398867 .53370669 .85398867 .4527893 .74598696 .3718567 .60598757 .3718567H.4169922M.36898805 .04499817C.36099244 .04499817 .34700013 .04499817 .33699037 .04699707 .33799745 .054992677 .33799745 .056991579 .33999635 .06498718L.4079895 .3378601H.6519928C.7539978 .3378601 .8049927 .2788849 .8049927 .21591187 .8049927 .11895752 .6859894 .04499817 .56199648 .04499817H.36898805Z"/>
<path id="font_9_1" d="M.72698977 .68881228C.72299197 .70980837 .71899417 .7158203 .69699099 .7158203 .6729889 .7158203 .6669922 .70780947 .6569977 .69281008L.2649994 .124816898C.22299195 .063949588 .18798828 .04798889 .12298584 .04498291 .10398865 .04399109 .10398865 .017990113 .10398865 .016998291 .10398865 .0029907227 .115997318 0 .11999512 0 .13398743 0 .15098572 .0029907227 .16499329 .0029907227 .18199158 .0029907227 .19898987 .0039978029 .21598816 .0039978029 .23498535 .0039978029 .25299073 .0029907227 .2709961 .0029907227 .2889862 .0029907227 .30999757 0 .32798768 0 .33499146 0 .35198976 0 .35198976 .027999878 .35198976 .04399109 .33699037 .04498291 .33299256 .04498291 .32499696 .04498291 .28599549 .04698181 .28599549 .07093811 .28599549 .082901 .2979889 .099868778 .30499269 .10984802L.37799073 .21661377C.3829956 .22261048 .38398744 .2236023 .40299989 .2236023H.70599368C.70799258 .21162415 .70899966 .20663452 .71199038 .19467163 .71499636 .17671204 .7350006 .076919559 .7350006 .06694031 .7350006 .04498291 .6719971 .04498291 .6669922 .04498291 .6519928 .04498291 .6359863 .04498291 .6359863 .016998291 .6359863 .0069885256 .6429901 0 .6539917 0 .6749878 0 .69898989 .0029907227 .72099307 .0029907227 .7449951 .0029907227 .7679901 .0039978029 .7919922 .0039978029 .8129883 .0039978029 .83499148 .0029907227 .85598757 .0029907227 .8759918 .0029907227 .8989868 0 .9189911 0 .9359894 0 .94299319 .011993408 .94299319 .027999878 .94299319 .04498291 .9269867 .04498291 .9129944 .04498291 .8470001 .04498291 .84599307 .051971437 .84199526 .07392883L.72698977 .68881228M.6369934 .5927582 .69799807 .26860047H.4139862L.6369934 .5927582Z"/>
<path id="font_10_1" d="M.33399964 .30233766C.33999635 .32835389 .36299134 .42037965 .43299867 .42037965 .43798829 .42037965 .46199037 .42037965 .48298646 .40734864 .45498658 .402359 .43499757 .37734986 .43499757 .35334779 .43499757 .33735658 .44599916 .31835938 .47299195 .31835938 .49499513 .31835938 .5269928 .3363495 .5269928 .37635804 .5269928 .42837525 .46798707 .4423828 .43399049 .4423828 .37599183 .4423828 .34098817 .38935853 .32899476 .36634828 .3039856 .43237306 .25 .4423828 .22099304 .4423828 .116989139 .4423828 .05999756 .3133545 .05999756 .28834535 .05999756 .27833558 .069992069 .27833558 .07199097 .27833558 .07998657 .27833558 .08299255 .28033448 .084991458 .28933717 .11898804 .39535523 .18499756 .42037965 .21899414 .42037965 .23799134 .42037965 .272995 .4113617 .272995 .35334779 .272995 .32235719 .2559967 .25532533 .21899414 .11528015 .20298767 .053268434 .16799927 .011245728 .12399292 .011245728 .117996219 .011245728 .09498596 .011245728 .07398987 .024276734 .09899902 .029266358 .12098694 .05027771 .12098694 .07827759 .12098694 .105270389 .09899902 .11328125 .083999637 .11328125 .053985597 .11328125 .0289917 .08728027 .0289917 .055267335 .0289917 .009246826 .07899475-.0107421879 .12298584-.0107421879 .18899536-.0107421879 .22499085 .059280397 .22799683 .0652771 .23999024 .028274537 .27598573-.0107421879 .33599855-.0107421879 .43899537-.0107421879 .49598695 .118270877 .49598695 .14328003 .49598695 .1532898 .4869995 .1532898 .48399354 .1532898 .47499085 .1532898 .47299195 .14929199 .47099305 .14228821 .43798829 .03527832 .36999513 .011245728 .33799745 .011245728 .29899598 .011245728 .2829895 .043273927 .2829895 .07727051 .2829895 .09927368 .2889862 .121276859 .2999878 .16529846L.33399964 .30233766Z"/>
<path id="font_10_2" d="M.48599244 .38136292C.48999024 .39537049 .48999024 .39736939 .48999024 .40437318 .48999024 .42237855 .47599793 .43138124 .46099855 .43138124 .45098878 .43138124 .43499757 .42536927 .42599488 .41036988 .42399598 .405365 .41600038 .37435914 .4119873 .35635377 .40499879 .33035279 .397995 .30334474 .3919983 .27633668L.34700013 .09628296C.34298707 .08126831 .2999878 .011245728 .23399353 .011245728 .18299866 .011245728 .17199707 .055267335 .17199707 .0922699 .17199707 .1382904 .18899536 .20030213 .22299195 .28833009 .23899842 .3293457 .24299622 .3403473 .24299622 .36035157 .24299622 .405365 .21099854 .4423828 .16099549 .4423828 .06599426 .4423828 .0289917 .29733277 .0289917 .28833009 .0289917 .27833558 .038986207 .27833558 .040985109 .27833558 .050994874 .27833558 .051986696 .28033448 .056991579 .29634095 .083999637 .3903656 .12399292 .42037965 .1579895 .42037965 .1659851 .42037965 .18299866 .42037965 .18299866 .3883667 .18299866 .36335755 .17298889 .3373413 .1659851 .31834413 .12599182 .21231079 .10798645 .1552887 .10798645 .10827637 .10798645 .019256592 .17098999-.0107421879 .22999573-.0107421879 .2689972-.0107421879 .30299378 .0062561037 .33099366 .03425598 .31799317-.017745972 .30599977-.06674194 .2659912-.11973572 .23999024-.15385437 .20199585-.18309021 .1559906-.18309021 .14199829-.18309021 .09700012-.18005371 .07998657-.14074707 .09599304-.14074707 .10899353-.14074707 .12298584-.1287384 .1329956-.11973572 .14299011-.10673523 .14299011-.08773804 .14299011-.056747438 .115997318-.052734376 .10598755-.052734376 .08299255-.052734376 .049987794-.068740848 .049987794-.11773682 .049987794-.16796875 .09399414-.20507813 .1559906-.20507813 .25898744-.20507813 .3619995-.11373901 .3899994-.00074768069L.48599244 .38136292Z"/>
</defs>
<path transform="matrix(1,0,0,-1,3.188,78.338)" stroke-width=".3985" stroke-linecap="butt" stroke-miterlimit="10" stroke-linejoin="miter" fill="none" stroke="#e5e6e5" d="M30.68169 0V75.1502M51.13617 0V75.1502M92.0451 0V75.1502M112.49957 0V75.1502M132.95403 0V75.1502"/>
<path transform="matrix(1,0,0,-1,3.188,78.338)" stroke-width=".3985" stroke-linecap="butt" stroke-miterlimit="10" stroke-linejoin="miter" fill="none" stroke="#e5e6e5" d="M0 22.54506H143.18128M0 37.5751H143.18128M0 52.60515H143.18128M0 67.6352H143.18128"/>
<path transform="matrix(1,0,0,-1,3.188,78.338)" stroke-width=".19925" stroke-linecap="butt" stroke-miterlimit="10" stroke-linejoin="miter" fill="none" stroke="#7f807f" d="M30.68169 6.23944V8.79057M51.13617 6.23944V8.79057M92.0451 6.23944V8.79057M112.49957 6.23944V8.79057M132.95403 6.23944V8.79057"/>
<path transform="matrix(1,0,0,-1,3.188,78.338)" stroke-width=".19925" stroke-linecap="butt" stroke-miterlimit="10" stroke-linejoin="miter" fill="none" stroke="#7f807f" d="M70.31499 22.54506H72.86627M70.31499 37.5751H72.86627M70.31499 52.60515H72.86627M70.31499 67.6352H72.86627"/>
<path transform="matrix(1,0,0,-1,3.188,78.338)" stroke-width=".3985" stroke-linecap="butt" stroke-miterlimit="10" stroke-linejoin="miter" fill="none" stroke="#000000" d="M0 7.51501H141.18875"/>
<path transform="matrix(1,0,0,-1,144.37676,70.82299)" d="M1.99252 0-1.19551 1.59401 0 0-1.19551-1.59401"/>
<path transform="matrix(1,0,0,-1,3.188,78.338)" stroke-width=".3985" stroke-linecap="butt" stroke-miterlimit="10" stroke-linejoin="miter" fill="none" stroke="#000000" d="M71.59062 0V73.15768"/>
<path transform="matrix(0,-1,-1,-0,74.778629,5.1803209)" d="M1.99252 0-1.19551 1.59401 0 0-1.19551-1.59401"/>
<g clip-path="url(#clip_1)">
</g>
<use data-text="&#x2212;" xlink:href="#font_2_1" transform="matrix(9.96264,0,0,-9.96264,27.504,82.037998)"/>
<use data-text="2" xlink:href="#font_3_2" transform="matrix(9.96264,0,0,-9.96264,35.253,82.037998)"/>
<use data-text="&#x2212;" xlink:href="#font_2_1" transform="matrix(9.96264,0,0,-9.96264,47.959,82.037998)"/>
<use data-text="1" xlink:href="#font_3_1" transform="matrix(9.96264,0,0,-9.96264,55.707,82.037998)"/>
<use data-text="1" xlink:href="#font_3_1" transform="matrix(9.96264,0,0,-9.96264,92.741008,82.037998)"/>
<use data-text="2" xlink:href="#font_3_2" transform="matrix(9.96264,0,0,-9.96264,113.19501,82.037998)"/>
<use data-text="3" xlink:href="#font_3_3" transform="matrix(9.96264,0,0,-9.96264,133.65001,82.037998)"/>
<use data-text="2" xlink:href="#font_3_2" transform="matrix(9.96264,0,0,-9.96264,65.001,59.002996)"/>
<use data-text="4" xlink:href="#font_3_4" transform="matrix(9.96264,0,0,-9.96264,65.001,43.972993)"/>
<use data-text="6" xlink:href="#font_3_5" transform="matrix(9.96264,0,0,-9.96264,65.001,28.942994)"/>
<use data-text="8" xlink:href="#font_3_6" transform="matrix(9.96264,0,0,-9.96264,65.001,13.913994)"/>
<g clip-path="url(#clip_4)">
<path transform="matrix(1,0,0,-1,3.188,78.338)" stroke-width=".79701" stroke-linecap="butt" stroke-miterlimit="10" stroke-linejoin="miter" fill="none" stroke="#2471a3" d="M20.45456-9.39398 20.96849-8.4546 21.48242-7.52472 21.99635-6.60431 22.51028-5.6934 23.02423-4.79199 23.53816-3.90005 24.0521-3.0176 24.56602-2.14465 25.07996-1.28119 25.59389-.42722 26.10782 .41724 26.62177 1.25224 27.1357 2.07776 27.64963 2.89378 28.16356 3.70032 28.67749 4.49736 29.19142 5.28491 29.70537 6.063 30.21928 6.83156 30.73325 7.59065 31.24716 8.34027 31.76111 9.08038 32.27502 9.811 32.78897 10.53214 33.3029 11.24379 33.81683 11.94594 34.33076 12.63861 34.84471 13.3218 35.35864 13.9955 35.87257 14.6597 36.3865 15.31442 36.90044 15.95964 37.41437 16.59538 37.9283 17.22163 38.44225 17.8384 38.95618 18.44566 39.47011 19.04346 39.98404 19.63173 40.49797 20.21056 41.01192 20.77986 41.52583 21.33969 42.03978 21.89003 42.55371 22.4309 43.06766 22.96225 43.58157 23.48413 44.09552 23.9965 44.60945 24.4994 45.12338 24.99281 45.63731 25.47675 46.15126 25.95117 46.66519 26.41612 47.17912 26.87157 47.69305 27.31754 48.20699 27.75401 48.72092 28.18102 49.23485 28.5985 49.74878 29.00652 50.26273 29.40504 50.77666 29.79408 51.29059 30.17361 51.80452 30.54367 52.31845 30.90425 52.83238 31.25533 53.34631 31.59692 53.86024 31.92902 54.37419 32.25163 54.88812 32.56476 55.40205 32.86841 55.916 33.16255 56.42992 33.4472 56.94386 33.72237 57.45778 33.98805 57.97174 34.24425 58.48566 34.49095 58.9996 34.72816 59.51353 34.95589 60.02747 35.17413 60.5414 35.38289 61.05533 35.58214 61.56926 35.77193 62.0832 35.9522 62.59714 36.123 63.11107 36.2843 63.625 36.43613 64.13893 36.57845 64.65286 36.71129 65.1668 36.83464 65.68074 36.9485 66.19467 37.05289 66.7086 37.14778 67.22253 37.23317 67.73647 37.30907 68.25041 37.3755 68.76433 37.43243 69.27827 37.47987 69.7922 37.51782 70.30615 37.5463 70.82007 37.56526 71.33401 37.57475H71.84795L72.36188 37.56526 72.87581 37.5463 73.38974 37.51782 73.90369 37.47987 74.41762 37.43243 74.93155 37.3755 75.44548 37.30907 75.95941 37.23317 76.47334 37.14778 76.98727 37.05289 77.50122 36.9485 78.01515 36.83464 78.52908 36.71129 79.04301 36.57845 79.55696 36.43613 80.07088 36.2843 80.58482 36.123 81.09874 35.9522 81.6127 35.77193 82.12662 35.58214 82.64056 35.38289 83.1545 35.17413 83.66843 34.95589 84.18236 34.72816 84.69629 34.49095 85.21024 34.24425 85.72417 33.98805 86.2381 33.72237 86.75203 33.4472 87.26596 33.16255 87.77989 32.86841 88.29382 32.56476 88.80775 32.25163 89.3217 31.92902 89.83563 31.59692 90.34956 31.25533 90.8635 30.90425 91.37743 30.54367 91.89136 30.17361 92.40529 29.79408 92.91922 29.40504 93.43317 29.00652 93.9471 28.5985 94.46104 28.18102 94.97496 27.75401 95.4889 27.31754 96.00282 26.87157 96.51677 26.41612 97.0307 25.95117 97.54465 25.47675 98.05858 24.99281 98.57251 24.4994 99.08644 23.9965 99.60037 23.48413 100.1143 22.96225 100.62823 22.4309 101.14218 21.89003 101.65611 21.33969 102.17004 20.77986 102.68398 20.21056 103.1979 19.63173 103.71184 19.04346 104.22577 18.44566 104.73972 17.8384 105.25365 17.22163 105.76758 16.59538 106.28151 15.95964 106.79546 15.31442 107.30937 14.6597 107.82332 13.9955 108.33723 13.3218 108.8512 12.63861 109.36511 11.94594 109.87906 11.24379 110.39299 10.53214 110.90692 9.811 111.42085 9.08038 111.93478 8.34027 112.44872 7.59065 112.96266 6.83156 113.4766 6.063 113.99052 5.28491 114.50446 4.49736 115.01839 3.70032 115.53232 2.89378 116.04625 2.07776 116.5602 1.25224 117.07413 .41724 117.58806-.42722 118.102-1.28119 118.61592-2.14465 119.12987-3.0176 119.64378-3.90005 120.15773-4.79199 120.67166-5.6934 121.18561-6.60431 121.69954-7.52472 122.21347-8.4546 122.7274-9.39398"/>
<path transform="matrix(1,0,0,-1,3.188,78.338)" stroke-width=".79701" stroke-linecap="butt" stroke-miterlimit="10" stroke-linejoin="miter" fill="none" stroke="#b30000" d="M20.45456-7.51518 20.81432-6.98647 21.17406-6.45776 21.53381-5.92905 21.89357-5.40034 22.25333-4.87164 22.61307-4.34294 22.97282-3.81422 23.33258-3.28552 23.69234-2.7568 24.0521-2.2281 24.41185-1.69939 24.7716-1.1707 25.13136-.64198 25.4911-.11328 25.85086 .4154 26.2106 .94409 26.57036 1.47281 26.93011 2.00151 27.28989 2.53023 27.64963 3.05893 28.00938 3.58765 28.36914 4.11633 28.72888 4.64505 29.08864 5.17375 29.4484 5.70247 29.80815 6.23117 30.16791 6.75989 30.52766 7.28859 30.88742 7.81729 31.24716 8.346 31.60692 8.87471 31.96667 9.40341 32.32643 9.93211 32.68617 10.46085 33.04593 10.98953 33.40569 11.51825 33.76544 12.04695 34.1252 12.57567 34.48495 13.10435 34.84471 13.63307 35.20447 14.16177 35.56421 14.69049 35.92397 15.2192 36.2837 15.74791 36.64346 16.27661 37.00323 16.80531 37.36299 17.33401 37.72273 17.86273 38.08249 18.39143 38.44225 18.92015 38.80199 19.44885 39.16174 19.97755 39.5215 20.50626 39.88126 21.03497 40.24101 21.56367 40.60077 22.09238 40.96053 22.62108 41.32027 23.1498 41.68002 23.6785 42.03978 24.20721 42.39952 24.73592 42.75928 25.26463 43.11903 25.79332 43.47879 26.32204 43.83855 26.85074 44.1983 27.37946 44.55806 27.90816 44.91782 28.43687 45.27756 28.96556 45.63731 29.49428 45.99706 30.023 46.35681 30.5517 46.71657 31.0804 47.07634 31.6091 47.43608 32.13783 47.79584 32.66652 48.1556 33.19524 48.51535 33.72394 48.87509 34.25266 49.23485 34.78134 49.5946 35.31006 49.95436 35.83876 50.31412 36.36748 50.67387 36.89618 51.03362 37.4249 51.39337 37.95358 51.75313 38.4823 52.11288 39.011 52.47263 39.53972 52.83238 40.06842 53.19214 40.59712 53.5519 41.12584 53.91165 41.65454 54.27141 42.18324 54.63116 42.71196 54.99092 43.24066 55.35066 43.76936 55.71042 44.29807 56.07016 44.82678 56.42992 45.35548 56.78969 45.8842 57.14944 46.4129 57.50919 46.94162 57.86894 47.4703 58.2287 47.99902 58.58844 48.52773 58.9482 49.05644 59.30795 49.58516 59.66771 50.11386 60.02747 50.64256 60.38722 51.17126 60.74698 51.69998 61.10672 52.22868 61.46648 52.75739 61.82625 53.28609 62.18599 53.81482 62.54573 54.3435 62.90549 54.87222 63.26524 55.40092 63.625 55.92964 63.98476 56.45833 64.34451 56.98705 64.70427 57.51575 65.06403 58.04446 65.42377 58.57317 65.78352 59.10188 66.14326 59.63057 66.50302 60.15929 66.8628 60.68799 67.22253 61.2167 67.58229 61.74539 67.94205 62.27412 68.3018 62.80283 68.66154 63.33153 69.0213 63.86023 69.38106 64.38895 69.74081 64.91765 70.10057 65.44635 70.46033 65.97505 70.82007 66.50377 71.17982 67.03247 71.5396 67.56119 71.89934 68.08989 72.25908 68.61859 72.61884 69.14731 72.97859 69.67601 73.33835 70.20473 73.6981 70.73341 74.05786 71.26215 74.41762 71.79085 74.77737 72.31955 75.13713 72.84825 75.49687 73.37697 75.85661 73.90567 76.21637 74.43437 76.57614 74.96307 76.9359 75.49179 77.29564 76.0205 77.6554 76.54921 78.01515 77.07791 78.37491 77.60661 78.73465 78.13531 79.0944 78.66403 79.45416 79.19273 79.81392 79.72145 80.17368 80.25015 80.53343 80.77887 80.89317 81.30756 81.25293 81.83627 81.6127 82.36497 81.97244 82.89369 82.33218 83.42238 82.69194 83.95111 83.0517 84.4798 83.41145 85.00851 83.77121 85.53722 84.13097 86.06593 84.49072 86.59462 84.85048 87.12334 85.21024 87.65204 85.56998 88.18076 85.92972 88.70946 86.28947 89.23817 86.64925 89.76689 87.009 90.29558 87.36874 90.8243 87.7285 91.353 88.08826 91.88171 88.44801 92.4104 88.80775 92.93913 89.16751 93.46782 89.52727 93.99654 89.88702 94.52524 90.24678 95.05396 90.60654 95.58264 90.96628 96.11136 91.32605 96.64006 91.6858 97.16878 92.04553 97.69748"/>
<path transform="matrix(1,0,0,-1,3.188,78.338)" stroke-width=".79701" stroke-linecap="butt" stroke-miterlimit="10" stroke-linejoin="miter" fill="none" stroke="#b30000" d="M51.13641 97.69748 51.49615 97.16878 51.85591 96.64006 52.21567 96.11136 52.57542 95.58264 52.93518 95.05396 53.29494 94.52524 53.65468 93.99654 54.01443 93.46782 54.37419 92.93913 54.73396 92.4104 55.09369 91.88171 55.45345 91.353 55.8132 90.8243 56.17296 90.29558 56.53271 89.76689 56.89247 89.23817 57.25223 88.70946 57.61198 88.18076 57.97174 87.65204 58.33148 87.12334 58.69122 86.59462 59.05098 86.06593 59.41074 85.53722 59.7705 85.00851 60.13025 84.4798 60.49 83.95111 60.84976 83.42238 61.20952 82.89369 61.56926 82.36497 61.92902 81.83627 62.28877 81.30756 62.64853 80.77887 63.00829 80.25015 63.36804 79.72145 63.72778 79.19273 64.08754 78.66403 64.4473 78.13531 64.80704 77.60661 65.1668 77.07791 65.52655 76.54921 65.8863 76.0205 66.24606 75.49179 66.60582 74.96307 66.96558 74.43437 67.32533 73.90567 67.68509 73.37697 68.04485 72.84825 68.40457 72.31955 68.76433 71.79085 69.12408 71.26215 69.48386 70.73341 69.8436 70.20473 70.20335 69.67601 70.56311 69.14731 70.92287 68.61859 71.28262 68.08989 71.64236 67.56119 72.00212 67.03247 72.36188 66.50377 72.72163 65.97505 73.08139 65.44635 73.44113 64.91765 73.80089 64.38895 74.16064 63.86023 74.52042 63.33153 74.88014 62.80283 75.2399 62.27412 75.59966 61.74539 75.95941 61.2167 76.31917 60.68799 76.67892 60.15929 77.03868 59.63057 77.39844 59.10188 77.7582 58.57317 78.11794 58.04446 78.47768 57.51575 78.83743 56.98705 79.19719 56.45833 79.55696 55.92964 79.9167 55.40092 80.27646 54.87222 80.63622 54.3435 80.99597 53.81482 81.35573 53.28609 81.71547 52.75739 82.07523 52.22868 82.43498 51.69998 82.79474 51.17126 83.1545 50.64256 83.51424 50.11386 83.874 49.58516 84.23376 49.05644 84.59352 48.52773 84.95325 47.99902 85.313 47.4703 85.67276 46.94162 86.03252 46.4129 86.39227 45.8842 86.75203 45.35548 87.11179 44.82678 87.47154 44.29807 87.8313 43.76936 88.19104 43.24066 88.55078 42.71196 88.91054 42.18324 89.27031 41.65454 89.63005 41.12584 89.9898 40.59712 90.34956 40.06842 90.70932 39.53972 91.06908 39.011 91.42882 38.4823 91.78857 37.95358 92.14833 37.4249 92.50809 36.89618 92.86784 36.36748 93.22758 35.83876 93.58734 35.31006 93.9471 34.78134 94.30687 34.25266 94.66661 33.72394 95.02635 33.19524 95.38611 32.66652 95.74586 32.13783 96.10562 31.6091 96.46538 31.0804 96.82513 30.5517 97.18489 30.023 97.54465 29.49428 97.9044 28.96556 98.26413 28.43687 98.62389 27.90816 98.98364 27.37946 99.34341 26.85074 99.70316 26.32204 100.06291 25.79332 100.42267 25.26463 100.78242 24.73592 101.14218 24.20721 101.50192 23.6785 101.86168 23.1498 102.22144 22.62108 102.58119 22.09238 102.94095 21.56367 103.30069 21.03497 103.66045 20.50626 104.02022 19.97755 104.37997 19.44885 104.73972 18.92015 105.09946 18.39143 105.45921 17.86273 105.81897 17.33401 106.17873 16.80531 106.53848 16.27661 106.89824 15.74791 107.258 15.2192 107.61775 14.69049 107.97751 14.16177 108.33723 13.63307 108.69699 13.10435 109.05676 12.57567 109.41652 12.04695 109.77626 11.51825 110.13602 10.98953 110.49577 10.46085 110.85553 9.93211 111.21529 9.40341 111.57503 8.87471 111.93478 8.346 112.29454 7.81729 112.6543 7.28859 113.01405 6.75989 113.3738 6.23117 113.73355 5.70247 114.09332 5.17375 114.45306 4.64505 114.8128 4.11633 115.17256 3.58765 115.53232 3.05893 115.89207 2.53023 116.25183 2.00151 116.61159 1.47281 116.97134 .94409 117.3311 .4154 117.69086-.11328 118.0506-.64198 118.41034-1.1707 118.77011-1.69939 119.12987-2.2281 119.48961-2.7568 119.84937-3.28552 120.20912-3.81422 120.56888-4.34294 120.92863-4.87164 121.28839-5.40034 121.64813-5.92905 122.00789-6.45776 122.36765-6.98647 122.7274-7.51518"/>
<use data-text="A" xlink:href="#font_5_2" transform="matrix(6.97385,0,0,-6.97385,30.874,79.107997)"/>
<use data-text="B" xlink:href="#font_5_3" transform="matrix(6.97385,0,0,-6.97385,112.507,79.107997)"/>
<use data-text="V" xlink:href="#font_5_5" transform="matrix(6.97385,0,0,-6.97385,64.838008,43.145994)" fill="#1e8449"/>
<use data-text="C" xlink:href="#font_5_4" transform="matrix(6.97385,0,0,-6.97385,47.159,12.446999)" fill="#1e8449"/>
<use data-text="(" xlink:href="#font_6_1" transform="matrix(6.97385,0,0,-6.97385,53.362,12.446999)" fill="#1e8449"/>
<use data-text="0" xlink:href="#font_6_3" transform="matrix(6.97385,0,0,-6.97385,56.472337,12.446999)" fill="#1e8449"/>
<use data-text="," xlink:href="#font_5_1" transform="matrix(6.97385,0,0,-6.97385,60.447,12.446999)" fill="#1e8449"/>
<use data-text="8" xlink:href="#font_6_5" transform="matrix(6.97385,0,0,-6.97385,64.173,12.446999)" fill="#1e8449"/>
<use data-text=")" xlink:href="#font_6_2" transform="matrix(6.97385,0,0,-6.97385,68.14111,12.446999)" fill="#1e8449"/>
<use data-text="y" xlink:href="#font_5_8" transform="matrix(6.97385,0,0,-6.97385,108.979007,43.401994)" fill="#2471a3"/>
<use data-text="=" xlink:href="#font_6_6" transform="matrix(6.97385,0,0,-6.97385,115.53701,43.401994)" fill="#2471a3"/>
<use data-text="4" xlink:href="#font_6_4" transform="matrix(6.97385,0,0,-6.97385,123.91958,43.401994)" fill="#2471a3"/>
<use data-text="&#x2212;" xlink:href="#font_7_1" transform="matrix(6.97385,0,0,-6.97385,129.706,43.401994)" fill="#2471a3"/>
<use data-text="x" xlink:href="#font_5_7" transform="matrix(6.97385,0,0,-6.97385,137.74701,43.401994)" fill="#2471a3"/>
<use data-text="2" xlink:href="#font_8_1" transform="matrix(4.98132,0,0,-4.98132,142.26502,40.395994)" fill="#2471a3"/>
<use data-text="t" xlink:href="#font_5_6" transform="matrix(6.97385,0,0,-6.97385,108.979007,27.376996)" fill="#b30000"/>
<use data-text="B" xlink:href="#font_9_2" transform="matrix(4.98132,0,0,-4.98132,111.98801,28.378994)" fill="#b30000"/>
<use data-text="t" xlink:href="#font_5_6" transform="matrix(6.97385,0,0,-6.97385,31.907999,27.376996)" fill="#b30000"/>
<use data-text="A" xlink:href="#font_9_1" transform="matrix(4.98132,0,0,-4.98132,34.917,28.378994)" fill="#b30000"/>
</g>
<path transform="matrix(1,0,0,-1,3.188,78.338)" d="M32.17627 7.51518C32.17627 8.34055 31.5072 9.00961 30.68184 9.00961 29.85648 9.00961 29.18741 8.34055 29.18741 7.51518 29.18741 6.68982 29.85648 6.02075 30.68184 6.02075 31.5072 6.02075 32.17627 6.68982 32.17627 7.51518ZM30.68184 7.51518" fill="#1e8449"/>
<path transform="matrix(1,0,0,-1,3.188,78.338)" stroke-width=".79701" stroke-linecap="butt" stroke-miterlimit="10" stroke-linejoin="miter" fill="none" stroke="#1e8449" d="M32.17627 7.51518C32.17627 8.34055 31.5072 9.00961 30.68184 9.00961 29.85648 9.00961 29.18741 8.34055 29.18741 7.51518 29.18741 6.68982 29.85648 6.02075 30.68184 6.02075 31.5072 6.02075 32.17627 6.68982 32.17627 7.51518ZM30.68184 7.51518"/>
<path transform="matrix(1,0,0,-1,3.188,78.338)" d="M113.99455 7.51518C113.99455 8.34055 113.32549 9.00961 112.50012 9.00961 111.67476 9.00961 111.00569 8.34055 111.00569 7.51518 111.00569 6.68982 111.67476 6.02075 112.50012 6.02075 113.32549 6.02075 113.99455 6.68982 113.99455 7.51518ZM112.50012 7.51518" fill="#1e8449"/>
<path transform="matrix(1,0,0,-1,3.188,78.338)" stroke-width=".79701" stroke-linecap="butt" stroke-miterlimit="10" stroke-linejoin="miter" fill="none" stroke="#1e8449" d="M113.99455 7.51518C113.99455 8.34055 113.32549 9.00961 112.50012 9.00961 111.67476 9.00961 111.00569 8.34055 111.00569 7.51518 111.00569 6.68982 111.67476 6.02075 112.50012 6.02075 113.32549 6.02075 113.99455 6.68982 113.99455 7.51518ZM112.50012 7.51518"/>
<path transform="matrix(1,0,0,-1,3.188,78.338)" d="M73.0854 37.57594C73.0854 38.4013 72.41634 39.07037 71.59097 39.07037 70.76561 39.07037 70.09654 38.4013 70.09654 37.57594 70.09654 36.75058 70.76561 36.08151 71.59097 36.08151 72.41634 36.08151 73.0854 36.75058 73.0854 37.57594ZM71.59097 37.57594" fill="#1e8449"/>
<path transform="matrix(1,0,0,-1,3.188,78.338)" stroke-width=".79701" stroke-linecap="butt" stroke-miterlimit="10" stroke-linejoin="miter" fill="none" stroke="#1e8449" d="M73.0854 37.57594C73.0854 38.4013 72.41634 39.07037 71.59097 39.07037 70.76561 39.07037 70.09654 38.4013 70.09654 37.57594 70.09654 36.75058 70.76561 36.08151 71.59097 36.08151 72.41634 36.08151 73.0854 36.75058 73.0854 37.57594ZM71.59097 37.57594"/>
<path transform="matrix(1,0,0,-1,3.188,78.338)" d="M73.0854 67.6367C73.0854 68.46207 72.41634 69.13113 71.59097 69.13113 70.76561 69.13113 70.09654 68.46207 70.09654 67.6367 70.09654 66.81136 70.76561 66.14227 71.59097 66.14227 72.41634 66.14227 73.0854 66.81136 73.0854 67.6367ZM71.59097 67.6367" fill="#1e8449"/>
<path transform="matrix(1,0,0,-1,3.188,78.338)" stroke-width=".79701" stroke-linecap="butt" stroke-miterlimit="10" stroke-linejoin="miter" fill="none" stroke="#1e8449" d="M73.0854 67.6367C73.0854 68.46207 72.41634 69.13113 71.59097 69.13113 70.76561 69.13113 70.09654 68.46207 70.09654 67.6367 70.09654 66.81136 70.76561 66.14227 71.59097 66.14227 72.41634 66.14227 73.0854 66.81136 73.0854 67.6367ZM71.59097 67.6367"/>
<path transform="matrix(1,0,0,-1,3.188,78.338)" stroke-width=".79701" stroke-linecap="butt" stroke-miterlimit="10" stroke-linejoin="miter" fill="none" stroke="#1e8449" d=""/>
<use data-text="x" xlink:href="#font_10_1" transform="matrix(9.96264,0,0,-9.96264,136.955,67.104)"/>
<use data-text="y" xlink:href="#font_10_2" transform="matrix(9.96264,0,0,-9.96264,78.497,11.196999)"/>
</svg>
