<svg xmlns="http://www.w3.org/2000/svg" xmlns:xlink="http://www.w3.org/1999/xlink" xmlns:inkscape="http://www.inkscape.org/namespaces/inkscape" version="1.1" width="140.575" height="404.231" viewBox="0 0 140.575 404.231">
<defs>
<path id="font_1_1" d="M.55400088 .6796112H.032989503V.64860537H.056991579C.13398743 .64860537 .13598633 .637619 .13598633 .6016388V.07795715C.13598633 .041992189 .13398743 .0309906 .056991579 .0309906H.032989503V0C.067993167 .0029907227 .1459961 .0029907227 .18499756 .0029907227 .22599793 .0029907227 .31698609 .0029907227 .35299684 0V.0309906H.31999208C.22499085 .0309906 .22499085 .04399109 .22499085 .07896423V.6086273C.22499085 .6416168 .22698975 .64860537 .27398683 .64860537H.3769989C.519989 .64860537 .54100039 .5896454 .5569916 .45472718H.58200076L.55400088 .6796112Z"/>
<path id="font_2_1" d="M.33499146 .63612368C.33499146 .6630554 .33299256 .6640625 .30499269 .6640625 .24099732 .6014404 .1499939 .6004486 .10899353 .6004486V.5644531C.1329956 .5644531 .19898987 .5644531 .2539978 .592453V.08203125C.2539978 .04899597 .2539978 .035995485 .1539917 .035995485H.115997318V0C.13398743 .0009918213 .25698854 .0039978029 .2939911 .0039978029 .32499696 .0039978029 .45098878 .0009918213 .47299195 0V.035995485H.43499757C.33499146 .035995485 .33499146 .04899597 .33499146 .08203125V.63612368Z"/>
<path id="font_3_1" d="M.7559967 .577652C.7659912 .61763 .7839966 .64860537 .8639984 .6516113 .86898806 .6516113 .8809967 .65260317 .8809967 .6716156 .8809967 .6726074 .8809967 .6826172 .8679962 .6826172 .83499148 .6826172 .7999878 .6796112 .7669983 .6796112 .73298647 .6796112 .69799807 .6826172 .6649933 .6826172 .6589966 .6826172 .6469879 .6826172 .6469879 .6626129 .6469879 .6516113 .6569977 .6516113 .6649933 .6516113 .7220001 .65060427 .73298647 .6296234 .73298647 .6076355 .73298647 .6046295 .73098757 .5896454 .7299957 .5866394L.6179962 .141922 .39698792 .66360476C.3889923 .6816101 .3880005 .6826172 .36499024 .6826172H.23098755C.21099854 .6826172 .20199585 .6826172 .20199585 .6626129 .20199585 .6516113 .21099854 .6516113 .22999573 .6516113 .23498535 .6516113 .2979889 .6516113 .2979889 .64260867L.1639862 .10594177C.1539917 .065963748 .13699341 .033996583 .055999757 .0309906 .049987794 .0309906 .038986207 .02999878 .038986207 .010986328 .038986207 .0039978029 .04399109 0 .051986696 0 .083999637 0 .11898804 .0029907227 .1519928 .0029907227 .18598938 .0029907227 .22200012 0 .25498963 0 .2599945 0 .272995 0 .272995 .019989014 .272995 .02999878 .2639923 .0309906 .25299073 .0309906 .19499207 .032989503 .18699646 .054977418 .18699646 .07496643 .18699646 .081954959 .18798828 .08695984 .19099427 .09794617L.32299806 .6256256C.32699586 .6196289 .32699586 .61763 .33198548 .6076355L.58099368 .018997193C.58799746 .0019989014 .59098818 0 .59999087 0 .61099246 0 .61099246 .0029907227 .6159973 .020996094L.7559967 .577652Z"/>
</defs>
<path transform="matrix(1,0,0,-1,79.723,76.159)" stroke-width=".3985" stroke-linecap="butt" stroke-miterlimit="10" stroke-linejoin="miter" fill="none" stroke="#000000" d="M-76.53586 0H49.03137"/>
<path transform="matrix(1,0,0,-1,128.75437,76.159)" d="M1.99252 0-1.19551 1.59401 0 0-1.19551-1.59401"/>
<path transform="matrix(1,0,0,-1,79.723,76.159)" stroke-width=".3985" stroke-linecap="butt" stroke-miterlimit="10" stroke-linejoin="miter" fill="none" stroke="#000000" d="M0-76.53586V64.33868"/>
<path transform="matrix(0,-1,-1,-0,79.723,11.82032)" d="M1.99252 0-1.19551 1.59401 0 0-1.19551-1.59401"/>
<path transform="matrix(1,0,0,-1,79.723,76.159)" stroke-width=".79701" stroke-linecap="butt" stroke-miterlimit="10" stroke-linejoin="miter" fill="none" stroke="#000000" d="M-66.3312-324.68843C-66.3312-324.68843-63.87358-295.4418-62.92967-284.91789-61.98575-274.39396-60.47205-258.36647-59.52812-248.83925-58.58423-239.31206-57.0705-224.83824-56.12659-216.2525-55.18268-207.66674-53.66896-194.65874-52.72505-186.95906-51.78114-179.25939-50.26741-167.62761-49.32352-160.75847-48.3796-153.88933-46.86588-143.54486-45.92197-137.451-44.97806-131.35717-43.46434-122.21208-42.52043-116.83815-41.5765-111.46425-40.0628-103.42888-39.11888-98.71945-38.17497-94.01003-36.66125-86.99619-35.71735-82.89592-34.77342-78.79567-33.25972-72.714-32.3158-69.16753-31.37189-65.62103-29.85817-60.38338-28.91425-57.33531-27.97034-54.28725-26.45662-49.80435-25.51271-47.1992-24.56879-44.59404-23.05508-40.77657-22.11116-38.5591-21.16725-36.34164-19.65353-33.10242-18.70963-31.21724-17.7657-29.33208-16.252-26.58038-15.30807-24.97202-14.36418-23.36363-12.85045-21.01201-11.90654-19.62521-10.96263-18.23842-9.44891-16.19737-8.505-14.9768-7.5611-13.75624-6.04736-11.93802-5.10347-10.82825-4.15955-9.71844-2.64584-8.0326-1.70192-6.97823-.75801-5.92387 .75566-4.28337 1.69957-3.22908 2.6435-2.17476 4.1572-.48926 5.10112 .6205 6.04503 1.73027 7.55875 3.5489 8.50266 4.76945 9.44658 5.99 10.96028 8.03079 11.9042 9.41747 12.84811 10.80415 15.30574 14.76387 15.30574 14.76387"/>
<use data-text="&#x0393;" xlink:href="#font_1_1" transform="matrix(9.96264,0,0,-9.96264,102.438,25.242005)"/>
<use data-text="1" xlink:href="#font_2_1" transform="matrix(6.97385,0,0,-6.97385,108.664,26.736023)"/>
<path transform="matrix(1,0,0,-1,79.723,76.159)" d="M-39.38464-51.0239C-39.38464-50.23157-40.02693-49.58926-40.81926-49.58926-41.61159-49.58926-42.25389-50.23157-42.25389-51.0239-42.25389-51.81622-41.61159-52.45853-40.81926-52.45853-40.02693-52.45853-39.38464-51.81622-39.38464-51.0239ZM-40.81926-51.0239"/>
<use data-text="N" xlink:href="#font_3_1" transform="matrix(9.96264,0,0,-9.96264,42.424,137.51001)"/>
</svg>
