<svg xmlns="http://www.w3.org/2000/svg" xmlns:xlink="http://www.w3.org/1999/xlink" xmlns:inkscape="http://www.inkscape.org/namespaces/inkscape" version="1.1" width="145.114" height="131.5" viewBox="0 0 145.114 131.5">
<defs>
<path id="font_1_1" d="M.44699098 .1402893C.44198609 .19831848 .4079895 .44140626 .24499512 .44140626 .18598938 .44140626 .1349945 .4093933 .10699463 .38339234 .04598999 .3283844 .033996583 .26435853 .033996583 .26135255 .033996583 .24934387 .04699707 .24934387 .049987794 .24934387 .06298828 .24934387 .06399536 .25134278 .068984989 .26635743 .08999634 .32537843 .1639862 .36140443 .23098755 .36140443 .3919983 .36140443 .41299439 .20031739 .41299439 .0982666 .41299439 .04824829 .4099884 .037231447 .4059906 .026229859 .3829956-.048797609 .35299684-.15985108 .35299684-.18988037 .35299684-.20088196 .35699464-.21386719 .36999513-.21386719 .3769989-.21386719 .3880005-.21386719 .4039917-.16186524 .41600038-.12283325 .43499757-.048797609 .44299317 .023239136 .44699098 .058242799 .5029907 .1933136 .5239868 .24133301 .5379944 .27235414 .5589905 .3193817 .60598757 .4064026 .60899356 .4113922 .61099246 .41540528 .61099246 .41940309 .61099246 .43139649 .59799197 .43139649 .59498599 .43139649 .59199526 .43139649 .58299258 .43139649 .5799866 .4263916 .56799319 .4053955 .49198915 .26234437 .44699098 .1402893Z"/>
<path id="font_2_2" d="M.58898928 .19296265H.5469971C.5439911 .17396546 .5339966 .11198425 .5179901 .101989749 .5099945 .09599304 .42599488 .09599304 .41099549 .09599304H.21499634C.2809906 .14497376 .35499574 .20095825 .4149933 .24093628 .5049896 .30291749 .58898928 .36090089 .58898928 .46687318 .58898928 .59495547 .46798707 .6660156 .32499696 .6660156 .18998719 .6660156 .09098816 .58795168 .09098816 .48986817 .09098816 .4378662 .1349945 .42886354 .14898682 .42886354 .17599488 .42886354 .20799256 .4468689 .20799256 .48786927 .20799256 .52386477 .18199158 .543869 .15098572 .546875 .1789856 .59194949 .23699951 .6220093 .3039856 .6220093 .40098573 .6220093 .48199464 .5639038 .48199464 .4658661 .48199464 .3818817 .42399598 .31791688 .34700013 .2529297L.102996829 .04598999C.09298706 .036987306 .09199524 .036987306 .09098816 .02999878V0H.55599978L.58898928 .19296265Z"/>
<path id="font_2_1" d="M.397995 .63591006C.397995 .6660156 .394989 .6660156 .3619995 .6660156 .29100038 .6016083 .17999268 .6016083 .1599884 .6016083H.14299011V.5576172H.1599884C.18299866 .5576172 .24798584 .5606079 .30599977 .58561709V.08596802C.30599977 .054977418 .30599977 .04399109 .19999695 .04399109H.1499939V0C.20498657 .0039978029 .2939911 .0039978029 .35198976 .0039978029 .4099884 .0039978029 .49899293 .0039978029 .55400088 0V.04399109H.5039978C.397995 .04399109 .397995 .054977418 .397995 .08596802V.63591006Z"/>
<path id="font_1_2" d="M.82899478 .4252472C.82899478 .5821686 .71598818 .703125 .5389862 .703125 .2999878 .703125 .068984989 .47921754 .068984989 .2543335 .068984989 .09341431 .18798828-.01953125 .3600006-.01953125 .59799197-.01953125 .82899478 .19836426 .82899478 .4252472M.36799623 .013458252C.2619934 .013458252 .17199707 .0854187 .17199707 .23335266 .17199707 .28431703 .18598938 .426239 .27799989 .54019168 .34498597 .6221466 .44198609 .67111209 .5309906 .67111209 .6349945 .67111209 .73098757 .6051483 .73098757 .4602356 .73098757 .38726808 .69999697 .24134827 .6069946 .13439942 .5369873 .05444336 .44599916 .013458252 .36799623 .013458252Z"/>
<path id="font_3_1" d="M.30899049 .31378175H.47599793C.6380005 .31378175 .769989 .42474366 .769989 .5306854 .769989 .6096344 .69898989 .6826172 .56799319 .6826172H.23799134C.21998596 .6826172 .20799256 .6826172 .20799256 .6646118 .20799256 .6516113 .21699524 .6516113 .23799134 .6516113 .24198914 .6516113 .2599945 .6516113 .27598573 .6496124 .29299928 .6476135 .2999878 .6456146 .2999878 .63461306 .2999878 .6296234 .29899598 .6256256 .29599 .614624L.16099549 .07595825C.1519928 .039993287 .1499939 .0309906 .07499695 .0309906 .055999757 .0309906 .04499817 .0309906 .04499817 .0129852299 .04499817 .0019989014 .052993776 0 .05999756 0 .07899475 0 .10398865 .0009918213 .12298584 .0019989014 .15299988 .0029907227 .15499878 .0029907227 .18699646 .0029907227 .21899414 .0029907227 .22099304 .0029907227 .25099183 .0019989014 .2709961 .0009918213 .29699708 0 .31599427 0 .32299806 0 .33599855 0 .33599855 .017990113 .33599855 .0309906 .32598878 .0309906 .30499269 .0309906 .30099488 .0309906 .2829895 .0309906 .2669983 .032989503 .24499512 .035995485 .24398804 .039993287 .24398804 .048980714 .24398804 .051971437 .24398804 .053970338 .24899292 .07196045L.30899049 .31378175M.3809967 .6126251C.3899994 .64860537 .3919983 .6516113 .43399049 .6516113H.5349884C.61299136 .6516113 .6749878 .6276245 .6749878 .55467227 .6749878 .53367617 .6639862 .43972779 .6119995 .39175416 .58999636 .37176515 .5439911 .34179688 .45799256 .34179688H.31298829L.3809967 .6126251Z"/>
<path id="font_3_2" d="M.4119873-.04144287C.4099884-.05241394 .4099884-.06639099 .4099884-.07836914 .4099884-.12634278 .41799928-.19433594 .49699403-.19433594 .6159973-.19433594 .6669922-.015472412 .6669922-.00047302247 .6669922 .0055389406 .6619873 .011520386 .6539917 .011520386 .6459961 .011520386 .6439972 .0045318605 .6409912-.0024719239 .6179962-.070388797 .55999758-.095336917 .522995-.095336917 .47698976-.095336917 .46199037-.06639099 .45199586 .0045318605 .66999819 .09844971 .7579956 .29560853 .7579956 .43276979 .7579956 .59095767 .6519928 .7050781 .49499513 .7050781 .2709961 .7050781 .049987794 .474823 .049987794 .24655152 .049987794 .082458499 .16299439-.022460938 .31399537-.022460938 .35499574-.022460938 .3959961-.013473511 .41299439-.008468628L.4119873-.04144287M.2539978 .01751709C.20799256 .035507204 .14099121 .08746338 .14099121 .21650696 .14099121 .26957704 .1579895 .43077088 .2659912 .55992129 .31799317 .6210022 .4019928 .677063 .48799134 .677063 .58699038 .677063 .6669922 .6039734 .6669922 .46380616 .6669922 .36369325 .6179962 .13743592 .44599916 .041503908 .43699647 .095458988 .41799928 .1484375 .35398866 .1484375 .2979889 .1484375 .24899292 .097457889 .24899292 .04649353 .24899292 .038497926 .25099183 .024520874 .2539978 .01751709M.4149933 .025512696C.40098573 .019515992 .3619995 .0055389406 .32099916 .0055389406 .30799867 .0055389406 .27398683 .0055389406 .27398683 .04649353 .27398683 .083465579 .31098939 .123428348 .35499574 .123428348 .4139862 .123428348 .4149933 .06947327 .4149933 .025512696Z"/>
<path id="font_3_3" d="M.3809967 .6125946C.3869934 .63760378 .3899994 .6476135 .4079895 .65060427 .4169922 .6516113 .44999696 .6516113 .47099305 .6516113 .5499878 .6516113 .6599884 .6516113 .6599884 .5505829 .6599884 .51356509 .644989 .4385376 .58799746 .39552308 .56399539 .3795166 .5139923 .35351563 .43299867 .35351563H.31599427L.3809967 .6125946M.5359955 .33850099C.6719971 .3735199 .7559967 .44953919 .7559967 .53157046 .7559967 .61860659 .6609955 .6826172 .5279999 .6826172H.23799134C.21998596 .6826172 .20799256 .6826172 .20799256 .6646118 .20799256 .6516113 .21699524 .6516113 .23799134 .6516113 .24198914 .6516113 .2599945 .6516113 .27598573 .6496124 .29299928 .6476135 .2999878 .6456146 .2999878 .6345978 .2999878 .62960818 .29899598 .6255951 .29599 .6145935L.16099549 .075531009C.1519928 .039535524 .1499939 .030532837 .07499695 .030532837 .055999757 .030532837 .04499817 .030532837 .04499817 .012527466 .04499817 .0015258789 .052993776-.00047302247 .05999756-.00047302247 .07598877-.00047302247 .10598755 .0005340576 .12298584 .0015258789 .14399719 .002532959 .1459961 .002532959 .18499756 .002532959 .21699524 .002532959 .21899414 .002532959 .24899292 .0015258789 .2689972 .0005340576 .2939911-.00047302247 .31298829-.00047302247 .31999208-.00047302247 .33299256-.00047302247 .33299256 .017532349 .33299256 .030532837 .32299806 .030532837 .3019867 .030532837 .2979889 .030532837 .27999879 .030532837 .2639923 .03253174 .24198914 .03552246 .24099732 .039535524 .24099732 .04852295 .24099732 .05152893 .24099732 .053527833 .24598694 .0715332L.30999757 .32850648H.43299867C.522995 .32850648 .54599 .27650453 .54599 .23851013 .54599 .2315216 .54599 .22451782 .5399933 .20251465 .5159912 .11051941 .5159912 .10151672 .5159912 .08653259 .5159912-.0034637452 .6009979-.022460938 .6519928-.022460938 .7389984-.022460938 .7749939 .07852173 .7749939 .0945282 .7749939 .10151672 .7689972 .10652161 .7619934 .10652161 .7509918 .10652161 .75 .10151672 .74598696 .089523319 .72898867 .037521364 .69200137 .002532959 .6549988 .002532959 .61698916 .002532959 .61499026 .03253174 .61499026 .061523439 .61499026 .08653259 .621994 .14451599 .6230011 .15151978 .625 .16752625 .6299896 .20751953 .6299896 .22251892 .6299896 .2795105 .59399417 .31851197 .5359955 .33850099Z"/>
</defs>
<path transform="matrix(1,0,0,-1,65.75,65.75)" stroke-width=".79701" stroke-linecap="butt" stroke-miterlimit="10" stroke-linejoin="miter" fill="none" stroke="#2471a3" d="M62.36331 0C62.36331 34.44273 34.44273 62.36331 0 62.36331-34.44273 62.36331-62.36331 34.44273-62.36331 0-62.36331-34.44273-34.44273-62.36331 0-62.36331 34.44273-62.36331 62.36331-34.44273 62.36331 0ZM0 0"/>
<use data-text="&#x03b3;" xlink:href="#font_1_1" transform="matrix(6.97385,0,0,-6.97385,108.485,122.7)" fill="#2471a3"/>
<use data-text="2" xlink:href="#font_2_2" transform="matrix(4.98132,0,0,-4.98132,112.67,123.696)" fill="#2471a3"/>
<path transform="matrix(1,0,0,-1,65.75,65.75)" stroke-width=".79701" stroke-linecap="butt" stroke-miterlimit="10" stroke-linejoin="miter" fill="none" stroke="#1b4f72" d="M31.18166 0C31.18166 17.22136 17.22136 31.18166 0 31.18166-17.22136 31.18166-31.18166 17.22136-31.18166 0-31.18166-17.22136-17.22136-31.18166 0-31.18166 17.22136-31.18166 31.18166-17.22136 31.18166 0ZM0 0"/>
<use data-text="&#x03b3;" xlink:href="#font_1_1" transform="matrix(6.97385,0,0,-6.97385,77.304,91.519)" fill="#1b4f72"/>
<use data-text="1" xlink:href="#font_2_1" transform="matrix(4.98132,0,0,-4.98132,81.489,92.515)" fill="#1b4f72"/>
<path transform="matrix(1,0,0,-1,65.75,65.75)" d="M1.64386 0C1.64386 .90788 .90788 1.64386 0 1.64386-.90788 1.64386-1.64386 .90788-1.64386 0-1.64386-.90788-.90788-1.64386 0-1.64386 .90788-1.64386 1.64386-.90788 1.64386 0ZM0 0"/>
<use data-text="O" xlink:href="#font_1_2" transform="matrix(6.97385,0,0,-6.97385,55.956,74.035)"/>
<path transform="matrix(1,0,0,-1,65.75,65.75)" d="M65.1116 0C65.1116 1.51314 63.88496 2.73976 62.37183 2.73976 60.85867 2.73976 59.63205 1.51314 59.63205 0 59.63205-1.51314 60.85867-2.73976 62.37183-2.73976 63.88496-2.73976 65.1116-1.51314 65.1116 0ZM62.37183 0" fill="#b30000" fill-opacity=".3"/>
<use data-text="P" xlink:href="#font_3_1" transform="matrix(8.96638,0,0,-8.96638,131.64099,68.813999)" fill="#b30000"/>
<path transform="matrix(1,0,0,-1,65.75,65.75)" stroke-width=".79701" stroke-linecap="butt" stroke-miterlimit="10" stroke-linejoin="miter" fill="none" stroke="#1e8449" d="M62.37183 0 15.59293 27.00784"/>
<path transform="matrix(1,0,0,-1,65.75,65.75)" stroke-width=".79701" stroke-linecap="butt" stroke-miterlimit="10" stroke-linejoin="miter" fill="none" stroke="#1e8449" d="M62.37183 0 15.59293-27.00784"/>
<path transform="matrix(1,0,0,-1,65.75,65.75)" stroke-width=".79701" stroke-linecap="butt" stroke-miterlimit="10" stroke-linejoin="miter" fill="none" stroke="#1e8449" d="M15.59293 27.00784V-27.00784"/>
<path transform="matrix(1,0,0,-1,65.75,65.75)" d="M62.37183 0 15.59293 27.00784V-27.00784Z" fill="#e8f3ed" fill-opacity=".4"/>
<path transform="matrix(1,0,0,-1,65.75,65.75)" d="M17.78474 27.00784C17.78474 28.21835 16.80344 29.19966 15.59293 29.19966 14.3824 29.19966 13.4011 28.21835 13.4011 27.00784 13.4011 25.79732 14.3824 24.81602 15.59293 24.81602 16.80344 24.81602 17.78474 25.79732 17.78474 27.00784ZM15.59293 27.00784" fill="#1e8449" fill-opacity=".3"/>
<path transform="matrix(1,0,0,-1,65.75,65.75)" d="M17.78474-27.00784C17.78474-25.79732 16.80344-24.81602 15.59293-24.81602 14.3824-24.81602 13.4011-25.79732 13.4011-27.00784 13.4011-28.21835 14.3824-29.19966 15.59293-29.19966 16.80344-29.19966 17.78474-28.21835 17.78474-27.00784ZM15.59293-27.00784" fill="#1e8449" fill-opacity=".3"/>
<use data-text="Q" xlink:href="#font_3_2" transform="matrix(8.96638,0,0,-8.96638,70.554,33.478998)" fill="#1e8449"/>
<use data-text="R" xlink:href="#font_3_3" transform="matrix(8.96638,0,0,-8.96638,70.787,102.404)" fill="#1e8449"/>
</svg>
