<svg xmlns="http://www.w3.org/2000/svg" xmlns:xlink="http://www.w3.org/1999/xlink" xmlns:inkscape="http://www.inkscape.org/namespaces/inkscape" version="1.1" width="184.44" height="154.855" viewBox="0 0 184.44 154.855">
<defs>
<path id="font_1_4" d="M.7579956 .4328766C.7579956 .5910034 .6519928 .7050781 .49499513 .7050781 .2709961 .7050781 .049987794 .47491456 .049987794 .24671936 .049987794 .082595828 .16299439-.022460938 .31399537-.022460938 .5369873-.022460938 .7579956 .2006836 .7579956 .4328766M.32099916 .007537842C.22499085 .007537842 .1459961 .080596927 .1459961 .2217102 .1459961 .27374269 .16299439 .42185975 .24598694 .53596499 .31799317 .6340332 .4139862 .677063 .48799134 .677063 .58599856 .677063 .6669922 .60601809 .6669922 .4709015 .6669922 .40585328 .6409912 .2597351 .5569916 .14663697 .48199464 .046569826 .3899994 .007537842 .32099916 .007537842Z"/>
<path id="font_1_5" d="M.5079956 .38276673C.5329895 .40675355 .59098818 .47071839 .61499026 .49569703 .625 .5056915 .6499939 .53167727 .6599884 .54267886 .7220001 .6056366 .7619934 .6456146 .84599307 .6516113 .8580017 .65260317 .86898806 .6536102 .86898806 .6696167 .86898806 .6736145 .8659973 .6826172 .8549957 .6826172 .848999 .6826172 .8149872 .680603 .8089905 .680603 .7999878 .6796112 .7769928 .6796112 .7609863 .6796112 .7429962 .6796112 .723999 .680603 .70599368 .680603 .6879883 .680603 .66799929 .6826172 .651001 .6826172 .644989 .6826172 .6319885 .6826172 .6319885 .6646118 .6319885 .65260317 .6439972 .6516113 .6459961 .6516113 .6539917 .65060427 .6839905 .64860537 .6839905 .6226196 .6839905 .6056366 .6609955 .5816498 .6599884 .5806427L.49598695 .40975953 .40699769 .6096344C.4019928 .6196289 .4019928 .6216278 .4019928 .6226196 .4019928 .6276245 .41799928 .64860537 .46099855 .6516113 .46598817 .6516113 .47799684 .65260317 .47799684 .6696167 .47799684 .6786041 .47099305 .6826172 .46299745 .6826172 .44299317 .6826172 .41999818 .680603 .3999939 .680603 .37998963 .680603 .3600006 .6796112 .33898927 .6796112 .30599977 .6796112 .3039856 .6796112 .27999879 .680603L.22499085 .6826172C.22099304 .6826172 .20599365 .6826172 .20599365 .6646118 .20599365 .6516113 .21798706 .6516113 .22999573 .6516113 .2889862 .6516113 .2939911 .64060977 .30299378 .6206207L.42199708 .35379029C.42199708 .35279847 .42799378 .34179688 .42799378 .34080506 .42799378 .33779908 .29899598 .20388794 .28399659 .18888855 .272995 .17790222 .24699402 .14892578 .23599243 .1379242 .1749878 .07696533 .13598633 .036987306 .051986696 .0309906 .039993287 .02999878 .0289917 .0289917 .0289917 .0129852299 .0289917 .0069885256 .032989503 0 .042999269 0 .04899597 0 .08299255 .0019989014 .08898926 .0019989014 .09799194 .0029907227 .12098694 .0029907227 .13699341 .0029907227 .15499878 .0029907227 .17399597 .0019989014 .19198609 .0019989014 .20999146 .0019989014 .22898865 0 .24598694 0 .25099183 0 .2659912 0 .2659912 .017990113 .2659912 .02999878 .2539978 .0309906 .2519989 .0309906 .24398804 .03199768 .21398926 .033996583 .21398926 .05996704 .21398926 .07595825 .22599793 .08895874 .25698854 .12193298L.33399964 .20088196 .3880005 .2568512C.4059906 .27583314 .43199159 .30282594 .43998719 .31282044L.5479889 .07296753C.5529938 .06297302 .5529938 .06097412 .5529938 .05996704 .5529938 .054977418 .5369873 .033996583 .49398805 .0309906 .4889984 .0309906 .47698976 .02999878 .47698976 .0129852299 .47698976 .0039978029 .48399354 0 .49198915 0 .5119934 0 .5349884 .0019989014 .5549927 .0019989014 .57499697 .0019989014 .59498599 .0029907227 .6159973 .0029907227 .6489868 .0029907227 .651001 .0029907227 .6749878 .0019989014L.7299957 0C.73399356 0 .7489929 0 .7489929 .017990113 .7489929 .0309906 .7369995 .0309906 .72499087 .0309906 .66600039 .0309906 .6609955 .041992189 .6519928 .061965944L.5079956 .38276673Z"/>
<path id="font_1_6" d="M.61499026 .56466677C.68699648 .6456146 .7279968 .64860537 .769989 .6516113 .7779999 .65260317 .7819977 .66160586 .7819977 .6696167 .7819977 .6776123 .776001 .6826172 .7689972 .6826172 .7669983 .6826172 .7369995 .6796112 .68699648 .6796112 .6549988 .6796112 .6199951 .6826172 .58898928 .6826172 .58399966 .6826172 .57099917 .6826172 .57099917 .6646118 .57099917 .65260317 .58200076 .6516113 .58799746 .6516113 .60899356 .6496124 .6199951 .64260867 .6199951 .6296234 .6199951 .6116333 .59199526 .5816498 .59098818 .5796509L.35299684 .31381227 .23599243 .6106262C.22999573 .62461856 .22999573 .62661746 .22999573 .62861636 .22999573 .6516113 .27799989 .6516113 .2869873 .6516113 .2999878 .6516113 .31199647 .6516113 .31199647 .6696167 .31199647 .6796112 .30299378 .6826172 .29599 .6826172 .27598573 .6826172 .25299073 .680603 .23298645 .680603 .21199036 .680603 .17199707 .6796112 .17098999 .6796112 .13798523 .6796112 .13598633 .6796112 .11199951 .680603 .09599304 .6816101 .07299805 .6826172 .056991579 .6826172 .051986696 .6826172 .037994386 .6826172 .037994386 .6646118 .037994386 .6516113 .04899597 .6516113 .06098938 .6516113 .11999512 .6516113 .12399292 .6416168 .1329956 .6186218L.2630005 .28782655C.2679901 .2748413 .2679901 .2728424 .2679901 .27183534 .2679901 .26783753 .22799683 .107940677 .22299195 .08995056 .20999146 .035995485 .20899964 .03199768 .12998963 .0309906 .11399841 .0309906 .102996829 .0309906 .102996829 .0129852299 .102996829 .0039978029 .10998535 0 .117996219 0 .13398743 0 .1639862 .0009918213 .18099976 .0019989014 .20199585 .0029907227 .20399475 .0029907227 .24299622 .0029907227 .2749939 .0029907227 .2769928 .0029907227 .30699159 .0019989014 .32699586 .0009918213 .35198976 0 .37098695 0 .37799073 0 .3909912 0 .3909912 .017990113 .3909912 .0309906 .3809967 .0309906 .3600006 .0309906 .35598756 .0309906 .33799745 .0309906 .32199098 .032989503 .2999878 .035995485 .29899598 .039993287 .29899598 .048980714 .29899598 .05596924 .30699159 .08795166 .31199647 .10694885L.32899476 .17790222C.34298707 .22886658 .34298707 .23086548 .35299684 .27383424 .35598756 .2768402 .35798646 .27783204 .3639984 .28483583L.61499026 .56466677Z"/>
<path id="font_2_2" d="M.1499939 .3274536C.1499939 .40945436 .15699768 .48303224 .19499207 .543869 .22898865 .5978699 .2829895 .63505557 .34700013 .63505557 .3769989 .63505557 .4169922 .62701418 .43699647 .5998688 .4119873 .5978699 .3909912 .5808716 .3909912 .5518799 .3909912 .5268707 .4079895 .5048828 .43798829 .5048828 .46798707 .5048828 .48599244 .5248718 .48599244 .5538788 .48599244 .6119385 .44400025 .6640625 .34498597 .6640625 .20098877 .6640625 .053985597 .5318756 .053985597 .3174591 .053985597 .05845642 .17599488-.01953125 .28599549-.01953125 .4079895-.01953125 .5139923 .07345581 .5139923 .20445252 .5139923 .33145143 .41299439 .42546083 .29599 .42546083 .21598816 .42546083 .17199707 .37245179 .1499939 .3274536M.28599549 .012466431C.23599243 .012466431 .19699097 .04145813 .17599488 .08546448 .16099549 .11546326 .15299988 .16545105 .15299988 .22544861 .15299988 .32244874 .21099854 .39746095 .29100038 .39746095 .33699037 .39746095 .36799623 .37945558 .3929901 .342453 .4169922 .30445863 .41799928 .26245118 .41799928 .20445252 .41799928 .14746094 .41799928 .10545349 .3909912 .066467288 .36698915 .031463624 .33499146 .012466431 .28599549 .012466431Z"/>
<path id="font_2_1" d="M.5159912 .31925965C.5159912 .42918397 .5029907 .50813296 .45700074 .5780945 .42599488 .62405398 .3639984 .6640625 .28399659 .6640625 .051986696 .6640625 .051986696 .39120484 .051986696 .31925965 .051986696 .2472992 .051986696-.01953125 .28399659-.01953125 .5159912-.01953125 .5159912 .2472992 .5159912 .31925965M.28399659 .008468628C.23799134 .008468628 .1769867 .035446168 .15699768 .117385867 .14299011 .17634583 .14299011 .25830079 .14299011 .33224488 .14299011 .40519715 .14299011 .4811554 .1579895 .53611758 .1789856 .6150665 .24299622 .63604739 .28399659 .63604739 .33799745 .63604739 .3899994 .6030731 .4079895 .545105 .42399598 .4911499 .4249878 .41918946 .4249878 .33224488 .4249878 .25830079 .4249878 .18434143 .4119873 .12138367 .3919983 .030441285 .32398988 .008468628 .28399659 .008468628Z"/>
<path id="font_1_1" d="M.18199158 .116867069C.1329956 .036987306 .08898926 .033981325 .04899597 .0309906 .041992189 .02999878 .036987306 .021987915 .036987306 .0129852299 .036987306 .0069885256 .040985109 0 .050994874 0 .069992069 0 .116989139 .0029907227 .13598633 .0029907227 .1579895 .0029907227 .21199036 0 .23399353 0 .23999024 0 .25299073 0 .25299073 .017990113 .25299073 .02999878 .24099732 .0309906 .23799134 .0309906 .22898865 .03199768 .19099427 .033981325 .19099427 .063949588 .19099427 .077926639 .20199585 .09689331 .20498657 .101882938L.28399659 .23068238H.54499819C.5479889 .2077179 .5509949 .17378235 .55400088 .14881897 .55799868 .10987854 .56399539 .06593323 .56399539 .062942508 .56399539 .047973634 .5499878 .0309906 .49198915 .0309906 .48199464 .0309906 .46899415 .0309906 .46899415 .0129852299 .46899415 .0019989014 .47698976 0 .48399354 0 .5029907 0 .5269928 .0019989014 .5469971 .0019989014 .5669861 .0019989014 .59098818 .0029907227 .6069946 .0029907227 .6399994 .0029907227 .6419983 .0029907227 .66600039 .0019989014 .6819916 .0009918213 .7049866 0 .72099307 0 .72698977 0 .73999026 0 .73999026 .017990113 .73999026 .0309906 .72898867 .0309906 .71699526 .0309906 .6569977 .0309906 .6559906 .037979127 .6529999 .06694031L.58299258 .68881228C.58099368 .7108154 .5799866 .7158203 .5629883 .7158203 .548996 .7158203 .54299929 .7088165 .5349884 .69581606L.18199158 .116867069M.30299378 .26168824 .5049896 .5917816 .5419922 .26168824H.30299378Z"/>
<path id="font_1_2" d="M.16299439 .07595825C.1539917 .039993287 .1519928 .0309906 .07699585 .0309906 .057998659 .0309906 .04699707 .0309906 .04699707 .0129852299 .04699707 0 .056991579 0 .07499695 0H.43899537C.6009979 0 .7200012 .11793518 .7200012 .21485901 .7200012 .28581239 .6609955 .34576417 .56199648 .35676576 .6759949 .37875367 .772995 .4547119 .772995 .54367068 .772995 .6216278 .70098879 .6826172 .58200076 .6826172H.23999024C.22200012 .6826172 .20999146 .6826172 .20999146 .6646118 .20999146 .6516113 .21899414 .6516113 .23999024 .6516113 .24398804 .6516113 .2619934 .6516113 .27799989 .6496124 .29499818 .6476135 .3019867 .6456146 .3019867 .63461306 .3019867 .6296234 .30099488 .6256256 .2979889 .614624L.16299439 .07595825M.31900025 .36776734 .37998963 .6126251C.3889923 .64860537 .3909912 .6516113 .43299867 .6516113H.56799319C.6719971 .6516113 .68099978 .5726471 .68099978 .54766848 .68099978 .45870973 .58799746 .36776734 .47499085 .36776734H.31900025M.2709961 .0309906C.25698854 .0309906 .25498963 .0309906 .25099183 .03199768 .24099732 .032989503 .23799134 .033996583 .23799134 .040985109 .23799134 .04397583 .23799134 .04597473 .24299622 .063964847L.31199647 .34277345H.5C.56199648 .34277345 .625 .31578065 .625 .22485352 .625 .12593079 .5339966 .0309906 .4139862 .0309906H.2709961Z"/>
<path id="font_1_3" d="M.94699099 .6056366C.95599368 .64260867 .95899966 .6516113 1.0369873 .6516113 1.0529938 .6516113 1.0639954 .6516113 1.0639954 .6696167 1.0639954 .6826172 1.0540009 .6826172 1.0349884 .6826172H.9039917C.8789978 .6826172 .875 .6826172 .86299136 .66360476L.49398805 .093948367 .41099549 .6566162C.40699769 .6826172 .4059906 .6826172 .37799073 .6826172H.24099732C.22299195 .6826172 .21099854 .6826172 .21099854 .6646118 .21099854 .6516113 .22099304 .6516113 .24099732 .6516113 .24499512 .6516113 .2630005 .6516113 .2789917 .6496124 .2979889 .6476135 .30299378 .64460757 .30299378 .63461306 .30299378 .6296234 .3019867 .6256256 .29899598 .614624L.17199707 .10594177C.15899658 .053985597 .1309967 .033996583 .06498718 .0309906 .06199646 .0309906 .04798889 .02999878 .04798889 .0129852299 .04798889 .010986328 .04798889 0 .06199646 0 .07398987 0 .09899902 .0009918213 .11199951 .0019989014 .12799073 .0029907227 .12998963 .0029907227 .1619873 .0029907227 .18699646 .0029907227 .18899536 .0029907227 .21299744 .0019989014 .22898865 .0019989014 .25 0 .2649994 0 .269989 0 .2829895 0 .2829895 .017990113 .2829895 .02999878 .27198792 .0309906 .2630005 .0309906 .21598816 .03199768 .19799805 .04698181 .19799805 .07395935 .19799805 .080963138 .19898987 .081954959 .20199585 .095947269L.33699037 .6396179H.33799745L.42900086 .025985718C.43099977 .009994507 .43299867 0 .44599916 0 .45799256 0 .46398927 .009994507 .46998597 .018997193L.8769989 .64660647H.8779907L.7350006 .07595825C.7259979 .039993287 .723999 .0309906 .6489868 .0309906 .6309967 .0309906 .61898806 .0309906 .61898806 .0129852299 .61898806 .0039978029 .6259918 0 .6339874 0 .6459961 0 .68499758 .0009918213 .69699099 .0019989014 .71199038 .0029907227 .7369995 .0029907227 .7569885 .0029907227 .7599945 .0029907227 .7999878 .0019989014 .82099917 .0019989014 .84098818 .0019989014 .86299136 0 .8819885 0 .8880005 0 .901001 0 .901001 .017990113 .901001 .0309906 .8909912 .0309906 .8699951 .0309906 .8659973 .0309906 .84799197 .0309906 .83200076 .032989503 .80999758 .035995485 .8089905 .039993287 .8089905 .048980714 .8089905 .05796814 .8109894 .065963748 .8129883 .07296753L.94699099 .6056366Z"/>
<path id="font_3_3" d="M1.0209961 .6016388C1.0299988 .63861086 1.0319977 .64660647 1.1059876 .64660647 1.1269989 .64660647 1.1399994 .64660647 1.1399994 .66760256 1.1399994 .6826172 1.1279907 .6826172 1.1100006 .6826172H.973999C.94499209 .6826172 .94400027 .6816101 .93099978 .6626129L.54499819 .09295654 .44599916 .65560916C.44099427 .6816101 .44099427 .6826172 .41099549 .6826172H.2679901C.24798584 .6826172 .23498535 .6826172 .23498535 .660614 .23498535 .64660647 .24699402 .64660647 .2689972 .64660647 .2849884 .64660647 .2889862 .64660647 .30699159 .64460757 .32699586 .64260867 .32899476 .64060977 .32899476 .63061526 .32899476 .6296234 .32899476 .6236267 .32499696 .6086426L.19898987 .10694885C.18998719 .07296753 .1749878 .038986207 .09498596 .035995485 .08699036 .035995485 .07398987 .034988405 .07398987 .01399231 .07398987 .0129852299 .07499695 0 .08898926 0 .11898804 0 .16099549 .0039978029 .19299317 .0039978029 .21699524 .0039978029 .2749939 0 .29899598 0 .3039856 0 .31900025 0 .31900025 .021987915 .31900025 .034988405 .30599977 .035995485 .29699708 .035995485 .23298645 .037994386 .23298645 .0639801 .23298645 .07797241 .23298645 .081970218 .23298645 .08695984 .23699951 .10295105L.36999513 .63461306H.37098695L.47799684 .026992798C.48098756 .008987427 .48298646 0 .49798585 0 .5119934 0 .519989 .010986328 .5269928 .021987915L.94699099 .64460757 .94799807 .6436157 .8069916 .07797241C.798996 .04399109 .7969971 .035995485 .71899417 .035995485 .70098879 .035995485 .68899539 .035995485 .68899539 .01399231 .68899539 .0129852299 .68899539 0 .7049866 0 .723999 0 .746994 .0029907227 .7669983 .0029907227 .7869873 .0029907227 .80999758 .0039978029 .8299866 .0039978029 .8580017 .0039978029 .92900088 0 .95700076 0 .96299746 0 .9779968 0 .9779968 .021987915 .9779968 .035995485 .96598818 .035995485 .94599917 .035995485 .94499209 .035995485 .9259949 .035995485 .9079895 .037994386 .8849945 .039993287 .8849945 .04298401 .8849945 .052978517 .8849945 .05897522 .8880005 .06896973 .8889923 .07496643L1.0209961 .6016388Z"/>
<path id="font_3_1" d="M.20599365 .11984253C.17098999 .06594849 .13899231 .039978029 .07998657 .035995485 .069992069 .034988405 .056991579 .034988405 .056991579 .01499939 .056991579 .0039978029 .06599426 0 .070999149 0 .09700012 0 .12998963 .0039978029 .15699768 .0039978029 .18899536 .0039978029 .22999573 0 .2599945 0 .2649994 0 .27999879 0 .27999879 .021987915 .27999879 .034988405 .2669983 .035995485 .2630005 .035995485 .25498963 .036987306 .21899414 .038986207 .21899414 .06594849 .21899414 .077926639 .22898865 .09489441 .23399353 .103881839L.31399537 .22766114H.59999087L.6239929 .061950685C.6199951 .051971437 .6139984 .035995485 .5549927 .035995485 .54299929 .035995485 .5289917 .035995485 .5289917 .01399231 .5289917 .009994507 .5319977 0 .54499819 0 .57398989 0 .644989 .0039978029 .673996 .0039978029 .69200137 .0039978029 .71499636 .0029907227 .73298647 .0029907227 .7509918 .0019989014 .7719879 0 .7899933 0 .8029938 0 .80999758 .0079956059 .80999758 .020996094 .80999758 .035995485 .7979889 .035995485 .7819977 .035995485 .723999 .035995485 .7220001 .04397583 .71899417 .06793213L.6309967 .6848755C.6279907 .70588687 .6259918 .7128906 .6069946 .7128906 .58799746 .7128906 .58200076 .70388796 .57299807 .6898804L.20599365 .11984253M.33799745 .26367188 .5479889 .5908356 .59498599 .26367188H.33799745Z"/>
<path id="font_3_2" d="M.18998719 .07797241C.18099976 .04399109 .1789856 .035995485 .101989749 .035995485 .084991458 .035995485 .07199097 .035995485 .07199097 .01499939 .07199097 0 .083999637 0 .101989749 0H.4889984C.6569977 0 .7859955 .11494446 .7859955 .21388245 .7859955 .28485108 .72099307 .34580995 .61499026 .35681153 .73599246 .37879945 .83699038 .4547577 .83699038 .54067996 .83699038 .6166382 .7599945 .6826172 .6299896 .6826172H.2659912C.24699402 .6826172 .23399353 .6826172 .23399353 .660614 .23399353 .64660647 .24598694 .64660647 .2659912 .64660647 .2669983 .64660647 .28599549 .64660647 .3039856 .64460757 .32499696 .64260867 .32699586 .64060977 .32699586 .63061526 .32699586 .62861636 .32699586 .6236267 .32299806 .6086426L.18998719 .07797241M.34999085 .3688202 .41099549 .6126404C.4189911 .6436157 .41999818 .64660647 .46199037 .64660647H.6139984C.71598818 .64660647 .7389984 .57966616 .7389984 .541687 .7389984 .46073915 .647995 .3688202 .5139923 .3688202H.34999085M.3019867 .035995485C.2709961 .035995485 .269989 .036987306 .269989 .04598999 .269989 .04698181 .269989 .051986696 .27398683 .066970828L.34298707 .3408203H.5549927C.6489868 .3408203 .68499758 .27885438 .68499758 .22088623 .68499758 .12194824 .58399966 .035995485 .46299745 .035995485H.3019867Z"/>
</defs>
<path transform="matrix(1,0,0,-1,17.097,138.899)" stroke-width=".79701" stroke-linecap="butt" stroke-miterlimit="10" stroke-linejoin="miter" fill="none" stroke="#7f807f" d="M0 0H140.93703"/>
<path transform="matrix(1,0,0,-1,158.43254,138.899)" stroke-width=".79701" stroke-linecap="round" stroke-linejoin="round" fill="none" stroke="#7f807f" d="M-2.55046 3.11095C-2.0845 1.24435-1.04614 .36295 0 0-1.04614-.36295-2.0845-1.24435-2.55046-3.11095"/>
<use data-text="O" xlink:href="#font_1_4" transform="matrix(8.96638,0,0,-8.96638,162.549,141.962)" fill="#7f807f"/>
<use data-text="X" xlink:href="#font_1_5" transform="matrix(8.96638,0,0,-8.96638,169.81175,141.962)" fill="#7f807f"/>
<path transform="matrix(1,0,0,-1,17.097,138.899)" stroke-width=".79701" stroke-linecap="butt" stroke-miterlimit="10" stroke-linejoin="miter" fill="none" stroke="#7f807f" d="M0 0 70.46852 122.0554"/>
<path transform="matrix(.49998,-.86601,-.86601,-.49998,87.76477,16.49849)" stroke-width=".79701" stroke-linecap="round" stroke-linejoin="round" fill="none" stroke="#7f807f" d="M-2.55046 3.11095C-2.0845 1.24435-1.04614 .36295 0 0-1.04614-.36295-2.0845-1.24435-2.55046-3.11095"/>
<use data-text="O" xlink:href="#font_1_4" transform="matrix(8.96638,0,0,-8.96638,80.631,12.436005)" fill="#7f807f"/>
<use data-text="Y" xlink:href="#font_1_6" transform="matrix(8.96638,0,0,-8.96638,87.89377,12.436005)" fill="#7f807f"/>
<use data-text="O" xlink:href="#font_1_4" transform="matrix(8.96638,0,0,-8.96638,6.309,148.546)"/>
<path transform="matrix(1,0,0,-1,17.097,138.899)" stroke-width=".3985" stroke-linecap="butt" stroke-miterlimit="10" stroke-linejoin="miter" fill="none" stroke="#000000" d="M22.67752 0C22.67752 8.10092 18.35419 15.58907 11.33876 19.63936"/>
<use data-text="6" xlink:href="#font_2_2" transform="matrix(6.97385,0,0,-6.97385,32.969,129.808)"/>
<use data-text="0" xlink:href="#font_2_1" transform="matrix(6.97385,0,0,-6.97385,36.937124,129.808)"/>
<path transform="matrix(1,0,0,-1,17.097,138.899)" d="M45.0109 0C45.0109 1.37558 43.89578 2.49069 42.5202 2.49069 41.14462 2.49069 40.02951 1.37558 40.02951 0 40.02951-1.37558 41.14462-2.49069 42.5202-2.49069 43.89578-2.49069 45.0109-1.37558 45.0109 0ZM42.5202 0" fill="#2471a3"/>
<path transform="matrix(1,0,0,-1,17.097,138.899)" d="M87.53111 0C87.53111 1.37558 86.416 2.49069 85.04042 2.49069 83.66484 2.49069 82.54973 1.37558 82.54973 0 82.54973-1.37558 83.66484-2.49069 85.04042-2.49069 86.416-2.49069 87.53111-1.37558 87.53111 0ZM85.04042 0" fill="#2471a3"/>
<use data-text="A" xlink:href="#font_1_1" transform="matrix(8.96638,0,0,-8.96638,56.162,148.546)" fill="#2471a3"/>
<use data-text="B" xlink:href="#font_1_2" transform="matrix(8.96638,0,0,-8.96638,98.427,148.546)" fill="#2471a3"/>
<path transform="matrix(1,0,0,-1,17.097,138.899)" d="M23.7508 36.82367C23.7508 38.19925 22.63568 39.31436 21.2601 39.31436 19.88452 39.31436 18.76941 38.19925 18.76941 36.82367 18.76941 35.44809 19.88452 34.33298 21.2601 34.33298 22.63568 34.33298 23.7508 35.44809 23.7508 36.82367ZM21.2601 36.82367" fill="#b30000" fill-opacity=".3"/>
<use data-text="M" xlink:href="#font_1_3" transform="matrix(8.96638,0,0,-8.96638,24.966,98.556)" fill="#b30000"/>
<path transform="matrix(1,0,0,-1,17.097,138.899)" stroke-width=".79701" stroke-linecap="butt" stroke-miterlimit="10" stroke-linejoin="miter" fill="none" stroke="#1e8449" d="M21.2601 36.82367 42.5202 0"/>
<path transform="matrix(1,0,0,-1,17.097,138.899)" stroke-width=".79701" stroke-linecap="butt" stroke-miterlimit="10" stroke-linejoin="miter" fill="none" stroke="#1b4f72" d="M21.2601 36.82367 85.04042 0"/>
<use data-text="M" xlink:href="#font_3_3" transform="matrix(6.97385,0,0,-6.97385,41.819,116.96801)" fill="#1e8449"/>
<use data-text="A" xlink:href="#font_3_1" transform="matrix(6.97385,0,0,-6.97385,50.159727,116.96801)" fill="#1e8449"/>
<use data-text="M" xlink:href="#font_3_3" transform="matrix(6.97385,0,0,-6.97385,73.767,122.87001)" fill="#1b4f72"/>
<use data-text="B" xlink:href="#font_3_2" transform="matrix(6.97385,0,0,-6.97385,82.10772,122.87001)" fill="#1b4f72"/>
</svg>
