<svg xmlns="http://www.w3.org/2000/svg" xmlns:xlink="http://www.w3.org/1999/xlink" xmlns:inkscape="http://www.inkscape.org/namespaces/inkscape" version="1.1" width="246.334" height="146.917" viewBox="0 0 246.334 146.917">
<defs>
<path id="font_1_5" d="M.33399964 .30233766C.33999635 .32835389 .36299134 .42037965 .43299867 .42037965 .43798829 .42037965 .46199037 .42037965 .48298646 .40734864 .45498658 .402359 .43499757 .37734986 .43499757 .35334779 .43499757 .33735658 .44599916 .31835938 .47299195 .31835938 .49499513 .31835938 .5269928 .3363495 .5269928 .37635804 .5269928 .42837525 .46798707 .4423828 .43399049 .4423828 .37599183 .4423828 .34098817 .38935853 .32899476 .36634828 .3039856 .43237306 .25 .4423828 .22099304 .4423828 .116989139 .4423828 .05999756 .3133545 .05999756 .28834535 .05999756 .27833558 .069992069 .27833558 .07199097 .27833558 .07998657 .27833558 .08299255 .28033448 .084991458 .28933717 .11898804 .39535523 .18499756 .42037965 .21899414 .42037965 .23799134 .42037965 .272995 .4113617 .272995 .35334779 .272995 .32235719 .2559967 .25532533 .21899414 .11528015 .20298767 .053268434 .16799927 .011245728 .12399292 .011245728 .117996219 .011245728 .09498596 .011245728 .07398987 .024276734 .09899902 .029266358 .12098694 .05027771 .12098694 .07827759 .12098694 .105270389 .09899902 .11328125 .083999637 .11328125 .053985597 .11328125 .0289917 .08728027 .0289917 .055267335 .0289917 .009246826 .07899475-.0107421879 .12298584-.0107421879 .18899536-.0107421879 .22499085 .059280397 .22799683 .0652771 .23999024 .028274537 .27598573-.0107421879 .33599855-.0107421879 .43899537-.0107421879 .49598695 .118270877 .49598695 .14328003 .49598695 .1532898 .4869995 .1532898 .48399354 .1532898 .47499085 .1532898 .47299195 .14929199 .47099305 .14228821 .43798829 .03527832 .36999513 .011245728 .33799745 .011245728 .29899598 .011245728 .2829895 .043273927 .2829895 .07727051 .2829895 .09927368 .2889862 .121276859 .2999878 .16529846L.33399964 .30233766Z"/>
<path id="font_1_6" d="M.48599244 .38136292C.48999024 .39537049 .48999024 .39736939 .48999024 .40437318 .48999024 .42237855 .47599793 .43138124 .46099855 .43138124 .45098878 .43138124 .43499757 .42536927 .42599488 .41036988 .42399598 .405365 .41600038 .37435914 .4119873 .35635377 .40499879 .33035279 .397995 .30334474 .3919983 .27633668L.34700013 .09628296C.34298707 .08126831 .2999878 .011245728 .23399353 .011245728 .18299866 .011245728 .17199707 .055267335 .17199707 .0922699 .17199707 .1382904 .18899536 .20030213 .22299195 .28833009 .23899842 .3293457 .24299622 .3403473 .24299622 .36035157 .24299622 .405365 .21099854 .4423828 .16099549 .4423828 .06599426 .4423828 .0289917 .29733277 .0289917 .28833009 .0289917 .27833558 .038986207 .27833558 .040985109 .27833558 .050994874 .27833558 .051986696 .28033448 .056991579 .29634095 .083999637 .3903656 .12399292 .42037965 .1579895 .42037965 .1659851 .42037965 .18299866 .42037965 .18299866 .3883667 .18299866 .36335755 .17298889 .3373413 .1659851 .31834413 .12599182 .21231079 .10798645 .1552887 .10798645 .10827637 .10798645 .019256592 .17098999-.0107421879 .22999573-.0107421879 .2689972-.0107421879 .30299378 .0062561037 .33099366 .03425598 .31799317-.017745972 .30599977-.06674194 .2659912-.11973572 .23999024-.15385437 .20199585-.18309021 .1559906-.18309021 .14199829-.18309021 .09700012-.18005371 .07998657-.14074707 .09599304-.14074707 .10899353-.14074707 .12298584-.1287384 .1329956-.11973572 .14299011-.10673523 .14299011-.08773804 .14299011-.056747438 .115997318-.052734376 .10598755-.052734376 .08299255-.052734376 .049987794-.068740848 .049987794-.11773682 .049987794-.16796875 .09399414-.20507813 .1559906-.20507813 .25898744-.20507813 .3619995-.11373901 .3899994-.00074768069L.48599244 .38136292Z"/>
<path id="font_2_1" d="M.74398806 .2263794C.7599945 .2263794 .7839966 .2263794 .7839966 .25038148 .7839966 .27539063 .7609863 .27539063 .74398806 .27539063H.147995C.13198853 .27539063 .10798645 .27539063 .10798645 .25138856 .10798645 .2263794 .1309967 .2263794 .147995 .2263794H.74398806Z"/>
<path id="font_3_3" d="M.272995 .33428956C.35099793 .33428956 .40699769 .2803192 .40699769 .1733551 .40699769 .04940796 .33499146 .012466431 .2769928 .012466431 .23699951 .012466431 .14898682 .0234375 .10699463 .082351688 .1539917 .084350589 .16499329 .11735535 .16499329 .13835144 .16499329 .17034912 .14099121 .19335938 .10998535 .19335938 .08198547 .19335938 .053985597 .17634583 .053985597 .13534546 .053985597 .041412355 .1579895-.01953125 .2789917-.01953125 .41799928-.01953125 .5139923 .07336426 .5139923 .1733551 .5139923 .2513275 .44999696 .32929994 .33999635 .35229493 .44499208 .39024354 .48298646 .4650879 .48298646 .5260773 .48298646 .60505679 .3919983 .6640625 .2809906 .6640625 .16999817 .6640625 .084991458 .61006167 .084991458 .5300751 .084991458 .49606324 .10699463 .47706605 .13699341 .47706605 .16799927 .47706605 .18798828 .5000763 .18798828 .5280762 .18798828 .5570679 .16799927 .57806399 .13699341 .5800781 .17199707 .62405398 .24099732 .63505557 .27799989 .63505557 .32299806 .63505557 .38598634 .6130676 .38598634 .5260773 .38598634 .48406983 .37199403 .43814088 .34599305 .4072113 .31298829 .36927796 .2849884 .3672943 .23498535 .36428834 .20999146 .3623047 .20799256 .3623047 .20298767 .3612976 .20098877 .3612976 .19299317 .3592987 .19299317 .34829713 .19299317 .33428956 .20199585 .33428956 .21899414 .33428956H.272995Z"/>
<path id="font_3_2" d="M.5049896 .18203736H.47099305C.46798707 .16001892 .45799256 .100997928 .44499208 .09098816 .43699647 .084991458 .3600006 .084991458 .34599305 .084991458H.1619873C.2669983 .17803955 .3019867 .20603943 .3619995 .25306703 .43598939 .312088 .5049896 .374115 .5049896 .46914674 .5049896 .5900879 .39898683 .6640625 .2709961 .6640625 .14698792 .6640625 .06298828 .57710269 .06298828 .4851532 .06298828 .43414308 .10598755 .42915345 .115997318 .42915345 .13999939 .42915345 .16899109 .44615174 .16899109 .48214723 .16899109 .5001526 .1619873 .53515627 .10998535 .53515627 .14099121 .6060791 .20899964 .62805178 .2559967 .62805178 .35598756 .62805178 .4079895 .5501404 .4079895 .46914674 .4079895 .38212586 .34599305 .3130951 .31399537 .27708436L.07299805 .038986207C.06298828 .02999878 .06298828 .027999878 .06298828 0H.47499085L.5049896 .18203736Z"/>
<path id="font_3_1" d="M.33499146 .63612368C.33499146 .6630554 .33299256 .6640625 .30499269 .6640625 .24099732 .6014404 .1499939 .6004486 .10899353 .6004486V.5644531C.1329956 .5644531 .19898987 .5644531 .2539978 .592453V.08203125C.2539978 .04899597 .2539978 .035995485 .1539917 .035995485H.115997318V0C.13398743 .0009918213 .25698854 .0039978029 .2939911 .0039978029 .32499696 .0039978029 .45098878 .0009918213 .47299195 0V.035995485H.43499757C.33499146 .035995485 .33499146 .04899597 .33499146 .08203125V.63612368Z"/>
<path id="font_1_1" d="M.1789856 .114868167C.13899231 .047973634 .099990848 .033981325 .055999757 .0309906 .04399109 .02999878 .034988405 .02999878 .034988405 .010986328 .034988405 .004989624 .039993287 0 .04798889 0 .07499695 0 .10598755 .0029907227 .13398743 .0029907227 .16699219 .0029907227 .20199585 0 .23399353 0 .23999024 0 .25299073 0 .25299073 .018997193 .25299073 .02999878 .24398804 .0309906 .23699951 .0309906 .21398926 .032989503 .18998719 .04096985 .18998719 .06593323 .18998719 .077926639 .19599915 .088897708 .20399475 .102890018L.27999879 .23068238H.5309906C.5329895 .2097168 .5469971 .07392883 .5469971 .063949588 .5469971 .033981325 .49499513 .0309906 .47499085 .0309906 .46099855 .0309906 .45098878 .0309906 .45098878 .010986328 .45098878 0 .46299745 0 .46499635 0 .5059967 0 .548996 .0029907227 .58999636 .0029907227 .61499026 .0029907227 .6779938 0 .7029877 0 .70899966 0 .72099307 0 .72099307 .019989014 .72099307 .0309906 .71099856 .0309906 .69799807 .0309906 .6359863 .0309906 .6359863 .037979127 .6329956 .06694031L.57199099 .691803C.56999209 .71180728 .56999209 .7158203 .5529938 .7158203 .5369873 .7158203 .5329895 .7088165 .5269928 .69880679L.1789856 .114868167M.29899598 .26168824 .49598695 .5917816 .5279999 .26168824H.29899598Z"/>
<path id="font_1_2" d="M.1599884 .07795715C.1499939 .038986207 .147995 .0309906 .068984989 .0309906 .051986696 .0309906 .041992189 .0309906 .041992189 .010986328 .041992189 0 .050994874 0 .068984989 0H.42599488C.58399966 0 .70199587 .11791992 .70199587 .21585083 .70199587 .28778077 .6439972 .3457489 .5469971 .35673524 .651001 .37573243 .7559967 .44970704 .7559967 .5446625 .7559967 .6186218 .6899872 .6826172 .56999209 .6826172H.23399353C.21499634 .6826172 .20498657 .6826172 .20498657 .6626129 .20498657 .6516113 .21398926 .6516113 .23298645 .6516113 .23498535 .6516113 .2539978 .6516113 .2709961 .6496124 .2889862 .6476135 .2979889 .64660647 .2979889 .6336212 .2979889 .6296234 .29699708 .62661746 .2939911 .614624L.1599884 .07795715M.31098939 .36573792 .37298585 .6136322C.38198854 .64860537 .38398744 .6516113 .4269867 .6516113H.55599978C.6439972 .6516113 .6649933 .5926361 .6649933 .5486603 .6649933 .46069337 .57899478 .36573792 .45700074 .36573792H.31098939M.2659912 .0309906C.2519989 .0309906 .25 .0309906 .24398804 .03199768 .23399353 .032989503 .23098755 .033996583 .23098755 .04197693 .23098755 .04498291 .23098755 .04698181 .23599243 .064971927L.30499269 .34375H.49398805C.58999636 .34375 .60899356 .2698059 .60899356 .22683716 .60899356 .12791443 .519989 .0309906 .4019928 .0309906H.2659912Z"/>
<path id="font_1_3" d="M.7599945 .69506838C.7599945 .69807437 .7579956 .7050781 .7489929 .7050781 .74598696 .7050781 .7449951 .70407107 .73399356 .69306948L.6639862 .61602786C.6549988 .6300354 .60899356 .7050781 .49798585 .7050781 .2749939 .7050781 .049987794 .48391725 .049987794 .25172425 .049987794 .08659363 .16799927-.022460938 .32099916-.022460938 .4079895-.022460938 .48399354 .017532349 .5369873 .063583377 .6299896 .14564514 .6469879 .2367096 .6469879 .23971558 .6469879 .24972534 .6369934 .24972534 .6349945 .24972534 .6289978 .24972534 .6239929 .24772644 .621994 .23971558 .61299136 .21069336 .58999636 .13963318 .5209961 .081588748 .45199586 .025543213 .3889923 .008529663 .33699037 .008529663 .24699402 .008529663 .14099121 .060577394 .14099121 .21670532 .14099121 .27374269 .1619873 .43588258 .2619934 .55296328 .32299806 .62402346 .4169922 .67407229 .5059967 .67407229 .60798647 .67407229 .6669922 .5970001 .6669922 .48091126 .6669922 .44088746 .6639862 .43988038 .6639862 .4298706 .6639862 .41986085 .6749878 .41986085 .67900088 .41986085 .69200137 .41986085 .69200137 .42185975 .69699099 .43988038L.7599945 .69506838Z"/>
<path id="font_1_4" d="M.15899658 .07795715C.14898682 .038986207 .14698792 .0309906 .067993167 .0309906 .050994874 .0309906 .039993287 .0309906 .039993287 .011993408 .039993287 0 .04899597 0 .067993167 0H.39898683C.6069946 0 .80400088 .21087647 .80400088 .42974855 .80400088 .5706482 .71899417 .6826172 .56900027 .6826172H.23298645C.21398926 .6826172 .20298767 .6826172 .20298767 .66360476 .20298767 .6516113 .21199036 .6516113 .23199463 .6516113 .24499512 .6516113 .2630005 .65060427 .2749939 .6496124 .29100038 .6476135 .29699708 .64460757 .29699708 .6336212 .29699708 .6296234 .29599 .62661746 .29299928 .614624L.15899658 .07795715M.375 .6136322C.38398744 .64860537 .38598634 .6516113 .42900086 .6516113H.5359955C.6339874 .6516113 .71699526 .5986328 .71699526 .46672059 .71699526 .41775514 .69699099 .25386048 .6119995 .1439209 .58299258 .10694885 .5039978 .0309906 .3809967 .0309906H.2679901C.2539978 .0309906 .2519989 .0309906 .24598694 .03199768 .23599243 .032989503 .23298645 .033996583 .23298645 .041992189 .23298645 .04498291 .23298645 .04698181 .23799134 .064971927L.375 .6136322Z"/>
</defs>
<path transform="matrix(1,0,0,-1,115.441,90.72101)" stroke-width=".3985" stroke-linecap="butt" stroke-miterlimit="10" stroke-linejoin="miter" fill="none" stroke="#000000" d="M-112.25415 0H113.37952"/>
<path transform="matrix(1,0,0,-1,228.82053,90.72101)" d="M1.99252 0-1.19551 1.59401 0 0-1.19551-1.59401"/>
<use data-text="x" xlink:href="#font_1_5" transform="matrix(9.96264,0,0,-9.96264,234.331,98.53001)"/>
<path transform="matrix(1,0,0,-1,115.441,90.72101)" stroke-width=".3985" stroke-linecap="butt" stroke-miterlimit="10" stroke-linejoin="miter" fill="none" stroke="#000000" d="M0-53.00871V60.37079"/>
<path transform="matrix(0,-1,-1,-0,115.441,30.35022)" d="M1.99252 0-1.19551 1.59401 0 0-1.19551-1.59401"/>
<use data-text="y" xlink:href="#font_1_6" transform="matrix(9.96264,0,0,-9.96264,106.679,29.535004)"/>
<path transform="matrix(1,0,0,-1,115.441,90.72101)" stroke-width=".3985" stroke-linecap="butt" stroke-miterlimit="10" stroke-linejoin="miter" fill="none" stroke="#000000" d="M-93.54497 1.8708V-1.8708"/>
<use data-text="&#x2212;" xlink:href="#font_2_1" transform="matrix(6.97385,0,0,-6.97385,16.798005,100.606)"/>
<use data-text="3" xlink:href="#font_3_3" transform="matrix(6.97385,0,0,-6.97385,23.025004,100.606)"/>
<path transform="matrix(1,0,0,-1,115.441,90.72101)" stroke-width=".3985" stroke-linecap="butt" stroke-miterlimit="10" stroke-linejoin="miter" fill="none" stroke="#000000" d="M-62.36331 1.8708V-1.8708"/>
<use data-text="&#x2212;" xlink:href="#font_2_1" transform="matrix(6.97385,0,0,-6.97385,47.979005,100.606)"/>
<use data-text="2" xlink:href="#font_3_2" transform="matrix(6.97385,0,0,-6.97385,54.206007,100.606)"/>
<path transform="matrix(1,0,0,-1,115.441,90.72101)" stroke-width=".3985" stroke-linecap="butt" stroke-miterlimit="10" stroke-linejoin="miter" fill="none" stroke="#000000" d="M-31.18166 1.8708V-1.8708"/>
<use data-text="&#x2212;" xlink:href="#font_2_1" transform="matrix(6.97385,0,0,-6.97385,79.161,100.606)"/>
<use data-text="1" xlink:href="#font_3_1" transform="matrix(6.97385,0,0,-6.97385,85.387,100.606)"/>
<path transform="matrix(1,0,0,-1,115.441,90.72101)" stroke-width=".3985" stroke-linecap="butt" stroke-miterlimit="10" stroke-linejoin="miter" fill="none" stroke="#000000" d="M31.18166 1.8708V-1.8708"/>
<use data-text="1" xlink:href="#font_3_1" transform="matrix(6.97385,0,0,-6.97385,144.636,100.606)"/>
<path transform="matrix(1,0,0,-1,115.441,90.72101)" stroke-width=".3985" stroke-linecap="butt" stroke-miterlimit="10" stroke-linejoin="miter" fill="none" stroke="#000000" d="M62.36331 1.8708V-1.8708"/>
<use data-text="2" xlink:href="#font_3_2" transform="matrix(6.97385,0,0,-6.97385,175.818,100.606)"/>
<path transform="matrix(1,0,0,-1,115.441,90.72101)" stroke-width=".3985" stroke-linecap="butt" stroke-miterlimit="10" stroke-linejoin="miter" fill="none" stroke="#000000" d="M93.54497 1.8708V-1.8708"/>
<use data-text="3" xlink:href="#font_3_3" transform="matrix(6.97385,0,0,-6.97385,206.999,100.606)"/>
<path transform="matrix(1,0,0,-1,115.441,90.72101)" stroke-width=".79701" stroke-linecap="butt" stroke-miterlimit="10" stroke-linejoin="miter" fill="none" stroke="#000000" d="M-93.54497 0C-93.54497 0-92.86603 12.1604-92.60527 16.43106-92.34451 20.70174-91.92633 27.06781-91.66559 30.78006-91.40482 34.49231-90.98663 39.99812-90.72589 43.18642-90.46515 46.37471-90.04695 51.05756-89.7862 53.75903-89.52545 56.46053-89.10725 60.40654-88.84651 62.65688-88.58575 64.90721-88.16754 68.14691-87.9068 69.97792-87.64604 71.80893-87.22784 74.40976-86.9671 75.8535-86.70636 77.29724-86.28818 79.29489-86.0274 80.38356-85.76666 81.4722-85.34848 82.93762-85.08772 83.69981-84.82697 84.46204-84.40878 85.41331-84.14804 85.87706-83.88728 86.34084-83.46909 86.84953-83.20834 87.0423-82.9476 87.23505-82.52939 87.31932-82.26863 87.26639-82.00789 87.21344-81.58969 86.93585-81.32893 86.6607-81.06819 86.38556-80.65 85.75758-80.38925 85.28328-80.1285 84.80896-79.71031 83.89362-79.44955 83.24213-79.18881 82.59062-78.77063 81.39561-78.50987 80.58766-78.24911 79.77971-77.83093 78.36237-77.57018 77.41888-77.30943 76.47539-76.89122 74.84932-76.63048 73.7876-76.36972 72.72589-75.95152 70.92812-75.69078 69.76666-75.43002 68.6052-75.01183 66.66193-74.75108 65.41647-74.49034 64.17104-74.07214 62.10384-73.81139 60.79033-73.55064 59.47684-73.13245 57.31519-72.8717 55.9496-72.61095 54.58401-72.19276 52.35356-71.932 50.94804-71.67125 49.54251-71.25305 47.25218-70.99231 45.81946-70.73157 44.38673-70.31337 42.06825-70.05261 40.62187-69.79187 39.17548-69.37367 36.8453-69.11293 35.3948-68.85217 33.94432-68.43398 31.6114-68.17323 30.16772-67.91248 28.72404-67.49428 26.41644-67.23354 24.98964-66.9728 23.56285-66.5546 21.28561-66.29384 19.88438-66.0331 18.48314-65.6149 16.25815-65.35413 14.89046-65.09338 13.52275-64.6752 11.3545-64.41446 10.02687-64.15369 8.69925-63.7355 6.60164-63.47476 5.32173-63.21402 4.04182-62.79582 2.0274-62.53506 .80217-62.27432-.42305-61.85612-2.34286-61.59537-3.50896-61.33463-4.67505-60.91643-6.4985-60.65569-7.60222-60.39493-8.70592-59.97672-10.42754-59.71597-11.46378-59.45523-12.50002-59.03705-14.10721-58.77628-15.07076-58.51553-16.03432-58.09735-17.51978-57.8366-18.40846-57.57584-19.29715-57.15765-20.66414-56.89691-21.4759-56.63615-22.28769-56.21796-23.52715-55.95721-24.25931-55.69647-24.99149-55.27827-26.10243-55.01752-26.75293-54.75677-27.40346-54.33856-28.38-54.0778-28.94778-53.81706-29.51558-53.39886-30.36057-53.13812-30.84525-52.87737-31.32993-52.45918-32.0397-52.19843-32.44107-51.93767-32.84244-51.5195-33.42055-51.25874-33.73808-50.99799-34.0556-50.5798-34.49602-50.31905-34.72964-50.0583-34.96327-49.6401-35.27081-49.37936-35.4219-49.1186-35.57301-48.7004-35.74904-48.43965-35.81873-48.1789-35.88843-47.7607-35.93518-47.49995-35.92435-47.23921-35.91353-46.82101-35.83022-46.56026-35.7407-46.29951-35.6512-45.88133-35.44554-45.62057-35.27919-45.35982-35.11284-44.94164-34.78285-44.6809-34.5417-44.42012-34.30055-44.00194-33.8546-43.7412-33.5411-43.48045-33.22763-43.06224-32.6655-42.80148-32.28215-42.54074-31.89882-42.12254-31.22845-41.86179-30.77818-41.60104-30.3279-41.18285-29.55127-40.9221-29.03676-40.66135-28.52226-40.24315-27.6452-39.9824-27.06982-39.72166-26.49445-39.30348-25.52275-39.04271-24.88972-38.78197-24.25671-38.36378-23.19492-38.10304-22.50743-37.84227-21.81998-37.42407-20.67287-37.16333-19.93481-36.90257-19.19676-36.48438-17.97304-36.22363-17.18805-35.96289-16.40308-35.5447-15.10576-35.28394-14.27715-35.0232-13.44852-34.605-12.08423-34.34424-11.21588-34.0835-10.34752-33.6653-8.92255-33.40456-8.01855-33.1438-7.11453-32.72562-5.63591-32.46486-4.70035-32.20412-3.76479-31.78592-2.23866-31.52516-1.27557-31.2644-.31248-30.84622 1.25371-30.58546 2.24098-30.32472 3.22823-29.90652 4.83229-29.64578 5.83986-29.38503 6.84744-28.96683 8.47958-28.70609 9.50302-28.44533 10.52644-28.02715 12.18073-27.76639 13.21611-27.50565 14.25148-27.08745 15.92201-26.82669 16.96538-26.56595 18.00874-26.14775 19.68846-25.887 20.73605-25.62624 21.78365-25.20805 23.46799-24.94731 24.51576-24.68654 25.56355-24.26836 27.24377-24.00761 28.28786-23.74687 29.33195-23.32867 31.00395-23.06792 32.04092-22.80717 33.07788-22.38898 34.73576-22.12823 35.76164-21.86748 36.78752-21.44928 38.42355-21.18854 39.43477-20.92778 40.44598-20.50957 42.05666-20.24883 43.04987-19.98808 44.04306-19.5699 45.62154-19.30913 46.5931-19.04839 47.56464-18.6302 49.10535-18.36946 50.05212-18.10869 50.9989-17.6905 52.4981-17.42976 53.41695-17.169 54.3358-16.75081 55.7872-16.49007 56.6747-16.22932 57.5622-15.81113 58.95996-15.55037 59.8135-15.28963 60.66708-14.87141 62.00986-14.61066 62.8267-14.34991 63.64359-13.93172 64.92372-13.67097 65.701-13.41022 66.47826-12.99203 67.69353-12.73128 68.42873-12.47054 69.16394-12.05235 70.30914-11.7916 70.99994-11.53084 71.69072-11.11266 72.76341-10.8519 73.40746-10.59116 74.05148-10.17296 75.0464-9.91222 75.64178-9.65146 76.23715-9.23325 77.15376-8.9725 77.69864-8.71175 78.24352-8.29356 79.07646-8.0328 79.56898-7.77206 80.06152-7.35387 80.80995-7.09311 81.24855-6.83237 81.68713-6.41418 82.3469-6.15343 82.73016-5.89267 83.11343-5.47449 83.68416-5.21375 84.01099-4.95299 84.33783-4.53477 84.81642-4.27403 85.08582-4.01329 85.35521-3.5951 85.74161-3.33434 85.95271-3.0736 86.16382-2.6554 86.45532-2.39465 86.6074-2.1339 86.75949-1.7157 86.95647-1.45496 87.04893-1.1942 87.14142-.776 87.24124-.51526 87.27399-.25452 87.30673 .16362 87.31194 .4244 87.28494 .68513 87.25795 1.10333 87.1662 1.36407 87.07939 1.62485 86.99258 2.04303 86.80556 2.30377 86.65927 2.56453 86.51297 2.98271 86.23035 3.24347 86.02504 3.50421 85.81973 3.92241 85.44327 4.18317 85.17955 4.44391 84.91582 4.8621 84.44559 5.12285 84.12422 5.3836 83.80289 5.8018 83.2413 6.06255 82.86337 6.3233 82.48546 6.7415 81.83363 7.00226 81.40031 7.263 80.967 7.68118 80.22752 7.94194 79.74028 8.2027 79.25302 8.62088 78.42827 8.88162 77.88849 9.14238 77.3487 9.56058 76.44034 9.82132 75.8497 10.08208 75.25908 10.50027 74.27104 10.76102 73.63155 11.02176 72.99205 11.43996 71.92703 11.70071 71.24068 11.96146 70.55434 12.37967 69.4157 12.64043 68.68472 12.90117 67.95374 13.31935 66.74551 13.58011 65.97221 13.84087 65.19891 14.25905 63.92429 14.51979 63.11125 14.78055 62.29822 15.19873 60.96246 15.45949 60.11232 15.72023 59.26218 16.13843 57.86845 16.39917 56.98396 16.65993 56.0995 17.07813 54.65346 17.33887 53.73764 17.59962 52.82181 18.01784 51.32748 18.27858 50.38327 18.53932 49.43907 18.95752 47.90178 19.21828 46.93233 19.47902 45.9629 19.8972 44.38744 20.15797 43.39622 20.41872 42.40501 20.8369 40.79793 21.09764 39.78828 21.35841 38.77864 21.7766 37.14404 22.03734 36.11943 22.29808 35.0948 22.71628 33.43945 22.97704 32.40349 23.23778 31.3675 23.65599 29.69649 23.91675 28.65279 24.17749 27.60909 24.59569 25.92876 24.85643 24.88116 25.11719 23.83356 25.53539 22.15015 25.79613 21.10242 26.05688 20.0547 26.47505 18.37383 26.73582 17.32983 26.99657 16.28587 27.41475 14.6145 27.6755 13.5782 27.93626 12.54189 28.35445 10.88557 28.61519 9.86081 28.87595 8.83606 29.29416 7.20161 29.5549 6.19244 29.81566 5.18327 30.23386 3.5769 30.4946 2.58736 30.75534 1.5978 31.17354 .02635 31.4343-.93967 31.69504-1.90575 32.11324-3.43678 32.37398-4.37538 32.63474-5.31398 33.05292-6.79733 33.31367-7.70453 33.57443-8.6117 33.99261-10.04196 34.25336-10.91376 34.51411-11.78555 34.93231-13.15529 35.19307-13.98787 35.45381-14.82045 35.87201-16.12486 36.13275-16.91447 36.39351-17.70409 36.8117-18.93604 37.07245-19.67883 37.3332-20.42163 37.7514-21.57573 38.01215-22.26811 38.27289-22.96048 38.69109-24.03053 38.95184-24.66896 39.21259-25.30737 39.63077-26.28838 39.89153-26.8695 40.15228-27.45065 40.57048-28.33685 40.83122-28.85739 41.092-29.37791 41.51018-30.16447 41.77092-30.62115 42.03166-31.07784 42.44986-31.75897 42.71062-32.14894 42.97136-32.53888 43.38956-33.11125 43.65031-33.43169 43.91106-33.7521 44.32925-34.21017 44.59-34.45844 44.85075-34.70671 45.26895-35.04732 45.5297-35.22113 45.79044-35.39494 46.20863-35.6141 46.4694-35.7112 46.73015-35.80832 47.14833-35.90256 47.40909-35.92102 47.66985-35.9395 48.08803-35.90614 48.34877-35.84442 48.60953-35.7827 49.02773-35.6194 49.28847-35.47617 49.54921-35.33292 49.9674-35.03778 50.22816-34.81197 50.4889-34.58612 50.9071-34.15768 51.16786-33.84846 51.4286-33.53925 51.84682-32.97624 52.10756-32.58331 52.36832-32.19041 52.7865-31.49315 53.04726-31.01653 53.30801-30.53992 53.7262-29.70808 53.98694-29.14809 54.2477-28.58809 54.66588-27.62303 54.92664-26.98038 55.18738-26.33772 55.60558-25.24036 55.86632-24.51624 56.12708-23.79211 56.54527-22.56532 56.80602-21.7614 57.06677-20.95747 57.48499-19.60365 57.74573-18.72202 58.00647-17.8404 58.42467-16.36392 58.68542-15.40715 58.94617-14.45038 59.36435-12.85509 59.6251-11.82632 59.88586-10.79755 60.30405-9.08954 60.56479-7.99237 60.82556-6.89522 61.24374-5.07996 61.50449-3.91862 61.76523-2.75726 62.18343-.84302 62.44418 .37776 62.70493 1.59857 63.12314 3.60518 63.3839 4.88019 63.64464 6.15521 64.06284 8.2441 64.32358 9.56725 64.58434 10.8904 65.00253 13.05196 65.26328 14.41656 65.52402 15.78116 65.9422 18.00366 66.20297 19.4024 66.46371 20.80113 66.8819 23.07281 67.14265 24.49768 67.40341 25.92255 67.8216 28.22966 68.08234 29.67194 68.3431 31.11424 68.7613 33.44261 69.02205 34.89284 69.28279 36.34306 69.70099 38.67642 69.96175 40.1242 70.22249 41.57198 70.64069 43.89323 70.90144 45.32748 71.16219 46.76173 71.58038 49.0524 71.84113 50.4613 72.10188 51.87021 72.52007 54.11115 72.78082 55.48187 73.04156 56.85263 73.45975 59.02185 73.7205 60.3407 73.98126 61.65955 74.39946 63.73488 74.66022 64.9873 74.92096 66.23975 75.33916 68.19696 75.5999 69.36748 75.86066 70.53798 76.27885 72.35161 76.5396 73.42361 76.80035 74.49564 77.21854 76.13786 77.4793 77.09389 77.74004 78.04991 78.15823 79.49252 78.41899 80.31409 78.67973 81.13564 79.09792 82.34776 79.35867 83.01517 79.61943 83.68257 80.03763 84.63176 80.29837 85.12437 80.55914 85.61697 80.97733 86.26953 81.23807 86.56554 81.49881 86.86154 81.917 87.18138 82.17776 87.25783 82.4385 87.33426 82.8567 87.28378 83.11745 87.1165 83.3782 86.94923 83.7964 86.48857 84.05714 86.05215 84.3179 85.61574 84.73611 84.7032 84.99686 83.97102 85.2576 83.23885 85.67578 81.83096 85.93655 80.77512 86.1973 79.71927 86.61548 77.76988 86.87624 76.36118 87.137 74.95247 87.55518 72.41425 87.81592 70.62213 88.07668 68.83003 88.49487 65.65234 88.75562 63.4448 89.01636 61.23724 89.43456 57.36783 89.69531 54.71156 89.95605 52.05531 90.37427 47.44008 90.63503 44.30025 90.89577 41.16043 91.31396 35.74161 91.5747 32.08183 91.83546 28.42207 92.25365 22.14053 92.5144 17.92314 92.77515 13.70576 93.45409 1.68573 93.45409 1.68573"/>
<use data-text="A" xlink:href="#font_1_1" transform="matrix(9.96264,0,0,-9.96264,33.752,105.03801)"/>
<use data-text="B" xlink:href="#font_1_2" transform="matrix(9.96264,0,0,-9.96264,111.412,66.06202)"/>
<use data-text="C" xlink:href="#font_1_3" transform="matrix(9.96264,0,0,-9.96264,159.85501,103.479007)"/>
<use data-text="D" xlink:href="#font_1_4" transform="matrix(9.96264,0,0,-9.96264,195.36801,83.211009)"/>
</svg>
