<svg xmlns="http://www.w3.org/2000/svg" xmlns:xlink="http://www.w3.org/1999/xlink" xmlns:inkscape="http://www.inkscape.org/namespaces/inkscape" version="1.1" width="155.884" height="83.26" viewBox="0 0 155.884 83.26">
<defs>
<clipPath id="clip_1">
<path transform="matrix(1,0,0,-1,9.517,78.335)" d="M0 0H143.18128V75.14793H0Z"/>
</clipPath>
<path id="font_2_1" d="M.2939911 .64004519C.2939911 .66400149 .2939911 .6660156 .2709961 .6660156 .20899964 .60227969 .12098694 .60227969 .08898926 .60227969V.57128909C.10899353 .57128909 .16799927 .57128909 .21998596 .5972748V.07902527C.21998596 .042999269 .21699524 .0309906 .1269989 .0309906H.09498596V0C.12998963 .0029907227 .21699524 .0029907227 .25698854 .0029907227 .29699708 .0029907227 .38398744 .0029907227 .4189911 0V.0309906H.3869934C.29699708 .0309906 .2939911 .041992189 .2939911 .07902527V.64004519Z"/>
<path id="font_3_1" d="M.19198609 .052993776C.19198609 .08198547 .16799927 .10598755 .13899231 .10598755 .10998535 .10598755 .085998538 .08198547 .085998538 .052993776 .085998538 .023986817 .10998535 0 .13899231 0 .16799927 0 .19198609 .023986817 .19198609 .052993776Z"/>
<path id="font_2_5" d="M.44898988 .20022583C.44898988 .3193512 .36698915 .41944886 .25898744 .41944886 .21099854 .41944886 .16799927 .40345765 .13198853 .36842347V.5637665C.1519928 .5577698 .18499756 .55078127 .21699524 .55078127 .33999635 .55078127 .4099884 .6417694 .4099884 .6547699 .4099884 .6607666 .40699769 .6657715 .3999939 .6657715 .39898683 .6657715 .39698792 .6657715 .3919983 .66278079 .37199403 .6537781 .32299806 .6337738 .2559967 .6337738 .21598816 .6337738 .16999817 .6407776 .12298584 .6617737 .114990238 .66477969 .11299133 .66477969 .11099243 .66477969 .100997928 .66477969 .100997928 .6567688 .100997928 .6407776V.34439088C.100997928 .32637025 .100997928 .31835938 .114990238 .31835938 .12199402 .31835938 .12399292 .32136537 .12799073 .32736207 .13899231 .3433838 .17599488 .39746095 .25698854 .39746095 .30899049 .39746095 .33399964 .35139466 .34199525 .33337403 .35798646 .29632569 .3600006 .25727845 .3600006 .20722962 .3600006 .17222595 .3600006 .11222839 .33599855 .07035828 .31199647 .031463624 .2749939 .0055389406 .22898865 .0055389406 .1559906 .0055389406 .09899902 .058380128 .08198547 .11723328 .084991458 .1162262 .08799744 .115234378 .09899902 .115234378 .13198853 .115234378 .14898682 .14022827 .14898682 .16423035 .14898682 .18823242 .13198853 .21322632 .09899902 .21322632 .084991458 .21322632 .049987794 .20622254 .049987794 .16023255 .049987794 .07434082 .11898804-.022460938 .23098755-.022460938 .34700013-.022460938 .44898988 .073349 .44898988 .20022583Z"/>
<path id="font_2_2" d="M.1269989 .07699585 .23298645 .18003845C.3889923 .31811524 .44898988 .3721466 .44898988 .47216798 .44898988 .5860901 .35899354 .6660156 .23699951 .6660156 .12399292 .6660156 .049987794 .57411196 .049987794 .48516847 .049987794 .4291687 .099990848 .4291687 .102996829 .4291687 .11999512 .4291687 .15499878 .44117738 .15499878 .48217774 .15499878 .5081787 .13699341 .5341797 .101989749 .5341797 .09399414 .5341797 .09199524 .5341797 .08898926 .5331726 .11199951 .59806826 .1659851 .63500979 .22399903 .63500979 .31498719 .63500979 .35798646 .5541382 .35798646 .47216798 .35798646 .39215089 .30799867 .31311036 .25299073 .25108338L.06098938 .036987306C.049987794 .025985718 .049987794 .023986817 .049987794 0H.42099L.44898988 .17404175H.42399598C.4189911 .14402771 .4119873 .1000061 .4019928 .084991458 .394989 .07699585 .32899476 .07699585 .30699159 .07699585H.1269989Z"/>
<path id="font_2_3" d="M.2899933 .35191346C.37199403 .37893678 .42999269 .4490509 .42999269 .52809146 .42999269 .6100464 .34199525 .6660156 .24598694 .6660156 .14498902 .6660156 .068984989 .60606387 .068984989 .53009036 .068984989 .49710084 .09098816 .47808839 .11999512 .47808839 .15098572 .47808839 .17098999 .50009158 .17098999 .5290985 .17098999 .57910159 .12399292 .57910159 .10899353 .57910159 .13999939 .62802127 .20599365 .64100649 .24198914 .64100649 .2829895 .64100649 .33799745 .6190338 .33799745 .5290985 .33799745 .51708987 .33599855 .45906068 .30999757 .4149933 .27999879 .36691285 .24598694 .36390687 .22099304 .36291505 .21299744 .36190797 .18899536 .35990907 .18199158 .35990907 .17399597 .35890199 .16699219 .35791017 .16699219 .3479004 .16699219 .33691407 .17399597 .33691407 .19099427 .33691407H.23498535C.31698609 .33691407 .35398866 .2686615 .35398866 .17037964 .35398866 .034469606 .2849884 .0055389406 .24099732 .0055389406 .19799805 .0055389406 .12298584 .022491456 .08799744 .08137512 .12298584 .07637024 .1539917 .09837341 .1539917 .1363678 .1539917 .17237854 .1269989 .19238281 .09799194 .19238281 .07398987 .19238281 .041992189 .17837525 .041992189 .1343689 .041992189 .043441774 .1349945-.022460938 .24398804-.022460938 .3659973-.022460938 .45700074 .06838989 .45700074 .17037964 .45700074 .252594 .3939972 .33088685 .2899933 .35191346Z"/>
<path id="font_2_4" d="M.2939911 .16503906V.07800293C.2939911 .041992189 .2919922 .0309906 .21798706 .0309906H.19699097V0C.23799134 .0029907227 .2899933 .0029907227 .33198548 .0029907227 .37399293 .0029907227 .4269867 .0029907227 .46798707 0V.0309906H.44699098C.37298585 .0309906 .37098695 .041992189 .37098695 .07800293V.16503906H.47099305V.19602967H.37098695V.65075686C.37098695 .67074587 .37098695 .6767578 .35499574 .6767578 .34599305 .6767578 .34298707 .6767578 .33499146 .66474917L.027999878 .19602967V.16503906H.2939911M.2999878 .19602967H.055999757L.2999878 .5688019V.19602967Z"/>
<path id="font_4_1" d="M.6589966 .23046875C.6759949 .23046875 .69400027 .23046875 .69400027 .25045777 .69400027 .27046205 .6759949 .27046205 .6589966 .27046205H.117996219C.100997928 .27046205 .08299255 .27046205 .08299255 .25045777 .08299255 .23046875 .100997928 .23046875 .117996219 .23046875H.6589966Z"/>
<clipPath id="clip_5">
<path transform="matrix(1,0,0,-1,9.517,78.335)" d="M0 0H143.18128V75.14793H0Z"/>
</clipPath>
<path id="font_6_3" d="M.82899478 .4252472C.82899478 .5821686 .71598818 .703125 .5389862 .703125 .2999878 .703125 .068984989 .47921754 .068984989 .2543335 .068984989 .09341431 .18798828-.01953125 .3600006-.01953125 .59799197-.01953125 .82899478 .19836426 .82899478 .4252472M.36799623 .013458252C.2619934 .013458252 .17199707 .0854187 .17199707 .23335266 .17199707 .28431703 .18598938 .426239 .27799989 .54019168 .34498597 .6221466 .44198609 .67111209 .5309906 .67111209 .6349945 .67111209 .73098757 .6051483 .73098757 .4602356 .73098757 .38726808 .69999697 .24134827 .6069946 .13439942 .5369873 .05444336 .44599916 .013458252 .36799623 .013458252Z"/>
<path id="font_6_2" d="M.20599365 .11984253C.17098999 .06594849 .13899231 .039978029 .07998657 .035995485 .069992069 .034988405 .056991579 .034988405 .056991579 .01499939 .056991579 .0039978029 .06599426 0 .070999149 0 .09700012 0 .12998963 .0039978029 .15699768 .0039978029 .18899536 .0039978029 .22999573 0 .2599945 0 .2649994 0 .27999879 0 .27999879 .021987915 .27999879 .034988405 .2669983 .035995485 .2630005 .035995485 .25498963 .036987306 .21899414 .038986207 .21899414 .06594849 .21899414 .077926639 .22898865 .09489441 .23399353 .103881839L.31399537 .22766114H.59999087L.6239929 .061950685C.6199951 .051971437 .6139984 .035995485 .5549927 .035995485 .54299929 .035995485 .5289917 .035995485 .5289917 .01399231 .5289917 .009994507 .5319977 0 .54499819 0 .57398989 0 .644989 .0039978029 .673996 .0039978029 .69200137 .0039978029 .71499636 .0029907227 .73298647 .0029907227 .7509918 .0019989014 .7719879 0 .7899933 0 .8029938 0 .80999758 .0079956059 .80999758 .020996094 .80999758 .035995485 .7979889 .035995485 .7819977 .035995485 .723999 .035995485 .7220001 .04397583 .71899417 .06793213L.6309967 .6848755C.6279907 .70588687 .6259918 .7128906 .6069946 .7128906 .58799746 .7128906 .58200076 .70388796 .57299807 .6898804L.20599365 .11984253M.33799745 .26367188 .5479889 .5908356 .59498599 .26367188H.33799745Z"/>
<path id="font_7_1" d="M.35499574 .75C.16499329 .61598208 .114990238 .40397645 .114990238 .25097657 .114990238 .10997009 .15699768-.10902405 .35499574-.24902344 .36299134-.24902344 .375-.24902344 .375-.23703003 .375-.23103333 .37199403-.22903443 .36499024-.22203064 .23199463-.10203552 .18299866 .067977908 .18299866 .24996948 .18299866 .519989 .28599549 .65197756 .36799623 .72598269 .37199403 .7299957 .375 .73298647 .375 .73799136 .375 .75 .36299134 .75 .35499574 .75Z"/>
<path id="font_7_4" d="M.272995 .33428956C.35099793 .33428956 .40699769 .2803192 .40699769 .1733551 .40699769 .04940796 .33499146 .012466431 .2769928 .012466431 .23699951 .012466431 .14898682 .0234375 .10699463 .082351688 .1539917 .084350589 .16499329 .11735535 .16499329 .13835144 .16499329 .17034912 .14099121 .19335938 .10998535 .19335938 .08198547 .19335938 .053985597 .17634583 .053985597 .13534546 .053985597 .041412355 .1579895-.01953125 .2789917-.01953125 .41799928-.01953125 .5139923 .07336426 .5139923 .1733551 .5139923 .2513275 .44999696 .32929994 .33999635 .35229493 .44499208 .39024354 .48298646 .4650879 .48298646 .5260773 .48298646 .60505679 .3919983 .6640625 .2809906 .6640625 .16999817 .6640625 .084991458 .61006167 .084991458 .5300751 .084991458 .49606324 .10699463 .47706605 .13699341 .47706605 .16799927 .47706605 .18798828 .5000763 .18798828 .5280762 .18798828 .5570679 .16799927 .57806399 .13699341 .5800781 .17199707 .62405398 .24099732 .63505557 .27799989 .63505557 .32299806 .63505557 .38598634 .6130676 .38598634 .5260773 .38598634 .48406983 .37199403 .43814088 .34599305 .4072113 .31298829 .36927796 .2849884 .3672943 .23498535 .36428834 .20999146 .3623047 .20799256 .3623047 .20298767 .3612976 .20098877 .3612976 .19299317 .3592987 .19299317 .34829713 .19299317 .33428956 .20199585 .33428956 .21899414 .33428956H.272995Z"/>
<path id="font_6_1" d="M.21099854 .015991211C.21099854-.03907776 .20098877-.10321045 .1329956-.16732788 .1289978-.17134094 .12599182-.17434693 .12599182-.17933655 .12599182-.18634033 .13398743-.19334412 .13999939-.19334412 .1539917-.19334412 .23899842-.113220218 .23899842 .005996704 .23899842 .067993167 .21499634 .114990238 .16899109 .114990238 .13598633 .114990238 .11199951 .08898926 .11199951 .057998659 .11199951 .025985718 .1349945 0 .16999817 0 .19400025 0 .20999146 .015991211 .21099854 .015991211Z"/>
<path id="font_7_2" d="M.08999634 .75C.08299255 .75 .070999149 .75 .070999149 .73799136 .070999149 .73298647 .07398987 .7299957 .07998657 .72299197 .1659851 .64398196 .2619934 .5089874 .2619934 .25097657 .2619934 .04197693 .19699097-.11602783 .08898926-.21403504 .07199097-.23103333 .070999149-.23202515 .070999149-.23703003 .070999149-.24203491 .07398987-.24902344 .083999637-.24902344 .09599304-.24902344 .19099427-.18302918 .25698854-.058029176 .30099488 .024978638 .32998658 .13298035 .32998658 .24996948 .32998658 .39097596 .28799439 .60998538 .08999634 .75Z"/>
<path id="font_8_1" d="M.6539917 .67807009C.6569977 .68907168 .6569977 .69107058 .6569977 .69407656 .6569977 .69506838 .6559906 .7050781 .644989 .7050781 .6399994 .7050781 .6389923 .70407107 .6269989 .6900635 .61299136 .6750641 .625 .6880646 .57899478 .6340332 .5419922 .6900635 .48399354 .7050781 .43099977 .7050781 .3019867 .7050781 .17999268 .58999636 .17999268 .46990968 .17999268 .42886354 .19299317 .39483644 .21899414 .3668213 .24798584 .336792 .272995 .3307953 .34498597 .31178285L.42900086 .29075624C.46099855 .27975465 .49398805 .24871826 .49398805 .19168091 .49398805 .1026001 .40899659 .008529663 .30899049 .008529663 .25 .008529663 .1309967 .026550293 .1309967 .15464783 .1309967 .16365052 .1309967 .17866516 .13699341 .20869446 .13899231 .21269226 .13899231 .21469116 .13899231 .21569824 .13899231 .21969605 .13699341 .22669983 .125 .22669983 .11299133 .22669983 .11199951 .2217102 .10798645 .20469666L.054992677-.011474609C.054992677-.017471314 .05999756-.022460938 .066986087-.022460938 .07199097-.022460938 .07299805-.021469117 .085998538-.007461548 .09199524-.00047302247 .12098694 .03555298 .1329956 .048568727 .18499756-.018463135 .2769928-.022460938 .30699159-.022460938 .44499208-.022460938 .5649872 .10661316 .5649872 .23271179 .5649872 .35681153 .46699525 .38183595 .43598939 .38883973L.34498597 .41285707C.31199647 .42086793 .25099183 .4368744 .25099183 .51293948 .25099183 .5890045 .33099366 .677063 .43099977 .677063 .47099305 .677063 .5099945 .6660614 .5379944 .63804629 .57598879 .6010132 .57699587 .54696658 .57699587 .5209503 .57699587 .48791505 .57299807 .47691346 .57299807 .4689026 .57299807 .46089173 .57699587 .45588685 .58699038 .45588685 .59799197 .45588685 .59799197 .457901 .6029968 .47691346L.6539917 .67807009Z"/>
<path id="font_9_2" d="M.70799258 .3310089C.7220001 .3310089 .7409973 .3310089 .7409973 .35202027 .7409973 .37402345 .71899417 .37402345 .70399478 .37402345H.09399414C.07899475 .37402345 .056991579 .37402345 .056991579 .35202027 .056991579 .3310089 .07699585 .3310089 .08999634 .3310089H.70799258M.70399478 .12695313C.71899417 .12695313 .7409973 .12695313 .7409973 .14894104 .7409973 .1699524 .7220001 .1699524 .70799258 .1699524H.08999634C.07699585 .1699524 .056991579 .1699524 .056991579 .14894104 .056991579 .12695313 .07899475 .12695313 .09399414 .12695313H.70399478Z"/>
<path id="font_9_1" d="M.3789978 .31478883V.2927704C.3789978 .04875183 .2679901 .0055389406 .21099854 .0055389406 .18798828 .0055389406 .13699341 .009552002 .11099243 .042755128H.114990238C.12298584 .040740968 .1619873 .04875183 .1619873 .088760379 .1619873 .11476135 .14399719 .13476563 .115997318 .13476563 .08799744 .13476563 .068984989 .116760257 .068984989 .086761478 .068984989 .020629883 .12199402-.022460938 .21199036-.022460938 .34098817-.022460938 .46998597 .10975647 .46998597 .3287964 .46998597 .5999756 .34999085 .6660156 .2599945 .6660156 .14498902 .6660156 .042999269 .5729675 .042999269 .44187928 .042999269 .31478883 .1349945 .21875 .24798584 .21875 .32099916 .21875 .36099244 .27175904 .3789978 .31478883M.25 .2437439C.23399353 .2437439 .18499756 .2437439 .15299988 .30578614 .13398743 .34381105 .13398743 .39283753 .13398743 .4408722 .13398743 .48890687 .13398743 .5389404 .15499878 .57696536 .18499756 .628006 .22399903 .64100649 .2599945 .64100649 .32798768 .64100649 .35499574 .57196047 .35899354 .5619507 .37298585 .52493289 .3769989 .4638977 .3769989 .42086793 .3769989 .34780885 .34399415 .2437439 .25 .2437439Z"/>
<path id="font_6_5" d="M.55599978 .37738038C.55999758 .39138795 .55999758 .39338685 .55999758 .3993988 .55999758 .41940309 .5439911 .43139649 .5269928 .43139649 .5159912 .43139649 .49699403 .4263916 .48599244 .4073944 .48298646 .4013977 .47499085 .36938478 .46998597 .34936524L.44898988 .2663269C.44299317 .24232483 .4119873 .11627197 .40899659 .105270389 .4079895 .105270389 .3639984 .018234253 .28599549 .018234253 .21798706 .018234253 .21798706 .08325195 .21798706 .101257327 .21798706 .1552887 .24099732 .2183075 .2709961 .29534913 .2829895 .32736207 .28799439 .33937074 .28799439 .35636903 .28799439 .40438844 .24699402 .44140626 .19299317 .44140626 .09199524 .44140626 .04699707 .3053589 .04699707 .28834535 .04699707 .27534486 .06098938 .27534486 .06399536 .27534486 .07798767 .27534486 .07899475 .28033448 .08198547 .29135133 .10699463 .3743744 .1499939 .4133911 .18998719 .4133911 .20698548 .4133911 .21499634 .40238954 .21499634 .37838746 .21499634 .3553772 .20599365 .33335877 .20098877 .32035829 .15299988 .19830323 .14299011 .1612854 .14299011 .117263797 .14299011 .1002655 .14299011 .053237916 .18199158 .021224976 .21299744-.004776001 .25498963-.009765625 .28199769-.009765625 .32199098-.009765625 .35798646 .0052337648 .3909912 .035232545 .37799073-.01977539 .36698915-.061782838 .32499696-.11178589 .2979889-.14279175 .2579956-.17610169 .20498657-.17610169 .19799805-.17610169 .15098572-.17610169 .12998963-.14279175 .18399048-.13679505 .18399048-.08879089 .18399048-.08778381 .18399048-.055786134 .15499878-.04978943 .14498902-.04978943 .11999512-.04978943 .08699036-.0697937 .08699036-.11578369 .08699036-.1670227 .1349945-.20410156 .20599365-.20410156 .30699159-.20410156 .42999269-.12579346 .46099855-.00077819827L.55599978 .37738038Z"/>
<path id="font_7_6" d="M.7679901 .3359375C.7829895 .3359375 .80599978 .3359375 .80599978 .3609314 .80599978 .38493348 .7819977 .38493348 .7689972 .38493348H.10699463C.09399414 .38493348 .069992069 .38493348 .069992069 .3609314 .069992069 .3359375 .09298706 .3359375 .10798645 .3359375H.7679901M.7689972 .11602783C.7819977 .11602783 .80599978 .11602783 .80599978 .1400299 .80599978 .16503906 .7829895 .16503906 .7679901 .16503906H.10798645C.09298706 .16503906 .069992069 .16503906 .069992069 .1400299 .069992069 .11602783 .09399414 .11602783 .10699463 .11602783H.7689972Z"/>
<path id="font_6_4" d="M.24899292 .10601807C.23899842 .072021488 .20599365 .018234253 .15499878 .018234253 .1519928 .018234253 .12199402 .018234253 .100997928 .03215027 .14199829 .04508972 .14498902 .08100891 .14498902 .087020877 .14498902 .10900879 .12799073 .12402344 .10499573 .12402344 .07699585 .12402344 .04798889 .10002136 .04798889 .0630188 .04798889 .01322937 .10398865-.009765625 .15299988-.009765625 .19898987-.009765625 .23999024 .019226075 .2649994 .061019899 .2889862 .008224487 .34399415-.009765625 .38398744-.009765625 .49899293-.009765625 .55999758 .11502075 .55999758 .14305115 .55999758 .15608216 .5469971 .15608216 .5439911 .15608216 .5299988 .15608216 .5289917 .15107727 .5249939 .13905335 .5039978 .07002258 .44400025 .018234253 .3880005 .018234253 .34799195 .018234253 .32699586 .04508972 .32699586 .08302307 .32699586 .10900879 .35099793 .20018006 .3789978 .31140138 .39898683 .38841249 .44400025 .4133911 .47698976 .4133911 .47898866 .4133911 .5099945 .4133911 .5309906 .39941407 .49899293 .39041139 .4869995 .3624115 .4869995 .34440614 .4869995 .32240296 .5039978 .30740357 .5269928 .30740357 .5499878 .30740357 .58299258 .32640077 .58299258 .3684082 .58299258 .4243927 .5189972 .44140626 .47898866 .44140626 .42900086 .44140626 .3889923 .4084015 .36698915 .3704071 .34899903 .4113922 .30299378 .44140626 .24699402 .44140626 .1349945 .44140626 .070999149 .31840516 .070999149 .2883606 .070999149 .27534486 .084991458 .27534486 .08799744 .27534486 .100997928 .27534486 .101989749 .27934266 .10699463 .29237367 .13198853 .3704071 .19499207 .4133911 .24398804 .4133911 .2769928 .4133911 .3039856 .395401 .3039856 .3474121 .3039856 .32740785 .2919922 .27734376 .2829895 .24327088L.24899292 .10601807Z"/>
<path id="font_10_1" d="M.58898928 .19296265H.5469971C.5439911 .17396546 .5339966 .11198425 .5179901 .101989749 .5099945 .09599304 .42599488 .09599304 .41099549 .09599304H.21499634C.2809906 .14497376 .35499574 .20095825 .4149933 .24093628 .5049896 .30291749 .58898928 .36090089 .58898928 .46687318 .58898928 .59495547 .46798707 .6660156 .32499696 .6660156 .18998719 .6660156 .09098816 .58795168 .09098816 .48986817 .09098816 .4378662 .1349945 .42886354 .14898682 .42886354 .17599488 .42886354 .20799256 .4468689 .20799256 .48786927 .20799256 .52386477 .18199158 .543869 .15098572 .546875 .1789856 .59194949 .23699951 .6220093 .3039856 .6220093 .40098573 .6220093 .48199464 .5639038 .48199464 .4658661 .48199464 .3818817 .42399598 .31791688 .34700013 .2529297L.102996829 .04598999C.09298706 .036987306 .09199524 .036987306 .09098816 .02999878V0H.55599978L.58898928 .19296265Z"/>
<path id="font_11_1" d="M.74398806 .2263794C.7599945 .2263794 .7839966 .2263794 .7839966 .25038148 .7839966 .27539063 .7609863 .27539063 .74398806 .27539063H.147995C.13198853 .27539063 .10798645 .27539063 .10798645 .25138856 .10798645 .2263794 .1309967 .2263794 .147995 .2263794H.74398806Z"/>
<path id="font_7_3" d="M.5049896 .18203736H.47099305C.46798707 .16001892 .45799256 .100997928 .44499208 .09098816 .43699647 .084991458 .3600006 .084991458 .34599305 .084991458H.1619873C.2669983 .17803955 .3019867 .20603943 .3619995 .25306703 .43598939 .312088 .5049896 .374115 .5049896 .46914674 .5049896 .5900879 .39898683 .6640625 .2709961 .6640625 .14698792 .6640625 .06298828 .57710269 .06298828 .4851532 .06298828 .43414308 .10598755 .42915345 .115997318 .42915345 .13999939 .42915345 .16899109 .44615174 .16899109 .48214723 .16899109 .5001526 .1619873 .53515627 .10998535 .53515627 .14099121 .6060791 .20899964 .62805178 .2559967 .62805178 .35598756 .62805178 .4079895 .5501404 .4079895 .46914674 .4079895 .38212586 .34599305 .3130951 .31399537 .27708436L.07299805 .038986207C.06298828 .02999878 .06298828 .027999878 .06298828 0H.47499085L.5049896 .18203736Z"/>
<path id="font_7_5" d="M.5289917 .1640625V.20005799H.41799928V.64582827C.41799928 .66682437 .41799928 .6738281 .3959961 .6738281 .38398744 .6738281 .37998963 .6738281 .36999513 .65982058L.038986207 .20005799V.1640625H.33299256V.08201599C.33299256 .04800415 .33299256 .035995485 .2519989 .035995485H.22499085V0C.2749939 .0019989014 .33898927 .0039978029 .375 .0039978029 .4119873 .0039978029 .47599793 .0019989014 .526001 0V.035995485H.49899293C.41799928 .035995485 .41799928 .04800415 .41799928 .08201599V.1640625H.5289917M.33999635 .5658722V.20005799H.07598877L.33999635 .5658722Z"/>
<path id="font_3_2" d="M.33399964 .30233766C.33999635 .32835389 .36299134 .42037965 .43299867 .42037965 .43798829 .42037965 .46199037 .42037965 .48298646 .40734864 .45498658 .402359 .43499757 .37734986 .43499757 .35334779 .43499757 .33735658 .44599916 .31835938 .47299195 .31835938 .49499513 .31835938 .5269928 .3363495 .5269928 .37635804 .5269928 .42837525 .46798707 .4423828 .43399049 .4423828 .37599183 .4423828 .34098817 .38935853 .32899476 .36634828 .3039856 .43237306 .25 .4423828 .22099304 .4423828 .116989139 .4423828 .05999756 .3133545 .05999756 .28834535 .05999756 .27833558 .069992069 .27833558 .07199097 .27833558 .07998657 .27833558 .08299255 .28033448 .084991458 .28933717 .11898804 .39535523 .18499756 .42037965 .21899414 .42037965 .23799134 .42037965 .272995 .4113617 .272995 .35334779 .272995 .32235719 .2559967 .25532533 .21899414 .11528015 .20298767 .053268434 .16799927 .011245728 .12399292 .011245728 .117996219 .011245728 .09498596 .011245728 .07398987 .024276734 .09899902 .029266358 .12098694 .05027771 .12098694 .07827759 .12098694 .105270389 .09899902 .11328125 .083999637 .11328125 .053985597 .11328125 .0289917 .08728027 .0289917 .055267335 .0289917 .009246826 .07899475-.0107421879 .12298584-.0107421879 .18899536-.0107421879 .22499085 .059280397 .22799683 .0652771 .23999024 .028274537 .27598573-.0107421879 .33599855-.0107421879 .43899537-.0107421879 .49598695 .118270877 .49598695 .14328003 .49598695 .1532898 .4869995 .1532898 .48399354 .1532898 .47499085 .1532898 .47299195 .14929199 .47099305 .14228821 .43798829 .03527832 .36999513 .011245728 .33799745 .011245728 .29899598 .011245728 .2829895 .043273927 .2829895 .07727051 .2829895 .09927368 .2889862 .121276859 .2999878 .16529846L.33399964 .30233766Z"/>
<path id="font_3_3" d="M.48599244 .38136292C.48999024 .39537049 .48999024 .39736939 .48999024 .40437318 .48999024 .42237855 .47599793 .43138124 .46099855 .43138124 .45098878 .43138124 .43499757 .42536927 .42599488 .41036988 .42399598 .405365 .41600038 .37435914 .4119873 .35635377 .40499879 .33035279 .397995 .30334474 .3919983 .27633668L.34700013 .09628296C.34298707 .08126831 .2999878 .011245728 .23399353 .011245728 .18299866 .011245728 .17199707 .055267335 .17199707 .0922699 .17199707 .1382904 .18899536 .20030213 .22299195 .28833009 .23899842 .3293457 .24299622 .3403473 .24299622 .36035157 .24299622 .405365 .21099854 .4423828 .16099549 .4423828 .06599426 .4423828 .0289917 .29733277 .0289917 .28833009 .0289917 .27833558 .038986207 .27833558 .040985109 .27833558 .050994874 .27833558 .051986696 .28033448 .056991579 .29634095 .083999637 .3903656 .12399292 .42037965 .1579895 .42037965 .1659851 .42037965 .18299866 .42037965 .18299866 .3883667 .18299866 .36335755 .17298889 .3373413 .1659851 .31834413 .12599182 .21231079 .10798645 .1552887 .10798645 .10827637 .10798645 .019256592 .17098999-.0107421879 .22999573-.0107421879 .2689972-.0107421879 .30299378 .0062561037 .33099366 .03425598 .31799317-.017745972 .30599977-.06674194 .2659912-.11973572 .23999024-.15385437 .20199585-.18309021 .1559906-.18309021 .14199829-.18309021 .09700012-.18005371 .07998657-.14074707 .09599304-.14074707 .10899353-.14074707 .12298584-.1287384 .1329956-.11973572 .14299011-.10673523 .14299011-.08773804 .14299011-.056747438 .115997318-.052734376 .10598755-.052734376 .08299255-.052734376 .049987794-.068740848 .049987794-.11773682 .049987794-.16796875 .09399414-.20507813 .1559906-.20507813 .25898744-.20507813 .3619995-.11373901 .3899994-.00074768069L.48599244 .38136292Z"/>
</defs>
<path transform="matrix(1,0,0,-1,9.517,78.335)" stroke-width=".3985" stroke-linecap="butt" stroke-miterlimit="10" stroke-linejoin="miter" fill="none" stroke="#e5e6e5" d="M42.95436 0V75.14793M57.2725 0V75.14793M71.59062 0V75.14793M100.2269 0V75.14793M128.86315 0V75.14793"/>
<path transform="matrix(1,0,0,-1,9.517,78.335)" stroke-width=".3985" stroke-linecap="butt" stroke-miterlimit="10" stroke-linejoin="miter" fill="none" stroke="#e5e6e5" d="M0 5.00986H143.18128M0 45.08876H143.18128M0 65.1282H143.18128"/>
<path transform="matrix(1,0,0,-1,9.517,78.335)" stroke-width=".19925" stroke-linecap="butt" stroke-miterlimit="10" stroke-linejoin="miter" fill="none" stroke="#7f807f" d="M42.95436 23.77371V26.32487M57.2725 23.77371V26.32487M71.59062 23.77371V26.32487M100.2269 23.77371V26.32487M128.86315 23.77371V26.32487"/>
<path transform="matrix(1,0,0,-1,9.517,78.335)" stroke-width=".19925" stroke-linecap="butt" stroke-miterlimit="10" stroke-linejoin="miter" fill="none" stroke="#7f807f" d="M13.04257 5.00986H15.59364M13.04257 45.08876H15.59364M13.04257 65.1282H15.59364"/>
<path transform="matrix(1,0,0,-1,9.517,78.335)" stroke-width=".3985" stroke-linecap="butt" stroke-miterlimit="10" stroke-linejoin="miter" fill="none" stroke="#000000" d="M0 25.0493H141.18875"/>
<path transform="matrix(1,0,0,-1,150.70575,53.285699)" d="M1.99252 0-1.19551 1.59401 0 0-1.19551-1.59401"/>
<path transform="matrix(1,0,0,-1,9.517,78.335)" stroke-width=".3985" stroke-linecap="butt" stroke-miterlimit="10" stroke-linejoin="miter" fill="none" stroke="#000000" d="M14.31812 0V73.15541"/>
<path transform="matrix(0,-1,-1,-0,23.835122,5.1795885)" d="M1.99252 0-1.19551 1.59401 0 0-1.19551-1.59401"/>
<g clip-path="url(#clip_1)">
</g>
<use data-text="1" xlink:href="#font_2_1" transform="matrix(9.96264,0,0,-9.96264,49.980005,64.502)"/>
<use data-text="1" xlink:href="#font_2_1" transform="matrix(9.96264,0,0,-9.96264,60.422998,64.502)"/>
<use data-text="." xlink:href="#font_3_1" transform="matrix(9.96264,0,0,-9.96264,65.405,64.502)"/>
<use data-text="5" xlink:href="#font_2_5" transform="matrix(9.96264,0,0,-9.96264,68.172,64.502)"/>
<use data-text="2" xlink:href="#font_2_2" transform="matrix(9.96264,0,0,-9.96264,78.616,64.502)"/>
<use data-text="3" xlink:href="#font_2_3" transform="matrix(9.96264,0,0,-9.96264,107.252,64.502)"/>
<use data-text="4" xlink:href="#font_2_4" transform="matrix(9.96264,0,0,-9.96264,135.888,64.502)"/>
<use data-text="&#x2212;" xlink:href="#font_4_1" transform="matrix(9.96264,0,0,-9.96264,6.309,76.12)"/>
<use data-text="2" xlink:href="#font_2_2" transform="matrix(9.96264,0,0,-9.96264,14.058,76.12)"/>
<use data-text="2" xlink:href="#font_2_2" transform="matrix(9.96264,0,0,-9.96264,14.058001,36.457)"/>
<use data-text="4" xlink:href="#font_2_4" transform="matrix(9.96264,0,0,-9.96264,14.058001,16.418)"/>
<g clip-path="url(#clip_5)">
<path transform="matrix(1,0,0,-1,9.517,78.335)" stroke-width=".79701" stroke-linecap="butt" stroke-miterlimit="10" stroke-linejoin="miter" fill="none" stroke="#2471a3" d="M5.72723 31.96332 6.37479 31.37935 7.02235 30.80562 7.6699 30.24213 8.31746 29.68887 8.96501 29.14587 9.61256 28.61314 10.26013 28.09064 10.90767 27.57838 11.55522 27.07639 12.20277 26.58463 12.85033 26.10312 13.4979 25.63185 14.14543 25.17084 14.793 24.72006 15.44055 24.27954 16.0881 23.84929 16.73566 23.42923 17.38321 23.01947 18.03078 22.61995 18.67833 22.23065 19.32587 21.85162 19.97343 21.48282 20.62097 21.12428 21.26854 20.77599 21.91609 20.43794 22.56363 20.11014 23.2112 19.79259 23.85875 19.48528 24.50632 19.18822 25.15385 18.90141 25.8014 18.62485 26.44897 18.35852 27.09653 18.10246 27.74408 17.85664 28.39163 17.62106 29.03918 17.39574 29.68674 17.18066 30.33429 16.97583 30.98184 16.78125 31.6294 16.59691 32.27695 16.4228 32.92451 16.25896 33.57205 16.10538 34.21962 15.96202 34.86717 15.82892 35.51474 15.70607 36.16228 15.59346 36.80983 15.4911 37.4574 15.39899 38.10493 15.31712 38.7525 15.24551 39.40004 15.18414 40.04759 15.13301 40.69516 15.09213 41.34271 15.06151 41.99026 15.04114 42.63782 15.03099 43.28537 15.0311 43.93294 15.04147 44.58047 15.06209 45.22804 15.09294 45.8756 15.13403 46.52313 15.18538 47.1707 15.24698 47.81824 15.31883 48.4658 15.40094 49.11336 15.49326 49.7609 15.59586 50.40846 15.70868 51.05602 15.83176 51.70358 15.96509 52.35114 16.10867 52.99867 16.2625 53.64624 16.42656 54.2938 16.60089 54.94135 16.78546 55.5889 16.98026 56.23647 17.18533 56.884 17.40063 57.53156 17.62619 58.17911 17.86198 58.82666 18.10805 59.47423 18.36433 60.12178 18.63089 60.76932 18.90767 61.41689 19.1947 62.06444 19.492 62.712 19.79953 63.35954 20.11732 64.0071 20.44534 64.65466 20.78362 65.3022 21.13214 65.94977 21.4909 66.5973 21.85992 67.24486 22.2392 67.89243 22.6287 68.53998 23.02847 69.18753 23.43848 69.83508 23.85872 70.48264 24.28923 71.1302 24.72998 71.77774 25.18095 72.42531 25.6422 73.07286 26.11371 73.7204 26.59544 74.36797 27.08742 75.0155 27.58965 75.66307 28.10214 76.31062 28.62486 76.95819 29.15784 77.60573 29.70105 78.25328 30.25453 78.90085 30.81825 79.5484 31.39221 80.19595 31.97643 80.8435 32.57089 81.49106 33.17558 82.13861 33.79054 82.78616 34.41574 83.43373 35.0512 84.08127 35.69688 84.72882 36.35283 85.37639 37.01901 86.02393 37.69545 86.6715 38.38214 87.31905 39.07907 87.9666 39.78624 88.61415 40.50368 89.2617 41.23134 89.90927 41.96928 90.55681 42.71742 91.20436 43.47586 91.85193 44.24452 92.49947 45.02342 93.14703 45.81258 93.79459 46.612 94.44214 47.42165 95.08969 48.24155 95.73724 49.07169 96.38481 49.91208 97.03235 50.76273 97.67992 51.62361 98.32747 52.49475 98.97502 53.37613 99.62257 54.26778 100.27013 55.16965 100.91768 56.08177 101.56523 57.00415 102.21277 57.93677 102.86034 58.87962 103.50789 59.83275 104.15546 60.79611 104.80301 61.76971 105.45055 62.75357 106.09811 63.74768 106.74567 64.75203 107.39323 65.76662 108.04077 66.79147 108.68832 67.82657 109.33588 68.87192 109.98343 69.92749 110.631 70.99333 111.27853 72.06941 111.92609 73.15575 112.57365 74.25232 113.22119 75.35915 113.86876 76.47623 114.51631 77.60353 115.16388 78.7411 115.81143 79.88893 116.45897 81.04698 117.10654 82.21529 117.75407 83.39384 118.40164 84.58264 119.0492 85.78171 119.69673 86.991 120.3443 88.21054 120.99185 89.44034 121.6394 90.68037 122.28696 91.93066 122.93451 93.1912 123.58208 94.46199 124.22963 95.74301 124.87718 97.03429 125.52473 98.33582 126.17229 99.64758 126.81984 100.9696 127.46739 102.30186 128.11495 103.64438 128.7625 104.99713 129.41005 106.36015 130.0576 107.7334 130.70516 109.1169 131.35272 110.51065 132.00028 111.91464 132.64781 113.3289 133.29538 114.75339 133.94293 116.18813 134.5905 117.63312"/>
<path transform="matrix(1,0,0,-1,9.517,78.335)" stroke-width=".79701" stroke-linecap="butt" stroke-miterlimit="10" stroke-linejoin="miter" fill="none" stroke="#b30000" d="M5.72723 12.12401 6.37479 13.16115 7.02235 14.18806 7.6699 15.20471 8.31746 16.21109 8.96501 17.20724 9.61256 18.19316 10.26013 19.16882 10.90767 20.13423 11.55522 21.08939 12.20277 22.03432 12.85033 22.96898 13.4979 23.8934 14.14543 24.80759 14.793 25.7115 15.44055 26.6052 16.0881 27.48862 16.73566 28.3618 17.38321 29.22475 18.03078 30.07742 18.67833 30.91989 19.32587 31.75208 19.97343 32.57404 20.62097 33.38573 21.26854 34.18718 21.91609 34.9784 22.56363 35.75935 23.2112 36.53006 23.85875 37.29053 24.50632 38.04076 25.15385 38.78072 25.8014 39.51044 26.44897 40.22992 27.09653 40.93915 27.74408 41.63812 28.39163 42.32686 29.03918 43.00534 29.68674 43.67358 30.33429 44.33157 30.98184 44.97932 31.6294 45.6168 32.27695 46.24408 32.92451 46.86107 33.57205 47.46782 34.21962 48.06433 34.86717 48.65059 35.51474 49.22661 36.16228 49.79237 36.80983 50.3479 37.4574 50.89316 38.10493 51.42819 38.7525 51.95297 39.40004 52.4675 40.04759 52.97179 40.69516 53.4658 41.34271 53.9496 41.99026 54.42314 42.63782 54.88643 43.28537 55.33948 43.93294 55.78227 44.58047 56.21483 45.22804 56.63713 45.8756 57.04918 46.52313 57.45099 47.1707 57.84254 47.81824 58.22388 48.4658 58.59494 49.11336 58.95576 49.7609 59.30634 50.40846 59.64665 51.05602 59.97673 51.70358 60.29655 52.35114 60.60614 52.99867 60.90547 53.64624 61.19456 54.2938 61.4734 54.94135 61.742 55.5889 62.00035 56.23647 62.24844 56.884 62.4863 57.53156 62.71391 58.17911 62.93126 58.82666 63.13838 59.47423 63.33524 60.12178 63.52185 60.76932 63.69821 61.41689 63.86433 62.06444 64.02022 62.712 64.16585 63.35954 64.30121 64.0071 64.42635 64.65466 64.54123 65.3022 64.64587 65.94977 64.74026 66.5973 64.8244 67.24486 64.89828 67.89243 64.96194 68.53998 65.01534 69.18753 65.0585 69.83508 65.0914 70.48264 65.11404 71.1302 65.12646 71.77774 65.12863 72.42531 65.12056 73.07286 65.10222 73.7204 65.07364 74.36797 65.03482 75.0155 64.98575 75.66307 64.9264 76.31062 64.85684 76.95819 64.77704 77.60573 64.68697 78.25328 64.58665 78.90085 64.4761 79.5484 64.3553 80.19595 64.22424 80.8435 64.08295 81.49106 63.9314 82.13861 63.7696 82.78616 63.59758 83.43373 63.41528 84.08127 63.22275 84.72882 63.01996 85.37639 62.80693 86.02393 62.58365 86.6715 62.35013 87.31905 62.10635 87.9666 61.85233 88.61415 61.58807 89.2617 61.31355 89.90927 61.0288 90.55681 60.73378 91.20436 60.42853 91.85193 60.11302 92.49947 59.78728 93.14703 59.45126 93.79459 59.10503 94.44214 58.74854 95.08969 58.38179 95.73724 58.00479 96.38481 57.61757 97.03235 57.2201 97.67992 56.81235 98.32747 56.3944 98.97502 55.96617 99.62257 55.52768 100.27013 55.07896 100.91768 54.62 101.56523 54.15079 102.21277 53.67133 102.86034 53.18163 103.50789 52.68166 104.15546 52.17146 104.80301 51.65102 105.45055 51.12033 106.09811 50.57938 106.74567 50.02818 107.39323 49.46675 108.04077 48.89507 108.68832 48.31311 109.33588 47.72093 109.98343 47.11852 110.631 46.50584 111.27853 45.8829 111.92609 45.24973 112.57365 44.60632 113.22119 43.95265 113.86876 43.28874 114.51631 42.61458 115.16388 41.93016 115.81143 41.23552 116.45897 40.53062 117.10654 39.81546 117.75407 39.09007 118.40164 38.35443 119.0492 37.60854 119.69673 36.8524 120.3443 36.08601 120.99185 35.30939 121.6394 34.5225 122.28696 33.72537 122.93451 32.91798 123.58208 32.10037 124.22963 31.27249 124.87718 30.43439 125.52473 29.58603 126.17229 28.72742 126.81984 27.85855 127.46739 26.97945 128.11495 26.0901 128.7625 25.19049 129.41005 24.28064 130.0576 23.36053 130.70516 22.43019 131.35272 21.48961 132.00028 20.53877 132.64781 19.5777 133.29538 18.60637 133.94293 17.62477 134.5905 16.63295"/>
<use data-text="O" xlink:href="#font_6_3" transform="matrix(6.97385,0,0,-6.97385,14.041,61.570997)" fill="#1e8449"/>
<use data-text="A" xlink:href="#font_6_2" transform="matrix(6.97385,0,0,-6.97385,113.262,17.963997)" fill="#1e8449"/>
<use data-text="(" xlink:href="#font_7_1" transform="matrix(6.97385,0,0,-6.97385,119.254,17.963997)" fill="#1e8449"/>
<use data-text="3" xlink:href="#font_7_4" transform="matrix(6.97385,0,0,-6.97385,122.364337,17.963997)" fill="#1e8449"/>
<use data-text="," xlink:href="#font_6_1" transform="matrix(6.97385,0,0,-6.97385,126.338,17.963997)" fill="#1e8449"/>
<use data-text="3" xlink:href="#font_7_4" transform="matrix(6.97385,0,0,-6.97385,130.065,17.963997)" fill="#1e8449"/>
<use data-text=")" xlink:href="#font_7_2" transform="matrix(6.97385,0,0,-6.97385,134.03313,17.963997)" fill="#1e8449"/>
<use data-text="S" xlink:href="#font_8_1" transform="matrix(8.96638,0,0,-8.96638,55.271005,41.319997)"/>
<use data-text="=" xlink:href="#font_9_2" transform="matrix(8.96638,0,0,-8.96638,63.971006,41.319997)"/>
<use data-text="9" xlink:href="#font_9_1" transform="matrix(8.96638,0,0,-8.96638,73.69057,41.319997)"/>
<use data-text="y" xlink:href="#font_6_5" transform="matrix(6.97385,0,0,-6.97385,127.58,73.042)" fill="#2471a3"/>
<use data-text="=" xlink:href="#font_7_6" transform="matrix(6.97385,0,0,-6.97385,134.138,73.042)" fill="#2471a3"/>
<use data-text="x" xlink:href="#font_6_4" transform="matrix(6.97385,0,0,-6.97385,142.522,73.042)" fill="#2471a3"/>
<use data-text="2" xlink:href="#font_10_1" transform="matrix(4.98132,0,0,-4.98132,147.04,70.036)" fill="#2471a3"/>
<use data-text="&#x2212;" xlink:href="#font_11_1" transform="matrix(6.97385,0,0,-6.97385,152.742,73.042)" fill="#2471a3"/>
<use data-text="2" xlink:href="#font_7_3" transform="matrix(6.97385,0,0,-6.97385,160.783,73.042)" fill="#2471a3"/>
<use data-text="x" xlink:href="#font_6_4" transform="matrix(6.97385,0,0,-6.97385,164.754,73.042)" fill="#2471a3"/>
<use data-text="y" xlink:href="#font_6_5" transform="matrix(6.97385,0,0,-6.97385,7.2590005,8.332001)" fill="#b30000"/>
<use data-text="=" xlink:href="#font_7_6" transform="matrix(6.97385,0,0,-6.97385,13.817001,8.332001)" fill="#b30000"/>
<use data-text="4" xlink:href="#font_7_5" transform="matrix(6.97385,0,0,-6.97385,22.19957,8.332001)" fill="#b30000"/>
<use data-text="x" xlink:href="#font_6_4" transform="matrix(6.97385,0,0,-6.97385,26.172,8.332001)" fill="#b30000"/>
<use data-text="&#x2212;" xlink:href="#font_11_1" transform="matrix(6.97385,0,0,-6.97385,32.504,8.332001)" fill="#b30000"/>
<use data-text="x" xlink:href="#font_6_4" transform="matrix(6.97385,0,0,-6.97385,40.545,8.332001)" fill="#b30000"/>
<use data-text="2" xlink:href="#font_10_1" transform="matrix(4.98132,0,0,-4.98132,45.063,5.3250048)" fill="#b30000"/>
</g>
<path transform="matrix(1,0,0,-1,9.517,78.335)" d="M15.51367 25.04964C15.51367 25.70992 14.97841 26.24518 14.31813 26.24518 13.65785 26.24518 13.12259 25.70992 13.12259 25.04964 13.12259 24.38934 13.65785 23.85408 14.31813 23.85408 14.97841 23.85408 15.51367 24.38934 15.51367 25.04964ZM14.31813 25.04964" fill="#1e8449"/>
<path transform="matrix(1,0,0,-1,9.517,78.335)" stroke-width=".79701" stroke-linecap="butt" stroke-miterlimit="10" stroke-linejoin="miter" fill="none" stroke="#1e8449" d="M15.51367 25.04964C15.51367 25.70992 14.97841 26.24518 14.31813 26.24518 13.65785 26.24518 13.12259 25.70992 13.12259 25.04964 13.12259 24.38934 13.65785 23.85408 14.31813 23.85408 14.97841 23.85408 15.51367 24.38934 15.51367 25.04964ZM14.31813 25.04964"/>
<path transform="matrix(1,0,0,-1,9.517,78.335)" d="M101.4225 55.1092C101.4225 55.76949 100.88724 56.30475 100.22696 56.30475 99.56667 56.30475 99.03142 55.76949 99.03142 55.1092 99.03142 54.44891 99.56667 53.91365 100.22696 53.91365 100.88724 53.91365 101.4225 54.44891 101.4225 55.1092ZM100.22696 55.1092" fill="#1e8449"/>
<path transform="matrix(1,0,0,-1,9.517,78.335)" stroke-width=".79701" stroke-linecap="butt" stroke-miterlimit="10" stroke-linejoin="miter" fill="none" stroke="#1e8449" d="M101.4225 55.1092C101.4225 55.76949 100.88724 56.30475 100.22696 56.30475 99.56667 56.30475 99.03142 55.76949 99.03142 55.1092 99.03142 54.44891 99.56667 53.91365 100.22696 53.91365 100.88724 53.91365 101.4225 54.44891 101.4225 55.1092ZM100.22696 55.1092"/>
<path transform="matrix(1,0,0,-1,9.517,78.335)" stroke-width=".79701" stroke-linecap="butt" stroke-miterlimit="10" stroke-linejoin="miter" fill="none" stroke="#1e8449" d=""/>
<use data-text="x" xlink:href="#font_3_2" transform="matrix(9.96264,0,0,-9.96264,143.283,49.567)"/>
<use data-text="y" xlink:href="#font_3_3" transform="matrix(9.96264,0,0,-9.96264,27.554,11.196999)"/>
</svg>
