<svg xmlns="http://www.w3.org/2000/svg" xmlns:xlink="http://www.w3.org/1999/xlink" xmlns:inkscape="http://www.inkscape.org/namespaces/inkscape" version="1.1" width="249.453" height="820.109" viewBox="0 0 249.453 820.109">
<defs>
<path id="font_1_5" d="M.33399964 .30233766C.33999635 .32835389 .36299134 .42037965 .43299867 .42037965 .43798829 .42037965 .46199037 .42037965 .48298646 .40734864 .45498658 .402359 .43499757 .37734986 .43499757 .35334779 .43499757 .33735658 .44599916 .31835938 .47299195 .31835938 .49499513 .31835938 .5269928 .3363495 .5269928 .37635804 .5269928 .42837525 .46798707 .4423828 .43399049 .4423828 .37599183 .4423828 .34098817 .38935853 .32899476 .36634828 .3039856 .43237306 .25 .4423828 .22099304 .4423828 .116989139 .4423828 .05999756 .3133545 .05999756 .28834535 .05999756 .27833558 .069992069 .27833558 .07199097 .27833558 .07998657 .27833558 .08299255 .28033448 .084991458 .28933717 .11898804 .39535523 .18499756 .42037965 .21899414 .42037965 .23799134 .42037965 .272995 .4113617 .272995 .35334779 .272995 .32235719 .2559967 .25532533 .21899414 .11528015 .20298767 .053268434 .16799927 .011245728 .12399292 .011245728 .117996219 .011245728 .09498596 .011245728 .07398987 .024276734 .09899902 .029266358 .12098694 .05027771 .12098694 .07827759 .12098694 .105270389 .09899902 .11328125 .083999637 .11328125 .053985597 .11328125 .0289917 .08728027 .0289917 .055267335 .0289917 .009246826 .07899475-.0107421879 .12298584-.0107421879 .18899536-.0107421879 .22499085 .059280397 .22799683 .0652771 .23999024 .028274537 .27598573-.0107421879 .33599855-.0107421879 .43899537-.0107421879 .49598695 .118270877 .49598695 .14328003 .49598695 .1532898 .4869995 .1532898 .48399354 .1532898 .47499085 .1532898 .47299195 .14929199 .47099305 .14228821 .43798829 .03527832 .36999513 .011245728 .33799745 .011245728 .29899598 .011245728 .2829895 .043273927 .2829895 .07727051 .2829895 .09927368 .2889862 .121276859 .2999878 .16529846L.33399964 .30233766Z"/>
<path id="font_1_6" d="M.48599244 .38136292C.48999024 .39537049 .48999024 .39736939 .48999024 .40437318 .48999024 .42237855 .47599793 .43138124 .46099855 .43138124 .45098878 .43138124 .43499757 .42536927 .42599488 .41036988 .42399598 .405365 .41600038 .37435914 .4119873 .35635377 .40499879 .33035279 .397995 .30334474 .3919983 .27633668L.34700013 .09628296C.34298707 .08126831 .2999878 .011245728 .23399353 .011245728 .18299866 .011245728 .17199707 .055267335 .17199707 .0922699 .17199707 .1382904 .18899536 .20030213 .22299195 .28833009 .23899842 .3293457 .24299622 .3403473 .24299622 .36035157 .24299622 .405365 .21099854 .4423828 .16099549 .4423828 .06599426 .4423828 .0289917 .29733277 .0289917 .28833009 .0289917 .27833558 .038986207 .27833558 .040985109 .27833558 .050994874 .27833558 .051986696 .28033448 .056991579 .29634095 .083999637 .3903656 .12399292 .42037965 .1579895 .42037965 .1659851 .42037965 .18299866 .42037965 .18299866 .3883667 .18299866 .36335755 .17298889 .3373413 .1659851 .31834413 .12599182 .21231079 .10798645 .1552887 .10798645 .10827637 .10798645 .019256592 .17098999-.0107421879 .22999573-.0107421879 .2689972-.0107421879 .30299378 .0062561037 .33099366 .03425598 .31799317-.017745972 .30599977-.06674194 .2659912-.11973572 .23999024-.15385437 .20199585-.18309021 .1559906-.18309021 .14199829-.18309021 .09700012-.18005371 .07998657-.14074707 .09599304-.14074707 .10899353-.14074707 .12298584-.1287384 .1329956-.11973572 .14299011-.10673523 .14299011-.08773804 .14299011-.056747438 .115997318-.052734376 .10598755-.052734376 .08299255-.052734376 .049987794-.068740848 .049987794-.11773682 .049987794-.16796875 .09399414-.20507813 .1559906-.20507813 .25898744-.20507813 .3619995-.11373901 .3899994-.00074768069L.48599244 .38136292Z"/>
<path id="font_2_1" d="M.74398806 .2263794C.7599945 .2263794 .7839966 .2263794 .7839966 .25038148 .7839966 .27539063 .7609863 .27539063 .74398806 .27539063H.147995C.13198853 .27539063 .10798645 .27539063 .10798645 .25138856 .10798645 .2263794 .1309967 .2263794 .147995 .2263794H.74398806Z"/>
<path id="font_3_3" d="M.272995 .33428956C.35099793 .33428956 .40699769 .2803192 .40699769 .1733551 .40699769 .04940796 .33499146 .012466431 .2769928 .012466431 .23699951 .012466431 .14898682 .0234375 .10699463 .082351688 .1539917 .084350589 .16499329 .11735535 .16499329 .13835144 .16499329 .17034912 .14099121 .19335938 .10998535 .19335938 .08198547 .19335938 .053985597 .17634583 .053985597 .13534546 .053985597 .041412355 .1579895-.01953125 .2789917-.01953125 .41799928-.01953125 .5139923 .07336426 .5139923 .1733551 .5139923 .2513275 .44999696 .32929994 .33999635 .35229493 .44499208 .39024354 .48298646 .4650879 .48298646 .5260773 .48298646 .60505679 .3919983 .6640625 .2809906 .6640625 .16999817 .6640625 .084991458 .61006167 .084991458 .5300751 .084991458 .49606324 .10699463 .47706605 .13699341 .47706605 .16799927 .47706605 .18798828 .5000763 .18798828 .5280762 .18798828 .5570679 .16799927 .57806399 .13699341 .5800781 .17199707 .62405398 .24099732 .63505557 .27799989 .63505557 .32299806 .63505557 .38598634 .6130676 .38598634 .5260773 .38598634 .48406983 .37199403 .43814088 .34599305 .4072113 .31298829 .36927796 .2849884 .3672943 .23498535 .36428834 .20999146 .3623047 .20799256 .3623047 .20298767 .3612976 .20098877 .3612976 .19299317 .3592987 .19299317 .34829713 .19299317 .33428956 .20199585 .33428956 .21899414 .33428956H.272995Z"/>
<path id="font_3_2" d="M.5049896 .18203736H.47099305C.46798707 .16001892 .45799256 .100997928 .44499208 .09098816 .43699647 .084991458 .3600006 .084991458 .34599305 .084991458H.1619873C.2669983 .17803955 .3019867 .20603943 .3619995 .25306703 .43598939 .312088 .5049896 .374115 .5049896 .46914674 .5049896 .5900879 .39898683 .6640625 .2709961 .6640625 .14698792 .6640625 .06298828 .57710269 .06298828 .4851532 .06298828 .43414308 .10598755 .42915345 .115997318 .42915345 .13999939 .42915345 .16899109 .44615174 .16899109 .48214723 .16899109 .5001526 .1619873 .53515627 .10998535 .53515627 .14099121 .6060791 .20899964 .62805178 .2559967 .62805178 .35598756 .62805178 .4079895 .5501404 .4079895 .46914674 .4079895 .38212586 .34599305 .3130951 .31399537 .27708436L.07299805 .038986207C.06298828 .02999878 .06298828 .027999878 .06298828 0H.47499085L.5049896 .18203736Z"/>
<path id="font_3_1" d="M.33499146 .63612368C.33499146 .6630554 .33299256 .6640625 .30499269 .6640625 .24099732 .6014404 .1499939 .6004486 .10899353 .6004486V.5644531C.1329956 .5644531 .19898987 .5644531 .2539978 .592453V.08203125C.2539978 .04899597 .2539978 .035995485 .1539917 .035995485H.115997318V0C.13398743 .0009918213 .25698854 .0039978029 .2939911 .0039978029 .32499696 .0039978029 .45098878 .0009918213 .47299195 0V.035995485H.43499757C.33499146 .035995485 .33499146 .04899597 .33499146 .08203125V.63612368Z"/>
<path id="font_1_1" d="M.1789856 .114868167C.13899231 .047973634 .099990848 .033981325 .055999757 .0309906 .04399109 .02999878 .034988405 .02999878 .034988405 .010986328 .034988405 .004989624 .039993287 0 .04798889 0 .07499695 0 .10598755 .0029907227 .13398743 .0029907227 .16699219 .0029907227 .20199585 0 .23399353 0 .23999024 0 .25299073 0 .25299073 .018997193 .25299073 .02999878 .24398804 .0309906 .23699951 .0309906 .21398926 .032989503 .18998719 .04096985 .18998719 .06593323 .18998719 .077926639 .19599915 .088897708 .20399475 .102890018L.27999879 .23068238H.5309906C.5329895 .2097168 .5469971 .07392883 .5469971 .063949588 .5469971 .033981325 .49499513 .0309906 .47499085 .0309906 .46099855 .0309906 .45098878 .0309906 .45098878 .010986328 .45098878 0 .46299745 0 .46499635 0 .5059967 0 .548996 .0029907227 .58999636 .0029907227 .61499026 .0029907227 .6779938 0 .7029877 0 .70899966 0 .72099307 0 .72099307 .019989014 .72099307 .0309906 .71099856 .0309906 .69799807 .0309906 .6359863 .0309906 .6359863 .037979127 .6329956 .06694031L.57199099 .691803C.56999209 .71180728 .56999209 .7158203 .5529938 .7158203 .5369873 .7158203 .5329895 .7088165 .5269928 .69880679L.1789856 .114868167M.29899598 .26168824 .49598695 .5917816 .5279999 .26168824H.29899598Z"/>
<path id="font_1_2" d="M.1599884 .07795715C.1499939 .038986207 .147995 .0309906 .068984989 .0309906 .051986696 .0309906 .041992189 .0309906 .041992189 .010986328 .041992189 0 .050994874 0 .068984989 0H.42599488C.58399966 0 .70199587 .11791992 .70199587 .21585083 .70199587 .28778077 .6439972 .3457489 .5469971 .35673524 .651001 .37573243 .7559967 .44970704 .7559967 .5446625 .7559967 .6186218 .6899872 .6826172 .56999209 .6826172H.23399353C.21499634 .6826172 .20498657 .6826172 .20498657 .6626129 .20498657 .6516113 .21398926 .6516113 .23298645 .6516113 .23498535 .6516113 .2539978 .6516113 .2709961 .6496124 .2889862 .6476135 .2979889 .64660647 .2979889 .6336212 .2979889 .6296234 .29699708 .62661746 .2939911 .614624L.1599884 .07795715M.31098939 .36573792 .37298585 .6136322C.38198854 .64860537 .38398744 .6516113 .4269867 .6516113H.55599978C.6439972 .6516113 .6649933 .5926361 .6649933 .5486603 .6649933 .46069337 .57899478 .36573792 .45700074 .36573792H.31098939M.2659912 .0309906C.2519989 .0309906 .25 .0309906 .24398804 .03199768 .23399353 .032989503 .23098755 .033996583 .23098755 .04197693 .23098755 .04498291 .23098755 .04698181 .23599243 .064971927L.30499269 .34375H.49398805C.58999636 .34375 .60899356 .2698059 .60899356 .22683716 .60899356 .12791443 .519989 .0309906 .4019928 .0309906H.2659912Z"/>
<path id="font_1_3" d="M.7599945 .69506838C.7599945 .69807437 .7579956 .7050781 .7489929 .7050781 .74598696 .7050781 .7449951 .70407107 .73399356 .69306948L.6639862 .61602786C.6549988 .6300354 .60899356 .7050781 .49798585 .7050781 .2749939 .7050781 .049987794 .48391725 .049987794 .25172425 .049987794 .08659363 .16799927-.022460938 .32099916-.022460938 .4079895-.022460938 .48399354 .017532349 .5369873 .063583377 .6299896 .14564514 .6469879 .2367096 .6469879 .23971558 .6469879 .24972534 .6369934 .24972534 .6349945 .24972534 .6289978 .24972534 .6239929 .24772644 .621994 .23971558 .61299136 .21069336 .58999636 .13963318 .5209961 .081588748 .45199586 .025543213 .3889923 .008529663 .33699037 .008529663 .24699402 .008529663 .14099121 .060577394 .14099121 .21670532 .14099121 .27374269 .1619873 .43588258 .2619934 .55296328 .32299806 .62402346 .4169922 .67407229 .5059967 .67407229 .60798647 .67407229 .6669922 .5970001 .6669922 .48091126 .6669922 .44088746 .6639862 .43988038 .6639862 .4298706 .6639862 .41986085 .6749878 .41986085 .67900088 .41986085 .69200137 .41986085 .69200137 .42185975 .69699099 .43988038L.7599945 .69506838Z"/>
<path id="font_1_4" d="M.15899658 .07795715C.14898682 .038986207 .14698792 .0309906 .067993167 .0309906 .050994874 .0309906 .039993287 .0309906 .039993287 .011993408 .039993287 0 .04899597 0 .067993167 0H.39898683C.6069946 0 .80400088 .21087647 .80400088 .42974855 .80400088 .5706482 .71899417 .6826172 .56900027 .6826172H.23298645C.21398926 .6826172 .20298767 .6826172 .20298767 .66360476 .20298767 .6516113 .21199036 .6516113 .23199463 .6516113 .24499512 .6516113 .2630005 .65060427 .2749939 .6496124 .29100038 .6476135 .29699708 .64460757 .29699708 .6336212 .29699708 .6296234 .29599 .62661746 .29299928 .614624L.15899658 .07795715M.375 .6136322C.38398744 .64860537 .38598634 .6516113 .42900086 .6516113H.5359955C.6339874 .6516113 .71699526 .5986328 .71699526 .46672059 .71699526 .41775514 .69699099 .25386048 .6119995 .1439209 .58299258 .10694885 .5039978 .0309906 .3809967 .0309906H.2679901C.2539978 .0309906 .2519989 .0309906 .24598694 .03199768 .23599243 .032989503 .23298645 .033996583 .23298645 .041992189 .23298645 .04498291 .23298645 .04698181 .23799134 .064971927L.375 .6136322Z"/>
</defs>
<path transform="matrix(1,0,0,-1,115.441,701.851)" stroke-width=".3985" stroke-linecap="butt" stroke-miterlimit="10" stroke-linejoin="miter" fill="none" stroke="#000000" d="M-112.25415 0H116.49786"/>
<path transform="matrix(1,0,0,-1,231.93888,701.851)" d="M1.99252 0-1.19551 1.59401 0 0-1.19551-1.59401"/>
<use data-text="x" xlink:href="#font_1_5" transform="matrix(9.96264,0,0,-9.96264,237.449,709.66006)"/>
<path transform="matrix(1,0,0,-1,115.441,701.851)" stroke-width=".3985" stroke-linecap="butt" stroke-miterlimit="10" stroke-linejoin="miter" fill="none" stroke="#000000" d="M0-49.89082V66.60703"/>
<path transform="matrix(0,-1,-1,-0,115.441,635.24398)" d="M1.99252 0-1.19551 1.59401 0 0-1.19551-1.59401"/>
<use data-text="y" xlink:href="#font_1_6" transform="matrix(9.96264,0,0,-9.96264,106.679,634.428)"/>
<path transform="matrix(1,0,0,-1,115.441,701.851)" stroke-width=".3985" stroke-linecap="butt" stroke-miterlimit="10" stroke-linejoin="miter" fill="none" stroke="#000000" d="M-93.54497 1.8708V-1.8708"/>
<use data-text="&#x2212;" xlink:href="#font_2_1" transform="matrix(6.97385,0,0,-6.97385,16.798005,711.735)"/>
<use data-text="3" xlink:href="#font_3_3" transform="matrix(6.97385,0,0,-6.97385,23.025004,711.735)"/>
<path transform="matrix(1,0,0,-1,115.441,701.851)" stroke-width=".3985" stroke-linecap="butt" stroke-miterlimit="10" stroke-linejoin="miter" fill="none" stroke="#000000" d="M-62.36331 1.8708V-1.8708"/>
<use data-text="&#x2212;" xlink:href="#font_2_1" transform="matrix(6.97385,0,0,-6.97385,47.979005,711.735)"/>
<use data-text="2" xlink:href="#font_3_2" transform="matrix(6.97385,0,0,-6.97385,54.206007,711.735)"/>
<path transform="matrix(1,0,0,-1,115.441,701.851)" stroke-width=".3985" stroke-linecap="butt" stroke-miterlimit="10" stroke-linejoin="miter" fill="none" stroke="#000000" d="M-31.18166 1.8708V-1.8708"/>
<use data-text="&#x2212;" xlink:href="#font_2_1" transform="matrix(6.97385,0,0,-6.97385,79.161,711.735)"/>
<use data-text="1" xlink:href="#font_3_1" transform="matrix(6.97385,0,0,-6.97385,85.387,711.735)"/>
<path transform="matrix(1,0,0,-1,115.441,701.851)" stroke-width=".3985" stroke-linecap="butt" stroke-miterlimit="10" stroke-linejoin="miter" fill="none" stroke="#000000" d="M31.18166 1.8708V-1.8708"/>
<use data-text="1" xlink:href="#font_3_1" transform="matrix(6.97385,0,0,-6.97385,144.636,711.735)"/>
<path transform="matrix(1,0,0,-1,115.441,701.851)" stroke-width=".3985" stroke-linecap="butt" stroke-miterlimit="10" stroke-linejoin="miter" fill="none" stroke="#000000" d="M62.36331 1.8708V-1.8708"/>
<use data-text="2" xlink:href="#font_3_2" transform="matrix(6.97385,0,0,-6.97385,175.818,711.735)"/>
<path transform="matrix(1,0,0,-1,115.441,701.851)" stroke-width=".3985" stroke-linecap="butt" stroke-miterlimit="10" stroke-linejoin="miter" fill="none" stroke="#000000" d="M93.54497 1.8708V-1.8708"/>
<use data-text="3" xlink:href="#font_3_3" transform="matrix(6.97385,0,0,-6.97385,206.999,711.735)"/>
<path transform="matrix(1,0,0,-1,115.441,701.851)" stroke-width=".79701" stroke-linecap="butt" stroke-miterlimit="10" stroke-linejoin="miter" fill="none" stroke="#000000" d="M-93.54497 698.47238C-93.54497 698.47238-92.86603 673.1769-92.60527 663.6614-92.34451 654.1459-91.92633 639.1226-91.66559 629.89138-91.40482 620.6601-90.98663 606.0808-90.72589 597.12869-90.46515 588.17648-90.04695 574.04739-89.7862 565.3703-89.52545 556.6933-89.10725 542.99868-88.84651 534.5907-88.58575 526.1828-88.16754 512.9152-87.9068 504.7717-87.64604 496.62818-87.22784 483.78117-86.9671 475.89768-86.70636 468.01414-86.28818 455.58158-86.0274 447.95283-85.76666 440.32408-85.34848 428.2944-85.08772 420.91484-84.82697 413.5353-84.40878 401.90077-84.14804 394.76615-83.88728 387.63154-83.46909 376.3875-83.20834 369.49336-82.9476 362.59925-82.52939 351.73628-82.26863 345.07798-82.00789 338.41966-81.58969 327.9325-81.32893 321.50474-81.06819 315.077-80.65 304.9532-80.38925 298.7513-80.1285 292.5494-79.71031 282.78565-79.44955 276.80577-79.18881 270.82588-78.77063 261.4152-78.50987 255.6524-78.24911 249.88965-77.83093 240.82167-77.57018 235.27176-77.30943 229.72183-76.89122 220.99414-76.63048 215.65238-76.36972 210.3106-75.95152 201.91034-75.69078 196.7719-75.43002 191.63344-75.01183 183.55698-74.75108 178.61797-74.49034 173.67894-74.07214 165.91873-73.81139 161.17487-73.55064 156.431-73.13245 148.98047-72.8717 144.42739-72.61095 139.8743-72.19276 132.72597-71.932 128.35933-71.67125 123.99266-71.25305 117.13995-70.99231 112.95547-70.73157 108.77101-70.31337 102.2073-70.05261 98.20062-69.79187 94.19394-69.37367 87.9104-69.11293 84.07808-68.85217 80.24574-68.43398 74.24208-68.17323 70.5798-67.91248 66.91753-67.49428 61.1791-67.23354 57.6829-66.9728 54.18675-66.5546 48.7161-66.29384 45.38173-66.0331 42.04736-65.6149 36.82788-65.35413 33.65102-65.09338 30.47415-64.6752 25.50745-64.41446 22.48508-64.15369 19.46269-63.7355 14.73999-63.47476 11.8677-63.21402 8.99544-62.79582 4.50891-62.53506 1.78374-62.27432-.94142-61.85612-5.19104-61.59537-7.7735-61.33463-10.35594-60.91643-14.38441-60.65569-16.82883-60.39493-19.27324-59.97672-23.0818-59.71597-25.39124-59.45523-27.70064-59.03705-31.29608-58.77628-33.47353-58.51553-35.65099-58.09735-39.03545-57.8366-41.08482-57.57584-43.1342-57.15765-46.31882-56.89691-48.2441-56.63615-50.16936-56.21796-53.15677-55.95721-54.9609-55.69647-56.76503-55.27827-59.56026-55.01752-61.24709-54.75677-62.9339-54.33856-65.5449-54.0778-67.11838-53.81706-68.69186-53.39886-71.12535-53.13812-72.58766-52.87737-74.04997-52.45918-76.30269-52.19843-77.65771-51.93767-79.01274-51.5195-81.10217-51.25874-82.35382-50.99799-83.60547-50.5798-85.52841-50.31905-86.67879-50.0583-87.82915-49.6401-89.59238-49.37936-90.64499-49.1186-91.69762-48.7004-93.3066-48.43965-94.26532-48.1789-95.22406-47.7607-96.68713-47.49995-97.55496-47.23921-98.4228-46.82101-99.74048-46.56026-100.52013-46.29951-101.29976-45.88133-102.47969-45.62057-103.17409-45.35982-103.8685-44.94164-104.91284-44.6809-105.525-44.42012-106.13715-44.00194-107.05267-43.7412-107.58612-43.48045-108.1196-43.06224-108.91261-42.80148-109.3699-42.54074-109.8272-42.12254-110.49823-41.86179-110.88197-41.60104-111.26572-41.18285-111.82245-40.9221-112.1357-40.66135-112.44893-40.24315-112.8939-39.9824-113.1396-39.72166-113.38531-39.30348-113.72533-39.04271-113.90659-38.78197-114.08786-38.36378-114.32758-38.10304-114.44614-37.84227-114.5647-37.42407-114.70232-37.16333-114.76112-36.90257-114.81993-36.48438-114.86751-36.22363-114.87006-35.96289-114.87263-35.5447-114.83154-35.28394-114.77968-35.0232-114.72778-34.605-114.60034-34.34424-114.49611-34.0835-114.39188-33.6653-114.18155-33.40456-114.02841-33.1438-113.87526-32.72562-113.59213-32.46486-113.39224-32.20412-113.19237-31.78592-112.8326-31.52516-112.58769-31.2644-112.34277-30.84622-111.9139-30.58546-111.62708-30.32472-111.34023-29.90652-110.847-29.64578-110.52036-29.38503-110.19373-28.96683-109.63708-28.70609-109.27281-28.44533-108.90857-28.02715-108.29463-27.76639-107.89493-27.50565-107.49522-27.08745-106.82455-26.82669-106.39189-26.56595-105.95924-26.14775-105.23993-25.887-104.77657-25.62624-104.31322-25.20805-103.54462-24.94731-103.05229-24.68654-102.55995-24.26836-101.74722-24.00761-101.2281-23.74687-100.70895-23.32867-99.85487-23.06792-99.31064-22.80717-98.76642-22.38898-97.87244-22.12823-97.30565-21.86748-96.73885-21.44928-95.81302-21.18854-95.22548-20.92778-94.63795-20.50957-93.67802-20.24883-93.07108-19.98808-92.46416-19.5699-91.47485-19.30913-90.85101-19.04839-90.22719-18.6302-89.21384-18.36946-88.57481-18.10869-87.93579-17.6905-86.89822-17.42976-86.24533-17.169-85.59245-16.75081-84.53418-16.49007-83.86922-16.22932-83.20427-15.81113-82.12752-15.55037-81.45265-15.28963-80.77777-14.87141-79.6883-14.61066-79.00516-14.34991-78.32205-13.93172-77.21964-13.67097-76.52914-13.41022-75.83862-12.99203-74.72449-12.73128-74.02835-12.47054-73.33223-12.05235-72.21144-11.7916-71.51187-11.53084-70.81233-11.11266-69.6885-10.8519-68.98637-10.59116-68.28424-10.17296-67.15439-9.91222-66.45132-9.65146-65.74826-9.23325-64.62173-8.9725-63.91916-8.71175-63.21657-8.29356-62.08873-8.0328-61.38745-7.77206-60.68617-7.35387-59.5631-7.09311-58.86478-6.83237-58.16647-6.41418-57.04892-6.15343-56.3545-5.89267-55.6601-5.47449-54.54865-5.21375-53.85991-4.95299-53.17116-4.53477-52.07233-4.27403-51.39052-4.01329-50.70872-3.5951-49.62038-3.33434-48.94589-3.0736-48.27142-2.6554-47.19478-2.39465-46.52934-2.1339-45.86392-1.7157-44.80534-1.45496-44.14989-1.1942-43.49442-.776-42.4502-.51526-41.80518-.25452-41.16014 .16362-40.13425 .4244-39.5009 .68513-38.86757 1.10333-37.8612 1.36407-37.24042 1.62485-36.61961 2.04303-35.634 2.30377-35.02654 2.56453-34.41907 2.98271-33.45529 3.24347-32.86215 3.50421-32.26901 3.92241-31.32907 4.18317-30.75151 4.44391-30.17397 4.8621-29.26102 5.12285-28.69943 5.3836-28.13785 5.8018-27.2495 6.06255-26.70393 6.3233-26.1584 6.7415-25.2957 7.00226-24.76746 7.263-24.2392 7.68118-23.40714 7.94194-22.89664 8.2027-22.38614 8.62088-21.58047 8.88162-21.08813 9.14238-20.5958 9.56058-19.821 9.82132-19.34816 10.08208-18.8753 10.50027-18.13387 10.76102-17.68001 11.02176-17.22618 11.43996-16.51146 11.70071-16.07707 11.96146-15.64268 12.37967-14.96327 12.64043-14.54929 12.90117-14.13533 13.31935-13.48708 13.58011-13.09337 13.84087-12.69966 14.25905-12.08464 14.51979-11.71165 14.78055-11.3387 15.19873-10.75685 15.45949-10.40514 15.72023-10.0534 16.13843-9.5067 16.39917-9.17664 16.65993-8.84657 17.07813-8.33504 17.33887-8.02615 17.59962-7.71727 18.01784-7.23807 18.27858-6.95038 18.53932-6.66269 18.95752-6.21828 19.21828-5.95265 19.47902-5.68701 19.8972-5.27937 20.15797-5.03578 20.41872-4.79219 20.8369-4.4193 21.09764-4.19696 21.35841-3.97461 21.7766-3.63405 22.03734-3.4333 22.29808-3.23256 22.71628-2.92876 22.97704-2.75006 23.23778-2.57137 23.65599-2.30278 23.91675-2.14534 24.17749-1.9879 24.59569-1.75163 24.85643-1.61531 25.11719-1.47899 25.53539-1.27748 25.79613-1.16283 26.05688-1.04816 26.47505-.8827 26.73582-.78883 26.99657-.69498 27.41475-.55975 27.6755-.48622 27.93626-.4127 28.35445-.31201 28.61519-.2588 28.87595-.20561 29.29416-.13647 29.5549-.10274 29.81566-.06902 30.23386-.02992 30.4946-.01567 30.75534-.00142 31.17354 .00513 31.4343 0 31.69504-.00513 32.11324-.02902 32.37398-.0528 32.63474-.07655 33.05292-.13014 33.31367-.17126 33.57443-.21237 33.99261-.2908 34.25336-.34921 34.51411-.40762 34.93231-.51662 35.19307-.59233 35.45381-.66806 35.87201-.80367 36.13275-.89494 36.39351-.98624 36.8117-1.14395 37.07245-1.25035 37.3332-1.35677 37.7514-1.54079 38.01215-1.66193 38.27289-1.78307 38.69109-1.9889 38.95184-2.12344 39.21259-2.25797 39.63077-2.48405 39.89153-2.6316 40.15228-2.77914 40.57048-3.02716 40.83122-3.18684 41.092-3.34653 41.51018-3.61209 41.77092-3.78255 42.03166-3.95299 42.44986-4.23454 42.71062-4.41534 42.97136-4.59615 43.38956-4.89583 43.65031-5.08574 43.91106-5.27565 44.32925-5.5865 44.59-5.78423 44.85075-5.98192 45.26895-6.30658 45.5297-6.51076 45.79044-6.71494 46.20863-7.04605 46.4694-7.25584 46.73015-7.46564 47.14833-7.80821 47.40909-8.02283 47.66985-8.23744 48.08803-8.58461 48.34877-8.80266 48.60953-9.02069 49.02773-9.37462 49.28847-9.59438 49.54921-9.81413 49.9674-10.16637 50.22816-10.38658 50.4889-10.6068 50.9071-10.96185 51.16786-11.18161 51.4286-11.40138 51.84682-11.75284 52.10756-11.97049 52.36832-12.18813 52.7865-12.53616 53.04726-12.75032 53.30801-12.96445 53.7262-13.30504 53.98694-13.51398 54.2477-13.7229 54.66588-14.05376 54.92664-14.25621 55.18738-14.45865 55.60558-14.77895 55.86632-14.97322 56.12708-15.16751 56.54527-15.47214 56.80602-15.65646 57.06677-15.84077 57.48499-16.1286 57.74573-16.30164 58.00647-16.47467 58.42467-16.74391 58.68542-16.90353 58.94617-17.06314 59.36435-17.30762 59.6251-17.4521 59.88586-17.59662 60.30405-17.81699 60.56479-17.94504 60.82556-18.07309 61.24374-18.26523 61.50449-18.37515 61.76523-18.48506 62.18343-18.64764 62.44418-18.73724 62.70493-18.82683 63.12314-18.95421 63.3839-19.02081 63.64464-19.08742 64.06284-19.17494 64.32358-19.21732 64.58434-19.2597 65.00253-19.31029 65.26328-19.32626 65.52402-19.34222 65.9422-19.345 66.20297-19.33246 66.46371-19.31992 66.8819-19.27864 67.14265-19.23586 67.40341-19.19308 67.8216-19.0994 68.08234-19.02414 68.3431-18.9489 68.7613-18.80338 69.02205-18.69345 69.28279-18.58354 69.70099-18.37901 69.96175-18.23193 70.22249-18.08487 70.64069-17.81989 70.90144-17.6334 71.16219-17.44691 71.58038-17.11583 71.84113-16.88782 72.10188-16.6598 72.52007-16.26212 72.78082-15.98999 73.04156-15.7179 73.45975-15.24506 73.7205-14.9266 73.98126-14.60814 74.39946-14.06161 74.66022-13.69476 74.92096-13.32793 75.33916-12.70093 75.5999-12.28261 75.86066-11.86429 76.27885-11.15166 76.5396-10.67966 76.80035-10.20767 77.21854-9.40894 77.4793-8.88069 77.74004-8.35243 78.15823-7.45988 78.41899-6.87234 78.67973-6.2848 79.09792-5.29504 79.35867-4.64612 79.61943-3.9972 80.03763-2.90785 80.29837-2.19528 80.55914-1.48271 80.97733-.29044 81.23807 .48956 81.49881 1.26959 81.917 2.57649 82.17776 3.42664 82.4385 4.2768 82.8567 5.69443 83.11745 6.61685 83.3782 7.53929 83.7964 9.07683 84.05714 10.07492 84.3179 11.07301 84.73611 12.73401 84.99686 13.81038 85.2576 14.88678 85.67578 16.67503 85.93655 17.83275 86.1973 18.99046 86.61548 20.91232 86.87624 22.1544 87.137 23.39647 87.55518 25.45529 87.81592 26.78484 88.07668 28.11436 88.49487 30.31737 88.75562 31.7369 89.01636 33.15642 89.43456 35.5025 89.69531 37.01584 89.95605 38.52916 90.37427 41.03378 90.63503 42.644 90.89577 44.25424 91.31396 46.91159 91.5747 48.62141 91.83546 50.3312 92.25365 53.1539 92.5144 54.96709 92.77515 56.78026 93.45409 61.68958 93.45409 61.68958"/>
<use data-text="A" xlink:href="#font_1_1" transform="matrix(9.96264,0,0,-9.96264,32.192,720.84506)"/>
<use data-text="B" xlink:href="#font_1_2" transform="matrix(9.96264,0,0,-9.96264,80.231,675.632)"/>
<use data-text="C" xlink:href="#font_1_3" transform="matrix(9.96264,0,0,-9.96264,155.17801,691.223)"/>
<use data-text="D" xlink:href="#font_1_4" transform="matrix(9.96264,0,0,-9.96264,196.927,713.985)"/>
</svg>
