<svg xmlns="http://www.w3.org/2000/svg" xmlns:xlink="http://www.w3.org/1999/xlink" xmlns:inkscape="http://www.inkscape.org/namespaces/inkscape" version="1.1" width="199.132" height="131.466" viewBox="0 0 199.132 131.466">
<defs>
<clipPath id="clip_1">
<path transform="matrix(1,0,0,-1,99.566,65.733)" d="M28.3468 0C28.3468 31.31142 2.9646 56.69362-28.3468 56.69362-59.65822 56.69362-85.04042 31.31142-85.04042 0-85.04042-31.31142-59.65822-56.69362-28.3468-56.69362 2.9646-56.69362 28.3468-31.31142 28.3468 0ZM-28.3468 0"/>
</clipPath>
<path id="font_2_1" d="M.1789856 .114868167C.13899231 .047973634 .099990848 .033981325 .055999757 .0309906 .04399109 .02999878 .034988405 .02999878 .034988405 .010986328 .034988405 .004989624 .039993287 0 .04798889 0 .07499695 0 .10598755 .0029907227 .13398743 .0029907227 .16699219 .0029907227 .20199585 0 .23399353 0 .23999024 0 .25299073 0 .25299073 .018997193 .25299073 .02999878 .24398804 .0309906 .23699951 .0309906 .21398926 .032989503 .18998719 .04096985 .18998719 .06593323 .18998719 .077926639 .19599915 .088897708 .20399475 .102890018L.27999879 .23068238H.5309906C.5329895 .2097168 .5469971 .07392883 .5469971 .063949588 .5469971 .033981325 .49499513 .0309906 .47499085 .0309906 .46099855 .0309906 .45098878 .0309906 .45098878 .010986328 .45098878 0 .46299745 0 .46499635 0 .5059967 0 .548996 .0029907227 .58999636 .0029907227 .61499026 .0029907227 .6779938 0 .7029877 0 .70899966 0 .72099307 0 .72099307 .019989014 .72099307 .0309906 .71099856 .0309906 .69799807 .0309906 .6359863 .0309906 .6359863 .037979127 .6329956 .06694031L.57199099 .691803C.56999209 .71180728 .56999209 .7158203 .5529938 .7158203 .5369873 .7158203 .5329895 .7088165 .5269928 .69880679L.1789856 .114868167M.29899598 .26168824 .49598695 .5917816 .5279999 .26168824H.29899598Z"/>
<path id="font_2_2" d="M.1599884 .07795715C.1499939 .038986207 .147995 .0309906 .068984989 .0309906 .051986696 .0309906 .041992189 .0309906 .041992189 .010986328 .041992189 0 .050994874 0 .068984989 0H.42599488C.58399966 0 .70199587 .11791992 .70199587 .21585083 .70199587 .28778077 .6439972 .3457489 .5469971 .35673524 .651001 .37573243 .7559967 .44970704 .7559967 .5446625 .7559967 .6186218 .6899872 .6826172 .56999209 .6826172H.23399353C.21499634 .6826172 .20498657 .6826172 .20498657 .6626129 .20498657 .6516113 .21398926 .6516113 .23298645 .6516113 .23498535 .6516113 .2539978 .6516113 .2709961 .6496124 .2889862 .6476135 .2979889 .64660647 .2979889 .6336212 .2979889 .6296234 .29699708 .62661746 .2939911 .614624L.1599884 .07795715M.31098939 .36573792 .37298585 .6136322C.38198854 .64860537 .38398744 .6516113 .4269867 .6516113H.55599978C.6439972 .6516113 .6649933 .5926361 .6649933 .5486603 .6649933 .46069337 .57899478 .36573792 .45700074 .36573792H.31098939M.2659912 .0309906C.2519989 .0309906 .25 .0309906 .24398804 .03199768 .23399353 .032989503 .23098755 .033996583 .23098755 .04197693 .23098755 .04498291 .23098755 .04698181 .23599243 .064971927L.30499269 .34375H.49398805C.58999636 .34375 .60899356 .2698059 .60899356 .22683716 .60899356 .12791443 .519989 .0309906 .4019928 .0309906H.2659912Z"/>
<path id="font_3_3" d="M.37199403 .32582093C.3809967 .33581544 .3809967 .33981324 .3809967 .34181214 .3809967 .34680177 .3769989 .35180665 .37399293 .35578919L.16899109 .6516113H.3999939C.56900027 .6516113 .61898806 .6156311 .6399994 .45773316H.6649933L.6369934 .6826172H.08198547C.057998659 .6826172 .055999757 .6826172 .055999757 .65960696L.30499269 .2978363 .066986087 .026992798C.056991579 .015991211 .056991579 .01399231 .056991579 .010986328 .056991579 0 .066986087 0 .08198547 0H.6369934L.6649933 .23587036H.6399994C.621994 .06896973 .55400088 .041992189 .39698792 .041992189H.12098694L.37199403 .32582093Z"/>
<path id="font_3_2" d="M.44198609 .69781497C.43499757 .7108154 .43299867 .7158203 .41600038 .7158203 .39898683 .7158203 .39698792 .7108154 .3899994 .69781497L.051986696 .019989014C.04699707 .010986328 .04699707 .008987427 .04699707 .0079956059 .04699707 0 .052993776 0 .068984989 0H.7630005C.7789917 0 .7849884 0 .7849884 .0079956059 .7849884 .008987427 .7849884 .010986328 .7799988 .019989014L.44198609 .69781497M.38398744 .61582949 .6529999 .07598877H.11399841L.38398744 .61582949Z"/>
<path id="font_3_1" d="M.55400088 .6796112H.032989503V.64860537H.056991579C.13398743 .64860537 .13598633 .637619 .13598633 .6016388V.07795715C.13598633 .041992189 .13398743 .0309906 .056991579 .0309906H.032989503V0C.067993167 .0029907227 .1459961 .0029907227 .18499756 .0029907227 .22599793 .0029907227 .31698609 .0029907227 .35299684 0V.0309906H.31999208C.22499085 .0309906 .22499085 .04399109 .22499085 .07896423V.6086273C.22499085 .6416168 .22698975 .64860537 .27398683 .64860537H.3769989C.519989 .64860537 .54100039 .5896454 .5569916 .45472718H.58200076L.55400088 .6796112Z"/>
</defs>
<g clip-path="url(#clip_1)">
<path transform="matrix(1,0,0,-1,99.566,65.733)" d="M85.04042 0C85.04042 31.31142 59.65822 56.69362 28.3468 56.69362-2.9646 56.69362-28.3468 31.31142-28.3468 0-28.3468-31.31142-2.9646-56.69362 28.3468-56.69362 59.65822-56.69362 85.04042-31.31142 85.04042 0ZM28.3468 0" fill="#dfdfdf"/>
</g>
<path transform="matrix(1,0,0,-1,99.566,65.733)" stroke-width=".79701" stroke-linecap="butt" stroke-miterlimit="10" stroke-linejoin="miter" fill="none" stroke="#000000" d="M28.3468 0C28.3468 31.31142 2.9646 56.69362-28.3468 56.69362-59.65822 56.69362-85.04042 31.31142-85.04042 0-85.04042-31.31142-59.65822-56.69362-28.3468-56.69362 2.9646-56.69362 28.3468-31.31142 28.3468 0ZM-28.3468 0"/>
<path transform="matrix(1,0,0,-1,99.566,65.733)" stroke-width=".79701" stroke-linecap="butt" stroke-miterlimit="10" stroke-linejoin="miter" fill="none" stroke="#000000" d="M85.04042 0C85.04042 31.31142 59.65822 56.69362 28.3468 56.69362-2.9646 56.69362-28.3468 31.31142-28.3468 0-28.3468-31.31142-2.9646-56.69362 28.3468-56.69362 59.65822-56.69362 85.04042-31.31142 85.04042 0ZM28.3468 0"/>
<path transform="matrix(1,0,0,-1,99.566,65.733)" stroke-width=".3985" stroke-linecap="butt" stroke-miterlimit="10" stroke-linejoin="miter" fill="none" stroke="#000000" d="M-96.37918 0H95.98068"/>
<path transform="matrix(1,0,0,-1,195.74594,65.733)" stroke-width=".3985" stroke-linecap="round" stroke-linejoin="round" fill="none" stroke="#000000" d="M-2.07224 2.39104C-1.69365 .95639-.84999 .27895 0 0-.84999-.27895-1.69365-.95639-2.07224-2.39104"/>
<path transform="matrix(1,0,0,-1,99.566,65.733)" d="M-27.35052 0C-27.35052 .55023-27.79657 .99628-28.3468 .99628-28.89703 .99628-29.34308 .55023-29.34308 0-29.34308-.55023-28.89703-.99628-28.3468-.99628-27.79657-.99628-27.35052-.55023-27.35052 0ZM-28.3468 0"/>
<path transform="matrix(1,0,0,-1,99.566,65.733)" d="M29.34308 0C29.34308 .55023 28.89703 .99628 28.3468 .99628 27.79657 .99628 27.35052 .55023 27.35052 0 27.35052-.55023 27.79657-.99628 28.3468-.99628 28.89703-.99628 29.34308-.55023 29.34308 0ZM28.3468 0"/>
<path transform="matrix(1,0,0,-1,99.566,65.733)" d="M1.24535 49.09673C1.24535 49.78452 .68777 50.34207 0 50.34207-.68777 50.34207-1.24535 49.78452-1.24535 49.09673-1.24535 48.40895-.68777 47.85138 0 47.85138 .68777 47.85138 1.24535 48.40895 1.24535 49.09673ZM0 49.09673"/>
<use data-text="A" xlink:href="#font_2_1" transform="matrix(9.96264,0,0,-9.96264,95.83,13.117004)"/>
<path transform="matrix(1,0,0,-1,99.566,65.733)" d="M1.24535-49.09673C1.24535-48.40895 .68777-47.85138 0-47.85138-.68777-47.85138-1.24535-48.40895-1.24535-49.09673-1.24535-49.78452-.68777-50.34207 0-50.34207 .68777-50.34207 1.24535-49.78452 1.24535-49.09673ZM0-49.09673"/>
<use data-text="B" xlink:href="#font_2_2" transform="matrix(9.96264,0,0,-9.96264,95.538,125.157009)"/>
<use data-text="&#x03a3;" xlink:href="#font_3_3" transform="matrix(9.96264,0,0,-9.96264,16.598,23.783005)"/>
<use data-text="&#x2206;" xlink:href="#font_3_2" transform="matrix(9.96264,0,0,-9.96264,174.785,23.783005)"/>
<use data-text="&#x0393;" xlink:href="#font_3_1" transform="matrix(9.96264,0,0,-9.96264,96.453,69.13701)"/>
</svg>
