<svg xmlns="http://www.w3.org/2000/svg" xmlns:xlink="http://www.w3.org/1999/xlink" xmlns:inkscape="http://www.inkscape.org/namespaces/inkscape" version="1.1" width="217.136" height="125.996" viewBox="0 0 217.136 125.996">
<defs>
<path id="font_1_3" d="M.33399964 .30233766C.33999635 .32835389 .36299134 .42037965 .43299867 .42037965 .43798829 .42037965 .46199037 .42037965 .48298646 .40734864 .45498658 .402359 .43499757 .37734986 .43499757 .35334779 .43499757 .33735658 .44599916 .31835938 .47299195 .31835938 .49499513 .31835938 .5269928 .3363495 .5269928 .37635804 .5269928 .42837525 .46798707 .4423828 .43399049 .4423828 .37599183 .4423828 .34098817 .38935853 .32899476 .36634828 .3039856 .43237306 .25 .4423828 .22099304 .4423828 .116989139 .4423828 .05999756 .3133545 .05999756 .28834535 .05999756 .27833558 .069992069 .27833558 .07199097 .27833558 .07998657 .27833558 .08299255 .28033448 .084991458 .28933717 .11898804 .39535523 .18499756 .42037965 .21899414 .42037965 .23799134 .42037965 .272995 .4113617 .272995 .35334779 .272995 .32235719 .2559967 .25532533 .21899414 .11528015 .20298767 .053268434 .16799927 .011245728 .12399292 .011245728 .117996219 .011245728 .09498596 .011245728 .07398987 .024276734 .09899902 .029266358 .12098694 .05027771 .12098694 .07827759 .12098694 .105270389 .09899902 .11328125 .083999637 .11328125 .053985597 .11328125 .0289917 .08728027 .0289917 .055267335 .0289917 .009246826 .07899475-.0107421879 .12298584-.0107421879 .18899536-.0107421879 .22499085 .059280397 .22799683 .0652771 .23999024 .028274537 .27598573-.0107421879 .33599855-.0107421879 .43899537-.0107421879 .49598695 .118270877 .49598695 .14328003 .49598695 .1532898 .4869995 .1532898 .48399354 .1532898 .47499085 .1532898 .47299195 .14929199 .47099305 .14228821 .43798829 .03527832 .36999513 .011245728 .33799745 .011245728 .29899598 .011245728 .2829895 .043273927 .2829895 .07727051 .2829895 .09927368 .2889862 .121276859 .2999878 .16529846L.33399964 .30233766Z"/>
<path id="font_1_4" d="M.48599244 .38136292C.48999024 .39537049 .48999024 .39736939 .48999024 .40437318 .48999024 .42237855 .47599793 .43138124 .46099855 .43138124 .45098878 .43138124 .43499757 .42536927 .42599488 .41036988 .42399598 .405365 .41600038 .37435914 .4119873 .35635377 .40499879 .33035279 .397995 .30334474 .3919983 .27633668L.34700013 .09628296C.34298707 .08126831 .2999878 .011245728 .23399353 .011245728 .18299866 .011245728 .17199707 .055267335 .17199707 .0922699 .17199707 .1382904 .18899536 .20030213 .22299195 .28833009 .23899842 .3293457 .24299622 .3403473 .24299622 .36035157 .24299622 .405365 .21099854 .4423828 .16099549 .4423828 .06599426 .4423828 .0289917 .29733277 .0289917 .28833009 .0289917 .27833558 .038986207 .27833558 .040985109 .27833558 .050994874 .27833558 .051986696 .28033448 .056991579 .29634095 .083999637 .3903656 .12399292 .42037965 .1579895 .42037965 .1659851 .42037965 .18299866 .42037965 .18299866 .3883667 .18299866 .36335755 .17298889 .3373413 .1659851 .31834413 .12599182 .21231079 .10798645 .1552887 .10798645 .10827637 .10798645 .019256592 .17098999-.0107421879 .22999573-.0107421879 .2689972-.0107421879 .30299378 .0062561037 .33099366 .03425598 .31799317-.017745972 .30599977-.06674194 .2659912-.11973572 .23999024-.15385437 .20199585-.18309021 .1559906-.18309021 .14199829-.18309021 .09700012-.18005371 .07998657-.14074707 .09599304-.14074707 .10899353-.14074707 .12298584-.1287384 .1329956-.11973572 .14299011-.10673523 .14299011-.08773804 .14299011-.056747438 .115997318-.052734376 .10598755-.052734376 .08299255-.052734376 .049987794-.068740848 .049987794-.11773682 .049987794-.16796875 .09399414-.20507813 .1559906-.20507813 .25898744-.20507813 .3619995-.11373901 .3899994-.00074768069L.48599244 .38136292Z"/>
<path id="font_1_2" d="M.73999026 .4358673C.73999026 .5970001 .6339874 .7050781 .4850006 .7050781 .2689972 .7050781 .04899597 .47790528 .04899597 .24472046 .04899597 .07859802 .16099549-.022460938 .30499269-.022460938 .5169983-.022460938 .73999026 .19668579 .73999026 .4358673M.31098939 .0035247803C.21199036 .0035247803 .14199829 .08459473 .14199829 .21670532 .14199829 .2607422 .1559906 .4068451 .23298645 .52394106 .3019867 .62802127 .3999939 .68006899 .47898866 .68006899 .5609894 .68006899 .651001 .62402346 .651001 .4748993 .651001 .4028473 .6239929 .24671936 .5249939 .12362671 .47698976 .062576297 .394989 .0035247803 .31098939 .0035247803Z"/>
<path id="font_2_1" d="M.5369873-.8338623 .31298829-.44586183C.30499269-.4318695 .30299378-.4278717 .2939911-.4278717 .2889862-.4278717 .2679901-.4398651 .25498963-.44786073L.1579895-.5038605C.15098572-.5078583 .14399719-.51286318 .14399719-.52186587 .14399719-.53086856 .1519928-.53886416 .16099549-.53886416 .1659851-.53886416 .18798828-.52586367 .20098877-.51885989L.23999024-.49586488 .4889984-.9268646C.49899293-.94285586 .49899293-.9438629 .5139923-.9438629 .5339966-.9438629 .5389862-.93585208 .54599-.9248657L1.1159973 .005126953C1.1259918 .020126343 1.1259918 .022125245 1.1259918 .028121949 1.1259918 .043121339 1.1129913 .056121828 1.097992 .056121828 1.0820007 .056121828 1.074997 .044128419 1.0699921 .036132814L.5369873-.8338623Z"/>
<path id="font_3_1" d="M.32998658 .3310547C.42199708 .3310547 .48298646 .2737732 .48298646 .17437744 .48298646 .07237244 .41999818 .01852417 .33099366 .01852417 .31999208 .01852417 .20098877 .01852417 .1499939 .070373538 .19099427 .07637024 .20298767 .1073761 .20298767 .13137818 .20298767 .16838074 .1749878 .19238281 .14199829 .19238281 .10998535 .19238281 .07998657 .17137146 .07998657 .12937927 .07998657 .025512696 .19799805-.022460938 .33399964-.022460938 .49798585-.022460938 .59999087 .07637024 .59999087 .17337036 .59999087 .25567628 .5269928 .3260193 .41299439 .35205079 .5329895 .3909912 .5649872 .46684266 .5649872 .5228424 .5649872 .60491946 .46299745 .6660156 .33699037 .6660156 .21398926 .6660156 .114990238 .61395266 .114990238 .5238342 .114990238 .47683717 .15299988 .46484376 .17199707 .46484376 .20098877 .46484376 .22898865 .48583985 .22898865 .5218353 .22898865 .5448303 .21699524 .5728302 .18099976 .57884219 .22399903 .625 .31298829 .628006 .33399964 .628006 .40699769 .628006 .45899964 .5908661 .45899964 .5228424 .45899964 .46484376 .42099 .37402345 .31599427 .368042 .28799439 .3670349 .28399659 .3660431 .2579956 .365036 .24699402 .3640442 .23599243 .36305238 .23599243 .34805299 .23599243 .3310547 .24598694 .3310547 .2639923 .3310547H.32998658Z"/>
<path id="font_1_1" d="M.040985109 .2543335C.07998657 .3693695 .18899536 .3703766 .19999695 .3703766 .35099793 .3703766 .3619995 .1953125 .3619995 .11627197 .3619995 .055252077 .35699464 .038238527 .34999085 .018234253 .32798768-.05479431 .2979889-.1708374 .2979889-.19685364 .2979889-.20785523 .30299378-.21484375 .31098939-.21484375 .32398988-.21484375 .33198548-.19285584 .34298707-.15483094 .3659973-.07080078 .37599183-.0137786869 .37998963 .017227173 .38198854 .03024292 .38398744 .04324341 .3880005 .056243898 .41999818 .1552887 .48399354 .3043518 .5239868 .38337709 .5309906 .39537049 .54299929 .41737367 .54299929 .42137147 .54299929 .43138124 .5329895 .43138124 .5309906 .43138124 .5279999 .43138124 .5219879 .43138124 .5189972 .42437745 .46699525 .32936097 .4269867 .22932434 .3869934 .12828064 .38598634 .1592865 .3849945 .23532105 .34599305 .33236695 .32199098 .39337159 .28199769 .4423828 .21299744 .4423828 .08799744 .4423828 .017990113 .29034425 .017990113 .25933839 .017990113 .24932862 .026992798 .24932862 .036987306 .24932862L.040985109 .2543335Z"/>
<path id="font_4_1" d="M.33499146 .63612368C.33499146 .6630554 .33299256 .6640625 .30499269 .6640625 .24099732 .6014404 .1499939 .6004486 .10899353 .6004486V.5644531C.1329956 .5644531 .19898987 .5644531 .2539978 .592453V.08203125C.2539978 .04899597 .2539978 .035995485 .1539917 .035995485H.115997318V0C.13398743 .0009918213 .25698854 .0039978029 .2939911 .0039978029 .32499696 .0039978029 .45098878 .0009918213 .47299195 0V.035995485H.43499757C.33499146 .035995485 .33499146 .04899597 .33499146 .08203125V.63612368Z"/>
<path id="font_4_2" d="M.5049896 .18203736H.47099305C.46798707 .16001892 .45799256 .100997928 .44499208 .09098816 .43699647 .084991458 .3600006 .084991458 .34599305 .084991458H.1619873C.2669983 .17803955 .3019867 .20603943 .3619995 .25306703 .43598939 .312088 .5049896 .374115 .5049896 .46914674 .5049896 .5900879 .39898683 .6640625 .2709961 .6640625 .14698792 .6640625 .06298828 .57710269 .06298828 .4851532 .06298828 .43414308 .10598755 .42915345 .115997318 .42915345 .13999939 .42915345 .16899109 .44615174 .16899109 .48214723 .16899109 .5001526 .1619873 .53515627 .10998535 .53515627 .14099121 .6060791 .20899964 .62805178 .2559967 .62805178 .35598756 .62805178 .4079895 .5501404 .4079895 .46914674 .4079895 .38212586 .34599305 .3130951 .31399537 .27708436L.07299805 .038986207C.06298828 .02999878 .06298828 .027999878 .06298828 0H.47499085L.5049896 .18203736Z"/>
<path id="font_4_3" d="M.272995 .33428956C.35099793 .33428956 .40699769 .2803192 .40699769 .1733551 .40699769 .04940796 .33499146 .012466431 .2769928 .012466431 .23699951 .012466431 .14898682 .0234375 .10699463 .082351688 .1539917 .084350589 .16499329 .11735535 .16499329 .13835144 .16499329 .17034912 .14099121 .19335938 .10998535 .19335938 .08198547 .19335938 .053985597 .17634583 .053985597 .13534546 .053985597 .041412355 .1579895-.01953125 .2789917-.01953125 .41799928-.01953125 .5139923 .07336426 .5139923 .1733551 .5139923 .2513275 .44999696 .32929994 .33999635 .35229493 .44499208 .39024354 .48298646 .4650879 .48298646 .5260773 .48298646 .60505679 .3919983 .6640625 .2809906 .6640625 .16999817 .6640625 .084991458 .61006167 .084991458 .5300751 .084991458 .49606324 .10699463 .47706605 .13699341 .47706605 .16799927 .47706605 .18798828 .5000763 .18798828 .5280762 .18798828 .5570679 .16799927 .57806399 .13699341 .5800781 .17199707 .62405398 .24099732 .63505557 .27799989 .63505557 .32299806 .63505557 .38598634 .6130676 .38598634 .5260773 .38598634 .48406983 .37199403 .43814088 .34599305 .4072113 .31298829 .36927796 .2849884 .3672943 .23498535 .36428834 .20999146 .3623047 .20799256 .3623047 .20298767 .3612976 .20098877 .3612976 .19299317 .3592987 .19299317 .34829713 .19299317 .33428956 .20199585 .33428956 .21899414 .33428956H.272995Z"/>
</defs>
<path transform="matrix(1,0,0,-1,99.566,83.123)" stroke-width=".3985" stroke-linecap="butt" stroke-miterlimit="10" stroke-linejoin="miter" fill="none" stroke="#000000" d="M-96.37897 0H100.05615"/>
<path transform="matrix(1,0,0,-1,199.62216,83.123)" d="M1.99252 0-1.19551 1.59401 0 0-1.19551-1.59401"/>
<use data-text="x" xlink:href="#font_1_3" transform="matrix(9.96264,0,0,-9.96264,205.133,90.93201)"/>
<path transform="matrix(1,0,0,-1,99.566,83.123)" stroke-width=".3985" stroke-linecap="butt" stroke-miterlimit="10" stroke-linejoin="miter" fill="none" stroke="#000000" d="M0-39.68535V71.70934"/>
<path transform="matrix(0,-1,-1,-0,99.566,11.413658)" d="M1.99252 0-1.19551 1.59401 0 0-1.19551-1.59401"/>
<use data-text="y" xlink:href="#font_1_4" transform="matrix(9.96264,0,0,-9.96264,90.804,10.598)"/>
<use data-text="O" xlink:href="#font_1_2" transform="matrix(9.96264,0,0,-9.96264,88.17,93.451007)"/>
<path transform="matrix(1,0,0,-1,99.566,83.123)" stroke-width=".3985" stroke-linecap="butt" stroke-miterlimit="10" stroke-linejoin="miter" fill="none" stroke="#000000" d="M16.35599 1.70073V-1.70073"/>
<use data-text="&#x221a;" xlink:href="#font_2_1" transform="matrix(4.98132,0,0,-4.98132,111.49401,88.864)"/>
<path transform="matrix(1,0,0,-1,116.95901,88.725009)" stroke-width=".279" stroke-linecap="butt" stroke-miterlimit="10" stroke-linejoin="miter" fill="none" stroke="#000000" d="M0 0H3.39"/>
<use data-text="3" xlink:href="#font_3_1" transform="matrix(4.98132,0,0,-4.98132,116.95901,92.972)"/>
<path transform="matrix(1,0,0,-1,111.49401,94.075008)" stroke-width=".339" stroke-linecap="butt" stroke-miterlimit="10" stroke-linejoin="miter" fill="none" stroke="#000000" d="M0 0H8.856"/>
<use data-text="3" xlink:href="#font_3_1" transform="matrix(4.98132,0,0,-4.98132,114.226009,98.219)"/>
<path transform="matrix(1,0,0,-1,99.566,83.123)" stroke-width=".79701" stroke-linecap="butt" stroke-miterlimit="10" stroke-linejoin="miter" fill="none" stroke="#000000" d="M-93.54454-6.02739C-93.54454-6.02739-92.86546-6.06566-92.60464-6.0806-92.34381-6.09555-91.92555-6.12-91.66473-6.1351-91.40392-6.1502-90.98563-6.1743-90.72482-6.1896-90.46402-6.2049-90.04573-6.22975-89.78493-6.2454-89.52412-6.26106-89.10583-6.28665-88.84502-6.30249-88.5842-6.31833-88.16594-6.34357-87.9051-6.35959-87.64429-6.37561-87.22603-6.40161-86.96521-6.41798-86.70439-6.43436-86.2861-6.46094-86.0253-6.47768-85.7645-6.49442-85.3462-6.52156-85.0854-6.53867-84.8246-6.55577-84.40631-6.58368-84.1455-6.60095-83.88467-6.61823-83.46642-6.64578-83.20558-6.66324-82.94476-6.68068-82.5265-6.709-82.26569-6.72682-82.00487-6.74464-81.58658-6.77351-81.32578-6.79169-81.06497-6.80988-80.64668-6.83951-80.38588-6.85788-80.12508-6.87624-79.70679-6.90533-79.44597-6.92406-79.18515-6.94276-78.76689-6.97375-78.50606-6.99283-78.24524-7.0119-77.82698-7.04216-77.56616-7.0616-77.30534-7.08104-76.88707-7.11299-76.62625-7.13298-76.36543-7.15295-75.94714-7.18549-75.68634-7.20564-75.42554-7.2258-75.00725-7.25797-74.74644-7.2783-74.48564-7.29865-74.06737-7.33157-73.80653-7.35226-73.54572-7.37296-73.12746-7.40648-72.86664-7.42752-72.6058-7.44858-72.18755-7.48267-71.92673-7.50409-71.66591-7.5255-71.24762-7.56-70.98682-7.58195-70.72601-7.6039-70.30772-7.64008-70.04692-7.6624-69.78612-7.68471-69.36783-7.72017-69.10701-7.74284-68.84619-7.76553-68.42793-7.80269-68.16711-7.8259-67.90628-7.8491-67.48802-7.88684-67.2272-7.91023-66.96638-7.93362-66.5481-7.97083-66.2873-7.9946-66.02649-8.01836-65.6082-8.05724-65.3474-8.08153-65.0866-8.10582-64.6683-8.14511-64.40749-8.16977-64.14667-8.19443-63.72841-8.2341-63.46759-8.25931-63.20676-8.28452-62.7885-8.32587-62.52768-8.35143-62.26686-8.37698-61.84859-8.41783-61.58777-8.44357-61.32695-8.4693-60.90866-8.5107-60.64786-8.53699-60.38705-8.56326-59.96877-8.60602-59.70796-8.63301-59.44716-8.66002-59.02888-8.70427-58.76807-8.73163-58.50723-8.75899-58.08897-8.8027-57.82816-8.83025-57.56734-8.85779-57.14906-8.90208-56.88824-8.93016-56.62743-8.95825-56.20914-9.00404-55.94833-9.03267-55.68753-9.0613-55.26924-9.10751-55.00844-9.13649-54.74763-9.16547-54.32936-9.21243-54.06853-9.2416-53.80771-9.27075-53.38945-9.31718-53.12863-9.3467-52.86781-9.37622-52.44954-9.42416-52.18872-9.4544-51.9279-9.48465-51.50961-9.53409-51.24881-9.5647-50.988-9.59529-50.56972-9.64421-50.30891-9.67499-50.04811-9.70576-49.62984-9.75545-49.369-9.78659-49.10818-9.81772-48.68993-9.8678-48.42911-9.89948-48.16829-9.93115-47.75002-9.98311-47.4892-10.01497-47.22838-10.04683-46.8101-10.0973-46.54929-10.12917-46.28847-10.16103-45.87018-10.21243-45.60938-10.24464-45.34857-10.27687-44.9303-10.32904-44.66948-10.36143-44.40868-10.39383-43.9904-10.44563-43.72958-10.47821-43.46875-10.51079-43.05049-10.56372-42.78967-10.5963-42.52885-10.62888-42.11058-10.68051-41.84976-10.71309-41.58894-10.74567-41.17065-10.79878-40.90985-10.83118-40.64905-10.86357-40.23077-10.91444-39.96996-10.94667-39.70915-10.97888-39.29088-11.0314-39.03006-11.06345-38.76923-11.09549-38.35097-11.14613-38.09015-11.17763-37.82933-11.20912-37.41106-11.25938-37.15024-11.29051-36.88942-11.32166-36.47113-11.3715-36.21033-11.40211-35.94952-11.43271-35.53123-11.4816-35.27043-11.51111-35.00963-11.54063-34.59135-11.58649-34.33054-11.61493-34.0697-11.64337-33.65144-11.68878-33.39063-11.71614-33.1298-11.7435-32.71153-11.78642-32.45071-11.81216-32.1899-11.83789-31.7716-11.87775-31.5108-11.9017-31.25-11.92564-30.83171-11.9628-30.5709-11.98474-30.3101-12.0067-29.89183-12.04057-29.63101-12.06001-29.37018-12.07945-28.95192-12.10797-28.6911-12.1249-28.43028-12.14182-28.01201-12.16777-27.75119-12.18199-27.49037-12.19621-27.0721-12.21696-26.81128-12.2274-26.55046-12.23782-26.13217-12.25095-25.87137-12.25725-25.61057-12.26353-25.19229-12.27084-24.93147-12.27283-24.67067-12.2748-24.2524-12.27475-23.99158-12.27151-23.73076-12.26828-23.31248-12.25845-23.05167-12.24945-22.79085-12.24046-22.37257-12.22139-22.11176-12.20663-21.85094-12.19188-21.43265-12.16483-21.17184-12.14307-20.91104-12.12129-20.49277-12.07968-20.23195-12.04962-19.97115-12.01958-19.55287-11.96506-19.29205-11.92636-19.03123-11.88765-18.61296-11.81816-18.35214-11.77065-18.09132-11.72311-17.67305-11.64119-17.41223-11.58377-17.15141-11.52637-16.73312-11.42511-16.47232-11.3567-16.21152-11.2883-15.79324-11.17062-15.53242-11.09068-15.27162-11.01076-14.85335-10.87274-14.59253-10.78056-14.3317-10.6884-13.91344-10.5309-13.65262-10.42632-13.3918-10.32173-12.97353-10.14511-12.7127-10.02666-12.45189-9.9082-12.03362-9.7057-11.7728-9.57248-11.51198-9.43925-11.0937-9.21367-10.83289-9.0664-10.57208-8.91914-10.15381-8.6727-9.893-8.51103-9.63219-8.34937-9.21391-8.07759-8.9531-7.90115-8.69228-7.72473-8.274-7.4293-8.01318-7.23936-7.75237-7.04944-7.33409-6.7358-7.07327-6.53218-6.81245-6.32857-6.39417-5.98836-6.13336-5.77177-5.87256-5.55519-5.45428-5.19907-5.19348-4.97115-4.93266-4.74323-4.51439-4.36717-4.25357-4.12898-3.99275-3.89081-3.57448-3.50087-3.31366-3.2544-3.05284-3.00793-2.63457-2.60587-2.37375-2.35255-2.11293-2.09924-1.69464-1.68683-1.43384-1.42867-1.17303-1.17049-.75476-.75174-.49396-.49178-.23314-.23181 .18512 .18515 .44592 .44505 .70673 .70497 1.12502 1.12352 1.38583 1.38152 1.64665 1.63951 2.06493 2.051 2.32574 2.30455 2.58656 2.5581 3.00484 2.96185 3.26566 3.20898 3.52647 3.4561 3.94475 3.84712 4.20557 4.08574 4.46637 4.32434 4.88464 4.70023 5.14545 4.92876 5.40625 5.15729 5.82454 5.5158 6.08536 5.73283 6.34618 5.94989 6.76445 6.28873 7.02527 6.49324 7.28609 6.69775 7.70436 7.01591 7.96518 7.20692 8.226 7.39795 8.64427 7.6932 8.90509 7.87001 9.1659 8.04681 9.58417 8.31892 9.84497 8.48119 10.10577 8.64346 10.52406 8.8916 10.78488 9.0396 11.0457 9.18758 11.46397 9.41412 11.7248 9.54782 11.98561 9.68152 12.40388 9.88399 12.6647 10.0033 12.92552 10.12259 13.3438 10.30208 13.60461 10.40771 13.86542 10.51334 14.28369 10.67172 14.5445 10.76456 14.80531 10.85739 15.22359 10.99626 15.4844 11.07686 15.74522 11.15744 16.1635 11.27652 16.42432 11.34546 16.68513 11.4144 17.10341 11.51581 17.36423 11.57384 17.62505 11.63187 18.0433 11.71577 18.30414 11.76372 18.56496 11.81168 18.98323 11.88074 19.24403 11.91943 19.50485 11.95815 19.92313 12.01248 20.18393 12.04271 20.44473 12.07295 20.86302 12.11493 21.12384 12.13744 21.38466 12.15993 21.80293 12.1895 22.06375 12.20491 22.32457 12.22034 22.74284 12.23949 23.00366 12.2486 23.26448 12.25769 23.68275 12.26729 23.94356 12.27065 24.20438 12.274 24.62265 12.27443 24.88345 12.27283 25.14426 12.27121 25.56255 12.26509 25.82336 12.25897 26.08418 12.25287 26.50246 12.23895 26.76328 12.2287 27.0241 12.21843 27.44237 12.1987 27.70319 12.18501 27.964 12.17134 28.38228 12.14688 28.64308 12.13008 28.9039 12.11328 29.32217 12.08345 29.58298 12.0639 29.84378 12.04436 30.26207 12.01097 30.52289 11.98907 30.7837 11.9672 31.20198 11.92998 31.4628 11.90604 31.72362 11.88208 32.14189 11.84216 32.40271 11.81648 32.66353 11.79082 33.0818 11.74814 33.3426 11.7209 33.60342 11.69366 34.0217 11.64856 34.2825 11.62012 34.5433 11.59167 34.9616 11.54533 35.22241 11.51587 35.48323 11.4864 35.9015 11.4381 36.16232 11.40775 36.42314 11.37738 36.84142 11.32802 37.10223 11.29701 37.36305 11.26599 37.78131 11.21568 38.04214 11.18411 38.30296 11.15256 38.72124 11.10149 38.98204 11.06949 39.24284 11.0375 39.66113 10.98586 39.92194 10.95358 40.18274 10.92131 40.60103 10.86931 40.86185 10.83679 41.12267 10.80428 41.54094 10.75165 41.80176 10.71913 42.06258 10.68661 42.48083 10.63487 42.74167 10.60236 43.00249 10.56984 43.42076 10.51729 43.68156 10.48471 43.94237 10.45213 44.36066 10.39987 44.62146 10.36748 44.88226 10.33508 45.30055 10.28336 45.56137 10.25114 45.82219 10.21893 46.24046 10.16725 46.50128 10.13521 46.7621 10.10316 47.18036 10.05197 47.4412 10.02016 47.70201 9.98836 48.12029 9.93753 48.38109 9.90596 48.6419 9.8744 49.06018 9.82385 49.32098 9.79265 49.58179 9.76146 50.00008 9.7119 50.2609 9.68105 50.52171 9.6502 50.93999 9.60086 51.2008 9.57033 51.46162 9.53978 51.87988 9.49106 52.14072 9.46088 52.40154 9.43071 52.8198 9.38252 53.08061 9.35275 53.34145 9.32298 53.75972 9.2757 54.02052 9.24635 54.28133 9.21701 54.69962 9.17017 54.96042 9.14125 55.22122 9.11234 55.63951 9.06638 55.90033 9.03787 56.16115 9.00937 56.57942 8.96393 56.84024 8.93579 57.10106 8.90765 57.51932 8.86266 57.78014 8.835 58.04097 8.80734 58.45924 8.76363 58.72005 8.73639 58.98085 8.70915 59.39914 8.66551 59.65994 8.63864 59.92075 8.61176 60.33904 8.56902 60.59985 8.5426 60.86067 8.5162 61.27895 8.47423 61.53976 8.4483 61.80058 8.4224 62.21884 8.38126 62.47966 8.35576 62.7405 8.33026 63.15877 8.28963 63.41957 8.26448 63.68037 8.23935 64.09866 8.19923 64.35947 8.17451 64.62027 8.14981 65.03856 8.11052 65.29938 8.08629 65.5602 8.06206 65.97847 8.02365 66.23929 7.99977 66.5001 7.97589 66.91837 7.93764 67.1792 7.91412 67.44002 7.89061 67.85828 7.85332 68.1191 7.83023 68.37991 7.80713 68.7982 7.77028 69.059 7.7476 69.31981 7.72493 69.7381 7.68903 69.9989 7.66672 70.2597 7.6444 70.678 7.60866 70.93881 7.5867 71.19963 7.56476 71.61789 7.52995 71.87872 7.50842 72.13954 7.48688 72.5578 7.45259 72.81862 7.43141 73.07944 7.41025 73.49773 7.37654 73.75853 7.35573 74.01933 7.33492 74.43762 7.30179 74.69843 7.28133 74.95923 7.26086 75.37752 7.22832 75.63834 7.20822 75.89915 7.18813 76.31741 7.15616 76.57825 7.13643 76.83907 7.1167 77.25732 7.08536 77.51814 7.06593 77.77898 7.04651 78.19725 7.01543 78.45805 6.99629 78.71886 6.97716 79.13715 6.94672 79.39795 6.92795 79.65875 6.90916 80.07704 6.87938 80.33786 6.8609 80.59868 6.84244 81.01694 6.81291 81.27777 6.79472 81.53859 6.77655 81.95685 6.74767 82.21767 6.72984 82.4785 6.71204 82.89676 6.68378 83.15758 6.66626 83.4184 6.64874 83.83669 6.62082 84.09749 6.60355 84.35829 6.58627 84.77658 6.55867 85.03738 6.54169 85.29819 6.52472 85.71648 6.4978 85.9773 6.48112 86.23811 6.46445 86.65637 6.43788 86.91719 6.42145 87.17802 6.40501 87.59628 6.37874 87.8571 6.36261 88.11792 6.34648 88.53621 6.32098 88.79701 6.30508 89.05782 6.28918 89.4761 6.26364 89.73691 6.24799 89.99771 6.23233 90.416 6.20755 90.67682 6.1922 90.93764 6.17685 91.3559 6.15237 91.61671 6.13725 91.87755 6.12215 92.2958 6.09808 92.55663 6.0832 92.81744 6.06831 93.49654 6.03 93.49654 6.03"/>
<use data-text="&#x03b3;" xlink:href="#font_1_1" transform="matrix(9.96264,0,0,-9.96264,124.51601,58.221)"/>
<use data-text="1" xlink:href="#font_4_1" transform="matrix(6.97385,0,0,-6.97385,129.67401,59.715005)"/>
<path transform="matrix(1,0,0,-1,99.566,83.123)" stroke-width=".79701" stroke-linecap="butt" stroke-dasharray="2.98883,2.98883" stroke-miterlimit="10" stroke-linejoin="miter" fill="none" stroke="#000000" d="M-93.54454-1.5913C-93.54454-1.5913-92.92732-1.60812-92.69029-1.61465-92.45325-1.62119-92.07307-1.63177-91.83603-1.63843-91.59898-1.6451-91.2188-1.65588-90.98175-1.66266-90.7447-1.66945-90.36453-1.68037-90.12749-1.68732-89.89044-1.69427-89.51027-1.70576-89.27322-1.71283-89.03618-1.7199-88.65602-1.73117-88.41898-1.73836-88.18193-1.74554-87.80176-1.75743-87.56471-1.76474-87.32767-1.77206-86.9475-1.78369-86.71045-1.79112-86.4734-1.79855-86.09322-1.8107-85.85617-1.81837-85.61913-1.82605-85.23895-1.83868-85.00192-1.84648-84.76488-1.85428-84.3847-1.86668-84.14766-1.8746-83.91061-1.88252-83.53044-1.89555-83.2934-1.90358-83.05635-1.9116-82.67618-1.92435-82.43913-1.93256-82.20209-1.94077-81.82191-1.95445-81.58487-1.96284-81.34782-1.97124-80.96765-1.9846-80.7306-1.99312-80.49356-2.00163-80.11339-2.01556-79.87634-2.02426-79.6393-2.03296-79.25912-2.04701-79.02208-2.05583-78.78503-2.06465-78.40486-2.07884-78.16782-2.08784-77.93077-2.09685-77.5506-2.11154-77.31355-2.12071-77.07652-2.12988-76.69635-2.14473-76.4593-2.15402-76.22226-2.16331-75.84207-2.17828-75.60503-2.18776-75.36798-2.19722-74.98781-2.21272-74.75076-2.22237-74.51372-2.23203-74.13354-2.24762-73.8965-2.2574-73.65945-2.26717-73.2793-2.2829-73.04225-2.29286-72.8052-2.30283-72.42503-2.31908-72.18799-2.32921-71.95094-2.33936-71.57077-2.35571-71.33372-2.36597-71.09668-2.37624-70.71649-2.39273-70.47945-2.40317-70.2424-2.41359-69.86223-2.43062-69.62518-2.44124-69.38815-2.45184-69.00798-2.469-68.77094-2.47972-68.53389-2.49046-68.15372-2.5078-67.91667-2.51866-67.67963-2.52951-67.29945-2.54704-67.06241-2.55801-66.82536-2.56898-66.44518-2.58665-66.20813-2.59781-65.97108-2.60898-65.59093-2.62718-65.35388-2.63846-65.11684-2.64975-64.73666-2.66772-64.49962-2.67912-64.26257-2.69054-63.8824-2.7092-63.64536-2.72064-63.40831-2.73209-63.02814-2.75023-62.79109-2.76173-62.55405-2.77324-62.17387-2.79207-61.93683-2.8037-61.69978-2.81532-61.31961-2.83401-61.08257-2.84566-60.84552-2.85728-60.46535-2.87592-60.2283-2.8876-59.99126-2.89929-59.61108-2.91824-59.37404-2.93-59.137-2.94174-58.75682-2.96063-58.51978-2.9724-58.28273-2.98415-57.90256-3.00308-57.66553-3.01477-57.42848-3.02646-57.04831-3.04515-56.81126-3.05673-56.57422-3.06831-56.19403-3.08676-55.95699-3.09827-55.71994-3.10977-55.33977-3.12837-55.10272-3.13979-54.86568-3.15118-54.4855-3.16928-54.24846-3.18045-54.01141-3.1916-53.63126-3.2093-53.39421-3.22023-53.15717-3.23114-52.777-3.24855-52.53995-3.25916-52.3029-3.26978-51.92273-3.28653-51.68568-3.29678-51.44864-3.30705-51.06845-3.32323-50.8314-3.33311-50.59436-3.34302-50.21419-3.35881-49.97716-3.36816-49.74011-3.3775-49.35994-3.3919-49.1229-3.4006-48.88585-3.4093-48.50568-3.42279-48.26863-3.43088-48.03159-3.43896-47.65141-3.45168-47.41437-3.45898-47.17732-3.46631-46.79715-3.4773-46.5601-3.48364-46.32306-3.49-45.94289-3.49956-45.70584-3.50484-45.4688-3.51012-45.08862-3.51764-44.85158-3.52171-44.61453-3.52579-44.23436-3.53151-43.99731-3.53426-43.76027-3.537-43.3801-3.54042-43.14305-3.54161-42.906-3.5428-42.52583-3.54344-42.28879-3.54291-42.05176-3.54237-41.67159-3.54015-41.43454-3.5377-41.1975-3.53526-40.8173-3.52983-40.58026-3.52516-40.34322-3.5205-39.96304-3.51117-39.726-3.50397-39.48895-3.49678-39.10878-3.48322-38.87173-3.47327-38.63469-3.4633-38.25453-3.44519-38.01749-3.43217-37.78044-3.41916-37.40027-3.3959-37.16322-3.37941-36.92618-3.36292-36.546-3.33363-36.30896-3.31323-36.07191-3.29283-35.69173-3.257-35.45468-3.23235-35.21764-3.20769-34.83746-3.1649-34.60042-3.13545-34.36337-3.10599-33.98322-3.0547-33.74617-3.01997-33.50912-2.98523-33.12895-2.9255-32.8919-2.88501-32.65486-2.84451-32.27469-2.77505-32.03764-2.728-31.8006-2.68095-31.42043-2.60008-31.18338-2.5459-30.94633-2.49171-30.56615-2.39935-30.32912-2.33742-30.09207-2.27548-29.7119-2.16997-29.47485-2.09952-29.23781-2.02908-28.85764-1.9095-28.62059-1.82962-28.38354-1.74976-28.00337-1.61395-27.76633-1.52382-27.52928-1.43369-27.14911-1.28119-26.91206-1.17996-26.67502-1.07872-26.29486-.90749-26.05782-.79413-25.82077-.68077-25.44058-.48926-25.20354-.36288-24.96649-.23651-24.58632-.02357-24.34927 .11678-24.11223 .25714-23.73206 .49338-23.49501 .6488-23.25797 .80423-22.87779 1.06566-22.64076 1.23705-22.40372 1.40843-22.02354 1.6958-21.7865 1.88412-21.54945 2.07245-21.16928 2.38821-20.93224 2.59435-20.69519 2.80049-20.315 3.14526-20.07796 3.36989-19.84091 3.59451-19.46074 3.96957-19.2237 4.21335-18.98665 4.4571-18.60649 4.86346-18.36945 5.12686-18.1324 5.39024-17.75223 5.82867-17.51518 6.11176-17.27814 6.39482-16.89796 6.86443-16.66092 7.16713-16.42387 7.46983-16.0437 7.97168-15.80666 8.29346-15.56961 8.61525-15.18942 9.14648-14.95238 9.4864-14.71535 9.82632-14.33517 10.38666-14.09813 10.74336-13.86108 11.10008-13.48091 11.68605-13.24387 12.0574-13.00682 12.42877-12.62665 13.03648-12.3896 13.4199-12.15256 13.80333-11.77238 14.42848-11.53534 14.8209-11.2983 15.21333-10.91814 15.85098-10.68109 16.24828-10.44405 16.64557-10.06386 17.2869-9.82681 17.6843-9.58977 18.08171-9.2096 18.71988-8.97255 19.11255-8.7355 19.5052-8.35533 20.13205-8.11829 20.51439-7.88124 20.89674-7.50107 21.50233-7.26402 21.86824-7.027 22.23413-6.64682 22.80885-6.40977 23.15158-6.17273 23.49431-5.79256 24.02513-5.55551 24.33847-5.31847 24.6518-4.93828 25.13199-4.70123 25.40985-4.46419 25.68771-4.08401 26.10466-3.84697 26.34111-3.60992 26.57756-3.22975 26.92395-2.99272 27.11406-2.75568 27.30417-2.3755 27.57236-2.13846 27.7114-1.90141 27.85043-1.52124 28.0317-1.2842 28.11624-1.04715 28.2008-.66698 28.29233-.42993 28.32083-.19289 28.34933 .18727 28.34996 .42432 28.3217 .66136 28.29344 1.04152 28.20161 1.27856 28.11711 1.51561 28.03262 1.89578 27.85126 2.13283 27.71269 2.36987 27.57413 2.75005 27.3079 2.98709 27.1184 3.22414 26.92886 3.60431 26.58295 3.84135 26.34674 4.0784 26.11053 4.45857 25.69354 4.6956 25.41592 4.93265 25.1383 5.31284 24.65903 5.54988 24.34583 5.78693 24.03262 6.1671 23.50105 6.40414 23.15851 6.64119 22.81596 7.02136 22.24248 7.2584 21.87689 7.49545 21.51129 7.87563 20.90576 8.11267 20.52348 8.34972 20.1412 8.72987 19.51428 8.96692 19.12161 9.20396 18.72896 9.58414 18.09091 9.82118 17.69337 10.05823 17.29585 10.43842 16.65378 10.67546 16.25648 10.9125 15.85919 11.29268 15.22234 11.52972 14.82997 11.76677 14.43762 12.14694 13.8121 12.38399 13.42856 12.62102 13.04501 13.00119 12.43706 13.23824 12.06563 13.47528 11.69421 13.85545 11.10829 14.0925 10.75157 14.32954 10.39487 14.70973 9.83472 14.94678 9.49463 15.18382 9.15454 15.564 8.62236 15.80104 8.3004 16.03809 7.97842 16.41824 7.47688 16.65529 7.17406 16.89233 6.87125 17.2725 6.401 17.50955 6.1178 17.7466 5.83461 18.12677 5.39636 18.36382 5.1329 18.60086 4.86946 18.98103 4.46284 19.21808 4.21896 19.45512 3.97508 19.83531 3.59988 20.07236 3.37508 20.30939 3.15027 20.68956 2.80489 20.9266 2.59868 21.16365 2.39249 21.54382 2.07727 21.78087 1.88889 22.01791 1.7005 22.39809 1.41245 22.63513 1.24094 22.87218 1.06943 23.25235 .80818 23.4894 .6527 23.72644 .49721 24.10661 .26077 24.34364 .12022 24.58069-.02031 24.96088-.23386 25.19792-.36029 25.43497-.48672 25.81514-.67775 26.05219-.7911 26.28923-.90446 26.6694-1.076 26.90645-1.17735 27.1435-1.2787 27.52367-1.43146 27.76071-1.52165 27.99776-1.61185 28.37791-1.74747 28.61496-1.82745 28.852-1.90744 29.23218-2.02766 29.46922-2.09824 29.70627-2.1688 30.08646-2.27415 30.3235-2.33612 30.56055-2.3981 30.94072-2.49084 31.17776-2.54503 31.41481-2.59921 31.79498-2.67966 32.03201-2.72672 32.26906-2.77376 32.64923-2.84352 32.88628-2.88414 33.12332-2.92476 33.5035-2.98479 33.74054-3.01953 33.97758-3.05426 34.35776-3.10513 34.5948-3.1346 34.83185-3.16406 35.21204-3.20718 35.44908-3.2319 35.68613-3.25662 36.06628-3.29239 36.30333-3.31279 36.54037-3.33319 36.92055-3.36247 37.1576-3.37897 37.39464-3.39546 37.77481-3.41867 38.01186-3.43175 38.2489-3.44482 38.62907-3.46324 38.86612-3.47327 39.10316-3.48328 39.48334-3.49678 39.72038-3.50397 39.95741-3.51117 40.3376-3.5205 40.57465-3.52516 40.81169-3.52983 41.19186-3.53526 41.42891-3.5377 41.66595-3.54015 42.04613-3.54237 42.28317-3.54291 42.52022-3.54344 42.90039-3.5428 43.13744-3.54161 43.37448-3.54042 43.75464-3.537 43.99168-3.53426 44.22873-3.53151 44.6089-3.52579 44.84595-3.52171 45.083-3.51764 45.46318-3.51012 45.70023-3.50484 45.93727-3.49956 46.31744-3.49 46.55449-3.48364 46.79153-3.4773 47.1717-3.46625 47.40875-3.45898 47.64578-3.45174 48.02596-3.43935 48.263-3.4313 48.50005-3.42326 48.88022-3.40977 49.11726-3.40103 49.35431-3.39227 49.73448-3.3775 49.97153-3.36816 50.20857-3.35881 50.58876-3.3434 50.8258-3.33356 51.06285-3.32372 51.44301-3.30754 51.68005-3.29723 51.9171-3.2869 52.29727-3.26984 52.53432-3.25916 52.77136-3.24849 53.15154-3.23114 53.38858-3.22023 53.62563-3.2093 54.0058-3.1916 54.24284-3.18045 54.47989-3.16928 54.86006-3.15112 55.0971-3.13979 55.33415-3.12843 55.71432-3.1102 55.95137-3.0987 56.18842-3.08717 56.56859-3.06836 56.80563-3.05673 57.04268-3.0451 57.42285-3.0264 57.6599-3.01477 57.89694-3.00314 58.27711-2.98451 58.51416-2.97281 58.7512-2.96112 59.13138-2.94218 59.36841-2.93044 59.60545-2.91869 59.98563-2.89978 60.22267-2.88803 60.45972-2.87628 60.8399-2.85735 61.07695-2.84566 61.314-2.83395 61.69417-2.81526 61.93121-2.8037 62.16826-2.79213 62.54843-2.77368 62.78548-2.76218 63.02252-2.75067 63.40268-2.7321 63.63972-2.72064 63.87677-2.70918 64.25694-2.69095 64.49399-2.67955 64.73103-2.66815 65.1112-2.64975 65.34825-2.63846 65.5853-2.62718 65.96548-2.60933 66.20253-2.59824 66.43958-2.58714 66.81975-2.56947 67.05678-2.55844 67.29382-2.54741 67.674-2.52957 67.91104-2.51866 68.14809-2.50774 68.52826-2.4904 68.7653-2.47972 69.00235-2.46906 69.38252-2.45221 69.61957-2.44167 69.85661-2.4311 70.23679-2.41402 70.47383-2.4036 70.71088-2.39316 71.09105-2.37665 71.3281-2.3664 71.56514-2.35612 71.94531-2.33977 72.18236-2.32964 72.4194-2.31949 72.79958-2.30325 73.03662-2.2933 73.27367-2.28334 73.65384-2.26767 73.89088-2.25784 74.12793-2.248 74.5081-2.23203 74.74515-2.22237 74.98218-2.21272 75.36235-2.19766 75.5994-2.1882 75.83644-2.17873 76.21663-2.16338 76.45367-2.15402 76.69072-2.14467 77.07089-2.12984 77.30794-2.12071 77.54498-2.11159 77.92516-2.09727 78.1622-2.08827 78.39925-2.07927 78.7794-2.06471 79.01645-2.05583 79.2535-2.04695 79.63367-2.0329 79.87071-2.02426 80.10776-2.01563 80.48793-2.00206 80.72498-1.99355 80.96202-1.98503 81.34221-1.97124 81.57925-1.96284 81.8163-1.95445 82.19647-1.94121 82.43352-1.933 82.67056-1.92479 83.05072-1.91167 83.28777-1.90358 83.52481-1.8955 83.90498-1.88252 84.14203-1.8746 84.37907-1.86668 84.75925-1.85422 84.99629-1.84648 85.23334-1.83875 85.61351-1.82642 85.85056-1.8188 86.0876-1.81119 86.46779-1.79906 86.70482-1.79156 86.94186-1.78407 87.32204-1.77211 87.55908-1.76474 87.79613-1.75737 88.1763-1.74554 88.41335-1.73836 88.65039-1.73117 89.03056-1.71983 89.26761-1.71283 89.50465-1.70583 89.88483-1.69469 90.12187-1.68774 90.35892-1.6808 90.73907-1.66951 90.97612-1.66266 91.21317-1.65582 91.59335-1.6451 91.8304-1.63843 92.06744-1.63177 92.44762-1.62119 92.68466-1.61465 92.9217-1.60812 93.53893-1.5913 93.53893-1.5913"/>
<use data-text="&#x03b3;" xlink:href="#font_1_1" transform="matrix(9.96264,0,0,-9.96264,103.823,51.701005)"/>
<use data-text="2" xlink:href="#font_4_2" transform="matrix(6.97385,0,0,-6.97385,108.981,53.195)"/>
<path transform="matrix(1,0,0,-1,99.566,83.123)" stroke-width=".79701" stroke-linecap="butt" stroke-dasharray=".79701,1.99255" stroke-miterlimit="10" stroke-linejoin="miter" fill="none" stroke="#000000" d="M-93.54454 29.14612C-93.54454 29.14612-92.86546 29.0021-92.60464 28.94629-92.34381 28.89049-91.92555 28.80016-91.66473 28.74387-91.40392 28.68758-90.98563 28.59734-90.72482 28.54057-90.46402 28.4838-90.04573 28.39223-89.78493 28.33469-89.52412 28.27715-89.10583 28.18385-88.84502 28.12576-88.5842 28.06767-88.16594 27.9745-87.9051 27.916-87.64429 27.85748-87.22603 27.76309-86.96521 27.70404-86.70439 27.645-86.2861 27.54996-86.0253 27.49037-85.7645 27.43077-85.3462 27.33466-85.0854 27.27454-84.8246 27.2144-84.40631 27.11763-84.1455 27.05696-83.88467 26.99629-83.46642 26.89856-83.20558 26.83723-82.94476 26.77591-82.5265 26.67679-82.26569 26.61491-82.00487 26.55304-81.58658 26.4537-81.32578 26.3913-81.06497 26.32889-80.64668 26.22815-80.38588 26.16507-80.12508 26.102-79.70679 26.00037-79.44597 25.93669-79.18515 25.87303-78.76689 25.7705-78.50606 25.70616-78.24524 25.64183-77.82698 25.53793-77.56616 25.473-77.30534 25.40808-76.88707 25.30379-76.62625 25.23814-76.36543 25.1725-75.94714 25.06618-75.68634 24.99982-75.42554 24.93344-75.00725 24.82666-74.74644 24.75977-74.48564 24.69286-74.06737 24.58516-73.80653 24.51753-73.54572 24.44989-73.12746 24.34058-72.86664 24.2723-72.6058 24.20401-72.18755 24.09431-71.92673 24.0253-71.66591 23.9563-71.24762 23.84467-70.98682 23.77487-70.72601 23.70508-70.30772 23.59283-70.04692 23.52228-69.78612 23.4517-69.36783 23.3375-69.10701 23.2662-68.84619 23.19493-68.42793 23.08037-68.16711 23.0084-67.90628 22.93646-67.48802 22.82039-67.2272 22.74759-66.96638 22.6748-66.5481 22.55727-66.2873 22.48375-66.02649 22.41023-65.6082 22.29227-65.3474 22.21773-65.0866 22.14319-64.6683 22.0219-64.40749 21.94653-64.14667 21.87115-63.72841 21.75049-63.46759 21.67445-63.20676 21.59843-62.7885 21.47533-62.52768 21.39851-62.26686 21.3217-61.84859 21.19829-61.58777 21.12082-61.32695 21.04335-60.90866 20.91864-60.64786 20.8401-60.38705 20.76155-59.96877 20.63412-59.70796 20.55461-59.44716 20.47511-59.02888 20.34727-58.76807 20.26698-58.50723 20.18669-58.08897 20.05708-57.82816 19.97589-57.56734 19.8947-57.14906 19.76392-56.88824 19.68176-56.62743 19.59961-56.20914 19.46686-55.94833 19.38374-55.68753 19.30064-55.26924 19.1667-55.00844 19.0827-54.74763 18.99869-54.32936 18.86311-54.06853 18.77818-53.80771 18.69327-53.38945 18.5566-53.12863 18.47066-52.86781 18.38472-52.44954 18.24582-52.18872 18.1588-51.9279 18.0718-51.50961 17.93152-51.24881 17.84348-50.988 17.75545-50.56972 17.61331-50.30891 17.52426-50.04811 17.4352-49.62984 17.29161-49.369 17.2016-49.10818 17.11159-48.68993 16.96654-48.42911 16.87546-48.16829 16.78436-47.75002 16.63716-47.4892 16.54498-47.22838 16.45282-46.8101 16.30426-46.54929 16.21107-46.28847 16.11789-45.87018 15.96753-45.60938 15.87326-45.34857 15.77899-44.9303 15.6269-44.66948 15.53157-44.40868 15.43622-43.9904 15.28235-43.72958 15.18596-43.46875 15.08958-43.05049 14.93466-42.78967 14.83691-42.52885 14.73917-42.11058 14.5802-41.84976 14.48135-41.58894 14.3825-41.17065 14.22395-40.90985 14.12451-40.64905 14.02509-40.23077 13.86522-39.96996 13.76463-39.70915 13.66406-39.29088 13.50136-39.03006 13.39958-38.76923 13.2978-38.35097 13.13391-38.09015 13.03105-37.82933 12.92819-37.41106 12.76208-37.15024 12.6582-36.88942 12.55434-36.47113 12.38712-36.21033 12.28233-35.94952 12.17757-35.53123 12.00885-35.27043 11.903-35.00963 11.79715-34.59135 11.62622-34.33054 11.51933-34.0697 11.41245-33.65144 11.24043-33.39063 11.13264-33.1298 11.02486-32.71153 10.85118-32.45071 10.74251-32.1899 10.63382-31.7716 10.45877-31.5108 10.34932-31.25 10.23987-30.83171 10.06378-30.5709 9.95355-30.3101 9.84332-29.89183 9.66571-29.63101 9.55475-29.37018 9.4438-28.95192 9.2654-28.6911 9.1538-28.43028 9.04218-28.01201 8.86234-27.75119 8.75023-27.49037 8.63814-27.0721 8.4582-26.81128 8.34581-26.55046 8.2334-26.13217 8.05278-25.87137 7.9401-25.61057 7.8274-25.19229 7.64656-24.93147 7.5335-24.67067 7.42044-24.2524 7.23825-23.99158 7.12518-23.73076 7.01213-23.31248 6.83112-23.05167 6.7186-22.79085 6.60608-22.37257 6.4264-22.11176 6.31418-21.85094 6.20197-21.43265 6.02155-21.17184 5.90974-20.91104 5.79796-20.49277 5.61906-20.23195 5.50835-19.97115 5.39764-19.55287 5.22136-19.29205 5.11172-19.03123 5.00208-18.61296 4.82642-18.35214 4.71811-18.09132 4.6098-17.67305 4.43752-17.41223 4.331-17.15141 4.22447-16.73312 4.0547-16.47232 3.95035-16.21152 3.846-15.79324 3.68076-15.53242 3.5788-15.27162 3.47684-14.85335 3.3146-14.59253 3.21547-14.3317 3.11633-13.91344 2.96004-13.65262 2.86426-13.3918 2.76848-12.97353 2.61726-12.7127 2.52515-12.45189 2.43304-12.03362 2.28835-11.7728 2.20032-11.51198 2.11227-11.0937 1.97401-10.83289 1.8906-10.57208 1.80719-10.15381 1.67726-9.893 1.59908-9.63219 1.52089-9.21391 1.39963-8.9531 1.32701-8.69228 1.25441-8.274 1.14226-8.01318 1.0757-7.75237 1.00914-7.33409 .90738-7.07327 .84732-6.81245 .78726-6.39417 .69577-6.13336 .64273-5.87256 .58969-5.45428 .51062-5.19348 .46497-4.93266 .4193-4.51439 .35149-4.25357 .31358-3.99275 .27567-3.57448 .22142-3.31366 .1916-3.05284 .16177-2.63457 .12027-2.37375 .0986-2.11293 .07695-1.69464 .0486-1.43384 .03546-1.17303 .02232-.75476 .00838-.49396 .00389-.23314-.0006 .18512-.00104 .44592 .00302 .70673 .0071 1.12502 .02057 1.38583 .03328 1.64665 .04599 2.06493 .07353 2.32574 .09471 2.58656 .11589 3.00484 .15651 3.26566 .18597 3.52647 .21544 3.94475 .26952 4.20557 .30708 4.46637 .34465 4.88464 .41145 5.14545 .45676 5.40625 .50206 5.82454 .58102 6.08536 .63365 6.34618 .68628 6.76445 .77649 7.02527 .83609 7.28609 .89568 7.70436 .9969 7.96518 1.06316 8.226 1.12941 8.64427 1.24117 8.90509 1.3136 9.1659 1.38603 9.58417 1.50728 9.84497 1.58524 10.10577 1.6632 10.52406 1.79243 10.78488 1.87547 11.0457 1.95853 11.46397 2.09613 11.7248 2.18387 11.98561 2.27159 12.40388 2.41591 12.6647 2.50784 12.92552 2.5998 13.3438 2.75081 13.60461 2.84651 13.86542 2.94223 14.28369 3.0988 14.5445 3.19774 14.80531 3.29669 15.22359 3.45795 15.4844 3.55978 15.74522 3.66162 16.1635 3.82745 16.42432 3.93176 16.68513 4.03606 17.10341 4.20512 17.36423 4.31152 17.62505 4.41791 18.0433 4.59052 18.30414 4.69865 18.56496 4.80678 18.98323 4.98143 19.24403 5.09096 19.50485 5.20047 19.92313 5.37726 20.18393 5.48802 20.44473 5.5988 20.86302 5.77774 21.12384 5.88942 21.38466 6.0011 21.80293 6.18076 22.06375 6.29297 22.32457 6.4052 22.74284 6.58575 23.00366 6.69827 23.26448 6.81079 23.68275 6.99104 23.94356 7.10399 24.20438 7.21692 24.62265 7.39919 24.88345 7.51231 25.14426 7.62543 25.56255 7.80652 25.82336 7.91933 26.08418 8.03214 26.50246 8.21295 26.76328 8.32547 27.0241 8.438 27.44237 8.6183 27.70319 8.73033 27.964 8.84238 28.38228 9.02147 28.64308 9.13303 28.9039 9.24457 29.32217 9.4234 29.58298 9.53441 29.84378 9.64543 30.26207 9.82294 30.52289 9.93323 30.7837 10.04352 31.20198 10.21997 31.4628 10.32942 31.72362 10.43887 32.14189 10.6135 32.40271 10.72218 32.66353 10.83086 33.0818 11.0049 33.3426 11.11275 33.60342 11.22058 34.0217 11.39255 34.2825 11.49944 34.5433 11.60632 34.9616 11.77713 35.22241 11.8831 35.48323 11.98907 35.9015 12.1583 36.16232 12.2633 36.42314 12.36832 36.84142 12.53616 37.10223 12.64005 37.36305 12.74391 37.78131 12.90923 38.04214 13.01202 38.30296 13.11482 38.72124 13.27908 38.98204 13.38098 39.24284 13.48288 39.66113 13.64577 39.92194 13.74648 40.18274 13.84717 40.60103 14.00728 40.86185 14.10678 41.12267 14.20627 41.54094 14.36485 41.80176 14.46362 42.06258 14.5624 42.48083 14.72098 42.74167 14.81873 43.00249 14.91647 43.42076 15.07172 43.68156 15.16823 43.94237 15.26472 44.36066 15.41885 44.62146 15.51427 44.88226 15.60968 45.30055 15.76163 45.56137 15.85596 45.82219 15.95029 46.24046 16.10095 46.50128 16.1942 46.7621 16.28746 47.18036 16.43596 47.4412 16.52814 47.70201 16.6203 48.12029 16.76744 48.38109 16.8586 48.6419 16.94974 49.06018 17.09508 49.32098 17.18515 49.58179 17.27522 50.00008 17.41876 50.2609 17.50783 50.52171 17.59688 50.93999 17.739 51.2008 17.82703 51.46162 17.91507 51.87988 18.05534 52.14072 18.14235 52.40154 18.22937 52.8198 18.36816 53.08061 18.45422 53.34145 18.54028 53.75972 18.6776 54.02052 18.76262 54.28133 18.84764 54.69962 18.98305 54.96042 19.06712 55.22122 19.15118 55.63951 19.28543 55.90033 19.3686 56.16115 19.45178 56.57942 19.58435 56.84024 19.66663 57.10106 19.7489 57.51932 19.88037 57.78014 19.96162 58.04097 20.04288 58.45924 20.17192 58.72005 20.25227 58.98085 20.33264 59.39914 20.46127 59.65994 20.54079 59.92075 20.62029 60.33904 20.74684 60.59985 20.8254 60.86067 20.90395 61.27895 21.02943 61.53976 21.10696 61.80058 21.1845 62.21884 21.30736 62.47966 21.38423 62.7405 21.4611 63.15877 21.58502 63.41957 21.66104 63.68037 21.73708 64.09866 21.85693 64.35947 21.93225 64.62027 22.00757 65.03856 22.12924 65.29938 22.2039 65.5602 22.27855 65.97847 22.39677 66.23929 22.47034 66.5001 22.5439 66.91837 22.66133 67.1792 22.73419 67.44002 22.80704 67.85828 22.92342 68.1191 22.99544 68.37991 23.06744 68.7982 23.18195 69.059 23.25323 69.31981 23.32451 69.7381 23.43872 69.9989 23.5093 70.2597 23.57986 70.678 23.6921 70.93881 23.76189 71.19963 23.83168 71.61789 23.94327 71.87872 24.01234 72.13954 24.08142 72.5578 24.19135 72.81862 24.25975 73.07944 24.32816 73.49773 24.43774 73.75853 24.50543 74.01933 24.5731 74.43762 24.68074 74.69843 24.74765 74.95923 24.81454 75.37752 24.92139 75.63834 24.9877 75.89915 25.054 76.31741 25.15997 76.57825 25.2256 76.83907 25.29124 77.25732 25.39592 77.51814 25.4609 77.77898 25.5259 78.19725 25.62971 78.45805 25.69405 78.71886 25.75836 79.13715 25.86092 79.39795 25.92458 79.65875 25.98825 80.07704 26.08983 80.33786 26.15295 80.59868 26.2161 81.01694 26.31702 81.27777 26.37961 81.53859 26.44218 81.95685 26.5421 82.21767 26.6041 82.4785 26.66609 82.89676 26.76503 83.15758 26.82642 83.4184 26.8878 83.83669 26.98598 84.09749 27.04659 84.35829 27.10721 84.77658 27.20322 85.03738 27.26328 85.29819 27.32335 85.71648 27.41985 85.9773 27.47955 86.23811 27.53928 86.65637 27.63461 86.91719 27.69366 87.17802 27.75272 87.59628 27.84666 87.8571 27.90517 88.11792 27.96368 88.53621 28.05742 88.79701 28.11539 89.05782 28.17336 89.4761 28.26553 89.73691 28.32301 89.99771 28.3805 90.416 28.47269 90.67682 28.52975 90.93764 28.58682 91.3559 28.67795 91.61671 28.73434 91.87755 28.79074 92.2958 28.88048 92.55663 28.93636 92.81744 28.99222 93.49654 29.13704 93.49654 29.13704"/>
<use data-text="&#x03b3;" xlink:href="#font_1_1" transform="matrix(9.96264,0,0,-9.96264,167.03601,34.693)"/>
<use data-text="3" xlink:href="#font_4_3" transform="matrix(6.97385,0,0,-6.97385,172.19402,36.187005)"/>
</svg>
