<svg xmlns="http://www.w3.org/2000/svg" xmlns:xlink="http://www.w3.org/1999/xlink" xmlns:inkscape="http://www.inkscape.org/namespaces/inkscape" version="1.1" width="199.561" height="230.234" viewBox="0 0 199.561 230.234">
<defs>
<path id="font_1_8" d="M.33399964 .30233766C.33999635 .32835389 .36299134 .42037965 .43299867 .42037965 .43798829 .42037965 .46199037 .42037965 .48298646 .40734864 .45498658 .402359 .43499757 .37734986 .43499757 .35334779 .43499757 .33735658 .44599916 .31835938 .47299195 .31835938 .49499513 .31835938 .5269928 .3363495 .5269928 .37635804 .5269928 .42837525 .46798707 .4423828 .43399049 .4423828 .37599183 .4423828 .34098817 .38935853 .32899476 .36634828 .3039856 .43237306 .25 .4423828 .22099304 .4423828 .116989139 .4423828 .05999756 .3133545 .05999756 .28834535 .05999756 .27833558 .069992069 .27833558 .07199097 .27833558 .07998657 .27833558 .08299255 .28033448 .084991458 .28933717 .11898804 .39535523 .18499756 .42037965 .21899414 .42037965 .23799134 .42037965 .272995 .4113617 .272995 .35334779 .272995 .32235719 .2559967 .25532533 .21899414 .11528015 .20298767 .053268434 .16799927 .011245728 .12399292 .011245728 .117996219 .011245728 .09498596 .011245728 .07398987 .024276734 .09899902 .029266358 .12098694 .05027771 .12098694 .07827759 .12098694 .105270389 .09899902 .11328125 .083999637 .11328125 .053985597 .11328125 .0289917 .08728027 .0289917 .055267335 .0289917 .009246826 .07899475-.0107421879 .12298584-.0107421879 .18899536-.0107421879 .22499085 .059280397 .22799683 .0652771 .23999024 .028274537 .27598573-.0107421879 .33599855-.0107421879 .43899537-.0107421879 .49598695 .118270877 .49598695 .14328003 .49598695 .1532898 .4869995 .1532898 .48399354 .1532898 .47499085 .1532898 .47299195 .14929199 .47099305 .14228821 .43798829 .03527832 .36999513 .011245728 .33799745 .011245728 .29899598 .011245728 .2829895 .043273927 .2829895 .07727051 .2829895 .09927368 .2889862 .121276859 .2999878 .16529846L.33399964 .30233766Z"/>
<path id="font_1_9" d="M.48599244 .38136292C.48999024 .39537049 .48999024 .39736939 .48999024 .40437318 .48999024 .42237855 .47599793 .43138124 .46099855 .43138124 .45098878 .43138124 .43499757 .42536927 .42599488 .41036988 .42399598 .405365 .41600038 .37435914 .4119873 .35635377 .40499879 .33035279 .397995 .30334474 .3919983 .27633668L.34700013 .09628296C.34298707 .08126831 .2999878 .011245728 .23399353 .011245728 .18299866 .011245728 .17199707 .055267335 .17199707 .0922699 .17199707 .1382904 .18899536 .20030213 .22299195 .28833009 .23899842 .3293457 .24299622 .3403473 .24299622 .36035157 .24299622 .405365 .21099854 .4423828 .16099549 .4423828 .06599426 .4423828 .0289917 .29733277 .0289917 .28833009 .0289917 .27833558 .038986207 .27833558 .040985109 .27833558 .050994874 .27833558 .051986696 .28033448 .056991579 .29634095 .083999637 .3903656 .12399292 .42037965 .1579895 .42037965 .1659851 .42037965 .18299866 .42037965 .18299866 .3883667 .18299866 .36335755 .17298889 .3373413 .1659851 .31834413 .12599182 .21231079 .10798645 .1552887 .10798645 .10827637 .10798645 .019256592 .17098999-.0107421879 .22999573-.0107421879 .2689972-.0107421879 .30299378 .0062561037 .33099366 .03425598 .31799317-.017745972 .30599977-.06674194 .2659912-.11973572 .23999024-.15385437 .20199585-.18309021 .1559906-.18309021 .14199829-.18309021 .09700012-.18005371 .07998657-.14074707 .09599304-.14074707 .10899353-.14074707 .12298584-.1287384 .1329956-.11973572 .14299011-.10673523 .14299011-.08773804 .14299011-.056747438 .115997318-.052734376 .10598755-.052734376 .08299255-.052734376 .049987794-.068740848 .049987794-.11773682 .049987794-.16796875 .09399414-.20507813 .1559906-.20507813 .25898744-.20507813 .3619995-.11373901 .3899994-.00074768069L.48599244 .38136292Z"/>
<path id="font_2_4" d="M.2939911 .64004519C.2939911 .66400149 .2939911 .6660156 .2709961 .6660156 .20899964 .60227969 .12098694 .60227969 .08898926 .60227969V.57128909C.10899353 .57128909 .16799927 .57128909 .21998596 .5972748V.07902527C.21998596 .042999269 .21699524 .0309906 .1269989 .0309906H.09498596V0C.12998963 .0029907227 .21699524 .0029907227 .25698854 .0029907227 .29699708 .0029907227 .38398744 .0029907227 .4189911 0V.0309906H.3869934C.29699708 .0309906 .2939911 .041992189 .2939911 .07902527V.64004519Z"/>
<path id="font_2_5" d="M.1269989 .07699585 .23298645 .18003845C.3889923 .31811524 .44898988 .3721466 .44898988 .47216798 .44898988 .5860901 .35899354 .6660156 .23699951 .6660156 .12399292 .6660156 .049987794 .57411196 .049987794 .48516847 .049987794 .4291687 .099990848 .4291687 .102996829 .4291687 .11999512 .4291687 .15499878 .44117738 .15499878 .48217774 .15499878 .5081787 .13699341 .5341797 .101989749 .5341797 .09399414 .5341797 .09199524 .5341797 .08898926 .5331726 .11199951 .59806826 .1659851 .63500979 .22399903 .63500979 .31498719 .63500979 .35798646 .5541382 .35798646 .47216798 .35798646 .39215089 .30799867 .31311036 .25299073 .25108338L.06098938 .036987306C.049987794 .025985718 .049987794 .023986817 .049987794 0H.42099L.44898988 .17404175H.42399598C.4189911 .14402771 .4119873 .1000061 .4019928 .084991458 .394989 .07699585 .32899476 .07699585 .30699159 .07699585H.1269989Z"/>
<path id="font_2_6" d="M.2899933 .35191346C.37199403 .37893678 .42999269 .4490509 .42999269 .52809146 .42999269 .6100464 .34199525 .6660156 .24598694 .6660156 .14498902 .6660156 .068984989 .60606387 .068984989 .53009036 .068984989 .49710084 .09098816 .47808839 .11999512 .47808839 .15098572 .47808839 .17098999 .50009158 .17098999 .5290985 .17098999 .57910159 .12399292 .57910159 .10899353 .57910159 .13999939 .62802127 .20599365 .64100649 .24198914 .64100649 .2829895 .64100649 .33799745 .6190338 .33799745 .5290985 .33799745 .51708987 .33599855 .45906068 .30999757 .4149933 .27999879 .36691285 .24598694 .36390687 .22099304 .36291505 .21299744 .36190797 .18899536 .35990907 .18199158 .35990907 .17399597 .35890199 .16699219 .35791017 .16699219 .3479004 .16699219 .33691407 .17399597 .33691407 .19099427 .33691407H.23498535C.31698609 .33691407 .35398866 .2686615 .35398866 .17037964 .35398866 .034469606 .2849884 .0055389406 .24099732 .0055389406 .19799805 .0055389406 .12298584 .022491456 .08799744 .08137512 .12298584 .07637024 .1539917 .09837341 .1539917 .1363678 .1539917 .17237854 .1269989 .19238281 .09799194 .19238281 .07398987 .19238281 .041992189 .17837525 .041992189 .1343689 .041992189 .043441774 .1349945-.022460938 .24398804-.022460938 .3659973-.022460938 .45700074 .06838989 .45700074 .17037964 .45700074 .252594 .3939972 .33088685 .2899933 .35191346Z"/>
<path id="font_3_1" d="M.6589966 .23046875C.6759949 .23046875 .69400027 .23046875 .69400027 .25045777 .69400027 .27046205 .6759949 .27046205 .6589966 .27046205H.117996219C.100997928 .27046205 .08299255 .27046205 .08299255 .25045777 .08299255 .23046875 .100997928 .23046875 .117996219 .23046875H.6589966Z"/>
<path id="font_2_3" d="M.45999146 .31976319C.45999146 .39982606 .45498658 .47988893 .41999818 .5539398 .37399293 .65000918 .2919922 .6660156 .25 .6660156 .18998719 .6660156 .116989139 .64001467 .07598877 .54693606 .04399109 .47789 .038986207 .39982606 .038986207 .31976319 .038986207 .24472046 .042999269 .15464783 .083999637 .07859802 .1269989-.0024719239 .19999695-.022460938 .24899292-.022460938 .30299378-.022460938 .3789978-.0014648438 .4229889 .09359741 .45498658 .16265869 .45999146 .2407074 .45999146 .31976319M.24899292-.00047302247C.20999146-.00047302247 .15098572 .024551392 .1329956 .12062073 .12199402 .18066406 .12199402 .2727356 .12199402 .3317871 .12199402 .39582826 .12199402 .46188355 .12998963 .5159149 .14898682 .63500979 .22399903 .64401248 .24899292 .64401248 .28199769 .64401248 .34799195 .6259918 .36698915 .52693179 .3769989 .47088624 .3769989 .39482118 .3769989 .3317871 .3769989 .25672914 .3769989 .18867493 .3659973 .12461853 .35099793 .029556275 .2939911-.00047302247 .24899292-.00047302247Z"/>
<path id="font_1_5" d="M.37298585 .37835694C.35499574 .41537477 .32598878 .4423828 .2809906 .4423828 .1639862 .4423828 .039993287 .29533387 .039993287 .14929199 .039993287 .055267335 .09498596-.0107421879 .17298889-.0107421879 .19299317-.0107421879 .24299622-.0067443849 .30299378 .06427002 .31098939 .022247315 .34599305-.0107421879 .3939972-.0107421879 .42900086-.0107421879 .45199586 .012252808 .46798707 .044265748 .4850006 .08027649 .49798585 .14129639 .49798585 .14329529 .49798585 .1532898 .4889984 .1532898 .48599244 .1532898 .47599793 .1532898 .47499085 .14929199 .47200013 .13528443 .45498658 .07026672 .43699647 .011245728 .3959961 .011245728 .36898805 .011245728 .3659973 .037261964 .3659973 .057266237 .3659973 .07926941 .36799623 .08728027 .3789978 .13128662 .3899994 .17329407 .3919983 .18330384 .40098573 .22131348L.43699647 .36135865C.44400025 .38935853 .44400025 .39135743 .44400025 .39537049 .44400025 .41236878 .43199159 .42237855 .4149933 .42237855 .3909912 .42237855 .37599183 .4003601 .37298585 .37835694M.30799867 .119277957C.30299378 .10127258 .30299378 .09927368 .28799439 .08227539 .24398804 .027252198 .20298767 .011245728 .1749878 .011245728 .125 .011245728 .11099243 .06626892 .11099243 .105285648 .11099243 .1552887 .14299011 .27833558 .1659851 .32434083 .19699097 .38336183 .24198914 .42037965 .28199769 .42037965 .34700013 .42037965 .36099244 .3383484 .36099244 .33235169 .36099244 .32633973 .35899354 .32034303 .35798646 .31533814L.30799867 .119277957Z"/>
<path id="font_2_7" d="M.68699648 .32714845C.70199587 .32714845 .72099307 .32714845 .72099307 .34713746 .72099307 .36714173 .70199587 .36714173 .6879883 .36714173H.08898926C.07499695 .36714173 .055999757 .36714173 .055999757 .34713746 .055999757 .32714845 .07499695 .32714845 .08999634 .32714845H.68699648M.6879883 .13284302C.70199587 .13284302 .72099307 .13284302 .72099307 .15284729 .72099307 .17285156 .70199587 .17285156 .68699648 .17285156H.08999634C.07499695 .17285156 .055999757 .17285156 .055999757 .15284729 .055999757 .13284302 .07499695 .13284302 .08898926 .13284302H.6879883Z"/>
<path id="font_1_7" d="M.36698915 .3996582H.45298768C.47299195 .3996582 .48298646 .3996582 .48298646 .41966249 .48298646 .43066407 .47299195 .43066407 .45599366 .43066407H.37298585L.3939972 .5449524C.397995 .5660095 .4119873 .6370239 .41799928 .6490326 .4269867 .66804507 .44400025 .68307498 .46499635 .68307498 .46899415 .68307498 .49499513 .68307498 .5139923 .66503909 .46998597 .661026 .45999146 .6260376 .45999146 .6110382 .45999146 .58802798 .47799684 .57603457 .49699403 .57603457 .522995 .57603457 .5519867 .5980377 .5519867 .6360321 .5519867 .6820679 .5059967 .7050781 .46499635 .7050781 .43099977 .7050781 .36799623 .68707278 .33799745 .58802798 .33198548 .56700137 .32899476 .5569763 .30499269 .43066407H.23599243C.21699524 .43066407 .20599365 .43066407 .20599365 .4116516 .20599365 .3996582 .21499634 .3996582 .23399353 .3996582H.2999878L.22499085 .0048828127C.20698548-.09207153 .18998719-.18309021 .13798523-.18309021 .13398743-.18309021 .10899353-.18309021 .08999634-.16506958 .13598633-.1620636 .14498902-.12606812 .14498902-.111068729 .14498902-.08807373 .1269989-.07606506 .10798645-.07606506 .08198547-.07606506 .052993776-.09806824 .052993776-.13606262 .052993776-.18109131 .09700012-.20507813 .13798523-.20507813 .19299317-.20507813 .23298645-.14607239 .25099183-.108062747 .2829895-.04508972 .30599977 .07583618 .30699159 .082839969L.36698915 .3996582Z"/>
<path id="font_2_1" d="M.33099366-.2400055C.33099366-.23701477 .33099366-.23500061 .31399537-.21800232 .18899536-.0920105 .15699768 .09700012 .15699768 .25 .15699768 .42399598 .19499207 .59799197 .31799317 .72299197 .33099366 .73498538 .33099366 .7369995 .33099366 .73999026 .33099366 .746994 .32699586 .75 .32099916 .75 .31098939 .75 .22099304 .6819916 .1619873 .5549927 .11099243 .44499208 .09899902 .33399964 .09899902 .25 .09899902 .17199707 .10998535 .050994874 .16499329-.06201172 .22499085-.18501282 .31098939-.25 .32099916-.25 .32699586-.25 .33099366-.24700928 .33099366-.2400055Z"/>
<path id="font_2_2" d="M.2889862 .25C.2889862 .32798768 .27799989 .44898988 .22299195 .56199648 .16299439 .68499758 .07699585 .75 .066986087 .75 .06098938 .75 .056991579 .74598696 .056991579 .73999026 .056991579 .7369995 .056991579 .73498538 .07598877 .71699526 .17399597 .6179962 .23098755 .45899964 .23098755 .25 .23098755 .07899475 .19400025-.09700012 .069992069-.2230072 .056991579-.23500061 .056991579-.23701477 .056991579-.2400055 .056991579-.2460022 .06098938-.25 .066986087-.25 .07699585-.25 .16699219-.18200684 .22599793-.055007936 .2769928 .054992677 .2889862 .16600037 .2889862 .25Z"/>
<path id="font_1_2" d="M.7599945 .69506838C.7599945 .69807437 .7579956 .7050781 .7489929 .7050781 .74598696 .7050781 .7449951 .70407107 .73399356 .69306948L.6639862 .61602786C.6549988 .6300354 .60899356 .7050781 .49798585 .7050781 .2749939 .7050781 .049987794 .48391725 .049987794 .25172425 .049987794 .08659363 .16799927-.022460938 .32099916-.022460938 .4079895-.022460938 .48399354 .017532349 .5369873 .063583377 .6299896 .14564514 .6469879 .2367096 .6469879 .23971558 .6469879 .24972534 .6369934 .24972534 .6349945 .24972534 .6289978 .24972534 .6239929 .24772644 .621994 .23971558 .61299136 .21069336 .58999636 .13963318 .5209961 .081588748 .45199586 .025543213 .3889923 .008529663 .33699037 .008529663 .24699402 .008529663 .14099121 .060577394 .14099121 .21670532 .14099121 .27374269 .1619873 .43588258 .2619934 .55296328 .32299806 .62402346 .4169922 .67407229 .5059967 .67407229 .60798647 .67407229 .6669922 .5970001 .6669922 .48091126 .6669922 .44088746 .6639862 .43988038 .6639862 .4298706 .6639862 .41986085 .6749878 .41986085 .67900088 .41986085 .69200137 .41986085 .69200137 .42185975 .69699099 .43988038L.7599945 .69506838Z"/>
<path id="font_1_1" d="M.20298767 .0009918213C.20298767 .066986087 .17799378 .10598755 .13899231 .10598755 .10598755 .10598755 .085998538 .08099365 .085998538 .052993776 .085998538 .025985718 .10598755 0 .13899231 0 .15098572 0 .1639862 .0039978029 .17399597 .0129852299 .1769867 .01499939 .17799378 .015991211 .1789856 .015991211 .17999268 .015991211 .18099976 .01499939 .18099976 .0009918213 .18099976-.07316589 .1459961-.13328552 .11299133-.16635132 .101989749-.17736817 .101989749-.17936707 .101989749-.18237305 .101989749-.18936157 .10699463-.19335938 .11199951-.19335938 .12298584-.19335938 .20298767-.116256717 .20298767 .0009918213Z"/>
<path id="font_1_6" d="M.5159912 .68333438C.5159912 .6843262 .5159912 .69433596 .5029907 .69433596 .48799134 .69433596 .3929901 .68533328 .37599183 .68333438 .36799623 .6823273 .3619995 .6773224 .3619995 .6643219 .3619995 .6523285 .37098695 .6523285 .38598634 .6523285 .43399049 .6523285 .43598939 .6453247 .43598939 .6353302L.43299867 .6153412 .37298585 .37835694C.35499574 .41537477 .32598878 .4423828 .2809906 .4423828 .1639862 .4423828 .039993287 .29533387 .039993287 .14929199 .039993287 .055267335 .09498596-.0107421879 .17298889-.0107421879 .19299317-.0107421879 .24299622-.0067443849 .30299378 .06427002 .31098939 .022247315 .34599305-.0107421879 .3939972-.0107421879 .42900086-.0107421879 .45199586 .012252808 .46798707 .044265748 .4850006 .08027649 .49798585 .14129639 .49798585 .14329529 .49798585 .1532898 .4889984 .1532898 .48599244 .1532898 .47599793 .1532898 .47499085 .14929199 .47200013 .13528443 .45498658 .07026672 .43699647 .011245728 .3959961 .011245728 .36898805 .011245728 .3659973 .037261964 .3659973 .057266237 .3659973 .08126831 .36799623 .088272098 .37199403 .105285648L.5159912 .68333438M.30799867 .119277957C.30299378 .10127258 .30299378 .09927368 .28799439 .08227539 .24398804 .027252198 .20298767 .011245728 .1749878 .011245728 .125 .011245728 .11099243 .06626892 .11099243 .105285648 .11099243 .1552887 .14299011 .27833558 .1659851 .32434083 .19699097 .38336183 .24198914 .42037965 .28199769 .42037965 .34700013 .42037965 .36099244 .3383484 .36099244 .33235169 .36099244 .32633973 .35899354 .32034303 .35798646 .31533814L.30799867 .119277957Z"/>
<path id="font_1_3" d="M.15899658 .07795715C.14898682 .038986207 .14698792 .0309906 .067993167 .0309906 .050994874 .0309906 .039993287 .0309906 .039993287 .011993408 .039993287 0 .04899597 0 .067993167 0H.39898683C.6069946 0 .80400088 .21087647 .80400088 .42974855 .80400088 .5706482 .71899417 .6826172 .56900027 .6826172H.23298645C.21398926 .6826172 .20298767 .6826172 .20298767 .66360476 .20298767 .6516113 .21199036 .6516113 .23199463 .6516113 .24499512 .6516113 .2630005 .65060427 .2749939 .6496124 .29100038 .6476135 .29699708 .64460757 .29699708 .6336212 .29699708 .6296234 .29599 .62661746 .29299928 .614624L.15899658 .07795715M.375 .6136322C.38398744 .64860537 .38598634 .6516113 .42900086 .6516113H.5359955C.6339874 .6516113 .71699526 .5986328 .71699526 .46672059 .71699526 .41775514 .69699099 .25386048 .6119995 .1439209 .58299258 .10694885 .5039978 .0309906 .3809967 .0309906H.2679901C.2539978 .0309906 .2519989 .0309906 .24598694 .03199768 .23599243 .032989503 .23298645 .033996583 .23298645 .041992189 .23298645 .04498291 .23298645 .04698181 .23799134 .064971927L.375 .6136322Z"/>
<path id="font_1_4" d="M.70799258 .23292542C.70999148 .23791504 .71299746 .24491883 .71299746 .24691773 .71299746 .24790955 .71299746 .2579193 .70098879 .2579193 .69200137 .2579193 .6899872 .25190736 .6879883 .24591065 .6230011 .097961429 .58599856 .0309906 .4149933 .0309906H.2689972C.25498963 .0309906 .25299073 .0309906 .24699402 .03199768 .23699951 .032989503 .23399353 .033996583 .23399353 .041992189 .23399353 .04498291 .23399353 .04698181 .23899842 .06498718L.30699159 .33789063H.4059906C.4909973 .33789063 .4909973 .31689454 .4909973 .29190064 .4909973 .28489686 .4909973 .27290345 .48399354 .24291992 .48199464 .23791504 .48098756 .23492432 .48098756 .23191834 .48098756 .22692871 .4850006 .220932 .49398805 .220932 .5019989 .220932 .5049896 .22592163 .5089874 .24092102L.56599429 .47477723C.56599429 .48077394 .5609894 .48576356 .55400088 .48576356 .54499819 .48576356 .54299929 .47976686 .5399933 .4677887 .5189972 .39186097 .5009918 .36888124 .40899659 .36888124H.31498719L.375 .60964968C.38398744 .64460757 .3849945 .64860537 .42900086 .64860537H.56999209C.69200137 .64860537 .7220001 .61964419 .7220001 .5377197 .7220001 .51374819 .7220001 .51174929 .71798709 .48477174 .71798709 .47877503 .71699526 .4717865 .71699526 .46678163 .71699526 .461792 .7200012 .45480348 .72898867 .45480348 .73999026 .45480348 .7409973 .46080018 .7429962 .47976686L.7630005 .65260317C.7659912 .6796112 .7609863 .6796112 .73599246 .6796112H.23098755C.21099854 .6796112 .20098877 .6796112 .20098877 .65960696 .20098877 .64860537 .20999146 .64860537 .22898865 .64860537 .2659912 .64860537 .2939911 .64860537 .2939911 .6306305 .2939911 .6266327 .2939911 .6246338 .2889862 .6066437L.15699768 .07797241C.14698792 .038986207 .14498902 .0309906 .06599426 .0309906 .04899597 .0309906 .037994386 .0309906 .037994386 .011993408 .037994386 0 .04699707 0 .06599426 0H.58499148C.60798647 0 .60899356 .0009918213 .6159973 .016998291L.70799258 .23292542Z"/>
<path id="font_4_1" d="M.47299195 .31976319C.47299195 .38682557 .46998597 .47288514 .43499757 .5479431 .3909912 .64201357 .31498719 .6660156 .25698854 .6660156 .19699097 .6660156 .12098694 .64201357 .07699585 .5459442 .04499817 .47688294 .039993287 .39582826 .039993287 .31976319 .039993287 .25471498 .041992189 .15765381 .084991458 .07858276 .13198853-.0064697267 .20999146-.022460938 .2559967-.022460938 .32099916-.022460938 .394989 .0055389406 .43699647 .097595218 .46699525 .1646576 .47299195 .23971558 .47299195 .31976319M.25698854 .002532959C.22698975 .002532959 .15499878 .016540528 .13598633 .12962342 .12599182 .18867493 .12599182 .2747345 .12599182 .33177186 .12599182 .39982606 .12599182 .47888185 .13798523 .53393557 .1579895 .6230011 .22200012 .64100649 .2559967 .64100649 .2939911 .64100649 .35699464 .62098696 .37599183 .5279236 .3869934 .47288514 .3869934 .39482118 .3869934 .33177186 .3869934 .2697296 .3869934 .18566895 .3769989 .12661743 .35598756 .012542725 .28199769 .002532959 .25698854 .002532959Z"/>
<path id="font_5_1" d="M.19599915 .053985597C.19599915 .08299255 .17298889 .10798645 .14199829 .10798645 .11099243 .10798645 .08799744 .08299255 .08799744 .053985597 .08799744 .024993897 .11099243 0 .14199829 0 .17298889 0 .19599915 .024993897 .19599915 .053985597Z"/>
<path id="font_4_2" d="M.0289917 .19602967V.16503906H.3019867V.07901001C.3019867 .041992189 .29899598 .0309906 .22399903 .0309906H.20199585V0C.2649994 .0029907227 .33499146 .0029907227 .34199525 .0029907227 .34700013 .0029907227 .4189911 .0029907227 .48199464 0V.0309906H.45999146C.3849945 .0309906 .38198854 .041992189 .38198854 .07901001V.16503906H.48399354V.19602967H.38198854V.64974978C.38198854 .669754 .38198854 .6767578 .36299134 .6767578 .35099793 .6767578 .34999085 .67575076 .34098817 .66174319L.0289917 .19602967M.06098938 .19602967 .30799867 .56581118V.19602967H.06098938Z"/>
</defs>
<path transform="matrix(1,0,0,-1,90.495,208.98099)" stroke-width=".3985" stroke-linecap="butt" stroke-miterlimit="10" stroke-linejoin="miter" fill="none" stroke="#000000" d="M-87.30765 0H91.55179"/>
<path transform="matrix(1,0,0,-1,182.04679,208.98099)" d="M1.99252 0-1.19551 1.59401 0 0-1.19551-1.59401"/>
<use data-text="x" xlink:href="#font_1_8" transform="matrix(9.96264,0,0,-9.96264,187.557,216.79)"/>
<path transform="matrix(1,0,0,-1,90.495,208.98099)" stroke-width=".3985" stroke-linecap="butt" stroke-miterlimit="10" stroke-linejoin="miter" fill="none" stroke="#000000" d="M0-12.47237V197.56855"/>
<path transform="matrix(0,-1,-1,-0,90.495,11.412445)" d="M1.99252 0-1.19551 1.59401 0 0-1.19551-1.59401"/>
<use data-text="y" xlink:href="#font_1_9" transform="matrix(9.96264,0,0,-9.96264,81.733,10.598984)"/>
<path transform="matrix(1,0,0,-1,90.495,208.98099)" stroke-width=".3985" stroke-linecap="butt" stroke-miterlimit="10" stroke-linejoin="miter" fill="none" stroke="#000000" d="M1.87079 62.36288H-1.87079"/>
<use data-text="1" xlink:href="#font_2_4" transform="matrix(9.96264,0,0,-9.96264,80.123,149.82898)"/>
<path transform="matrix(1,0,0,-1,90.495,208.98099)" stroke-width=".3985" stroke-linecap="butt" stroke-miterlimit="10" stroke-linejoin="miter" fill="none" stroke="#000000" d="M1.87079 124.72578H-1.87079"/>
<use data-text="2" xlink:href="#font_2_5" transform="matrix(9.96264,0,0,-9.96264,80.123,87.46698)"/>
<path transform="matrix(1,0,0,-1,90.495,208.98099)" stroke-width=".3985" stroke-linecap="butt" stroke-miterlimit="10" stroke-linejoin="miter" fill="none" stroke="#000000" d="M1.87079 187.08867H-1.87079"/>
<use data-text="3" xlink:href="#font_2_6" transform="matrix(9.96264,0,0,-9.96264,80.123,25.10498)"/>
<path transform="matrix(1,0,0,-1,90.495,208.98099)" stroke-width=".3985" stroke-linecap="butt" stroke-miterlimit="10" stroke-linejoin="miter" fill="none" stroke="#000000" d="M62.36288 1.87079V-1.87079"/>
<use data-text="1" xlink:href="#font_2_4" transform="matrix(9.96264,0,0,-9.96264,150.366,220.79199)"/>
<path transform="matrix(1,0,0,-1,90.495,208.98099)" stroke-width=".3985" stroke-linecap="butt" stroke-miterlimit="10" stroke-linejoin="miter" fill="none" stroke="#000000" d="M-62.36288 1.87079V-1.87079"/>
<use data-text="&#x2212;" xlink:href="#font_3_1" transform="matrix(9.96264,0,0,-9.96264,21.767006,220.79199)"/>
<use data-text="1" xlink:href="#font_2_4" transform="matrix(9.96264,0,0,-9.96264,29.516007,220.79199)"/>
<use data-text="0" xlink:href="#font_2_3" transform="matrix(9.96264,0,0,-9.96264,92.37,220.16899)"/>
<use data-text="a" xlink:href="#font_1_5" transform="matrix(9.96264,0,0,-9.96264,128.926,218.66098)"/>
<use data-text="&#x2212;" xlink:href="#font_3_1" transform="matrix(9.96264,0,0,-9.96264,42.922,220.18299)"/>
<use data-text="a" xlink:href="#font_1_5" transform="matrix(9.96264,0,0,-9.96264,50.671,220.18299)"/>
<path transform="matrix(1,0,0,-1,90.495,208.98099)" stroke-width=".79701" stroke-linecap="butt" stroke-miterlimit="10" stroke-linejoin="miter" fill="none" stroke="#000000" d="M-59.24454-4.48764C-59.24454-4.48764-58.52534-3.7026-58.24918-3.40569-57.97298-3.10876-57.53001-2.6382-57.25381-2.34752-56.97765-2.05681-56.53464-1.59468-56.25845-1.3103-55.98228-1.02592-55.5393-.57582-55.26312-.2978-54.98694-.01979-54.54393 .42198-54.26776 .6937-53.99156 .9654-53.54857 1.39474-53.27237 1.66049-52.9962 1.92625-52.55324 2.34952-52.27704 2.6092-52.00087 2.86891-51.55786 3.27888-51.28168 3.53223-51.0055 3.78557-50.56252 4.18765-50.28635 4.4353-50.01015 4.68297-49.56715 5.07538-49.29099 5.3174-49.01479 5.5594-48.57182 5.94391-48.29562 6.17955-48.01945 6.4152-47.57645 6.78613-47.30026 7.01599-47.0241 7.24586-46.58107 7.6114-46.3049 7.83624-46.02872 8.0611-45.58574 8.41751-45.30957 8.63654-45.03337 8.85558-44.59038 9.20186-44.31418 9.41493-44.03801 9.62799-43.59505 9.96509-43.31885 10.17236-43.04268 10.37965-42.59967 10.70677-42.32349 10.90892-42.0473 11.11105-41.60434 11.4323-41.32816 11.62923-41.05196 11.82619-40.60896 12.13722-40.3328 12.32866-40.0566 12.5201-39.6136 12.82303-39.3374 13.00905-39.06123 13.19507-38.61826 13.48885-38.34207 13.66945-38.0659 13.85004-37.62288 14.13536-37.34671 14.3108-37.07051 14.48625-36.62755 14.76381-36.35138 14.93411-36.07518 15.1044-35.63219 15.37372-35.35599 15.53835-35.07982 15.70296-34.63686 15.96083-34.36066 16.1207-34.08449 16.28056-33.64148 16.53535-33.3653 16.69073-33.08911 16.84612-32.6461 17.0909-32.36993 17.24072-32.09373 17.39055-31.65077 17.62634-31.37459 17.77075-31.0984 17.91516-30.65541 18.14185-30.37921 18.28178-30.10304 18.4217-29.66006 18.64424-29.38388 18.77943-29.10771 18.91461-28.66469 19.12628-28.38852 19.25618-28.11232 19.38608-27.66936 19.59079-27.39319 19.7158-27.11699 19.84082-26.674 20.03693-26.3978 20.15733-26.12163 20.27773-25.67862 20.46774-25.40244 20.58365-25.12627 20.69957-24.68329 20.88203-24.4071 20.99281-24.13092 21.10358-23.68791 21.27602-23.41174 21.38203-23.13554 21.48805-22.69258 21.65558-22.4164 21.75694-22.14021 21.8583-21.69722 22.01633-21.42102 22.11282-21.14485 22.2093-20.70187 22.36055-20.42569 22.45256-20.14952 22.54456-19.70651 22.68831-19.43033 22.7761-19.15413 22.86389-18.71117 23.0023-18.435 23.08536-18.1588 23.1684-17.7158 23.29675-17.43962 23.37465-17.16344 23.45255-16.72043 23.573-16.44424 23.64677-16.16808 23.72057-15.7251 23.8374-15.44891 23.90657-15.17274 23.97575-14.72972 24.08127-14.45355 24.1454-14.17735 24.20955-13.73439 24.30884-13.4582 24.36903-13.18202 24.42923-12.73903 24.52365-12.46283 24.57935-12.18666 24.63503-11.74368 24.7198-11.4675 24.77061-11.19133 24.82141-10.74832 24.89923-10.47214 24.9457-10.19594 24.99216-9.75294 25.06331-9.47678 25.10556-9.20058 25.1478-8.75761 25.21272-8.48143 25.2502-8.20525 25.28769-7.76224 25.34258-7.48605 25.37582-7.20988 25.40907-6.7669 25.46097-6.49072 25.49-6.21454 25.51903-5.77153 25.56087-5.49536 25.58514-5.21916 25.60942-4.7762 25.64516-4.50002 25.66508-4.22383 25.68501-3.78084 25.71344-3.50464 25.72885-3.22847 25.74426-2.78546 25.76561-2.50928 25.77643-2.2331 25.78722-1.79013 25.80043-1.51395 25.80688-1.23775 25.81334-.79475 25.82047-.51857 25.82307-.24239 25.82567 .20052 25.82776 .4767 25.82591 .75288 25.82408 1.19589 25.81659 1.47208 25.80972 1.74825 25.80287 2.19122 25.78763 2.4674 25.77643 2.74359 25.76521 3.18658 25.744 3.46277 25.72885 3.73897 25.71371 4.18196 25.68639 4.45815 25.66698 4.73433 25.64758 5.1773 25.61298 5.45348 25.58896 5.72966 25.56494 6.17267 25.5227 6.44885 25.49382 6.72502 25.46492 7.168 25.41367 7.44418 25.38055 7.72037 25.34746 8.16338 25.29231 8.43956 25.25494 8.71574 25.21759 9.1587 25.15297 9.43489 25.11127 9.71107 25.06958 10.15408 25.00058 10.43027 24.95425 10.70644 24.90793 11.14944 24.82834 11.42563 24.77727 11.70181 24.7262 12.14478 24.64119 12.42096 24.586 12.69716 24.53082 13.14015 24.43904 13.41634 24.37952 13.69252 24.31998 14.1355 24.22137 14.41167 24.15683 14.68785 24.0923 15.13086 23.9832 15.40704 23.91417 15.68321 23.84515 16.12619 23.73239 16.40237 23.65915 16.67856 23.5859 17.12157 23.46394 17.39775 23.38605 17.67393 23.30815 18.11693 23.1805 18.39311 23.09773 18.6693 23.01495 19.11227 22.87706 19.38846 22.7894 19.66463 22.70175 20.10764 22.55733 20.38382 22.46585 20.66 22.37439 21.10297 22.2262 21.37915 22.12999 21.65535 22.03375 22.09834 21.87343 22.37453 21.77216 22.65071 21.6709 23.09369 21.50624 23.36986 21.40009 23.64604 21.29393 24.08905 21.11774 24.36523 21.0071 24.64142 20.89645 25.08441 20.71793 25.3606 20.60269 25.6368 20.48743 26.07976 20.29663 26.35594 20.17636 26.63213 20.0561 27.07512 19.86064 27.3513 19.73576 27.62749 19.6109 28.07047 19.40636 28.34665 19.27618 28.62282 19.14601 29.06583 18.93245 29.34201 18.79753 29.6182 18.66261 30.06116 18.44305 30.33736 18.30365 30.61354 18.16426 31.05653 17.93747 31.33272 17.79266 31.6089 17.64784 32.05191 17.40932 32.3281 17.25975 32.60426 17.1102 33.04724 16.8691 33.32343 16.71451 33.59961 16.55994 34.0426 16.30531 34.31879 16.14545 34.59499 15.98558 35.03795 15.72678 35.31413 15.56215 35.59032 15.39754 36.03333 15.12901 36.3095 14.95886 36.58568 14.7887 37.02866 14.511 37.30482 14.33556 37.58101 14.16011 38.02402 13.87451 38.3002 13.6942 38.57639 13.51385 39.0194 13.22145 39.29558 13.0357 39.57176 12.84995 40.01472 12.5465 40.29091 12.35532 40.5671 12.16414 41.0101 11.85397 41.28629 11.65779 41.56245 11.46161 42.00543 11.14311 42.28162 10.94125 42.5578 10.73938 43.0008 10.41037 43.27698 10.20285 43.55318 9.99533 43.99612 9.6583 44.27232 9.44536 44.54851 9.2324 44.99152 8.8863 45.26768 8.66795 45.54387 8.44958 45.98688 8.09578 46.26306 7.87148 46.53923 7.64717 46.98221 7.2809 47.25839 7.0512 47.53458 6.82146 47.97758 6.45096 48.25377 6.21571 48.52995 5.98047 48.97292 5.59737 49.2491 5.35548 49.52528 5.11362 49.96829 4.71996 50.24448 4.47238 50.52065 4.22484 50.96362 3.82434 51.2398 3.57127 51.51599 3.31819 51.95898 2.90762 52.23517 2.64821 52.51137 2.38876 52.95436 1.96689 53.23055 1.7014 53.50673 1.43591 53.9497 1.00615 54.22588 .73459 54.50206 .46301 54.94507 .02205 55.22125-.25594 55.49744-.53397 55.9404-.98552 56.21658-1.26936 56.49277-1.5532 56.93578-2.01166 57.21196-2.30186 57.48814-2.59206 57.9311-3.06378 58.20729-3.36096 58.48347-3.65816 59.20265-4.44386 59.20265-4.44386"/>
<use data-text="y" xlink:href="#font_1_9" transform="matrix(21.917809,0,0,-21.917809,98.676,214.461)"/>
<use data-text="=" xlink:href="#font_2_7" transform="matrix(21.917809,0,0,-21.917809,116.298,214.461)"/>
<use data-text="f" xlink:href="#font_1_7" transform="matrix(21.917809,0,0,-21.917809,139.43323,214.461)"/>
<use data-text="(" xlink:href="#font_2_1" transform="matrix(21.917809,0,0,-21.917809,152.52323,214.461)"/>
<use data-text="x" xlink:href="#font_1_8" transform="matrix(21.917809,0,0,-21.917809,161.04602,214.461)"/>
<use data-text=")" xlink:href="#font_2_2" transform="matrix(21.917809,0,0,-21.917809,173.57282,214.461)"/>
<path transform="matrix(1,0,0,-1,90.495,208.98099)" d="M1.53424 62.36288C1.53424 63.21024 .84734 63.89713 0 63.89713-.84734 63.89713-1.53424 63.21024-1.53424 62.36288-1.53424 61.51555-.84734 60.82864 0 60.82864 .84734 60.82864 1.53424 61.51555 1.53424 62.36288ZM0 62.36288"/>
<use data-text="C" xlink:href="#font_1_2" transform="matrix(9.96264,0,0,-9.96264,94.014,140.60898)"/>
<use data-text="(" xlink:href="#font_2_1" transform="matrix(9.96264,0,0,-9.96264,101.847,140.60898)"/>
<use data-text="x" xlink:href="#font_1_8" transform="matrix(9.96264,0,0,-9.96264,105.722,140.60898)"/>
<use data-text="," xlink:href="#font_1_1" transform="matrix(9.96264,0,0,-9.96264,111.42063,140.60898)"/>
<use data-text="d" xlink:href="#font_1_6" transform="matrix(9.96264,0,0,-9.96264,115.84405,140.60898)"/>
<use data-text=")" xlink:href="#font_2_2" transform="matrix(9.96264,0,0,-9.96264,121.029,140.60898)"/>
<path transform="matrix(1,0,0,-1,90.495,208.98099)" d="M-39.53127 11.81482C-39.53127 12.66216-40.21817 13.34906-41.0655 13.34906-41.91286 13.34906-42.59975 12.66216-42.59975 11.81482-42.59975 10.96747-41.91286 10.28058-41.0655 10.28058-40.21817 10.28058-39.53127 10.96747-39.53127 11.81482ZM-41.0655 11.81482"/>
<use data-text="D" xlink:href="#font_1_3" transform="matrix(9.96264,0,0,-9.96264,37.385004,207.49399)"/>
<path transform="matrix(1,0,0,-1,90.495,208.98099)" d="M42.59975 11.81482C42.59975 12.66216 41.91286 13.34906 41.0655 13.34906 40.21817 13.34906 39.53127 12.66216 39.53127 11.81482 39.53127 10.96747 40.21817 10.28058 41.0655 10.28058 41.91286 10.28058 42.59975 10.96747 42.59975 11.81482ZM41.0655 11.81482"/>
<use data-text="E" xlink:href="#font_1_4" transform="matrix(9.96264,0,0,-9.96264,135.07901,200.56999)"/>
<path transform="matrix(1,0,0,-1,90.495,208.98099)" stroke-width=".3985" stroke-linecap="butt" stroke-dasharray="2.98883,2.98883" stroke-miterlimit="10" stroke-linejoin="miter" fill="none" stroke="#000000" d="M-41.0655 11.81482H0"/>
<use data-text="0" xlink:href="#font_4_1" transform="matrix(8.96638,0,0,-8.96638,75.200008,200.05599)"/>
<use data-text="." xlink:href="#font_5_1" transform="matrix(8.96638,0,0,-8.96638,79.80701,200.05599)"/>
<use data-text="4" xlink:href="#font_4_2" transform="matrix(8.96638,0,0,-8.96638,82.367008,200.05599)"/>
</svg>
