<svg xmlns="http://www.w3.org/2000/svg" xmlns:xlink="http://www.w3.org/1999/xlink" xmlns:inkscape="http://www.inkscape.org/namespaces/inkscape" version="1.1" width="196.569" height="168.893" viewBox="0 0 196.569 168.893">
<defs>
<path id="font_1_1" d="M.6589966 .23046875C.6759949 .23046875 .69400027 .23046875 .69400027 .25045777 .69400027 .27046205 .6759949 .27046205 .6589966 .27046205H.117996219C.100997928 .27046205 .08299255 .27046205 .08299255 .25045777 .08299255 .23046875 .100997928 .23046875 .117996219 .23046875H.6589966Z"/>
<path id="font_2_3" d="M.13198853 .327713V.35173036C.13198853 .6047821 .2559967 .64100649 .30699159 .64100649 .33099366 .64100649 .37298585 .634964 .394989 .6007538 .37998963 .6007538 .33999635 .6007538 .33999635 .5557556 .33999635 .524765 .3639984 .5097656 .38598634 .5097656 .4019928 .5097656 .43199159 .51875308 .43199159 .5577545 .43199159 .6178589 .3880005 .6660156 .30499269 .6660156 .1769867 .6660156 .041992189 .5367584 .041992189 .31570436 .041992189 .048553468 .1579895-.022460938 .25099183-.022460938 .3619995-.022460938 .45700074 .07156372 .45700074 .2036438 .45700074 .33070375 .36799623 .4267578 .25698854 .4267578 .18899536 .4267578 .1519928 .37573243 .13198853 .327713M.25099183 .0055389406C.18798828 .0055389406 .1579895 .06556702 .1519928 .080566409 .13398743 .127594 .13398743 .2076416 .13398743 .22564698 .13398743 .30369569 .1659851 .40374757 .2559967 .40374757 .27198792 .40374757 .31799317 .40374757 .34899903 .34172059 .36698915 .30470277 .36698915 .2536621 .36698915 .20463562 .36698915 .15661621 .36698915 .10658264 .34999085 .0705719 .31999208 .010528564 .27398683 .0055389406 .25099183 .0055389406Z"/>
<path id="font_2_2" d="M.2939911 .16503906V.07800293C.2939911 .041992189 .2919922 .0309906 .21798706 .0309906H.19699097V0C.23799134 .0029907227 .2899933 .0029907227 .33198548 .0029907227 .37399293 .0029907227 .4269867 .0029907227 .46798707 0V.0309906H.44699098C.37298585 .0309906 .37098695 .041992189 .37098695 .07800293V.16503906H.47099305V.19602967H.37098695V.65075686C.37098695 .67074587 .37098695 .6767578 .35499574 .6767578 .34599305 .6767578 .34298707 .6767578 .33499146 .66474917L.027999878 .19602967V.16503906H.2939911M.2999878 .19602967H.055999757L.2999878 .5688019V.19602967Z"/>
<path id="font_2_1" d="M.1269989 .07699585 .23298645 .18003845C.3889923 .31811524 .44898988 .3721466 .44898988 .47216798 .44898988 .5860901 .35899354 .6660156 .23699951 .6660156 .12399292 .6660156 .049987794 .57411196 .049987794 .48516847 .049987794 .4291687 .099990848 .4291687 .102996829 .4291687 .11999512 .4291687 .15499878 .44117738 .15499878 .48217774 .15499878 .5081787 .13699341 .5341797 .101989749 .5341797 .09399414 .5341797 .09199524 .5341797 .08898926 .5331726 .11199951 .59806826 .1659851 .63500979 .22399903 .63500979 .31498719 .63500979 .35798646 .5541382 .35798646 .47216798 .35798646 .39215089 .30799867 .31311036 .25299073 .25108338L.06098938 .036987306C.049987794 .025985718 .049987794 .023986817 .049987794 0H.42099L.44898988 .17404175H.42399598C.4189911 .14402771 .4119873 .1000061 .4019928 .084991458 .394989 .07699585 .32899476 .07699585 .30699159 .07699585H.1269989Z"/>
<path id="font_2_4" d="M.16299439 .4569702C.116989139 .486969 .11299133 .52098086 .11299133 .5379791 .11299133 .598999 .17799378 .64100649 .24899292 .64100649 .32199098 .64100649 .38598634 .58898928 .38598634 .51698306 .38598634 .45996095 .34700013 .4119568 .2869873 .37695313L.16299439 .4569702M.30899049 .36193849C.3809967 .3989563 .42999269 .45095826 .42999269 .51698306 .42999269 .6090088 .34098817 .6660156 .25 .6660156 .1499939 .6660156 .068984989 .59199526 .068984989 .49897767 .068984989 .4809723 .070999149 .43595887 .11299133 .38894654 .12399292 .37695313 .16099549 .35194398 .18598938 .33494569 .12799073 .30592347 .041992189 .24984741 .041992189 .15072632 .041992189 .04458618 .14399719-.022460938 .24899292-.022460938 .3619995-.022460938 .45700074 .06060791 .45700074 .16773987 .45700074 .20379639 .44599916 .24885559 .4079895 .2909088 .3889923 .31193543 .37298585 .3219452 .30899049 .36193849M.20899964 .3199463 .33198548 .24183655C.3600006 .2228241 .40699769 .19277954 .40699769 .13169861 .40699769 .05760193 .33198548 .0055389406 .25 .0055389406 .1639862 .0055389406 .09199524 .067611698 .09199524 .15072632 .09199524 .20880127 .12399292 .27288819 .20899964 .3199463Z"/>
<clipPath id="clip_3">
<path transform="matrix(.75,0,0,-.75,10.25275,165.60552)" d="M0 0H238.6285V210.29352H0Z"/>
</clipPath>
<path id="font_4_1" d="M.34098817-.23803711C.34098817-.23303223 .33799745-.23002625 .33198548-.22303772 .20298767-.105026248 .1639862 .07498169 .1639862 .24996948 .1639862 .40498353 .19400025 .59298709 .33499146 .72698977 .33898927 .73098757 .34098817 .73399356 .34098817 .7389984 .34098817 .74598696 .33599855 .75 .32899476 .75 .31698609 .75 .22698975 .6779785 .17298889 .568985 .125 .47297669 .100997928 .36997987 .100997928 .25097657 .100997928 .17897034 .10998535 .064971927 .16499329-.053024293 .22399903-.17602539 .31698609-.24902344 .32899476-.24902344 .33599855-.24902344 .34098817-.24502564 .34098817-.23803711Z"/>
<path id="font_4_4" d="M.46199037 .17704773H.43399049C.43199159 .16404724 .42399598 .10501099 .41099549 .08900452 .40499879 .07998657 .33599855 .07998657 .31599427 .07998657H.13798523L.23699951 .17404175C.40098573 .3161316 .46199037 .36915589 .46199037 .4711914 .46199037 .5860901 .36698915 .6660156 .24398804 .6660156 .1289978 .6660156 .050994874 .575119 .050994874 .4841919 .050994874 .43418885 .09399414 .42919923 .102996829 .42919923 .125 .42919923 .15499878 .44519044 .15499878 .48120118 .15499878 .51119998 .13398743 .5332031 .102996829 .5332031 .09799194 .5332031 .09498596 .5332031 .09098816 .53219607 .114990238 .6030731 .1789856 .63500979 .23298645 .63500979 .33499146 .63500979 .36999513 .5401764 .36999513 .4711914 .36999513 .36915589 .29299928 .28611756 .24499512 .23408509L.06199646 .035995485C.050994874 .024993897 .050994874 .022994996 .050994874 0H.43399049L.46199037 .17704773Z"/>
<path id="font_5_1" d="M.18199158 .015991211C.18199158-.017044068 .18199158-.09921265 .10798645-.17036438 .101989749-.17636109 .101989749-.17736817 .101989749-.18136597 .101989749-.18836975 .10899353-.19335938 .114990238-.19335938 .12599182-.19335938 .20698548-.115249637 .20698548 .0019989014 .20698548 .06399536 .18499756 .10798645 .14199829 .10798645 .10798645 .10798645 .08799744 .08198547 .08799744 .053985597 .08799744 .025985718 .10798645 0 .14199829 0 .15699768 0 .17199707 .004989624 .18199158 .015991211Z"/>
<path id="font_4_5" d="M.30499269 .35195924C.397995 .38697816 .44198609 .46006776 .44198609 .5290985 .44198609 .60606387 .35699464 .6660156 .25299073 .6660156 .14898682 .6660156 .070999149 .60705569 .070999149 .5310974 .070999149 .49809266 .09298706 .47909547 .12199402 .47909547 .15098572 .47909547 .17199707 .50009158 .17199707 .5290985 .17199707 .5640869 .147995 .57910159 .11399841 .57910159 .13999939 .6210327 .20098877 .64100649 .25 .64100649 .33299256 .64100649 .34899903 .5750885 .34899903 .52809146 .34899903 .49809266 .34298707 .45005799 .31799317 .41201783 .2869873 .36695863 .2519989 .36495973 .22299195 .36296083 .19799805 .36094667 .19599915 .36094667 .18798828 .36094667 .1789856 .35995484 .17098999 .35894776 .17098999 .34794618 .17098999 .33496095 .1789856 .33496095 .19599915 .33496095H.24299622C.32998658 .33496095 .36799623 .2646637 .36799623 .16937256 .36799623 .04145813 .2999878 .0055389406 .24899292 .0055389406 .22999573 .0055389406 .1329956 .010528564 .08799744 .0843811 .12399292 .07939148 .1519928 .10437012 .1519928 .13838196 .1519928 .17137146 .1269989 .19238281 .09799194 .19238281 .07299805 .19238281 .042999269 .17736817 .042999269 .13537598 .042999269 .046447755 .13598633-.022460938 .2519989-.022460938 .3769989-.022460938 .46998597 .06741333 .46998597 .16937256 .46998597 .25663758 .40098573 .33093263 .30499269 .35195924Z"/>
<path id="font_4_2" d="M.2979889 .25097657C.2979889 .3329773 .28599549 .4429779 .23399353 .5539856 .1749878 .6769867 .08198547 .75 .069992069 .75 .05999756 .75 .057998659 .74198916 .057998659 .7389984 .057998659 .73399356 .05999756 .73098757 .066986087 .72398379 .125 .6719818 .23498535 .5359802 .23498535 .25097657 .23498535 .10797119 .20899964-.091033939 .06399536-.22602844 .06199646-.22903443 .057998659-.23303223 .057998659-.23803711 .057998659-.24102783 .05999756-.24902344 .069992069-.24902344 .08198547-.24902344 .17199707-.17703247 .22599793-.06802368 .27398683 .02796936 .2979889 .13098145 .2979889 .25097657Z"/>
<path id="font_6_75" d="M.83299258 0V.0309906C.7819977 .03125 .7569885 .03125 .7559967 .0622406V.2539215C.7559967 .34077455 .7559967 .36872865 .72299197 .4056549 .70199587 .43037416 .6619873 .4423828 .6159973 .4423828 .5439911 .4423828 .49499513 .40037538 .46699525 .3473816 .45498658 .40637208 .4149933 .4423828 .33099366 .4423828 .25099183 .4423828 .20199585 .39038087 .18099976 .3443756H.17999268V.4423828L.034988405 .43066407V.3996582C.102996829 .3996582 .11199951 .39266969 .11199951 .34370423V.07695007C.11199951 .0309906 .100997928 .0309906 .034988405 .0309906V0C.08198547 .0019989014 .100997928 .0029907227 .14898682 .0029907227 .19699097 .0029907227 .20999146 .0019989014 .2630005 0V.0309906C.19699097 .0309906 .18598938 .0309906 .18598938 .07695007V.25878907C.18598938 .36732484 .2639923 .41737367 .32398988 .41737367 .3789978 .41737367 .39698792 .37834168 .39698792 .30825807V.077041629C.39698792 .0309906 .38598634 .0309906 .31999208 .0309906V0C.36698915 .0019989014 .38598634 .0029907227 .43399049 .0029907227 .48199464 .0029907227 .49499513 .0019989014 .5479889 0V.0309906C.48199464 .0309906 .47099305 .0309906 .47099305 .077041629V.2592163C.47099305 .36732484 .548996 .41737367 .60899356 .41737367 .6639862 .41737367 .6819916 .37834168 .6819916 .30825807V.077041629C.6819916 .0309906 .67099 .0309906 .6049957 .0309906V0C.6519928 .0019989014 .67099 .0029907227 .71899417 .0029907227 .7669983 .0029907227 .7799988 .0019989014 .83299258 0Z"/>
<path id="font_6_66" d="M.25299073 0V.0309906C.18798828 .0309906 .18399048 .035995485 .18399048 .075042728V.4423828L.039993287 .43066407V.3996582C.10398865 .3996582 .11299133 .3936615 .11299133 .3447113V.07695007C.11299133 .0309906 .101989749 .0309906 .035995485 .0309906V0C.08099365 .0019989014 .101989749 .0029907227 .1459961 .0029907227 .1619873 .0029907227 .20399475 .0029907227 .25299073 0M.19699097 .6028137C.19699097 .63282778 .17298889 .6568146 .14299011 .6568146 .11299133 .6568146 .08898926 .63282778 .08898926 .6028137 .08898926 .57281497 .11299133 .5488281 .14299011 .5488281 .17298889 .5488281 .19699097 .57281497 .19699097 .6028137Z"/>
<path id="font_6_77" d="M.5469971 0V.0309906C.49598695 .03125 .47099305 .03125 .46998597 .0622406V.25431825C.46998597 .3373413 .46998597 .36636354 .44198609 .4013672 .4189911 .42938233 .3809967 .4423828 .33099366 .4423828 .23799134 .4423828 .19499207 .37335206 .18099976 .34535218H.17999268V.4423828L.034988405 .43066407V.3996582C.102996829 .3996582 .11199951 .39266969 .11199951 .34370423V.07695007C.11199951 .0309906 .100997928 .0309906 .034988405 .0309906V0C.08198547 .0019989014 .100997928 .0029907227 .14898682 .0029907227 .19699097 .0029907227 .20999146 .0019989014 .2630005 0V.0309906C.19699097 .0309906 .18598938 .0309906 .18598938 .07695007V.25878907C.18598938 .36532594 .26098634 .41737367 .32398988 .41737367 .3829956 .41737367 .3959961 .3683319 .3959961 .30825807V.077041629C.3959961 .0309906 .3849945 .0309906 .31900025 .0309906V0C.3659973 .0019989014 .3849945 .0029907227 .43299867 .0029907227 .48098756 .0029907227 .49398805 .0019989014 .5469971 0Z"/>
<path id="font_7_1" d="M.6749878 .22944641C.69299319 .22944641 .71199038 .22944641 .71199038 .25144959 .71199038 .27246095 .69200137 .27246095 .6749878 .27246095H.12298584C.10598755 .27246095 .085998538 .27246095 .085998538 .25144959 .085998538 .22944641 .10499573 .22944641 .12298584 .22944641H.6749878Z"/>
<path id="font_4_3" d="M.3039856 .6392822C.3039856 .6642761 .30299378 .666275 .27799989 .666275 .21598816 .60227969 .12399292 .60227969 .09298706 .60227969V.57128909C.11199951 .57128909 .17298889 .57128909 .22698975 .5972748V.08001709C.22698975 .042999269 .22399903 .0309906 .1309967 .0309906H.09899902V0C.1349945 .0029907227 .22399903 .0029907227 .2649994 .0029907227 .30599977 .0029907227 .3959961 .0029907227 .43199159 0V.0309906H.3999939C.30699159 .0309906 .3039856 .042999269 .3039856 .08001709V.6392822Z"/>
<path id="font_6_28" d="M.49699403 .089141849V.14515686H.46899415V.090148929C.46899415 .07914734 .46899415 .029129029 .43299867 .029129029 .39698792 .029129029 .39698792 .07714844 .39698792 .09315491V.26818849C.39698792 .32521058 .39698792 .3592224 .35198976 .40022279 .31498719 .43322755 .2669983 .4482422 .21699524 .4482422 .1329956 .4482422 .06298828 .40623475 .06298828 .34220887 .06298828 .311203 .083999637 .2942047 .10998535 .2942047 .13699341 .2942047 .1559906 .31420899 .1559906 .34020997 .1559906 .3832245 .11099243 .38822938 .11099243 .38822938 .13798523 .41423036 .18598938 .42323304 .21499634 .42323304 .2659912 .42323304 .32299806 .3852234 .32299806 .29719544V.26419068C.2689972 .26219178 .19400025 .2571869 .1269989 .22518921 .054992677 .19017029 .032989503 .13816834 .032989503 .09814453 .032989503 .01625061 .12998963-.0107421879 .19699097-.0107421879 .27999879-.0107421879 .31799317 .04425049 .33198548 .072250369 .33699037 .030136109 .3659973-.005859375 .40899659-.005859375 .43399049-.005859375 .49699403 .009140015 .49699403 .08912659V.089141849M.32299806 .14112854C.32299806 .04425049 .24798584 .014251709 .20399475 .014251709 .15699768 .014251709 .11299133 .04824829 .11299133 .098236087 .11299133 .16423035 .16999817 .23422241 .32299806 .24023438V.14112854Z"/>
<path id="font_6_116" d="M.5279999 0V.0309906C.48799134 .0309906 .45799256 .0309906 .43598939 .05897522L.30499269 .22491455C.2979889 .23390198 .2979889 .23590088 .2979889 .23590088 .2979889 .23590088 .37599183 .33285523 .38398744 .3408661 .4149933 .37483216 .44898988 .39866639 .5099945 .3996582V.43066407C.48098756 .42765809 .45399476 .42765809 .4249878 .42765809 .3869934 .42765809 .36898805 .42765809 .32899476 .43066407V.3996582C.34399415 .39767457 .35699464 .38972474 .35699464 .3698578 .35699464 .35386659 .34799195 .342865 .34298707 .3368683L.2789917 .2578888 .20098877 .3568573C.19400025 .36586 .19198609 .3678589 .19198609 .37483216 .19198609 .38674928 .20298767 .39866639 .22599793 .3996582V.43066407C.18798828 .4286499 .1619873 .42765809 .116989139 .42765809 .116989139 .42765809 .057998659 .42765809 .018997193 .43066407V.3996582C.08799744 .3996582 .08999634 .39767457 .13598633 .3388672L.23899842 .20991516 .14199829 .0929718C.09199524 .032989503 .034988405 .0309906 .01399231 .0309906V0C.042999269 .0029907227 .069992069 .0029907227 .09899902 .0029907227 .1309967 .0029907227 .16299439 .0019989014 .19499207 0V.0309906C.16999817 .033996583 .16699219 .050979616 .16699219 .06097412 .16699219 .0639801 .16699219 .07797241 .18199158 .095962528 .20599365 .12695313 .23199463 .15693665 .25698854 .18692017L.33599855 .08596802C.35499574 .0639801 .35499574 .0619812 .35499574 .055984498 .35499574 .04498291 .34498597 .03199768 .32099916 .0309906V0C.36299134 .0019989014 .3869934 .0029907227 .42999269 .0029907227 .42999269 .0029907227 .4889984 .0029907227 .5279999 0Z"/>
<path id="font_8_1" d="M.33399964 .30233766C.33999635 .32835389 .36299134 .42037965 .43299867 .42037965 .43798829 .42037965 .46199037 .42037965 .48298646 .40734864 .45498658 .402359 .43499757 .37734986 .43499757 .35334779 .43499757 .33735658 .44599916 .31835938 .47299195 .31835938 .49499513 .31835938 .5269928 .3363495 .5269928 .37635804 .5269928 .42837525 .46798707 .4423828 .43399049 .4423828 .37599183 .4423828 .34098817 .38935853 .32899476 .36634828 .3039856 .43237306 .25 .4423828 .22099304 .4423828 .116989139 .4423828 .05999756 .3133545 .05999756 .28834535 .05999756 .27833558 .069992069 .27833558 .07199097 .27833558 .07998657 .27833558 .08299255 .28033448 .084991458 .28933717 .11898804 .39535523 .18499756 .42037965 .21899414 .42037965 .23799134 .42037965 .272995 .4113617 .272995 .35334779 .272995 .32235719 .2559967 .25532533 .21899414 .11528015 .20298767 .053268434 .16799927 .011245728 .12399292 .011245728 .117996219 .011245728 .09498596 .011245728 .07398987 .024276734 .09899902 .029266358 .12098694 .05027771 .12098694 .07827759 .12098694 .105270389 .09899902 .11328125 .083999637 .11328125 .053985597 .11328125 .0289917 .08728027 .0289917 .055267335 .0289917 .009246826 .07899475-.0107421879 .12298584-.0107421879 .18899536-.0107421879 .22499085 .059280397 .22799683 .0652771 .23999024 .028274537 .27598573-.0107421879 .33599855-.0107421879 .43899537-.0107421879 .49598695 .118270877 .49598695 .14328003 .49598695 .1532898 .4869995 .1532898 .48399354 .1532898 .47499085 .1532898 .47299195 .14929199 .47099305 .14228821 .43798829 .03527832 .36999513 .011245728 .33799745 .011245728 .29899598 .011245728 .2829895 .043273927 .2829895 .07727051 .2829895 .09927368 .2889862 .121276859 .2999878 .16529846L.33399964 .30233766Z"/>
<path id="font_8_2" d="M.48599244 .38136292C.48999024 .39537049 .48999024 .39736939 .48999024 .40437318 .48999024 .42237855 .47599793 .43138124 .46099855 .43138124 .45098878 .43138124 .43499757 .42536927 .42599488 .41036988 .42399598 .405365 .41600038 .37435914 .4119873 .35635377 .40499879 .33035279 .397995 .30334474 .3919983 .27633668L.34700013 .09628296C.34298707 .08126831 .2999878 .011245728 .23399353 .011245728 .18299866 .011245728 .17199707 .055267335 .17199707 .0922699 .17199707 .1382904 .18899536 .20030213 .22299195 .28833009 .23899842 .3293457 .24299622 .3403473 .24299622 .36035157 .24299622 .405365 .21099854 .4423828 .16099549 .4423828 .06599426 .4423828 .0289917 .29733277 .0289917 .28833009 .0289917 .27833558 .038986207 .27833558 .040985109 .27833558 .050994874 .27833558 .051986696 .28033448 .056991579 .29634095 .083999637 .3903656 .12399292 .42037965 .1579895 .42037965 .1659851 .42037965 .18299866 .42037965 .18299866 .3883667 .18299866 .36335755 .17298889 .3373413 .1659851 .31834413 .12599182 .21231079 .10798645 .1552887 .10798645 .10827637 .10798645 .019256592 .17098999-.0107421879 .22999573-.0107421879 .2689972-.0107421879 .30299378 .0062561037 .33099366 .03425598 .31799317-.017745972 .30599977-.06674194 .2659912-.11973572 .23999024-.15385437 .20199585-.18309021 .1559906-.18309021 .14199829-.18309021 .09700012-.18005371 .07998657-.14074707 .09599304-.14074707 .10899353-.14074707 .12298584-.1287384 .1329956-.11973572 .14299011-.10673523 .14299011-.08773804 .14299011-.056747438 .115997318-.052734376 .10598755-.052734376 .08299255-.052734376 .049987794-.068740848 .049987794-.11773682 .049987794-.16796875 .09399414-.20507813 .1559906-.20507813 .25898744-.20507813 .3619995-.11373901 .3899994-.00074768069L.48599244 .38136292Z"/>
</defs>
<path transform="matrix(.75,0,0,-.75,10.25275,165.60552)" stroke-width=".3985" stroke-linecap="butt" stroke-miterlimit="10" stroke-linejoin="miter" fill="none" stroke="#e5e6e5" d="M0 0V210.29352M39.77141 0V210.29352M79.54283 0V210.29352M159.08567 0V210.29352M198.85707 0V210.29352M238.6285 0V210.29352"/>
<path transform="matrix(.75,0,0,-.75,10.25275,165.60552)" stroke-width=".3985" stroke-linecap="butt" stroke-miterlimit="10" stroke-linejoin="miter" fill="none" stroke="#e5e6e5" d="M0 16.17642H238.6285M0 48.52927H238.6285M0 113.23497H238.6285M0 145.58782H238.6285M0 177.94068H238.6285M0 210.29352H238.6285"/>
<path transform="matrix(.75,0,0,-.75,10.25275,165.60552)" stroke-width=".19925" stroke-linecap="butt" stroke-miterlimit="10" stroke-linejoin="miter" fill="none" stroke="#7f807f" d="M0 78.75621V83.00801M39.77141 78.75621V83.00801M79.54283 78.75621V83.00801M159.08567 78.75621V83.00801M198.85707 78.75621V83.00801M238.6285 78.75621V83.00801"/>
<path transform="matrix(.75,0,0,-.75,10.25275,165.60552)" stroke-width=".19925" stroke-linecap="butt" stroke-miterlimit="10" stroke-linejoin="miter" fill="none" stroke="#7f807f" d="M117.18832 16.17642H121.44014M117.18832 48.52927H121.44014M117.18832 113.23497H121.44014M117.18832 145.58782H121.44014M117.18832 177.94068H121.44014M117.18832 210.29352H121.44014"/>
<path transform="matrix(.75,0,0,-.75,10.25275,165.60552)" stroke-width=".79701" stroke-linecap="butt" stroke-miterlimit="10" stroke-linejoin="miter" fill="none" stroke="#000000" d="M0 80.88213H236.03823"/>
<path transform="matrix(.75,0,0,-.75,187.28142,104.94392)" d="M2.59026 0-1.55415 2.0722 0 0-1.55415-2.0722"/>
<path transform="matrix(.75,0,0,-.75,10.25275,165.60552)" stroke-width=".79701" stroke-linecap="butt" stroke-miterlimit="10" stroke-linejoin="miter" fill="none" stroke="#000000" d="M119.31424 0V207.70326"/>
<path transform="matrix(0,-.75,-.75,-0,99.738437,9.828064)" d="M2.59026 0-1.55415 2.0722 0 0-1.55415-2.0722"/>
<use data-text="&#x2212;" xlink:href="#font_1_1" transform="matrix(7.47198,0,0,-7.47198,5.4790008,114.14352)"/>
<use data-text="6" xlink:href="#font_2_3" transform="matrix(7.47198,0,0,-7.47198,11.2907509,114.14352)"/>
<use data-text="&#x2212;" xlink:href="#font_1_1" transform="matrix(7.47198,0,0,-7.47198,35.30725,114.14352)"/>
<use data-text="4" xlink:href="#font_2_2" transform="matrix(7.47198,0,0,-7.47198,41.119,114.14352)"/>
<use data-text="&#x2212;" xlink:href="#font_1_1" transform="matrix(7.47198,0,0,-7.47198,65.1355,114.14352)"/>
<use data-text="2" xlink:href="#font_2_1" transform="matrix(7.47198,0,0,-7.47198,70.94725,114.14352)"/>
<use data-text="2" xlink:href="#font_2_1" transform="matrix(7.47198,0,0,-7.47198,127.697498,114.14352)"/>
<use data-text="4" xlink:href="#font_2_2" transform="matrix(7.47198,0,0,-7.47198,157.52574,114.14352)"/>
<use data-text="6" xlink:href="#font_2_3" transform="matrix(7.47198,0,0,-7.47198,187.35399,114.14352)"/>
<use data-text="&#x2212;" xlink:href="#font_1_1" transform="matrix(7.47198,0,0,-7.47198,85.806247,155.56977)"/>
<use data-text="4" xlink:href="#font_2_2" transform="matrix(7.47198,0,0,-7.47198,91.61799,155.56977)"/>
<use data-text="&#x2212;" xlink:href="#font_1_1" transform="matrix(7.47198,0,0,-7.47198,85.806247,131.30503)"/>
<use data-text="2" xlink:href="#font_2_1" transform="matrix(7.47198,0,0,-7.47198,91.61799,131.30503)"/>
<use data-text="2" xlink:href="#font_2_1" transform="matrix(7.47198,0,0,-7.47198,91.618,83.0875)"/>
<use data-text="4" xlink:href="#font_2_2" transform="matrix(7.47198,0,0,-7.47198,91.618,58.8235)"/>
<use data-text="6" xlink:href="#font_2_3" transform="matrix(7.47198,0,0,-7.47198,91.618,34.55876)"/>
<use data-text="8" xlink:href="#font_2_4" transform="matrix(7.47198,0,0,-7.47198,91.618,10.294769)"/>
<g clip-path="url(#clip_3)">
<path transform="matrix(.75,0,0,-.75,10.25275,165.60552)" stroke-width=".79701" stroke-linecap="butt" stroke-miterlimit="10" stroke-linejoin="miter" fill="none" stroke="#2471a3" d="M127.26839 181.17733 128.2928 172.36576 129.31722 165.4443 130.34162 159.88623 131.36603 155.34387 132.39046 151.57849 133.41487 148.42075 134.43929 145.74721 135.4637 143.4657 136.48812 141.50609 137.51253 139.81398 138.53694 138.34667 139.56136 137.06996 140.58576 135.95638 141.61017 134.9834 142.6346 134.13253 143.65901 133.38832 144.68343 132.73786 145.70784 132.17023 146.73226 131.67617 147.75667 131.2477 148.78108 130.878 149.80548 130.56114 150.8299 130.29196 151.85433 130.06597 152.87874 129.87921 153.90316 129.7282 154.92757 129.60984 155.95198 129.52138 156.9764 129.4604 158.00081 129.42475 159.02523 129.41242 160.04962 129.42166 161.07405 129.45088 162.09847 129.49868 163.12288 129.56372 164.1473 129.64482 165.1717 129.74092 166.19612 129.85103 167.22054 129.97425 168.24495 130.10976 169.26935 130.25679 170.29378 130.41466 171.31819 130.58274 172.3426 130.76042 173.36702 130.94716 174.39144 131.14244 175.41585 131.34581 176.44026 131.55684 177.46468 131.7751 178.48909 132.00025 179.5135 132.23189 180.53792 132.46974 181.56233 132.71347 182.58675 132.9628 183.61116 133.21747 184.63558 133.47722 185.65999 133.74182 186.6844 134.01103 187.70882 134.28467 188.73322 134.56253 189.75765 134.84442 190.78206 135.13018 191.80648 135.41963 192.83089 135.71263 193.8553 136.00902 194.87972 136.30869 195.90413 136.61148 196.92855 136.91728 197.95296 137.22597 198.97737 137.53743 200.00179 137.85157 201.0262 138.16826 202.05062 138.48744 203.07503 138.80902 204.09944 139.13288 205.12386 139.45896 206.14827 139.78717 207.17269 140.11746 208.19712 140.44974 209.22151 140.78392 210.24593 141.11998 211.27034 141.45783 212.29476 141.79741 213.31917 142.13867 214.34358 142.48157 215.368 142.82604 216.39241 143.17203 217.41684 143.51949 218.44126 143.86838 219.46566 144.21868 220.49007 144.5703 221.51448 144.92322 222.5389 145.2774 223.56331 145.63283 224.58773 145.98946 225.61214 146.34722 226.63657 146.70612 227.66098 147.0661 228.68538 147.42717"/>
<path transform="matrix(.75,0,0,-.75,10.25275,165.60552)" stroke-width=".79701" stroke-linecap="butt" stroke-miterlimit="10" stroke-linejoin="miter" fill="none" stroke="#2471a3" d="M9.94283 46.69139 10.96724 47.05244 11.99167 47.41243 13.01608 47.77133 14.0405 48.1291 15.06491 48.48572 16.08932 48.84114 17.11374 49.19533 18.13814 49.54826 19.16255 49.89989 20.18697 50.25018 21.2114 50.59906 22.23581 50.94653 23.26022 51.29251 24.28464 51.637 25.30905 51.97987 26.33347 52.32114 27.35786 52.66072 28.38228 52.99858 29.4067 53.33463 30.43112 53.66882 31.45554 54.0011 32.47995 54.33138 33.50436 54.65959 34.52878 54.98567 35.55319 55.30954 36.5776 55.6311 37.602 55.95029 38.62642 56.26698 39.65085 56.58112 40.67526 56.8926 41.69968 57.20128 42.72409 57.50706 43.7485 57.80986 44.77292 58.10953 45.79733 58.40593 46.82175 58.69893 47.84615 58.98839 48.87057 59.27415 49.89499 59.55605 50.9194 59.83388 51.94382 60.10751 52.96823 60.37675 53.99265 60.64134 55.01706 60.90108 56.04147 61.15575 57.06589 61.40508 58.09029 61.6488 59.11472 61.88666 60.13913 62.11832 61.16354 62.34346 62.18796 62.5617 63.21237 62.77275 64.23679 62.97612 65.2612 63.1714 66.28561 63.35812 67.31001 63.53581 68.33444 63.70389 69.35886 63.86176 70.38327 64.00879 71.40768 64.1443 72.4321 64.26753 73.45651 64.37764 74.48093 64.47372 75.50534 64.55484 76.52975 64.61987 77.55417 64.66768 78.57858 64.6969 79.603 64.70615 80.62741 64.6938 81.65182 64.65814 82.67624 64.59718 83.70065 64.50874 84.72507 64.39038 85.74948 64.23935 86.7739 64.05258 87.79831 63.8266 88.82272 63.55742 89.84714 63.24054 90.87155 62.87085 91.89597 62.44238 92.92038 61.94832 93.9448 61.38069 94.96921 60.73024 95.99364 59.98602 97.01804 59.13515 98.04245 58.16217 99.06686 57.04858 100.09128 55.7719 101.11569 54.30457 102.1401 52.61247 103.16452 50.65285 104.18893 48.37135 105.21336 45.6978 106.23776 42.54007 107.26218 38.77469 108.28659 34.23232 109.311 28.67424 110.33542 21.75279 111.35983 12.94122"/>
<path transform="matrix(.75,0,0,-.75,10.25275,165.60552)" stroke-width=".79701" stroke-linecap="butt" stroke-dasharray="2.98883,2.98883" stroke-miterlimit="10" stroke-linejoin="miter" fill="none" stroke="#1b4f72" d="M9.94283 52.57378 12.15236 53.47246 14.36188 54.37115 16.5714 55.26985 18.78091 56.16856 20.99045 57.06726 23.19997 57.96596 25.40947 58.86465 27.619 59.76335 29.82852 60.66205 32.03804 61.56075 34.24756 62.45943 36.45709 63.35812 38.66661 64.25684 40.87611 65.15553 43.08565 66.05423 45.29517 66.95293 47.50468 67.85162 49.7142 68.75032 51.92374 69.64902 54.13326 70.54771 56.34276 71.4464 58.55229 72.34511 60.76181 73.2438 62.97133 74.1425 65.18085 75.0412 67.39038 75.9399 69.5999 76.8386 71.80942 77.73729 74.01894 78.63599 76.22845 79.5347 78.43797 80.43338 80.64749 81.33208 82.85703 82.23077 85.06654 83.12947 87.27606 84.02817 89.48558 84.92686 91.6951 85.82556 93.90462 86.72426 96.11414 87.62297 98.32367 88.52165 100.53319 89.42035 102.7427 90.31905 104.95221 91.21774 107.16174 92.11644 109.37126 93.01514 111.58078 93.91383 113.79031 94.81253 115.99983 95.71124 118.20935 96.60994 120.41887 97.50862 122.62839 98.40732 124.8379 99.30602 127.04742 100.20471 129.25696 101.10341 131.46648 102.0021 133.676 102.9008 135.88552 103.79951 138.09503 104.69821 140.30455 105.59691 142.51407 106.49559 144.7236 107.39429 146.93312 108.29298 149.14264 109.19168 151.35216 110.09038 153.56168 110.98907 155.7712 111.88779 157.98072 112.78648 160.19025 113.68518 162.39977 114.58388 164.60929 115.48256 166.8188 116.38126 169.02832 117.27995 171.23784 118.17865 173.44736 119.07735 175.65689 119.97606 177.86641 120.87476 180.07593 121.77345 182.28545 122.67215 184.49497 123.57085 186.70449 124.46953 188.914 125.36823 191.12354 126.26692 193.33306 127.16562 195.54257 128.06433 197.75209 128.96303 199.96163 129.86173 202.17113 130.76042 204.38065 131.65912 206.59018 132.55782 208.7997 133.4565 211.00922 134.3552 213.21874 135.25389 215.42827 136.1526 217.63777 137.0513 219.84729 137.95 222.05683 138.8487 224.26634 139.74739 226.47586 140.64609 228.68538 141.54479"/>
<use data-text="(" xlink:href="#font_4_1" transform="matrix(6.724785,0,0,-6.724785,132.355,70.22951)"/>
<use data-text="2" xlink:href="#font_4_4" transform="matrix(6.724785,0,0,-6.724785,135.0449,70.22951)"/>
<use data-text="," xlink:href="#font_5_1" transform="matrix(6.724785,0,0,-6.724785,138.49825,70.22951)"/>
<use data-text="3" xlink:href="#font_4_5" transform="matrix(6.724785,0,0,-6.724785,141.57024,70.22951)"/>
<use data-text=")" xlink:href="#font_4_2" transform="matrix(6.724785,0,0,-6.724785,145.02678,70.22951)"/>
<use data-text="m" xlink:href="#font_6_75" transform="matrix(6.724785,0,0,-6.724785,150.0205,70.22951)"/>
<use data-text="i" xlink:href="#font_6_66" transform="matrix(6.724785,0,0,-6.724785,155.7769,70.22951)"/>
<use data-text="n" xlink:href="#font_6_77" transform="matrix(6.724785,0,0,-6.724785,157.7002,70.22951)"/>
<use data-text="(" xlink:href="#font_4_1" transform="matrix(6.724785,0,0,-6.724785,25.845252,118.75752)"/>
<use data-text="&#x2212;" xlink:href="#font_7_1" transform="matrix(6.724785,0,0,-6.724785,28.53325,118.75752)"/>
<use data-text="2" xlink:href="#font_4_4" transform="matrix(6.724785,0,0,-6.724785,33.90925,118.75752)"/>
<use data-text="," xlink:href="#font_5_1" transform="matrix(6.724785,0,0,-6.724785,37.364503,118.75752)"/>
<use data-text="&#x2212;" xlink:href="#font_7_1" transform="matrix(6.724785,0,0,-6.724785,40.4365,118.75752)"/>
<use data-text="1" xlink:href="#font_4_3" transform="matrix(6.724785,0,0,-6.724785,45.811754,118.75752)"/>
<use data-text=")" xlink:href="#font_4_2" transform="matrix(6.724785,0,0,-6.724785,49.268289,118.75752)"/>
<use data-text="m" xlink:href="#font_6_75" transform="matrix(6.724785,0,0,-6.724785,54.262,118.75752)"/>
<use data-text="a" xlink:href="#font_6_28" transform="matrix(6.724785,0,0,-6.724785,60.018419,118.75752)"/>
<use data-text="x" xlink:href="#font_6_116" transform="matrix(6.724785,0,0,-6.724785,63.47496,118.75752)"/>
</g>
<path transform="matrix(.75,0,0,-.75,10.25275,165.60552)" d="M161.07804 129.41237C161.07804 130.51284 160.18595 131.40493 159.08548 131.40493 157.985 131.40493 157.09293 130.51284 157.09293 129.41237 157.09293 128.31189 157.985 127.41982 159.08548 127.41982 160.18595 127.41982 161.07804 128.31189 161.07804 129.41237ZM159.08548 129.41237" fill="#2471a3"/>
<path transform="matrix(.75,0,0,-.75,10.25275,165.60552)" stroke-width=".79701" stroke-linecap="butt" stroke-miterlimit="10" stroke-linejoin="miter" fill="none" stroke="#2471a3" d="M161.07804 129.41237C161.07804 130.51284 160.18595 131.40493 159.08548 131.40493 157.985 131.40493 157.09293 130.51284 157.09293 129.41237 157.09293 128.31189 157.985 127.41982 159.08548 127.41982 160.18595 127.41982 161.07804 128.31189 161.07804 129.41237ZM159.08548 129.41237"/>
<path transform="matrix(.75,0,0,-.75,10.25275,165.60552)" stroke-width=".79701" stroke-linecap="butt" stroke-miterlimit="10" stroke-linejoin="miter" fill="none" stroke="#2471a3" d=""/>
<path transform="matrix(.75,0,0,-.75,10.25275,165.60552)" d="M81.5353 64.70618C81.5353 65.80666 80.6432 66.69873 79.54274 66.69873 78.44226 66.69873 77.55019 65.80666 77.55019 64.70618 77.55019 63.60571 78.44226 62.71362 79.54274 62.71362 80.6432 62.71362 81.5353 63.60571 81.5353 64.70618ZM79.54274 64.70618" fill="#2471a3"/>
<path transform="matrix(.75,0,0,-.75,10.25275,165.60552)" stroke-width=".79701" stroke-linecap="butt" stroke-miterlimit="10" stroke-linejoin="miter" fill="none" stroke="#2471a3" d="M81.5353 64.70618C81.5353 65.80666 80.6432 66.69873 79.54274 66.69873 78.44226 66.69873 77.55019 65.80666 77.55019 64.70618 77.55019 63.60571 78.44226 62.71362 79.54274 62.71362 80.6432 62.71362 81.5353 63.60571 81.5353 64.70618ZM79.54274 64.70618"/>
<path transform="matrix(.75,0,0,-.75,10.25275,165.60552)" stroke-width=".79701" stroke-linecap="butt" stroke-miterlimit="10" stroke-linejoin="miter" fill="none" stroke="#2471a3" d=""/>
<use data-text="x" xlink:href="#font_8_1" transform="matrix(7.47198,0,0,-7.47198,182.16249,102.15552)"/>
<use data-text="y" xlink:href="#font_8_2" transform="matrix(7.47198,0,0,-7.47198,102.52675,13.893265)"/>
</svg>
