<svg xmlns="http://www.w3.org/2000/svg" xmlns:xlink="http://www.w3.org/1999/xlink" xmlns:inkscape="http://www.inkscape.org/namespaces/inkscape" version="1.1" width="132.456" height="101.275" viewBox="0 0 132.456 101.275">
<path transform="matrix(1,0,0,-1,3.865,97.409008)" d="M.87672 0C.87672 .48419 .48419 .87672 0 .87672-.48419 .87672-.87672 .48419-.87672 0-.87672-.48419-.48419-.87672 0-.87672 .48419-.87672 .87672-.48419 .87672 0ZM0 0"/>
<path transform="matrix(1,0,0,-1,3.865,97.409008)" d="M.87672 15.59082C.87672 16.07503 .48419 16.46754 0 16.46754-.48419 16.46754-.87672 16.07503-.87672 15.59082-.87672 15.10663-.48419 14.7141 0 14.7141 .48419 14.7141 .87672 15.10663 .87672 15.59082ZM0 15.59082"/>
<path transform="matrix(1,0,0,-1,3.865,97.409008)" d="M.87672 31.18166C.87672 31.66585 .48419 32.05838 0 32.05838-.48419 32.05838-.87672 31.66585-.87672 31.18166-.87672 30.69745-.48419 30.30492 0 30.30492 .48419 30.30492 .87672 30.69745 .87672 31.18166ZM0 31.18166"/>
<path transform="matrix(1,0,0,-1,3.865,97.409008)" d="M.87672 46.77248C.87672 47.25668 .48419 47.64922 0 47.64922-.48419 47.64922-.87672 47.25668-.87672 46.77248-.87672 46.28828-.48419 45.89575 0 45.89575 .48419 45.89575 .87672 46.28828 .87672 46.77248ZM0 46.77248"/>
<path transform="matrix(1,0,0,-1,3.865,97.409008)" d="M.87672 62.36331C.87672 62.8475 .48419 63.24004 0 63.24004-.48419 63.24004-.87672 62.8475-.87672 62.36331-.87672 61.87912-.48419 61.48659 0 61.48659 .48419 61.48659 .87672 61.87912 .87672 62.36331ZM0 62.36331"/>
<path transform="matrix(1,0,0,-1,3.865,97.409008)" d="M.87672 77.95415C.87672 78.43834 .48419 78.83087 0 78.83087-.48419 78.83087-.87672 78.43834-.87672 77.95415-.87672 77.46994-.48419 77.07741 0 77.07741 .48419 77.07741 .87672 77.46994 .87672 77.95415ZM0 77.95415"/>
<path transform="matrix(1,0,0,-1,3.865,97.409008)" d="M.87672 93.54497C.87672 94.02917 .48419 94.4217 0 94.4217-.48419 94.4217-.87672 94.02917-.87672 93.54497-.87672 93.06078-.48419 92.66824 0 92.66824 .48419 92.66824 .87672 93.06078 .87672 93.54497ZM0 93.54497"/>
<path transform="matrix(1,0,0,-1,3.865,97.409008)" d="M16.46754 0C16.46754 .48419 16.07503 .87672 15.59082 .87672 15.10663 .87672 14.7141 .48419 14.7141 0 14.7141-.48419 15.10663-.87672 15.59082-.87672 16.07503-.87672 16.46754-.48419 16.46754 0ZM15.59082 0"/>
<path transform="matrix(1,0,0,-1,3.865,97.409008)" d="M16.46754 15.59082C16.46754 16.07503 16.07503 16.46754 15.59082 16.46754 15.10663 16.46754 14.7141 16.07503 14.7141 15.59082 14.7141 15.10663 15.10663 14.7141 15.59082 14.7141 16.07503 14.7141 16.46754 15.10663 16.46754 15.59082ZM15.59082 15.59082"/>
<path transform="matrix(1,0,0,-1,3.865,97.409008)" d="M16.46754 31.18166C16.46754 31.66585 16.07503 32.05838 15.59082 32.05838 15.10663 32.05838 14.7141 31.66585 14.7141 31.18166 14.7141 30.69745 15.10663 30.30492 15.59082 30.30492 16.07503 30.30492 16.46754 30.69745 16.46754 31.18166ZM15.59082 31.18166"/>
<path transform="matrix(1,0,0,-1,3.865,97.409008)" d="M16.46754 46.77248C16.46754 47.25668 16.07503 47.64922 15.59082 47.64922 15.10663 47.64922 14.7141 47.25668 14.7141 46.77248 14.7141 46.28828 15.10663 45.89575 15.59082 45.89575 16.07503 45.89575 16.46754 46.28828 16.46754 46.77248ZM15.59082 46.77248"/>
<path transform="matrix(1,0,0,-1,3.865,97.409008)" d="M16.46754 62.36331C16.46754 62.8475 16.07503 63.24004 15.59082 63.24004 15.10663 63.24004 14.7141 62.8475 14.7141 62.36331 14.7141 61.87912 15.10663 61.48659 15.59082 61.48659 16.07503 61.48659 16.46754 61.87912 16.46754 62.36331ZM15.59082 62.36331"/>
<path transform="matrix(1,0,0,-1,3.865,97.409008)" d="M16.46754 77.95415C16.46754 78.43834 16.07503 78.83087 15.59082 78.83087 15.10663 78.83087 14.7141 78.43834 14.7141 77.95415 14.7141 77.46994 15.10663 77.07741 15.59082 77.07741 16.07503 77.07741 16.46754 77.46994 16.46754 77.95415ZM15.59082 77.95415"/>
<path transform="matrix(1,0,0,-1,3.865,97.409008)" d="M16.46754 93.54497C16.46754 94.02917 16.07503 94.4217 15.59082 94.4217 15.10663 94.4217 14.7141 94.02917 14.7141 93.54497 14.7141 93.06078 15.10663 92.66824 15.59082 92.66824 16.07503 92.66824 16.46754 93.06078 16.46754 93.54497ZM15.59082 93.54497"/>
<path transform="matrix(1,0,0,-1,3.865,97.409008)" d="M32.05838 0C32.05838 .48419 31.66585 .87672 31.18166 .87672 30.69745 .87672 30.30492 .48419 30.30492 0 30.30492-.48419 30.69745-.87672 31.18166-.87672 31.66585-.87672 32.05838-.48419 32.05838 0ZM31.18166 0"/>
<path transform="matrix(1,0,0,-1,3.865,97.409008)" d="M32.05838 15.59082C32.05838 16.07503 31.66585 16.46754 31.18166 16.46754 30.69745 16.46754 30.30492 16.07503 30.30492 15.59082 30.30492 15.10663 30.69745 14.7141 31.18166 14.7141 31.66585 14.7141 32.05838 15.10663 32.05838 15.59082ZM31.18166 15.59082"/>
<path transform="matrix(1,0,0,-1,3.865,97.409008)" d="M32.05838 31.18166C32.05838 31.66585 31.66585 32.05838 31.18166 32.05838 30.69745 32.05838 30.30492 31.66585 30.30492 31.18166 30.30492 30.69745 30.69745 30.30492 31.18166 30.30492 31.66585 30.30492 32.05838 30.69745 32.05838 31.18166ZM31.18166 31.18166"/>
<path transform="matrix(1,0,0,-1,3.865,97.409008)" d="M32.05838 46.77248C32.05838 47.25668 31.66585 47.64922 31.18166 47.64922 30.69745 47.64922 30.30492 47.25668 30.30492 46.77248 30.30492 46.28828 30.69745 45.89575 31.18166 45.89575 31.66585 45.89575 32.05838 46.28828 32.05838 46.77248ZM31.18166 46.77248"/>
<path transform="matrix(1,0,0,-1,3.865,97.409008)" d="M32.05838 62.36331C32.05838 62.8475 31.66585 63.24004 31.18166 63.24004 30.69745 63.24004 30.30492 62.8475 30.30492 62.36331 30.30492 61.87912 30.69745 61.48659 31.18166 61.48659 31.66585 61.48659 32.05838 61.87912 32.05838 62.36331ZM31.18166 62.36331"/>
<path transform="matrix(1,0,0,-1,3.865,97.409008)" d="M32.05838 77.95415C32.05838 78.43834 31.66585 78.83087 31.18166 78.83087 30.69745 78.83087 30.30492 78.43834 30.30492 77.95415 30.30492 77.46994 30.69745 77.07741 31.18166 77.07741 31.66585 77.07741 32.05838 77.46994 32.05838 77.95415ZM31.18166 77.95415"/>
<path transform="matrix(1,0,0,-1,3.865,97.409008)" d="M32.05838 93.54497C32.05838 94.02917 31.66585 94.4217 31.18166 94.4217 30.69745 94.4217 30.30492 94.02917 30.30492 93.54497 30.30492 93.06078 30.69745 92.66824 31.18166 92.66824 31.66585 92.66824 32.05838 93.06078 32.05838 93.54497ZM31.18166 93.54497"/>
<path transform="matrix(1,0,0,-1,3.865,97.409008)" d="M47.64922 0C47.64922 .48419 47.25668 .87672 46.77248 .87672 46.28828 .87672 45.89575 .48419 45.89575 0 45.89575-.48419 46.28828-.87672 46.77248-.87672 47.25668-.87672 47.64922-.48419 47.64922 0ZM46.77248 0"/>
<path transform="matrix(1,0,0,-1,3.865,97.409008)" d="M47.64922 15.59082C47.64922 16.07503 47.25668 16.46754 46.77248 16.46754 46.28828 16.46754 45.89575 16.07503 45.89575 15.59082 45.89575 15.10663 46.28828 14.7141 46.77248 14.7141 47.25668 14.7141 47.64922 15.10663 47.64922 15.59082ZM46.77248 15.59082"/>
<path transform="matrix(1,0,0,-1,3.865,97.409008)" d="M47.64922 31.18166C47.64922 31.66585 47.25668 32.05838 46.77248 32.05838 46.28828 32.05838 45.89575 31.66585 45.89575 31.18166 45.89575 30.69745 46.28828 30.30492 46.77248 30.30492 47.25668 30.30492 47.64922 30.69745 47.64922 31.18166ZM46.77248 31.18166"/>
<path transform="matrix(1,0,0,-1,3.865,97.409008)" d="M47.64922 46.77248C47.64922 47.25668 47.25668 47.64922 46.77248 47.64922 46.28828 47.64922 45.89575 47.25668 45.89575 46.77248 45.89575 46.28828 46.28828 45.89575 46.77248 45.89575 47.25668 45.89575 47.64922 46.28828 47.64922 46.77248ZM46.77248 46.77248"/>
<path transform="matrix(1,0,0,-1,3.865,97.409008)" d="M47.64922 62.36331C47.64922 62.8475 47.25668 63.24004 46.77248 63.24004 46.28828 63.24004 45.89575 62.8475 45.89575 62.36331 45.89575 61.87912 46.28828 61.48659 46.77248 61.48659 47.25668 61.48659 47.64922 61.87912 47.64922 62.36331ZM46.77248 62.36331"/>
<path transform="matrix(1,0,0,-1,3.865,97.409008)" d="M47.64922 77.95415C47.64922 78.43834 47.25668 78.83087 46.77248 78.83087 46.28828 78.83087 45.89575 78.43834 45.89575 77.95415 45.89575 77.46994 46.28828 77.07741 46.77248 77.07741 47.25668 77.07741 47.64922 77.46994 47.64922 77.95415ZM46.77248 77.95415"/>
<path transform="matrix(1,0,0,-1,3.865,97.409008)" d="M47.64922 93.54497C47.64922 94.02917 47.25668 94.4217 46.77248 94.4217 46.28828 94.4217 45.89575 94.02917 45.89575 93.54497 45.89575 93.06078 46.28828 92.66824 46.77248 92.66824 47.25668 92.66824 47.64922 93.06078 47.64922 93.54497ZM46.77248 93.54497"/>
<path transform="matrix(1,0,0,-1,3.865,97.409008)" d="M63.24004 0C63.24004 .48419 62.8475 .87672 62.36331 .87672 61.87912 .87672 61.48659 .48419 61.48659 0 61.48659-.48419 61.87912-.87672 62.36331-.87672 62.8475-.87672 63.24004-.48419 63.24004 0ZM62.36331 0"/>
<path transform="matrix(1,0,0,-1,3.865,97.409008)" d="M63.24004 15.59082C63.24004 16.07503 62.8475 16.46754 62.36331 16.46754 61.87912 16.46754 61.48659 16.07503 61.48659 15.59082 61.48659 15.10663 61.87912 14.7141 62.36331 14.7141 62.8475 14.7141 63.24004 15.10663 63.24004 15.59082ZM62.36331 15.59082"/>
<path transform="matrix(1,0,0,-1,3.865,97.409008)" d="M63.24004 31.18166C63.24004 31.66585 62.8475 32.05838 62.36331 32.05838 61.87912 32.05838 61.48659 31.66585 61.48659 31.18166 61.48659 30.69745 61.87912 30.30492 62.36331 30.30492 62.8475 30.30492 63.24004 30.69745 63.24004 31.18166ZM62.36331 31.18166"/>
<path transform="matrix(1,0,0,-1,3.865,97.409008)" d="M63.24004 46.77248C63.24004 47.25668 62.8475 47.64922 62.36331 47.64922 61.87912 47.64922 61.48659 47.25668 61.48659 46.77248 61.48659 46.28828 61.87912 45.89575 62.36331 45.89575 62.8475 45.89575 63.24004 46.28828 63.24004 46.77248ZM62.36331 46.77248"/>
<path transform="matrix(1,0,0,-1,3.865,97.409008)" d="M63.24004 62.36331C63.24004 62.8475 62.8475 63.24004 62.36331 63.24004 61.87912 63.24004 61.48659 62.8475 61.48659 62.36331 61.48659 61.87912 61.87912 61.48659 62.36331 61.48659 62.8475 61.48659 63.24004 61.87912 63.24004 62.36331ZM62.36331 62.36331"/>
<path transform="matrix(1,0,0,-1,3.865,97.409008)" d="M63.24004 77.95415C63.24004 78.43834 62.8475 78.83087 62.36331 78.83087 61.87912 78.83087 61.48659 78.43834 61.48659 77.95415 61.48659 77.46994 61.87912 77.07741 62.36331 77.07741 62.8475 77.07741 63.24004 77.46994 63.24004 77.95415ZM62.36331 77.95415"/>
<path transform="matrix(1,0,0,-1,3.865,97.409008)" d="M63.24004 93.54497C63.24004 94.02917 62.8475 94.4217 62.36331 94.4217 61.87912 94.4217 61.48659 94.02917 61.48659 93.54497 61.48659 93.06078 61.87912 92.66824 62.36331 92.66824 62.8475 92.66824 63.24004 93.06078 63.24004 93.54497ZM62.36331 93.54497"/>
<path transform="matrix(1,0,0,-1,3.865,97.409008)" d="M78.83087 0C78.83087 .48419 78.43834 .87672 77.95415 .87672 77.46994 .87672 77.07741 .48419 77.07741 0 77.07741-.48419 77.46994-.87672 77.95415-.87672 78.43834-.87672 78.83087-.48419 78.83087 0ZM77.95415 0"/>
<path transform="matrix(1,0,0,-1,3.865,97.409008)" d="M78.83087 15.59082C78.83087 16.07503 78.43834 16.46754 77.95415 16.46754 77.46994 16.46754 77.07741 16.07503 77.07741 15.59082 77.07741 15.10663 77.46994 14.7141 77.95415 14.7141 78.43834 14.7141 78.83087 15.10663 78.83087 15.59082ZM77.95415 15.59082"/>
<path transform="matrix(1,0,0,-1,3.865,97.409008)" d="M78.83087 31.18166C78.83087 31.66585 78.43834 32.05838 77.95415 32.05838 77.46994 32.05838 77.07741 31.66585 77.07741 31.18166 77.07741 30.69745 77.46994 30.30492 77.95415 30.30492 78.43834 30.30492 78.83087 30.69745 78.83087 31.18166ZM77.95415 31.18166"/>
<path transform="matrix(1,0,0,-1,3.865,97.409008)" d="M78.83087 46.77248C78.83087 47.25668 78.43834 47.64922 77.95415 47.64922 77.46994 47.64922 77.07741 47.25668 77.07741 46.77248 77.07741 46.28828 77.46994 45.89575 77.95415 45.89575 78.43834 45.89575 78.83087 46.28828 78.83087 46.77248ZM77.95415 46.77248"/>
<path transform="matrix(1,0,0,-1,3.865,97.409008)" d="M78.83087 62.36331C78.83087 62.8475 78.43834 63.24004 77.95415 63.24004 77.46994 63.24004 77.07741 62.8475 77.07741 62.36331 77.07741 61.87912 77.46994 61.48659 77.95415 61.48659 78.43834 61.48659 78.83087 61.87912 78.83087 62.36331ZM77.95415 62.36331"/>
<path transform="matrix(1,0,0,-1,3.865,97.409008)" d="M78.83087 77.95415C78.83087 78.43834 78.43834 78.83087 77.95415 78.83087 77.46994 78.83087 77.07741 78.43834 77.07741 77.95415 77.07741 77.46994 77.46994 77.07741 77.95415 77.07741 78.43834 77.07741 78.83087 77.46994 78.83087 77.95415ZM77.95415 77.95415"/>
<path transform="matrix(1,0,0,-1,3.865,97.409008)" d="M78.83087 93.54497C78.83087 94.02917 78.43834 94.4217 77.95415 94.4217 77.46994 94.4217 77.07741 94.02917 77.07741 93.54497 77.07741 93.06078 77.46994 92.66824 77.95415 92.66824 78.43834 92.66824 78.83087 93.06078 78.83087 93.54497ZM77.95415 93.54497"/>
<path transform="matrix(1,0,0,-1,3.865,97.409008)" d="M94.4217 0C94.4217 .48419 94.02917 .87672 93.54497 .87672 93.06078 .87672 92.66824 .48419 92.66824 0 92.66824-.48419 93.06078-.87672 93.54497-.87672 94.02917-.87672 94.4217-.48419 94.4217 0ZM93.54497 0"/>
<path transform="matrix(1,0,0,-1,3.865,97.409008)" d="M94.4217 15.59082C94.4217 16.07503 94.02917 16.46754 93.54497 16.46754 93.06078 16.46754 92.66824 16.07503 92.66824 15.59082 92.66824 15.10663 93.06078 14.7141 93.54497 14.7141 94.02917 14.7141 94.4217 15.10663 94.4217 15.59082ZM93.54497 15.59082"/>
<path transform="matrix(1,0,0,-1,3.865,97.409008)" d="M94.4217 31.18166C94.4217 31.66585 94.02917 32.05838 93.54497 32.05838 93.06078 32.05838 92.66824 31.66585 92.66824 31.18166 92.66824 30.69745 93.06078 30.30492 93.54497 30.30492 94.02917 30.30492 94.4217 30.69745 94.4217 31.18166ZM93.54497 31.18166"/>
<path transform="matrix(1,0,0,-1,3.865,97.409008)" d="M94.4217 46.77248C94.4217 47.25668 94.02917 47.64922 93.54497 47.64922 93.06078 47.64922 92.66824 47.25668 92.66824 46.77248 92.66824 46.28828 93.06078 45.89575 93.54497 45.89575 94.02917 45.89575 94.4217 46.28828 94.4217 46.77248ZM93.54497 46.77248"/>
<path transform="matrix(1,0,0,-1,3.865,97.409008)" d="M94.4217 62.36331C94.4217 62.8475 94.02917 63.24004 93.54497 63.24004 93.06078 63.24004 92.66824 62.8475 92.66824 62.36331 92.66824 61.87912 93.06078 61.48659 93.54497 61.48659 94.02917 61.48659 94.4217 61.87912 94.4217 62.36331ZM93.54497 62.36331"/>
<path transform="matrix(1,0,0,-1,3.865,97.409008)" d="M94.4217 77.95415C94.4217 78.43834 94.02917 78.83087 93.54497 78.83087 93.06078 78.83087 92.66824 78.43834 92.66824 77.95415 92.66824 77.46994 93.06078 77.07741 93.54497 77.07741 94.02917 77.07741 94.4217 77.46994 94.4217 77.95415ZM93.54497 77.95415"/>
<path transform="matrix(1,0,0,-1,3.865,97.409008)" d="M94.4217 93.54497C94.4217 94.02917 94.02917 94.4217 93.54497 94.4217 93.06078 94.4217 92.66824 94.02917 92.66824 93.54497 92.66824 93.06078 93.06078 92.66824 93.54497 92.66824 94.02917 92.66824 94.4217 93.06078 94.4217 93.54497ZM93.54497 93.54497"/>
<path transform="matrix(1,0,0,-1,3.865,97.409008)" d="M110.01253 0C110.01253 .48419 109.62 .87672 109.1358 .87672 108.6516 .87672 108.25908 .48419 108.25908 0 108.25908-.48419 108.6516-.87672 109.1358-.87672 109.62-.87672 110.01253-.48419 110.01253 0ZM109.1358 0"/>
<path transform="matrix(1,0,0,-1,3.865,97.409008)" d="M110.01253 15.59082C110.01253 16.07503 109.62 16.46754 109.1358 16.46754 108.6516 16.46754 108.25908 16.07503 108.25908 15.59082 108.25908 15.10663 108.6516 14.7141 109.1358 14.7141 109.62 14.7141 110.01253 15.10663 110.01253 15.59082ZM109.1358 15.59082"/>
<path transform="matrix(1,0,0,-1,3.865,97.409008)" d="M110.01253 31.18166C110.01253 31.66585 109.62 32.05838 109.1358 32.05838 108.6516 32.05838 108.25908 31.66585 108.25908 31.18166 108.25908 30.69745 108.6516 30.30492 109.1358 30.30492 109.62 30.30492 110.01253 30.69745 110.01253 31.18166ZM109.1358 31.18166"/>
<path transform="matrix(1,0,0,-1,3.865,97.409008)" d="M110.01253 46.77248C110.01253 47.25668 109.62 47.64922 109.1358 47.64922 108.6516 47.64922 108.25908 47.25668 108.25908 46.77248 108.25908 46.28828 108.6516 45.89575 109.1358 45.89575 109.62 45.89575 110.01253 46.28828 110.01253 46.77248ZM109.1358 46.77248"/>
<path transform="matrix(1,0,0,-1,3.865,97.409008)" d="M110.01253 62.36331C110.01253 62.8475 109.62 63.24004 109.1358 63.24004 108.6516 63.24004 108.25908 62.8475 108.25908 62.36331 108.25908 61.87912 108.6516 61.48659 109.1358 61.48659 109.62 61.48659 110.01253 61.87912 110.01253 62.36331ZM109.1358 62.36331"/>
<path transform="matrix(1,0,0,-1,3.865,97.409008)" d="M110.01253 77.95415C110.01253 78.43834 109.62 78.83087 109.1358 78.83087 108.6516 78.83087 108.25908 78.43834 108.25908 77.95415 108.25908 77.46994 108.6516 77.07741 109.1358 77.07741 109.62 77.07741 110.01253 77.46994 110.01253 77.95415ZM109.1358 77.95415"/>
<path transform="matrix(1,0,0,-1,3.865,97.409008)" d="M110.01253 93.54497C110.01253 94.02917 109.62 94.4217 109.1358 94.4217 108.6516 94.4217 108.25908 94.02917 108.25908 93.54497 108.25908 93.06078 108.6516 92.66824 109.1358 92.66824 109.62 92.66824 110.01253 93.06078 110.01253 93.54497ZM109.1358 93.54497"/>
<path transform="matrix(1,0,0,-1,3.865,97.409008)" d="M125.60338 0C125.60338 .48419 125.21085 .87672 124.72664 .87672 124.24245 .87672 123.84991 .48419 123.84991 0 123.84991-.48419 124.24245-.87672 124.72664-.87672 125.21085-.87672 125.60338-.48419 125.60338 0ZM124.72664 0"/>
<path transform="matrix(1,0,0,-1,3.865,97.409008)" d="M125.60338 15.59082C125.60338 16.07503 125.21085 16.46754 124.72664 16.46754 124.24245 16.46754 123.84991 16.07503 123.84991 15.59082 123.84991 15.10663 124.24245 14.7141 124.72664 14.7141 125.21085 14.7141 125.60338 15.10663 125.60338 15.59082ZM124.72664 15.59082"/>
<path transform="matrix(1,0,0,-1,3.865,97.409008)" d="M125.60338 31.18166C125.60338 31.66585 125.21085 32.05838 124.72664 32.05838 124.24245 32.05838 123.84991 31.66585 123.84991 31.18166 123.84991 30.69745 124.24245 30.30492 124.72664 30.30492 125.21085 30.30492 125.60338 30.69745 125.60338 31.18166ZM124.72664 31.18166"/>
<path transform="matrix(1,0,0,-1,3.865,97.409008)" d="M125.60338 46.77248C125.60338 47.25668 125.21085 47.64922 124.72664 47.64922 124.24245 47.64922 123.84991 47.25668 123.84991 46.77248 123.84991 46.28828 124.24245 45.89575 124.72664 45.89575 125.21085 45.89575 125.60338 46.28828 125.60338 46.77248ZM124.72664 46.77248"/>
<path transform="matrix(1,0,0,-1,3.865,97.409008)" d="M125.60338 62.36331C125.60338 62.8475 125.21085 63.24004 124.72664 63.24004 124.24245 63.24004 123.84991 62.8475 123.84991 62.36331 123.84991 61.87912 124.24245 61.48659 124.72664 61.48659 125.21085 61.48659 125.60338 61.87912 125.60338 62.36331ZM124.72664 62.36331"/>
<path transform="matrix(1,0,0,-1,3.865,97.409008)" d="M125.60338 77.95415C125.60338 78.43834 125.21085 78.83087 124.72664 78.83087 124.24245 78.83087 123.84991 78.43834 123.84991 77.95415 123.84991 77.46994 124.24245 77.07741 124.72664 77.07741 125.21085 77.07741 125.60338 77.46994 125.60338 77.95415ZM124.72664 77.95415"/>
<path transform="matrix(1,0,0,-1,3.865,97.409008)" d="M125.60338 93.54497C125.60338 94.02917 125.21085 94.4217 124.72664 94.4217 124.24245 94.4217 123.84991 94.02917 123.84991 93.54497 123.84991 93.06078 124.24245 92.66824 124.72664 92.66824 125.21085 92.66824 125.60338 93.06078 125.60338 93.54497ZM124.72664 93.54497"/>
<path transform="matrix(1,0,0,-1,3.865,97.409008)" stroke-width="1.19553" stroke-linecap="butt" stroke-miterlimit="10" stroke-linejoin="miter" fill="none" stroke="#000000" d="M46.77248 31.18166V62.36331H77.95415V31.18166ZM77.95415 62.36331"/>
</svg>
