<svg xmlns="http://www.w3.org/2000/svg" xmlns:xlink="http://www.w3.org/1999/xlink" xmlns:inkscape="http://www.inkscape.org/namespaces/inkscape" version="1.1" width="150.519" height="85.129" viewBox="0 0 150.519 85.129">
<defs>
<clipPath id="clip_1">
<path transform="matrix(1,0,0,-1,4.155,78.34)" d="M0 0H143.17853V75.15341H0Z"/>
</clipPath>
<path id="font_2_1" d="M.2939911 .64004519C.2939911 .66400149 .2939911 .6660156 .2709961 .6660156 .20899964 .60227969 .12098694 .60227969 .08898926 .60227969V.57128909C.10899353 .57128909 .16799927 .57128909 .21998596 .5972748V.07902527C.21998596 .042999269 .21699524 .0309906 .1269989 .0309906H.09498596V0C.12998963 .0029907227 .21699524 .0029907227 .25698854 .0029907227 .29699708 .0029907227 .38398744 .0029907227 .4189911 0V.0309906H.3869934C.29699708 .0309906 .2939911 .041992189 .2939911 .07902527V.64004519Z"/>
<path id="font_2_2" d="M.1269989 .07699585 .23298645 .18003845C.3889923 .31811524 .44898988 .3721466 .44898988 .47216798 .44898988 .5860901 .35899354 .6660156 .23699951 .6660156 .12399292 .6660156 .049987794 .57411196 .049987794 .48516847 .049987794 .4291687 .099990848 .4291687 .102996829 .4291687 .11999512 .4291687 .15499878 .44117738 .15499878 .48217774 .15499878 .5081787 .13699341 .5341797 .101989749 .5341797 .09399414 .5341797 .09199524 .5341797 .08898926 .5331726 .11199951 .59806826 .1659851 .63500979 .22399903 .63500979 .31498719 .63500979 .35798646 .5541382 .35798646 .47216798 .35798646 .39215089 .30799867 .31311036 .25299073 .25108338L.06098938 .036987306C.049987794 .025985718 .049987794 .023986817 .049987794 0H.42099L.44898988 .17404175H.42399598C.4189911 .14402771 .4119873 .1000061 .4019928 .084991458 .394989 .07699585 .32899476 .07699585 .30699159 .07699585H.1269989Z"/>
<path id="font_2_3" d="M.2899933 .35191346C.37199403 .37893678 .42999269 .4490509 .42999269 .52809146 .42999269 .6100464 .34199525 .6660156 .24598694 .6660156 .14498902 .6660156 .068984989 .60606387 .068984989 .53009036 .068984989 .49710084 .09098816 .47808839 .11999512 .47808839 .15098572 .47808839 .17098999 .50009158 .17098999 .5290985 .17098999 .57910159 .12399292 .57910159 .10899353 .57910159 .13999939 .62802127 .20599365 .64100649 .24198914 .64100649 .2829895 .64100649 .33799745 .6190338 .33799745 .5290985 .33799745 .51708987 .33599855 .45906068 .30999757 .4149933 .27999879 .36691285 .24598694 .36390687 .22099304 .36291505 .21299744 .36190797 .18899536 .35990907 .18199158 .35990907 .17399597 .35890199 .16699219 .35791017 .16699219 .3479004 .16699219 .33691407 .17399597 .33691407 .19099427 .33691407H.23498535C.31698609 .33691407 .35398866 .2686615 .35398866 .17037964 .35398866 .034469606 .2849884 .0055389406 .24099732 .0055389406 .19799805 .0055389406 .12298584 .022491456 .08799744 .08137512 .12298584 .07637024 .1539917 .09837341 .1539917 .1363678 .1539917 .17237854 .1269989 .19238281 .09799194 .19238281 .07398987 .19238281 .041992189 .17837525 .041992189 .1343689 .041992189 .043441774 .1349945-.022460938 .24398804-.022460938 .3659973-.022460938 .45700074 .06838989 .45700074 .17037964 .45700074 .252594 .3939972 .33088685 .2899933 .35191346Z"/>
<path id="font_2_4" d="M.2939911 .16503906V.07800293C.2939911 .041992189 .2919922 .0309906 .21798706 .0309906H.19699097V0C.23799134 .0029907227 .2899933 .0029907227 .33198548 .0029907227 .37399293 .0029907227 .4269867 .0029907227 .46798707 0V.0309906H.44699098C.37298585 .0309906 .37098695 .041992189 .37098695 .07800293V.16503906H.47099305V.19602967H.37098695V.65075686C.37098695 .67074587 .37098695 .6767578 .35499574 .6767578 .34599305 .6767578 .34298707 .6767578 .33499146 .66474917L.027999878 .19602967V.16503906H.2939911M.2999878 .19602967H.055999757L.2999878 .5688019V.19602967Z"/>
<path id="font_2_5" d="M.44898988 .20022583C.44898988 .3193512 .36698915 .41944886 .25898744 .41944886 .21099854 .41944886 .16799927 .40345765 .13198853 .36842347V.5637665C.1519928 .5577698 .18499756 .55078127 .21699524 .55078127 .33999635 .55078127 .4099884 .6417694 .4099884 .6547699 .4099884 .6607666 .40699769 .6657715 .3999939 .6657715 .39898683 .6657715 .39698792 .6657715 .3919983 .66278079 .37199403 .6537781 .32299806 .6337738 .2559967 .6337738 .21598816 .6337738 .16999817 .6407776 .12298584 .6617737 .114990238 .66477969 .11299133 .66477969 .11099243 .66477969 .100997928 .66477969 .100997928 .6567688 .100997928 .6407776V.34439088C.100997928 .32637025 .100997928 .31835938 .114990238 .31835938 .12199402 .31835938 .12399292 .32136537 .12799073 .32736207 .13899231 .3433838 .17599488 .39746095 .25698854 .39746095 .30899049 .39746095 .33399964 .35139466 .34199525 .33337403 .35798646 .29632569 .3600006 .25727845 .3600006 .20722962 .3600006 .17222595 .3600006 .11222839 .33599855 .07035828 .31199647 .031463624 .2749939 .0055389406 .22898865 .0055389406 .1559906 .0055389406 .09899902 .058380128 .08198547 .11723328 .084991458 .1162262 .08799744 .115234378 .09899902 .115234378 .13198853 .115234378 .14898682 .14022827 .14898682 .16423035 .14898682 .18823242 .13198853 .21322632 .09899902 .21322632 .084991458 .21322632 .049987794 .20622254 .049987794 .16023255 .049987794 .07434082 .11898804-.022460938 .23098755-.022460938 .34700013-.022460938 .44898988 .073349 .44898988 .20022583Z"/>
<path id="font_2_6" d="M.13198853 .327713V.35173036C.13198853 .6047821 .2559967 .64100649 .30699159 .64100649 .33099366 .64100649 .37298585 .634964 .394989 .6007538 .37998963 .6007538 .33999635 .6007538 .33999635 .5557556 .33999635 .524765 .3639984 .5097656 .38598634 .5097656 .4019928 .5097656 .43199159 .51875308 .43199159 .5577545 .43199159 .6178589 .3880005 .6660156 .30499269 .6660156 .1769867 .6660156 .041992189 .5367584 .041992189 .31570436 .041992189 .048553468 .1579895-.022460938 .25099183-.022460938 .3619995-.022460938 .45700074 .07156372 .45700074 .2036438 .45700074 .33070375 .36799623 .4267578 .25698854 .4267578 .18899536 .4267578 .1519928 .37573243 .13198853 .327713M.25099183 .0055389406C.18798828 .0055389406 .1579895 .06556702 .1519928 .080566409 .13398743 .127594 .13398743 .2076416 .13398743 .22564698 .13398743 .30369569 .1659851 .40374757 .2559967 .40374757 .27198792 .40374757 .31799317 .40374757 .34899903 .34172059 .36698915 .30470277 .36698915 .2536621 .36698915 .20463562 .36698915 .15661621 .36698915 .10658264 .34999085 .0705719 .31999208 .010528564 .27398683 .0055389406 .25099183 .0055389406Z"/>
<path id="font_2_7" d="M.16299439 .4569702C.116989139 .486969 .11299133 .52098086 .11299133 .5379791 .11299133 .598999 .17799378 .64100649 .24899292 .64100649 .32199098 .64100649 .38598634 .58898928 .38598634 .51698306 .38598634 .45996095 .34700013 .4119568 .2869873 .37695313L.16299439 .4569702M.30899049 .36193849C.3809967 .3989563 .42999269 .45095826 .42999269 .51698306 .42999269 .6090088 .34098817 .6660156 .25 .6660156 .1499939 .6660156 .068984989 .59199526 .068984989 .49897767 .068984989 .4809723 .070999149 .43595887 .11299133 .38894654 .12399292 .37695313 .16099549 .35194398 .18598938 .33494569 .12799073 .30592347 .041992189 .24984741 .041992189 .15072632 .041992189 .04458618 .14399719-.022460938 .24899292-.022460938 .3619995-.022460938 .45700074 .06060791 .45700074 .16773987 .45700074 .20379639 .44599916 .24885559 .4079895 .2909088 .3889923 .31193543 .37298585 .3219452 .30899049 .36193849M.20899964 .3199463 .33198548 .24183655C.3600006 .2228241 .40699769 .19277954 .40699769 .13169861 .40699769 .05760193 .33198548 .0055389406 .25 .0055389406 .1639862 .0055389406 .09199524 .067611698 .09199524 .15072632 .09199524 .20880127 .12399292 .27288819 .20899964 .3199463Z"/>
<clipPath id="clip_3">
<path transform="matrix(1,0,0,-1,4.155,78.34)" d="M0 0H143.17853V75.15341H0Z"/>
</clipPath>
<path id="font_4_2" d="M.20599365 .11984253C.17098999 .06594849 .13899231 .039978029 .07998657 .035995485 .069992069 .034988405 .056991579 .034988405 .056991579 .01499939 .056991579 .0039978029 .06599426 0 .070999149 0 .09700012 0 .12998963 .0039978029 .15699768 .0039978029 .18899536 .0039978029 .22999573 0 .2599945 0 .2649994 0 .27999879 0 .27999879 .021987915 .27999879 .034988405 .2669983 .035995485 .2630005 .035995485 .25498963 .036987306 .21899414 .038986207 .21899414 .06594849 .21899414 .077926639 .22898865 .09489441 .23399353 .103881839L.31399537 .22766114H.59999087L.6239929 .061950685C.6199951 .051971437 .6139984 .035995485 .5549927 .035995485 .54299929 .035995485 .5289917 .035995485 .5289917 .01399231 .5289917 .009994507 .5319977 0 .54499819 0 .57398989 0 .644989 .0039978029 .673996 .0039978029 .69200137 .0039978029 .71499636 .0029907227 .73298647 .0029907227 .7509918 .0019989014 .7719879 0 .7899933 0 .8029938 0 .80999758 .0079956059 .80999758 .020996094 .80999758 .035995485 .7979889 .035995485 .7819977 .035995485 .723999 .035995485 .7220001 .04397583 .71899417 .06793213L.6309967 .6848755C.6279907 .70588687 .6259918 .7128906 .6069946 .7128906 .58799746 .7128906 .58200076 .70388796 .57299807 .6898804L.20599365 .11984253M.33799745 .26367188 .5479889 .5908356 .59498599 .26367188H.33799745Z"/>
<path id="font_4_3" d="M.18998719 .07797241C.18099976 .04399109 .1789856 .035995485 .101989749 .035995485 .084991458 .035995485 .07199097 .035995485 .07199097 .01499939 .07199097 0 .083999637 0 .101989749 0H.4889984C.6569977 0 .7859955 .11494446 .7859955 .21388245 .7859955 .28485108 .72099307 .34580995 .61499026 .35681153 .73599246 .37879945 .83699038 .4547577 .83699038 .54067996 .83699038 .6166382 .7599945 .6826172 .6299896 .6826172H.2659912C.24699402 .6826172 .23399353 .6826172 .23399353 .660614 .23399353 .64660647 .24598694 .64660647 .2659912 .64660647 .2669983 .64660647 .28599549 .64660647 .3039856 .64460757 .32499696 .64260867 .32699586 .64060977 .32699586 .63061526 .32699586 .62861636 .32699586 .6236267 .32299806 .6086426L.18998719 .07797241M.34999085 .3688202 .41099549 .6126404C.4189911 .6436157 .41999818 .64660647 .46199037 .64660647H.6139984C.71598818 .64660647 .7389984 .57966616 .7389984 .541687 .7389984 .46073915 .647995 .3688202 .5139923 .3688202H.34999085M.3019867 .035995485C.2709961 .035995485 .269989 .036987306 .269989 .04598999 .269989 .04698181 .269989 .051986696 .27398683 .066970828L.34298707 .3408203H.5549927C.6489868 .3408203 .68499758 .27885438 .68499758 .22088623 .68499758 .12194824 .58399966 .035995485 .46299745 .035995485H.3019867Z"/>
<path id="font_4_4" d="M.84298709 .6901245C.84298709 .69511416 .83999636 .703125 .8299866 .703125 .82299807 .703125 .82099917 .70111086 .81199648 .69111636L.7389984 .61413577C.7299957 .62612918 .673996 .703125 .5509949 .703125 .30799867 .703125 .069992069 .48820497 .069992069 .2623291 .069992069 .09941101 .19799805-.01953125 .3769989-.01953125 .43099977-.01953125 .5269928-.008544922 .6299896 .078430179 .70899966 .14538574 .73098757 .23234558 .73098757 .24034119 .73098757 .25334168 .71899417 .25334168 .71398928 .25334168 .70098879 .25334168 .69898989 .24833679 .69599917 .23735047 .6549988 .10041809 .5149994 .016464234 .3939972 .016464234 .28799439 .016464234 .16999817 .07342529 .16999817 .23135376 .16999817 .2603302 .1769867 .4182434 .2919922 .5441742 .36099244 .6211395 .46598817 .66711428 .5609894 .66711428 .6769867 .66711428 .7449951 .5831604 .7449951 .47122193 .7449951 .4432373 .74198916 .43623353 .74198916 .43023683 .74198916 .4172516 .7549896 .4172516 .7599945 .4172516 .776001 .4172516 .776001 .4202423 .7809906 .4392395L.84298709 .6901245Z"/>
<path id="font_4_6" d="M.71499636 .5637207C.7519989 .61764529 .7839966 .64260867 .83799746 .64660647 .84999087 .6476135 .86099246 .64860537 .86099246 .6686096 .86099246 .6716156 .85899356 .6826172 .8470001 .6826172 .82299807 .6826172 .7919922 .6786041 .7669983 .6786041 .7350006 .6786041 .69299319 .6826172 .6629944 .6826172 .6539917 .6826172 .6429901 .6796112 .6429901 .660614 .6429901 .6476135 .6569977 .64660647 .6609955 .64660647 .69299319 .64460757 .70199587 .6326294 .70199587 .61764529 .70199587 .6036682 .69499209 .5936737 .6839905 .57769778L.35598756 .09434509 .2649994 .60466006C.2630005 .61364749 .2630005 .61564639 .2630005 .61964419 .2630005 .64660647 .31900025 .64660647 .32598878 .64660647 .34298707 .64660647 .35598756 .64660647 .35598756 .6686096 .35598756 .6696167 .35499574 .6826172 .33898927 .6826172 .30999757 .6826172 .23899842 .6786041 .20999146 .6786041 .18499756 .6786041 .12399292 .6826172 .09899902 .6826172 .08999634 .6826172 .07899475 .6796112 .07899475 .660614 .07899475 .64660647 .09298706 .64660647 .10398865 .64660647 .1599884 .64660647 .16099549 .64060977 .1659851 .61465457L.2749939 .007446289C.2789917-.013534546 .27999879-.01953125 .29899598-.01953125 .31799317-.01953125 .32299806-.012542725 .33299256 .002456665L.71499636 .5637207Z"/>
<path id="font_5_1" d="M.35499574 .75C.16499329 .61598208 .114990238 .40397645 .114990238 .25097657 .114990238 .10997009 .15699768-.10902405 .35499574-.24902344 .36299134-.24902344 .375-.24902344 .375-.23703003 .375-.23103333 .37199403-.22903443 .36499024-.22203064 .23199463-.10203552 .18299866 .067977908 .18299866 .24996948 .18299866 .519989 .28599549 .65197756 .36799623 .72598269 .37199403 .7299957 .375 .73298647 .375 .73799136 .375 .75 .36299134 .75 .35499574 .75Z"/>
<path id="font_5_5" d="M.272995 .33428956C.35099793 .33428956 .40699769 .2803192 .40699769 .1733551 .40699769 .04940796 .33499146 .012466431 .2769928 .012466431 .23699951 .012466431 .14898682 .0234375 .10699463 .082351688 .1539917 .084350589 .16499329 .11735535 .16499329 .13835144 .16499329 .17034912 .14099121 .19335938 .10998535 .19335938 .08198547 .19335938 .053985597 .17634583 .053985597 .13534546 .053985597 .041412355 .1579895-.01953125 .2789917-.01953125 .41799928-.01953125 .5139923 .07336426 .5139923 .1733551 .5139923 .2513275 .44999696 .32929994 .33999635 .35229493 .44499208 .39024354 .48298646 .4650879 .48298646 .5260773 .48298646 .60505679 .3919983 .6640625 .2809906 .6640625 .16999817 .6640625 .084991458 .61006167 .084991458 .5300751 .084991458 .49606324 .10699463 .47706605 .13699341 .47706605 .16799927 .47706605 .18798828 .5000763 .18798828 .5280762 .18798828 .5570679 .16799927 .57806399 .13699341 .5800781 .17199707 .62405398 .24099732 .63505557 .27799989 .63505557 .32299806 .63505557 .38598634 .6130676 .38598634 .5260773 .38598634 .48406983 .37199403 .43814088 .34599305 .4072113 .31298829 .36927796 .2849884 .3672943 .23498535 .36428834 .20999146 .3623047 .20799256 .3623047 .20298767 .3612976 .20098877 .3612976 .19299317 .3592987 .19299317 .34829713 .19299317 .33428956 .20199585 .33428956 .21899414 .33428956H.272995Z"/>
<path id="font_4_1" d="M.21099854 .015991211C.21099854-.03907776 .20098877-.10321045 .1329956-.16732788 .1289978-.17134094 .12599182-.17434693 .12599182-.17933655 .12599182-.18634033 .13398743-.19334412 .13999939-.19334412 .1539917-.19334412 .23899842-.113220218 .23899842 .005996704 .23899842 .067993167 .21499634 .114990238 .16899109 .114990238 .13598633 .114990238 .11199951 .08898926 .11199951 .057998659 .11199951 .025985718 .1349945 0 .16999817 0 .19400025 0 .20999146 .015991211 .21099854 .015991211Z"/>
<path id="font_6_1" d="M.74398806 .2263794C.7599945 .2263794 .7839966 .2263794 .7839966 .25038148 .7839966 .27539063 .7609863 .27539063 .74398806 .27539063H.147995C.13198853 .27539063 .10798645 .27539063 .10798645 .25138856 .10798645 .2263794 .1309967 .2263794 .147995 .2263794H.74398806Z"/>
<path id="font_5_4" d="M.33499146 .63612368C.33499146 .6630554 .33299256 .6640625 .30499269 .6640625 .24099732 .6014404 .1499939 .6004486 .10899353 .6004486V.5644531C.1329956 .5644531 .19898987 .5644531 .2539978 .592453V.08203125C.2539978 .04899597 .2539978 .035995485 .1539917 .035995485H.115997318V0C.13398743 .0009918213 .25698854 .0039978029 .2939911 .0039978029 .32499696 .0039978029 .45098878 .0009918213 .47299195 0V.035995485H.43499757C.33499146 .035995485 .33499146 .04899597 .33499146 .08203125V.63612368Z"/>
<path id="font_5_2" d="M.08999634 .75C.08299255 .75 .070999149 .75 .070999149 .73799136 .070999149 .73298647 .07398987 .7299957 .07998657 .72299197 .1659851 .64398196 .2619934 .5089874 .2619934 .25097657 .2619934 .04197693 .19699097-.11602783 .08898926-.21403504 .07199097-.23103333 .070999149-.23202515 .070999149-.23703003 .070999149-.24203491 .07398987-.24902344 .083999637-.24902344 .09599304-.24902344 .19099427-.18302918 .25698854-.058029176 .30099488 .024978638 .32998658 .13298035 .32998658 .24996948 .32998658 .39097596 .28799439 .60998538 .08999634 .75Z"/>
<path id="font_4_5" d="M.48599244 .6046295C.49299623 .63360598 .49499513 .63661196 .5169983 .63861086 .5219879 .63960269 .5569916 .63960269 .57699587 .63960269 .6380005 .63960269 .6639862 .63960269 .68899539 .63160708 .73399356 .61761477 .73599246 .5886383 .73599246 .5526581 .73599246 .53666689 .73599246 .52368167 .72898867 .4717102L.72698977 .46072389C.72698977 .45072938 .73399356 .4457245 .74398806 .4457245 .7589874 .4457245 .7609863 .45472718 .7630005 .47071839L.7899933 .66160586C.7899933 .6756134 .7779999 .6756134 .7599945 .6756134H.14498902C.11999512 .6756134 .117996219 .6756134 .11099243 .65460208L.04798889 .4777069C.04699707 .4737091 .042999269 .46472169 .042999269 .4597168 .042999269 .455719 .04499817 .4457245 .05999756 .4457245 .07299805 .4457245 .07499695 .45072938 .08099365 .4697113 .13899231 .62960818 .17199707 .63960269 .32398988 .63960269H.3659973C.3959961 .63960269 .39698792 .63861086 .39698792 .62960818 .39698792 .62861636 .39698792 .62361147 .3929901 .6086273L.26098634 .082962039C.2519989 .04598999 .24899292 .035995485 .14399719 .035995485 .10798645 .035995485 .09899902 .035995485 .09899902 .01399231 .09899902 .010986328 .100997928 0 .115997318 0 .14399719 0 .17399597 .0029907227 .20199585 .0029907227 .22999573 .0029907227 .2599945 .0039978029 .28799439 .0039978029 .31599427 .0039978029 .34999085 .0039978029 .37799073 .0029907227 .40499879 .0019989014 .43499757 0 .46199037 0 .46998597 0 .4850006 0 .4850006 .021987915 .4850006 .035995485 .47499085 .035995485 .44400025 .035995485 .4249878 .035995485 .40499879 .036987306 .38598634 .037994386 .35198976 .040985109 .34999085 .04498291 .34999085 .05697632 .34999085 .0639801 .34999085 .065979007 .35398866 .07997131L.48599244 .6046295Z"/>
<path id="font_4_8" d="M.55599978 .37738038C.55999758 .39138795 .55999758 .39338685 .55999758 .3993988 .55999758 .41940309 .5439911 .43139649 .5269928 .43139649 .5159912 .43139649 .49699403 .4263916 .48599244 .4073944 .48298646 .4013977 .47499085 .36938478 .46998597 .34936524L.44898988 .2663269C.44299317 .24232483 .4119873 .11627197 .40899659 .105270389 .4079895 .105270389 .3639984 .018234253 .28599549 .018234253 .21798706 .018234253 .21798706 .08325195 .21798706 .101257327 .21798706 .1552887 .24099732 .2183075 .2709961 .29534913 .2829895 .32736207 .28799439 .33937074 .28799439 .35636903 .28799439 .40438844 .24699402 .44140626 .19299317 .44140626 .09199524 .44140626 .04699707 .3053589 .04699707 .28834535 .04699707 .27534486 .06098938 .27534486 .06399536 .27534486 .07798767 .27534486 .07899475 .28033448 .08198547 .29135133 .10699463 .3743744 .1499939 .4133911 .18998719 .4133911 .20698548 .4133911 .21499634 .40238954 .21499634 .37838746 .21499634 .3553772 .20599365 .33335877 .20098877 .32035829 .15299988 .19830323 .14299011 .1612854 .14299011 .117263797 .14299011 .1002655 .14299011 .053237916 .18199158 .021224976 .21299744-.004776001 .25498963-.009765625 .28199769-.009765625 .32199098-.009765625 .35798646 .0052337648 .3909912 .035232545 .37799073-.01977539 .36698915-.061782838 .32499696-.11178589 .2979889-.14279175 .2579956-.17610169 .20498657-.17610169 .19799805-.17610169 .15098572-.17610169 .12998963-.14279175 .18399048-.13679505 .18399048-.08879089 .18399048-.08778381 .18399048-.055786134 .15499878-.04978943 .14498902-.04978943 .11999512-.04978943 .08699036-.0697937 .08699036-.11578369 .08699036-.1670227 .1349945-.20410156 .20599365-.20410156 .30699159-.20410156 .42999269-.12579346 .46099855-.00077819827L.55599978 .37738038Z"/>
<path id="font_5_8" d="M.7679901 .3359375C.7829895 .3359375 .80599978 .3359375 .80599978 .3609314 .80599978 .38493348 .7819977 .38493348 .7689972 .38493348H.10699463C.09399414 .38493348 .069992069 .38493348 .069992069 .3609314 .069992069 .3359375 .09298706 .3359375 .10798645 .3359375H.7679901M.7689972 .11602783C.7819977 .11602783 .80599978 .11602783 .80599978 .1400299 .80599978 .16503906 .7829895 .16503906 .7679901 .16503906H.10798645C.09298706 .16503906 .069992069 .16503906 .069992069 .1400299 .069992069 .11602783 .09399414 .11602783 .10699463 .11602783H.7689972Z"/>
<path id="font_4_7" d="M.24899292 .10601807C.23899842 .072021488 .20599365 .018234253 .15499878 .018234253 .1519928 .018234253 .12199402 .018234253 .100997928 .03215027 .14199829 .04508972 .14498902 .08100891 .14498902 .087020877 .14498902 .10900879 .12799073 .12402344 .10499573 .12402344 .07699585 .12402344 .04798889 .10002136 .04798889 .0630188 .04798889 .01322937 .10398865-.009765625 .15299988-.009765625 .19898987-.009765625 .23999024 .019226075 .2649994 .061019899 .2889862 .008224487 .34399415-.009765625 .38398744-.009765625 .49899293-.009765625 .55999758 .11502075 .55999758 .14305115 .55999758 .15608216 .5469971 .15608216 .5439911 .15608216 .5299988 .15608216 .5289917 .15107727 .5249939 .13905335 .5039978 .07002258 .44400025 .018234253 .3880005 .018234253 .34799195 .018234253 .32699586 .04508972 .32699586 .08302307 .32699586 .10900879 .35099793 .20018006 .3789978 .31140138 .39898683 .38841249 .44400025 .4133911 .47698976 .4133911 .47898866 .4133911 .5099945 .4133911 .5309906 .39941407 .49899293 .39041139 .4869995 .3624115 .4869995 .34440614 .4869995 .32240296 .5039978 .30740357 .5269928 .30740357 .5499878 .30740357 .58299258 .32640077 .58299258 .3684082 .58299258 .4243927 .5189972 .44140626 .47898866 .44140626 .42900086 .44140626 .3889923 .4084015 .36698915 .3704071 .34899903 .4113922 .30299378 .44140626 .24699402 .44140626 .1349945 .44140626 .070999149 .31840516 .070999149 .2883606 .070999149 .27534486 .084991458 .27534486 .08799744 .27534486 .100997928 .27534486 .101989749 .27934266 .10699463 .29237367 .13198853 .3704071 .19499207 .4133911 .24398804 .4133911 .2769928 .4133911 .3039856 .395401 .3039856 .3474121 .3039856 .32740785 .2919922 .27734376 .2829895 .24327088L.24899292 .10601807Z"/>
<path id="font_7_1" d="M.58898928 .19296265H.5469971C.5439911 .17396546 .5339966 .11198425 .5179901 .101989749 .5099945 .09599304 .42599488 .09599304 .41099549 .09599304H.21499634C.2809906 .14497376 .35499574 .20095825 .4149933 .24093628 .5049896 .30291749 .58898928 .36090089 .58898928 .46687318 .58898928 .59495547 .46798707 .6660156 .32499696 .6660156 .18998719 .6660156 .09098816 .58795168 .09098816 .48986817 .09098816 .4378662 .1349945 .42886354 .14898682 .42886354 .17599488 .42886354 .20799256 .4468689 .20799256 .48786927 .20799256 .52386477 .18199158 .543869 .15098572 .546875 .1789856 .59194949 .23699951 .6220093 .3039856 .6220093 .40098573 .6220093 .48199464 .5639038 .48199464 .4658661 .48199464 .3818817 .42399598 .31791688 .34700013 .2529297L.102996829 .04598999C.09298706 .036987306 .09199524 .036987306 .09098816 .02999878V0H.55599978L.58898928 .19296265Z"/>
<path id="font_5_6" d="M.1499939 .3274536C.1499939 .40945436 .15699768 .48303224 .19499207 .543869 .22898865 .5978699 .2829895 .63505557 .34700013 .63505557 .3769989 .63505557 .4169922 .62701418 .43699647 .5998688 .4119873 .5978699 .3909912 .5808716 .3909912 .5518799 .3909912 .5268707 .4079895 .5048828 .43798829 .5048828 .46798707 .5048828 .48599244 .5248718 .48599244 .5538788 .48599244 .6119385 .44400025 .6640625 .34498597 .6640625 .20098877 .6640625 .053985597 .5318756 .053985597 .3174591 .053985597 .05845642 .17599488-.01953125 .28599549-.01953125 .4079895-.01953125 .5139923 .07345581 .5139923 .20445252 .5139923 .33145143 .41299439 .42546083 .29599 .42546083 .21598816 .42546083 .17199707 .37245179 .1499939 .3274536M.28599549 .012466431C.23599243 .012466431 .19699097 .04145813 .17599488 .08546448 .16099549 .11546326 .15299988 .16545105 .15299988 .22544861 .15299988 .32244874 .21099854 .39746095 .29100038 .39746095 .33699037 .39746095 .36799623 .37945558 .3929901 .342453 .4169922 .30445863 .41799928 .26245118 .41799928 .20445252 .41799928 .14746094 .41799928 .10545349 .3909912 .066467288 .36698915 .031463624 .33499146 .012466431 .28599549 .012466431Z"/>
<path id="font_5_3" d="M.46299745 .2263794H.7689972C.7819977 .2263794 .80599978 .2263794 .80599978 .25038148 .80599978 .27539063 .7829895 .27539063 .7689972 .27539063H.46299745V.5821533C.46299745 .59513857 .46299745 .6191406 .43899537 .6191406 .4139862 .6191406 .4139862 .5961304 .4139862 .5821533V.27539063H.10699463C.09399414 .27539063 .069992069 .27539063 .069992069 .25138856 .069992069 .2263794 .09298706 .2263794 .10699463 .2263794H.4139862V-.08114624C.4139862-.09416199 .4139862-.11816406 .43798829-.11816406 .46299745-.11816406 .46299745-.09516907 .46299745-.08114624V.2263794Z"/>
<path id="font_5_7" d="M.35499574 .36123658C.43299867 .3992157 .48298646 .44618226 .48298646 .5151367 .48298646 .6120758 .38198854 .6640625 .2849884 .6640625 .1749878 .6640625 .084991458 .5920868 .084991458 .4971466 .084991458 .45018006 .10699463 .41619874 .125 .39620973 .14299011 .37522889 .1499939 .37123109 .20899964 .33624269 .15299988 .31227113 .053985597 .25830079 .053985597 .15336609 .053985597 .042434694 .16899109-.01953125 .2829895-.01953125 .4099884-.01953125 .5139923 .061431886 .5139923 .1693573 .5139923 .23532105 .47499085 .29127503 .4169922 .32525636 .4039917 .33325196 .36898805 .35324098 .35499574 .36123658M.19198609 .45617677C.1659851 .4711609 .13798523 .49813844 .13798523 .53512576 .13798523 .5980835 .21099854 .63505557 .2829895 .63505557 .36099244 .63505557 .42999269 .5860901 .42999269 .5151367 .42999269 .42619325 .32598878 .3812256 .32398988 .3812256 .32199098 .3812256 .31999208 .3822174 .31298829 .3862152L.19198609 .45617677M.24099732 .31726075 .37799073 .23831177C.4039917 .22332764 .45399476 .19334412 .45399476 .13438416 .45399476 .059432985 .37098695 .012466431 .2849884 .012466431 .19299317 .012466431 .11399841 .07142639 .11399841 .15336609 .11399841 .22732544 .16899109 .2842865 .24099732 .31726075Z"/>
<path id="font_8_105" d="M.375 .12606812V.1809845H.34098817V.12705994C.34098817 .059173585 .30899049 .022232056 .269989 .022232056 .20098877 .022232056 .20098877 .10609436 .20098877 .124069217V.39465333H.35699464V.43066407H.20098877V.6142578H.16699219C.1659851 .5244446 .125 .42565919 .0289917 .4226532V.39465333H.12199402V.1250763C.12199402 .01322937 .20599365-.009765625 .2619934-.009765625 .32899476-.010009766 .375 .04699707 .375 .12599182V.12606812Z"/>
<path id="font_8_28" d="M.5439911 .09013367V.14515686H.5099945V.09114075C.5099945 .08113098 .5099945 .033111574 .47299195 .033111574 .43598939 .033111574 .43598939 .0801239 .43598939 .09313965V.268219C.43598939 .3212433 .43598939 .35925294 .3899994 .39627076 .34899903 .4302826 .30099488 .44628907 .24198914 .44628907 .14698792 .44628907 .07998657 .41027833 .07998657 .34925843 .07998657 .31723023 .101989749 .30023194 .12799073 .30023194 .15499878 .30023194 .1749878 .3202362 .1749878 .34724427 .1749878 .3642578 .16699219 .38526917 .13999939 .39326478 .17599488 .41827394 .23399353 .41827394 .23999024 .41827394 .29599 .41827394 .35699464 .38127137 .35699464 .29722596V.2662201C.3019867 .26420594 .23599243 .2612152 .16299439 .23420716 .07299805 .20118714 .04499817 .14616394 .04499817 .101135257 .04499817 .0152282719 .14898682-.009765625 .21998596-.009765625 .2999878-.009765625 .34700013 .035232545 .36799623 .07423401 .37199403 .033111574 .39898683-.0048828127 .44499208-.0048828127 .44499208-.0048828127 .5439911-.0048828127 .5439911 .09010315V.09013367M.35699464 .14111328C.35699464 .04522705 .272995 .018234253 .22799683 .018234253 .1769867 .018234253 .1289978 .052230836 .1289978 .10122681 .1289978 .15621948 .1769867 .23323059 .35699464 .24023438V.14111328Z"/>
<path id="font_8_77" d="M.58999636 0V.035995485C.5249939 .035995485 .5149994 .035995485 .5149994 .07904053V.3032837C.5149994 .3903656 .47200013 .44140626 .36499024 .44140626 .2829895 .44140626 .22999573 .39637757 .20199585 .34432984H.20098877V.44140626L.053985597 .43052674V.39453126C.12098694 .39453126 .1289978 .3875122 .1289978 .33843995V.079055789C.1289978 .035995485 .11898804 .035995485 .053985597 .035995485V0C.053985597 0 .12599182 .0039978029 .16799927 .0039978029 .20498657 .0039978029 .27398683 .0009918213 .2829895 0V.035995485C.21798706 .035995485 .20799256 .035995485 .20799256 .079055789V.25932313C.20799256 .36434938 .29100038 .4133911 .35699464 .4133911 .4269867 .4133911 .43598939 .3583374 .43598939 .3072815V.07904053C.43598939 .035995485 .42599488 .035995485 .36099244 .035995485V0C.36099244 0 .43299867 .0039978029 .47499085 .0039978029 .5119934 .0039978029 .58099368 .0009918213 .58999636 0Z"/>
<path id="font_8_59" d="M.54499819 .40040589C.54499819 .42340089 .526001 .45140077 .48599244 .45140077 .47099305 .45140077 .4169922 .44839479 .36999513 .4053955 .33999635 .42739869 .2979889 .44140626 .2539978 .44140626 .15098572 .44140626 .07598877 .372406 .07598877 .29440309 .07598877 .2554016 .09599304 .21939087 .12399292 .19340515 .115997318 .18440247 .09399414 .1513977 .09399414 .11239624 .09399414 .09939575 .09700012 .05239868 .13598633 .023391724 .09098816 .0082092289 .038986207-.024841309 .038986207-.076934818 .038986207-.15003968 .14898682-.20507813 .28399659-.20507813 .41099549-.20507813 .5289917-.15505982 .5289917-.074920658 .5289917-.0448761 .5169983 .00920105 .46199037 .039260866 .40299989 .0703125 .34399415 .0703125 .24699402 .0703125 .22499085 .0703125 .18899536 .0703125 .18099976 .07130432 .14898682 .078308109 .1309967 .108306888 .1309967 .13729859 .1309967 .16246033 .13798523 .17045594 .14399719 .17845154 .15899658 .16944885 .19499207 .14746094 .25299073 .14746094 .35598756 .14746094 .43099977 .21644593 .43099977 .29444886 .43099977 .33345033 .41299439 .36445619 .3889923 .39045716 .43399049 .42245484 .47299195 .42344667 .48999024 .42344667 .48599244 .41944886 .48098756 .41545106 .48098756 .39945985 .48098756 .37945558 .49598695 .3674469 .5130005 .3674469 .5269928 .3674469 .54499819 .37745667 .54499819 .40045167V.40040589M.35099793 .29444886C.35099793 .27845765 .35099793 .2384491 .33099366 .21244812 .31698609 .19544983 .2899933 .17745972 .2539978 .17745972 .1559906 .17720032 .1559906 .2732849 .1559906 .29429627 .1559906 .310318 .1559906 .3503418 .17599488 .3763733 .18998719 .39338685 .21699524 .4113922 .25299073 .4113922 .35099793 .4113922 .35099793 .31532289 .35099793 .29429627V.29444886M.46798707-.07600403C.46798707-.12904358 .3889923-.17507935 .28399659-.17507935 .1789856-.17507935 .099990848-.12808228 .099990848-.07608032 .099990848-.04107666 .13198853 .0019226074 .19599915 .0029296876H.2539978C.34298707 .0029296876 .46798707 .0029296876 .46798707-.07608032V-.07600403Z"/>
<path id="font_8_88" d="M.21899414 .056991579C.21899414 .09199524 .19099427 .114990238 .1619873 .114990238 .1269989 .114990238 .10398865 .08699036 .10398865 .057998659 .10398865 .022994996 .13198853 0 .16099549 0 .19599915 0 .21899414 .027999878 .21899414 .056991579Z"/>
<path id="font_8_66" d="M.27398683 0V.035995485C.21598816 .035995485 .20599365 .035995485 .20599365 .07803345V.44140626L.05899048 .43052674V.39453126C.12199402 .39453126 .1309967 .3885193 .1309967 .33952333V.07952881C.1309967 .035995485 .12098694 .035995485 .055999757 .035995485V0C.055999757 0 .12799073 .0039978029 .16799927 .0039978029 .20298767 .0039978029 .23899842 .0029907227 .27398683 0M.21899414 .60214236C.21899414 .6341553 .19400025 .66015627 .1619873 .66015627 .12799073 .66015627 .10499573 .6321411 .10499573 .6031494 .10499573 .57115176 .12998963 .54515078 .1619873 .54515078 .19599915 .54515078 .21899414 .57315066 .21899414 .60214236Z"/>
<path id="font_9_1" d="M.33399964 .30233766C.33999635 .32835389 .36299134 .42037965 .43299867 .42037965 .43798829 .42037965 .46199037 .42037965 .48298646 .40734864 .45498658 .402359 .43499757 .37734986 .43499757 .35334779 .43499757 .33735658 .44599916 .31835938 .47299195 .31835938 .49499513 .31835938 .5269928 .3363495 .5269928 .37635804 .5269928 .42837525 .46798707 .4423828 .43399049 .4423828 .37599183 .4423828 .34098817 .38935853 .32899476 .36634828 .3039856 .43237306 .25 .4423828 .22099304 .4423828 .116989139 .4423828 .05999756 .3133545 .05999756 .28834535 .05999756 .27833558 .069992069 .27833558 .07199097 .27833558 .07998657 .27833558 .08299255 .28033448 .084991458 .28933717 .11898804 .39535523 .18499756 .42037965 .21899414 .42037965 .23799134 .42037965 .272995 .4113617 .272995 .35334779 .272995 .32235719 .2559967 .25532533 .21899414 .11528015 .20298767 .053268434 .16799927 .011245728 .12399292 .011245728 .117996219 .011245728 .09498596 .011245728 .07398987 .024276734 .09899902 .029266358 .12098694 .05027771 .12098694 .07827759 .12098694 .105270389 .09899902 .11328125 .083999637 .11328125 .053985597 .11328125 .0289917 .08728027 .0289917 .055267335 .0289917 .009246826 .07899475-.0107421879 .12298584-.0107421879 .18899536-.0107421879 .22499085 .059280397 .22799683 .0652771 .23999024 .028274537 .27598573-.0107421879 .33599855-.0107421879 .43899537-.0107421879 .49598695 .118270877 .49598695 .14328003 .49598695 .1532898 .4869995 .1532898 .48399354 .1532898 .47499085 .1532898 .47299195 .14929199 .47099305 .14228821 .43798829 .03527832 .36999513 .011245728 .33799745 .011245728 .29899598 .011245728 .2829895 .043273927 .2829895 .07727051 .2829895 .09927368 .2889862 .121276859 .2999878 .16529846L.33399964 .30233766Z"/>
<path id="font_9_2" d="M.48599244 .38136292C.48999024 .39537049 .48999024 .39736939 .48999024 .40437318 .48999024 .42237855 .47599793 .43138124 .46099855 .43138124 .45098878 .43138124 .43499757 .42536927 .42599488 .41036988 .42399598 .405365 .41600038 .37435914 .4119873 .35635377 .40499879 .33035279 .397995 .30334474 .3919983 .27633668L.34700013 .09628296C.34298707 .08126831 .2999878 .011245728 .23399353 .011245728 .18299866 .011245728 .17199707 .055267335 .17199707 .0922699 .17199707 .1382904 .18899536 .20030213 .22299195 .28833009 .23899842 .3293457 .24299622 .3403473 .24299622 .36035157 .24299622 .405365 .21099854 .4423828 .16099549 .4423828 .06599426 .4423828 .0289917 .29733277 .0289917 .28833009 .0289917 .27833558 .038986207 .27833558 .040985109 .27833558 .050994874 .27833558 .051986696 .28033448 .056991579 .29634095 .083999637 .3903656 .12399292 .42037965 .1579895 .42037965 .1659851 .42037965 .18299866 .42037965 .18299866 .3883667 .18299866 .36335755 .17298889 .3373413 .1659851 .31834413 .12599182 .21231079 .10798645 .1552887 .10798645 .10827637 .10798645 .019256592 .17098999-.0107421879 .22999573-.0107421879 .2689972-.0107421879 .30299378 .0062561037 .33099366 .03425598 .31799317-.017745972 .30599977-.06674194 .2659912-.11973572 .23999024-.15385437 .20199585-.18309021 .1559906-.18309021 .14199829-.18309021 .09700012-.18005371 .07998657-.14074707 .09599304-.14074707 .10899353-.14074707 .12298584-.1287384 .1329956-.11973572 .14299011-.10673523 .14299011-.08773804 .14299011-.056747438 .115997318-.052734376 .10598755-.052734376 .08299255-.052734376 .049987794-.068740848 .049987794-.11773682 .049987794-.16796875 .09399414-.20507813 .1559906-.20507813 .25898744-.20507813 .3619995-.11373901 .3899994-.00074768069L.48599244 .38136292Z"/>
</defs>
<path transform="matrix(1,0,0,-1,4.155,78.34)" stroke-width=".3985" stroke-linecap="butt" stroke-miterlimit="10" stroke-linejoin="miter" fill="none" stroke="#e5e6e5" d="M35.79462 0V75.15341M59.65771 0V75.15341M83.5208 0V75.15341M107.3839 0V75.15341M131.247 0V75.15341"/>
<path transform="matrix(1,0,0,-1,4.155,78.34)" stroke-width=".3985" stroke-linecap="butt" stroke-miterlimit="10" stroke-linejoin="miter" fill="none" stroke="#e5e6e5" d="M0 25.05112H143.17853M0 39.36606H143.17853M0 53.68098H143.17853M0 67.99593H143.17853"/>
<path transform="matrix(1,0,0,-1,4.155,78.34)" stroke-width=".19925" stroke-linecap="butt" stroke-miterlimit="10" stroke-linejoin="miter" fill="none" stroke="#7f807f" d="M35.79462 9.46065V12.01172M59.65771 9.46065V12.01172M83.5208 9.46065V12.01172M107.3839 9.46065V12.01172M131.247 9.46065V12.01172"/>
<path transform="matrix(1,0,0,-1,4.155,78.34)" stroke-width=".19925" stroke-linecap="butt" stroke-miterlimit="10" stroke-linejoin="miter" fill="none" stroke="#7f807f" d="M10.65591 25.05112H13.20714M10.65591 39.36606H13.20714M10.65591 53.68098H13.20714M10.65591 67.99593H13.20714"/>
<path transform="matrix(1,0,0,-1,4.155,78.34)" stroke-width=".3985" stroke-linecap="butt" stroke-miterlimit="10" stroke-linejoin="miter" fill="none" stroke="#000000" d="M0 10.73619H141.186"/>
<path transform="matrix(1,0,0,-1,145.341,67.603809)" d="M1.99252 0-1.19551 1.59401 0 0-1.19551-1.59401"/>
<path transform="matrix(1,0,0,-1,4.155,78.34)" stroke-width=".3985" stroke-linecap="butt" stroke-miterlimit="10" stroke-linejoin="miter" fill="none" stroke="#000000" d="M11.93152 0V73.16089"/>
<path transform="matrix(0,-1,-1,-0,16.086522,5.1791079)" d="M1.99252 0-1.19551 1.59401 0 0-1.19551-1.59401"/>
<g clip-path="url(#clip_1)">
</g>
<use data-text="1" xlink:href="#font_2_1" transform="matrix(9.96264,0,0,-9.96264,37.458,78.82)"/>
<use data-text="2" xlink:href="#font_2_2" transform="matrix(9.96264,0,0,-9.96264,61.321,78.82)"/>
<use data-text="3" xlink:href="#font_2_3" transform="matrix(9.96264,0,0,-9.96264,85.184,78.82)"/>
<use data-text="4" xlink:href="#font_2_4" transform="matrix(9.96264,0,0,-9.96264,109.046,78.82)"/>
<use data-text="5" xlink:href="#font_2_5" transform="matrix(9.96264,0,0,-9.96264,132.909,78.82)"/>
<use data-text="2" xlink:href="#font_2_2" transform="matrix(9.96264,0,0,-9.96264,6.309,56.499)"/>
<use data-text="4" xlink:href="#font_2_4" transform="matrix(9.96264,0,0,-9.96264,6.309,42.184999)"/>
<use data-text="6" xlink:href="#font_2_6" transform="matrix(9.96264,0,0,-9.96264,6.309,27.869999)"/>
<use data-text="8" xlink:href="#font_2_7" transform="matrix(9.96264,0,0,-9.96264,6.309,13.554993)"/>
<g clip-path="url(#clip_3)">
<path transform="matrix(1,0,0,-1,4.155,78.34)" stroke-width=".79701" stroke-linecap="butt" stroke-miterlimit="10" stroke-linejoin="miter" fill="none" stroke="#2471a3" d="M4.7726 81.52647 5.43213 80.22627 6.09166 78.93703 6.75119 77.6587 7.41074 76.39131 8.07025 75.13487 8.72978 73.88936 9.38933 72.65479 10.04884 71.43114 10.70839 70.21844 11.36792 69.01666 12.02745 67.82582 12.68698 66.64592 13.34651 65.47696 14.00604 64.31894 14.66559 63.17183 15.3251 62.03568 15.98465 60.91045 16.64418 59.79616 17.30371 58.69281 17.96324 57.60037 18.62277 56.51889 19.2823 55.44836 19.94183 54.38873 20.60136 53.34006 21.2609 52.3023 21.92043 51.27551 22.57996 50.25963 23.23949 49.25468 23.89902 48.26068 24.55856 47.27763 25.21808 46.30548 25.87762 45.34428 26.53716 44.39403 27.19669 43.4547 27.85622 42.52629 28.51576 41.60884 29.17528 40.70232 29.83482 39.80673 30.49435 38.92209 31.15388 38.04837 31.81342 37.18558 32.47293 36.33374 33.13248 35.49281 33.79199 34.66284 34.45154 33.84381 35.11105 33.0357 35.7706 32.23853 36.43013 31.45229 37.08966 30.67699 37.74919 29.91263 38.40874 29.1592 39.06825 28.4167 39.7278 27.68513 40.38733 26.96452 41.04686 26.25482 41.70639 25.55608 42.36592 24.86824 43.02545 24.19136 43.685 23.5254 44.34451 22.87039 45.00404 22.22632 45.66359 21.59317 46.3231 20.97096 46.98265 20.35968 47.64218 19.75935 48.30171 19.16995 48.96123 18.59148 49.62077 18.02394 50.2803 17.46735 50.93983 16.92168 51.59937 16.38695 52.2589 15.86316 52.91843 15.35031 53.57797 14.84837 54.23749 14.35739 54.89703 13.87733 55.55656 13.40822 56.2161 12.95004 56.87563 12.50279 57.53516 12.06648 58.19469 11.6411 58.85422 11.22667 59.51376 10.82317 60.17328 10.43059 60.83282 10.04893 61.49234 9.67824 62.15189 9.31848 62.8114 8.96965 63.47095 8.63174 64.13046 8.3048 64.79001 7.98877 65.44954 7.68369 66.10907 7.38953 66.7686 7.1063 67.42815 6.83403 68.08766 6.57268 68.7472 6.32225 69.40674 6.08278 70.06625 5.85423 70.7258 5.63661 71.38531 5.42995 72.04486 5.2342 72.70439 5.04941 73.36392 4.87553 74.02345 4.7126 74.683 4.56061 75.34251 4.41954 76.00206 4.28941 76.66159 4.17021 77.32112 4.06197 77.98065 3.96465 78.64018 3.87825 79.29971 3.8028 79.95924 3.73828 80.61877 3.6847 81.27829 3.64206 81.93784 3.61034 82.59737 3.58955 83.2569 3.57973 83.91643 3.58083 84.57597 3.59285 85.23549 3.61581 85.89503 3.64972 86.55457 3.69455 87.2141 3.7503 87.87363 3.81702 88.53317 3.89465 89.19269 3.98323 89.85223 4.08273 90.51175 4.19319 91.1713 4.31456 91.83083 4.44687 92.49036 4.59013 93.14987 4.74432 93.8094 4.90942 94.46895 5.0855 95.12846 5.27248 95.78801 5.47041 96.44754 5.67928 97.10707 5.89906 97.7666 6.12979 98.42615 6.37146 99.08566 6.62407 99.74521 6.8876 100.40472 7.16206 101.06427 7.4475 101.7238 7.74382 102.38333 8.0511 103.04286 8.36932 103.70241 8.69846 104.36192 9.03854 105.02145 9.38956 105.681 9.75151 106.34052 10.1244 107.00006 10.50822 107.65958 10.90297 108.31912 11.30867 108.97864 11.72531 109.63818 12.15286 110.29771 12.59137 110.95724 13.0408 111.61678 13.50117 112.2763 13.97246 112.93584 14.45471 113.59538 14.9479 114.2549 15.452 114.91444 15.96704 115.57397 16.49301 116.2335 17.02995 116.89304 17.57777 117.55257 18.13658 118.2121 18.7063 118.87163 19.28696 119.53116 19.87854 120.19069 20.48106 120.85023 21.09453 121.50975 21.71892 122.1693 22.35426 122.82881 23.00052 123.48836 23.65771 124.14787 24.32587 124.80742 25.00493 125.46695 25.69495 126.12648 26.39589 126.78601 27.10776 127.44556 27.83057 128.10507 28.56433 128.76462 29.30899 129.42415 30.0646 130.08367 30.83118 130.74321 31.60866 131.40273 32.39708 132.06227 33.19644 132.7218 34.00673 133.38134 34.82797 134.04087 35.66013 134.70041 36.50322 135.35993 37.35725 136.01947 38.22223"/>
<path transform="matrix(1,0,0,-1,4.155,78.34)" stroke-width=".79701" stroke-linecap="butt" stroke-miterlimit="10" stroke-linejoin="miter" fill="none" stroke="#b30000" d="M4.7726 43.6621 5.16832 43.42471 5.56404 43.18732 5.95976 42.94994 6.35547 42.71254 6.75119 42.47514 7.14691 42.23775 7.54263 42.00035 7.93835 41.76297 8.33406 41.52557 8.72978 41.2882 9.12552 41.0508 9.52122 40.8134 9.91696 40.576 10.31267 40.33861 10.70839 40.10123 11.10411 39.86383 11.49982 39.62645 11.89554 39.38905 12.29126 39.15166 12.68698 38.91426 13.08269 38.67688 13.47841 38.43948 13.87415 38.20209 14.26987 37.96469 14.66559 37.72731 15.0613 37.48991 15.45702 37.25252 15.85274 37.01514 16.24844 36.77774 16.64418 36.54034 17.03989 36.30295 17.43561 36.06557 17.83133 35.82817 18.22704 35.59079 18.62277 35.3534 19.0185 35.116 19.41422 34.8786 19.80994 34.6412 20.20564 34.40382 20.60136 34.16643 20.99709 33.92905 21.3928 33.69165 21.78851 33.45424 22.18423 33.21686 22.57996 32.97946 22.97566 32.74208 23.37141 32.50468 23.76712 32.2673 24.16284 32.0299 24.55856 31.79251 24.95427 31.55511 25.34999 31.31772 25.74571 31.08034 26.14143 30.84296 26.53716 30.60556 26.93286 30.36815 27.32858 30.13077 27.7243 29.89337 28.12004 29.65598 28.51576 29.4186 28.91147 29.18121 29.30719 28.9438 29.70291 28.70642 30.09863 28.46902 30.49435 28.23163 30.89006 27.99423 31.28578 27.75685 31.68149 27.51947 32.07721 27.28206 32.47293 27.04468 32.86867 26.80728 33.26439 26.56989 33.6601 26.33249 34.05582 26.09511 34.45154 25.85771 34.84726 25.62032 35.24298 25.38293 35.63869 25.14554 36.03441 24.90814 36.43013 24.67075 36.82584 24.43335 37.22157 24.19597 37.6173 23.95859 38.01302 23.72119 38.40874 23.4838 38.80444 23.2464 39.20018 23.009 39.59589 22.7716 39.99161 22.53423 40.38733 22.29684 40.78304 22.05945 41.17876 21.82205 41.57448 21.58466 41.9702 21.34726 42.36592 21.10986 42.76164 20.87248 43.15736 20.6351 43.55307 20.3977 43.9488 20.16031 44.34451 19.92291 44.74023 19.68552 45.13596 19.44812 45.53166 19.21075 45.92738 18.97336 46.3231 18.73596 46.71884 18.49857 47.11456 18.26117 47.51027 18.02377 47.90599 17.78638 48.30171 17.54901 48.69743 17.31161 49.09315 17.07422 49.48886 16.83682 49.88458 16.59943 50.2803 16.36203 50.67603 16.12463 51.07173 15.88727 51.46747 15.64987 51.86319 15.41248 52.2589 15.17508 52.65462 14.93768 53.05034 14.70029 53.44606 14.4629 53.84178 14.22552 54.23749 13.98813 54.63321 13.75073 55.02893 13.51334 55.42465 13.27594 55.82037 13.03854 56.2161 12.80116 56.61182 12.56377 57.00754 12.32639 57.40324 12.08899 57.79898 11.8516 58.19469 11.6142 58.59041 11.37682 58.98613 11.13942 59.38184 10.90202 59.77757 10.66464 60.17328 10.42725 60.569 10.18985 60.96472 9.95245 61.36044 9.71507 61.75616 9.47768 62.15189 9.24026 62.5476 9.0029 62.94331 8.7655 63.33904 8.5281 63.73476 8.29071 64.13046 8.05333 64.5262 7.81593 64.9219 7.57854 65.31763 7.34116 65.71336 7.10376 66.10907 6.86636 66.50479 6.62898 66.90051 6.39159 67.29623 6.15417 67.69196 5.9168 68.08766 5.67941 68.48338 5.44202 68.8791 5.20462 69.27483 4.96724 69.67055 4.72983 70.06625 4.49245 70.46199 4.25505 70.85771 4.01767 71.25343 3.78027 71.64914 3.54288 72.04486 3.3055 72.44058 3.06808 72.83629 2.8307 73.23201 2.5933 73.62773 2.35593 74.02345 2.11853 74.41917 1.88115 74.81488 1.64374 75.21062 1.40634 75.60634 1.16896 76.00206 .93156 76.39778 .69417 76.79349 .45679 77.18921 .21939 77.58493-.01797 77.98065-.25536 78.37637-.49275 78.77208-.73015 79.1678-.96754 79.56352-1.20493 79.95924-1.44232 80.35497-1.67972 80.75069-1.9171 81.14641-2.1545 81.54211-2.39189 81.93784-2.62929 82.33356-2.86667 82.72928-3.10406 83.125-3.34146 83.5207-3.57884"/>
<path transform="matrix(1,0,0,-1,4.155,78.34)" stroke-width=".79701" stroke-linecap="butt" stroke-dasharray="2.98883,2.98883" stroke-miterlimit="10" stroke-linejoin="miter" fill="none" stroke="#1b4f72" d="M4.7726 72.293 5.40814 71.91173 6.0437 71.53047 6.67924 71.1492 7.31479 70.76794 7.95033 70.38667 8.58589 70.0054 9.22144 69.62415 9.85698 69.24287 10.49254 68.8616 11.1281 68.48035 11.76363 68.09908 12.39919 67.71782 13.03473 67.33655 13.67027 66.95528 14.30583 66.57402 14.94138 66.19275 15.57693 65.81148 16.21248 65.43022 16.84802 65.04895 17.48358 64.6677 18.11913 64.28642 18.75467 63.90515 19.39023 63.5239 20.02577 63.14262 20.66132 62.76135 21.29688 62.3801 21.93242 61.99883 22.56796 61.61757 23.20352 61.23628 23.83907 60.85503 24.47461 60.47377 25.11017 60.0925 25.74571 59.71124 26.38126 59.32997 27.01682 58.9487 27.65236 58.56743 28.2879 58.18617 28.92346 57.8049 29.559 57.42365 30.19455 57.04237 30.83011 56.6611 31.46565 56.27985 32.10121 55.89857 32.73676 55.51732 33.3723 55.13605 34.00786 54.75476 34.6434 54.37352 35.27895 53.99223 35.9145 53.611 36.55005 53.22972 37.1856 52.84845 37.82115 52.4672 38.4567 52.0859 39.09224 51.70465 39.7278 51.32338 40.36334 50.94212 40.99889 50.56087 41.63445 50.1796 42.26999 49.79832 42.90553 49.41705 43.54109 49.0358 44.17664 48.65451 44.81218 48.27327 45.44774 47.892 46.08328 47.51073 46.71884 47.12947 47.35439 46.74818 47.98993 46.36694 48.62549 45.98566 49.26103 45.60439 49.89658 45.22314 50.53214 44.84186 51.16768 44.46062 51.80322 44.07933 52.43878 43.69807 53.07433 43.3168 53.70985 42.93553 54.34543 42.55428 54.98097 42.173 55.61652 41.79175 56.25208 41.41048 56.88762 41.0292 57.52316 40.64793 58.15872 40.26668 58.79425 39.88542 59.42981 39.50414 60.06537 39.1229 60.70091 38.74161 61.33646 38.36035 61.972 37.9791 62.60756 37.59781 63.24312 37.21657 63.87865 36.83528 64.5142 36.45401 65.14977 36.07275 65.78531 35.69148 66.42085 35.31024 67.0564 34.92896 67.69196 34.5477 68.3275 34.16643 68.96304 33.78516 69.5986 33.40388 70.23413 33.02263 70.8697 32.64137 71.50525 32.2601 72.14078 31.87883 72.77635 31.49756 73.4119 31.1163 74.04742 30.73503 74.683 30.35378 75.31853 29.9725 75.95409 29.59123 76.58965 29.20998 77.22517 28.8287 77.86073 28.44743 78.49628 28.06618 79.13182 27.6849 79.7674 27.30365 80.40292 26.92238 81.03848 26.5411 81.67403 26.15985 82.30957 25.77858 82.94513 25.39731 83.58067 25.01605 84.21622 24.63478 84.85176 24.25352 85.48732 23.87225 86.12288 23.49098 86.7584 23.10973 87.39397 22.72845 88.02953 22.34718 88.66505 21.96593 89.30061 21.58466 89.93616 21.2034 90.5717 20.82213 91.20728 20.44086 91.8428 20.0596 92.47835 19.67833 93.1139 19.29706 93.74945 18.9158 94.385 18.53453 95.02055 18.15327 95.6561 17.772 96.29167 17.39073 96.9272 17.00948 97.56274 16.6282 98.1983 16.24693 98.83385 15.86568 99.46939 15.4844 100.10495 15.10315 100.7405 14.72188 101.37604 14.3406 102.0116 13.95935 102.64714 13.57808 103.28268 13.19681 103.91824 12.81555 104.55379 12.43428 105.18933 12.05302 105.82489 11.67175 106.46043 11.29048 107.09598 10.90923 107.73154 10.52795 108.36708 10.14668 109.00262 9.76543 109.63818 9.38416 110.27373 9.0029 110.90929 8.62163 111.54483 8.24036 112.18037 7.8591 112.81593 7.47783 113.45148 7.09656 114.08702 6.7153 114.72258 6.33403 115.35812 5.95277 115.99367 5.5715 116.62923 5.19023 117.26477 4.80898 117.90031 4.4277 118.53587 4.04643 119.17142 3.66518 119.80696 3.2839 120.44252 2.90265 121.07806 2.52138 121.71361 2.1401 122.34917 1.75885 122.98471 1.37758 123.62025 .9963 124.25581 .61505 124.89136 .23378 125.5269-.14745 126.16246-.52872 126.798-.90999 127.43356-1.29126 128.0691-1.67252 128.70465-2.05379 129.34021-2.43504 129.97576-2.81631 130.6113-3.19757 131.24686-3.57884"/>
<use data-text="A" xlink:href="#font_4_2" transform="matrix(6.97385,0,0,-6.97385,60.815999,75.889)"/>
<use data-text="B" xlink:href="#font_4_3" transform="matrix(6.97385,0,0,-6.97385,108.358,75.889)"/>
<use data-text="C" xlink:href="#font_4_4" transform="matrix(6.97385,0,0,-6.97385,6.363,12.727997)"/>
<use data-text="V" xlink:href="#font_4_6" transform="matrix(6.97385,0,0,-6.97385,72.403,83.51199)" fill="#1e8449"/>
<use data-text="(" xlink:href="#font_5_1" transform="matrix(6.97385,0,0,-6.97385,78.823,83.51199)" fill="#1e8449"/>
<use data-text="3" xlink:href="#font_5_5" transform="matrix(6.97385,0,0,-6.97385,81.933338,83.51199)" fill="#1e8449"/>
<use data-text="," xlink:href="#font_4_1" transform="matrix(6.97385,0,0,-6.97385,85.908,83.51199)" fill="#1e8449"/>
<use data-text="&#x2212;" xlink:href="#font_6_1" transform="matrix(6.97385,0,0,-6.97385,89.635,83.51199)" fill="#1e8449"/>
<use data-text="1" xlink:href="#font_5_4" transform="matrix(6.97385,0,0,-6.97385,95.861,83.51199)" fill="#1e8449"/>
<use data-text=")" xlink:href="#font_5_2" transform="matrix(6.97385,0,0,-6.97385,99.82912,83.51199)" fill="#1e8449"/>
<use data-text="T" xlink:href="#font_4_5" transform="matrix(6.97385,0,0,-6.97385,6.788,41.357)"/>
<use data-text="y" xlink:href="#font_4_8" transform="matrix(6.97385,0,0,-6.97385,126.988,41.405)" fill="#2471a3"/>
<use data-text="=" xlink:href="#font_5_8" transform="matrix(6.97385,0,0,-6.97385,133.547,41.405)" fill="#2471a3"/>
<use data-text="x" xlink:href="#font_4_7" transform="matrix(6.97385,0,0,-6.97385,141.93,41.405)" fill="#2471a3"/>
<use data-text="2" xlink:href="#font_7_1" transform="matrix(4.98132,0,0,-4.98132,146.448,38.398)" fill="#2471a3"/>
<use data-text="&#x2212;" xlink:href="#font_6_1" transform="matrix(6.97385,0,0,-6.97385,152.151,41.405)" fill="#2471a3"/>
<use data-text="6" xlink:href="#font_5_6" transform="matrix(6.97385,0,0,-6.97385,160.191,41.405)" fill="#2471a3"/>
<use data-text="x" xlink:href="#font_4_7" transform="matrix(6.97385,0,0,-6.97385,164.163,41.405)" fill="#2471a3"/>
<use data-text="+" xlink:href="#font_5_3" transform="matrix(6.97385,0,0,-6.97385,170.495,41.405)" fill="#2471a3"/>
<use data-text="8" xlink:href="#font_5_7" transform="matrix(6.97385,0,0,-6.97385,178.42427,41.405)" fill="#2471a3"/>
<use data-text="t" xlink:href="#font_8_105" transform="matrix(6.97385,0,0,-6.97385,-11.216,37.603998)" fill="#b30000"/>
<use data-text="a" xlink:href="#font_8_28" transform="matrix(6.97385,0,0,-6.97385,-8.105662,37.603998)" fill="#b30000"/>
<use data-text="n" xlink:href="#font_8_77" transform="matrix(6.97385,0,0,-6.97385,-4.137542,37.603998)" fill="#b30000"/>
<use data-text="g" xlink:href="#font_8_59" transform="matrix(6.97385,0,0,-6.97385,.26295758,37.603998)" fill="#b30000"/>
<use data-text="." xlink:href="#font_8_88" transform="matrix(6.97385,0,0,-6.97385,4.231078,37.603998)" fill="#b30000"/>
<use data-text="i" xlink:href="#font_8_66" transform="matrix(6.97385,0,0,-6.97385,9.161591,37.603998)" fill="#b30000"/>
<use data-text="n" xlink:href="#font_8_77" transform="matrix(6.97385,0,0,-6.97385,11.4141449,37.603998)" fill="#b30000"/>
<use data-text="A" xlink:href="#font_4_2" transform="matrix(6.97385,0,0,-6.97385,18.506,37.603998)" fill="#b30000"/>
</g>
<path transform="matrix(1,0,0,-1,4.155,78.34)" d="M60.8532 10.73657C60.8532 11.39685 60.31793 11.93211 59.65765 11.93211 58.99736 11.93211 58.4621 11.39685 58.4621 10.73657 58.4621 10.0763 58.99736 9.54103 59.65765 9.54103 60.31793 9.54103 60.8532 10.0763 60.8532 10.73657ZM59.65765 10.73657" fill="#1e8449"/>
<path transform="matrix(1,0,0,-1,4.155,78.34)" stroke-width=".79701" stroke-linecap="butt" stroke-miterlimit="10" stroke-linejoin="miter" fill="none" stroke="#1e8449" d="M60.8532 10.73657C60.8532 11.39685 60.31793 11.93211 59.65765 11.93211 58.99736 11.93211 58.4621 11.39685 58.4621 10.73657 58.4621 10.0763 58.99736 9.54103 59.65765 9.54103 60.31793 9.54103 60.8532 10.0763 60.8532 10.73657ZM59.65765 10.73657"/>
<path transform="matrix(1,0,0,-1,4.155,78.34)" d="M108.57933 10.73657C108.57933 11.39685 108.04407 11.93211 107.38379 11.93211 106.72351 11.93211 106.18825 11.39685 106.18825 10.73657 106.18825 10.0763 106.72351 9.54103 107.38379 9.54103 108.04407 9.54103 108.57933 10.0763 108.57933 10.73657ZM107.38379 10.73657" fill="#1e8449"/>
<path transform="matrix(1,0,0,-1,4.155,78.34)" stroke-width=".79701" stroke-linecap="butt" stroke-miterlimit="10" stroke-linejoin="miter" fill="none" stroke="#1e8449" d="M108.57933 10.73657C108.57933 11.39685 108.04407 11.93211 107.38379 11.93211 106.72351 11.93211 106.18825 11.39685 106.18825 10.73657 106.18825 10.0763 106.72351 9.54103 107.38379 9.54103 108.04407 9.54103 108.57933 10.0763 108.57933 10.73657ZM107.38379 10.73657"/>
<path transform="matrix(1,0,0,-1,4.155,78.34)" d="M13.12708 67.99837C13.12708 68.65865 12.59181 69.19391 11.93152 69.19391 11.27124 69.19391 10.73598 68.65865 10.73598 67.99837 10.73598 67.33809 11.27124 66.80283 11.93152 66.80283 12.59181 66.80283 13.12708 67.33809 13.12708 67.99837ZM11.93152 67.99837" fill="#1e8449"/>
<path transform="matrix(1,0,0,-1,4.155,78.34)" stroke-width=".79701" stroke-linecap="butt" stroke-miterlimit="10" stroke-linejoin="miter" fill="none" stroke="#1e8449" d="M13.12708 67.99837C13.12708 68.65865 12.59181 69.19391 11.93152 69.19391 11.27124 69.19391 10.73598 68.65865 10.73598 67.99837 10.73598 67.33809 11.27124 66.80283 11.93152 66.80283 12.59181 66.80283 13.12708 67.33809 13.12708 67.99837ZM11.93152 67.99837"/>
<path transform="matrix(1,0,0,-1,4.155,78.34)" d="M84.71625 3.57884C84.71625 4.23912 84.181 4.77438 83.5207 4.77438 82.86043 4.77438 82.32516 4.23912 82.32516 3.57884 82.32516 2.91856 82.86043 2.3833 83.5207 2.3833 84.181 2.3833 84.71625 2.91856 84.71625 3.57884ZM83.5207 3.57884" fill="#1e8449"/>
<path transform="matrix(1,0,0,-1,4.155,78.34)" stroke-width=".79701" stroke-linecap="butt" stroke-miterlimit="10" stroke-linejoin="miter" fill="none" stroke="#1e8449" d="M84.71625 3.57884C84.71625 4.23912 84.181 4.77438 83.5207 4.77438 82.86043 4.77438 82.32516 4.23912 82.32516 3.57884 82.32516 2.91856 82.86043 2.3833 83.5207 2.3833 84.181 2.3833 84.71625 2.91856 84.71625 3.57884ZM83.5207 3.57884"/>
<path transform="matrix(1,0,0,-1,4.155,78.34)" d="M13.12708 39.36746C13.12708 40.02774 12.59181 40.563 11.93152 40.563 11.27124 40.563 10.73598 40.02774 10.73598 39.36746 10.73598 38.70718 11.27124 38.17192 11.93152 38.17192 12.59181 38.17192 13.12708 38.70718 13.12708 39.36746ZM11.93152 39.36746" fill="#1e8449"/>
<path transform="matrix(1,0,0,-1,4.155,78.34)" stroke-width=".79701" stroke-linecap="butt" stroke-miterlimit="10" stroke-linejoin="miter" fill="none" stroke="#1e8449" d="M13.12708 39.36746C13.12708 40.02774 12.59181 40.563 11.93152 40.563 11.27124 40.563 10.73598 40.02774 10.73598 39.36746 10.73598 38.70718 11.27124 38.17192 11.93152 38.17192 12.59181 38.17192 13.12708 38.70718 13.12708 39.36746ZM11.93152 39.36746"/>
<path transform="matrix(1,0,0,-1,4.155,78.34)" stroke-width=".79701" stroke-linecap="butt" stroke-miterlimit="10" stroke-linejoin="miter" fill="none" stroke="#1e8449" d=""/>
<use data-text="x" xlink:href="#font_9_1" transform="matrix(9.96264,0,0,-9.96264,137.918,63.885)"/>
<use data-text="y" xlink:href="#font_9_2" transform="matrix(9.96264,0,0,-9.96264,19.805,11.195999)"/>
</svg>
