<svg xmlns="http://www.w3.org/2000/svg" xmlns:xlink="http://www.w3.org/1999/xlink" xmlns:inkscape="http://www.inkscape.org/namespaces/inkscape" version="1.1" width="200.825" height="163.928" viewBox="0 0 200.825 163.928">
<defs>
<path id="font_1_6" d="M.49198915 .40434266C.45498658 .39733888 .44400025 .3653412 .44400025 .3503418 .44400025 .33132936 .45799256 .31433106 .48298646 .31433106 .5109863 .31433106 .5379944 .33833314 .5379944 .3733368 .5379944 .41937257 .48799134 .4423828 .44099427 .4423828 .3809967 .4423828 .34599305 .38934327 .33399964 .3683319 .31498719 .41737367 .2709961 .4423828 .22299195 .4423828 .115997318 .4423828 .057998659 .31433106 .057998659 .28833009 .057998659 .2793274 .06498718 .2763214 .07199097 .2763214 .08099365 .2763214 .083999637 .2813263 .085998538 .287323 .116989139 .38633729 .18299866 .41737367 .22099304 .41737367 .25 .41737367 .27598573 .3983307 .27598573 .35133363 .27598573 .31533814 .23298645 .15530396 .21998596 .107284549 .21199036 .076293949 .18199158 .014251709 .1269989 .014251709 .10699463 .014251709 .085998538 .021270752 .07598877 .027282715 .102996829 .032287599 .12298584 .055282594 .12298584 .08128357 .12298584 .106292728 .10398865 .11729431 .084991458 .11729431 .055999757 .11729431 .02999878 .092285159 .02999878 .058288576 .02999878 .009246826 .083999637-.0107421879 .12599182-.0107421879 .18399048-.0107421879 .21798706 .03729248 .23298645 .06428528 .2579956-.0017547608 .31698609-.0107421879 .34399415-.0107421879 .45199586-.0107421879 .5089874 .11929321 .5089874 .14329529 .5089874 .14830017 .5059967 .15530396 .49598695 .15530396 .4850006 .15530396 .48399354 .1512909 .47898866 .1362915 .45700074 .06428528 .39898683 .014251709 .34700013 .014251709 .31799317 .014251709 .29100038 .032287599 .29100038 .08029175 .29100038 .10229492 .30499269 .15730286 .31399537 .1953125 .31799317 .21331787 .34498597 .32133485 .34700013 .32833863 .35899354 .3643341 .3889923 .41737367 .43998719 .41737367 .45799256 .41737367 .47698976 .41436769 .49198915 .40434266Z"/>
<path id="font_1_7" d="M.5019989 .38536073C.5029907 .3903656 .5049896 .39637757 .5049896 .40237428 .5049896 .41537477 .49598695 .43138124 .47399903 .43138124 .46099855 .43138124 .44299317 .42337037 .43499757 .40437318 .43399049 .40037538 .42399598 .35935975 .41799928 .33735658L.36799623 .13728333C.3600006 .10827637 .3600006 .106277469 .35798646 .09727478 .35699464 .09327698 .31498719 .014251709 .24299622 .014251709 .18099976 .014251709 .18099976 .07727051 .18099976 .09628296 .18099976 .14129639 .19400025 .19030762 .23699951 .30233766 .24499512 .3253479 .25099183 .33935548 .25099183 .35835267 .25099183 .40737916 .21398926 .4423828 .16499329 .4423828 .068984989 .4423828 .0289917 .30033876 .0289917 .28833009 .0289917 .2793274 .035995485 .27633668 .042999269 .27633668 .053985597 .27633668 .054992677 .28233338 .05899048 .29533387 .07998657 .3693695 .11999512 .41737367 .1619873 .41737367 .18598938 .41737367 .18598938 .39837647 .18598938 .3843689 .18598938 .36735536 .18199158 .34934999 .17298889 .3253479 .12599182 .2013092 .11299133 .15930176 .11299133 .11128235 .11299133 .00024414063 .20298767-.0107421879 .23999024-.0107421879 .2889862-.0107421879 .32398988 .01524353 .34199525 .0332489 .32899476-.017745972 .31799317-.0627594 .2789917-.11276245 .24899292-.15286255 .20899964-.18008423 .16499329-.18008423 .13699341-.18008423 .10398865-.16999817 .08999634-.14176941 .14299011-.14176941 .1499939-.09776306 .1499939-.087768558 .1499939-.06576538 .13398743-.051757814 .11199951-.051757814 .08799744-.051757814 .055999757-.07077026 .055999757-.116760257 .055999757-.16899109 .101989749-.20507813 .16499329-.20507813 .2669983-.20507813 .37599183-.117767337 .40499879-.00074768069L.5019989 .38536073Z"/>
<path id="font_1_8" d="M.13899231 .08526611C.1599884 .11027527 .21499634 .16029358 .2579956 .19630432 .33198548 .25933839 .35499574 .28134156 .36799623 .29534913 .44999696 .3743744 .47698976 .42536927 .47698976 .43138124 .47698976 .43237306 .47698976 .4423828 .46398927 .4423828 .45498658 .4423828 .45298768 .43937684 .44799806 .43138124 .43499757 .41137696 .4079895 .3683777 .37399293 .3683777 .35398866 .3683777 .34098817 .37937928 .31799317 .40538026 .2939911 .43138124 .2749939 .4423828 .24899292 .4423828 .17199707 .4423828 .125 .3503723 .125 .32536317 .125 .32235719 .1269989 .3143463 .13798523 .3143463 .147995 .3143463 .15098572 .32035829 .1519928 .32336427 .17098999 .3713684 .22999573 .3713684 .23799134 .3713684 .26098634 .3713684 .2849884 .36437989 .30699159 .35636903 .34700013 .34336854 .3639984 .34336854 .3789978 .34336854 .34799195 .3083496 .2919922 .2603302 .22898865 .20631409 .1789856 .16329956 .147995 .13328552 .12599182 .11126709 .08898926 .072250369 .04399109 .011245728 .04399109 .00024414063 .04399109-.0067443849 .04899597-.0107421879 .056991579-.0107421879 .06599426-.0107421879 .067993167-.0067443849 .07299805-.00074768069 .11199951 .059249879 .14898682 .06324768 .1599884 .06324768 .18499756 .06324768 .19898987 .04824829 .22099304 .022247315 .24398804-.002746582 .2659912-.0107421879 .28599549-.0107421879 .3889923-.0107421879 .44898988 .11727905 .44898988 .14428711 .44898988 .1532898 .44198609 .15629578 .43499757 .15629578 .4249878 .15629578 .4229889 .14929199 .42099 .14527893 .3939972 .071258548 .32299806 .060256959 .29699708 .060256959 .27799989 .060256959 .2579956 .06524658 .22799683 .07525635 .20799256 .08125305 .18399048 .088256839 .16299439 .088256839 .15299988 .088256839 .14299011 .086257938 .13899231 .08526611Z"/>
<path id="font_1_4" d="M.4039917 .40527345C.37098695 .39926148 .35398866 .3712616 .35398866 .3502655 .35398866 .3312683 .36799623 .31427003 .3929901 .31427003 .41999818 .31427003 .44799806 .337265 .44799806 .37426759 .44799806 .41334535 .4119873 .4423828 .36299134 .4423828 .28799439 .4423828 .24598694 .386261 .23199463 .3672638 .21998596 .42237855 .1749878 .4423828 .13699341 .4423828 .100997928 .4423828 .07798767 .42037965 .06098938 .38526917 .041992189 .34925843 .0289917 .29226686 .0289917 .28826905 .0289917 .27926637 .035995485 .27626039 .042999269 .27626039 .053985597 .27626039 .055999757 .28126527 .06098938 .30126954 .07998657 .38026429 .100997928 .41737367 .1349945 .41737367 .16499329 .41737367 .16499329 .38526917 .16499329 .37026979 .16499329 .34925843 .15699768 .31826783 .15098572 .29226686 .14399719 .26626588 .13398743 .2232666 .12998963 .21125794L.08999634 .04725647C.08299255 .023254395 .08299255 .021255494 .08299255 .018249512 .08299255 .0052490236 .09199524-.0107421879 .11399841-.0107421879 .1459961-.0107421879 .15299988 .01625061 .1599884 .04525757 .17199707 .088256839 .17199707 .09025574 .18199158 .1312561 .21899414 .28126527 .22499085 .30526734 .22698975 .31025697 .23298645 .32226563 .2789917 .41737367 .3619995 .41737367 .3849945 .41737367 .39898683 .40930177 .4039917 .40527345Z"/>
<path id="font_1_5" d="M.39698792 .37402345C.35398866 .37001039 .34999085 .3360138 .34999085 .32901 .34999085 .31201173 .36299134 .29901124 .38198854 .29901124 .4099884 .29901124 .42900086 .32202149 .42900086 .355011 .42900086 .40527345 .37998963 .4423828 .30599977 .4423828 .17199707 .4423828 .13398743 .3420105 .13398743 .2960205 .13398743 .25810243 .15299988 .23814392 .1659851 .22616577 .18598938 .2071991 .21299744 .20121765 .24899292 .19422913 .2939911 .1852417 .3039856 .18325806 .32199098 .17027283 .33799745 .15830994 .34700013 .14231873 .34700013 .12130737 .34700013 .0953064 .32299806 .014251709 .20199585 .014251709 .1789856 .014251709 .10899353 .01725769 .08699036 .063308719 .13699341 .063308719 .14698792 .10331726 .14698792 .11730957 .14698792 .14730835 .11999512 .15332031 .10899353 .15332031 .09098816 .15332031 .052993776 .13931275 .052993776 .08731079 .052993776 .025268555 .115997318-.0107421879 .20098877-.0107421879 .36898805-.0107421879 .4059906 .11231995 .4059906 .15530396 .4059906 .1932373 .3849945 .21717835 .37298585 .2291565 .34700013 .25610353 .31498719 .26208497 .27999879 .2690735 .2679901 .2720642 .24598694 .276062 .24299622 .27705384 .20999146 .28404237 .19198609 .3040161 .19198609 .32901 .19198609 .3400116 .19898987 .37200929 .22698975 .3941803 .25498963 .41636659 .29299928 .41737367 .30599977 .41737367 .34098817 .41737367 .38198854 .40628053 .39698792 .37402345Z"/>
<path id="font_1_3" d="M.30899049 .31378175H.47599793C.6380005 .31378175 .769989 .42474366 .769989 .5306854 .769989 .6096344 .69898989 .6826172 .56799319 .6826172H.23799134C.21998596 .6826172 .20799256 .6826172 .20799256 .6646118 .20799256 .6516113 .21699524 .6516113 .23799134 .6516113 .24198914 .6516113 .2599945 .6516113 .27598573 .6496124 .29299928 .6476135 .2999878 .6456146 .2999878 .63461306 .2999878 .6296234 .29899598 .6256256 .29599 .614624L.16099549 .07595825C.1519928 .039993287 .1499939 .0309906 .07499695 .0309906 .055999757 .0309906 .04499817 .0309906 .04499817 .0129852299 .04499817 .0019989014 .052993776 0 .05999756 0 .07899475 0 .10398865 .0009918213 .12298584 .0019989014 .15299988 .0029907227 .15499878 .0029907227 .18699646 .0029907227 .21899414 .0029907227 .22099304 .0029907227 .25099183 .0019989014 .2709961 .0009918213 .29699708 0 .31599427 0 .32299806 0 .33599855 0 .33599855 .017990113 .33599855 .0309906 .32598878 .0309906 .30499269 .0309906 .30099488 .0309906 .2829895 .0309906 .2669983 .032989503 .24499512 .035995485 .24398804 .039993287 .24398804 .048980714 .24398804 .051971437 .24398804 .053970338 .24899292 .07196045L.30899049 .31378175M.3809967 .6126251C.3899994 .64860537 .3919983 .6516113 .43399049 .6516113H.5349884C.61299136 .6516113 .6749878 .6276245 .6749878 .55467227 .6749878 .53367617 .6639862 .43972779 .6119995 .39175416 .58999636 .37176515 .5439911 .34179688 .45799256 .34179688H.31298829L.3809967 .6126251Z"/>
<path id="font_2_1" d="M.34098817-.23803711C.34098817-.23303223 .33799745-.23002625 .33198548-.22303772 .20298767-.105026248 .1639862 .07498169 .1639862 .24996948 .1639862 .40498353 .19400025 .59298709 .33499146 .72698977 .33898927 .73098757 .34098817 .73399356 .34098817 .7389984 .34098817 .74598696 .33599855 .75 .32899476 .75 .31698609 .75 .22698975 .6779785 .17298889 .568985 .125 .47297669 .100997928 .36997987 .100997928 .25097657 .100997928 .17897034 .10998535 .064971927 .16499329-.053024293 .22399903-.17602539 .31698609-.24902344 .32899476-.24902344 .33599855-.24902344 .34098817-.24502564 .34098817-.23803711Z"/>
<path id="font_2_7" d="M.10398865 .3444519C.10398865 .32641603 .10398865 .31539918 .117996219 .31539918 .12599182 .31539918 .1289978 .31941224 .1349945 .32843019 .16499329 .3704834 .21299744 .39453126 .2649994 .39453126 .37199403 .39453126 .37199403 .24029541 .37199403 .20425415 .37199403 .17324829 .37199403 .11125183 .34399415 .06637573 .31698609 .024475098 .2749939 .0055389406 .23599243 .0055389406 .1769867 .0055389406 .10998535 .042434694 .085998538 .116256717 .08699036 .116256717 .09298706 .11425781 .099990848 .11425781 .11999512 .11425781 .14898682 .12724304 .14898682 .16325379 .14898682 .19424439 .1269989 .21224976 .099990848 .21224976 .07899475 .21224976 .050994874 .20025635 .050994874 .1602478 .050994874 .069366458 .1269989-.022460938 .23799134-.022460938 .35899354-.022460938 .46199037 .0753479 .46199037 .19924927 .46199037 .3204193 .37599183 .41952516 .2669983 .41952516 .21899414 .41952516 .16999817 .40351869 .1349945 .36747743V.56477358C.16499329 .5557709 .19599915 .55078127 .22698975 .55078127 .34999085 .55078127 .42199708 .6397705 .42199708 .652771 .42199708 .6617737 .41600038 .6657715 .41099549 .6657715 .40899659 .6657715 .40699769 .6657715 .397995 .6607666 .35099793 .6417694 .30499269 .6337738 .2630005 .6337738 .21998596 .6337738 .1749878 .6417694 .1289978 .6607666 .11898804 .6657715 .116989139 .6657715 .115997318 .6657715 .10398865 .6657715 .10398865 .655777 .10398865 .6387787V.3444519Z"/>
<path id="font_1_2" d="M.18199158 .015991211C.18199158-.017044068 .18199158-.09921265 .10798645-.17036438 .101989749-.17636109 .101989749-.17736817 .101989749-.18136597 .101989749-.18836975 .10899353-.19335938 .114990238-.19335938 .12599182-.19335938 .20698548-.115249637 .20698548 .0019989014 .20698548 .06399536 .18499756 .10798645 .14199829 .10798645 .10798645 .10798645 .08799744 .08198547 .08799744 .053985597 .08799744 .025985718 .10798645 0 .14199829 0 .15699768 0 .17199707 .004989624 .18199158 .015991211Z"/>
<path id="font_2_5" d="M.46199037 .17704773H.43399049C.43199159 .16404724 .42399598 .10501099 .41099549 .08900452 .40499879 .07998657 .33599855 .07998657 .31599427 .07998657H.13798523L.23699951 .17404175C.40098573 .3161316 .46199037 .36915589 .46199037 .4711914 .46199037 .5860901 .36698915 .6660156 .24398804 .6660156 .1289978 .6660156 .050994874 .575119 .050994874 .4841919 .050994874 .43418885 .09399414 .42919923 .102996829 .42919923 .125 .42919923 .15499878 .44519044 .15499878 .48120118 .15499878 .51119998 .13398743 .5332031 .102996829 .5332031 .09799194 .5332031 .09498596 .5332031 .09098816 .53219607 .114990238 .6030731 .1789856 .63500979 .23298645 .63500979 .33499146 .63500979 .36999513 .5401764 .36999513 .4711914 .36999513 .36915589 .29299928 .28611756 .24499512 .23408509L.06199646 .035995485C.050994874 .024993897 .050994874 .022994996 .050994874 0H.43399049L.46199037 .17704773Z"/>
<path id="font_2_4" d="M.3039856 .6392822C.3039856 .6642761 .30299378 .666275 .27799989 .666275 .21598816 .60227969 .12399292 .60227969 .09298706 .60227969V.57128909C.11199951 .57128909 .17298889 .57128909 .22698975 .5972748V.08001709C.22698975 .042999269 .22399903 .0309906 .1309967 .0309906H.09899902V0C.1349945 .0029907227 .22399903 .0029907227 .2649994 .0029907227 .30599977 .0029907227 .3959961 .0029907227 .43199159 0V.0309906H.3999939C.30699159 .0309906 .3039856 .042999269 .3039856 .08001709V.6392822Z"/>
<path id="font_2_2" d="M.2979889 .25097657C.2979889 .3329773 .28599549 .4429779 .23399353 .5539856 .1749878 .6769867 .08198547 .75 .069992069 .75 .05999756 .75 .057998659 .74198916 .057998659 .7389984 .057998659 .73399356 .05999756 .73098757 .066986087 .72398379 .125 .6719818 .23498535 .5359802 .23498535 .25097657 .23498535 .10797119 .20899964-.091033939 .06399536-.22602844 .06199646-.22903443 .057998659-.23303223 .057998659-.23803711 .057998659-.24102783 .05999756-.24902344 .069992069-.24902344 .08198547-.24902344 .17199707-.17703247 .22599793-.06802368 .27398683 .02796936 .2979889 .13098145 .2979889 .25097657Z"/>
<path id="font_1_1" d="M.272995 .36865235H.3869934C.37199403 .30575563 .34599305 .20193482 .34599305 .11906433 .34599305 .112075809 .34599305 .075149539 .35499574 .03919983 .36499024 .0012512207 .37399293-.0107421879 .3939972-.0107421879 .4149933-.0107421879 .43699647 .007247925 .43699647 .030212403 .43699647 .037200929 .43598939 .04020691 .42999269 .05317688 .39898683 .123062137 .39898683 .19694519 .39898683 .21990967 .39898683 .24485779 .39898683 .28878785 .41600038 .36865235H.5329895C.54599 .36865235 .58299258 .36865235 .58299258 .4046631 .58299258 .43066407 .5609894 .43066407 .5419922 .43066407H.19599915C.17199707 .43066407 .13699341 .43066407 .08999634 .38365174 .06298828 .3566742 .026992798 .30177308 .026992798 .29377748 .026992798 .2828064 .037994386 .2828064 .040985109 .2828064 .04899597 .2828064 .050994874 .28479005 .056991579 .29478456 .10598755 .36865235 .16699219 .36865235 .18699646 .36865235H.24398804C.20098877 .21791077 .13198853 .07614136 .125 .061172487 .117996219 .047195436 .10798645 .026229859 .10798645 .018234253 .10798645 .0052490236 .116989139-.0107421879 .13899231-.0107421879 .1749878-.0107421879 .18399048 .025222779 .20498657 .10609436L.272995 .36865235Z"/>
<path id="font_2_8" d="M.19599915 .3766632C.19599915 .406662 .17199707 .43066407 .14199829 .43066407 .11199951 .43066407 .08799744 .406662 .08799744 .3766632 .08799744 .34765626 .11199951 .32266236 .14199829 .32266236 .17199707 .32266236 .19599915 .34765626 .19599915 .3766632M.19599915 .053985597C.19599915 .08299255 .17199707 .10798645 .14199829 .10798645 .11199951 .10798645 .08799744 .08299255 .08799744 .053985597 .08799744 .023986817 .11199951 0 .14199829 0 .17199707 0 .19599915 .023986817 .19599915 .053985597Z"/>
<path id="font_3_1" d="M.6749878 .22944641C.69299319 .22944641 .71199038 .22944641 .71199038 .25144959 .71199038 .27246095 .69200137 .27246095 .6749878 .27246095H.12298584C.10598755 .27246095 .085998538 .27246095 .085998538 .25144959 .085998538 .22944641 .10499573 .22944641 .12298584 .22944641H.6749878Z"/>
<path id="font_2_6" d="M.30499269 .35195924C.397995 .38697816 .44198609 .46006776 .44198609 .5290985 .44198609 .60606387 .35699464 .6660156 .25299073 .6660156 .14898682 .6660156 .070999149 .60705569 .070999149 .5310974 .070999149 .49809266 .09298706 .47909547 .12199402 .47909547 .15098572 .47909547 .17199707 .50009158 .17199707 .5290985 .17199707 .5640869 .147995 .57910159 .11399841 .57910159 .13999939 .6210327 .20098877 .64100649 .25 .64100649 .33299256 .64100649 .34899903 .5750885 .34899903 .52809146 .34899903 .49809266 .34298707 .45005799 .31799317 .41201783 .2869873 .36695863 .2519989 .36495973 .22299195 .36296083 .19799805 .36094667 .19599915 .36094667 .18798828 .36094667 .1789856 .35995484 .17098999 .35894776 .17098999 .34794618 .17098999 .33496095 .1789856 .33496095 .19599915 .33496095H.24299622C.32998658 .33496095 .36799623 .2646637 .36799623 .16937256 .36799623 .04145813 .2999878 .0055389406 .24899292 .0055389406 .22999573 .0055389406 .1329956 .010528564 .08799744 .0843811 .12399292 .07939148 .1519928 .10437012 .1519928 .13838196 .1519928 .17137146 .1269989 .19238281 .09799194 .19238281 .07299805 .19238281 .042999269 .17736817 .042999269 .13537598 .042999269 .046447755 .13598633-.022460938 .2519989-.022460938 .3769989-.022460938 .46998597 .06741333 .46998597 .16937256 .46998597 .25663758 .40098573 .33093263 .30499269 .35195924Z"/>
<path id="font_2_3" d="M.70599368 .22944641C.7200012 .22944641 .7409973 .22944641 .7409973 .25045777 .7409973 .27246095 .7220001 .27246095 .70599368 .27246095H.42099V.5578003C.42099 .573761 .42099 .59277346 .39898683 .59277346 .37799073 .59277346 .37799073 .57177737 .37799073 .5578003V.27246095H.09199524C.07798767 .27246095 .056991579 .27246095 .056991579 .25144959 .056991579 .22944641 .07598877 .22944641 .09199524 .22944641H.37799073V-.056793214C.37799073-.07279968 .37799073-.091796878 .3999939-.091796878 .42099-.091796878 .42099-.07080078 .42099-.056793214V.22944641H.70599368Z"/>
<path id="font_2_9" d="M.70799258 .3310089C.7220001 .3310089 .7409973 .3310089 .7409973 .35202027 .7409973 .37402345 .71899417 .37402345 .70399478 .37402345H.09399414C.07899475 .37402345 .056991579 .37402345 .056991579 .35202027 .056991579 .3310089 .07699585 .3310089 .08999634 .3310089H.70799258M.70399478 .12695313C.71899417 .12695313 .7409973 .12695313 .7409973 .14894104 .7409973 .1699524 .7220001 .1699524 .70799258 .1699524H.08999634C.07699585 .1699524 .056991579 .1699524 .056991579 .14894104 .056991579 .12695313 .07899475 .12695313 .09399414 .12695313H.70399478Z"/>
</defs>
<path transform="matrix(1,0,0,-1,86.724,108.75099)" stroke-width=".79701" stroke-linecap="butt" stroke-miterlimit="10" stroke-linejoin="miter" fill="none" stroke="#7f807f" d="M0 0-31.1102-23.33324"/>
<path transform="matrix(-.79997,.59999,.59999,.79997,55.29501,132.32332)" stroke-width=".79701" stroke-linecap="round" stroke-linejoin="round" fill="none" stroke="#7f807f" d="M-2.55046 3.11095C-2.0845 1.24435-1.04614 .36295 0 0-1.04614-.36295-2.0845-1.24435-2.55046-3.11095"/>
<use data-text="x" xlink:href="#font_1_6" transform="matrix(8.96638,0,0,-8.96638,46.035,134.49199)" fill="#7f807f"/>
<path transform="matrix(1,0,0,-1,86.724,108.75099)" stroke-width=".79701" stroke-linecap="butt" stroke-miterlimit="10" stroke-linejoin="miter" fill="none" stroke="#7f807f" d="M0 0H98.41638"/>
<path transform="matrix(1,0,0,-1,185.53891,108.75099)" stroke-width=".79701" stroke-linecap="round" stroke-linejoin="round" fill="none" stroke="#7f807f" d="M-2.55046 3.11095C-2.0845 1.24435-1.04614 .36295 0 0-1.04614-.36295-2.0845-1.24435-2.55046-3.11095"/>
<use data-text="y" xlink:href="#font_1_7" transform="matrix(8.96638,0,0,-8.96638,189.656,109.81)" fill="#7f807f"/>
<path transform="matrix(1,0,0,-1,86.724,108.75099)" stroke-width=".79701" stroke-linecap="butt" stroke-miterlimit="10" stroke-linejoin="miter" fill="none" stroke="#7f807f" d="M0 0V78.5737"/>
<path transform="matrix(0,-1,-1,-0,86.724,29.778794)" stroke-width=".79701" stroke-linecap="round" stroke-linejoin="round" fill="none" stroke="#7f807f" d="M-2.55046 3.11095C-2.0845 1.24435-1.04614 .36295 0 0-1.04614-.36295-2.0845-1.24435-2.55046-3.11095"/>
<use data-text="z" xlink:href="#font_1_8" transform="matrix(8.96638,0,0,-8.96638,84.388,25.662003)" fill="#7f807f"/>
<path transform="matrix(1,0,0,-1,86.724,108.75099)" stroke-width="1.19553" stroke-linecap="butt" stroke-miterlimit="10" stroke-linejoin="miter" fill="none" stroke="#2471a3" d="M-35.71657-51.59106 23.81207 17.858"/>
<use data-text="r" xlink:href="#font_1_4" transform="matrix(8.96638,0,0,-8.96638,114.056,92.82398)" fill="#2471a3"/>
<path transform="matrix(1,0,0,-1,86.724,108.75099)" stroke-width="1.19553" stroke-linecap="butt" stroke-miterlimit="10" stroke-linejoin="miter" fill="none" stroke="#b30000" d="M-31.7484 105.16624-15.87326-21.82733"/>
<use data-text="s" xlink:href="#font_1_5" transform="matrix(8.96638,0,0,-8.96638,74.371,132.508)" fill="#b30000"/>
<path transform="matrix(1,0,0,-1,86.724,108.75099)" d="M2.09277-9.92162C2.09277-8.76613 1.15608-7.82944 .0006-7.82944-1.15488-7.82944-2.09155-8.76613-2.09155-9.92162-2.09155-11.0771-1.15488-12.01378 .0006-12.01378 1.15608-12.01378 2.09277-11.0771 2.09277-9.92162ZM.0006-9.92162" fill="#1e8449" fill-opacity=".3"/>
<use data-text="P" xlink:href="#font_1_3" transform="matrix(8.96638,0,0,-8.96638,90.244998,112.910999)" fill="#1e8449"/>
<use data-text="(" xlink:href="#font_2_1" transform="matrix(8.96638,0,0,-8.96638,97.40899,112.910999)" fill="#1e8449"/>
<use data-text="5" xlink:href="#font_2_7" transform="matrix(8.96638,0,0,-8.96638,100.995548,112.910999)" fill="#1e8449"/>
<use data-text="," xlink:href="#font_1_2" transform="matrix(8.96638,0,0,-8.96638,105.59999,112.910999)" fill="#1e8449"/>
<use data-text="2" xlink:href="#font_2_5" transform="matrix(8.96638,0,0,-8.96638,109.69599,112.910999)" fill="#1e8449"/>
<use data-text="," xlink:href="#font_1_2" transform="matrix(8.96638,0,0,-8.96638,114.30299,112.910999)" fill="#1e8449"/>
<use data-text="1" xlink:href="#font_2_4" transform="matrix(8.96638,0,0,-8.96638,118.398998,112.910999)" fill="#1e8449"/>
<use data-text=")" xlink:href="#font_2_2" transform="matrix(8.96638,0,0,-8.96638,123.00771,112.910999)" fill="#1e8449"/>
<path transform="matrix(1,0,0,-1,86.724,108.75099)" d="M-27.77962-25.79553-83.33826 1.9838 35.7178-17.85886 91.27644-45.6382Z" fill="#1b4f72" fill-opacity=".12"/>
<path transform="matrix(1,0,0,-1,86.724,108.75099)" stroke-width=".79701" stroke-linecap="butt" stroke-dasharray="2.98883,2.98883" stroke-miterlimit="10" stroke-linejoin="miter" fill="none" stroke="#1b4f72" d="M-27.77962-25.79553-83.33826 1.9838 35.7178-17.85886 91.27644-45.6382Z"/>
<use data-text="&#x03c0;" xlink:href="#font_1_1" transform="matrix(8.96638,0,0,-8.96638,102.477,137.556)" fill="#1b4f72"/>
<use data-text=":" xlink:href="#font_2_8" transform="matrix(8.96638,0,0,-8.96638,109.097,137.556)" fill="#1b4f72"/>
<use data-text="2" xlink:href="#font_2_5" transform="matrix(8.96638,0,0,-8.96638,114.72789,137.556)" fill="#1b4f72"/>
<use data-text="x" xlink:href="#font_1_6" transform="matrix(8.96638,0,0,-8.96638,119.336,137.556)" fill="#1b4f72"/>
<use data-text="&#x2212;" xlink:href="#font_3_1" transform="matrix(8.96638,0,0,-8.96638,126.607,137.556)" fill="#1b4f72"/>
<use data-text="3" xlink:href="#font_2_6" transform="matrix(8.96638,0,0,-8.96638,135.823,137.556)" fill="#1b4f72"/>
<use data-text="y" xlink:href="#font_1_7" transform="matrix(8.96638,0,0,-8.96638,140.431,137.556)" fill="#1b4f72"/>
<use data-text="+" xlink:href="#font_2_3" transform="matrix(8.96638,0,0,-8.96638,147.339,137.556)" fill="#1b4f72"/>
<use data-text="z" xlink:href="#font_1_8" transform="matrix(8.96638,0,0,-8.96638,156.554,137.556)" fill="#1b4f72"/>
<use data-text="=" xlink:href="#font_2_9" transform="matrix(8.96638,0,0,-8.96638,163.787,137.556)" fill="#1b4f72"/>
<use data-text="5" xlink:href="#font_2_7" transform="matrix(8.96638,0,0,-8.96638,173.50656,137.556)" fill="#1b4f72"/>
</svg>
