<svg xmlns="http://www.w3.org/2000/svg" xmlns:xlink="http://www.w3.org/1999/xlink" xmlns:inkscape="http://www.inkscape.org/namespaces/inkscape" version="1.1" width="156.352" height="156.352" viewBox="0 0 156.352 156.352">
<defs>
<path id="font_1_82" d="M.55400088 0V.04399109H.5039978C.397995 .04399109 .397995 .054977418 .397995 .08596802V.6358185C.397995 .6660156 .394989 .6660156 .3619995 .6660156 .29100038 .6016083 .17999268 .6016083 .1599884 .6016083H.14299011V.5576172H.1599884C.18299866 .5576172 .24798584 .5606079 .30599977 .58561709V.08596802C.30599977 .054977418 .30599977 .04399109 .19999695 .04399109H.1499939V0C.20498657 .0039978029 .2939911 .0039978029 .35198976 .0039978029 .4099884 .0039978029 .49899293 .0039978029 .55400088 0Z"/>
<path id="font_1_107" d="M.58898928 .19299317H.5469971C.5439911 .17399597 .5339966 .11199951 .5179901 .101989749 .5099945 .09599304 .42599488 .09599304 .41099549 .09599304H.21499634C.2809906 .14498902 .35499574 .20098877 .4149933 .24099732 .5049896 .30300904 .58898928 .3610077 .58898928 .4670105 .58898928 .5950012 .46798707 .6660156 .32499696 .6660156 .18998719 .6660156 .09098816 .58795168 .09098816 .48986817 .09098816 .4378662 .1349945 .42886354 .14898682 .42886354 .17599488 .42886354 .20799256 .4468689 .20799256 .48786927 .20799256 .52386477 .18199158 .543869 .15098572 .546875 .1789856 .59194949 .23699951 .6220093 .3039856 .6220093 .40098573 .6220093 .48199464 .5639038 .48199464 .4658661 .48199464 .3818817 .42399598 .31791688 .34700013 .2529297L.102996829 .04598999C.09298706 .036987306 .09199524 .036987306 .09098816 .02999878V0H.55599978L.58898928 .19299317Z"/>
<path id="font_1_106" d="M.59999087 .17382813C.59999087 .25582887 .5269928 .32583619 .41299439 .35183717 .5329895 .39083863 .5649872 .46684266 .5649872 .5228424 .5649872 .60491946 .46299745 .6660156 .33699037 .6660156 .21398926 .6660156 .114990238 .61395266 .114990238 .5238342 .114990238 .47683717 .15299988 .46484376 .17199707 .46484376 .20098877 .46484376 .22898865 .48583985 .22898865 .5218353 .22898865 .5448303 .21699524 .5728302 .18099976 .57884219 .22399903 .625 .31298829 .628006 .33399964 .628006 .40699769 .628006 .45899964 .5908661 .45899964 .5228424 .45899964 .46484376 .42099 .37384034 .31599427 .36782838 .28799439 .36683656 .28399659 .36582948 .2579956 .36483766 .24699402 .36383058 .23599243 .36283876 .23599243 .34783937 .23599243 .3310547 .24598694 .3310547 .2639923 .3310547H.32998658C.42199708 .3310547 .48298646 .2737732 .48298646 .17437744 .48298646 .07237244 .41999818 .01852417 .33099366 .01852417 .31999208 .01852417 .20098877 .01852417 .1499939 .070373538 .19099427 .07637024 .20298767 .1073761 .20298767 .13137818 .20298767 .16838074 .1749878 .19238281 .14199829 .19238281 .10998535 .19238281 .07998657 .17137146 .07998657 .12937927 .07998657 .025512696 .19799805-.022460938 .33399964-.022460938 .49798585-.022460938 .59999087 .07637024 .59999087 .17337036V.17382813Z"/>
<path id="font_1_57" d="M.61698916 .1630249V.20703125H.49198915V.6467743C.49198915 .6707611 .4909973 .6767578 .46499635 .6767578 .44499208 .6767578 .44400025 .67575076 .43299867 .6617584L.06298828 .20703125V.1630249H.3959961V.085006717C.3959961 .054000856 .3959961 .04399109 .30899049 .04399109H.27398683V0L.44400025 .0039978029 .6139984 0V.04399109H.57899478C.49198915 .04399109 .49198915 .054000856 .49198915 .085006717V.1630249H.61698916M.4039917 .20703125H.10998535L.4039917 .56881716V.20703125Z"/>
<path id="font_1_56" d="M.58898928 .20191956C.58898928 .3149109 .49198915 .41992188 .35299684 .41992188 .2899933 .41993714 .23899842 .4039154 .19599915 .37088014V.55107119C.24899292 .53808596 .2939911 .53808596 .30499269 .53808596 .37298585 .53808596 .4229889 .55807498 .44898988 .5720825 .47299195 .5840759 .54100039 .6270752 .54100039 .64904788 .54100039 .6640167 .5299988 .6660156 .5269928 .6660156 .5269928 .6660156 .522995 .6660156 .5119934 .661026 .47399903 .6480408 .4119873 .634079 .34599305 .634079 .2889862 .634079 .23399353 .6440582 .18099976 .6620178 .16999817 .6660156 .1659851 .6660156 .1659851 .6660156 .1519928 .6660156 .1519928 .6540375 .1519928 .6380768V.33789063C.1519928 .3209076 .1519928 .3079071 .17098999 .3079071 .18199158 .3079071 .18299866 .30992127 .19198609 .3209076 .22999573 .36489869 .2829895 .3869171 .35099793 .3869171 .40899659 .3869171 .44099427 .35289 .45498658 .3318634 .47799684 .2978363 .48298646 .25279237 .48298646 .20477295 .48298646 .1627655 .47898866 .10676575 .43998719 .06765747 .394989 .02154541 .33799745 .01852417 .31599427 .01852417 .25099183 .01852417 .17799378 .04660034 .14698792 .10575867 .18899536 .10876465 .20298767 .13876343 .20298767 .16175843 .20298767 .19377136 .1789856 .21777344 .14698792 .21777344 .125 .21777344 .09098816 .20477295 .09098816 .1587677 .09098816 .060638429 .18699646-.022460938 .31799317-.022460938 .46699525-.022537232 .58898928 .07745361 .58898928 .20146179V.20191956Z"/>
<path id="font_1_101" d="M.59999087 .20472718C.59999087 .2657318 .5799866 .31472779 .5279999 .36073304 .48399354 .40072633 .43798829 .42773438 .35099793 .42773438 .29299928 .42773438 .22799683 .39971925 .18598938 .32772828 .18699646 .37373353 .18798828 .45272828 .22399903 .517746 .25299073 .5718231 .31799317 .628006 .41099549 .628006 .42999269 .628006 .47499085 .6260071 .5049896 .60191348 .4889984 .5979004 .46299745 .5828552 .46299745 .54875186 .46299745 .51708987 .4869995 .49609376 .5159912 .49609376 .5329895 .4957428 .56900027 .5047455 .56900027 .5517578 .56900027 .60598757 .5309906 .6660156 .4099884 .6660156 .23799134 .6660156 .07998657 .5249176 .07998657 .31776429 .07998657 .07858276 .19699097-.022460938 .34298707-.022460938 .44198609-.022460938 .4889984 .014526367 .522995 .042556764 .58699038 .095565799 .59999087 .15460205 .59999087 .20463562V.20472718M.49398805 .20562744C.49398805 .14759827 .49398805 .109573367 .46199037 .06956482 .43399049 .0365448 .39898683 .01852417 .34298707 .01852417 .18899536 .01852417 .18899536 .18461609 .18899536 .2266388 .18899536 .30368043 .24398804 .39372254 .34899903 .39372254 .3999939 .3939972 .43199159 .3809967 .46299745 .34098817 .49299623 .3039856 .49398805 .2619934 .49398805 .20599365V.20562744Z"/>
<path id="font_1_100" d="M.6349945 .6158447V.6438446H.3929901C.36698915 .6438446 .22099304 .6478424 .20298767 .65083315 .17999268 .65582278 .1789856 .665802 .1769867 .67578127H.1349945L.09700012 .4507904H.13899231C.14099121 .46580506 .1519928 .530838 .16899109 .5418396 .1749878 .5468445 .2689972 .54785159 .28399659 .54785159H.5219879C.47999574 .49882508 .42599488 .4447937 .3869934 .3957672 .2679901 .24368286 .25299073 .099594119 .25299073 .03855896 .25299073-.016464234 .28799439-.022460938 .30599977-.022460938 .35899354-.022460938 .35899354 .028564454 .35899354 .04057312V.060577394C.35899354 .23867798 .39698792 .34873963 .45700074 .41477967L.625 .59983828C.6339874 .60884097 .6339874 .61083987 .6349945 .6158447Z"/>
<path id="font_1_51" d="M.59999087 .17100525C.59999087 .28001405 .49598695 .3310089 .42900086 .3610077 .5319977 .40400697 .5649872 .45700074 .5649872 .51400759 .5649872 .6180115 .44999696 .6660156 .34098817 .6660156 .21699524 .6660156 .114990238 .5960083 .114990238 .4960022 .114990238 .40382386 .19400025 .36279298 .24598694 .3357849 .13999939 .29473878 .07998657 .23570252 .07998657 .15364075 .07998657 .03353882 .21299744-.022460938 .33898927-.022460938 .47898866-.022460938 .59999087 .05255127 .59999087 .1706543V.17100525M.5029907 .51290896C.5029907 .42485047 .3880005 .38381959 .3880005 .38381959 .3880005 .38381959 .38598634 .38381959 .3769989 .38882447L.23298645 .46287538C.18998719 .4848938 .1769867 .51091006 .1769867 .53492739 .1769867 .59898379 .25898744 .628006 .33898927 .628006 .4189911 .62753298 .5029907 .5885315 .5029907 .51252749V.51290896M.5309906 .13453675C.5309906 .053527833 .42999269 .01852417 .34098817 .01852417 .25 .01852417 .14898682 .0635376 .14898682 .15452576 .14898682 .25352479 .25698854 .29953004 .2889862 .3135376L.44400025 .23452759C.47999574 .21598816 .5309906 .18899536 .5309906 .1349945V.13453675Z"/>
<path id="font_1_78" d="M.59999087 .3279724C.59999087 .56999209 .48199464 .6660156 .34399415 .6660156 .24398804 .6660156 .19499207 .63101199 .15499878 .5970001 .09298706 .54599 .07998657 .4909973 .07998657 .43998719 .07998657 .38298036 .09700012 .3319702 .15098572 .28497315 .19799805 .2427826 .24398804 .21679688 .32899476 .21679688 .36999513 .21679688 .44198609 .23078919 .49398805 .3177948 .49398805 .25479127 .48999024 .17874146 .45599366 .119659427 .4229889 .061584474 .3639984 .01852417 .2829895 .01852417 .27198792 .01852417 .21099854 .01852417 .1769867 .042556764 .20199585 .049453737 .21699524 .06845093 .21699524 .094451908 .21699524 .12644959 .19299317 .14746094 .1639862 .14746094 .14698792 .14746094 .11099243 .13845825 .11099243 .09144592 .11099243-.022460938 .2579956-.022460938 .2849884-.022460938 .45298768-.022460938 .59999087 .12045288 .59999087 .3279724M.4909973 .41996766C.4909973 .3369751 .43199159 .25097657 .33099366 .25097657 .29100038 .25097657 .25299073 .2579651 .21699524 .30296327 .18699646 .3400116 .18598938 .38101197 .18598938 .44000245 .18598938 .51200869 .18899536 .54200747 .22698975 .58200076 .24198914 .5990143 .27198792 .628006 .34399415 .628006 .4909973 .628006 .4909973 .4630127 .4909973 .42001344V.41996766Z"/>
</defs>
<path transform="matrix(1,0,0,-1,22.073,134.279)" stroke-width=".19925" stroke-linecap="butt" stroke-miterlimit="10" stroke-linejoin="miter" fill="none" stroke="#d2d2d2" d="M-11.9056-11.9056H119.05606M-11.9056 0H119.05606M-11.9056 11.9056H119.05606M-11.9056 23.8112H119.05606M-11.9056 35.71681H119.05606M-11.9056 47.62242H119.05606M-11.9056 59.52802H119.05606M-11.9056 71.43364H119.05606M-11.9056 83.33925H119.05606M-11.9056 95.24486H119.05606M-11.9056 107.15045H119.05606M-11.9056 119.05188H119.05606M-11.9056-11.9056V119.05606M0-11.9056V119.05606M11.9056-11.9056V119.05606M23.8112-11.9056V119.05606M35.71681-11.9056V119.05606M47.62242-11.9056V119.05606M59.52802-11.9056V119.05606M71.43364-11.9056V119.05606M83.33925-11.9056V119.05606M95.24486-11.9056V119.05606M107.15045-11.9056V119.05606M119.05188-11.9056V119.05606M119.05606 119.05606"/>
<path transform="matrix(1,0,0,-1,22.073,134.279)" stroke-width=".3985" stroke-linecap="butt" stroke-miterlimit="10" stroke-linejoin="miter" fill="none" stroke="#b2b3b2" d="M-11.9056 0H123.41974"/>
<path transform="matrix(1,0,0,-1,145.69199,134.279)" stroke-width=".3985" stroke-linecap="round" stroke-linejoin="round" fill="none" stroke="#b2b3b2" d="M-2.07224 2.39104C-1.69365 .95639-.84999 .27895 0 0-.84999-.27895-1.69365-.95639-2.07224-2.39104"/>
<path transform="matrix(1,0,0,-1,22.073,134.279)" stroke-width=".3985" stroke-linecap="butt" stroke-miterlimit="10" stroke-linejoin="miter" fill="none" stroke="#b2b3b2" d="M0-11.9056V123.41974"/>
<path transform="matrix(0,-1,-1,-0,22.073,10.660019)" stroke-width=".3985" stroke-linecap="round" stroke-linejoin="round" fill="none" stroke="#b2b3b2" d="M-2.07224 2.39104C-1.69365 .95639-.84999 .27895 0 0-.84999-.27895-1.69365-.95639-2.07224-2.39104"/>
<use data-text="1" xlink:href="#font_1_82" transform="matrix(4.98132,0,0,-4.98132,32.281999,140.70001)" fill="#7f807f"/>
<use data-text="2" xlink:href="#font_1_107" transform="matrix(4.98132,0,0,-4.98132,44.188,140.70001)" fill="#7f807f"/>
<use data-text="3" xlink:href="#font_1_106" transform="matrix(4.98132,0,0,-4.98132,56.093004,140.645)" fill="#7f807f"/>
<use data-text="4" xlink:href="#font_1_57" transform="matrix(4.98132,0,0,-4.98132,67.999,140.727)" fill="#7f807f"/>
<use data-text="5" xlink:href="#font_1_56" transform="matrix(4.98132,0,0,-4.98132,79.904,140.645)" fill="#7f807f"/>
<use data-text="6" xlink:href="#font_1_101" transform="matrix(4.98132,0,0,-4.98132,91.81,140.645)" fill="#7f807f"/>
<use data-text="7" xlink:href="#font_1_100" transform="matrix(4.98132,0,0,-4.98132,103.715,140.67002)" fill="#7f807f"/>
<use data-text="8" xlink:href="#font_1_51" transform="matrix(4.98132,0,0,-4.98132,115.619998,140.645)" fill="#7f807f"/>
<use data-text="9" xlink:href="#font_1_78" transform="matrix(4.98132,0,0,-4.98132,127.526,140.645)" fill="#7f807f"/>
<use data-text="1" xlink:href="#font_1_82" transform="matrix(4.98132,0,0,-4.98132,15.615,124.032009)" fill="#7f807f"/>
<use data-text="2" xlink:href="#font_1_107" transform="matrix(4.98132,0,0,-4.98132,15.615,112.12701)" fill="#7f807f"/>
<use data-text="3" xlink:href="#font_1_106" transform="matrix(4.98132,0,0,-4.98132,15.615,100.16701)" fill="#7f807f"/>
<use data-text="4" xlink:href="#font_1_57" transform="matrix(4.98132,0,0,-4.98132,15.615,88.343)" fill="#7f807f"/>
<use data-text="5" xlink:href="#font_1_56" transform="matrix(4.98132,0,0,-4.98132,15.615,76.356)" fill="#7f807f"/>
<use data-text="6" xlink:href="#font_1_101" transform="matrix(4.98132,0,0,-4.98132,15.615,64.450008)" fill="#7f807f"/>
<use data-text="7" xlink:href="#font_1_100" transform="matrix(4.98132,0,0,-4.98132,15.615,52.570009)" fill="#7f807f"/>
<use data-text="8" xlink:href="#font_1_51" transform="matrix(4.98132,0,0,-4.98132,15.615,40.639009)" fill="#7f807f"/>
<use data-text="9" xlink:href="#font_1_78" transform="matrix(4.98132,0,0,-4.98132,15.615,28.734009)" fill="#7f807f"/>
<path transform="matrix(1,0,0,-1,22.073,134.279)" stroke-width=".79701" stroke-linecap="butt" stroke-miterlimit="10" stroke-linejoin="miter" fill="none" stroke="#000000" d="M0 0V112.20766H112.20766V0ZM112.20766 112.20766"/>
<path transform="matrix(1,0,0,-1,22.073,134.279)" stroke-width=".79701" stroke-linecap="butt" stroke-miterlimit="10" stroke-linejoin="miter" fill="none" stroke="#0000b3" d="M0 0 .94283 1.47891 1.88567 2.94913 2.8285 4.40065 3.77135 5.82489 4.71419 7.21227 5.65703 8.55495 6.59988 9.84369 7.54271 11.07066 8.48555 12.22841 9.4284 13.30913 10.37125 14.30702 11.31409 15.21443 12.25694 16.02739 13.19978 16.73917 14.14262 17.34665 15.08545 17.84422 16.0283 18.23117 16.97115 18.50313 17.91399 18.65936 18.85683 18.69896 19.79967 18.62083 20.74251 18.42647 21.68535 18.11618 22.6282 17.69254 23.57104 17.15735 24.51389 16.5159 25.45673 15.76979 26.39957 14.92595 27.3424 13.98674 28.28525 12.96143 29.22809 11.85435 30.17093 10.67319 31.11377 9.42477 32.05661 8.11751 32.99947 6.7592 33.9423 5.35875 34.88515 3.92467 35.82799 2.46573 36.77083 .99152 37.71367-.48848 38.65651-1.96542 39.59935-3.43073 40.54219-4.87444 41.48503-6.28725 42.42787-7.66061 43.37071-8.98642 44.31357-10.2557 45.25641-11.46088 46.19925-12.59373 47.14209-13.64812 48.08493-14.61658 49.02777-15.49384 49.97061-16.27336 50.91345-16.9517 51.8563-17.52304 52.79913-17.98502 53.74199-18.33362 54.68483-18.56798 55.62767-18.68533 56.57053-18.68588 57.51337-18.56961 58.45619-18.33655 59.39905-17.98901 60.34189-17.52814 61.28473-16.95787 62.22755-16.28044 63.17041-15.50238 64.11325-14.62549 65.05608-13.6583 65.99895-12.60481 66.94179-11.4725 67.88463-10.26825 68.82747-8.99948 69.77031-7.67442 70.71315-6.30139 71.65599-4.8886 72.59883-3.44527 73.54167-1.98048 74.48451-.503 75.42735 .97661 76.37021 2.45082 77.31305 3.91014 78.25589 5.34439 79.19873 6.74557 80.14157 8.10406 81.08441 9.41187 82.02725 10.661 82.9701 11.84291 83.91293 12.95071 84.85577 13.97711 85.79861 14.91687 86.74146 15.7618 87.68431 16.50916 88.62715 17.15135 89.56999 17.68799 90.51283 18.11218 91.45567 18.4241 92.39851 18.61902 93.34135 18.69896 94.2842 18.66045 95.22704 18.50511 96.16988 18.23445 97.11273 17.84894 98.05557 17.3521 98.99841 16.74533 99.94125 16.0352 100.88411 15.22334 101.82693 14.31665 102.76978 13.31967 103.71263 12.23985 104.65547 11.08246 105.5983 9.85623 106.54115 8.56804 107.484 7.22626 108.42682 5.83923 109.36969 4.41534 110.31253 2.96385 111.25537 1.49382 112.1982 .0147"/>
<path transform="matrix(1,0,0,-1,22.073,134.279)" stroke-width=".79701" stroke-linecap="butt" stroke-miterlimit="10" stroke-linejoin="miter" fill="none" stroke="#0000b3" d="M0 112.20766 .94283 110.72871 1.88567 109.2585 2.8285 107.80699 3.77135 106.38274 4.71419 104.99536 5.65703 103.65268 6.59988 102.36394 7.54271 101.13698 8.48555 99.97922 9.4284 98.8985 10.37125 97.9006 11.31409 96.9932 12.25694 96.18025 13.19978 95.46848 14.14262 94.861 15.08545 94.36342 16.0283 93.97647 16.97115 93.70451 17.91399 93.54826 18.85683 93.50867 19.79967 93.58679 20.74251 93.78117 21.68535 94.09145 22.6282 94.5151 23.57104 95.0503 24.51389 95.69174 25.45673 96.43785 26.39957 97.28168 27.3424 98.22089 28.28525 99.2462 29.22809 100.35327 30.17093 101.53447 31.11377 102.78287 32.05661 104.09013 32.99947 105.44844 33.9423 106.84889 34.88515 108.28296 35.82799 109.7419 36.77083 111.21611 37.71367 112.69615 38.65651 114.17308 39.59935 115.6384 40.54219 117.08209 41.48503 118.4949 42.42787 119.86829 43.37071 121.19409 44.31357 122.46338 45.25641 123.66855 46.19925 124.8014 47.14209 125.85579 48.08493 126.82425 49.02777 127.7015 49.97061 128.48104 50.91345 129.15938 51.8563 129.73072 52.79913 130.19269 53.74199 130.54129 54.68483 130.77565 55.62767 130.89299 56.57053 130.89356 57.51337 130.77729 58.45619 130.5442 59.39905 130.19669 60.34189 129.7358 61.28473 129.16555 62.22755 128.48812 63.17041 127.71005 64.11325 126.83316 65.05608 125.86595 65.99895 124.81248 66.94179 123.68018 67.88463 122.4759 68.82747 121.20715 69.77031 119.8821 70.71315 118.50906 71.65599 117.09625 72.59883 115.65294 73.54167 114.18816 74.48451 112.71068 75.42735 111.23102 76.37021 109.7568 77.31305 108.29749 78.25589 106.86324 79.19873 105.46207 80.14157 104.10356 81.08441 102.79576 82.02725 101.54665 82.9701 100.36472 83.91293 99.25691 84.85577 98.23051 85.79861 97.29076 86.74146 96.44585 87.68431 95.69847 88.62715 95.05627 89.56999 94.51965 90.51283 94.09544 91.45567 93.78354 92.39851 93.58861 93.34135 93.50867 94.2842 93.5472 95.22704 93.70251 96.16988 93.97319 97.11273 94.35869 98.05557 94.85553 98.99841 95.46231 99.94125 96.17244 100.88411 96.9843 101.82693 97.89099 102.76978 98.88797 103.71263 99.96777 104.65547 101.12517 105.5983 102.3514 106.54115 103.6396 107.484 104.98137 108.42682 106.3684 109.36969 107.79228 110.31253 109.24377 111.25537 110.7138 112.1982 112.19293"/>
<path transform="matrix(1,0,0,-1,22.073,134.279)" stroke-width=".79701" stroke-linecap="butt" stroke-miterlimit="10" stroke-linejoin="miter" fill="none" stroke="#0000b3" d="M0 0 1.47891 .94283 2.94913 1.88567 4.40065 2.8285 5.82489 3.77135 7.21227 4.71419 8.55495 5.65703 9.84369 6.59988 11.07066 7.54271 12.22841 8.48555 13.30913 9.4284 14.30702 10.37125 15.21443 11.31409 16.02739 12.25694 16.73917 13.19978 17.34665 14.14262 17.84422 15.08545 18.23117 16.0283 18.50313 16.97115 18.65936 17.91399 18.69896 18.85683 18.62083 19.79967 18.42647 20.74251 18.11618 21.68535 17.69254 22.6282 17.15735 23.57104 16.5159 24.51389 15.76979 25.45673 14.92595 26.39957 13.98674 27.3424 12.96143 28.28525 11.85435 29.22809 10.67319 30.17093 9.42477 31.11377 8.11751 32.05661 6.7592 32.99947 5.35875 33.9423 3.92467 34.88515 2.46573 35.82799 .99152 36.77083-.48848 37.71367-1.96542 38.65651-3.43073 39.59935-4.87444 40.54219-6.28725 41.48503-7.66061 42.42787-8.98642 43.37071-10.2557 44.31357-11.46088 45.25641-12.59373 46.19925-13.64812 47.14209-14.61658 48.08493-15.49384 49.02777-16.27336 49.97061-16.9517 50.91345-17.52304 51.8563-17.98502 52.79913-18.33362 53.74199-18.56798 54.68483-18.68533 55.62767-18.68588 56.57053-18.56961 57.51337-18.33655 58.45619-17.98901 59.39905-17.52814 60.34189-16.95787 61.28473-16.28044 62.22755-15.50238 63.17041-14.62549 64.11325-13.6583 65.05608-12.60481 65.99895-11.4725 66.94179-10.26825 67.88463-8.99948 68.82747-7.67442 69.77031-6.30139 70.71315-4.8886 71.65599-3.44527 72.59883-1.98048 73.54167-.503 74.48451 .97661 75.42735 2.45082 76.37021 3.91014 77.31305 5.34439 78.25589 6.74557 79.19873 8.10406 80.14157 9.41187 81.08441 10.661 82.02725 11.84291 82.9701 12.95071 83.91293 13.97711 84.85577 14.91687 85.79861 15.7618 86.74146 16.50916 87.68431 17.15135 88.62715 17.68799 89.56999 18.11218 90.51283 18.4241 91.45567 18.61902 92.39851 18.69896 93.34135 18.66045 94.2842 18.50511 95.22704 18.23445 96.16988 17.84894 97.11273 17.3521 98.05557 16.74533 98.99841 16.0352 99.94125 15.22334 100.88411 14.31665 101.82693 13.31967 102.76978 12.23985 103.71263 11.08246 104.65547 9.85623 105.5983 8.56804 106.54115 7.22626 107.484 5.83923 108.42682 4.41534 109.36969 2.96385 110.31253 1.49382 111.25537 .0147 112.1982"/>
<path transform="matrix(1,0,0,-1,22.073,134.279)" stroke-width=".79701" stroke-linecap="butt" stroke-miterlimit="10" stroke-linejoin="miter" fill="none" stroke="#0000b3" d="M112.20766 0 110.72871 .94283 109.2585 1.88567 107.80699 2.8285 106.38274 3.77135 104.99536 4.71419 103.65268 5.65703 102.36394 6.59988 101.13698 7.54271 99.97922 8.48555 98.8985 9.4284 97.9006 10.37125 96.9932 11.31409 96.18025 12.25694 95.46848 13.19978 94.861 14.14262 94.36342 15.08545 93.97647 16.0283 93.70451 16.97115 93.54826 17.91399 93.50867 18.85683 93.58679 19.79967 93.78117 20.74251 94.09145 21.68535 94.5151 22.6282 95.0503 23.57104 95.69174 24.51389 96.43785 25.45673 97.28168 26.39957 98.22089 27.3424 99.2462 28.28525 100.35327 29.22809 101.53447 30.17093 102.78287 31.11377 104.09013 32.05661 105.44844 32.99947 106.84889 33.9423 108.28296 34.88515 109.7419 35.82799 111.21611 36.77083 112.69615 37.71367 114.17308 38.65651 115.6384 39.59935 117.08209 40.54219 118.4949 41.48503 119.86829 42.42787 121.19409 43.37071 122.46338 44.31357 123.66855 45.25641 124.8014 46.19925 125.85579 47.14209 126.82425 48.08493 127.7015 49.02777 128.48104 49.97061 129.15938 50.91345 129.73072 51.8563 130.19269 52.79913 130.54129 53.74199 130.77565 54.68483 130.89299 55.62767 130.89356 56.57053 130.77729 57.51337 130.5442 58.45619 130.19669 59.39905 129.7358 60.34189 129.16555 61.28473 128.48812 62.22755 127.71005 63.17041 126.83316 64.11325 125.86595 65.05608 124.81248 65.99895 123.68018 66.94179 122.4759 67.88463 121.20715 68.82747 119.8821 69.77031 118.50906 70.71315 117.09625 71.65599 115.65294 72.59883 114.18816 73.54167 112.71068 74.48451 111.23102 75.42735 109.7568 76.37021 108.29749 77.31305 106.86324 78.25589 105.46207 79.19873 104.10356 80.14157 102.79576 81.08441 101.54665 82.02725 100.36472 82.9701 99.25691 83.91293 98.23051 84.85577 97.29076 85.79861 96.44585 86.74146 95.69847 87.68431 95.05627 88.62715 94.51965 89.56999 94.09544 90.51283 93.78354 91.45567 93.58861 92.39851 93.50867 93.34135 93.5472 94.2842 93.70251 95.22704 93.97319 96.16988 94.35869 97.11273 94.85553 98.05557 95.46231 98.99841 96.17244 99.94125 96.9843 100.88411 97.89099 101.82693 98.88797 102.76978 99.96777 103.71263 101.12517 104.65547 102.3514 105.5983 103.6396 106.54115 104.98137 107.484 106.3684 108.42682 107.79228 109.36969 109.24377 110.31253 110.7138 111.25537 112.19293 112.1982"/>
</svg>
