<svg xmlns="http://www.w3.org/2000/svg" xmlns:xlink="http://www.w3.org/1999/xlink" xmlns:inkscape="http://www.inkscape.org/namespaces/inkscape" version="1.1" width="271.597" height="118.243" viewBox="0 0 271.597 118.243">
<defs>
<path id="font_1_1" d="M.5159912 .31925965C.5159912 .42918397 .5029907 .50813296 .45700074 .5780945 .42599488 .62405398 .3639984 .6640625 .28399659 .6640625 .051986696 .6640625 .051986696 .39120484 .051986696 .31925965 .051986696 .2472992 .051986696-.01953125 .28399659-.01953125 .5159912-.01953125 .5159912 .2472992 .5159912 .31925965M.28399659 .008468628C.23799134 .008468628 .1769867 .035446168 .15699768 .117385867 .14299011 .17634583 .14299011 .25830079 .14299011 .33224488 .14299011 .40519715 .14299011 .4811554 .1579895 .53611758 .1789856 .6150665 .24299622 .63604739 .28399659 .63604739 .33799745 .63604739 .3899994 .6030731 .4079895 .545105 .42399598 .4911499 .4249878 .41918946 .4249878 .33224488 .4249878 .25830079 .4249878 .18434143 .4119873 .12138367 .3919983 .030441285 .32398988 .008468628 .28399659 .008468628Z"/>
<path id="font_2_1" d="M.74398806 .2263794C.7599945 .2263794 .7839966 .2263794 .7839966 .25038148 .7839966 .27539063 .7609863 .27539063 .74398806 .27539063H.147995C.13198853 .27539063 .10798645 .27539063 .10798645 .25138856 .10798645 .2263794 .1309967 .2263794 .147995 .2263794H.74398806Z"/>
<path id="font_1_2" d="M.33499146 .63612368C.33499146 .6630554 .33299256 .6640625 .30499269 .6640625 .24099732 .6014404 .1499939 .6004486 .10899353 .6004486V.5644531C.1329956 .5644531 .19898987 .5644531 .2539978 .592453V.08203125C.2539978 .04899597 .2539978 .035995485 .1539917 .035995485H.115997318V0C.13398743 .0009918213 .25698854 .0039978029 .2939911 .0039978029 .32499696 .0039978029 .45098878 .0009918213 .47299195 0V.035995485H.43499757C.33499146 .035995485 .33499146 .04899597 .33499146 .08203125V.63612368Z"/>
<path id="font_3_49" d="M.83599856 .27101136H.7939911C.7649994 .10699463 .7259979 .04399109 .5349884 .04399109H.34899903C.2999878 .04399109 .2999878 .050994874 .2999878 .08200073V.3300171H.41600038C.5159912 .3300171 .5439911 .30900575 .5439911 .2130127H.58599856V.49090577H.5439911C.5439911 .394989 .5159912 .37402345 .41600038 .37402345H.2999878V.59680178C.2999878 .62776187 .2999878 .6347656 .34899903 .6347656H.526001C.69299319 .6347656 .73799136 .59477236 .7599945 .44082643H.8019867L.7689972 .6787567H.08299255V.6347656H.11299133C.19400025 .6347656 .19400025 .62475588 .19400025 .59376528V.0849762C.19400025 .053985597 .19400025 .04399109 .11299133 .04399109H.08299255V0H.7859955L.83599856 .27101136Z"/>
<path id="font_4_2" d="M.58898928 .19296265H.5469971C.5439911 .17396546 .5339966 .11198425 .5179901 .101989749 .5099945 .09599304 .42599488 .09599304 .41099549 .09599304H.21499634C.2809906 .14497376 .35499574 .20095825 .4149933 .24093628 .5049896 .30291749 .58898928 .36090089 .58898928 .46687318 .58898928 .59495547 .46798707 .6660156 .32499696 .6660156 .18998719 .6660156 .09098816 .58795168 .09098816 .48986817 .09098816 .4378662 .1349945 .42886354 .14898682 .42886354 .17599488 .42886354 .20799256 .4468689 .20799256 .48786927 .20799256 .52386477 .18199158 .543869 .15098572 .546875 .1789856 .59194949 .23699951 .6220093 .3039856 .6220093 .40098573 .6220093 .48199464 .5639038 .48199464 .4658661 .48199464 .3818817 .42399598 .31791688 .34700013 .2529297L.102996829 .04598999C.09298706 .036987306 .09199524 .036987306 .09098816 .02999878V0H.55599978L.58898928 .19296265Z"/>
<path id="font_4_3" d="M.32998658 .3310547C.42199708 .3310547 .48298646 .2737732 .48298646 .17437744 .48298646 .07237244 .41999818 .01852417 .33099366 .01852417 .31999208 .01852417 .20098877 .01852417 .1499939 .070373538 .19099427 .07637024 .20298767 .1073761 .20298767 .13137818 .20298767 .16838074 .1749878 .19238281 .14199829 .19238281 .10998535 .19238281 .07998657 .17137146 .07998657 .12937927 .07998657 .025512696 .19799805-.022460938 .33399964-.022460938 .49798585-.022460938 .59999087 .07637024 .59999087 .17337036 .59999087 .25567628 .5269928 .3260193 .41299439 .35205079 .5329895 .3909912 .5649872 .46684266 .5649872 .5228424 .5649872 .60491946 .46299745 .6660156 .33699037 .6660156 .21398926 .6660156 .114990238 .61395266 .114990238 .5238342 .114990238 .47683717 .15299988 .46484376 .17199707 .46484376 .20098877 .46484376 .22898865 .48583985 .22898865 .5218353 .22898865 .5448303 .21699524 .5728302 .18099976 .57884219 .22399903 .625 .31298829 .628006 .33399964 .628006 .40699769 .628006 .45899964 .5908661 .45899964 .5228424 .45899964 .46484376 .42099 .37402345 .31599427 .368042 .28799439 .3670349 .28399659 .3660431 .2579956 .365036 .24699402 .3640442 .23599243 .36305238 .23599243 .34805299 .23599243 .3310547 .24598694 .3310547 .2639923 .3310547H.32998658Z"/>
<path id="font_5_119" d="M.6279907 .2728424H.59399417C.58499148 .13893128 .5669861 .039993287 .37098695 .039993287H.18499756L.61299136 .6416168C.62098696 .65260317 .62098696 .65760806 .62098696 .66360476 .62098696 .6826172 .6119995 .6826172 .59298709 .6826172H.09700012L.084991458 .45272828H.11898804C.12799073 .6016388 .19898987 .64660647 .33198548 .64660647H.5069885L.07899475 .04298401C.069992069 .0309906 .069992069 .0289917 .069992069 .019989014 .069992069 0 .07798767 0 .09799194 0H.6100006L.6279907 .2728424Z"/>
<path id="font_5_112" d="M.56799319 .39465333V.43066407C.54299929 .4286499 .5169983 .426651 .49198915 .426651 .46499635 .426651 .42799378 .42765809 .40098573 .43066407V.39465333C.44299317 .39265443 .44299317 .35964967 .44299317 .35665895 .44299317 .35165406 .44198609 .34165956 .43499757 .32765199L.32199098 .08065796 .19799805 .35266114C.19799805 .35266114 .19198609 .36465455 .19198609 .37165834 .19198609 .39465333 .22599793 .39465333 .24299622 .39465333V.43066407C.24299622 .43066407 .16999817 .426651 .1289978 .426651 .09899902 .426651 .05999756 .42765809 .0309906 .43066407V.39465333C.085998538 .39453126 .09799194 .3925171 .11299133 .3585205L.2709961 .011184692C.27598573-.00079345706 .28199769-.009765625 .29899598-.009765625 .31799317-.009765625 .32199098-.00079345706 .32699586 .010192871L.47399903 .33258058C.5019989 .39352418 .5519867 .39453126 .56799319 .39453126V.39465333Z"/>
<path id="font_5_66" d="M.27398683 0V.035995485C.21598816 .035995485 .20599365 .035995485 .20599365 .07803345V.44140626L.05899048 .43052674V.39453126C.12199402 .39453126 .1309967 .3885193 .1309967 .33952333V.07952881C.1309967 .035995485 .12098694 .035995485 .055999757 .035995485V0C.055999757 0 .12799073 .0039978029 .16799927 .0039978029 .20298767 .0039978029 .23899842 .0029907227 .27398683 0M.21899414 .60214236C.21899414 .6341553 .19400025 .66015627 .1619873 .66015627 .12799073 .66015627 .10499573 .6321411 .10499573 .6031494 .10499573 .57115176 .12998963 .54515078 .1619873 .54515078 .19599915 .54515078 .21899414 .57315066 .21899414 .60214236Z"/>
<path id="font_5_77" d="M.58999636 0V.035995485C.5249939 .035995485 .5149994 .035995485 .5149994 .07904053V.3032837C.5149994 .3903656 .47200013 .44140626 .36499024 .44140626 .2829895 .44140626 .22999573 .39637757 .20199585 .34432984H.20098877V.44140626L.053985597 .43052674V.39453126C.12098694 .39453126 .1289978 .3875122 .1289978 .33843995V.079055789C.1289978 .035995485 .11898804 .035995485 .053985597 .035995485V0C.053985597 0 .12599182 .0039978029 .16799927 .0039978029 .20498657 .0039978029 .27398683 .0009918213 .2829895 0V.035995485C.21798706 .035995485 .20799256 .035995485 .20799256 .079055789V.25932313C.20799256 .36434938 .29100038 .4133911 .35699464 .4133911 .4269867 .4133911 .43598939 .3583374 .43598939 .3072815V.07904053C.43598939 .035995485 .42599488 .035995485 .36099244 .035995485V0C.36099244 0 .43299867 .0039978029 .47499085 .0039978029 .5119934 .0039978029 .58099368 .0009918213 .58999636 0Z"/>
<path id="font_5_43" d="M.46798707 .120407108C.46798707 .13243103 .45498658 .13243103 .45098878 .13243103 .43798829 .13243103 .43699647 .12942505 .43199159 .11540222 .4099884 .05328369 .35699464 .022232056 .29599 .022232056 .22698975 .022232056 .13699341 .07331848 .13699341 .21759033 .13699341 .34448243 .19898987 .41427613 .2919922 .41427613 .30499269 .41441346 .35299684 .41441346 .3889923 .39941407 .37098695 .39128114 .36099244 .37527467 .36099244 .35528565 .36099244 .3284607 .37998963 .30859376 .4079895 .30859376 .43499757 .30859376 .45599366 .32546998 .45599366 .35728456 .45599366 .44628907 .31698609 .44628907 .2889862 .44628907 .13899231 .44628907 .04598999 .33143617 .04598999 .21658325 .04598999 .09034729 .15299988-.009765625 .28399659-.009765625 .43299867-.009765625 .46798707 .10838318 .46798707 .120407108Z"/>
<path id="font_5_50" d="M.46798707 .12036133C.46798707 .12435913 .46598817 .13438416 .45098878 .13438416 .43798829 .13438416 .43598939 .12837219 .43299867 .11836243 .4019928 .037246705 .32598878 .022232056 .2899933 .022232056 .24299622 .022232056 .19799805 .043258668 .16799927 .08131409 .1309967 .12837219 .12998963 .18945313 .12998963 .22851563H.43998719C.46099855 .22851563 .46798707 .22851563 .46798707 .25050355 .46798707 .33839417 .4189911 .44628907 .269989 .44628907 .13899231 .44628907 .038986207 .34239198 .038986207 .21949768 .038986207 .092315677 .1499939-.009765625 .2829895-.009765625 .41799928-.009765625 .46798707 .09832764 .46798707 .12036133M.397995 .25450135H.1309967C.14199829 .39530946 .23199463 .41827394 .269989 .41827394 .3929901 .41827394 .39698792 .27947999 .397995 .25450135Z"/>
<path id="font_1_4" d="M.272995 .33428956C.35099793 .33428956 .40699769 .2803192 .40699769 .1733551 .40699769 .04940796 .33499146 .012466431 .2769928 .012466431 .23699951 .012466431 .14898682 .0234375 .10699463 .082351688 .1539917 .084350589 .16499329 .11735535 .16499329 .13835144 .16499329 .17034912 .14099121 .19335938 .10998535 .19335938 .08198547 .19335938 .053985597 .17634583 .053985597 .13534546 .053985597 .041412355 .1579895-.01953125 .2789917-.01953125 .41799928-.01953125 .5139923 .07336426 .5139923 .1733551 .5139923 .2513275 .44999696 .32929994 .33999635 .35229493 .44499208 .39024354 .48298646 .4650879 .48298646 .5260773 .48298646 .60505679 .3919983 .6640625 .2809906 .6640625 .16999817 .6640625 .084991458 .61006167 .084991458 .5300751 .084991458 .49606324 .10699463 .47706605 .13699341 .47706605 .16799927 .47706605 .18798828 .5000763 .18798828 .5280762 .18798828 .5570679 .16799927 .57806399 .13699341 .5800781 .17199707 .62405398 .24099732 .63505557 .27799989 .63505557 .32299806 .63505557 .38598634 .6130676 .38598634 .5260773 .38598634 .48406983 .37199403 .43814088 .34599305 .4072113 .31298829 .36927796 .2849884 .3672943 .23498535 .36428834 .20999146 .3623047 .20799256 .3623047 .20298767 .3612976 .20098877 .3612976 .19299317 .3592987 .19299317 .34829713 .19299317 .33428956 .20199585 .33428956 .21899414 .33428956H.272995Z"/>
<path id="font_3_119" d="M.72698977 .2798462H.68499758C.6729889 .12394714 .6329956 .04699707 .44299317 .04699707H.23199463L.71099856 .63461306C.72099307 .64660647 .72099307 .6496124 .72099307 .65960696 .72099307 .6826172 .71099856 .6826172 .69099429 .6826172H.12799073L.114990238 .44473268H.15699768C.16899109 .60562136 .26098634 .63861086 .38598634 .63861086H.58699038L.10699463 .049987794C.09700012 .037994386 .09700012 .034988405 .09700012 .023986817 .09700012 0 .10598755 0 .1269989 0H.70700076L.72698977 .2798462Z"/>
<path id="font_4_1" d="M.397995 .63591006C.397995 .6660156 .394989 .6660156 .3619995 .6660156 .29100038 .6016083 .17999268 .6016083 .1599884 .6016083H.14299011V.5576172H.1599884C.18299866 .5576172 .24798584 .5606079 .30599977 .58561709V.08596802C.30599977 .054977418 .30599977 .04399109 .19999695 .04399109H.1499939V0C.20498657 .0039978029 .2939911 .0039978029 .35198976 .0039978029 .4099884 .0039978029 .49899293 .0039978029 .55400088 0V.04399109H.5039978C.397995 .04399109 .397995 .054977418 .397995 .08596802V.63591006Z"/>
<path id="font_1_3" d="M.5049896 .18203736H.47099305C.46798707 .16001892 .45799256 .100997928 .44499208 .09098816 .43699647 .084991458 .3600006 .084991458 .34599305 .084991458H.1619873C.2669983 .17803955 .3019867 .20603943 .3619995 .25306703 .43598939 .312088 .5049896 .374115 .5049896 .46914674 .5049896 .5900879 .39898683 .6640625 .2709961 .6640625 .14698792 .6640625 .06298828 .57710269 .06298828 .4851532 .06298828 .43414308 .10598755 .42915345 .115997318 .42915345 .13999939 .42915345 .16899109 .44615174 .16899109 .48214723 .16899109 .5001526 .1619873 .53515627 .10998535 .53515627 .14099121 .6060791 .20899964 .62805178 .2559967 .62805178 .35598756 .62805178 .4079895 .5501404 .4079895 .46914674 .4079895 .38212586 .34599305 .3130951 .31399537 .27708436L.07299805 .038986207C.06298828 .02999878 .06298828 .027999878 .06298828 0H.47499085L.5049896 .18203736Z"/>
</defs>
<path transform="matrix(1,0,0,-1,15.386,68.841999)" d="M11.99861 0C11.99861 6.62672 6.62672 11.99861 0 11.99861-6.62672 11.99861-11.99861 6.62672-11.99861 0-11.99861-6.62672-6.62672-11.99861 0-11.99861 6.62672-11.99861 11.99861-6.62672 11.99861 0ZM0 0" fill="#ebf5fb"/>
<path transform="matrix(1,0,0,-1,15.386,68.841999)" stroke-width=".79701" stroke-linecap="butt" stroke-miterlimit="10" stroke-linejoin="miter" fill="none" stroke="#2471a3" d="M11.99861 0C11.99861 6.62672 6.62672 11.99861 0 11.99861-6.62672 11.99861-11.99861 6.62672-11.99861 0-11.99861-6.62672-6.62672-11.99861 0-11.99861 6.62672-11.99861 11.99861-6.62672 11.99861 0ZM0 0"/>
<use data-text="0" xlink:href="#font_1_1" transform="matrix(6.97385,0,0,-6.97385,8.301,70.673999)"/>
<use data-text="&#x2212;" xlink:href="#font_2_1" transform="matrix(6.97385,0,0,-6.97385,12.272,70.673999)"/>
<use data-text="0" xlink:href="#font_1_1" transform="matrix(6.97385,0,0,-6.97385,18.499,70.673999)"/>
<path transform="matrix(1,0,0,-1,15.386,68.841999)" d="M80.0308-34.0161C80.0308-27.38937 74.65892-22.01747 68.0322-22.01747 61.40547-22.01747 56.03357-27.38937 56.03357-34.0161 56.03357-40.64282 61.40547-46.01471 68.0322-46.01471 74.65892-46.01471 80.0308-40.64282 80.0308-34.0161ZM68.0322-34.0161" fill="#ffe6e6"/>
<path transform="matrix(1,0,0,-1,15.386,68.841999)" stroke-width=".79701" stroke-linecap="butt" stroke-miterlimit="10" stroke-linejoin="miter" fill="none" stroke="#b30000" d="M80.0308-34.0161C80.0308-27.38937 74.65892-22.01747 68.0322-22.01747 61.40547-22.01747 56.03357-27.38937 56.03357-34.0161 56.03357-40.64282 61.40547-46.01471 68.0322-46.01471 74.65892-46.01471 80.0308-40.64282 80.0308-34.0161ZM68.0322-34.0161"/>
<use data-text="0" xlink:href="#font_1_1" transform="matrix(6.97385,0,0,-6.97385,76.332,104.688999)"/>
<use data-text="&#x2212;" xlink:href="#font_2_1" transform="matrix(6.97385,0,0,-6.97385,80.304,104.688999)"/>
<use data-text="1" xlink:href="#font_1_2" transform="matrix(6.97385,0,0,-6.97385,86.53,104.688999)"/>
<path transform="matrix(1,0,0,-1,15.386,68.841999)" stroke-width=".79701" stroke-linecap="butt" stroke-miterlimit="10" stroke-linejoin="miter" fill="none" stroke="#000000" d="M11.08751-5.54366 54.62804-27.31415"/>
<path transform="matrix(.89436,.44717,.44717,-.89436,70.01404,96.15613)" d="M2.59026 0-1.55415 2.0722 0 0-1.55415-2.0722"/>
<use data-text="E" xlink:href="#font_3_49" transform="matrix(4.98132,0,0,-4.98132,43.094,94.709)"/>
<use data-text="2" xlink:href="#font_4_2" transform="matrix(4.98132,0,0,-4.98132,51.124,92.77899)"/>
<path transform="matrix(1,0,0,-1,51.124,93.463)" stroke-width=".242" stroke-linecap="butt" stroke-miterlimit="10" stroke-linejoin="miter" fill="none" stroke="#000000" d="M0 0H3.39"/>
<use data-text="3" xlink:href="#font_4_3" transform="matrix(4.98132,0,0,-4.98132,51.124,97.357997)"/>
<path transform="matrix(1,0,0,-1,15.386,68.841999)" d="M80.0308 34.0161C80.0308 40.64282 74.65892 46.01471 68.0322 46.01471 61.40547 46.01471 56.03357 40.64282 56.03357 34.0161 56.03357 27.38937 61.40547 22.01747 68.0322 22.01747 74.65892 22.01747 80.0308 27.38937 80.0308 34.0161ZM68.0322 34.0161" fill="#e8f3ed"/>
<path transform="matrix(1,0,0,-1,15.386,68.841999)" stroke-width=".79701" stroke-linecap="butt" stroke-miterlimit="10" stroke-linejoin="miter" fill="none" stroke="#1e8449" d="M80.0308 34.0161C80.0308 40.64282 74.65892 46.01471 68.0322 46.01471 61.40547 46.01471 56.03357 40.64282 56.03357 34.0161 56.03357 27.38937 61.40547 22.01747 68.0322 22.01747 74.65892 22.01747 80.0308 27.38937 80.0308 34.0161ZM68.0322 34.0161"/>
<use data-text="1" xlink:href="#font_1_2" transform="matrix(6.97385,0,0,-6.97385,76.332,36.657999)"/>
<use data-text="&#x2212;" xlink:href="#font_2_1" transform="matrix(6.97385,0,0,-6.97385,80.304,36.657999)"/>
<use data-text="0" xlink:href="#font_1_1" transform="matrix(6.97385,0,0,-6.97385,86.53,36.657999)"/>
<path transform="matrix(1,0,0,-1,15.386,68.841999)" stroke-width=".79701" stroke-linecap="butt" stroke-miterlimit="10" stroke-linejoin="miter" fill="none" stroke="#000000" d="M11.08751 5.54366 54.62804 27.31415"/>
<path transform="matrix(.89436,-.44717,-.44717,-.89436,70.01404,41.527864)" d="M2.59026 0-1.55415 2.0722 0 0-1.55415-2.0722"/>
<path transform="matrix(1,0,0,-1,15.386,68.841999)" d="M148.063 17.00804C148.063 23.63477 142.69112 29.00665 136.06439 29.00665 129.43767 29.00665 124.06577 23.63477 124.06577 17.00804 124.06577 10.38132 129.43767 5.00943 136.06439 5.00943 142.69112 5.00943 148.063 10.38132 148.063 17.00804ZM136.06439 17.00804" fill="#ffe6e6"/>
<path transform="matrix(1,0,0,-1,15.386,68.841999)" stroke-width=".79701" stroke-linecap="butt" stroke-miterlimit="10" stroke-linejoin="miter" fill="none" stroke="#b30000" d="M148.063 17.00804C148.063 23.63477 142.69112 29.00665 136.06439 29.00665 129.43767 29.00665 124.06577 23.63477 124.06577 17.00804 124.06577 10.38132 129.43767 5.00943 136.06439 5.00943 142.69112 5.00943 148.063 10.38132 148.063 17.00804ZM136.06439 17.00804"/>
<use data-text="1" xlink:href="#font_1_2" transform="matrix(6.97385,0,0,-6.97385,144.364,53.665994)"/>
<use data-text="&#x2212;" xlink:href="#font_2_1" transform="matrix(6.97385,0,0,-6.97385,148.335,53.665994)"/>
<use data-text="1" xlink:href="#font_1_2" transform="matrix(6.97385,0,0,-6.97385,154.562,53.665994)"/>
<path transform="matrix(1,0,0,-1,15.386,68.841999)" stroke-width=".79701" stroke-linecap="butt" stroke-miterlimit="10" stroke-linejoin="miter" fill="none" stroke="#000000" d="M80.05911 31.0097 121.5246 20.64262"/>
<path transform="matrix(.97012,.24252,.24252,-.97012,136.9106,48.199377)" d="M2.59026 0-1.55415 2.0722 0 0-1.55415-2.0722"/>
<use data-text="Z" xlink:href="#font_5_119" transform="matrix(6.97385,0,0,-6.97385,222.99901,53.799997)"/>
<use data-text="v" xlink:href="#font_5_112" transform="matrix(6.97385,0,0,-6.97385,230.50984,53.799997)"/>
<use data-text="i" xlink:href="#font_5_66" transform="matrix(6.97385,0,0,-6.97385,234.69416,53.799997)"/>
<use data-text="n" xlink:href="#font_5_77" transform="matrix(6.97385,0,0,-6.97385,236.9467,53.799997)"/>
<use data-text="c" xlink:href="#font_5_43" transform="matrix(6.97385,0,0,-6.97385,241.3472,53.799997)"/>
<use data-text="e" xlink:href="#font_5_50" transform="matrix(6.97385,0,0,-6.97385,244.88991,53.799997)"/>
<use data-text="3" xlink:href="#font_1_4" transform="matrix(6.97385,0,0,-6.97385,251.11801,53.799997)"/>
<use data-text="&#x2212;" xlink:href="#font_2_1" transform="matrix(6.97385,0,0,-6.97385,255.08902,53.799997)"/>
<use data-text="1" xlink:href="#font_1_2" transform="matrix(6.97385,0,0,-6.97385,261.31605,53.799997)"/>
<path transform="matrix(1,0,0,-1,15.386,68.841999)" stroke-width=".79701" stroke-linecap="butt" stroke-miterlimit="10" stroke-linejoin="miter" fill="none" stroke="#000000" d="M148.46152 17.00804 201.50632 17.00806"/>
<path transform="matrix(1,0,0,-1,216.89232,51.833936)" d="M2.59026 0-1.55415 2.0722 0 0-1.55415-2.0722"/>
<use data-text="Z" xlink:href="#font_3_119" transform="matrix(4.98132,0,0,-4.98132,185.557,45.464998)"/>
<use data-text="1" xlink:href="#font_4_1" transform="matrix(4.98132,0,0,-4.98132,193.183,43.534997)"/>
<path transform="matrix(1,0,0,-1,193.183,44.219995)" stroke-width=".242" stroke-linecap="butt" stroke-miterlimit="10" stroke-linejoin="miter" fill="none" stroke="#000000" d="M0 0H3.39"/>
<use data-text="3" xlink:href="#font_4_3" transform="matrix(4.98132,0,0,-4.98132,193.183,48.114999)"/>
<use data-text="E" xlink:href="#font_3_49" transform="matrix(4.98132,0,0,-4.98132,111.125,52.188997)"/>
<use data-text="2" xlink:href="#font_4_2" transform="matrix(4.98132,0,0,-4.98132,119.155,50.258996)"/>
<path transform="matrix(1,0,0,-1,119.155,50.943994)" stroke-width=".242" stroke-linecap="butt" stroke-miterlimit="10" stroke-linejoin="miter" fill="none" stroke="#000000" d="M0 0H3.39"/>
<use data-text="3" xlink:href="#font_4_3" transform="matrix(4.98132,0,0,-4.98132,119.155,54.838998)"/>
<path transform="matrix(1,0,0,-1,15.386,68.841999)" d="M148.063 51.02414C148.063 57.65086 142.69112 63.02275 136.06439 63.02275 129.43767 63.02275 124.06577 57.65086 124.06577 51.02414 124.06577 44.39742 129.43767 39.02553 136.06439 39.02553 142.69112 39.02553 148.063 44.39742 148.063 51.02414ZM136.06439 51.02414" fill="#e8f3ed"/>
<path transform="matrix(1,0,0,-1,15.386,68.841999)" stroke-width=".79701" stroke-linecap="butt" stroke-miterlimit="10" stroke-linejoin="miter" fill="none" stroke="#1e8449" d="M148.063 51.02414C148.063 57.65086 142.69112 63.02275 136.06439 63.02275 129.43767 63.02275 124.06577 57.65086 124.06577 51.02414 124.06577 44.39742 129.43767 39.02553 136.06439 39.02553 142.69112 39.02553 148.063 44.39742 148.063 51.02414ZM136.06439 51.02414"/>
<use data-text="2" xlink:href="#font_1_3" transform="matrix(6.97385,0,0,-6.97385,144.364,19.649994)"/>
<use data-text="&#x2212;" xlink:href="#font_2_1" transform="matrix(6.97385,0,0,-6.97385,148.335,19.649994)"/>
<use data-text="0" xlink:href="#font_1_1" transform="matrix(6.97385,0,0,-6.97385,154.562,19.649994)"/>
<path transform="matrix(1,0,0,-1,15.386,68.841999)" stroke-width=".79701" stroke-linecap="butt" stroke-miterlimit="10" stroke-linejoin="miter" fill="none" stroke="#000000" d="M80.05911 37.02248 121.5246 47.38956"/>
<path transform="matrix(.97012,-.24252,-.24252,-.97012,136.9106,21.452435)" d="M2.59026 0-1.55415 2.0722 0 0-1.55415-2.0722"/>
<use data-text="Z" xlink:href="#font_5_119" transform="matrix(6.97385,0,0,-6.97385,222.99901,19.784996)"/>
<use data-text="v" xlink:href="#font_5_112" transform="matrix(6.97385,0,0,-6.97385,230.50984,19.784996)"/>
<use data-text="i" xlink:href="#font_5_66" transform="matrix(6.97385,0,0,-6.97385,234.69416,19.784996)"/>
<use data-text="n" xlink:href="#font_5_77" transform="matrix(6.97385,0,0,-6.97385,236.9467,19.784996)"/>
<use data-text="c" xlink:href="#font_5_43" transform="matrix(6.97385,0,0,-6.97385,241.3472,19.784996)"/>
<use data-text="e" xlink:href="#font_5_50" transform="matrix(6.97385,0,0,-6.97385,244.88991,19.784996)"/>
<use data-text="3" xlink:href="#font_1_4" transform="matrix(6.97385,0,0,-6.97385,251.11801,19.784996)"/>
<use data-text="&#x2212;" xlink:href="#font_2_1" transform="matrix(6.97385,0,0,-6.97385,255.08902,19.784996)"/>
<use data-text="1" xlink:href="#font_1_2" transform="matrix(6.97385,0,0,-6.97385,261.31605,19.784996)"/>
<path transform="matrix(1,0,0,-1,15.386,68.841999)" stroke-width=".79701" stroke-linecap="butt" stroke-miterlimit="10" stroke-linejoin="miter" fill="none" stroke="#000000" d="M148.46152 51.02414 201.50632 51.02415"/>
<path transform="matrix(1,0,0,-1,216.89232,17.817845)" d="M2.59026 0-1.55415 2.0722 0 0-1.55415-2.0722"/>
<use data-text="Z" xlink:href="#font_3_119" transform="matrix(4.98132,0,0,-4.98132,185.557,11.4489979)"/>
<use data-text="1" xlink:href="#font_4_1" transform="matrix(4.98132,0,0,-4.98132,193.183,9.518997)"/>
<path transform="matrix(1,0,0,-1,193.183,10.203995)" stroke-width=".242" stroke-linecap="butt" stroke-miterlimit="10" stroke-linejoin="miter" fill="none" stroke="#000000" d="M0 0H3.39"/>
<use data-text="3" xlink:href="#font_4_3" transform="matrix(4.98132,0,0,-4.98132,193.183,14.098999)"/>
<use data-text="Z" xlink:href="#font_3_119" transform="matrix(4.98132,0,0,-4.98132,111.327,19.952996)"/>
<use data-text="1" xlink:href="#font_4_1" transform="matrix(4.98132,0,0,-4.98132,118.953,18.022995)"/>
<path transform="matrix(1,0,0,-1,118.953,18.707993)" stroke-width=".242" stroke-linecap="butt" stroke-miterlimit="10" stroke-linejoin="miter" fill="none" stroke="#000000" d="M0 0H3.39"/>
<use data-text="3" xlink:href="#font_4_3" transform="matrix(4.98132,0,0,-4.98132,118.953,22.602997)"/>
<use data-text="Z" xlink:href="#font_3_119" transform="matrix(4.98132,0,0,-4.98132,43.295,45.464998)"/>
<use data-text="1" xlink:href="#font_4_1" transform="matrix(4.98132,0,0,-4.98132,50.922,43.534997)"/>
<path transform="matrix(1,0,0,-1,50.922,44.219995)" stroke-width=".242" stroke-linecap="butt" stroke-miterlimit="10" stroke-linejoin="miter" fill="none" stroke="#000000" d="M0 0H3.39"/>
<use data-text="3" xlink:href="#font_4_3" transform="matrix(4.98132,0,0,-4.98132,50.922,48.114999)"/>
</svg>
