<svg xmlns="http://www.w3.org/2000/svg" xmlns:xlink="http://www.w3.org/1999/xlink" xmlns:inkscape="http://www.inkscape.org/namespaces/inkscape" version="1.1" width="185.544" height="123.889" viewBox="0 0 185.544 123.889">
<defs>
<path id="font_1_1" d="M.6589966 .23046875C.6759949 .23046875 .69400027 .23046875 .69400027 .25045777 .69400027 .27046205 .6759949 .27046205 .6589966 .27046205H.117996219C.100997928 .27046205 .08299255 .27046205 .08299255 .25045777 .08299255 .23046875 .100997928 .23046875 .117996219 .23046875H.6589966Z"/>
<path id="font_2_3" d="M.2899933 .35191346C.37199403 .37893678 .42999269 .4490509 .42999269 .52809146 .42999269 .6100464 .34199525 .6660156 .24598694 .6660156 .14498902 .6660156 .068984989 .60606387 .068984989 .53009036 .068984989 .49710084 .09098816 .47808839 .11999512 .47808839 .15098572 .47808839 .17098999 .50009158 .17098999 .5290985 .17098999 .57910159 .12399292 .57910159 .10899353 .57910159 .13999939 .62802127 .20599365 .64100649 .24198914 .64100649 .2829895 .64100649 .33799745 .6190338 .33799745 .5290985 .33799745 .51708987 .33599855 .45906068 .30999757 .4149933 .27999879 .36691285 .24598694 .36390687 .22099304 .36291505 .21299744 .36190797 .18899536 .35990907 .18199158 .35990907 .17399597 .35890199 .16699219 .35791017 .16699219 .3479004 .16699219 .33691407 .17399597 .33691407 .19099427 .33691407H.23498535C.31698609 .33691407 .35398866 .2686615 .35398866 .17037964 .35398866 .034469606 .2849884 .0055389406 .24099732 .0055389406 .19799805 .0055389406 .12298584 .022491456 .08799744 .08137512 .12298584 .07637024 .1539917 .09837341 .1539917 .1363678 .1539917 .17237854 .1269989 .19238281 .09799194 .19238281 .07398987 .19238281 .041992189 .17837525 .041992189 .1343689 .041992189 .043441774 .1349945-.022460938 .24398804-.022460938 .3659973-.022460938 .45700074 .06838989 .45700074 .17037964 .45700074 .252594 .3939972 .33088685 .2899933 .35191346Z"/>
<path id="font_2_2" d="M.1269989 .07699585 .23298645 .18003845C.3889923 .31811524 .44898988 .3721466 .44898988 .47216798 .44898988 .5860901 .35899354 .6660156 .23699951 .6660156 .12399292 .6660156 .049987794 .57411196 .049987794 .48516847 .049987794 .4291687 .099990848 .4291687 .102996829 .4291687 .11999512 .4291687 .15499878 .44117738 .15499878 .48217774 .15499878 .5081787 .13699341 .5341797 .101989749 .5341797 .09399414 .5341797 .09199524 .5341797 .08898926 .5331726 .11199951 .59806826 .1659851 .63500979 .22399903 .63500979 .31498719 .63500979 .35798646 .5541382 .35798646 .47216798 .35798646 .39215089 .30799867 .31311036 .25299073 .25108338L.06098938 .036987306C.049987794 .025985718 .049987794 .023986817 .049987794 0H.42099L.44898988 .17404175H.42399598C.4189911 .14402771 .4119873 .1000061 .4019928 .084991458 .394989 .07699585 .32899476 .07699585 .30699159 .07699585H.1269989Z"/>
<path id="font_2_1" d="M.2939911 .64004519C.2939911 .66400149 .2939911 .6660156 .2709961 .6660156 .20899964 .60227969 .12098694 .60227969 .08898926 .60227969V.57128909C.10899353 .57128909 .16799927 .57128909 .21998596 .5972748V.07902527C.21998596 .042999269 .21699524 .0309906 .1269989 .0309906H.09498596V0C.12998963 .0029907227 .21699524 .0029907227 .25698854 .0029907227 .29699708 .0029907227 .38398744 .0029907227 .4189911 0V.0309906H.3869934C.29699708 .0309906 .2939911 .041992189 .2939911 .07902527V.64004519Z"/>
<path id="font_2_4" d="M.2939911 .16503906V.07800293C.2939911 .041992189 .2919922 .0309906 .21798706 .0309906H.19699097V0C.23799134 .0029907227 .2899933 .0029907227 .33198548 .0029907227 .37399293 .0029907227 .4269867 .0029907227 .46798707 0V.0309906H.44699098C.37298585 .0309906 .37098695 .041992189 .37098695 .07800293V.16503906H.47099305V.19602967H.37098695V.65075686C.37098695 .67074587 .37098695 .6767578 .35499574 .6767578 .34599305 .6767578 .34298707 .6767578 .33499146 .66474917L.027999878 .19602967V.16503906H.2939911M.2999878 .19602967H.055999757L.2999878 .5688019V.19602967Z"/>
<clipPath id="clip_3">
<path transform="matrix(.85,0,0,-.85,11.221251,114.9959)" d="M0 0H195.75891V125.24301H0Z"/>
</clipPath>
<path id="font_1_2" d="M.44400025 .24998474C.44400025 .35688783 .35499574 .44381715 .25 .44381715 .14199829 .44381715 .054992677 .35488893 .054992677 .24998474 .054992677 .14407349 .14199829 .056137086 .25 .056137086 .35499574 .056137086 .44400025 .14308167 .44400025 .24998474Z"/>
<path id="font_4_1" d="M.4269867 .6066284C.43399049 .63461306 .43798829 .64060977 .44999696 .6436157 .45899964 .6456146 .49198915 .6456146 .5130005 .6456146 .6139984 .6456146 .6589966 .6416168 .6589966 .56365969 .6589966 .54867556 .6549988 .50968936 .651001 .4837036 .6499939 .4797058 .647995 .4677124 .647995 .46472169 .647995 .45872499 .651001 .45173646 .6599884 .45173646 .67099 .45173646 .6729889 .45973207 .6749878 .4747162L.70199587 .64860537C.7029877 .65260317 .70399478 .6626129 .70399478 .66560366 .70399478 .6766052 .69400027 .6766052 .6769867 .6766052H.12199402C.09799194 .6766052 .09700012 .6756134 .08999634 .6566162L.02999878 .4807129C.0289917 .478714 .023986817 .46472169 .023986817 .46272279 .023986817 .45672608 .0289917 .45173646 .035995485 .45173646 .04598999 .45173646 .04699707 .45672608 .052993776 .4727173 .10699463 .6276245 .1329956 .6456146 .2809906 .6456146H.31999208C.34799195 .6456146 .34799195 .6416168 .34799195 .6336212 .34799195 .6276245 .34498597 .6156311 .34399415 .6126251L.20999146 .07896423C.20098877 .041992189 .19799805 .0309906 .09098816 .0309906 .054992677 .0309906 .04899597 .0309906 .04899597 .011993408 .04899597 0 .05999756 0 .06599426 0 .09298706 0 .12098694 .0019989014 .147995 .0019989014 .17599488 .0019989014 .20498657 .0029907227 .23298645 .0029907227 .26098634 .0029907227 .2889862 .0019989014 .31599427 .0019989014 .34498597 .0019989014 .375 0 .40299989 0 .41299439 0 .4249878 0 .4249878 .019989014 .4249878 .0309906 .4169922 .0309906 .3909912 .0309906 .3659973 .0309906 .35299684 .0309906 .32699586 .032989503 .2979889 .035995485 .2899933 .038986207 .2899933 .054977418 .2899933 .05596924 .2899933 .06097412 .2939911 .07595825L.4269867 .6066284Z"/>
<path id="font_4_2" d="M.33399964 .30233766C.33999635 .32835389 .36299134 .42037965 .43299867 .42037965 .43798829 .42037965 .46199037 .42037965 .48298646 .40734864 .45498658 .402359 .43499757 .37734986 .43499757 .35334779 .43499757 .33735658 .44599916 .31835938 .47299195 .31835938 .49499513 .31835938 .5269928 .3363495 .5269928 .37635804 .5269928 .42837525 .46798707 .4423828 .43399049 .4423828 .37599183 .4423828 .34098817 .38935853 .32899476 .36634828 .3039856 .43237306 .25 .4423828 .22099304 .4423828 .116989139 .4423828 .05999756 .3133545 .05999756 .28834535 .05999756 .27833558 .069992069 .27833558 .07199097 .27833558 .07998657 .27833558 .08299255 .28033448 .084991458 .28933717 .11898804 .39535523 .18499756 .42037965 .21899414 .42037965 .23799134 .42037965 .272995 .4113617 .272995 .35334779 .272995 .32235719 .2559967 .25532533 .21899414 .11528015 .20298767 .053268434 .16799927 .011245728 .12399292 .011245728 .117996219 .011245728 .09498596 .011245728 .07398987 .024276734 .09899902 .029266358 .12098694 .05027771 .12098694 .07827759 .12098694 .105270389 .09899902 .11328125 .083999637 .11328125 .053985597 .11328125 .0289917 .08728027 .0289917 .055267335 .0289917 .009246826 .07899475-.0107421879 .12298584-.0107421879 .18899536-.0107421879 .22499085 .059280397 .22799683 .0652771 .23999024 .028274537 .27598573-.0107421879 .33599855-.0107421879 .43899537-.0107421879 .49598695 .118270877 .49598695 .14328003 .49598695 .1532898 .4869995 .1532898 .48399354 .1532898 .47499085 .1532898 .47299195 .14929199 .47099305 .14228821 .43798829 .03527832 .36999513 .011245728 .33799745 .011245728 .29899598 .011245728 .2829895 .043273927 .2829895 .07727051 .2829895 .09927368 .2889862 .121276859 .2999878 .16529846L.33399964 .30233766Z"/>
<path id="font_4_3" d="M.48599244 .38136292C.48999024 .39537049 .48999024 .39736939 .48999024 .40437318 .48999024 .42237855 .47599793 .43138124 .46099855 .43138124 .45098878 .43138124 .43499757 .42536927 .42599488 .41036988 .42399598 .405365 .41600038 .37435914 .4119873 .35635377 .40499879 .33035279 .397995 .30334474 .3919983 .27633668L.34700013 .09628296C.34298707 .08126831 .2999878 .011245728 .23399353 .011245728 .18299866 .011245728 .17199707 .055267335 .17199707 .0922699 .17199707 .1382904 .18899536 .20030213 .22299195 .28833009 .23899842 .3293457 .24299622 .3403473 .24299622 .36035157 .24299622 .405365 .21099854 .4423828 .16099549 .4423828 .06599426 .4423828 .0289917 .29733277 .0289917 .28833009 .0289917 .27833558 .038986207 .27833558 .040985109 .27833558 .050994874 .27833558 .051986696 .28033448 .056991579 .29634095 .083999637 .3903656 .12399292 .42037965 .1579895 .42037965 .1659851 .42037965 .18299866 .42037965 .18299866 .3883667 .18299866 .36335755 .17298889 .3373413 .1659851 .31834413 .12599182 .21231079 .10798645 .1552887 .10798645 .10827637 .10798645 .019256592 .17098999-.0107421879 .22999573-.0107421879 .2689972-.0107421879 .30299378 .0062561037 .33099366 .03425598 .31799317-.017745972 .30599977-.06674194 .2659912-.11973572 .23999024-.15385437 .20199585-.18309021 .1559906-.18309021 .14199829-.18309021 .09700012-.18005371 .07998657-.14074707 .09599304-.14074707 .10899353-.14074707 .12298584-.1287384 .1329956-.11973572 .14299011-.10673523 .14299011-.08773804 .14299011-.056747438 .115997318-.052734376 .10598755-.052734376 .08299255-.052734376 .049987794-.068740848 .049987794-.11773682 .049987794-.16796875 .09399414-.20507813 .1559906-.20507813 .25898744-.20507813 .3619995-.11373901 .3899994-.00074768069L.48599244 .38136292Z"/>
</defs>
<path transform="matrix(.85,0,0,-.85,11.221251,114.9959)" stroke-width=".19925" stroke-linecap="butt" stroke-miterlimit="10" stroke-linejoin="miter" fill="none" stroke="#7f807f" d="M0 39.62169V43.87363M32.62648 39.62169V43.87363M65.25296 39.62169V43.87363M130.50594 39.62169V43.87363M163.13242 39.62169V43.87363M195.75891 39.62169V43.87363"/>
<path transform="matrix(.85,0,0,-.85,11.221251,114.9959)" stroke-width=".19925" stroke-linecap="butt" stroke-miterlimit="10" stroke-linejoin="miter" fill="none" stroke="#7f807f" d="M95.75351 0H100.00537M95.75351 83.49535H100.00537M95.75351 125.24301H100.00537"/>
<path transform="matrix(.85,0,0,-.85,11.221251,114.9959)" stroke-width=".79701" stroke-linecap="butt" stroke-miterlimit="10" stroke-linejoin="miter" fill="none" stroke="#000000" d="M0 41.74767H193.16864"/>
<path transform="matrix(.85,0,0,-.85,175.4146,79.51038)" d="M2.59026 0-1.55415 2.0722 0 0-1.55415-2.0722"/>
<path transform="matrix(.85,0,0,-.85,11.221251,114.9959)" stroke-width=".79701" stroke-linecap="butt" stroke-miterlimit="10" stroke-linejoin="miter" fill="none" stroke="#000000" d="M97.87946 0V122.65274"/>
<path transform="matrix(0,-.85,-.85,-0,94.4188,10.741074)" d="M2.59026 0-1.55415 2.0722 0 0-1.55415-2.0722"/>
<use data-text="&#x2212;" xlink:href="#font_1_1" transform="matrix(8.468244,0,0,-8.468244,5.8110005,89.93705)"/>
<use data-text="3" xlink:href="#font_2_3" transform="matrix(8.468244,0,0,-8.468244,12.39765,89.93705)"/>
<use data-text="&#x2212;" xlink:href="#font_1_1" transform="matrix(8.468244,0,0,-8.468244,33.5431,89.93705)"/>
<use data-text="2" xlink:href="#font_2_2" transform="matrix(8.468244,0,0,-8.468244,40.129747,89.93705)"/>
<use data-text="&#x2212;" xlink:href="#font_1_1" transform="matrix(8.468244,0,0,-8.468244,61.2752,89.93705)"/>
<use data-text="1" xlink:href="#font_2_1" transform="matrix(8.468244,0,0,-8.468244,67.86185,89.93705)"/>
<use data-text="1" xlink:href="#font_2_1" transform="matrix(8.468244,0,0,-8.468244,120.033168,89.93705)"/>
<use data-text="2" xlink:href="#font_2_2" transform="matrix(8.468244,0,0,-8.468244,147.76526,89.93705)"/>
<use data-text="3" xlink:href="#font_2_3" transform="matrix(8.468244,0,0,-8.468244,175.49736,89.93705)"/>
<use data-text="&#x2212;" xlink:href="#font_1_1" transform="matrix(8.468244,0,0,-8.468244,78.629657,117.37165)"/>
<use data-text="2" xlink:href="#font_2_2" transform="matrix(8.468244,0,0,-8.468244,85.215457,117.37165)"/>
<use data-text="2" xlink:href="#font_2_2" transform="matrix(8.468244,0,0,-8.468244,85.215457,46.7545)"/>
<use data-text="4" xlink:href="#font_2_4" transform="matrix(8.468244,0,0,-8.468244,85.215457,11.269554)"/>
<g clip-path="url(#clip_3)">
<path transform="matrix(.85,0,0,-.85,11.221251,114.9959)" stroke-width="1.19553" stroke-linecap="butt" stroke-miterlimit="10" stroke-linejoin="miter" fill="none" stroke="#2471a3" d="M32.62607 125.24396C32.62607 125.24396 33.0999 124.03511 33.28186 123.57408 33.46384 123.11305 33.75569 122.37743 33.93767 121.92107 34.11963 121.46469 34.41148 120.7366 34.59346 120.28491 34.77545 119.83324 35.06729 119.11264 35.24928 118.66565 35.43126 118.21864 35.7231 117.50555 35.90508 117.06323 36.08704 116.62093 36.3789 115.91533 36.56087 115.4777 36.74284 115.04007 37.0347 114.34198 37.21667 113.90903 37.39864 113.47607 37.6905 112.78549 37.87247 112.35722 38.05444 111.92896 38.3463 111.24586 38.52826 110.82228 38.71024 110.3987 39.00208 109.72311 39.18407 109.30421 39.36604 108.8853 39.6579 108.21724 39.83987 107.80301 40.02187 107.3888 40.3137 106.72823 40.49568 106.31868 40.67764 105.90912 40.96951 105.25607 41.15147 104.8512 41.33344 104.44632 41.6253 103.8008 41.80727 103.4006 41.98924 103.00041 42.2811 102.36238 42.46307 101.96687 42.64503 101.57135 42.93689 100.94084 43.11887 100.55002 43.30086 100.15918 43.5927 99.53615 43.77469 99.15 43.95667 98.76385 44.24852 98.14835 44.43048 97.76688 44.61244 97.38542 44.90431 96.7774 45.08627 96.40062 45.26825 96.02383 45.5601 95.42331 45.74208 95.05121 45.92404 94.67911 46.21591 94.0861 46.39787 93.71869 46.57985 93.35127 46.8717 92.76578 47.05367 92.40303 47.23564 92.04028 47.52748 91.4623 47.70947 91.10423 47.89145 90.74617 48.1833 90.17569 48.36528 89.82231 48.54727 89.46892 48.83911 88.90594 49.02109 88.55725 49.20305 88.20854 49.49492 87.65308 49.67688 87.30905 49.85884 86.96504 50.15071 86.41708 50.33267 86.07774 50.51465 85.7384 50.8065 85.19794 50.98848 84.86327 51.17044 84.52861 51.4623 83.99567 51.64427 83.6657 51.82626 83.33572 52.1181 82.81026 52.3001 82.48497 52.48207 82.15968 52.77393 81.64172 52.95589 81.32112 53.13785 81.00052 53.42972 80.49008 53.61168 80.17413 53.79366 79.85818 54.08551 79.35527 54.26749 79.04402 54.44945 78.73276 54.74132 78.23734 54.92328 77.93076 55.10526 77.62418 55.39711 77.13628 55.57909 76.83438 55.76105 76.53249 56.05289 76.05206 56.23488 75.75485 56.41685 75.45764 56.70871 74.98474 56.89069 74.6922 57.07268 74.39967 57.36452 73.93428 57.5465 73.64644 57.72845 73.35858 58.02032 72.90068 58.20229 72.61752 58.38426 72.33435 58.67612 71.88394 58.85808 71.60545 59.04005 71.32698 59.33191 70.88411 59.51389 70.61029 59.69585 70.33647 59.9877 69.90111 60.16968 69.63197 60.35167 69.36284 60.64351 68.935 60.8255 68.67053 61.00748 68.40608 61.29933 67.98573 61.4813 67.72597 61.66325 67.46619 61.95512 67.05333 62.13708 66.79825 62.31906 66.54315 62.61092 66.13782 62.7929 65.8874 62.97485 65.637 63.26672 65.23915 63.44868 64.99342 63.63066 64.7477 63.9225 64.35738 64.10449 64.11633 64.28647 63.87529 64.57832 63.49243 64.7603 63.25607 64.94228 63.01971 65.23413 62.64438 65.41609 62.4127 65.59807 62.18103 65.88992 61.81322 66.0719 61.5862 66.25386 61.35919 66.54573 60.99889 66.72769 60.77657 66.90967 60.55423 67.20152 60.20143 67.38348 59.9838 67.56546 59.76614 67.85732 59.42087 68.03929 59.2079 68.22125 58.99493 68.5131 58.65715 68.69508 58.44887 68.87708 58.24059 69.16891 57.9103 69.3509 57.70668 69.53288 57.50308 69.82474 57.1803 70.0067 56.98138 70.18866 56.78247 70.48053 56.4672 70.66249 56.27296 70.84447 56.07872 71.13632 55.77095 71.3183 55.58139 71.50026 55.39183 71.79213 55.09157 71.97409 54.9067 72.15607 54.72182 72.4479 54.42906 72.6299 54.24886 72.81187 54.06865 73.10373 53.78342 73.2857 53.6079 73.46768 53.43237 73.75954 53.15465 73.9415 52.98381 74.12347 52.81297 74.41533 52.54274 74.5973 52.37659 74.77927 52.21043 75.07114 51.9477 75.2531 51.78621 75.43507 51.62474 75.72693 51.3695 75.9089 51.21272 76.09087 51.05592 76.38272 50.80821 76.5647 50.6561 76.74666 50.50398 77.03851 50.26376 77.22049 50.11633 77.40248 49.96892 77.69432 49.7362 77.87631 49.59344 78.05829 49.4507 78.35014 49.22551 78.5321 49.08742 78.71407 48.94934 79.00594 48.73167 79.1879 48.59827 79.36987 48.46487 79.66173 48.25468 79.8437 48.12598 80.02567 47.99725 80.31754 47.79459 80.4995 47.67055 80.68147 47.54652 80.97333 47.35136 81.1553 47.23201 81.33727 47.11266 81.62912 46.92499 81.8111 46.81032 81.99307 46.69565 82.28493 46.51549 82.4669 46.4055 82.6489 46.29552 82.94073 46.12285 83.12271 46.01755 83.30467 45.91225 83.59654 45.74709 83.7785 45.64647 83.96048 45.54585 84.25233 45.38818 84.43431 45.29225 84.61627 45.1963 84.90813 45.04617 85.0901 44.95491 85.27206 44.86363 85.56392 44.72101 85.7459 44.63441 85.92789 44.54782 86.21973 44.4127 86.40172 44.3308 86.5837 44.24889 86.87555 44.12129 87.05751 44.04407 87.23949 43.96683 87.53134 43.84673 87.7133 43.77419 87.89528 43.70163 88.18713 43.58904 88.36911 43.52118 88.55107 43.45331 88.84294 43.3482 89.0249 43.28502 89.20688 43.22185 89.49872 43.12425 89.68071 43.06575 89.86269 43.00726 90.15454 42.91716 90.33652 42.86334 90.5185 42.80952 90.81035 42.72693 90.99231 42.6778 91.17429 42.62866 91.46614 42.55359 91.64812 42.50912 91.83008 42.46465 92.12195 42.3971 92.30391 42.35732 92.48589 42.31752 92.77774 42.25748 92.95972 42.22238 93.14168 42.18727 93.43355 42.13472 93.61551 42.10431 93.79747 42.07388 94.08932 42.02884 94.2713 42.0031 94.4533 41.97737 94.74513 41.93982 94.92712 41.91876 95.1091 41.8977 95.40096 41.86768 95.58292 41.8513 95.7649 41.83493 96.05675 41.81238 96.23871 41.80069 96.42068 41.789 96.71254 41.77397 96.89452 41.76695 97.07648 41.75995 97.36835 41.75243 97.55031 41.75008 97.73228 41.74774 98.02412 41.74774 98.20612 41.75008 98.38809 41.75243 98.67995 41.75995 98.86192 41.76695 99.0439 41.77397 99.33575 41.789 99.51772 41.80069 99.69969 41.81238 99.99155 41.83493 100.17352 41.8513 100.35548 41.86768 100.64735 41.8977 100.82932 41.91876 101.01129 41.93982 101.30315 41.97737 101.48512 42.0031 101.66708 42.02884 101.95895 42.07388 102.14091 42.10431 102.32288 42.13472 102.61473 42.18727 102.7967 42.22238 102.9787 42.25748 103.27054 42.31752 103.45253 42.35732 103.6345 42.3971 103.92636 42.46465 104.10832 42.50912 104.2903 42.55359 104.58215 42.62866 104.76413 42.6778 104.94609 42.72693 105.23795 42.80952 105.41992 42.86334 105.60188 42.91716 105.89375 43.00726 106.07571 43.06575 106.25769 43.12425 106.54953 43.22185 106.73152 43.28502 106.9135 43.3482 107.20535 43.45331 107.38733 43.52118 107.5693 43.58904 107.86116 43.70163 108.04312 43.77419 108.2251 43.84673 108.51695 43.96683 108.69893 44.04407 108.88089 44.12129 109.17276 44.24889 109.35472 44.3308 109.5367 44.4127 109.82855 44.54782 110.01053 44.63441 110.19249 44.72101 110.48436 44.86363 110.66632 44.95491 110.84828 45.04617 111.14014 45.1963 111.32211 45.29225 111.5041 45.38818 111.79594 45.54585 111.97794 45.64647 112.15991 45.74709 112.45177 45.91225 112.63373 46.01755 112.8157 46.12285 113.10756 46.29552 113.28954 46.4055 113.4715 46.51549 113.76337 46.69565 113.94533 46.81032 114.12729 46.92499 114.41916 47.11266 114.60112 47.23201 114.7831 47.35136 115.07494 47.54652 115.25693 47.67055 115.4389 47.79459 115.73076 47.99725 115.91273 48.12598 116.09473 48.25468 116.38657 48.46487 116.56853 48.59827 116.7505 48.73167 117.04236 48.94934 117.22433 49.08742 117.4063 49.22551 117.69817 49.4507 117.88013 49.59344 118.0621 49.7362 118.35396 49.96892 118.53593 50.11633 118.7179 50.26376 119.00977 50.50398 119.19173 50.6561 119.37369 50.80821 119.66554 51.05592 119.84752 51.21272 120.02951 51.3695 120.32135 51.62474 120.50334 51.78621 120.68532 51.9477 120.97717 52.21043 121.15913 52.37659 121.34111 52.54274 121.63297 52.81297 121.81494 52.98381 121.9969 53.15465 122.28877 53.43237 122.47073 53.6079 122.6527 53.78342 122.94456 54.06865 123.12653 54.24886 123.3085 54.42906 123.60034 54.72182 123.78233 54.9067 123.96431 55.09157 124.25616 55.39183 124.43814 55.58139 124.62013 55.77095 124.91197 56.07872 125.09395 56.27296 125.27591 56.4672 125.56776 56.78247 125.74974 56.98138 125.9317 57.1803 126.22357 57.50308 126.40553 57.70668 126.58751 57.9103 126.87936 58.24059 127.06134 58.44887 127.2433 58.65715 127.53517 58.99493 127.71713 59.2079 127.8991 59.42087 128.19095 59.76614 128.37293 59.9838 128.55492 60.20143 128.84676 60.55423 129.02875 60.77657 129.21073 60.99889 129.50258 61.35919 129.68454 61.5862 129.86652 61.81322 130.15837 62.18103 130.34035 62.4127 130.52231 62.64438 130.81418 63.01971 130.99614 63.25607 131.1781 63.49243 131.46997 63.87529 131.65193 64.11633 131.83391 64.35738 132.12575 64.7477 132.30774 64.99342 132.48972 65.23915 132.78157 65.637 132.96355 65.8874 133.14554 66.13782 133.43738 66.54315 133.61936 66.79825 133.80132 67.05333 134.09317 67.46619 134.27515 67.72597 134.4571 67.98573 134.74898 68.40608 134.93094 68.67053 135.11292 68.935 135.40477 69.36284 135.58675 69.63197 135.7687 69.90111 136.06058 70.33647 136.24254 70.61029 136.42452 70.88411 136.71636 71.32698 136.89833 71.60545 137.08032 71.88394 137.37216 72.33435 137.55416 72.61752 137.73613 72.90068 138.02799 73.35858 138.20995 73.64644 138.39192 73.93428 138.68378 74.39967 138.86576 74.6922 139.04772 74.98474 139.33959 75.45764 139.52155 75.75485 139.7035 76.05206 139.99538 76.53249 140.17734 76.83438 140.35932 77.13628 140.65116 77.62418 140.83315 77.93076 141.01512 78.23734 141.30698 78.73276 141.48896 79.04402 141.67095 79.35527 141.96279 79.85818 142.14476 80.17413 142.32672 80.49008 142.61859 81.00052 142.80055 81.32112 142.98252 81.64172 143.27439 82.15968 143.45635 82.48497 143.63832 82.81026 143.93018 83.33572 144.11215 83.6657 144.29412 83.99567 144.58599 84.52861 144.76795 84.86327 144.94992 85.19794 145.24176 85.7384 145.42375 86.07774 145.60573 86.41708 145.89757 86.96504 146.07956 87.30905 146.26154 87.65308 146.55339 88.20854 146.73535 88.55725 146.91733 88.90594 147.20919 89.46892 147.39116 89.82231 147.57312 90.17569 147.86499 90.74617 148.04695 91.10423 148.22891 91.4623 148.52079 92.04028 148.70275 92.40303 148.88472 92.76578 149.17656 93.35127 149.35855 93.71869 149.54053 94.0861 149.83238 94.67911 150.01436 95.05121 150.19635 95.42331 150.48819 96.02383 150.67017 96.40062 150.85213 96.7774 151.144 97.38542 151.32596 97.76688 151.50792 98.14835 151.79979 98.76385 151.98175 99.15 152.16373 99.53615 152.45558 100.15918 152.63756 100.55002 152.81952 100.94084 153.11139 101.57135 153.29335 101.96687 153.47533 102.36238 153.76717 103.00041 153.94916 103.4006 154.13114 103.8008 154.42298 104.44632 154.60497 104.8512 154.78694 105.25607 155.0788 105.90912 155.26076 106.31868 155.44274 106.72823 155.73459 107.3888 155.91657 107.80301 156.09853 108.21724 156.3904 108.8853 156.57236 109.30421 156.75434 109.72311 157.04619 110.3987 157.22815 110.82228 157.41013 111.24586 157.70197 111.92896 157.88396 112.35722 158.06594 112.78549 158.35779 113.47607 158.53977 113.90903 158.72176 114.34198 159.0136 115.04007 159.19557 115.4777 159.37754 115.91533 159.6694 116.62093 159.85137 117.06323 160.03333 117.50555 160.3252 118.21864 160.50716 118.66565 160.68914 119.11264 160.98099 119.83324 161.16297 120.28491 161.34493 120.7366 161.63678 121.46469 161.81876 121.92107 162.00075 122.37743 162.29259 123.11305 162.47458 123.57408 162.65656 124.03511 163.13037 125.24396 163.13037 125.24396"/>
<path transform="matrix(.85,0,0,-.85,11.221251,114.9959)" stroke-width="1.19553" stroke-linecap="butt" stroke-miterlimit="10" stroke-linejoin="miter" fill="none" stroke="#b30000" d="M32.62607-62.62198 33.28186-61.7828 33.93767-60.94366 34.59346-60.1045 35.24928-59.26535 35.90508-58.4262 36.56087-57.58704 37.21667-56.74788 37.87247-55.90872 38.52826-55.06956 39.18407-54.23042 39.83987-53.39125 40.49568-52.55211 41.15147-51.71294 41.80727-50.8738 42.46307-50.03464 43.11887-49.19548 43.77469-48.35632 44.43048-47.51717 45.08627-46.67801 45.74208-45.83887 46.39787-44.99971 47.05367-44.16055 47.70947-43.3214 48.36528-42.48224 49.02109-41.6431 49.67688-40.80392 50.33267-39.96478 50.98848-39.12561 51.64427-38.28647 52.3001-37.4473 52.95589-36.60815 53.61168-35.769 54.26749-34.92984 54.92328-34.09068 55.57909-33.25153 56.23488-32.41237 56.89069-31.57323 57.5465-30.73405 58.20229-29.89491 58.85808-29.05574 59.51389-28.2166 60.16968-27.37743 60.8255-26.53828 61.4813-25.69913 62.13708-24.85997 62.7929-24.02083 63.44868-23.18166 64.10449-22.34251 64.7603-21.50336 65.41609-20.6642 66.0719-19.82504 66.72769-18.98589 67.38348-18.14673 68.03929-17.30757 68.69508-16.46841 69.3509-15.62927 70.0067-14.7901 70.66249-13.95096 71.3183-13.11179 71.97409-12.27264 72.6299-11.43349 73.2857-10.59433 73.9415-9.75517 74.5973-8.91602 75.2531-8.07686 75.9089-7.23772 76.5647-6.39854 77.22049-5.5594 77.87631-4.72023 78.5321-3.88109 79.1879-3.04193 79.8437-2.20277 80.4995-1.36363 81.1553-.52446 81.8111 .31467 82.4669 1.15384 83.12271 1.99298 83.7785 2.83214 84.43431 3.6713 85.0901 4.51045 85.7459 5.34961 86.40172 6.18877 87.05751 7.02791 87.7133 7.86708 88.36911 8.70622 89.0249 9.5454 89.68071 10.38454 90.33652 11.22371 90.99231 12.06285 91.64812 12.90201 92.30391 13.74117 92.95972 14.58032 93.61551 15.41948 94.2713 16.25864 94.92712 17.09778 95.58292 17.93695 96.23871 18.7761 96.89452 19.61525 97.55031 20.4544 98.20612 21.29355 98.86192 22.13272 99.51772 22.97186 100.17352 23.81104 100.82932 24.65018 101.48512 25.48935 102.14091 26.32849 102.7967 27.16765 103.45253 28.0068 104.10832 28.84596 104.76413 29.68512 105.41992 30.52428 106.07571 31.36342 106.73152 32.20259 107.38733 33.04173 108.04312 33.8809 108.69893 34.72005 109.35472 35.55922 110.01053 36.39836 110.66632 37.23752 111.32211 38.07668 111.97794 38.91583 112.63373 39.75499 113.28954 40.59415 113.94533 41.43329 114.60112 42.27245 115.25693 43.1116 115.91273 43.95076 116.56853 44.78992 117.22433 45.62906 117.88013 46.46823 118.53593 47.30737 119.19173 48.14655 119.84752 48.98569 120.50334 49.82486 121.15913 50.664 121.81494 51.50316 122.47073 52.34232 123.12653 53.18147 123.78233 54.02063 124.43814 54.85979 125.09395 55.69893 125.74974 56.5381 126.40553 57.37724 127.06134 58.21642 127.71713 59.05556 128.37293 59.89471 129.02875 60.73387 129.68454 61.57303 130.34035 62.41219 130.99614 63.25133 131.65193 64.0905 132.30774 64.92964 132.96355 65.7688 133.61936 66.60796 134.27515 67.44711 134.93094 68.28627 135.58675 69.12543 136.24254 69.96457 136.89833 70.80374 137.55416 71.64288 138.20995 72.48206 138.86576 73.3212 139.52155 74.16037 140.17734 74.99951 140.83315 75.83867 141.48896 76.67783 142.14476 77.51698 142.80055 78.35614 143.45635 79.1953 144.11215 80.03444 144.76795 80.87361 145.42375 81.71275 146.07956 82.55193 146.73535 83.39107 147.39116 84.23022 148.04695 85.06938 148.70275 85.90852 149.35855 86.7477 150.01436 87.58684 150.67017 88.426 151.32596 89.26515 151.98175 90.10431 152.63756 90.94347 153.29335 91.78262 153.94916 92.62178 154.60497 93.46094 155.26076 94.30008 155.91657 95.13925 156.57236 95.9784 157.22815 96.81757 157.88396 97.65671 158.53977 98.49586 159.19557 99.33502 159.85137 100.17418 160.50716 101.01334 161.16297 101.8525 161.81876 102.69165 162.47458 103.5308 163.13037 104.36995"/>
<use data-text="&#x2022;" xlink:href="#font_1_2" transform="matrix(8.468244,0,0,-8.468244,120.033168,63.650804)" fill="#1e8449"/>
<use data-text="T" xlink:href="#font_4_1" transform="matrix(8.468244,0,0,-8.468244,112.86426,58.607759)" fill="#1e8449"/>
</g>
<use data-text="x" xlink:href="#font_4_2" transform="matrix(8.468244,0,0,-8.468244,169.61365,76.34981)"/>
<use data-text="y" xlink:href="#font_4_3" transform="matrix(8.468244,0,0,-8.468244,97.57955,15.347847)"/>
</svg>
