<svg xmlns="http://www.w3.org/2000/svg" xmlns:xlink="http://www.w3.org/1999/xlink" xmlns:inkscape="http://www.inkscape.org/namespaces/inkscape" version="1.1" width="262.49" height="165.682" viewBox="0 0 262.49 165.682">
<defs>
<path id="font_1_2" d="M.33399964 .30233766C.33999635 .32835389 .36299134 .42037965 .43299867 .42037965 .43798829 .42037965 .46199037 .42037965 .48298646 .40734864 .45498658 .402359 .43499757 .37734986 .43499757 .35334779 .43499757 .33735658 .44599916 .31835938 .47299195 .31835938 .49499513 .31835938 .5269928 .3363495 .5269928 .37635804 .5269928 .42837525 .46798707 .4423828 .43399049 .4423828 .37599183 .4423828 .34098817 .38935853 .32899476 .36634828 .3039856 .43237306 .25 .4423828 .22099304 .4423828 .116989139 .4423828 .05999756 .3133545 .05999756 .28834535 .05999756 .27833558 .069992069 .27833558 .07199097 .27833558 .07998657 .27833558 .08299255 .28033448 .084991458 .28933717 .11898804 .39535523 .18499756 .42037965 .21899414 .42037965 .23799134 .42037965 .272995 .4113617 .272995 .35334779 .272995 .32235719 .2559967 .25532533 .21899414 .11528015 .20298767 .053268434 .16799927 .011245728 .12399292 .011245728 .117996219 .011245728 .09498596 .011245728 .07398987 .024276734 .09899902 .029266358 .12098694 .05027771 .12098694 .07827759 .12098694 .105270389 .09899902 .11328125 .083999637 .11328125 .053985597 .11328125 .0289917 .08728027 .0289917 .055267335 .0289917 .009246826 .07899475-.0107421879 .12298584-.0107421879 .18899536-.0107421879 .22499085 .059280397 .22799683 .0652771 .23999024 .028274537 .27598573-.0107421879 .33599855-.0107421879 .43899537-.0107421879 .49598695 .118270877 .49598695 .14328003 .49598695 .1532898 .4869995 .1532898 .48399354 .1532898 .47499085 .1532898 .47299195 .14929199 .47099305 .14228821 .43798829 .03527832 .36999513 .011245728 .33799745 .011245728 .29899598 .011245728 .2829895 .043273927 .2829895 .07727051 .2829895 .09927368 .2889862 .121276859 .2999878 .16529846L.33399964 .30233766Z"/>
<path id="font_1_3" d="M.48599244 .38136292C.48999024 .39537049 .48999024 .39736939 .48999024 .40437318 .48999024 .42237855 .47599793 .43138124 .46099855 .43138124 .45098878 .43138124 .43499757 .42536927 .42599488 .41036988 .42399598 .405365 .41600038 .37435914 .4119873 .35635377 .40499879 .33035279 .397995 .30334474 .3919983 .27633668L.34700013 .09628296C.34298707 .08126831 .2999878 .011245728 .23399353 .011245728 .18299866 .011245728 .17199707 .055267335 .17199707 .0922699 .17199707 .1382904 .18899536 .20030213 .22299195 .28833009 .23899842 .3293457 .24299622 .3403473 .24299622 .36035157 .24299622 .405365 .21099854 .4423828 .16099549 .4423828 .06599426 .4423828 .0289917 .29733277 .0289917 .28833009 .0289917 .27833558 .038986207 .27833558 .040985109 .27833558 .050994874 .27833558 .051986696 .28033448 .056991579 .29634095 .083999637 .3903656 .12399292 .42037965 .1579895 .42037965 .1659851 .42037965 .18299866 .42037965 .18299866 .3883667 .18299866 .36335755 .17298889 .3373413 .1659851 .31834413 .12599182 .21231079 .10798645 .1552887 .10798645 .10827637 .10798645 .019256592 .17098999-.0107421879 .22999573-.0107421879 .2689972-.0107421879 .30299378 .0062561037 .33099366 .03425598 .31799317-.017745972 .30599977-.06674194 .2659912-.11973572 .23999024-.15385437 .20199585-.18309021 .1559906-.18309021 .14199829-.18309021 .09700012-.18005371 .07998657-.14074707 .09599304-.14074707 .10899353-.14074707 .12298584-.1287384 .1329956-.11973572 .14299011-.10673523 .14299011-.08773804 .14299011-.056747438 .115997318-.052734376 .10598755-.052734376 .08299255-.052734376 .049987794-.068740848 .049987794-.11773682 .049987794-.16796875 .09399414-.20507813 .1559906-.20507813 .25898744-.20507813 .3619995-.11373901 .3899994-.00074768069L.48599244 .38136292Z"/>
<path id="font_1_1" d="M.73999026 .4358673C.73999026 .5970001 .6339874 .7050781 .4850006 .7050781 .2689972 .7050781 .04899597 .47790528 .04899597 .24472046 .04899597 .07859802 .16099549-.022460938 .30499269-.022460938 .5169983-.022460938 .73999026 .19668579 .73999026 .4358673M.31098939 .0035247803C.21199036 .0035247803 .14199829 .08459473 .14199829 .21670532 .14199829 .2607422 .1559906 .4068451 .23298645 .52394106 .3019867 .62802127 .3999939 .68006899 .47898866 .68006899 .5609894 .68006899 .651001 .62402346 .651001 .4748993 .651001 .4028473 .6239929 .24671936 .5249939 .12362671 .47698976 .062576297 .394989 .0035247803 .31098939 .0035247803Z"/>
<path id="font_2_1" d="M.1269989 .07699585 .23298645 .18003845C.3889923 .31811524 .44898988 .3721466 .44898988 .47216798 .44898988 .5860901 .35899354 .6660156 .23699951 .6660156 .12399292 .6660156 .049987794 .57411196 .049987794 .48516847 .049987794 .4291687 .099990848 .4291687 .102996829 .4291687 .11999512 .4291687 .15499878 .44117738 .15499878 .48217774 .15499878 .5081787 .13699341 .5341797 .101989749 .5341797 .09399414 .5341797 .09199524 .5341797 .08898926 .5331726 .11199951 .59806826 .1659851 .63500979 .22399903 .63500979 .31498719 .63500979 .35798646 .5541382 .35798646 .47216798 .35798646 .39215089 .30799867 .31311036 .25299073 .25108338L.06098938 .036987306C.049987794 .025985718 .049987794 .023986817 .049987794 0H.42099L.44898988 .17404175H.42399598C.4189911 .14402771 .4119873 .1000061 .4019928 .084991458 .394989 .07699585 .32899476 .07699585 .30699159 .07699585H.1269989Z"/>
</defs>
<path transform="matrix(1,0,0,-1,122.243,88.79301)" stroke-width=".3985" stroke-linecap="butt" stroke-miterlimit="10" stroke-linejoin="miter" fill="none" stroke="#000000" d="M-119.0565 0H122.73326"/>
<path transform="matrix(1,0,0,-1,244.97626,88.79301)" d="M1.99252 0-1.19551 1.59401 0 0-1.19551-1.59401"/>
<use data-text="x" xlink:href="#font_1_2" transform="matrix(9.96264,0,0,-9.96264,250.487,96.602008)"/>
<path transform="matrix(1,0,0,-1,122.243,88.79301)" stroke-width=".3985" stroke-linecap="butt" stroke-miterlimit="10" stroke-linejoin="miter" fill="none" stroke="#000000" d="M0-73.70186V77.37862"/>
<path transform="matrix(0,-1,-1,-0,122.243,11.414391)" d="M1.99252 0-1.19551 1.59401 0 0-1.19551-1.59401"/>
<use data-text="y" xlink:href="#font_1_3" transform="matrix(9.96264,0,0,-9.96264,113.480998,10.599014)"/>
<use data-text="O" xlink:href="#font_1_1" transform="matrix(9.96264,0,0,-9.96264,110.847,99.12101)"/>
<path transform="matrix(1,0,0,-1,122.243,88.79301)" stroke-width=".3985" stroke-linecap="butt" stroke-miterlimit="10" stroke-linejoin="miter" fill="none" stroke="#000000" d="M-1.70073 56.69362H1.70073"/>
<use data-text="2" xlink:href="#font_2_1" transform="matrix(9.96264,0,0,-9.96264,112.041,35.310014)"/>
<path transform="matrix(1,0,0,-1,122.243,88.79301)" stroke-width=".79701" stroke-linecap="butt" stroke-miterlimit="10" stroke-linejoin="miter" fill="none" stroke="#0000ff" d="M-113.38724-26.67894C-113.38724-26.67894-112.56406-26.85097-112.24792-26.9177-111.93178-26.98442-111.42474-27.09222-111.10861-27.15991-110.79247-27.22758-110.28545-27.33646-109.96931-27.4056-109.65317-27.47472-109.14613-27.58788-108.83-27.6582-108.51385-27.72852-108.00684-27.84148-107.6907-27.91252-107.37456-27.98358-106.86752-28.09807-106.55139-28.17032-106.23524-28.24258-105.72823-28.35938-105.4121-28.4333-105.09595-28.50723-104.58891-28.62784-104.27278-28.70322-103.95663-28.77858-103.44962-28.90001-103.13348-28.97658-102.81734-29.05315-102.3103-29.1776-101.99417-29.25513-101.67802-29.33266-101.17102-29.45668-100.85487-29.53542-100.53873-29.61415-100.03171-29.7422-99.71556-29.82262-99.39941-29.90302-98.89241-30.03316-98.57626-30.115-98.26012-30.19685-97.7531-30.32907-97.43695-30.4126-97.1208-30.49614-96.6138-30.63237-96.29765-30.71712-95.9815-30.80185-95.47449-30.93741-95.15834-31.02335-94.84221-31.10927-94.33519-31.24864-94.01904-31.3365-93.70291-31.42435-93.19588-31.56705-92.87973-31.65657-92.5636-31.74611-92.05656-31.89087-91.74042-31.98184-91.42429-32.0728-90.91727-32.21988-90.60112-32.3123-90.28499-32.40471-89.77795-32.55363-89.4618-32.64796-89.14568-32.7423-88.63866-32.89624-88.32251-32.99225-88.00638-33.08827-87.49934-33.24232-87.1832-33.34001-86.86707-33.4377-86.36005-33.59656-86.0439-33.69643-85.72777-33.79628-85.22073-33.95822-84.90459-34.05975-84.58846-34.16129-84.08144-34.32506-83.76529-34.42828-83.44916-34.5315-82.94212-34.69882-82.62598-34.80373-82.30984-34.90862-81.80283-35.0773-81.48668-35.18434-81.17055-35.2914-80.66351-35.46616-80.34737-35.57538-80.03123-35.68459-79.52422-35.86067-79.20808-35.97157-78.89194-36.08246-78.3849-36.26189-78.06877-36.3747-77.75262-36.4875-77.2456-36.66954-76.92947-36.78474-76.61333-36.89996-76.1063-37.0878-75.79016-37.20518-75.47401-37.32256-74.967-37.51172-74.65086-37.63078-74.33472-37.74985-73.82768-37.94211-73.51155-38.06332-73.1954-38.18456-72.68839-38.38115-72.37225-38.50452-72.0561-38.6279-71.54907-38.82709-71.23294-38.95264-70.9168-39.07817-70.40976-39.2817-70.09363-39.4094-69.77748-39.53708-69.27046-39.74297-68.95433-39.87306-68.63818-40.00316-68.13115-40.21461-67.81502-40.34712-67.49887-40.47963-66.99185-40.69392-66.67572-40.82811-66.35957-40.9623-65.85254-41.17818-65.5364-41.31429-65.22026-41.4504-64.71324-41.67061-64.39711-41.80911-64.08096-41.94762-63.57393-42.17192-63.2578-42.31259-62.94165-42.45325-62.43465-42.68016-62.1185-42.82298-61.80235-42.9658-61.29533-43.19727-60.97919-43.34203-60.66304-43.48677-60.15604-43.71935-59.83989-43.86626-59.52374-44.01317-59.01672-44.2523-58.70058-44.40088-58.38443-44.54947-57.87743-44.78673-57.56128-44.93723-57.24513-45.08772-56.73811-45.33325-56.42197-45.48569-56.10583-45.6381-55.59882-45.88223-55.28267-46.03587-54.96654-46.1895-54.4595-46.4379-54.14336-46.59297-53.82722-46.74805-53.3202-46.99751-53.00406-47.15355-52.68793-47.30959-52.1809-47.56082-51.86475-47.71758-51.54861-47.87433-51.0416-48.12587-50.72545-48.28333-50.40932-48.4408-49.90228-48.69461-49.58614-48.85255-49.27-49.0105-48.76297-49.26334-48.44682-49.42178-48.13069-49.58022-47.62367-49.8365-47.30753-49.99445-46.9914-50.1524-46.48436-50.40372-46.16821-50.56023-45.85208-50.71672-45.34506-50.96745-45.02892-51.12251-44.71278-51.27757-44.20575-51.52498-43.8896-51.67789-43.57347-51.8308-43.06645-52.07484-42.7503-52.22462-42.43417-52.3744-41.92714-52.61108-41.611-52.75752-41.29486-52.90395-40.78784-53.13766-40.4717-53.28001-40.15556-53.42235-39.64853-53.64642-39.3324-53.78348-39.01625-53.92055-38.50923-54.13783-38.1931-54.26794-37.87695-54.39804-37.36992-54.59976-37.05379-54.72124-36.73764-54.8427-36.23062-55.0313-35.91449-55.14339-35.59834-55.2555-35.09131-55.42816-34.77518-55.52922-34.45903-55.63026-33.95201-55.78343-33.63588-55.87178-33.31973-55.96011-32.8127-56.09222-32.49657-56.16591-32.18042-56.2396-31.6734-56.347-31.35727-56.40294-31.04112-56.45886-30.53409-56.5304-30.21796-56.56903-29.90181-56.60768-29.39479-56.6659-29.07866-56.6815-28.76251-56.6971-28.25548-56.69229-27.93935-56.6815-27.6232-56.6707-27.11617-56.64131-26.80003-56.60364-26.48389-56.56595-25.97687-56.48068-25.66074-56.40987-25.34459-56.33905-24.83755-56.19862-24.52142-56.09325-24.20528-55.98785-23.69827-55.79362-23.38213-55.65031-23.06598-55.507-22.55896-55.24757-22.24281-55.06035-21.92667-54.87311-21.41966-54.53366-21.10352-54.30081-20.78737-54.06796-20.28035-53.6651-19.9642-53.3821-19.64806-53.09908-19.14105-52.60231-18.8249-52.26096-18.50876-51.91962-18.00174-51.32462-17.6856-50.92181-17.36946-50.51901-16.86244-49.82346-16.5463-49.35776-16.23016-48.89206-15.72313-48.0956-15.40698-47.56532-15.09085-47.03505-14.58383-46.13672-14.26768-45.53586-13.95155-44.935-13.44452-43.90955-13.12837-43.23476-12.81224-42.55997-12.30522-41.41824-11.98907-40.6724-11.67294-39.92656-11.16591-38.67896-10.84976-37.85916-10.53363-37.03938-10.02661-35.65741-9.71046-34.76392-9.39433-33.87044-8.8873-32.38383-8.57115-31.41954-8.25502-30.45526-7.748-28.8459-7.43185-27.81392-7.11572-26.78192-6.60869-25.07338-6.29254-23.98161-5.97641-22.88986-5.46938-21.09047-5.15323-19.94518-4.8371-18.79987-4.33008-16.91652-4.01393-15.72707-3.6978-14.5376-3.19077-12.59631-2.87462-11.37227-2.55849-10.14824-2.05147-8.15259-1.73532-6.90501-1.41919-5.65746-.91216-3.63963-.59602-2.38066-.27988-1.1217 .22711 .90828 .54324 2.16873 .85939 3.4292 1.36642 5.45442 1.68256 6.7039 1.9987 7.95338 2.50572 9.94823 2.82185 11.17418 3.138 12.40013 3.64503 14.3488 3.96117 15.53978 4.27731 16.73074 4.78433 18.61137 5.10046 19.75789 5.41661 20.90439 5.92365 22.70923 6.23978 23.80298 6.55592 24.89673 7.06294 26.60735 7.37907 27.6409 7.69522 28.67445 8.20226 30.28503 8.51839 31.25215 8.83453 32.21928 9.34155 33.71411 9.65768 34.61125 9.97383 35.50839 10.48087 36.89377 10.797 37.71817 11.11314 38.54257 11.62016 39.80296 11.9363 40.55302 12.25244 41.30307 12.75948 42.44678 13.0756 43.12402 13.39175 43.80127 13.89877 44.82933 14.2149 45.4342 14.53105 46.03908 15.03807 46.9491 15.35422 47.48357 15.67036 48.01804 16.17738 48.81871 16.49353 49.28639 16.80968 49.75406 17.31668 50.4508 17.63283 50.85434 17.94897 51.25786 18.456 51.85144 18.77214 52.19478 19.08829 52.53812 19.59529 53.04095 19.91144 53.3289 20.22758 53.61684 20.7346 54.0337 21.05075 54.2701 21.36688 54.50648 21.8739 54.8431 22.19005 55.03265 22.50618 55.22223 23.01321 55.49059 23.32936 55.63647 23.6455 55.78238 24.15251 55.97801 24.46866 56.08417 24.78479 56.19032 25.29182 56.33046 25.60797 56.40164 25.9241 56.47282 26.43112 56.55786 26.74727 56.59715 27.0634 56.63646 27.57043 56.6739 27.88658 56.68495 28.20271 56.69598 28.70973 56.69089 29.02588 56.67674 29.34201 56.66258 29.84904 56.61949 30.16519 56.58289 30.48132 56.54628 30.98834 56.46858 31.30449 56.41289 31.62062 56.35721 32.12766 56.2542 32.4438 56.18147 32.75993 56.10875 33.26695 55.97687 33.5831 55.88866 33.89923 55.80043 34.40627 55.64659 34.72241 55.54565 35.03854 55.4447 35.54556 55.27309 35.86171 55.16112 36.17784 55.04913 36.68488 54.86 37.00102 54.73853 37.31715 54.61707 37.82419 54.41505 38.14032 54.28566 38.45647 54.15628 38.96349 53.94232 39.27962 53.80598 39.59576 53.66963 40.1028 53.44485 40.41893 53.30293 40.73508 53.16101 41.2421 52.92921 41.55823 52.78302 41.87437 52.63684 42.38141 52.3993 42.69754 52.24928 43.01369 52.09926 43.5207 51.85458 43.83684 51.70168 44.15298 51.54878 44.66002 51.30212 44.97615 51.14717 45.2923 50.99222 45.79932 50.74155 46.11545 50.58487 46.4316 50.42818 46.93863 50.17534 47.25476 50.01782 47.5709 49.86029 48.07793 49.60728 48.39406 49.44946 48.7102 49.29163 49.21724 49.03818 49.53337 48.88023 49.84952 48.72229 50.35654 48.46866 50.67267 48.31102 50.98882 48.15337 51.49585 47.9009 51.81198 47.74396 52.12813 47.58704 52.63515 47.33607 52.95128 47.17993 53.26743 47.02377 53.77444 46.77351 54.09059 46.6185 54.40674 46.46349 54.91374 46.21645 55.22989 46.06268 55.54604 45.90894 56.05305 45.66258 56.3692 45.51033 56.68535 45.3581 57.19235 45.11578 57.5085 44.96533 57.82465 44.81488 58.33167 44.5748 58.64781 44.42596 58.96396 44.27715 59.47098 44.03957 59.78712 43.89265 60.10326 43.74574 60.61028 43.51196 60.92642 43.3671 61.24255 43.22224 61.74959 42.99132 62.06573 42.8485 62.38187 42.70567 62.88889 42.47845 63.20503 42.33768 63.52116 42.19688 64.0282 41.9725 64.34435 41.83376 64.66048 41.695 65.1675 41.47433 65.48364 41.33763 65.79977 41.20094 66.30681 40.98285 66.62296 40.84843 66.93909 40.71402 67.4461 40.50089 67.76225 40.36876 68.07838 40.23662 68.58542 40.02603 68.90157 39.89598 69.2177 39.76595 69.72472 39.55939 70.04086 39.43144 70.357 39.30351 70.86403 39.09961 71.18018 38.97382 71.4963 38.84804 72.00333 38.64835 72.31947 38.52484 72.6356 38.40135 73.14264 38.205 73.45879 38.08365 73.77492 37.96231 74.28194 37.76956 74.59808 37.65027 74.91422 37.53096 75.42125 37.3411 75.7374 37.22377 76.05353 37.10645 76.56055 36.91972 76.87668 36.80464 77.19283 36.68954 77.69986 36.50722 78.01599 36.39417 78.33214 36.28111 78.83916 36.10081 79.15529 35.98973 79.47144 35.87865 79.97847 35.70253 80.2946 35.59354 80.61075 35.48456 81.11778 35.31142 81.43391 35.20425 81.75006 35.09708 82.25708 34.92628 82.57321 34.82101 82.88936 34.71576 83.3964 34.54886 83.71252 34.44557 84.02867 34.3423 84.53569 34.1781 84.85182 34.07663 85.16797 33.97516 85.675 33.81384 85.99113 33.71416 86.30728 33.61449 86.8143 33.45605 87.13043 33.35818 87.44658 33.26031 87.95361 33.10483 88.26974 33.00868 88.58589 32.91255 89.09291 32.75964 89.40904 32.66525 89.72519 32.57088 90.23222 32.42096 90.54836 32.32831 90.8645 32.23566 91.37152 32.08852 91.68765 31.99742 92.0038 31.90633 92.51083 31.76126 92.82697 31.67172 93.14311 31.58218 93.65012 31.43991 93.96626 31.35207 94.28241 31.26422 94.78943 31.12477 95.10558 31.03848 95.42172 30.9522 95.92873 30.81494 96.24487 30.73007 96.56102 30.64522 97.06804 30.51028 97.38419 30.42688 97.70033 30.34346 98.20734 30.21077 98.52348 30.12886 98.83963 30.04695 99.34665 29.91692 99.6628 29.83646 99.97893 29.756 100.48595 29.62785 100.8021 29.54883 101.11823 29.46979 101.62526 29.34451 101.9414 29.2668 102.25754 29.18909 102.76457 29.06512 103.08072 28.98868 103.39685 28.91223 103.90387 28.79082 104.22002 28.71576 104.53615 28.64069 105.04318 28.52138 105.35933 28.44757 105.67546 28.37376 106.18248 28.25633 106.49863 28.18373 106.81476 28.11113 107.3218 27.9956 107.63794 27.92421 107.95407 27.8528 108.46109 27.73921 108.77724 27.669 109.09337 27.5988 109.6004 27.48708 109.91655 27.41812 110.23268 27.34918 110.7397 27.23988 111.05585 27.17203 111.37198 27.10416 111.87901 26.99577 112.19516 26.92892 112.51129 26.86209 113.33446 26.69017 113.33446 26.69017"/>
</svg>
