<svg xmlns="http://www.w3.org/2000/svg" xmlns:xlink="http://www.w3.org/1999/xlink" xmlns:inkscape="http://www.inkscape.org/namespaces/inkscape" version="1.1" width="233.009" height="531.215" viewBox="0 0 233.009 531.215">
<defs>
<path id="font_1_1" d="M.33399964 .30233766C.33999635 .32835389 .36299134 .42037965 .43299867 .42037965 .43798829 .42037965 .46199037 .42037965 .48298646 .40734864 .45498658 .402359 .43499757 .37734986 .43499757 .35334779 .43499757 .33735658 .44599916 .31835938 .47299195 .31835938 .49499513 .31835938 .5269928 .3363495 .5269928 .37635804 .5269928 .42837525 .46798707 .4423828 .43399049 .4423828 .37599183 .4423828 .34098817 .38935853 .32899476 .36634828 .3039856 .43237306 .25 .4423828 .22099304 .4423828 .116989139 .4423828 .05999756 .3133545 .05999756 .28834535 .05999756 .27833558 .069992069 .27833558 .07199097 .27833558 .07998657 .27833558 .08299255 .28033448 .084991458 .28933717 .11898804 .39535523 .18499756 .42037965 .21899414 .42037965 .23799134 .42037965 .272995 .4113617 .272995 .35334779 .272995 .32235719 .2559967 .25532533 .21899414 .11528015 .20298767 .053268434 .16799927 .011245728 .12399292 .011245728 .117996219 .011245728 .09498596 .011245728 .07398987 .024276734 .09899902 .029266358 .12098694 .05027771 .12098694 .07827759 .12098694 .105270389 .09899902 .11328125 .083999637 .11328125 .053985597 .11328125 .0289917 .08728027 .0289917 .055267335 .0289917 .009246826 .07899475-.0107421879 .12298584-.0107421879 .18899536-.0107421879 .22499085 .059280397 .22799683 .0652771 .23999024 .028274537 .27598573-.0107421879 .33599855-.0107421879 .43899537-.0107421879 .49598695 .118270877 .49598695 .14328003 .49598695 .1532898 .4869995 .1532898 .48399354 .1532898 .47499085 .1532898 .47299195 .14929199 .47099305 .14228821 .43798829 .03527832 .36999513 .011245728 .33799745 .011245728 .29899598 .011245728 .2829895 .043273927 .2829895 .07727051 .2829895 .09927368 .2889862 .121276859 .2999878 .16529846L.33399964 .30233766Z"/>
<path id="font_1_2" d="M.48599244 .38136292C.48999024 .39537049 .48999024 .39736939 .48999024 .40437318 .48999024 .42237855 .47599793 .43138124 .46099855 .43138124 .45098878 .43138124 .43499757 .42536927 .42599488 .41036988 .42399598 .405365 .41600038 .37435914 .4119873 .35635377 .40499879 .33035279 .397995 .30334474 .3919983 .27633668L.34700013 .09628296C.34298707 .08126831 .2999878 .011245728 .23399353 .011245728 .18299866 .011245728 .17199707 .055267335 .17199707 .0922699 .17199707 .1382904 .18899536 .20030213 .22299195 .28833009 .23899842 .3293457 .24299622 .3403473 .24299622 .36035157 .24299622 .405365 .21099854 .4423828 .16099549 .4423828 .06599426 .4423828 .0289917 .29733277 .0289917 .28833009 .0289917 .27833558 .038986207 .27833558 .040985109 .27833558 .050994874 .27833558 .051986696 .28033448 .056991579 .29634095 .083999637 .3903656 .12399292 .42037965 .1579895 .42037965 .1659851 .42037965 .18299866 .42037965 .18299866 .3883667 .18299866 .36335755 .17298889 .3373413 .1659851 .31834413 .12599182 .21231079 .10798645 .1552887 .10798645 .10827637 .10798645 .019256592 .17098999-.0107421879 .22999573-.0107421879 .2689972-.0107421879 .30299378 .0062561037 .33099366 .03425598 .31799317-.017745972 .30599977-.06674194 .2659912-.11973572 .23999024-.15385437 .20199585-.18309021 .1559906-.18309021 .14199829-.18309021 .09700012-.18005371 .07998657-.14074707 .09599304-.14074707 .10899353-.14074707 .12298584-.1287384 .1329956-.11973572 .14299011-.10673523 .14299011-.08773804 .14299011-.056747438 .115997318-.052734376 .10598755-.052734376 .08299255-.052734376 .049987794-.068740848 .049987794-.11773682 .049987794-.16796875 .09399414-.20507813 .1559906-.20507813 .25898744-.20507813 .3619995-.11373901 .3899994-.00074768069L.48599244 .38136292Z"/>
<path id="font_2_1" d="M.8799896 .2223053C.8959961 .2223053 .9229889 .2223053 .9229889 .25030519 .9229889 .2783203 .8959961 .2783203 .8799896 .2783203H.20298767C.18699646 .2783203 .1599884 .2783203 .1599884 .25030519 .1599884 .2223053 .18699646 .2223053 .20298767 .2223053H.8799896Z"/>
<path id="font_3_2" d="M.397995 .63591006C.397995 .6660156 .394989 .6660156 .3619995 .6660156 .29100038 .6016083 .17999268 .6016083 .1599884 .6016083H.14299011V.5576172H.1599884C.18299866 .5576172 .24798584 .5606079 .30599977 .58561709V.08596802C.30599977 .054977418 .30599977 .04399109 .19999695 .04399109H.1499939V0C.20498657 .0039978029 .2939911 .0039978029 .35198976 .0039978029 .4099884 .0039978029 .49899293 .0039978029 .55400088 0V.04399109H.5039978C.397995 .04399109 .397995 .054977418 .397995 .08596802V.63591006Z"/>
<path id="font_3_1" d="M.6009979 .31976319C.6009979 .3918152 .6009979 .6660156 .33999635 .6660156 .07899475 .6660156 .07899475 .3918152 .07899475 .31976319 .07899475 .2467041 .07899475-.022460938 .33999635-.022460938 .6009979-.022460938 .6009979 .2467041 .6009979 .31976319M.33999635 .010528564C.30299378 .010528564 .21899414 .023544312 .19400025 .12461853 .17999268 .17866516 .1789856 .24971009 .1789856 .33177186 .1789856 .405838 .1789856 .47488404 .19499207 .5319214 .21998596 .6159973 .29699708 .63301089 .33999635 .63301089 .4139862 .63301089 .46699525 .5949707 .4869995 .5249176 .5009918 .47387696 .5009918 .39082337 .5009918 .33177186 .5009918 .26371766 .5009918 .18266297 .48599244 .12261963 .45999146 .025543213 .37998963 .010528564 .33999635 .010528564Z"/>
<path id="font_3_6" d="M.42900086 .36079408C.5319977 .40382386 .5649872 .45687867 .5649872 .513916 .5649872 .6179962 .44999696 .6660156 .34098817 .6660156 .21699524 .6660156 .114990238 .5959778 .114990238 .4958954 .114990238 .40382386 .19400025 .36279298 .24598694 .3357849 .13999939 .29473878 .07998657 .23570252 .07998657 .15364075 .07998657 .03353882 .21299744-.022460938 .33898927-.022460938 .47898866-.022460938 .59999087 .05255127 .59999087 .1706543 .59999087 .27973939 .49598695 .33078004 .42900086 .36079408M.23298645 .46287538C.18998719 .4848938 .1769867 .51091006 .1769867 .53492739 .1769867 .59898379 .25898744 .628006 .33898927 .628006 .4189911 .628006 .5029907 .588974 .5029907 .51290896 .5029907 .42485047 .3889923 .38381959 .3880005 .38381959 .3869934 .38381959 .38598634 .38381959 .3769989 .38882447L.23298645 .46287538M.2889862 .31376649 .44400025 .23469544C.47999574 .21568299 .5309906 .18865967 .5309906 .1346283 .5309906 .05355835 .42999269 .01852417 .34098817 .01852417 .25 .01852417 .14898682 .063568118 .14898682 .15463257 .14898682 .2537079 .25698854 .29974366 .2889862 .31376649Z"/>
<path id="font_3_5" d="M.18598938 .32769776C.18699646 .37371827 .18798828 .4528656 .22399903 .51808169 .25299073 .5720825 .31799317 .628006 .41099549 .628006 .42999269 .628006 .47499085 .6260071 .5049896 .6020813 .4889984 .5980835 .46299745 .5830841 .46299745 .5490875 .46299745 .51708987 .4869995 .49609376 .5159912 .49609376 .5329895 .49609376 .56900027 .5050812 .56900027 .5520935 .56900027 .6060791 .5309906 .6660156 .4099884 .6660156 .23799134 .6660156 .07998657 .52508547 .07998657 .317688 .07998657 .078567508 .19699097-.022460938 .34298707-.022460938 .44198609-.022460938 .4889984 .014526367 .522995 .042541505 .58699038 .095565799 .59999087 .15460205 .59999087 .20463562 .59999087 .26565553 .5799866 .314682 .5279999 .36071778 .48399354 .40072633 .43798829 .42773438 .35099793 .42773438 .29299928 .42773438 .22799683 .39971925 .18598938 .32769776M.34298707 .01852417C.18899536 .01852417 .18899536 .18461609 .18899536 .2266388 .18899536 .30368043 .24398804 .39372254 .34899903 .39372254 .3999939 .39372254 .43199159 .38072206 .46299745 .34069825 .49299623 .30368043 .49398805 .2616577 .49398805 .20562744 .49398805 .14759827 .49398805 .109573367 .46199037 .06956482 .43399049 .0365448 .39898683 .01852417 .34298707 .01852417Z"/>
<path id="font_3_4" d="M.61698916 .1630249V.20703125H.49198915V.64675906C.49198915 .67074587 .4909973 .6767578 .46499635 .6767578 .44499208 .6767578 .44400025 .67575076 .43299867 .66174319L.06298828 .20703125V.1630249H.3959961V.085006717C.3959961 .054000856 .3959961 .04399109 .30899049 .04399109H.27398683V0C.32099916 .0019989014 .38598634 .0039978029 .44400025 .0039978029 .5019989 .0039978029 .56599429 .0019989014 .6139984 0V.04399109H.57899478C.49198915 .04399109 .49198915 .054000856 .49198915 .085006717V.1630249H.61698916M.4039917 .5688019V.20703125H.10998535L.4039917 .5688019Z"/>
<path id="font_3_3" d="M.58898928 .19296265H.5469971C.5439911 .17396546 .5339966 .11198425 .5179901 .101989749 .5099945 .09599304 .42599488 .09599304 .41099549 .09599304H.21499634C.2809906 .14497376 .35499574 .20095825 .4149933 .24093628 .5049896 .30291749 .58898928 .36090089 .58898928 .46687318 .58898928 .59495547 .46798707 .6660156 .32499696 .6660156 .18998719 .6660156 .09098816 .58795168 .09098816 .48986817 .09098816 .4378662 .1349945 .42886354 .14898682 .42886354 .17599488 .42886354 .20799256 .4468689 .20799256 .48786927 .20799256 .52386477 .18199158 .543869 .15098572 .546875 .1789856 .59194949 .23699951 .6220093 .3039856 .6220093 .40098573 .6220093 .48199464 .5639038 .48199464 .4658661 .48199464 .3818817 .42399598 .31791688 .34700013 .2529297L.102996829 .04598999C.09298706 .036987306 .09199524 .036987306 .09098816 .02999878V0H.55599978L.58898928 .19296265Z"/>
<path id="font_4_1" d="M.397995 .1322937C.394989 .20532227 .37998963 .27734376 .34999085 .34336854 .31698609 .41436769 .269989 .4423828 .21699524 .4423828 .08999634 .4423828 .017990113 .29335023 .017990113 .2603302 .017990113 .24932862 .0289917 .24932862 .03199768 .24932862 .039993287 .24932862 .042999269 .2513275 .04598999 .25933839 .07798767 .35237123 .17098999 .3683777 .20399475 .3683777 .36499024 .3683777 .36999513 .17630005 .36999513 .11228943 .36999513 .052261354 .3659973 .038253786 .36099244 .024246216 .33499146-.06378174 .30799867-.16682434 .30799867-.1938324 .30799867-.20082093 .30799867-.21582031 .32199098-.21582031 .32899476-.21582031 .33799745-.21582031 .35499574-.15481568 .3809967-.06277466 .3880005-.008758545 .3939972 .03225708 .394989 .043258668 .44799806 .20532227 .5379944 .3843689 .5549927 .41638185 .5549927 .41838075 .5549927 .42037965 .5549927 .42736817 .5499878 .43138124 .5419922 .43138124 .5399933 .43138124 .5329895 .43138124 .5289917 .42536927 .5059967 .3843689 .48199464 .33236695 .46099855 .28533937 .45599366 .27534486 .42900086 .21331787 .397995 .1322937Z"/>
</defs>
<path transform="matrix(1,0,0,-1,134.148,254.20102)" stroke-width=".3985" stroke-linecap="butt" stroke-miterlimit="10" stroke-linejoin="miter" fill="none" stroke="#7f807f" d="M-130.96167 0H81.34673"/>
<path transform="matrix(1,0,0,-1,215.49472,254.20102)" d="M1.99252 0-1.19551 1.59401 0 0-1.19551-1.59401" fill="#7f807f"/>
<use data-text="x" xlink:href="#font_1_1" transform="matrix(9.96264,0,0,-9.96264,221.006,256.34599)" fill="#7f807f"/>
<path transform="matrix(1,0,0,-1,134.148,254.20102)" stroke-width=".3985" stroke-linecap="butt" stroke-miterlimit="10" stroke-linejoin="miter" fill="none" stroke="#7f807f" d="M0-273.82899V105.15793"/>
<path transform="matrix(0,-1,-1,-0,134.148,149.04309)" d="M1.99252 0-1.19551 1.59401 0 0-1.19551-1.59401" fill="#7f807f"/>
<use data-text="y" xlink:href="#font_1_2" transform="matrix(9.96264,0,0,-9.96264,131.527,141.59503)" fill="#7f807f"/>
<path transform="matrix(1,0,0,-1,134.148,254.20102)" stroke-width=".3985" stroke-linecap="butt" stroke-miterlimit="10" stroke-linejoin="miter" fill="none" stroke="#7f807f" d="M-119.05606 2.9764V-2.9764"/>
<use data-text="&#x2212;" xlink:href="#font_2_1" transform="matrix(4.98132,0,0,-4.98132,9.004997,264.019)" fill="#7f807f"/>
<use data-text="1" xlink:href="#font_3_2" transform="matrix(4.98132,0,0,-4.98132,14.401998,264.019)" fill="#7f807f"/>
<use data-text="0" xlink:href="#font_3_1" transform="matrix(4.98132,0,0,-4.98132,17.794278,264.019)" fill="#7f807f"/>
<path transform="matrix(1,0,0,-1,134.148,254.20102)" stroke-width=".3985" stroke-linecap="butt" stroke-miterlimit="10" stroke-linejoin="miter" fill="none" stroke="#7f807f" d="M-95.24486 2.9764V-2.9764"/>
<use data-text="&#x2212;" xlink:href="#font_2_1" transform="matrix(4.98132,0,0,-4.98132,34.510995,264.019)" fill="#7f807f"/>
<use data-text="8" xlink:href="#font_3_6" transform="matrix(4.98132,0,0,-4.98132,39.907995,264.019)" fill="#7f807f"/>
<path transform="matrix(1,0,0,-1,134.148,254.20102)" stroke-width=".3985" stroke-linecap="butt" stroke-miterlimit="10" stroke-linejoin="miter" fill="none" stroke="#7f807f" d="M-71.43364 2.9764V-2.9764"/>
<use data-text="&#x2212;" xlink:href="#font_2_1" transform="matrix(4.98132,0,0,-4.98132,58.322,264.019)" fill="#7f807f"/>
<use data-text="6" xlink:href="#font_3_5" transform="matrix(4.98132,0,0,-4.98132,63.718,264.019)" fill="#7f807f"/>
<path transform="matrix(1,0,0,-1,134.148,254.20102)" stroke-width=".3985" stroke-linecap="butt" stroke-miterlimit="10" stroke-linejoin="miter" fill="none" stroke="#7f807f" d="M-47.62242 2.9764V-2.9764"/>
<use data-text="&#x2212;" xlink:href="#font_2_1" transform="matrix(4.98132,0,0,-4.98132,82.132999,264.019)" fill="#7f807f"/>
<use data-text="4" xlink:href="#font_3_4" transform="matrix(4.98132,0,0,-4.98132,87.52899,264.019)" fill="#7f807f"/>
<path transform="matrix(1,0,0,-1,134.148,254.20102)" stroke-width=".3985" stroke-linecap="butt" stroke-miterlimit="10" stroke-linejoin="miter" fill="none" stroke="#7f807f" d="M-23.8112 2.9764V-2.9764"/>
<use data-text="&#x2212;" xlink:href="#font_2_1" transform="matrix(4.98132,0,0,-4.98132,105.94399,264.019)" fill="#7f807f"/>
<use data-text="2" xlink:href="#font_3_3" transform="matrix(4.98132,0,0,-4.98132,111.33999,264.019)" fill="#7f807f"/>
<path transform="matrix(1,0,0,-1,134.148,254.20102)" stroke-width=".3985" stroke-linecap="butt" stroke-miterlimit="10" stroke-linejoin="miter" fill="none" stroke="#7f807f" d="M23.8112 2.9764V-2.9764"/>
<use data-text="2" xlink:href="#font_3_3" transform="matrix(4.98132,0,0,-4.98132,156.26399,263.90803)" fill="#7f807f"/>
<path transform="matrix(1,0,0,-1,134.148,254.20102)" stroke-width=".3985" stroke-linecap="butt" stroke-miterlimit="10" stroke-linejoin="miter" fill="none" stroke="#7f807f" d="M47.62242 2.9764V-2.9764"/>
<use data-text="4" xlink:href="#font_3_4" transform="matrix(4.98132,0,0,-4.98132,180.075,263.90803)" fill="#7f807f"/>
<path transform="matrix(1,0,0,-1,134.148,254.20102)" stroke-width=".3985" stroke-linecap="butt" stroke-miterlimit="10" stroke-linejoin="miter" fill="none" stroke="#7f807f" d="M71.43364 2.9764V-2.9764"/>
<use data-text="6" xlink:href="#font_3_5" transform="matrix(4.98132,0,0,-4.98132,203.88599,263.90803)" fill="#7f807f"/>
<path transform="matrix(1,0,0,-1,134.148,254.20102)" stroke-width=".3985" stroke-linecap="butt" stroke-miterlimit="10" stroke-linejoin="miter" fill="none" stroke="#7f807f" d="M2.38106-261.92338H-2.38106"/>
<use data-text="&#x2212;" xlink:href="#font_2_1" transform="matrix(4.98132,0,0,-4.98132,116.06999,517.367)" fill="#7f807f"/>
<use data-text="2" xlink:href="#font_3_3" transform="matrix(4.98132,0,0,-4.98132,121.466999,517.367)" fill="#7f807f"/>
<use data-text="2" xlink:href="#font_3_3" transform="matrix(4.98132,0,0,-4.98132,124.859279,517.367)" fill="#7f807f"/>
<path transform="matrix(1,0,0,-1,134.148,254.20102)" stroke-width=".3985" stroke-linecap="butt" stroke-miterlimit="10" stroke-linejoin="miter" fill="none" stroke="#7f807f" d="M2.38106-238.11215H-2.38106"/>
<use data-text="&#x2212;" xlink:href="#font_2_1" transform="matrix(4.98132,0,0,-4.98132,116.06999,493.55604)" fill="#7f807f"/>
<use data-text="2" xlink:href="#font_3_3" transform="matrix(4.98132,0,0,-4.98132,121.466999,493.55604)" fill="#7f807f"/>
<use data-text="0" xlink:href="#font_3_1" transform="matrix(4.98132,0,0,-4.98132,124.859279,493.55604)" fill="#7f807f"/>
<path transform="matrix(1,0,0,-1,134.148,254.20102)" stroke-width=".3985" stroke-linecap="butt" stroke-miterlimit="10" stroke-linejoin="miter" fill="none" stroke="#7f807f" d="M2.38106-214.30094H-2.38106"/>
<use data-text="&#x2212;" xlink:href="#font_2_1" transform="matrix(4.98132,0,0,-4.98132,116.06999,469.74504)" fill="#7f807f"/>
<use data-text="1" xlink:href="#font_3_2" transform="matrix(4.98132,0,0,-4.98132,121.466999,469.74504)" fill="#7f807f"/>
<use data-text="8" xlink:href="#font_3_6" transform="matrix(4.98132,0,0,-4.98132,124.859279,469.74504)" fill="#7f807f"/>
<path transform="matrix(1,0,0,-1,134.148,254.20102)" stroke-width=".3985" stroke-linecap="butt" stroke-miterlimit="10" stroke-linejoin="miter" fill="none" stroke="#7f807f" d="M2.38106-190.48972H-2.38106"/>
<use data-text="&#x2212;" xlink:href="#font_2_1" transform="matrix(4.98132,0,0,-4.98132,116.06999,445.93403)" fill="#7f807f"/>
<use data-text="1" xlink:href="#font_3_2" transform="matrix(4.98132,0,0,-4.98132,121.466999,445.93403)" fill="#7f807f"/>
<use data-text="6" xlink:href="#font_3_5" transform="matrix(4.98132,0,0,-4.98132,124.859279,445.93403)" fill="#7f807f"/>
<path transform="matrix(1,0,0,-1,134.148,254.20102)" stroke-width=".3985" stroke-linecap="butt" stroke-miterlimit="10" stroke-linejoin="miter" fill="none" stroke="#7f807f" d="M2.38106-166.6785H-2.38106"/>
<use data-text="&#x2212;" xlink:href="#font_2_1" transform="matrix(4.98132,0,0,-4.98132,116.06999,422.12303)" fill="#7f807f"/>
<use data-text="1" xlink:href="#font_3_2" transform="matrix(4.98132,0,0,-4.98132,121.466999,422.12303)" fill="#7f807f"/>
<use data-text="4" xlink:href="#font_3_4" transform="matrix(4.98132,0,0,-4.98132,124.859279,422.12303)" fill="#7f807f"/>
<path transform="matrix(1,0,0,-1,134.148,254.20102)" stroke-width=".3985" stroke-linecap="butt" stroke-miterlimit="10" stroke-linejoin="miter" fill="none" stroke="#7f807f" d="M2.38106-142.8673H-2.38106"/>
<use data-text="&#x2212;" xlink:href="#font_2_1" transform="matrix(4.98132,0,0,-4.98132,116.06999,398.312)" fill="#7f807f"/>
<use data-text="1" xlink:href="#font_3_2" transform="matrix(4.98132,0,0,-4.98132,121.466999,398.312)" fill="#7f807f"/>
<use data-text="2" xlink:href="#font_3_3" transform="matrix(4.98132,0,0,-4.98132,124.859279,398.312)" fill="#7f807f"/>
<path transform="matrix(1,0,0,-1,134.148,254.20102)" stroke-width=".3985" stroke-linecap="butt" stroke-miterlimit="10" stroke-linejoin="miter" fill="none" stroke="#7f807f" d="M2.38106-119.05606H-2.38106"/>
<use data-text="&#x2212;" xlink:href="#font_2_1" transform="matrix(4.98132,0,0,-4.98132,116.06999,374.50105)" fill="#7f807f"/>
<use data-text="1" xlink:href="#font_3_2" transform="matrix(4.98132,0,0,-4.98132,121.466999,374.50105)" fill="#7f807f"/>
<use data-text="0" xlink:href="#font_3_1" transform="matrix(4.98132,0,0,-4.98132,124.859279,374.50105)" fill="#7f807f"/>
<path transform="matrix(1,0,0,-1,134.148,254.20102)" stroke-width=".3985" stroke-linecap="butt" stroke-miterlimit="10" stroke-linejoin="miter" fill="none" stroke="#7f807f" d="M2.38106-95.24486H-2.38106"/>
<use data-text="&#x2212;" xlink:href="#font_2_1" transform="matrix(4.98132,0,0,-4.98132,119.461,350.68998)" fill="#7f807f"/>
<use data-text="8" xlink:href="#font_3_6" transform="matrix(4.98132,0,0,-4.98132,124.857,350.68998)" fill="#7f807f"/>
<path transform="matrix(1,0,0,-1,134.148,254.20102)" stroke-width=".3985" stroke-linecap="butt" stroke-miterlimit="10" stroke-linejoin="miter" fill="none" stroke="#7f807f" d="M2.38106-71.43364H-2.38106"/>
<use data-text="&#x2212;" xlink:href="#font_2_1" transform="matrix(4.98132,0,0,-4.98132,119.461,326.88)" fill="#7f807f"/>
<use data-text="6" xlink:href="#font_3_5" transform="matrix(4.98132,0,0,-4.98132,124.857,326.88)" fill="#7f807f"/>
<path transform="matrix(1,0,0,-1,134.148,254.20102)" stroke-width=".3985" stroke-linecap="butt" stroke-miterlimit="10" stroke-linejoin="miter" fill="none" stroke="#7f807f" d="M2.38106-47.62242H-2.38106"/>
<use data-text="&#x2212;" xlink:href="#font_2_1" transform="matrix(4.98132,0,0,-4.98132,119.461,303.06904)" fill="#7f807f"/>
<use data-text="4" xlink:href="#font_3_4" transform="matrix(4.98132,0,0,-4.98132,124.857,303.06904)" fill="#7f807f"/>
<path transform="matrix(1,0,0,-1,134.148,254.20102)" stroke-width=".3985" stroke-linecap="butt" stroke-miterlimit="10" stroke-linejoin="miter" fill="none" stroke="#7f807f" d="M2.38106-23.8112H-2.38106"/>
<use data-text="&#x2212;" xlink:href="#font_2_1" transform="matrix(4.98132,0,0,-4.98132,119.461,279.25804)" fill="#7f807f"/>
<use data-text="2" xlink:href="#font_3_3" transform="matrix(4.98132,0,0,-4.98132,124.857,279.25804)" fill="#7f807f"/>
<path transform="matrix(1,0,0,-1,134.148,254.20102)" stroke-width=".3985" stroke-linecap="butt" stroke-miterlimit="10" stroke-linejoin="miter" fill="none" stroke="#7f807f" d="M2.38106 23.8112H-2.38106"/>
<use data-text="2" xlink:href="#font_3_3" transform="matrix(4.98132,0,0,-4.98132,124.856998,231.99604)" fill="#7f807f"/>
<path transform="matrix(1,0,0,-1,134.148,254.20102)" stroke-width=".3985" stroke-linecap="butt" stroke-miterlimit="10" stroke-linejoin="miter" fill="none" stroke="#7f807f" d="M2.38106 47.62242H-2.38106"/>
<use data-text="4" xlink:href="#font_3_4" transform="matrix(4.98132,0,0,-4.98132,124.856998,208.18503)" fill="#7f807f"/>
<path transform="matrix(1,0,0,-1,134.148,254.20102)" stroke-width=".3985" stroke-linecap="butt" stroke-miterlimit="10" stroke-linejoin="miter" fill="none" stroke="#7f807f" d="M2.38106 71.43364H-2.38106"/>
<use data-text="6" xlink:href="#font_3_5" transform="matrix(4.98132,0,0,-4.98132,124.856998,184.37403)" fill="#7f807f"/>
<path transform="matrix(1,0,0,-1,134.148,254.20102)" stroke-width=".3985" stroke-linecap="butt" stroke-dasharray="2.98883,2.98883" stroke-miterlimit="10" stroke-linejoin="miter" fill="none" stroke="#7f807f" d="M-130.96167-130.96167 83.33925 83.33925"/>
<path transform="matrix(1,0,0,-1,134.148,254.20102)" stroke-width="1.19553" stroke-linecap="butt" stroke-miterlimit="10" stroke-linejoin="miter" fill="none" stroke="#008c00" d="M6.54811 62.83287C6.54811 62.83287 7.1415 58.71954 7.36942 57.3811 7.59732 56.04266 7.9628 54.22353 8.1907 53.18628 8.41862 52.14905 8.78412 50.72054 9.01202 49.9054 9.23994 49.09026 9.60542 47.958 9.83333 47.31122 10.06123 46.66444 10.42674 45.76044 10.65465 45.24388 10.88255 44.72731 11.24805 44.0015 11.47595 43.58817 11.70386 43.17485 12.06937 42.59476 12.29727 42.26492 12.52516 41.93512 12.89066 41.47311 13.11858 41.21107 13.34648 40.94905 13.71196 40.58221 13.93987 40.37634 14.16779 40.17046 14.53328 39.88603 14.76118 39.72725 14.98907 39.56847 15.35458 39.35085 15.58249 39.23184 15.8104 39.11285 16.1759 38.95457 16.40381 38.86961 16.6317 38.78464 16.99721 38.67532 17.22511 38.61945 17.45302 38.56357 17.81853 38.4973 18.04642 38.46686 18.27432 38.43642 18.63982 38.40848 18.86774 38.40001 19.09563 38.39154 19.46112 38.39496 19.68903 38.4058 19.91695 38.41667 20.28244 38.45029 20.51033 38.4783 20.73824 38.50633 21.10374 38.56479 21.33165 38.60782 21.55956 38.65086 21.92506 38.73213 22.15295 38.78859 22.38086 38.84505 22.74637 38.94626 22.97427 39.01476 23.20218 39.08327 23.56766 39.20294 23.79558 39.28235 24.02348 39.36174 24.38898 39.49785 24.61688 39.587 24.84479 39.67615 25.21028 39.827 25.43819 39.9249 25.6661 40.0228 26.03159 40.18652 26.25949 40.29259 26.4874 40.39865 26.8529 40.57597 27.08081 40.68935 27.30872 40.80272 27.67421 40.9898 27.90211 41.10971 28.13002 41.22964 28.49553 41.42763 28.72343 41.55371 28.95132 41.6798 29.31682 41.88681 29.54474 42.01842 29.77264 42.15 30.13812 42.36542 30.36603 42.50218 30.59395 42.63895 30.95944 42.86263 31.18735 43.00412 31.41525 43.14563 31.78075 43.37622 32.00865 43.52205 32.23656 43.6679 32.60207 43.90527 32.82997 44.05524 33.05786 44.2052 33.42337 44.4493 33.65128 44.60297 33.87918 44.7566 34.24469 45.00551 34.47258 45.16267 34.70049 45.31982 35.06598 45.57513 35.2939 45.73563 35.5218 45.89615 35.88728 46.15598 36.11519 46.3195 36.34311 46.48303 36.7086 46.74796 36.9365 46.91429 37.1644 47.08061 37.5299 47.34937 37.75781 47.51833 37.98572 47.68726 38.35123 47.96053 38.57912 48.13197 38.80702 48.30342 39.17253 48.58025 39.40044 48.75401 39.62834 48.92778 39.99384 49.2084 40.22174 49.3844 40.44965 49.56038 40.81514 49.84438 41.04305 50.02238 41.27095 50.20042 41.63644 50.48755 41.86435 50.66748 42.09227 50.84743 42.45775 51.1375 42.68565 51.3193 42.91356 51.5011 43.27907 51.79428 43.50697 51.97784 43.73488 52.16139 44.10037 52.45708 44.32828 52.6422 44.55618 52.82729 44.92169 53.12523 45.1496 53.312 45.3775 53.49873 45.74298 53.8 45.9709 53.98814 46.1988 54.17627 46.56429 54.47847 46.7922 54.66794 47.02011 54.85739 47.3856 55.16289 47.61351 55.35373 47.84142 55.54454 48.20691 55.85126 48.43481 56.04332 48.66272 56.23538 49.02823 56.54474 49.25613 56.738 49.48402 56.93127 49.84953 57.24191 50.07744 57.43634 50.30534 57.63074 50.67085 57.9437 50.89876 58.13919 51.12665 58.33469 51.49214 58.6488 51.72006 58.84534 51.94797 59.04184 52.31345 59.3581 52.54135 59.55563 52.76927 59.75316 53.13477 60.07066 53.36266 60.26903 53.59058 60.46739 53.95607 60.78606 54.18398 60.98534 54.41188 61.18462 54.77739 61.5051 55.00528 61.70528 55.23318 61.90546 55.5987 62.22719 55.8266 62.42812 56.0545 62.62906 56.42001 62.9518 56.6479 63.1535 56.87581 63.35522 57.2413 63.67952 57.46922 63.88199 57.69713 64.08446 58.0626 64.40965 58.29051 64.61284 58.51843 64.81601 58.88391 65.1425 59.11182 65.34639 59.33972 65.55028 59.70523 65.87778 59.93314 66.08232 60.16104 66.28687 60.52654 66.61546 60.75444 66.8206 60.98235 67.02576 61.34785 67.35513 61.57576 67.5609 61.80367 67.76665 62.16916 68.09721 62.39706 68.30354 62.62497 68.50987 62.99046 68.84111 63.21838 69.048 63.44627 69.25488 63.81177 69.58727 64.03967 69.79465 64.2676 70.00204 64.63307 70.33488 64.86098 70.54274 65.08888 70.75061 65.45439 71.08441 65.6823 71.29285 65.91019 71.50127 66.2757 71.83601 66.5036 72.04494 66.7315 72.25386 67.09702 72.58926 67.32492 72.79866 67.55281 73.00806 67.9183 73.34438 68.14622 73.5542 68.37413 73.76404 68.73962 74.10078 68.96753 74.31104 69.19543 74.52126 69.56093 74.85881 69.78883 75.06947 70.01674 75.28014 70.38223 75.61832 70.61014 75.82939 70.83804 76.04045 71.43144 76.59074 71.43144 76.59074"/>
<path transform="matrix(1,0,0,-1,134.148,254.20102)" stroke-width="1.19553" stroke-linecap="butt" stroke-miterlimit="10" stroke-linejoin="miter" fill="none" stroke="#008c00" d="M-107.15045-89.95349C-107.15045-89.95349-106.23589-88.89117-105.88461-88.48218-105.53334-88.0732-104.97003-87.4162-104.61877-87.00578-104.2675-86.59537-103.7042-85.93602-103.35292-85.52414-103.00166-85.11224-102.43835-84.4506-102.08708-84.0372-101.73582-83.6238-101.1725-82.95958-100.82124-82.54463-100.46997-82.1297-99.90666-81.4632-99.55539-81.04662-99.20413-80.63005-98.64082-79.96054-98.28955-79.54227-97.93828-79.12396-97.37498-78.45195-97.02371-78.0319-96.67244-77.61183-96.10913-76.9367-95.75786-76.5148-95.4066-76.09291-94.84329-75.41493-94.49202-74.99118-94.14075-74.56743-93.57745-73.8864-93.22618-73.46065-92.87491-73.0349-92.3116-72.35048-91.96034-71.92267-91.60907-71.49486-91.04576-70.8072-90.69449-70.37724-90.34323-69.9473-89.7799-69.25606-89.42865-68.82384-89.07738-68.3916-88.51407-67.6966-88.16281-67.26205-87.81154-66.82751-87.24823-66.1289-86.89696-65.69193-86.5457-65.25493-85.98239-64.55211-85.63112-64.11253-85.27985-63.67293-84.71655-62.96591-84.36528-62.52368-84.014-62.08145-83.4507-61.37021-83.09944-60.92522-82.74817-60.48021-82.18486-59.76431-81.83359-59.31638-81.48235-58.86845-80.919-58.14784-80.56776-57.69684-80.21649-57.24583-79.65317-56.52005-79.30193-56.06584-78.95065-55.61165-78.38734-54.88081-78.03607-54.42323-77.68481-53.96565-77.1215-53.229-76.77023-52.7679-76.41896-52.3068-75.85567-51.56467-75.5044-51.09985-75.15312-50.63503-74.58981-49.88658-74.23854-49.4178-73.88728-48.94904-73.32397-48.19409-72.9727-47.72124-72.62143-47.24838-72.05812-46.48691-71.70686-46.00977-71.35559-45.53262-70.79228-44.76407-70.44102-44.28232-70.08975-43.80057-69.52644-43.02419-69.17517-42.53761-68.82391-42.05101-68.26059-41.2669-67.90933-40.77527-67.55806-40.28365-66.99475-39.49129-66.6435-38.99422-66.29222-38.49718-65.72891-37.69563-65.37764-37.19284-65.02638-36.69005-64.46307-35.8792-64.1118-35.37038-63.76053-34.86154-63.19722-34.04077-62.84596-33.52557-62.49469-33.01036-61.93138-32.17914-61.58012-31.65714-61.22885-31.13512-60.66554-30.29256-60.31427-29.76328-59.96301-29.23398-59.39969-28.37933-59.04843-27.84236-58.69716-27.30536-58.13385-26.4383-57.7826-25.89308-57.43132-25.34787-56.86801-24.46674-56.51674-23.91275-56.16548-23.35876-55.60217-22.46364-55.2509-21.90027-54.89963-21.3369-54.33632-20.42587-53.98505-19.85234-53.63379-19.27882-53.07048-18.35097-52.71922-17.76665-52.36795-17.18233-51.80464-16.23683-51.45337-15.64099-51.1021-15.04515-50.53879-14.08063-50.18753-13.47227-49.83626-12.8639-49.27295-11.87827-48.92169-11.25632-48.57042-10.63437-48.00711-9.62622-47.65584-8.98969-47.30458-8.35315-46.74126-7.32083-46.39-6.66855-46.03873-6.01628-45.47542-4.95798-45.12415-4.28854-44.77289-3.61911-44.20958-2.53171-43.8583-1.8437-43.50705-1.15569-42.94374-.03812-42.59247 .67014-42.2412 1.37845-41.67789 2.53062-41.32663 3.26123-40.97536 3.99184-40.41205 5.1809-40.06079 5.9359-39.70952 6.6909-39.14621 7.92107-38.79494 8.70284-38.44368 9.48462-37.88036 10.75912-37.5291 11.57042-37.17783 12.38171-36.61452 13.70601-36.26324 14.5501-35.91199 15.39417-35.34868 16.77364-34.9974 17.65402-34.64615 18.53441-34.08284 19.9744-33.73157 20.8953-33.3803 21.8162-32.81699 23.32494-32.46573 24.29134-32.11446 25.25775-31.55115 26.84326-31.19987 27.8605-30.8486 28.87776-30.28531 30.54819-29.93404 31.62299-29.58276 32.69777-29.01945 34.46649-28.6682 35.6069-28.31693 36.74731-27.75362 38.62708-27.40234 39.84224-27.05109 41.0574-26.48778 43.06396-26.1365 44.36497-25.78525 45.66599-25.22192 47.81871-24.87067 49.21907-24.5194 50.61942-23.95609 52.94157-23.60481 54.45775-23.25356 55.97392-22.69025 58.49414-22.33897 60.14659-21.9877 61.79904-21.42441 64.55336-21.07314 66.36754-20.72186 68.18172-20.15855 71.214-19.8073 73.22195-19.45602 75.22987-18.89272 78.59651-18.54144 80.83934-18.1902 83.08217-17.62688 86.85493-17.2756 89.3867-16.92436 91.91846-16.36102 96.19417-16.00978 99.08652-15.65851 101.97888-15.0952 106.88185-14.74393 110.23276-14.39267 113.5837-13.82936 119.29138-13.47809 123.23763-13.12682 127.1839-12.56352 133.93648-12.21225 138.67462-11.86098 143.4128-11.29767 151.56084-10.94641 157.38706-10.59514 163.21326-10.03183 173.28659-9.68056 180.6658-9.32928 188.04503-8.76599 200.86565-8.41472 210.57135-8.06345 220.27706-7.14888 250.6178-7.14888 250.6178"/>
<path transform="matrix(1,0,0,-1,134.148,254.20102)" stroke-width=".3985" stroke-linecap="butt" stroke-dasharray=".3985,1.99255" stroke-miterlimit="10" stroke-linejoin="miter" fill="none" stroke="#7f807f" d="M0-273.82899V107.15045"/>
<path transform="matrix(1,0,0,-1,134.148,254.20102)" stroke-width=".3985" stroke-linecap="butt" stroke-dasharray=".3985,1.99255" stroke-miterlimit="10" stroke-linejoin="miter" fill="none" stroke="#7f807f" d="M23.8112-273.82899V107.15045"/>
<path transform="matrix(1,0,0,-1,134.148,254.20102)" stroke-width="1.19553" stroke-linecap="butt" stroke-miterlimit="10" stroke-linejoin="miter" fill="none" stroke="#008c00" d="M-119.05606-214.5382C-119.05606-214.5382-118.08702-213.50373-117.71483-213.11685-117.34265-212.72995-116.74577-212.12158-116.3736-211.7498-116.0014-211.37804-115.40456-210.79396-115.03236-210.43729-114.66019-210.0806-114.06331-209.52065-113.69113-209.17906-113.31894-208.83748-112.72208-208.30184-112.3499-207.97536-111.9777-207.64887-111.38084-207.13733-111.00865-206.82595-110.63647-206.51457-110.0396-206.02735-109.66743-205.73107-109.29524-205.43477-108.69838-204.97162-108.32619-204.69048-107.95401-204.40933-107.35713-203.97081-106.98497-203.70478-106.61278-203.43872-106.0159-203.02404-105.64372-202.77301-105.27153-202.52198-104.67467-202.13149-104.3025-201.89557-103.93031-201.65964-103.33344-201.29344-102.96126-201.07262-102.58907-200.8518-101.9922-200.50972-101.62003-200.304-101.24785-200.09827-100.65097-199.7805-100.2788-199.58988-99.9066-199.39923-99.30972-199.1056-98.93756-198.93006-98.56537-198.7545-97.9685-198.48502-97.59633-198.32456-97.22414-198.16411-96.62726-197.91889-96.25508-197.77358-95.8829-197.62827-95.28604-197.4075-94.91386-197.27727-94.54167-197.14704-93.9448-196.95008-93.57262-196.83492-93.20044-196.71976-92.60358-196.5473-92.23138-196.44724-91.85919-196.34719-91.26233-196.1987-90.89015-196.11371-90.51797-196.02872-89.9211-195.90453-89.54892-195.83466-89.17673-195.76479-88.57986-195.6649-88.20769-195.61013-87.83551-195.55538-87.23863-195.4796-86.86646-195.43991-86.49426-195.40023-85.8974-195.3486-85.5252-195.32399-85.15305-195.2994-84.55617-195.2721-84.18399-195.26259-83.8118-195.2531-83.21492-195.24994-82.84274-195.25553-82.47055-195.2611-81.8737-195.28209-81.50153-195.30275-81.12933-195.32341-80.53246-195.36869-80.16028-195.4045-79.78809-195.44028-79.19124-195.50986-78.81905-195.5607-78.44687-195.61157-77.84999-195.70513-77.47781-195.77109-77.10562-195.83705-76.50877-195.95508-76.13658-196.03614-75.76439-196.11719-75.16753-196.25919-74.79535-196.35533-74.42316-196.45145-73.8263-196.61774-73.45412-196.729-73.08192-196.84026-72.48506-197.03086-72.11287-197.15718-71.74069-197.28351-71.14383-197.49811-70.77165-197.63951-70.39946-197.78092-69.8026-198.0198-69.4304-198.17633-69.05823-198.33284-68.46136-198.59603-68.08917-198.76766-67.717-198.93927-67.12013-199.22658-66.74794-199.4133-66.37575-199.6-65.77888-199.91162-65.40671-200.11342-65.03453-200.31525-64.43765-200.651-64.06548-200.86789-63.69328-201.08477-63.09642-201.44466-62.72424-201.67665-62.35207-201.90865-61.75519-202.2929-61.383-202.53993-61.01082-202.78697-60.41396-203.19503-60.04178-203.45716-59.6696-203.71929-59.07272-204.15195-58.70053-204.42923-58.32835-204.70653-57.73149-205.16327-57.35931-205.45566-56.98712-205.74803-56.39026-206.22908-56.01807-206.53656-55.64589-206.84404-55.04901-207.34923-54.67682-207.67179-54.30466-207.99434-53.7078-208.52368-53.3356-208.86133-52.96342-209.19898-52.36655-209.75263-51.99435-210.10536-51.6222-210.45812-51.02533-211.03588-50.65314-211.40373-50.28096-211.77158-49.68408-212.37374-49.31189-212.75659-48.93973-213.13947-48.34285-213.76526-47.97067-214.16323-47.59848-214.5612-47.00162-215.21178-46.62943-215.6249-46.25726-216.03804-45.66039-216.71268-45.2882-217.1409-44.91602-217.5691-44.31915-218.2679-43.94696-218.71123-43.5748-219.15453-42.97792-219.87761-42.60573-220.33603-42.23355-220.79444-41.63667-221.54164-41.2645-222.01515-40.8923-222.48867-40.29546-223.26018-39.92326-223.7488-39.55109-224.2374-38.95421-225.03302-38.58202-225.53675-38.20984-226.04045-37.61299-226.86049-37.2408-227.3792-36.86862-227.8979-36.27174-228.74146-35.89955-229.27523-35.52737-229.809-34.93051-230.67734-34.55833-231.2263-34.18614-231.77529-33.58928-232.66782-33.21709-233.23189-32.84491-233.79598-32.24805-234.71263-31.87587-235.2918-31.50368-235.87097-30.90681-236.81192-30.53462-237.40619-30.16245-238.00046-29.56558-238.96555-29.19339-239.57492-28.82121-240.1843-28.22433-241.17366-27.85216-241.79813-27.47997-242.42259-26.88312-243.43613-26.51093-244.07567-26.13875-244.71521-25.54187-245.75302-25.1697-246.40752-24.7975-247.06203-24.20064-248.12335-23.82846-248.79297-23.45628-249.46257-22.8594-250.54882-22.48723-251.23365-22.11504-251.91849-21.51816-253.02889-21.146-253.7288-20.7738-254.42874-20.17694-255.5633-19.80475-256.2783-19.43257-256.99333-18.8357-258.152-18.46353-258.8821-18.09134-259.6122-17.49446-260.7952-17.12228-261.5404-16.75009-262.28565-16.15323-263.4929-15.78107-264.25325-15.40887-265.01356-14.812-266.2451-14.43982-267.02037-14.06763-267.7956-13.09859-269.84068-13.09859-269.84068"/>
<use data-text="&#x03b3;" xlink:href="#font_4_1" transform="matrix(8.96638,0,0,-8.96638,185.08699,181.44602)"/>
</svg>
