<svg xmlns="http://www.w3.org/2000/svg" xmlns:xlink="http://www.w3.org/1999/xlink" xmlns:inkscape="http://www.inkscape.org/namespaces/inkscape" version="1.1" width="162.918" height="86.672" viewBox="0 0 162.918 86.672">
<defs>
<clipPath id="clip_1">
<path transform="matrix(1,0,0,-1,16.549,78.337)" d="M0 0H143.18264V75.1493H0Z"/>
</clipPath>
<path id="font_2_1" d="M.6589966 .23046875C.6759949 .23046875 .69400027 .23046875 .69400027 .25045777 .69400027 .27046205 .6759949 .27046205 .6589966 .27046205H.117996219C.100997928 .27046205 .08299255 .27046205 .08299255 .25045777 .08299255 .23046875 .100997928 .23046875 .117996219 .23046875H.6589966Z"/>
<path id="font_3_1" d="M.45999146 .31976319C.45999146 .39982606 .45498658 .47988893 .41999818 .5539398 .37399293 .65000918 .2919922 .6660156 .25 .6660156 .18998719 .6660156 .116989139 .64001467 .07598877 .54693606 .04399109 .47789 .038986207 .39982606 .038986207 .31976319 .038986207 .24472046 .042999269 .15464783 .083999637 .07859802 .1269989-.0024719239 .19999695-.022460938 .24899292-.022460938 .30299378-.022460938 .3789978-.0014648438 .4229889 .09359741 .45498658 .16265869 .45999146 .2407074 .45999146 .31976319M.24899292-.00047302247C.20999146-.00047302247 .15098572 .024551392 .1329956 .12062073 .12199402 .18066406 .12199402 .2727356 .12199402 .3317871 .12199402 .39582826 .12199402 .46188355 .12998963 .5159149 .14898682 .63500979 .22399903 .64401248 .24899292 .64401248 .28199769 .64401248 .34799195 .6259918 .36698915 .52693179 .3769989 .47088624 .3769989 .39482118 .3769989 .3317871 .3769989 .25672914 .3769989 .18867493 .3659973 .12461853 .35099793 .029556275 .2939911-.00047302247 .24899292-.00047302247Z"/>
<path id="font_4_1" d="M.19198609 .052993776C.19198609 .08198547 .16799927 .10598755 .13899231 .10598755 .10998535 .10598755 .085998538 .08198547 .085998538 .052993776 .085998538 .023986817 .10998535 0 .13899231 0 .16799927 0 .19198609 .023986817 .19198609 .052993776Z"/>
<path id="font_3_3" d="M.1269989 .07699585 .23298645 .18003845C.3889923 .31811524 .44898988 .3721466 .44898988 .47216798 .44898988 .5860901 .35899354 .6660156 .23699951 .6660156 .12399292 .6660156 .049987794 .57411196 .049987794 .48516847 .049987794 .4291687 .099990848 .4291687 .102996829 .4291687 .11999512 .4291687 .15499878 .44117738 .15499878 .48217774 .15499878 .5081787 .13699341 .5341797 .101989749 .5341797 .09399414 .5341797 .09199524 .5341797 .08898926 .5331726 .11199951 .59806826 .1659851 .63500979 .22399903 .63500979 .31498719 .63500979 .35798646 .5541382 .35798646 .47216798 .35798646 .39215089 .30799867 .31311036 .25299073 .25108338L.06098938 .036987306C.049987794 .025985718 .049987794 .023986817 .049987794 0H.42099L.44898988 .17404175H.42399598C.4189911 .14402771 .4119873 .1000061 .4019928 .084991458 .394989 .07699585 .32899476 .07699585 .30699159 .07699585H.1269989Z"/>
<path id="font_3_4" d="M.2939911 .16503906V.07800293C.2939911 .041992189 .2919922 .0309906 .21798706 .0309906H.19699097V0C.23799134 .0029907227 .2899933 .0029907227 .33198548 .0029907227 .37399293 .0029907227 .4269867 .0029907227 .46798707 0V.0309906H.44699098C.37298585 .0309906 .37098695 .041992189 .37098695 .07800293V.16503906H.47099305V.19602967H.37098695V.65075686C.37098695 .67074587 .37098695 .6767578 .35499574 .6767578 .34599305 .6767578 .34298707 .6767578 .33499146 .66474917L.027999878 .19602967V.16503906H.2939911M.2999878 .19602967H.055999757L.2999878 .5688019V.19602967Z"/>
<path id="font_3_6" d="M.13198853 .327713V.35173036C.13198853 .6047821 .2559967 .64100649 .30699159 .64100649 .33099366 .64100649 .37298585 .634964 .394989 .6007538 .37998963 .6007538 .33999635 .6007538 .33999635 .5557556 .33999635 .524765 .3639984 .5097656 .38598634 .5097656 .4019928 .5097656 .43199159 .51875308 .43199159 .5577545 .43199159 .6178589 .3880005 .6660156 .30499269 .6660156 .1769867 .6660156 .041992189 .5367584 .041992189 .31570436 .041992189 .048553468 .1579895-.022460938 .25099183-.022460938 .3619995-.022460938 .45700074 .07156372 .45700074 .2036438 .45700074 .33070375 .36799623 .4267578 .25698854 .4267578 .18899536 .4267578 .1519928 .37573243 .13198853 .327713M.25099183 .0055389406C.18798828 .0055389406 .1579895 .06556702 .1519928 .080566409 .13398743 .127594 .13398743 .2076416 .13398743 .22564698 .13398743 .30369569 .1659851 .40374757 .2559967 .40374757 .27198792 .40374757 .31799317 .40374757 .34899903 .34172059 .36698915 .30470277 .36698915 .2536621 .36698915 .20463562 .36698915 .15661621 .36698915 .10658264 .34999085 .0705719 .31999208 .010528564 .27398683 .0055389406 .25099183 .0055389406Z"/>
<path id="font_3_7" d="M.16299439 .4569702C.116989139 .486969 .11299133 .52098086 .11299133 .5379791 .11299133 .598999 .17799378 .64100649 .24899292 .64100649 .32199098 .64100649 .38598634 .58898928 .38598634 .51698306 .38598634 .45996095 .34700013 .4119568 .2869873 .37695313L.16299439 .4569702M.30899049 .36193849C.3809967 .3989563 .42999269 .45095826 .42999269 .51698306 .42999269 .6090088 .34098817 .6660156 .25 .6660156 .1499939 .6660156 .068984989 .59199526 .068984989 .49897767 .068984989 .4809723 .070999149 .43595887 .11299133 .38894654 .12399292 .37695313 .16099549 .35194398 .18598938 .33494569 .12799073 .30592347 .041992189 .24984741 .041992189 .15072632 .041992189 .04458618 .14399719-.022460938 .24899292-.022460938 .3619995-.022460938 .45700074 .06060791 .45700074 .16773987 .45700074 .20379639 .44599916 .24885559 .4079895 .2909088 .3889923 .31193543 .37298585 .3219452 .30899049 .36193849M.20899964 .3199463 .33198548 .24183655C.3600006 .2228241 .40699769 .19277954 .40699769 .13169861 .40699769 .05760193 .33198548 .0055389406 .25 .0055389406 .1639862 .0055389406 .09199524 .067611698 .09199524 .15072632 .09199524 .20880127 .12399292 .27288819 .20899964 .3199463Z"/>
<path id="font_3_2" d="M.2939911 .64004519C.2939911 .66400149 .2939911 .6660156 .2709961 .6660156 .20899964 .60227969 .12098694 .60227969 .08898926 .60227969V.57128909C.10899353 .57128909 .16799927 .57128909 .21998596 .5972748V.07902527C.21998596 .042999269 .21699524 .0309906 .1269989 .0309906H.09498596V0C.12998963 .0029907227 .21699524 .0029907227 .25698854 .0029907227 .29699708 .0029907227 .38398744 .0029907227 .4189911 0V.0309906H.3869934C.29699708 .0309906 .2939911 .041992189 .2939911 .07902527V.64004519Z"/>
<path id="font_3_5" d="M.44898988 .20022583C.44898988 .3193512 .36698915 .41944886 .25898744 .41944886 .21099854 .41944886 .16799927 .40345765 .13198853 .36842347V.5637665C.1519928 .5577698 .18499756 .55078127 .21699524 .55078127 .33999635 .55078127 .4099884 .6417694 .4099884 .6547699 .4099884 .6607666 .40699769 .6657715 .3999939 .6657715 .39898683 .6657715 .39698792 .6657715 .3919983 .66278079 .37199403 .6537781 .32299806 .6337738 .2559967 .6337738 .21598816 .6337738 .16999817 .6407776 .12298584 .6617737 .114990238 .66477969 .11299133 .66477969 .11099243 .66477969 .100997928 .66477969 .100997928 .6567688 .100997928 .6407776V.34439088C.100997928 .32637025 .100997928 .31835938 .114990238 .31835938 .12199402 .31835938 .12399292 .32136537 .12799073 .32736207 .13899231 .3433838 .17599488 .39746095 .25698854 .39746095 .30899049 .39746095 .33399964 .35139466 .34199525 .33337403 .35798646 .29632569 .3600006 .25727845 .3600006 .20722962 .3600006 .17222595 .3600006 .11222839 .33599855 .07035828 .31199647 .031463624 .2749939 .0055389406 .22898865 .0055389406 .1559906 .0055389406 .09899902 .058380128 .08198547 .11723328 .084991458 .1162262 .08799744 .115234378 .09899902 .115234378 .13198853 .115234378 .14898682 .14022827 .14898682 .16423035 .14898682 .18823242 .13198853 .21322632 .09899902 .21322632 .084991458 .21322632 .049987794 .20622254 .049987794 .16023255 .049987794 .07434082 .11898804-.022460938 .23098755-.022460938 .34700013-.022460938 .44898988 .073349 .44898988 .20022583Z"/>
<clipPath id="clip_5">
<path transform="matrix(1,0,0,-1,16.549,78.337)" d="M0 0H143.18264V75.1493H0Z"/>
</clipPath>
<path id="font_4_2" d="M.33399964 .30233766C.33999635 .32835389 .36299134 .42037965 .43299867 .42037965 .43798829 .42037965 .46199037 .42037965 .48298646 .40734864 .45498658 .402359 .43499757 .37734986 .43499757 .35334779 .43499757 .33735658 .44599916 .31835938 .47299195 .31835938 .49499513 .31835938 .5269928 .3363495 .5269928 .37635804 .5269928 .42837525 .46798707 .4423828 .43399049 .4423828 .37599183 .4423828 .34098817 .38935853 .32899476 .36634828 .3039856 .43237306 .25 .4423828 .22099304 .4423828 .116989139 .4423828 .05999756 .3133545 .05999756 .28834535 .05999756 .27833558 .069992069 .27833558 .07199097 .27833558 .07998657 .27833558 .08299255 .28033448 .084991458 .28933717 .11898804 .39535523 .18499756 .42037965 .21899414 .42037965 .23799134 .42037965 .272995 .4113617 .272995 .35334779 .272995 .32235719 .2559967 .25532533 .21899414 .11528015 .20298767 .053268434 .16799927 .011245728 .12399292 .011245728 .117996219 .011245728 .09498596 .011245728 .07398987 .024276734 .09899902 .029266358 .12098694 .05027771 .12098694 .07827759 .12098694 .105270389 .09899902 .11328125 .083999637 .11328125 .053985597 .11328125 .0289917 .08728027 .0289917 .055267335 .0289917 .009246826 .07899475-.0107421879 .12298584-.0107421879 .18899536-.0107421879 .22499085 .059280397 .22799683 .0652771 .23999024 .028274537 .27598573-.0107421879 .33599855-.0107421879 .43899537-.0107421879 .49598695 .118270877 .49598695 .14328003 .49598695 .1532898 .4869995 .1532898 .48399354 .1532898 .47499085 .1532898 .47299195 .14929199 .47099305 .14228821 .43798829 .03527832 .36999513 .011245728 .33799745 .011245728 .29899598 .011245728 .2829895 .043273927 .2829895 .07727051 .2829895 .09927368 .2889862 .121276859 .2999878 .16529846L.33399964 .30233766Z"/>
<path id="font_4_3" d="M.48599244 .38136292C.48999024 .39537049 .48999024 .39736939 .48999024 .40437318 .48999024 .42237855 .47599793 .43138124 .46099855 .43138124 .45098878 .43138124 .43499757 .42536927 .42599488 .41036988 .42399598 .405365 .41600038 .37435914 .4119873 .35635377 .40499879 .33035279 .397995 .30334474 .3919983 .27633668L.34700013 .09628296C.34298707 .08126831 .2999878 .011245728 .23399353 .011245728 .18299866 .011245728 .17199707 .055267335 .17199707 .0922699 .17199707 .1382904 .18899536 .20030213 .22299195 .28833009 .23899842 .3293457 .24299622 .3403473 .24299622 .36035157 .24299622 .405365 .21099854 .4423828 .16099549 .4423828 .06599426 .4423828 .0289917 .29733277 .0289917 .28833009 .0289917 .27833558 .038986207 .27833558 .040985109 .27833558 .050994874 .27833558 .051986696 .28033448 .056991579 .29634095 .083999637 .3903656 .12399292 .42037965 .1579895 .42037965 .1659851 .42037965 .18299866 .42037965 .18299866 .3883667 .18299866 .36335755 .17298889 .3373413 .1659851 .31834413 .12599182 .21231079 .10798645 .1552887 .10798645 .10827637 .10798645 .019256592 .17098999-.0107421879 .22999573-.0107421879 .2689972-.0107421879 .30299378 .0062561037 .33099366 .03425598 .31799317-.017745972 .30599977-.06674194 .2659912-.11973572 .23999024-.15385437 .20199585-.18309021 .1559906-.18309021 .14199829-.18309021 .09700012-.18005371 .07998657-.14074707 .09599304-.14074707 .10899353-.14074707 .12298584-.1287384 .1329956-.11973572 .14299011-.10673523 .14299011-.08773804 .14299011-.056747438 .115997318-.052734376 .10598755-.052734376 .08299255-.052734376 .049987794-.068740848 .049987794-.11773682 .049987794-.16796875 .09399414-.20507813 .1559906-.20507813 .25898744-.20507813 .3619995-.11373901 .3899994-.00074768069L.48599244 .38136292Z"/>
</defs>
<path transform="matrix(1,0,0,-1,16.549,78.337)" stroke-width=".3985" stroke-linecap="butt" stroke-miterlimit="10" stroke-linejoin="miter" fill="none" stroke="#e5e6e5" d="M0 0V75.1493M38.18202 0V75.1493M57.27306 0V75.1493M76.36407 0V75.1493M95.45508 0V75.1493M114.54611 0V75.1493M133.63713 0V75.1493"/>
<path transform="matrix(1,0,0,-1,16.549,78.337)" stroke-width=".3985" stroke-linecap="butt" stroke-miterlimit="10" stroke-linejoin="miter" fill="none" stroke="#e5e6e5" d="M0 35.06967H143.18264M0 60.11945H143.18264"/>
<path transform="matrix(1,0,0,-1,16.549,78.337)" stroke-width=".19925" stroke-linecap="butt" stroke-miterlimit="10" stroke-linejoin="miter" fill="none" stroke="#7f807f" d="M0 8.74435V11.29543M38.18202 8.74435V11.29543M57.27306 8.74435V11.29543M76.36407 8.74435V11.29543M95.45508 8.74435V11.29543M114.54611 8.74435V11.29543M133.63713 8.74435V11.29543"/>
<path transform="matrix(1,0,0,-1,16.549,78.337)" stroke-width=".19925" stroke-linecap="butt" stroke-miterlimit="10" stroke-linejoin="miter" fill="none" stroke="#7f807f" d="M17.81523 35.06967H20.36676M17.81523 60.11945H20.36676"/>
<path transform="matrix(1,0,0,-1,16.549,78.337)" stroke-width=".3985" stroke-linecap="butt" stroke-miterlimit="10" stroke-linejoin="miter" fill="none" stroke="#000000" d="M0 10.0199H141.19011"/>
<path transform="matrix(1,0,0,-1,157.7391,68.3171)" d="M1.99252 0-1.19551 1.59401 0 0-1.19551-1.59401"/>
<path transform="matrix(1,0,0,-1,16.549,78.337)" stroke-width=".3985" stroke-linecap="butt" stroke-miterlimit="10" stroke-linejoin="miter" fill="none" stroke="#000000" d="M19.091 0V73.15678"/>
<path transform="matrix(0,-1,-1,-0,35.64,5.1802217)" d="M1.99252 0-1.19551 1.59401 0 0-1.19551-1.59401"/>
<g clip-path="url(#clip_1)">
</g>
<use data-text="&#x2212;" xlink:href="#font_2_1" transform="matrix(9.96264,0,0,-9.96264,6.309,79.532)"/>
<use data-text="0" xlink:href="#font_3_1" transform="matrix(9.96264,0,0,-9.96264,14.058,79.532)"/>
<use data-text="." xlink:href="#font_4_1" transform="matrix(9.96264,0,0,-9.96264,19.039,79.532)"/>
<use data-text="2" xlink:href="#font_3_3" transform="matrix(9.96264,0,0,-9.96264,21.807,79.532)"/>
<use data-text="0" xlink:href="#font_3_1" transform="matrix(9.96264,0,0,-9.96264,48.364999,79.532)"/>
<use data-text="." xlink:href="#font_4_1" transform="matrix(9.96264,0,0,-9.96264,53.346998,79.532)"/>
<use data-text="2" xlink:href="#font_3_3" transform="matrix(9.96264,0,0,-9.96264,56.113996,79.532)"/>
<use data-text="0" xlink:href="#font_3_1" transform="matrix(9.96264,0,0,-9.96264,67.456,79.532)"/>
<use data-text="." xlink:href="#font_4_1" transform="matrix(9.96264,0,0,-9.96264,72.437,79.532)"/>
<use data-text="4" xlink:href="#font_3_4" transform="matrix(9.96264,0,0,-9.96264,75.205,79.532)"/>
<use data-text="0" xlink:href="#font_3_1" transform="matrix(9.96264,0,0,-9.96264,86.547,79.532)"/>
<use data-text="." xlink:href="#font_4_1" transform="matrix(9.96264,0,0,-9.96264,91.528,79.532)"/>
<use data-text="6" xlink:href="#font_3_6" transform="matrix(9.96264,0,0,-9.96264,94.296,79.532)"/>
<use data-text="0" xlink:href="#font_3_1" transform="matrix(9.96264,0,0,-9.96264,105.638,79.532)"/>
<use data-text="." xlink:href="#font_4_1" transform="matrix(9.96264,0,0,-9.96264,110.619,79.532)"/>
<use data-text="8" xlink:href="#font_3_7" transform="matrix(9.96264,0,0,-9.96264,113.386,79.532)"/>
<use data-text="1" xlink:href="#font_3_2" transform="matrix(9.96264,0,0,-9.96264,128.603,79.532)"/>
<use data-text="1" xlink:href="#font_3_2" transform="matrix(9.96264,0,0,-9.96264,143.819,79.532)"/>
<use data-text="." xlink:href="#font_4_1" transform="matrix(9.96264,0,0,-9.96264,148.8,79.532)"/>
<use data-text="2" xlink:href="#font_3_3" transform="matrix(9.96264,0,0,-9.96264,151.568,79.532)"/>
<use data-text="0" xlink:href="#font_3_1" transform="matrix(9.96264,0,0,-9.96264,18.114,46.477998)"/>
<use data-text="." xlink:href="#font_4_1" transform="matrix(9.96264,0,0,-9.96264,23.095,46.477998)"/>
<use data-text="5" xlink:href="#font_3_5" transform="matrix(9.96264,0,0,-9.96264,25.863,46.477998)"/>
<use data-text="1" xlink:href="#font_3_2" transform="matrix(9.96264,0,0,-9.96264,25.862999,21.427994)"/>
<g clip-path="url(#clip_5)">
<path transform="matrix(1,0,0,-1,16.549,78.337)" stroke-width=".79701" stroke-linecap="butt" stroke-miterlimit="10" stroke-linejoin="miter" fill="none" stroke="#2471a3" d="M0 0 .7195 .37761 1.43901 .75526 2.15852 1.13289 2.87804 1.51053 3.59753 1.88814 4.31706 2.2658 5.03656 2.64342 5.75609 3.02106 6.4756 3.39868 7.1951 3.77632 7.91461 4.15395 8.63412 4.53159 9.35364 4.90921 10.07315 5.28685 10.79266 5.66447 11.51218 6.04211 12.23169 6.41974 12.9512 6.79738 13.6707 7.175 14.39023 7.55264 15.10973 7.93027 15.82925 8.3079 16.54877 8.68553 17.26826 9.06317 17.9878 9.4408 18.70729 9.81844 19.4268 10.19606 20.14632 10.5737 20.86583 10.95134 21.58534 11.32896 22.30486 11.70659 23.02437 12.08424 23.74388 12.46187 24.4634 12.8395 25.1829 13.21712 25.90242 13.59477 26.62192 13.9724 27.34143 14.35004 28.06096 14.72768 28.78046 15.1053 29.49998 15.48294 30.21948 15.86057 30.939 16.2382 31.65851 16.61583 32.37802 16.99347 33.09753 17.3711 33.81705 17.74873 34.53656 18.12636 35.25607 18.504 35.97559 18.88162 36.69508 19.25926 37.41461 19.63689 38.13412 20.01453 38.85362 20.39215 39.57315 20.76979 40.29265 21.14742 41.01216 21.52505 41.73169 21.90268 42.45119 22.28033 43.1707 22.65794 43.89021 23.03558 44.60973 23.41321 45.32924 23.79086 46.04875 24.16847 46.76825 24.54611 47.48778 24.92375 48.20729 25.30139 48.9268 25.679 49.64632 26.05666 50.36581 26.43428 51.08533 26.81192 51.80486 27.18953 52.52435 27.56718 53.24387 27.94481 53.96338 28.32245 54.68289 28.70009 55.4024 29.07771 56.12192 29.45535 56.84143 29.83298 57.56094 30.21062 58.28046 30.58824 58.99997 30.96588 59.71947 31.3435 60.43898 31.72115 61.15851 32.09877 61.87802 32.47641 62.59753 32.85403 63.31703 33.23167 64.03654 33.6093 64.75606 33.98694 65.47557 34.36456 66.19508 34.7422 66.9146 35.11984 67.63411 35.49747 68.35362 35.87509 69.07314 36.25275 69.79263 36.63037 70.51215 37.008 71.23167 37.38562 71.95119 37.76328 72.6707 38.1409 73.3902 38.51852 74.10971 38.89616 74.82924 39.2738 75.54874 39.65143 76.26825 40.02907 76.98776 40.4067 77.70728 40.78433 78.42679 41.16196 79.1463 41.5396 79.8658 41.91722 80.58533 42.29486 81.30484 42.67249 82.02435 43.05013 82.74387 43.42776 83.46336 43.80539 84.18288 44.18303 84.9024 44.56065 85.6219 44.9383 86.34142 45.31592 87.06093 45.69356 87.78044 46.07118 88.49997 46.44884 89.21947 46.82645 89.93896 47.20409 90.6585 47.58171 91.378 47.95937 92.09752 48.33698 92.81703 48.71461 93.53653 49.09225 94.25606 49.4699 94.97557 49.8475 95.69508 50.22516 96.41458 50.60278 97.1341 50.98042 97.8536 51.35803 98.57314 51.73569 99.29263 52.11331 100.01215 52.49095 100.73166 52.86858 101.45117 53.24622 102.17068 53.62384 102.89018 54.00148 103.6097 54.3791 104.32922 54.75674 105.04874 55.13437 105.76825 55.51201 106.48775 55.88963 107.20726 56.26727 107.92679 56.6449 108.6463 57.02254 109.3658 57.40018 110.08531 57.77782 110.80482 58.15544 111.52434 58.53307 112.24387 58.9107 112.96335 59.28835 113.68288 59.66597 114.40239 60.0436 115.1219 60.42125 115.84142 60.79887 116.56091 61.1765 117.28043 61.55414 117.99995 61.93178 118.71947 62.3094 119.43896 62.68703 120.15848 63.06467 120.87799 63.4423 121.5975 63.81993 122.31702 64.19757 123.03651 64.5752 123.75604 64.95284 124.47556 65.33046 125.19507 65.7081 125.91458 66.08572 126.63408 66.46336 127.3536 66.84099 128.07312 67.21863 128.79264 67.59625 129.51213 67.97389 130.23165 68.35152 130.95116 68.72916 131.67069 69.10678 132.39019 69.48442 133.1097 69.86205 133.82921 70.23969 134.54872 70.61732 135.26824 70.99495 135.98773 71.37259 136.70725 71.75023 137.42678 72.12787 138.14629 72.50548 138.8658 72.88312 139.5853 73.26076 140.30481 73.6384 141.02433 74.016 141.74385 74.39366 142.46335 74.77129 143.18286 75.14893"/>
<path transform="matrix(1,0,0,-1,16.549,78.337)" stroke-width=".79701" stroke-linecap="butt" stroke-miterlimit="10" stroke-linejoin="miter" fill="none" stroke="#b30000" d="M0 9.61905 .7195 9.66267 1.43901 9.70302 2.15852 9.7402 2.87804 9.77437 3.59753 9.80562 4.31706 9.83409 5.03656 9.85994 5.75609 9.88326 6.4756 9.90419 7.1951 9.92288 7.91461 9.93942 8.63412 9.954 9.35364 9.96667 10.07315 9.9776 10.79266 9.98694 11.51218 9.99477 12.23169 10.00125 12.9512 10.00652 13.6707 10.01068 14.39023 10.01385 15.10973 10.0162 15.82925 10.01784 16.54877 10.0189 17.26826 10.0195 17.9878 10.01978 18.70729 10.01985H19.4268L20.14632 10.01991 20.86583 10.02016 21.58534 10.02072 22.30486 10.02176 23.02437 10.02336 23.74388 10.02565 24.4634 10.02878 25.1829 10.03285 25.90242 10.03804 26.62192 10.04443 27.34143 10.0522 28.06096 10.0614 28.78046 10.07225 29.49998 10.08481 30.21948 10.09923 30.939 10.11563 31.65851 10.13419 32.37802 10.15495 33.09753 10.17813 33.81705 10.20378 34.53656 10.2321 35.25607 10.26315 35.97559 10.29712 36.69508 10.33409 37.41461 10.37422 38.13412 10.41762 38.85362 10.46445 39.57315 10.51479 40.29265 10.5688 41.01216 10.6266 41.73169 10.68834 42.45119 10.75412 43.1707 10.82408 43.89021 10.89835 44.60973 10.97705 45.32924 11.06033 46.04875 11.14828 46.76825 11.24107 47.48778 11.3388 48.20729 11.44164 48.9268 11.54968 49.64632 11.66304 50.36581 11.78188 51.08533 11.90631 51.80486 12.03648 52.52435 12.17247 53.24387 12.31448 53.96338 12.46257 54.68289 12.61691 55.4024 12.77762 56.12192 12.94482 56.84143 13.11867 57.56094 13.29924 58.28046 13.48671 58.99997 13.6812 59.71947 13.88281 60.43898 14.0917 61.15851 14.308 61.87802 14.53181 62.59753 14.76329 63.31703 15.00255 64.03654 15.24973 64.75606 15.50493 65.47557 15.76831 66.19508 16.03998 66.9146 16.3201 67.63411 16.60876 68.35362 16.9061 69.07314 17.21227 69.79263 17.52737 70.51215 17.85155 71.23167 18.18494 71.95119 18.52763 72.6707 18.8798 73.3902 19.24155 74.10971 19.61302 74.82924 19.99434 75.54874 20.38562 76.26825 20.787 76.98776 21.19862 77.70728 21.62059 78.42679 22.05304 79.1463 22.49612 79.8658 22.94995 80.58533 23.41464 81.30484 23.89034 82.02435 24.37718 82.74387 24.87526 83.46336 25.38474 84.18288 25.90575 84.9024 26.43839 85.6219 26.9828 86.34142 27.53912 87.06093 28.10748 87.78044 28.68799 88.49997 29.28079 89.21947 29.88602 89.93896 30.5038 90.6585 31.13423 91.378 31.7775 92.09752 32.43369 92.81703 33.10294 93.53653 33.78537 94.25606 34.48114 94.97557 35.19034 95.69508 35.91313 96.41458 36.64963 97.1341 37.39995 97.8536 38.16423 98.57314 38.94261 99.29263 39.73521 100.01215 40.54216 100.73166 41.36359 101.45117 42.19963 102.17068 43.05042 102.89018 43.91605 103.6097 44.79668 104.32922 45.69243 105.04874 46.60344 105.76825 47.52982 106.48775 48.47171 107.20726 49.42924 107.92679 50.40253 108.6463 51.39172 109.3658 52.39694 110.08531 53.4183 110.80482 54.45596 111.52434 55.51 112.24387 56.5806 112.96335 57.66785 113.68288 58.77191 114.40239 59.89288 115.1219 61.03091 115.84142 62.18614 116.56091 63.35866 117.28043 64.54863 117.99995 65.75616 118.71947 66.9814 119.43896 68.22446 120.15848 69.48546 120.87799 70.76454 121.5975 72.06186 122.31702 73.37749 123.03651 74.71161 123.75604 76.06432 124.47556 77.43578 125.19507 78.82605 125.91458 80.23534 126.63408 81.66373 127.3536 83.11137 128.07312 84.57835 128.79264 86.06487 129.51213 87.571 130.23165 89.0969 130.95116 90.64265 131.67069 92.20845 132.39019 93.79437 133.1097 95.40057 133.82921 97.02716 134.54872 98.6743 135.26824 100.3421 135.98773 102.03067 136.70725 103.74014 137.42678 105.47067 138.14629 107.22238 138.8658 108.99539 139.5853 110.78984 140.30481 112.60583 141.02433 114.44351 141.74385 116.30302 142.46335 118.18446 143.18286 120.08798"/>
</g>
<use data-text="x" xlink:href="#font_4_2" transform="matrix(9.96264,0,0,-9.96264,150.317,64.598)"/>
<use data-text="y" xlink:href="#font_4_3" transform="matrix(9.96264,0,0,-9.96264,39.358,11.196999)"/>
</svg>
