<svg xmlns="http://www.w3.org/2000/svg" xmlns:xlink="http://www.w3.org/1999/xlink" xmlns:inkscape="http://www.inkscape.org/namespaces/inkscape" version="1.1" width="116.765" height="133.781" viewBox="0 0 116.765 133.781">
<defs>
<path id="font_1_1" d="M.1789856 .114868167C.13899231 .047973634 .099990848 .033981325 .055999757 .0309906 .04399109 .02999878 .034988405 .02999878 .034988405 .010986328 .034988405 .004989624 .039993287 0 .04798889 0 .07499695 0 .10598755 .0029907227 .13398743 .0029907227 .16699219 .0029907227 .20199585 0 .23399353 0 .23999024 0 .25299073 0 .25299073 .018997193 .25299073 .02999878 .24398804 .0309906 .23699951 .0309906 .21398926 .032989503 .18998719 .04096985 .18998719 .06593323 .18998719 .077926639 .19599915 .088897708 .20399475 .102890018L.27999879 .23068238H.5309906C.5329895 .2097168 .5469971 .07392883 .5469971 .063949588 .5469971 .033981325 .49499513 .0309906 .47499085 .0309906 .46099855 .0309906 .45098878 .0309906 .45098878 .010986328 .45098878 0 .46299745 0 .46499635 0 .5059967 0 .548996 .0029907227 .58999636 .0029907227 .61499026 .0029907227 .6779938 0 .7029877 0 .70899966 0 .72099307 0 .72099307 .019989014 .72099307 .0309906 .71099856 .0309906 .69799807 .0309906 .6359863 .0309906 .6359863 .037979127 .6329956 .06694031L.57199099 .691803C.56999209 .71180728 .56999209 .7158203 .5529938 .7158203 .5369873 .7158203 .5329895 .7088165 .5269928 .69880679L.1789856 .114868167M.29899598 .26168824 .49598695 .5917816 .5279999 .26168824H.29899598Z"/>
<path id="font_1_3" d="M.7599945 .69506838C.7599945 .69807437 .7579956 .7050781 .7489929 .7050781 .74598696 .7050781 .7449951 .70407107 .73399356 .69306948L.6639862 .61602786C.6549988 .6300354 .60899356 .7050781 .49798585 .7050781 .2749939 .7050781 .049987794 .48391725 .049987794 .25172425 .049987794 .08659363 .16799927-.022460938 .32099916-.022460938 .4079895-.022460938 .48399354 .017532349 .5369873 .063583377 .6299896 .14564514 .6469879 .2367096 .6469879 .23971558 .6469879 .24972534 .6369934 .24972534 .6349945 .24972534 .6289978 .24972534 .6239929 .24772644 .621994 .23971558 .61299136 .21069336 .58999636 .13963318 .5209961 .081588748 .45199586 .025543213 .3889923 .008529663 .33699037 .008529663 .24699402 .008529663 .14099121 .060577394 .14099121 .21670532 .14099121 .27374269 .1619873 .43588258 .2619934 .55296328 .32299806 .62402346 .4169922 .67407229 .5059967 .67407229 .60798647 .67407229 .6669922 .5970001 .6669922 .48091126 .6669922 .44088746 .6639862 .43988038 .6639862 .4298706 .6639862 .41986085 .6749878 .41986085 .67900088 .41986085 .69200137 .41986085 .69200137 .42185975 .69699099 .43988038L.7599945 .69506838Z"/>
<path id="font_1_2" d="M.1599884 .07795715C.1499939 .038986207 .147995 .0309906 .068984989 .0309906 .051986696 .0309906 .041992189 .0309906 .041992189 .010986328 .041992189 0 .050994874 0 .068984989 0H.42599488C.58399966 0 .70199587 .11791992 .70199587 .21585083 .70199587 .28778077 .6439972 .3457489 .5469971 .35673524 .651001 .37573243 .7559967 .44970704 .7559967 .5446625 .7559967 .6186218 .6899872 .6826172 .56999209 .6826172H.23399353C.21499634 .6826172 .20498657 .6826172 .20498657 .6626129 .20498657 .6516113 .21398926 .6516113 .23298645 .6516113 .23498535 .6516113 .2539978 .6516113 .2709961 .6496124 .2889862 .6476135 .2979889 .64660647 .2979889 .6336212 .2979889 .6296234 .29699708 .62661746 .2939911 .614624L.1599884 .07795715M.31098939 .36573792 .37298585 .6136322C.38198854 .64860537 .38398744 .6516113 .4269867 .6516113H.55599978C.6439972 .6516113 .6649933 .5926361 .6649933 .5486603 .6649933 .46069337 .57899478 .36573792 .45700074 .36573792H.31098939M.2659912 .0309906C.2519989 .0309906 .25 .0309906 .24398804 .03199768 .23399353 .032989503 .23098755 .033996583 .23098755 .04197693 .23098755 .04498291 .23098755 .04698181 .23599243 .064971927L.30499269 .34375H.49398805C.58999636 .34375 .60899356 .2698059 .60899356 .22683716 .60899356 .12791443 .519989 .0309906 .4019928 .0309906H.2659912Z"/>
<path id="font_1_4" d="M.30299378 .3157959H.47299195C.61499026 .3157959 .7539978 .41973878 .7539978 .53167727 .7539978 .6086273 .6879883 .6826172 .5569916 .6826172H.23298645C.21398926 .6826172 .20298767 .6826172 .20298767 .66360476 .20298767 .6516113 .21199036 .6516113 .23199463 .6516113 .24499512 .6516113 .2630005 .65060427 .2749939 .6496124 .29100038 .6476135 .29699708 .64460757 .29699708 .6336212 .29699708 .6296234 .29599 .62661746 .29299928 .614624L.15899658 .07795715C.14898682 .038986207 .14698792 .0309906 .067993167 .0309906 .050994874 .0309906 .039993287 .0309906 .039993287 .011993408 .039993287 0 .051986696 0 .054992677 0 .08299255 0 .1539917 .0029907227 .18199158 .0029907227 .20298767 .0029907227 .22499085 .0019989014 .24598694 .0019989014 .2679901 .0019989014 .2899933 0 .31098939 0 .31799317 0 .33099366 0 .33099366 .019989014 .33099366 .0309906 .32199098 .0309906 .30299378 .0309906 .2659912 .0309906 .23799134 .0309906 .23799134 .048980714 .23799134 .054977418 .23999024 .05996704 .24099732 .065963748L.30299378 .3157959M.375 .6136322C.38398744 .64860537 .38598634 .6516113 .42900086 .6516113H.5249939C.60798647 .6516113 .6609955 .62461856 .6609955 .55566409 .6609955 .5166931 .6409912 .43074037 .60198977 .39476014 .5519867 .34977723 .49198915 .34179688 .44799806 .34179688H.30699159L.375 .6136322Z"/>
</defs>
<path transform="matrix(1,0,0,-1,58.382,66.89001)" stroke-width=".79701" stroke-linecap="butt" stroke-miterlimit="10" stroke-linejoin="miter" fill="none" stroke="#000000" d="M0 63.50404-54.99571 31.752V-31.752L0-63.50404 54.99571-31.752V31.752Z"/>
<path transform="matrix(1,0,0,-1,58.382,66.89001)" stroke-width=".3985" stroke-linecap="butt" stroke-miterlimit="10" stroke-linejoin="miter" fill="none" stroke="#000000" d="M0 0C0 .77953-1.7008 1.16928-1.7008 1.94882-1.7008 2.5132-.8708 2.99963 0 3.50789 .87079 4.01614 1.7008 4.50258 1.7008 5.06697 1.7008 5.63133 .8708 6.11777 0 6.62604-.87079 7.13428-1.7008 7.62071-1.7008 8.1851-1.7008 8.74948-.8708 9.23592 0 9.74417 .87079 10.25243 1.7008 10.73885 1.7008 11.30324 1.7008 11.86761 .8708 12.35405 0 12.8623-.87079 13.37056-1.7008 13.857-1.7008 14.42139-1.7008 14.98575-.8708 15.47218 0 15.98045 .87079 16.4887 1.7008 16.97513 1.7008 17.53952 1.7008 18.1039 .8708 18.59033 0 19.09859-.87079 19.60684-1.7008 20.09326-1.7008 20.65765-1.7008 21.22203-.8708 21.70847 0 22.21672 .87079 22.72498 1.7008 23.21141 1.7008 23.7758 1.7008 24.34016 .8708 24.8266 0 25.33487-.87079 25.84311-1.7008 26.32954-1.7008 26.89394-1.7008 27.45831-.8708 27.94475 0 28.453 .87079 28.96126 1.7008 29.44768 1.7008 30.01207 1.7008 30.57645 .8708 31.06288 0 31.57114-.87079 32.07939-1.7008 32.56583-1.7008 33.13022-1.7008 33.69458-.8708 34.18102 0 34.68929 .87079 35.19753 1.7008 35.68396 1.7008 36.24835 1.7008 36.81273 .8708 37.29915 0 37.80742-.87079 38.31567-1.7008 38.8021-1.7008 39.36649-1.7008 39.93086-.8708 40.4173 0 40.92555 .87079 41.4338 1.7008 41.92024 1.7008 42.48463 1.7008 43.049 .8708 43.53543 0 44.0437-.87079 44.55194-1.7008 45.03838-1.7008 45.60277-1.7008 46.16714-.8708 46.65356 0 47.16183 .87079 47.67009 1.7008 48.15651 1.7008 48.7209 1.7008 49.28528 .8708 49.77171 0 50.27997-.87079 50.78822-1.7008 51.27466-1.7008 51.83905-1.7008 52.61858 0 53.00833 0 53.78787V54.97028"/>
<path transform="matrix(1,0,0,-1,58.382,66.89001)" stroke-width=".3985" stroke-linecap="butt" stroke-miterlimit="10" stroke-linejoin="miter" fill="none" stroke="#000000" d="M0 0C-.67506-.38974-.16225-2.05754-.83733-2.4473-1.32608-2.72946-2.16232-2.25389-3.03786-1.75388-3.91339-1.25386-4.74963-.77827-5.2384-1.06046-5.72714-1.34262-5.73341-2.30461-5.73819-3.31287-5.74295-4.32108-5.74922-5.28311-6.23799-5.56528-6.72673-5.84744-7.56297-5.37189-8.43852-4.87186-9.31404-4.37186-10.1503-3.89626-10.63905-4.17844-11.12779-4.4606-11.13408-5.42259-11.13884-6.43086-11.1436-7.43907-11.14989-8.4011-11.63864-8.68327-12.12738-8.96544-12.96364-8.48987-13.83917-7.98985-14.7147-7.48984-15.55095-7.01425-16.0397-7.29643-16.52844-7.57858-16.53473-8.54059-16.5395-9.54884-16.54427-10.55705-16.55054-11.51907-17.03929-11.80125-17.52805-12.08342-18.36429-11.60786-19.23982-11.10783-20.11536-10.60783-20.9516-10.13223-21.44035-10.41441-21.92911-10.69658-21.93538-11.65857-21.94016-12.66682-21.94492-13.67503-21.95119-14.63707-22.43996-14.91925-22.9287-15.2014-23.76494-14.72585-24.64049-14.22581-25.516-13.72581-26.35226-13.25021-26.84102-13.5324-27.32976-13.81456-27.33604-14.77657-27.3408-15.78482-27.34557-16.79303-27.35185-17.75505-27.8406-18.03723-28.32935-18.3194-29.16559-17.84383-30.04114-17.34381-30.91667-16.8438-31.75291-16.36821-32.24167-16.65039-32.73041-16.93256-32.7367-17.89455-32.74147-18.9028-32.74623-19.91101-32.7525-20.87303-33.24126-21.15521-33.73001-21.43738-34.56625-20.96182-35.44179-20.46179-36.31732-19.96179-37.15356-19.48619-37.64232-19.76837-38.13107-20.05054-38.13734-21.01253-38.14212-22.02078-38.14688-23.02899-38.15315-23.99103-38.64192-24.27321-39.13066-24.55537-39.9669-24.0798-40.84245-23.57979-41.71797-23.07977-42.55421-22.60417-43.04298-22.88635-43.53172-23.16852-43.53801-24.13052-43.54277-25.13878-43.54753-26.14699-43.55382-27.10901-44.04257-27.39119-44.71797-27.78139-45.90588-26.50334-46.58096-26.8931L-47.60527-27.48474"/>
<path transform="matrix(1,0,0,-1,58.382,66.89001)" stroke-width=".3985" stroke-linecap="butt" stroke-miterlimit="10" stroke-linejoin="miter" fill="none" stroke="#000000" d="M0 0C.67506-.38974 1.86298 .88829 2.53807 .49852 3.02681 .21637 3.0331-.74562 3.03786-1.75388 3.04262-2.76208 3.0489-3.7241 3.53766-4.00629 4.0264-4.28845 4.86266-3.8129 5.73819-3.31287 6.61372-2.81287 7.44997-2.33727 7.93872-2.61945 8.42747-2.90161 8.43375-3.8636 8.43852-4.87186 8.44328-5.88007 8.44955-6.8421 8.93831-7.12428 9.42706-7.40645 10.2633-6.93088 11.13884-6.43086 12.01437-5.93085 12.85062-5.45525 13.33939-5.73743 13.82813-6.01959 13.8344-6.9816 13.83917-7.98985 13.84393-8.99806 13.8502-9.96008 14.33897-10.24226 14.82771-10.52443 15.66396-10.04886 16.5395-9.54884 17.41502-9.04883 18.25128-8.57324 18.74004-8.85542 19.22878-9.13759 19.23506-10.09958 19.23982-11.10783 19.24458-12.11604 19.25087-13.07808 19.73962-13.36024 20.22836-13.64241 21.06462-13.16685 21.94016-12.66682 22.81569-12.16682 23.65193-11.69122 24.14069-11.9734 24.62943-12.25557 24.63571-13.21756 24.64049-14.22581 24.64525-15.23404 24.65152-16.19606 25.14027-16.47824 25.62903-16.7604 26.46527-16.28484 27.3408-15.78482 28.21634-15.2848 29.05258-14.80922 29.54134-15.09138 30.03009-15.37355 30.03636-16.33556 30.04114-17.34381 30.0459-18.35202 30.05217-19.31404 30.54094-19.59622 31.02968-19.87839 31.86592-19.40283 32.74147-18.9028 33.61699-18.40279 34.45323-17.9272 34.942-18.20938 35.43074-18.49155 35.43703-19.45354 35.44179-20.46179 35.44655-21.47 35.45284-22.43204 35.94159-22.71422 36.43033-22.99637 37.26657-22.52081 38.14212-22.02078 39.01765-21.52078 39.8539-21.04518 40.34265-21.32736 40.83139-21.60953 40.83768-22.57152 40.84245-23.57979 40.84721-24.588 40.85349-25.55002 41.34224-25.8322 41.831-26.11436 42.66724-25.6388 43.54277-25.13878 44.4183-24.63876 45.25455-24.16318 45.7433-24.44536 46.4187-24.83554 45.90588-26.50334 46.58096-26.8931L47.60527-27.48474"/>
<use data-text="A" xlink:href="#font_1_1" transform="matrix(9.96264,0,0,-9.96264,27.152,54.421007)"/>
<use data-text="C" xlink:href="#font_1_3" transform="matrix(9.96264,0,0,-9.96264,54.466,48.468004)"/>
<use data-text="B" xlink:href="#font_1_2" transform="matrix(9.96264,0,0,-9.96264,81.848,86.16801)"/>
<path transform="matrix(1,0,0,-1,58.382,66.89001)" d="M-31.12831-5.85747C-31.12831-4.70198-32.06499-3.76529-33.22047-3.76529-34.37596-3.76529-35.31265-4.70198-35.31265-5.85747-35.31265-7.01295-34.37596-7.94965-33.22047-7.94965-32.06499-7.94965-31.12831-7.01295-31.12831-5.85747ZM-33.22047-5.85747"/>
<use data-text="P" xlink:href="#font_1_4" transform="matrix(9.96264,0,0,-9.96264,13.862999,76.15201)"/>
</svg>
