<svg xmlns="http://www.w3.org/2000/svg" xmlns:xlink="http://www.w3.org/1999/xlink" xmlns:inkscape="http://www.inkscape.org/namespaces/inkscape" version="1.1" width="334.206" height="468.978" viewBox="0 0 334.206 468.978">
<defs>
<path id="font_1_1" d="M.33399964 .30233766C.33999635 .32835389 .36299134 .42037965 .43299867 .42037965 .43798829 .42037965 .46199037 .42037965 .48298646 .40734864 .45498658 .402359 .43499757 .37734986 .43499757 .35334779 .43499757 .33735658 .44599916 .31835938 .47299195 .31835938 .49499513 .31835938 .5269928 .3363495 .5269928 .37635804 .5269928 .42837525 .46798707 .4423828 .43399049 .4423828 .37599183 .4423828 .34098817 .38935853 .32899476 .36634828 .3039856 .43237306 .25 .4423828 .22099304 .4423828 .116989139 .4423828 .05999756 .3133545 .05999756 .28834535 .05999756 .27833558 .069992069 .27833558 .07199097 .27833558 .07998657 .27833558 .08299255 .28033448 .084991458 .28933717 .11898804 .39535523 .18499756 .42037965 .21899414 .42037965 .23799134 .42037965 .272995 .4113617 .272995 .35334779 .272995 .32235719 .2559967 .25532533 .21899414 .11528015 .20298767 .053268434 .16799927 .011245728 .12399292 .011245728 .117996219 .011245728 .09498596 .011245728 .07398987 .024276734 .09899902 .029266358 .12098694 .05027771 .12098694 .07827759 .12098694 .105270389 .09899902 .11328125 .083999637 .11328125 .053985597 .11328125 .0289917 .08728027 .0289917 .055267335 .0289917 .009246826 .07899475-.0107421879 .12298584-.0107421879 .18899536-.0107421879 .22499085 .059280397 .22799683 .0652771 .23999024 .028274537 .27598573-.0107421879 .33599855-.0107421879 .43899537-.0107421879 .49598695 .118270877 .49598695 .14328003 .49598695 .1532898 .4869995 .1532898 .48399354 .1532898 .47499085 .1532898 .47299195 .14929199 .47099305 .14228821 .43798829 .03527832 .36999513 .011245728 .33799745 .011245728 .29899598 .011245728 .2829895 .043273927 .2829895 .07727051 .2829895 .09927368 .2889862 .121276859 .2999878 .16529846L.33399964 .30233766Z"/>
<path id="font_1_2" d="M.48599244 .38136292C.48999024 .39537049 .48999024 .39736939 .48999024 .40437318 .48999024 .42237855 .47599793 .43138124 .46099855 .43138124 .45098878 .43138124 .43499757 .42536927 .42599488 .41036988 .42399598 .405365 .41600038 .37435914 .4119873 .35635377 .40499879 .33035279 .397995 .30334474 .3919983 .27633668L.34700013 .09628296C.34298707 .08126831 .2999878 .011245728 .23399353 .011245728 .18299866 .011245728 .17199707 .055267335 .17199707 .0922699 .17199707 .1382904 .18899536 .20030213 .22299195 .28833009 .23899842 .3293457 .24299622 .3403473 .24299622 .36035157 .24299622 .405365 .21099854 .4423828 .16099549 .4423828 .06599426 .4423828 .0289917 .29733277 .0289917 .28833009 .0289917 .27833558 .038986207 .27833558 .040985109 .27833558 .050994874 .27833558 .051986696 .28033448 .056991579 .29634095 .083999637 .3903656 .12399292 .42037965 .1579895 .42037965 .1659851 .42037965 .18299866 .42037965 .18299866 .3883667 .18299866 .36335755 .17298889 .3373413 .1659851 .31834413 .12599182 .21231079 .10798645 .1552887 .10798645 .10827637 .10798645 .019256592 .17098999-.0107421879 .22999573-.0107421879 .2689972-.0107421879 .30299378 .0062561037 .33099366 .03425598 .31799317-.017745972 .30599977-.06674194 .2659912-.11973572 .23999024-.15385437 .20199585-.18309021 .1559906-.18309021 .14199829-.18309021 .09700012-.18005371 .07998657-.14074707 .09599304-.14074707 .10899353-.14074707 .12298584-.1287384 .1329956-.11973572 .14299011-.10673523 .14299011-.08773804 .14299011-.056747438 .115997318-.052734376 .10598755-.052734376 .08299255-.052734376 .049987794-.068740848 .049987794-.11773682 .049987794-.16796875 .09399414-.20507813 .1559906-.20507813 .25898744-.20507813 .3619995-.11373901 .3899994-.00074768069L.48599244 .38136292Z"/>
<path id="font_2_1" d="M.8799896 .2223053C.8959961 .2223053 .9229889 .2223053 .9229889 .25030519 .9229889 .2783203 .8959961 .2783203 .8799896 .2783203H.20298767C.18699646 .2783203 .1599884 .2783203 .1599884 .25030519 .1599884 .2223053 .18699646 .2223053 .20298767 .2223053H.8799896Z"/>
<path id="font_3_2" d="M.397995 .63591006C.397995 .6660156 .394989 .6660156 .3619995 .6660156 .29100038 .6016083 .17999268 .6016083 .1599884 .6016083H.14299011V.5576172H.1599884C.18299866 .5576172 .24798584 .5606079 .30599977 .58561709V.08596802C.30599977 .054977418 .30599977 .04399109 .19999695 .04399109H.1499939V0C.20498657 .0039978029 .2939911 .0039978029 .35198976 .0039978029 .4099884 .0039978029 .49899293 .0039978029 .55400088 0V.04399109H.5039978C.397995 .04399109 .397995 .054977418 .397995 .08596802V.63591006Z"/>
<path id="font_3_1" d="M.6009979 .31976319C.6009979 .3918152 .6009979 .6660156 .33999635 .6660156 .07899475 .6660156 .07899475 .3918152 .07899475 .31976319 .07899475 .2467041 .07899475-.022460938 .33999635-.022460938 .6009979-.022460938 .6009979 .2467041 .6009979 .31976319M.33999635 .010528564C.30299378 .010528564 .21899414 .023544312 .19400025 .12461853 .17999268 .17866516 .1789856 .24971009 .1789856 .33177186 .1789856 .405838 .1789856 .47488404 .19499207 .5319214 .21998596 .6159973 .29699708 .63301089 .33999635 .63301089 .4139862 .63301089 .46699525 .5949707 .4869995 .5249176 .5009918 .47387696 .5009918 .39082337 .5009918 .33177186 .5009918 .26371766 .5009918 .18266297 .48599244 .12261963 .45999146 .025543213 .37998963 .010528564 .33999635 .010528564Z"/>
<path id="font_3_6" d="M.42900086 .36079408C.5319977 .40382386 .5649872 .45687867 .5649872 .513916 .5649872 .6179962 .44999696 .6660156 .34098817 .6660156 .21699524 .6660156 .114990238 .5959778 .114990238 .4958954 .114990238 .40382386 .19400025 .36279298 .24598694 .3357849 .13999939 .29473878 .07998657 .23570252 .07998657 .15364075 .07998657 .03353882 .21299744-.022460938 .33898927-.022460938 .47898866-.022460938 .59999087 .05255127 .59999087 .1706543 .59999087 .27973939 .49598695 .33078004 .42900086 .36079408M.23298645 .46287538C.18998719 .4848938 .1769867 .51091006 .1769867 .53492739 .1769867 .59898379 .25898744 .628006 .33898927 .628006 .4189911 .628006 .5029907 .588974 .5029907 .51290896 .5029907 .42485047 .3889923 .38381959 .3880005 .38381959 .3869934 .38381959 .38598634 .38381959 .3769989 .38882447L.23298645 .46287538M.2889862 .31376649 .44400025 .23469544C.47999574 .21568299 .5309906 .18865967 .5309906 .1346283 .5309906 .05355835 .42999269 .01852417 .34098817 .01852417 .25 .01852417 .14898682 .063568118 .14898682 .15463257 .14898682 .2537079 .25698854 .29974366 .2889862 .31376649Z"/>
<path id="font_3_5" d="M.18598938 .32769776C.18699646 .37371827 .18798828 .4528656 .22399903 .51808169 .25299073 .5720825 .31799317 .628006 .41099549 .628006 .42999269 .628006 .47499085 .6260071 .5049896 .6020813 .4889984 .5980835 .46299745 .5830841 .46299745 .5490875 .46299745 .51708987 .4869995 .49609376 .5159912 .49609376 .5329895 .49609376 .56900027 .5050812 .56900027 .5520935 .56900027 .6060791 .5309906 .6660156 .4099884 .6660156 .23799134 .6660156 .07998657 .52508547 .07998657 .317688 .07998657 .078567508 .19699097-.022460938 .34298707-.022460938 .44198609-.022460938 .4889984 .014526367 .522995 .042541505 .58699038 .095565799 .59999087 .15460205 .59999087 .20463562 .59999087 .26565553 .5799866 .314682 .5279999 .36071778 .48399354 .40072633 .43798829 .42773438 .35099793 .42773438 .29299928 .42773438 .22799683 .39971925 .18598938 .32769776M.34298707 .01852417C.18899536 .01852417 .18899536 .18461609 .18899536 .2266388 .18899536 .30368043 .24398804 .39372254 .34899903 .39372254 .3999939 .39372254 .43199159 .38072206 .46299745 .34069825 .49299623 .30368043 .49398805 .2616577 .49398805 .20562744 .49398805 .14759827 .49398805 .109573367 .46199037 .06956482 .43399049 .0365448 .39898683 .01852417 .34298707 .01852417Z"/>
<path id="font_3_4" d="M.61698916 .1630249V.20703125H.49198915V.64675906C.49198915 .67074587 .4909973 .6767578 .46499635 .6767578 .44499208 .6767578 .44400025 .67575076 .43299867 .66174319L.06298828 .20703125V.1630249H.3959961V.085006717C.3959961 .054000856 .3959961 .04399109 .30899049 .04399109H.27398683V0C.32099916 .0019989014 .38598634 .0039978029 .44400025 .0039978029 .5019989 .0039978029 .56599429 .0019989014 .6139984 0V.04399109H.57899478C.49198915 .04399109 .49198915 .054000856 .49198915 .085006717V.1630249H.61698916M.4039917 .5688019V.20703125H.10998535L.4039917 .5688019Z"/>
<path id="font_3_3" d="M.58898928 .19296265H.5469971C.5439911 .17396546 .5339966 .11198425 .5179901 .101989749 .5099945 .09599304 .42599488 .09599304 .41099549 .09599304H.21499634C.2809906 .14497376 .35499574 .20095825 .4149933 .24093628 .5049896 .30291749 .58898928 .36090089 .58898928 .46687318 .58898928 .59495547 .46798707 .6660156 .32499696 .6660156 .18998719 .6660156 .09098816 .58795168 .09098816 .48986817 .09098816 .4378662 .1349945 .42886354 .14898682 .42886354 .17599488 .42886354 .20799256 .4468689 .20799256 .48786927 .20799256 .52386477 .18199158 .543869 .15098572 .546875 .1789856 .59194949 .23699951 .6220093 .3039856 .6220093 .40098573 .6220093 .48199464 .5639038 .48199464 .4658661 .48199464 .3818817 .42399598 .31791688 .34700013 .2529297L.102996829 .04598999C.09298706 .036987306 .09199524 .036987306 .09098816 .02999878V0H.55599978L.58898928 .19296265Z"/>
</defs>
<path transform="matrix(1,0,0,-1,134.148,104.665988)" stroke-width=".3985" stroke-linecap="butt" stroke-miterlimit="10" stroke-linejoin="miter" fill="none" stroke="#000000" d="M-130.96167 0H182.54439"/>
<path transform="matrix(1,0,0,-1,316.69239,104.665988)" d="M1.99252 0-1.19551 1.59401 0 0-1.19551-1.59401"/>
<use data-text="x" xlink:href="#font_1_1" transform="matrix(9.96264,0,0,-9.96264,322.202,112.474979)"/>
<path transform="matrix(1,0,0,-1,134.148,104.665988)" stroke-width=".3985" stroke-linecap="butt" stroke-miterlimit="10" stroke-linejoin="miter" fill="none" stroke="#000000" d="M0-273.82899V93.25233"/>
<path transform="matrix(0,-1,-1,-0,134.148,11.413658)" d="M1.99252 0-1.19551 1.59401 0 0-1.19551-1.59401"/>
<use data-text="y" xlink:href="#font_1_2" transform="matrix(9.96264,0,0,-9.96264,125.385997,10.5989689)"/>
<path transform="matrix(1,0,0,-1,134.148,104.665988)" stroke-width=".3985" stroke-linecap="butt" stroke-miterlimit="10" stroke-linejoin="miter" fill="none" stroke="#cccccc" d="M-119.05606-267.87617V89.29205"/>
<use data-text="&#x2212;" xlink:href="#font_2_1" transform="matrix(4.98132,0,0,-4.98132,9.004997,113.88797)"/>
<use data-text="1" xlink:href="#font_3_2" transform="matrix(4.98132,0,0,-4.98132,14.401998,113.88797)"/>
<use data-text="0" xlink:href="#font_3_1" transform="matrix(4.98132,0,0,-4.98132,17.794278,113.88797)"/>
<path transform="matrix(1,0,0,-1,134.148,104.665988)" stroke-width=".3985" stroke-linecap="butt" stroke-miterlimit="10" stroke-linejoin="miter" fill="none" stroke="#cccccc" d="M-95.24486-267.87617V89.29205"/>
<use data-text="&#x2212;" xlink:href="#font_2_1" transform="matrix(4.98132,0,0,-4.98132,34.510995,113.88797)"/>
<use data-text="8" xlink:href="#font_3_6" transform="matrix(4.98132,0,0,-4.98132,39.907995,113.88797)"/>
<path transform="matrix(1,0,0,-1,134.148,104.665988)" stroke-width=".3985" stroke-linecap="butt" stroke-miterlimit="10" stroke-linejoin="miter" fill="none" stroke="#cccccc" d="M-71.43364-267.87617V89.29205"/>
<use data-text="&#x2212;" xlink:href="#font_2_1" transform="matrix(4.98132,0,0,-4.98132,58.322,113.88797)"/>
<use data-text="6" xlink:href="#font_3_5" transform="matrix(4.98132,0,0,-4.98132,63.718,113.88797)"/>
<path transform="matrix(1,0,0,-1,134.148,104.665988)" stroke-width=".3985" stroke-linecap="butt" stroke-miterlimit="10" stroke-linejoin="miter" fill="none" stroke="#cccccc" d="M-47.62242-267.87617V89.29205"/>
<use data-text="&#x2212;" xlink:href="#font_2_1" transform="matrix(4.98132,0,0,-4.98132,82.132999,113.88797)"/>
<use data-text="4" xlink:href="#font_3_4" transform="matrix(4.98132,0,0,-4.98132,87.52899,113.88797)"/>
<path transform="matrix(1,0,0,-1,134.148,104.665988)" stroke-width=".3985" stroke-linecap="butt" stroke-miterlimit="10" stroke-linejoin="miter" fill="none" stroke="#cccccc" d="M-23.8112-267.87617V89.29205"/>
<use data-text="&#x2212;" xlink:href="#font_2_1" transform="matrix(4.98132,0,0,-4.98132,105.94399,113.88797)"/>
<use data-text="2" xlink:href="#font_3_3" transform="matrix(4.98132,0,0,-4.98132,111.33999,113.88797)"/>
<path transform="matrix(1,0,0,-1,134.148,104.665988)" stroke-width=".3985" stroke-linecap="butt" stroke-miterlimit="10" stroke-linejoin="miter" fill="none" stroke="#cccccc" d="M23.8112-267.87617V89.29205"/>
<use data-text="2" xlink:href="#font_3_3" transform="matrix(4.98132,0,0,-4.98132,156.26399,113.77698)"/>
<path transform="matrix(1,0,0,-1,134.148,104.665988)" stroke-width=".3985" stroke-linecap="butt" stroke-miterlimit="10" stroke-linejoin="miter" fill="none" stroke="#cccccc" d="M47.62242-267.87617V89.29205"/>
<use data-text="4" xlink:href="#font_3_4" transform="matrix(4.98132,0,0,-4.98132,180.075,113.77698)"/>
<path transform="matrix(1,0,0,-1,134.148,104.665988)" stroke-width=".3985" stroke-linecap="butt" stroke-miterlimit="10" stroke-linejoin="miter" fill="none" stroke="#cccccc" d="M71.43364-267.87617V89.29205"/>
<use data-text="6" xlink:href="#font_3_5" transform="matrix(4.98132,0,0,-4.98132,203.88599,113.77698)"/>
<path transform="matrix(1,0,0,-1,134.148,104.665988)" stroke-width=".3985" stroke-linecap="butt" stroke-miterlimit="10" stroke-linejoin="miter" fill="none" stroke="#cccccc" d="M95.24486-267.87617V89.29205"/>
<use data-text="8" xlink:href="#font_3_6" transform="matrix(4.98132,0,0,-4.98132,227.69699,113.77698)"/>
<path transform="matrix(1,0,0,-1,134.148,104.665988)" stroke-width=".3985" stroke-linecap="butt" stroke-miterlimit="10" stroke-linejoin="miter" fill="none" stroke="#cccccc" d="M119.05606-267.87617V89.29205"/>
<use data-text="1" xlink:href="#font_3_2" transform="matrix(4.98132,0,0,-4.98132,249.812,113.77698)"/>
<use data-text="0" xlink:href="#font_3_1" transform="matrix(4.98132,0,0,-4.98132,253.20427,113.77698)"/>
<path transform="matrix(1,0,0,-1,134.148,104.665988)" stroke-width=".3985" stroke-linecap="butt" stroke-miterlimit="10" stroke-linejoin="miter" fill="none" stroke="#cccccc" d="M142.8673-267.87617V89.29205"/>
<use data-text="1" xlink:href="#font_3_2" transform="matrix(4.98132,0,0,-4.98132,273.623,113.77698)"/>
<use data-text="2" xlink:href="#font_3_3" transform="matrix(4.98132,0,0,-4.98132,277.01527,113.77698)"/>
<path transform="matrix(1,0,0,-1,134.148,104.665988)" stroke-width=".3985" stroke-linecap="butt" stroke-miterlimit="10" stroke-linejoin="miter" fill="none" stroke="#cccccc" d="M166.6785-267.87617V89.29205"/>
<use data-text="1" xlink:href="#font_3_2" transform="matrix(4.98132,0,0,-4.98132,297.434,113.77698)"/>
<use data-text="4" xlink:href="#font_3_4" transform="matrix(4.98132,0,0,-4.98132,300.82627,113.77698)"/>
<path transform="matrix(1,0,0,-1,134.148,104.665988)" stroke-width=".3985" stroke-linecap="butt" stroke-miterlimit="10" stroke-linejoin="miter" fill="none" stroke="#cccccc" d="M-125.00887-261.92338H178.5841"/>
<use data-text="&#x2212;" xlink:href="#font_2_1" transform="matrix(4.98132,0,0,-4.98132,116.06999,367.831)"/>
<use data-text="2" xlink:href="#font_3_3" transform="matrix(4.98132,0,0,-4.98132,121.466999,367.831)"/>
<use data-text="2" xlink:href="#font_3_3" transform="matrix(4.98132,0,0,-4.98132,124.859279,367.831)"/>
<path transform="matrix(1,0,0,-1,134.148,104.665988)" stroke-width=".3985" stroke-linecap="butt" stroke-miterlimit="10" stroke-linejoin="miter" fill="none" stroke="#cccccc" d="M-125.00887-238.11215H178.5841"/>
<use data-text="&#x2212;" xlink:href="#font_2_1" transform="matrix(4.98132,0,0,-4.98132,116.06999,344.021)"/>
<use data-text="2" xlink:href="#font_3_3" transform="matrix(4.98132,0,0,-4.98132,121.466999,344.021)"/>
<use data-text="0" xlink:href="#font_3_1" transform="matrix(4.98132,0,0,-4.98132,124.859279,344.021)"/>
<path transform="matrix(1,0,0,-1,134.148,104.665988)" stroke-width=".3985" stroke-linecap="butt" stroke-miterlimit="10" stroke-linejoin="miter" fill="none" stroke="#cccccc" d="M-125.00887-214.30094H178.5841"/>
<use data-text="&#x2212;" xlink:href="#font_2_1" transform="matrix(4.98132,0,0,-4.98132,116.06999,320.21)"/>
<use data-text="1" xlink:href="#font_3_2" transform="matrix(4.98132,0,0,-4.98132,121.466999,320.21)"/>
<use data-text="8" xlink:href="#font_3_6" transform="matrix(4.98132,0,0,-4.98132,124.859279,320.21)"/>
<path transform="matrix(1,0,0,-1,134.148,104.665988)" stroke-width=".3985" stroke-linecap="butt" stroke-miterlimit="10" stroke-linejoin="miter" fill="none" stroke="#cccccc" d="M-125.00887-190.48972H178.5841"/>
<use data-text="&#x2212;" xlink:href="#font_2_1" transform="matrix(4.98132,0,0,-4.98132,116.06999,296.399)"/>
<use data-text="1" xlink:href="#font_3_2" transform="matrix(4.98132,0,0,-4.98132,121.466999,296.399)"/>
<use data-text="6" xlink:href="#font_3_5" transform="matrix(4.98132,0,0,-4.98132,124.859279,296.399)"/>
<path transform="matrix(1,0,0,-1,134.148,104.665988)" stroke-width=".3985" stroke-linecap="butt" stroke-miterlimit="10" stroke-linejoin="miter" fill="none" stroke="#cccccc" d="M-125.00887-166.6785H178.5841"/>
<use data-text="&#x2212;" xlink:href="#font_2_1" transform="matrix(4.98132,0,0,-4.98132,116.06999,272.58796)"/>
<use data-text="1" xlink:href="#font_3_2" transform="matrix(4.98132,0,0,-4.98132,121.466999,272.58796)"/>
<use data-text="4" xlink:href="#font_3_4" transform="matrix(4.98132,0,0,-4.98132,124.859279,272.58796)"/>
<path transform="matrix(1,0,0,-1,134.148,104.665988)" stroke-width=".3985" stroke-linecap="butt" stroke-miterlimit="10" stroke-linejoin="miter" fill="none" stroke="#cccccc" d="M-125.00887-142.8673H178.5841"/>
<use data-text="&#x2212;" xlink:href="#font_2_1" transform="matrix(4.98132,0,0,-4.98132,116.06999,248.77696)"/>
<use data-text="1" xlink:href="#font_3_2" transform="matrix(4.98132,0,0,-4.98132,121.466999,248.77696)"/>
<use data-text="2" xlink:href="#font_3_3" transform="matrix(4.98132,0,0,-4.98132,124.859279,248.77696)"/>
<path transform="matrix(1,0,0,-1,134.148,104.665988)" stroke-width=".3985" stroke-linecap="butt" stroke-miterlimit="10" stroke-linejoin="miter" fill="none" stroke="#cccccc" d="M-125.00887-119.05606H178.5841"/>
<use data-text="&#x2212;" xlink:href="#font_2_1" transform="matrix(4.98132,0,0,-4.98132,116.06999,224.96598)"/>
<use data-text="1" xlink:href="#font_3_2" transform="matrix(4.98132,0,0,-4.98132,121.466999,224.96598)"/>
<use data-text="0" xlink:href="#font_3_1" transform="matrix(4.98132,0,0,-4.98132,124.859279,224.96598)"/>
<path transform="matrix(1,0,0,-1,134.148,104.665988)" stroke-width=".3985" stroke-linecap="butt" stroke-miterlimit="10" stroke-linejoin="miter" fill="none" stroke="#cccccc" d="M-125.00887-95.24486H178.5841"/>
<use data-text="&#x2212;" xlink:href="#font_2_1" transform="matrix(4.98132,0,0,-4.98132,119.461,201.15497)"/>
<use data-text="8" xlink:href="#font_3_6" transform="matrix(4.98132,0,0,-4.98132,124.857,201.15497)"/>
<path transform="matrix(1,0,0,-1,134.148,104.665988)" stroke-width=".3985" stroke-linecap="butt" stroke-miterlimit="10" stroke-linejoin="miter" fill="none" stroke="#cccccc" d="M-125.00887-71.43364H178.5841"/>
<use data-text="&#x2212;" xlink:href="#font_2_1" transform="matrix(4.98132,0,0,-4.98132,119.461,177.344)"/>
<use data-text="6" xlink:href="#font_3_5" transform="matrix(4.98132,0,0,-4.98132,124.857,177.344)"/>
<path transform="matrix(1,0,0,-1,134.148,104.665988)" stroke-width=".3985" stroke-linecap="butt" stroke-miterlimit="10" stroke-linejoin="miter" fill="none" stroke="#cccccc" d="M-125.00887-47.62242H178.5841"/>
<use data-text="&#x2212;" xlink:href="#font_2_1" transform="matrix(4.98132,0,0,-4.98132,119.461,153.53299)"/>
<use data-text="4" xlink:href="#font_3_4" transform="matrix(4.98132,0,0,-4.98132,124.857,153.53299)"/>
<path transform="matrix(1,0,0,-1,134.148,104.665988)" stroke-width=".3985" stroke-linecap="butt" stroke-miterlimit="10" stroke-linejoin="miter" fill="none" stroke="#cccccc" d="M-125.00887-23.8112H178.5841"/>
<use data-text="&#x2212;" xlink:href="#font_2_1" transform="matrix(4.98132,0,0,-4.98132,119.461,129.72199)"/>
<use data-text="2" xlink:href="#font_3_3" transform="matrix(4.98132,0,0,-4.98132,124.857,129.72199)"/>
<path transform="matrix(1,0,0,-1,134.148,104.665988)" stroke-width=".3985" stroke-linecap="butt" stroke-miterlimit="10" stroke-linejoin="miter" fill="none" stroke="#cccccc" d="M-125.00887 23.8112H178.5841"/>
<use data-text="2" xlink:href="#font_3_3" transform="matrix(4.98132,0,0,-4.98132,124.856998,82.45999)"/>
<path transform="matrix(1,0,0,-1,134.148,104.665988)" stroke-width=".3985" stroke-linecap="butt" stroke-miterlimit="10" stroke-linejoin="miter" fill="none" stroke="#cccccc" d="M-125.00887 47.62242H178.5841"/>
<use data-text="4" xlink:href="#font_3_4" transform="matrix(4.98132,0,0,-4.98132,124.856998,58.648988)"/>
<path transform="matrix(1,0,0,-1,134.148,104.665988)" stroke-width=".3985" stroke-linecap="butt" stroke-miterlimit="10" stroke-linejoin="miter" fill="none" stroke="#cccccc" d="M-125.00887 71.43364H178.5841"/>
<use data-text="6" xlink:href="#font_3_5" transform="matrix(4.98132,0,0,-4.98132,124.856998,34.837984)"/>
<path transform="matrix(1,0,0,-1,134.148,104.665988)" stroke-width=".3985" stroke-linecap="butt" stroke-dasharray="2.98883,2.98883" stroke-miterlimit="10" stroke-linejoin="miter" fill="none" stroke="#7f807f" d="M-130.96167-226.20655 184.53691 89.29205"/>
<path transform="matrix(1,0,0,-1,134.148,104.665988)" stroke-width=".79701" stroke-linecap="butt" stroke-miterlimit="10" stroke-linejoin="miter" fill="none" stroke="#009900" d="M26.7876-4.9609C26.7876-4.9609 27.63681-6.06938 27.96298-6.45364 28.28914-6.83789 28.81218-7.40211 29.13835-7.73038 29.46451-8.05865 29.98756-8.541 30.31372-8.81964 30.63988-9.09828 31.16293-9.50461 31.48909-9.73868 31.81526-9.97276 32.3383-10.31229 32.66447-10.50676 32.99063-10.70126 33.51369-10.9814 33.83984-11.14041 34.166-11.29944 34.68906-11.526 35.01521-11.65291 35.34137-11.77979 35.86443-11.95723 36.19058-12.0551 36.51675-12.15297 37.03981-12.28671 37.36597-12.3583 37.69212-12.42987 38.21518-12.52339 38.54134-12.57103 38.8675-12.61867 39.39055-12.67577 39.7167-12.70164 40.04288-12.72752 40.56592-12.75172 40.89209-12.7576 41.21825-12.76347 41.7413-12.75642 42.06746-12.74397 42.39363-12.73152 42.91667-12.6971 43.24283-12.66786 43.569-12.63861 44.09204-12.57803 44.4182-12.53325 44.74437-12.48845 45.26741-12.40414 45.59358-12.34503 45.91974-12.28595 46.4428-12.17964 46.76895-12.10724 47.09511-12.03485 47.61816-11.90797 47.94432-11.82329 48.27048-11.73862 48.79353-11.59293 49.1197-11.49684 49.44586-11.40076 49.96892-11.2375 50.29507-11.13078 50.62123-11.02408 51.14429-10.84433 51.47046-10.72768 51.79662-10.61102 52.31966-10.41592 52.64583-10.29004 52.97198-10.16415 53.49503-9.95496 53.8212-9.82043 54.14735-9.68591 54.67041-9.46313 54.99657-9.3205 55.32272-9.17786 55.84578-8.94266 56.17194-8.79239 56.4981-8.64212 57.02115-8.39485 57.3473-8.23741 57.67348-8.07999 58.19652-7.82182 58.52269-7.65771 58.84885-7.4936 59.3719-7.22499 59.69806-7.0546 60.02422-6.88417 60.54729-6.60587 60.87344-6.42947 61.1996-6.25308 61.72266-5.9653 62.04881-5.7833 62.37497-5.60129 62.89803-5.30496 63.22418-5.11768 63.55034-4.93037 64.0734-4.62572 64.39955-4.43333 64.72571-4.24097 65.24876-3.9283 65.57492-3.7312 65.90111-3.53409 66.42413-3.21434 66.7503-3.01273 67.07648-2.8111 67.59952-2.48396 67.92567-2.27808 68.25185-2.07216 68.77489-1.73862 69.10104-1.52869 69.42722-1.31879 69.95027-.97894 70.27643-.76515 70.60258-.55136 71.12564-.20529 71.4518 .01216 71.77795 .22963 72.30101 .58127 72.62717 .80222 72.95332 1.02316 73.47638 1.38034 73.80254 1.60464 74.12871 1.82892 74.65175 2.19122 74.97794 2.41867 75.3041 2.64612 75.82713 3.01349 76.1533 3.24397 76.47946 3.47446 77.0025 3.84645 77.32867 4.07982 77.65483 4.31317 78.17787 4.68971 78.50404 4.92583 78.8302 5.16196 79.35326 5.5429 79.67941 5.78166 80.00557 6.02043 80.52863 6.40549 80.85478 6.64674 81.18094 6.88802 81.704 7.27686 82.03015 7.52055 82.35631 7.76425 82.87936 8.15706 83.20552 8.40308 83.5317 8.64911 84.05475 9.04556 84.38092 9.29378 84.70708 9.54202 85.23013 9.94179 85.55629 10.19212 85.88245 10.44246 86.4055 10.84567 86.73166 11.09808 87.05782 11.3505 87.58087 11.75697 87.90703 12.01132 88.23318 12.26566 88.75624 12.67503 89.0824 12.93126 89.40855 13.18752 89.93161 13.60008 90.25777 13.85812 90.58394 14.11618 91.10698 14.5314 91.43314 14.79115 91.75932 15.05092 92.28235 15.46892 92.60852 15.73038 92.9347 15.99184 93.45775 16.41248 93.7839 16.67557 94.11006 16.93866 94.63312 17.36195 94.95927 17.62659 95.28543 17.89122 95.80849 18.31677 96.13464 18.58287 96.4608 18.849 96.98386 19.27702 97.31001 19.54462 97.63617 19.81218 98.15923 20.2425 98.48538 20.51143 98.81155 20.78036 99.3346 21.21269 99.66077 21.48297 99.98694 21.75325 100.50996 22.18784 100.83615 22.45943 101.16231 22.73102 101.68535 23.16756 102.01152 23.44041 102.33768 23.71327 102.86073 24.15189 103.18689 24.42595 103.51305 24.70001 104.0361 25.14044 104.36226 25.41566 104.68842 25.69087 105.21147 26.13322 105.53763 26.40955 105.86378 26.68588 106.38684 27.12982 106.713 27.40726 107.03915 27.6847 107.56221 28.13065 107.88838 28.40915 108.21454 28.68764 108.7376 29.13498 109.06375 29.41449 109.38992 29.69398 109.91298 30.14311 110.23914 30.42363 110.56529 30.70415 111.08835 31.15475 111.4145 31.43623 111.74066 31.7177 112.26372 32.16989 112.58987 32.45229 112.91603 32.73468 113.43909 33.18832 113.76524 33.4716 114.09142 33.7549 114.61446 34.20987 114.94061 34.49402 115.26678 34.77817 115.78983 35.23451 116.11598 35.51952 116.44215 35.80452 116.96521 36.26227 117.29137 36.5481 117.61754 36.83392 118.14058 37.29297 118.46675 37.5796 118.79291 37.86624 119.31596 38.32658 119.64212 38.614 119.96828 38.90141 120.49133 39.36299 120.81749 39.65112 121.14365 39.93929 121.6667 40.40193 121.99286 40.6908 122.31903 40.97968 122.84207 41.4436 123.16823 41.7332 123.4944 42.02278 124.01744 42.48769 124.34361 42.77795 124.66977 43.06822 125.19281 43.53429 125.51898 43.82524 125.84515 44.1162 126.3682 44.58331 126.69437 44.87491 127.02052 45.16652 127.54358 45.6347 127.86974 45.92693 128.19589 46.21916 128.71895 46.6883 129.0451 46.98112 129.37126 47.27399 129.89432 47.74408 130.22048 48.03752 130.54663 48.33096 131.06969 48.80206 131.39586 49.09608 131.72202 49.39009 132.24506 49.86208 132.57123 50.15665 132.89739 50.45122 133.42044 50.92407 133.7466 51.2192 134.07276 51.51433 134.59581 51.98807 134.92198 52.28377 135.24814 52.57944 135.7712 53.05411 136.09735 53.35031 136.42351 53.64655 136.94657 54.12196 137.27272 54.4187 137.59888 54.71541 138.12194 55.19165 138.44809 55.48889 138.77426 55.7861 139.2973 56.26318 139.62346 56.56088 139.94963 56.85858 140.47269 57.33636 140.79885 57.63452 141.125 57.93268 141.64806 58.41116 141.97422 58.70981 142.30037 59.00844 142.82343 59.48781 143.14958 59.7869 143.47576 60.086 143.9988 60.56592 144.32497 60.86545 144.65113 61.16495 145.17418 61.64569 145.50034 61.94562 145.8265 62.24557 146.34955 62.72688 146.6757 63.02725 147.00188 63.32764 147.52492 63.80975 147.85108 64.11052 148.17725 64.4113 148.70029 64.89389 149.02646 65.19507 149.35262 65.49625 149.87567 65.97966 150.20183 66.28123 150.52799 66.58284 151.05104 67.06676 151.3772 67.36868 151.70337 67.67062 152.22641 68.1551 152.55258 68.4574 152.87874 68.75972 153.4018 69.2449 153.72795 69.54758 154.05411 69.85027 154.57717 70.33598 154.90334 70.63902 155.22949 70.94206 155.75254 71.42838 156.0787 71.73175 156.40486 72.03511 156.9279 72.52182 157.25408 72.82555 157.58023 73.12927 158.10329 73.61676 158.42945 73.9208 158.7556 74.22485 159.27866 74.71262 159.60482 75.01698 159.93099 75.32133 160.45403 75.80971 160.7802 76.11441 161.10636 76.41913 161.62941 76.90813 161.95557 77.21312 162.28173 77.51813 162.80478 78.00745 163.13094 78.31276 163.4571 78.61806 163.98017 79.10802 164.30632 79.41364 164.63248 79.71924 165.15554 80.20953 165.48169 80.51543 165.80785 80.82132 166.65706 81.61832 166.65706 81.61832"/>
<path transform="matrix(1,0,0,-1,134.148,104.665988)" stroke-width=".79701" stroke-linecap="butt" stroke-miterlimit="10" stroke-linejoin="miter" fill="none" stroke="#009900" d="M-109.53154-220.30551C-109.53154-220.30551-108.90637-219.76929-108.66628-219.56377-108.42616-219.35825-108.0411-219.02916-107.80101-218.8242-107.5609-218.61927-107.17583-218.29103-106.93573-218.08664-106.69562-217.88227-106.31056-217.5549-106.07047-217.35109-105.83034-217.14728-105.4453-216.82089-105.2052-216.6177-104.96507-216.4145-104.58003-216.08911-104.3399-215.8865-104.09981-215.6839-103.71475-215.35945-103.47464-215.15749-103.23454-214.9555-102.84947-214.63214-102.60936-214.43082-102.36926-214.2295-101.9842-213.90715-101.7441-213.70652-101.504-213.50588-101.11893-213.18473-100.87883-212.98476-100.63872-212.7848-100.25366-212.46465-100.01357-212.26537-99.77345-212.0661-99.3884-211.74709-99.14828-211.54853-98.90819-211.34995-98.52312-211.03205-98.28302-210.83422-98.04291-210.63637-97.65785-210.31969-97.41776-210.12264-97.17764-209.92557-96.79259-209.61025-96.55247-209.41396-96.31236-209.21765-95.9273-208.90334-95.68721-208.70781-95.44708-208.5123-95.06204-208.19944-94.82193-208.00478-94.58182-207.8101-94.19678-207.49866-93.95665-207.30483-93.71655-207.11101-93.33151-206.80075-93.09138-206.60778-92.85129-206.4148-92.46622-206.1061-92.2261-205.914-91.98601-205.72191-91.60095-205.41448-91.36084-205.2233-91.12074-205.03212-90.73567-204.72629-90.49557-204.53606-90.25546-204.34584-89.8704-204.04154-89.63031-203.85228-89.3902-203.66301-89.00514-203.3602-88.76503-203.17194-88.52493-202.98368-88.13986-202.68267-87.89977-202.49542-87.65965-202.30818-87.2746-202.00855-87.0345-201.82236-86.79439-201.63616-86.40933-201.33855-86.16922-201.15348-85.92911-200.96839-85.54405-200.67235-85.30396-200.48839-85.06384-200.30442-84.67879-200.0103-84.43867-199.82749-84.19856-199.64467-83.81352-199.3524-83.5734-199.17076-83.3333-198.98914-82.94824-198.6988-82.70813-198.5184-82.46803-198.33802-82.08296-198.04973-81.84286-197.87059-81.60275-197.69147-81.2177-197.40514-80.97758-197.22731-80.73749-197.0495-80.35242-196.7654-80.11232-196.58895-79.87221-196.41248-79.48715-196.13056-79.24706-195.95548-79.00694-195.7804-78.62189-195.5007-78.38179-195.3271-78.14168-195.15348-77.7566-194.8763-77.51651-194.70417-77.27641-194.53203-76.89134-194.2571-76.65125-194.08649-76.41113-193.91591-76.02608-193.64366-75.78596-193.47466-75.54585-193.30567-75.16081-193.03578-74.9207-192.86844-74.68059-192.70111-74.29553-192.4342-74.05542-192.26859-73.8153-192.10295-73.43027-191.83858-73.19014-191.67472-72.95004-191.51085-72.56499-191.24959-72.32487-191.08757-72.08478-190.92555-71.6997-190.66712-71.45961-190.50698-71.2195-190.34683-70.83444-190.0916-70.59433-189.93346-70.35423-189.77532-69.96916-189.5233-69.72906-189.3672-69.48895-189.2111-69.1039-188.96237-68.8638-188.8084-68.62369-188.65444-68.23863-188.40918-67.99854-188.25742-67.75842-188.10565-67.37335-187.86406-67.13326-187.7146-66.89316-187.56513-66.50809-187.32724-66.26799-187.18013-66.02786-187.03304-65.64282-186.799-65.40271-186.6544-65.1626-186.5098-64.77756-186.27993-64.53745-186.13793-64.29733-185.99593-63.91228-185.77025-63.67216-185.63089-63.43205-185.49153-63.04701-185.27007-62.80688-185.1335-62.56679-184.99695-62.18173-184.78028-61.94162-184.64662-61.70152-184.51299-61.31645-184.30092-61.07635-184.1703-60.83624-184.03969-60.45119-183.83269-60.21109-183.70525-59.97098-183.5778-59.5859-183.37592-59.34581-183.25182-59.10571-183.1277-58.72064-182.93137-58.48055-182.81073-58.24043-182.69008-57.85538-182.49922-57.61528-182.38219-57.37517-182.26514-56.99011-182.08036-56.75-181.96707-56.5099-181.85379-56.12483-181.67508-55.88474-181.56578-55.64462-181.45647-55.25957-181.28435-55.01945-181.1792-54.77934-181.07404-54.3943-180.90868-54.15417-180.80788-53.91408-180.70708-53.52902-180.54897-53.28891-180.4527-53.0488-180.35645-52.66376-180.20557-52.42365-180.11409-52.18353-180.02263-51.79848-179.87985-51.55836-179.79344-51.31827-179.70705-50.9332-179.57248-50.6931-179.49135-50.45299-179.41022-50.06793-179.28424-49.82784-179.20867-49.58772-179.13312-49.20267-179.01639-48.96255-178.9467-48.72246-178.87702-48.33739-178.76988-48.09729-178.70636-47.85718-178.64286-47.47212-178.54589-47.23203-178.4889-46.99191-178.43192-46.60686-178.34572-46.36674-178.29563-46.12665-178.24555-45.7416-178.17072-45.50148-178.12795-45.26137-178.08518-44.87631-178.02237-44.6362-177.98734-44.39609-177.9523-44.01105-177.90227-43.77092-177.87543-43.53082-177.84859-43.14577-177.81203-42.90565-177.79387-42.66554-177.77568-42.2805-177.7534-42.04039-177.74445-41.80028-177.7355-41.41522-177.72849-41.17511-177.72936-40.93501-177.73024-40.54994-177.73944-40.30984-177.75081-40.06973-177.76216-39.68468-177.7888-39.44458-177.8113-39.20447-177.83382-38.81941-177.87863-38.5793-177.91303-38.3392-177.94744-37.95413-178.01209-37.71404-178.05928-37.47394-178.10646-37.08887-178.19225-36.84877-178.25312-36.60866-178.31398-36.2236-178.42252-35.98349-178.49799-35.7434-178.57349-35.35834-178.70598-35.11823-178.7972-34.87811-178.88843-34.49306-179.04724-34.25296-179.15544-34.01283-179.26364-33.62779-179.45059-33.38766-179.57709-33.14757-179.70359-32.76251-179.92095-32.5224-180.06723-32.28229-180.21352-31.89723-180.46376-31.65714-180.63147-31.41702-180.7992-31.03197-181.08507-30.79187-181.27602-30.55176-181.46698-30.16669-181.79146-29.92659-182.00777-29.6865-182.22409-29.30142-182.59116-29.06133-182.83507-28.82121-183.07898-28.43616-183.49169-28.19604-183.76573-27.95595-184.0398-27.57089-184.50313-27.33078-184.8103-27.09068-185.1175-26.70561-185.63613-26.46552-185.97969-26.2254-186.32328-25.84035-186.90282-25.60023-187.28659-25.36014-187.67038-24.97508-188.31746-24.73497-188.74573-24.49486-189.174-24.1098-189.89562-23.8697-190.37326-23.62958-190.8509-23.24454-191.65557-23.00441-192.18828-22.76431-192.72101-22.37926-193.61837-22.13914-194.21276-21.89903-194.80716-21.51398-195.80852-21.27388-196.4723-21.03377-197.13611-20.64871-198.25472-20.40862-198.99692-20.1685-199.7391-19.78343-200.99037-19.54333-201.82163-19.30324-202.65288-18.91817-204.05496-18.67807-204.98804-18.43796-205.92113-18.0529-207.4966-17.81279-208.54669-17.5727-209.59679-17.18764-211.3709-16.94753-212.5564-16.70743-213.74192-16.32236-215.74744-16.08226-217.09095-15.84216-218.43445-15.45709-220.71012-15.21698-222.23952-14.97687-223.76892-14.59183-226.3638-14.35172-228.11385-14.1116-229.86388-13.72655-232.83794-13.48645-234.85253-13.24632-236.86713-12.86128-240.29778-12.62117-242.63362-12.38106-244.96945-11.996-248.95648-11.75589-251.68762-11.5158-254.41875-11.13072-259.09257-10.89063-262.31776-10.65051-265.54295-10.26546-271.0788-10.02536-274.9326-9.78525-278.78639-9.40019-285.42225-9.16008-290.09327-8.91998-294.76429-8.53491-302.8371-8.29482-308.59806-8.05472-314.35899-7.66965-324.35328-7.42953-331.6141-7.18944-338.87498-6.56427-360.92924-6.56427-360.92924"/>
<path transform="matrix(1,0,0,-1,134.148,104.665988)" d="M27.14473 23.8112C27.14473 25.65228 25.65228 27.14473 23.8112 27.14473 21.97012 27.14473 20.47766 25.65228 20.47766 23.8112 20.47766 21.97012 21.97012 20.47766 23.8112 20.47766 25.65228 20.47766 27.14473 21.97012 27.14473 23.8112ZM23.8112 23.8112" fill="#ffffff"/>
<path transform="matrix(1,0,0,-1,134.148,104.665988)" stroke-width=".79701" stroke-linecap="butt" stroke-miterlimit="10" stroke-linejoin="miter" fill="none" stroke="#009900" d="M27.14473 23.8112C27.14473 25.65228 25.65228 27.14473 23.8112 27.14473 21.97012 27.14473 20.47766 25.65228 20.47766 23.8112 20.47766 21.97012 21.97012 20.47766 23.8112 20.47766 25.65228 20.47766 27.14473 21.97012 27.14473 23.8112ZM23.8112 23.8112"/>
</svg>
