<svg xmlns="http://www.w3.org/2000/svg" xmlns:xlink="http://www.w3.org/1999/xlink" xmlns:inkscape="http://www.inkscape.org/namespaces/inkscape" version="1.1" width="116.631" height="130.177" viewBox="0 0 116.631 130.177">
<defs>
<path id="font_1_1" d="M.7579956 .4328766C.7579956 .5910034 .6519928 .7050781 .49499513 .7050781 .2709961 .7050781 .049987794 .47491456 .049987794 .24671936 .049987794 .082595828 .16299439-.022460938 .31399537-.022460938 .5369873-.022460938 .7579956 .2006836 .7579956 .4328766M.32099916 .007537842C.22499085 .007537842 .1459961 .080596927 .1459961 .2217102 .1459961 .27374269 .16299439 .42185975 .24598694 .53596499 .31799317 .6340332 .4139862 .677063 .48799134 .677063 .58599856 .677063 .6669922 .60601809 .6669922 .4709015 .6669922 .40585328 .6409912 .2597351 .5569916 .14663697 .48199464 .046569826 .3899994 .007537842 .32099916 .007537842Z"/>
<path id="font_1_3" d="M.6459961 .5646057C.68699648 .6286011 .7220001 .6476135 .7679901 .6516113 .7799988 .65260317 .78900149 .6536102 .78900149 .6696167 .78900149 .6776123 .7829895 .6826172 .776001 .6826172 .7719879 .6826172 .746994 .6796112 .69400027 .6796112 .6619873 .6796112 .6279907 .6826172 .5970001 .6826172 .58999636 .6826172 .57899478 .680603 .57899478 .6646118 .57899478 .65260317 .58999636 .6516113 .59298709 .6516113 .6029968 .65060427 .6389923 .64860537 .6389923 .61961367 .6389923 .6116028 .6359863 .604599 .6319885 .5966034 .6279907 .5886078 .6259918 .58461 .621994 .5776062L.30899049 .092544559 .23298645 .62161257C.23298645 .63061526 .23999024 .6516113 .3019867 .6516113 .31399537 .6516113 .32598878 .6516113 .32598878 .6696167 .32598878 .680603 .31599427 .6826172 .30999757 .6826172 .2919922 .6826172 .2709961 .680603 .2519989 .680603 .23199463 .680603 .20999146 .6796112 .18899536 .6796112 .17098999 .6796112 .14299011 .6796112 .13398743 .680603 .12599182 .680603 .084991458 .6826172 .07699585 .6826172 .07299805 .6826172 .05899048 .6826172 .05899048 .6646118 .05899048 .6516113 .069992069 .6516113 .08198547 .6516113 .13798523 .6516113 .13899231 .64260867 .14299011 .6175995L.23098755 .0035247803C.23399353-.015472412 .23498535-.022460938 .2519989-.022460938 .2679901-.022460938 .27398683-.014465332 .2809906-.0024719239L.6459961 .5646057Z"/>
<path id="font_1_2" d="M.3809967 .6125946C.3869934 .63760378 .3899994 .6476135 .4079895 .65060427 .4169922 .6516113 .44999696 .6516113 .47099305 .6516113 .5499878 .6516113 .6599884 .6516113 .6599884 .5505829 .6599884 .51356509 .644989 .4385376 .58799746 .39552308 .56399539 .3795166 .5139923 .35351563 .43299867 .35351563H.31599427L.3809967 .6125946M.5359955 .33850099C.6719971 .3735199 .7559967 .44953919 .7559967 .53157046 .7559967 .61860659 .6609955 .6826172 .5279999 .6826172H.23799134C.21998596 .6826172 .20799256 .6826172 .20799256 .6646118 .20799256 .6516113 .21699524 .6516113 .23799134 .6516113 .24198914 .6516113 .2599945 .6516113 .27598573 .6496124 .29299928 .6476135 .2999878 .6456146 .2999878 .6345978 .2999878 .62960818 .29899598 .6255951 .29599 .6145935L.16099549 .075531009C.1519928 .039535524 .1499939 .030532837 .07499695 .030532837 .055999757 .030532837 .04499817 .030532837 .04499817 .012527466 .04499817 .0015258789 .052993776-.00047302247 .05999756-.00047302247 .07598877-.00047302247 .10598755 .0005340576 .12298584 .0015258789 .14399719 .002532959 .1459961 .002532959 .18499756 .002532959 .21699524 .002532959 .21899414 .002532959 .24899292 .0015258789 .2689972 .0005340576 .2939911-.00047302247 .31298829-.00047302247 .31999208-.00047302247 .33299256-.00047302247 .33299256 .017532349 .33299256 .030532837 .32299806 .030532837 .3019867 .030532837 .2979889 .030532837 .27999879 .030532837 .2639923 .03253174 .24198914 .03552246 .24099732 .039535524 .24099732 .04852295 .24099732 .05152893 .24099732 .053527833 .24598694 .0715332L.30999757 .32850648H.43299867C.522995 .32850648 .54599 .27650453 .54599 .23851013 .54599 .2315216 .54599 .22451782 .5399933 .20251465 .5159912 .11051941 .5159912 .10151672 .5159912 .08653259 .5159912-.0034637452 .6009979-.022460938 .6519928-.022460938 .7389984-.022460938 .7749939 .07852173 .7749939 .0945282 .7749939 .10151672 .7689972 .10652161 .7619934 .10652161 .7509918 .10652161 .75 .10151672 .74598696 .089523319 .72898867 .037521364 .69200137 .002532959 .6549988 .002532959 .61698916 .002532959 .61499026 .03253174 .61499026 .061523439 .61499026 .08653259 .621994 .14451599 .6230011 .15151978 .625 .16752625 .6299896 .20751953 .6299896 .22251892 .6299896 .2795105 .59399417 .31851197 .5359955 .33850099Z"/>
<path id="font_1_4" d="M.2869873 .6603241C.29100038 .67433169 .29100038 .67633059 .29100038 .68032839 .29100038 .68933108 .2849884 .69433596 .27598573 .69433596 .2619934 .69433596 .17399597 .6863251 .1539917 .6843262 .14399719 .68333438 .1329956 .6823273 .1329956 .665329 .1329956 .6523285 .14399719 .6523285 .1599884 .6523285 .20698548 .6523285 .20698548 .6453247 .20698548 .6363373 .20698548 .6323395 .20698548 .6303406 .20199585 .6123352L.05899048 .037261964C.054992677 .023254395 .054992677 .021255494 .054992677 .018249512 .054992677 .002243042 .067993167-.0107421879 .085998538-.0107421879 .102996829-.0107421879 .116989139-.00074768069 .12399292 .013244629 .12599182 .018249512 .1349945 .054260255 .13999939 .07527161L.16299439 .16429138C.1659851 .17930603 .17599488 .21731568 .1789856 .23231507L.19099427 .27633668C.19599915 .29934693 .25299073 .41737367 .36099244 .41737367 .4149933 .41737367 .4149933 .36436463 .4149933 .34735108 .4149933 .28633119 .36799623 .16429138 .35699464 .13328552 .34498597 .10227966 .34098817 .0922699 .34098817 .073272708 .34098817 .019256592 .38198854-.0107421879 .4269867-.0107421879 .522995-.0107421879 .56199648 .1322937 .56199648 .14329529 .56199648 .14828491 .5589905 .1552887 .548996 .1552887 .5379944 .1552887 .5369873 .15029907 .5329895 .13728333 .5079956 .052261354 .46598817 .014251709 .42999269 .014251709 .4229889 .014251709 .40499879 .014251709 .40499879 .04626465 .40499879 .0712738 .4149933 .09727478 .4229889 .119277957 .44299317 .17030335 .48298646 .27633668 .48298646 .33235169 .48298646 .42137147 .4169922 .4423828 .3639984 .4423828 .3039856 .4423828 .25299073 .41438294 .21299744 .36535646L.2869873 .6603241Z"/>
</defs>
<path transform="matrix(1,0,0,-1,51.577,112.333)" stroke-width=".79701" stroke-linecap="butt" stroke-miterlimit="10" stroke-linejoin="miter" fill="none" stroke="#2471a3" d="M-48.18991 0C-48.18991-7.98453-26.61488-14.4571 0-14.4571 26.61488-14.4571 48.18991-7.98453 48.18991 0"/>
<path transform="matrix(1,0,0,-1,51.577,112.333)" stroke-width=".79701" stroke-linecap="butt" stroke-dasharray="2.98883,2.98883" stroke-miterlimit="10" stroke-linejoin="miter" fill="none" stroke="#2471a3" d="M-48.18991 0C-48.18991 7.98453-26.61488 14.4571 0 14.4571 26.61488 14.4571 48.18991 7.98453 48.18991 0"/>
<path transform="matrix(1,0,0,-1,51.577,112.333)" stroke-width=".79701" stroke-linecap="butt" stroke-miterlimit="10" stroke-linejoin="miter" fill="none" stroke="#2471a3" d="M-48.18991 0 0 96.37778 48.18991 0"/>
<path transform="matrix(1,0,0,-1,51.577,112.333)" stroke-width=".79701" stroke-linecap="butt" stroke-dasharray="2.98883,2.98883" stroke-miterlimit="10" stroke-linejoin="miter" fill="none" stroke="#1e8449" d="M0 0V96.37778"/>
<path transform="matrix(1,0,0,-1,51.577,112.333)" d="M1.0162 0C1.0162 .56123 .56123 1.0162 0 1.0162-.56123 1.0162-1.0162 .56123-1.0162 0-1.0162-.56123-.56123-1.0162 0-1.0162 .56123-1.0162 1.0162-.56123 1.0162 0ZM1.0162 96.37778C1.0162 96.93903 .56123 97.394 0 97.394-.56123 97.394-1.0162 96.93903-1.0162 96.37778-1.0162 95.81654-.56123 95.36157 0 95.36157 .56123 95.36157 1.0162 95.81654 1.0162 96.37778ZM0 96.37778"/>
<use data-text="O" xlink:href="#font_1_1" transform="matrix(8.96638,0,0,-8.96638,47.942,121.98)"/>
<use data-text="V" xlink:href="#font_1_3" transform="matrix(8.96638,0,0,-8.96638,47.866,12.436005)"/>
<use data-text="R" xlink:href="#font_1_2" transform="matrix(8.96638,0,0,-8.96638,103.285999,121.98)"/>
<use data-text="h" xlink:href="#font_1_4" transform="matrix(8.96638,0,0,-8.96638,55.096,67.257)" fill="#1e8449"/>
</svg>
