<svg xmlns="http://www.w3.org/2000/svg" xmlns:xlink="http://www.w3.org/1999/xlink" xmlns:inkscape="http://www.inkscape.org/namespaces/inkscape" version="1.1" width="270.17" height="156.038" viewBox="0 0 270.17 156.038">
<defs>
<path id="font_1_1" d="M.6589966 .23046875C.6759949 .23046875 .69400027 .23046875 .69400027 .25045777 .69400027 .27046205 .6759949 .27046205 .6589966 .27046205H.117996219C.100997928 .27046205 .08299255 .27046205 .08299255 .25045777 .08299255 .23046875 .100997928 .23046875 .117996219 .23046875H.6589966Z"/>
<path id="font_2_6" d="M.44898988 .20022583C.44898988 .3193512 .36698915 .41944886 .25898744 .41944886 .21099854 .41944886 .16799927 .40345765 .13198853 .36842347V.5637665C.1519928 .5577698 .18499756 .55078127 .21699524 .55078127 .33999635 .55078127 .4099884 .6417694 .4099884 .6547699 .4099884 .6607666 .40699769 .6657715 .3999939 .6657715 .39898683 .6657715 .39698792 .6657715 .3919983 .66278079 .37199403 .6537781 .32299806 .6337738 .2559967 .6337738 .21598816 .6337738 .16999817 .6407776 .12298584 .6617737 .114990238 .66477969 .11299133 .66477969 .11099243 .66477969 .100997928 .66477969 .100997928 .6567688 .100997928 .6407776V.34439088C.100997928 .32637025 .100997928 .31835938 .114990238 .31835938 .12199402 .31835938 .12399292 .32136537 .12799073 .32736207 .13899231 .3433838 .17599488 .39746095 .25698854 .39746095 .30899049 .39746095 .33399964 .35139466 .34199525 .33337403 .35798646 .29632569 .3600006 .25727845 .3600006 .20722962 .3600006 .17222595 .3600006 .11222839 .33599855 .07035828 .31199647 .031463624 .2749939 .0055389406 .22898865 .0055389406 .1559906 .0055389406 .09899902 .058380128 .08198547 .11723328 .084991458 .1162262 .08799744 .115234378 .09899902 .115234378 .13198853 .115234378 .14898682 .14022827 .14898682 .16423035 .14898682 .18823242 .13198853 .21322632 .09899902 .21322632 .084991458 .21322632 .049987794 .20622254 .049987794 .16023255 .049987794 .07434082 .11898804-.022460938 .23098755-.022460938 .34700013-.022460938 .44898988 .073349 .44898988 .20022583Z"/>
<path id="font_2_5" d="M.2939911 .16503906V.07800293C.2939911 .041992189 .2919922 .0309906 .21798706 .0309906H.19699097V0C.23799134 .0029907227 .2899933 .0029907227 .33198548 .0029907227 .37399293 .0029907227 .4269867 .0029907227 .46798707 0V.0309906H.44699098C.37298585 .0309906 .37098695 .041992189 .37098695 .07800293V.16503906H.47099305V.19602967H.37098695V.65075686C.37098695 .67074587 .37098695 .6767578 .35499574 .6767578 .34599305 .6767578 .34298707 .6767578 .33499146 .66474917L.027999878 .19602967V.16503906H.2939911M.2999878 .19602967H.055999757L.2999878 .5688019V.19602967Z"/>
<path id="font_2_4" d="M.2899933 .35191346C.37199403 .37893678 .42999269 .4490509 .42999269 .52809146 .42999269 .6100464 .34199525 .6660156 .24598694 .6660156 .14498902 .6660156 .068984989 .60606387 .068984989 .53009036 .068984989 .49710084 .09098816 .47808839 .11999512 .47808839 .15098572 .47808839 .17098999 .50009158 .17098999 .5290985 .17098999 .57910159 .12399292 .57910159 .10899353 .57910159 .13999939 .62802127 .20599365 .64100649 .24198914 .64100649 .2829895 .64100649 .33799745 .6190338 .33799745 .5290985 .33799745 .51708987 .33599855 .45906068 .30999757 .4149933 .27999879 .36691285 .24598694 .36390687 .22099304 .36291505 .21299744 .36190797 .18899536 .35990907 .18199158 .35990907 .17399597 .35890199 .16699219 .35791017 .16699219 .3479004 .16699219 .33691407 .17399597 .33691407 .19099427 .33691407H.23498535C.31698609 .33691407 .35398866 .2686615 .35398866 .17037964 .35398866 .034469606 .2849884 .0055389406 .24099732 .0055389406 .19799805 .0055389406 .12298584 .022491456 .08799744 .08137512 .12298584 .07637024 .1539917 .09837341 .1539917 .1363678 .1539917 .17237854 .1269989 .19238281 .09799194 .19238281 .07398987 .19238281 .041992189 .17837525 .041992189 .1343689 .041992189 .043441774 .1349945-.022460938 .24398804-.022460938 .3659973-.022460938 .45700074 .06838989 .45700074 .17037964 .45700074 .252594 .3939972 .33088685 .2899933 .35191346Z"/>
<path id="font_2_3" d="M.1269989 .07699585 .23298645 .18003845C.3889923 .31811524 .44898988 .3721466 .44898988 .47216798 .44898988 .5860901 .35899354 .6660156 .23699951 .6660156 .12399292 .6660156 .049987794 .57411196 .049987794 .48516847 .049987794 .4291687 .099990848 .4291687 .102996829 .4291687 .11999512 .4291687 .15499878 .44117738 .15499878 .48217774 .15499878 .5081787 .13699341 .5341797 .101989749 .5341797 .09399414 .5341797 .09199524 .5341797 .08898926 .5331726 .11199951 .59806826 .1659851 .63500979 .22399903 .63500979 .31498719 .63500979 .35798646 .5541382 .35798646 .47216798 .35798646 .39215089 .30799867 .31311036 .25299073 .25108338L.06098938 .036987306C.049987794 .025985718 .049987794 .023986817 .049987794 0H.42099L.44898988 .17404175H.42399598C.4189911 .14402771 .4119873 .1000061 .4019928 .084991458 .394989 .07699585 .32899476 .07699585 .30699159 .07699585H.1269989Z"/>
<path id="font_2_2" d="M.2939911 .64004519C.2939911 .66400149 .2939911 .6660156 .2709961 .6660156 .20899964 .60227969 .12098694 .60227969 .08898926 .60227969V.57128909C.10899353 .57128909 .16799927 .57128909 .21998596 .5972748V.07902527C.21998596 .042999269 .21699524 .0309906 .1269989 .0309906H.09498596V0C.12998963 .0029907227 .21699524 .0029907227 .25698854 .0029907227 .29699708 .0029907227 .38398744 .0029907227 .4189911 0V.0309906H.3869934C.29699708 .0309906 .2939911 .041992189 .2939911 .07902527V.64004519Z"/>
<path id="font_2_7" d="M.13198853 .327713V.35173036C.13198853 .6047821 .2559967 .64100649 .30699159 .64100649 .33099366 .64100649 .37298585 .634964 .394989 .6007538 .37998963 .6007538 .33999635 .6007538 .33999635 .5557556 .33999635 .524765 .3639984 .5097656 .38598634 .5097656 .4019928 .5097656 .43199159 .51875308 .43199159 .5577545 .43199159 .6178589 .3880005 .6660156 .30499269 .6660156 .1769867 .6660156 .041992189 .5367584 .041992189 .31570436 .041992189 .048553468 .1579895-.022460938 .25099183-.022460938 .3619995-.022460938 .45700074 .07156372 .45700074 .2036438 .45700074 .33070375 .36799623 .4267578 .25698854 .4267578 .18899536 .4267578 .1519928 .37573243 .13198853 .327713M.25099183 .0055389406C.18798828 .0055389406 .1579895 .06556702 .1519928 .080566409 .13398743 .127594 .13398743 .2076416 .13398743 .22564698 .13398743 .30369569 .1659851 .40374757 .2559967 .40374757 .27198792 .40374757 .31799317 .40374757 .34899903 .34172059 .36698915 .30470277 .36698915 .2536621 .36698915 .20463562 .36698915 .15661621 .36698915 .10658264 .34999085 .0705719 .31999208 .010528564 .27398683 .0055389406 .25099183 .0055389406Z"/>
<path id="font_2_8" d="M.16299439 .4569702C.116989139 .486969 .11299133 .52098086 .11299133 .5379791 .11299133 .598999 .17799378 .64100649 .24899292 .64100649 .32199098 .64100649 .38598634 .58898928 .38598634 .51698306 .38598634 .45996095 .34700013 .4119568 .2869873 .37695313L.16299439 .4569702M.30899049 .36193849C.3809967 .3989563 .42999269 .45095826 .42999269 .51698306 .42999269 .6090088 .34098817 .6660156 .25 .6660156 .1499939 .6660156 .068984989 .59199526 .068984989 .49897767 .068984989 .4809723 .070999149 .43595887 .11299133 .38894654 .12399292 .37695313 .16099549 .35194398 .18598938 .33494569 .12799073 .30592347 .041992189 .24984741 .041992189 .15072632 .041992189 .04458618 .14399719-.022460938 .24899292-.022460938 .3619995-.022460938 .45700074 .06060791 .45700074 .16773987 .45700074 .20379639 .44599916 .24885559 .4079895 .2909088 .3889923 .31193543 .37298585 .3219452 .30899049 .36193849M.20899964 .3199463 .33198548 .24183655C.3600006 .2228241 .40699769 .19277954 .40699769 .13169861 .40699769 .05760193 .33198548 .0055389406 .25 .0055389406 .1639862 .0055389406 .09199524 .067611698 .09199524 .15072632 .09199524 .20880127 .12399292 .27288819 .20899964 .3199463Z"/>
<path id="font_2_1" d="M.45999146 .31976319C.45999146 .39982606 .45498658 .47988893 .41999818 .5539398 .37399293 .65000918 .2919922 .6660156 .25 .6660156 .18998719 .6660156 .116989139 .64001467 .07598877 .54693606 .04399109 .47789 .038986207 .39982606 .038986207 .31976319 .038986207 .24472046 .042999269 .15464783 .083999637 .07859802 .1269989-.0024719239 .19999695-.022460938 .24899292-.022460938 .30299378-.022460938 .3789978-.0014648438 .4229889 .09359741 .45498658 .16265869 .45999146 .2407074 .45999146 .31976319M.24899292-.00047302247C.20999146-.00047302247 .15098572 .024551392 .1329956 .12062073 .12199402 .18066406 .12199402 .2727356 .12199402 .3317871 .12199402 .39582826 .12199402 .46188355 .12998963 .5159149 .14898682 .63500979 .22399903 .64401248 .24899292 .64401248 .28199769 .64401248 .34799195 .6259918 .36698915 .52693179 .3769989 .47088624 .3769989 .39482118 .3769989 .3317871 .3769989 .25672914 .3769989 .18867493 .3659973 .12461853 .35099793 .029556275 .2939911-.00047302247 .24899292-.00047302247Z"/>
<clipPath id="clip_3">
<path transform="matrix(.85,0,0,-.85,11.221251,139.0954)" d="M0 0H295.3197V153.5953H0Z"/>
</clipPath>
<path id="font_4_126" d="M.5399933 0V.0309906C.47399903 .0309906 .46299745 .0309906 .46299745 .07695007V.69407656L.42599488 .6880646C.4229889 .6880646 .42199708 .68907168 .4139862 .69207766 .3829956 .70407107 .34498597 .7050781 .32899476 .7050781 .21499634 .7050781 .10699463 .6450043 .10699463 .5438385V.43066407H.027999878V.3996582H.10699463V.07695007C.10699463 .0309906 .09599304 .0309906 .02999878 .0309906V0C.07699585 .0019989014 .09599304 .0029907227 .14199829 .0029907227 .18899536 .0029907227 .20599365 .0019989014 .25498963 0V.0309906C.18899536 .0309906 .17799378 .0309906 .17799378 .07695007V.3996582H.3919983V.07695007C.3919983 .0309906 .3809967 .0309906 .31498719 .0309906V0C.3619995 .0019989014 .3809967 .0029907227 .4269867 .0029907227 .47399903 .0029907227 .4909973 .0019989014 .5399933 0M.3919983 .43066407H.1749878V.5408325C.1749878 .63900759 .2579956 .68006899 .32798768 .68006899 .34899903 .68006899 .36999513 .67807009 .3919983 .6720581 .37799073 .66503909 .36898805 .64901736 .36898805 .6329956 .36898805 .6189728 .37599183 .6029358 .3919983 .5939331V.43066407Z"/>
<path id="font_4_50" d="M.4269867 .11936951C.4269867 .12637329 .42199708 .13237 .41299439 .13237 .40299989 .13237 .3999939 .12536621 .39898683 .12136841 .36499024 .019256592 .27598573 .01725769 .26098634 .01725769 .21299744 .01725769 .17199707 .044281007 .14898682 .078323367 .115997318 .12736511 .114990238 .18743897 .114990238 .22949219H.3999939C.42199708 .22949219 .4269867 .22949219 .4269867 .25048829 .4269867 .35333253 .37098695 .4482422 .24299622 .4482422 .12298584 .4482422 .0289917 .3443451 .0289917 .22047425 .0289917 .08932495 .13398743-.0107421879 .2559967-.0107421879 .37799073-.0107421879 .4269867 .096343997 .4269867 .11936951M.35899354 .253479H.115997318C.125 .40725709 .21499634 .42323304 .24299622 .42323304 .2979889 .42323304 .35798646 .38130189 .35899354 .253479Z"/>
<path id="font_4_98" d="M.36999513 .12831116C.36999513 .17330933 .34999085 .20030213 .32798768 .22329712 .2939911 .25628663 .2579956 .26327516 .18399048 .2772827 .1579895 .28227235 .084991458 .29527284 .084991458 .35224916 .084991458 .38424684 .10798645 .426239 .19898987 .426239 .30699159 .426239 .31399537 .34326173 .31599427 .31826783 .31698609 .3062744 .31698609 .3002777 .32998658 .3002777 .34399415 .3002777 .34399415 .30726625 .34399415 .32626344V.4222412C.34399415 .4392395 .34399415 .4482422 .33198548 .4482422 .32699586 .4482422 .32499696 .4482422 .31199647 .43623353 .30999757 .43423463 .30099488 .42523194 .29499818 .4202423 .2639923 .44223023 .23298645 .4482422 .19898987 .4482422 .066986087 .4482422 .033996583 .37524415 .033996583 .32426454 .033996583 .29226686 .04798889 .26628114 .070999149 .24429322 .10499573 .21330261 .14299011 .20629883 .19400025 .19729615 .24499512 .18730164 .2619934 .18431092 .28399659 .16731262 .2939911 .15931702 .31900025 .14031983 .31900025 .10229492 .31900025 .014251709 .21798706 .014251709 .20399475 .014251709 .101989749 .014251709 .07598877 .0993042 .06399536 .15332031 .06098938 .16331482 .05999756 .16931153 .04798889 .16931153 .033996583 .16931153 .033996583 .16131592 .033996583 .14331055V.01524353C.033996583-.0017547608 .033996583-.0107421879 .04598999-.0107421879 .051986696-.0107421879 .052993776-.009750366 .070999149 .009246826 .07499695 .01524353 .085998538 .028259278 .09098816 .03326416 .1329956-.007751465 .1789856-.0107421879 .20399475-.0107421879 .32699586-.0107421879 .36999513 .061279298 .36999513 .12831116Z"/>
<path id="font_4_81" d="M.48399354 .21324158C.48399354 .34423829 .37998963 .4482422 .25698854 .4482422 .12998963 .4482422 .0289917 .3412323 .0289917 .21324158 .0289917 .08824158 .1329956-.0107421879 .2559967-.0107421879 .3829956-.0107421879 .48399354 .09024048 .48399354 .21324158M.397995 .22224427C.397995 .1852417 .397995 .12724304 .37298585 .08325195 .34498597 .037246705 .29899598 .01725769 .25698854 .01725769 .20698548 .01725769 .16499329 .042251588 .14199829 .08125305 .115997318 .12324524 .114990238 .17623902 .114990238 .22224427 .114990238 .25924684 .114990238 .3162384 .13999939 .35723878 .16999817 .40823365 .21998596 .42323304 .2559967 .42323304 .31298829 .42323304 .35398866 .39123536 .37399293 .35723878 .39698792 .31523133 .397995 .26423646 .397995 .22224427Z"/>
<path id="font_5_1" d="M.34098817-.23803711C.34098817-.23303223 .33799745-.23002625 .33198548-.22303772 .20298767-.105026248 .1639862 .07498169 .1639862 .24996948 .1639862 .40498353 .19400025 .59298709 .33499146 .72698977 .33898927 .73098757 .34098817 .73399356 .34098817 .7389984 .34098817 .74598696 .33599855 .75 .32899476 .75 .31698609 .75 .22698975 .6779785 .17298889 .568985 .125 .47297669 .100997928 .36997987 .100997928 .25097657 .100997928 .17897034 .10998535 .064971927 .16499329-.053024293 .22399903-.17602539 .31698609-.24902344 .32899476-.24902344 .33599855-.24902344 .34098817-.24502564 .34098817-.23803711Z"/>
<path id="font_6_1" d="M.6749878 .22944641C.69299319 .22944641 .71199038 .22944641 .71199038 .25144959 .71199038 .27246095 .69200137 .27246095 .6749878 .27246095H.12298584C.10598755 .27246095 .085998538 .27246095 .085998538 .25144959 .085998538 .22944641 .10499573 .22944641 .12298584 .22944641H.6749878Z"/>
<path id="font_5_4" d="M.3039856 .6392822C.3039856 .6642761 .30299378 .666275 .27799989 .666275 .21598816 .60227969 .12399292 .60227969 .09298706 .60227969V.57128909C.11199951 .57128909 .17298889 .57128909 .22698975 .5972748V.08001709C.22698975 .042999269 .22399903 .0309906 .1309967 .0309906H.09899902V0C.1349945 .0029907227 .22399903 .0029907227 .2649994 .0029907227 .30599977 .0029907227 .3959961 .0029907227 .43199159 0V.0309906H.3999939C.30699159 .0309906 .3039856 .042999269 .3039856 .08001709V.6392822Z"/>
<path id="font_7_1" d="M.18199158 .015991211C.18199158-.017044068 .18199158-.09921265 .10798645-.17036438 .101989749-.17636109 .101989749-.17736817 .101989749-.18136597 .101989749-.18836975 .10899353-.19335938 .114990238-.19335938 .12599182-.19335938 .20698548-.115249637 .20698548 .0019989014 .20698548 .06399536 .18499756 .10798645 .14199829 .10798645 .10798645 .10798645 .08799744 .08198547 .08799744 .053985597 .08799744 .025985718 .10798645 0 .14199829 0 .15699768 0 .17199707 .004989624 .18199158 .015991211Z"/>
<path id="font_5_5" d="M.46199037 .17704773H.43399049C.43199159 .16404724 .42399598 .10501099 .41099549 .08900452 .40499879 .07998657 .33599855 .07998657 .31599427 .07998657H.13798523L.23699951 .17404175C.40098573 .3161316 .46199037 .36915589 .46199037 .4711914 .46199037 .5860901 .36698915 .6660156 .24398804 .6660156 .1289978 .6660156 .050994874 .575119 .050994874 .4841919 .050994874 .43418885 .09399414 .42919923 .102996829 .42919923 .125 .42919923 .15499878 .44519044 .15499878 .48120118 .15499878 .51119998 .13398743 .5332031 .102996829 .5332031 .09799194 .5332031 .09498596 .5332031 .09098816 .53219607 .114990238 .6030731 .1789856 .63500979 .23298645 .63500979 .33499146 .63500979 .36999513 .5401764 .36999513 .4711914 .36999513 .36915589 .29299928 .28611756 .24499512 .23408509L.06199646 .035995485C.050994874 .024993897 .050994874 .022994996 .050994874 0H.43399049L.46199037 .17704773Z"/>
<path id="font_5_2" d="M.2979889 .25097657C.2979889 .3329773 .28599549 .4429779 .23399353 .5539856 .1749878 .6769867 .08198547 .75 .069992069 .75 .05999756 .75 .057998659 .74198916 .057998659 .7389984 .057998659 .73399356 .05999756 .73098757 .066986087 .72398379 .125 .6719818 .23498535 .5359802 .23498535 .25097657 .23498535 .10797119 .20899964-.091033939 .06399536-.22602844 .06199646-.22903443 .057998659-.23303223 .057998659-.23803711 .057998659-.24102783 .05999756-.24902344 .069992069-.24902344 .08198547-.24902344 .17199707-.17703247 .22599793-.06802368 .27398683 .02796936 .2979889 .13098145 .2979889 .25097657Z"/>
<path id="font_5_3" d="M.47299195 .31976319C.47299195 .38682557 .46998597 .47288514 .43499757 .5479431 .3909912 .64201357 .31498719 .6660156 .25698854 .6660156 .19699097 .6660156 .12098694 .64201357 .07699585 .5459442 .04499817 .47688294 .039993287 .39582826 .039993287 .31976319 .039993287 .25471498 .041992189 .15765381 .084991458 .07858276 .13198853-.0064697267 .20999146-.022460938 .2559967-.022460938 .32099916-.022460938 .394989 .0055389406 .43699647 .097595218 .46699525 .1646576 .47299195 .23971558 .47299195 .31976319M.25698854 .002532959C.22698975 .002532959 .15499878 .016540528 .13598633 .12962342 .12599182 .18867493 .12599182 .2747345 .12599182 .33177186 .12599182 .39982606 .12599182 .47888185 .13798523 .53393557 .1579895 .6230011 .22200012 .64100649 .2559967 .64100649 .2939911 .64100649 .35699464 .62098696 .37599183 .5279236 .3869934 .47288514 .3869934 .39482118 .3869934 .33177186 .3869934 .2697296 .3869934 .18566895 .3769989 .12661743 .35598756 .012542725 .28199769 .002532959 .25698854 .002532959Z"/>
<path id="font_7_2" d="M.13699341 .22949219C.19799805 .22949219 .2630005 .22949219 .31599427 .24247742 .4099884 .2654724 .4269867 .32144166 .4269867 .35542298 .4269867 .41238404 .37399293 .4423828 .31498719 .4423828 .19898987 .4423828 .04699707 .3444214 .04699707 .17242432 .04699707 .077316287 .102996829-.0107421879 .21099854-.0107421879 .36099244-.0107421879 .44499208 .09333801 .44499208 .10635376 .44499208 .112350467 .43798829 .12036133 .43099977 .12036133 .42599488 .12036133 .4249878 .11936951 .41600038 .10835266 .35598756 .03427124 .2649994 .014251709 .21299744 .014251709 .14199829 .014251709 .12298584 .081329349 .12298584 .13137818 .12298584 .13337708 .12298584 .16841126 .13699341 .22949219M.14399719 .25448609C.18798828 .41238404 .29899598 .41737367 .31498719 .41737367 .34899903 .41737367 .3899994 .40138246 .3899994 .35542298 .3899994 .25448609 .23899842 .25448609 .14399719 .25448609Z"/>
<path id="font_8_1" d="M.33399964 .30233766C.33999635 .32835389 .36299134 .42037965 .43299867 .42037965 .43798829 .42037965 .46199037 .42037965 .48298646 .40734864 .45498658 .402359 .43499757 .37734986 .43499757 .35334779 .43499757 .33735658 .44599916 .31835938 .47299195 .31835938 .49499513 .31835938 .5269928 .3363495 .5269928 .37635804 .5269928 .42837525 .46798707 .4423828 .43399049 .4423828 .37599183 .4423828 .34098817 .38935853 .32899476 .36634828 .3039856 .43237306 .25 .4423828 .22099304 .4423828 .116989139 .4423828 .05999756 .3133545 .05999756 .28834535 .05999756 .27833558 .069992069 .27833558 .07199097 .27833558 .07998657 .27833558 .08299255 .28033448 .084991458 .28933717 .11898804 .39535523 .18499756 .42037965 .21899414 .42037965 .23799134 .42037965 .272995 .4113617 .272995 .35334779 .272995 .32235719 .2559967 .25532533 .21899414 .11528015 .20298767 .053268434 .16799927 .011245728 .12399292 .011245728 .117996219 .011245728 .09498596 .011245728 .07398987 .024276734 .09899902 .029266358 .12098694 .05027771 .12098694 .07827759 .12098694 .105270389 .09899902 .11328125 .083999637 .11328125 .053985597 .11328125 .0289917 .08728027 .0289917 .055267335 .0289917 .009246826 .07899475-.0107421879 .12298584-.0107421879 .18899536-.0107421879 .22499085 .059280397 .22799683 .0652771 .23999024 .028274537 .27598573-.0107421879 .33599855-.0107421879 .43899537-.0107421879 .49598695 .118270877 .49598695 .14328003 .49598695 .1532898 .4869995 .1532898 .48399354 .1532898 .47499085 .1532898 .47299195 .14929199 .47099305 .14228821 .43798829 .03527832 .36999513 .011245728 .33799745 .011245728 .29899598 .011245728 .2829895 .043273927 .2829895 .07727051 .2829895 .09927368 .2889862 .121276859 .2999878 .16529846L.33399964 .30233766Z"/>
<path id="font_8_2" d="M.48599244 .38136292C.48999024 .39537049 .48999024 .39736939 .48999024 .40437318 .48999024 .42237855 .47599793 .43138124 .46099855 .43138124 .45098878 .43138124 .43499757 .42536927 .42599488 .41036988 .42399598 .405365 .41600038 .37435914 .4119873 .35635377 .40499879 .33035279 .397995 .30334474 .3919983 .27633668L.34700013 .09628296C.34298707 .08126831 .2999878 .011245728 .23399353 .011245728 .18299866 .011245728 .17199707 .055267335 .17199707 .0922699 .17199707 .1382904 .18899536 .20030213 .22299195 .28833009 .23899842 .3293457 .24299622 .3403473 .24299622 .36035157 .24299622 .405365 .21099854 .4423828 .16099549 .4423828 .06599426 .4423828 .0289917 .29733277 .0289917 .28833009 .0289917 .27833558 .038986207 .27833558 .040985109 .27833558 .050994874 .27833558 .051986696 .28033448 .056991579 .29634095 .083999637 .3903656 .12399292 .42037965 .1579895 .42037965 .1659851 .42037965 .18299866 .42037965 .18299866 .3883667 .18299866 .36335755 .17298889 .3373413 .1659851 .31834413 .12599182 .21231079 .10798645 .1552887 .10798645 .10827637 .10798645 .019256592 .17098999-.0107421879 .22999573-.0107421879 .2689972-.0107421879 .30299378 .0062561037 .33099366 .03425598 .31799317-.017745972 .30599977-.06674194 .2659912-.11973572 .23999024-.15385437 .20199585-.18309021 .1559906-.18309021 .14199829-.18309021 .09700012-.18005371 .07998657-.14074707 .09599304-.14074707 .10899353-.14074707 .12298584-.1287384 .1329956-.11973572 .14299011-.10673523 .14299011-.08773804 .14299011-.056747438 .115997318-.052734376 .10598755-.052734376 .08299255-.052734376 .049987794-.068740848 .049987794-.11773682 .049987794-.16796875 .09399414-.20507813 .1559906-.20507813 .25898744-.20507813 .3619995-.11373901 .3899994-.00074768069L.48599244 .38136292Z"/>
</defs>
<path transform="matrix(.85,0,0,-.85,11.221251,139.0954)" stroke-width=".3985" stroke-linecap="butt" stroke-miterlimit="10" stroke-linejoin="miter" fill="none" stroke="#e5e6e5" d="M0 0V153.5953M42.18852 0V153.5953M84.37706 0V153.5953M126.56558 0V153.5953M168.75412 0V153.5953M253.13118 0V153.5953M295.3197 0V153.5953"/>
<path transform="matrix(.85,0,0,-.85,11.221251,139.0954)" stroke-width=".3985" stroke-linecap="butt" stroke-miterlimit="10" stroke-linejoin="miter" fill="none" stroke="#e5e6e5" d="M0 25.59921H295.3197M0 51.19843H295.3197M0 76.79765H295.3197M0 102.39687H295.3197M0 127.9961H295.3197M0 153.5953H295.3197"/>
<path transform="matrix(.85,0,0,-.85,11.221251,139.0954)" stroke-width=".19925" stroke-linecap="butt" stroke-miterlimit="10" stroke-linejoin="miter" fill="none" stroke="#7f807f" d="M0-2.12624V2.12624M42.18852-2.12624V2.12624M84.37706-2.12624V2.12624M126.56558-2.12624V2.12624M168.75412-2.12624V2.12624M253.13118-2.12624V2.12624M295.3197-2.12624V2.12624"/>
<path transform="matrix(.85,0,0,-.85,11.221251,139.0954)" stroke-width=".19925" stroke-linecap="butt" stroke-miterlimit="10" stroke-linejoin="miter" fill="none" stroke="#7f807f" d="M208.81673 25.59921H213.06855M208.81673 51.19843H213.06855M208.81673 76.79765H213.06855M208.81673 102.39687H213.06855M208.81673 127.9961H213.06855M208.81673 153.5953H213.06855"/>
<path transform="matrix(.85,0,0,-.85,11.221251,139.0954)" stroke-width=".79701" stroke-linecap="butt" stroke-miterlimit="10" stroke-linejoin="miter" fill="none" stroke="#000000" d="M0 0H292.72947"/>
<path transform="matrix(.85,0,0,-.85,260.0413,139.0954)" d="M2.59026 0-1.55415 2.0722 0 0-1.55415-2.0722"/>
<path transform="matrix(.85,0,0,-.85,11.221251,139.0954)" stroke-width=".79701" stroke-linecap="butt" stroke-miterlimit="10" stroke-linejoin="miter" fill="none" stroke="#000000" d="M210.94264 0V151.00505"/>
<path transform="matrix(0,-.85,-.85,-0,190.5225,10.741104)" d="M2.59026 0-1.55415 2.0722 0 0-1.55415-2.0722"/>
<use data-text="&#x2212;" xlink:href="#font_1_1" transform="matrix(8.468244,0,0,-8.468244,5.8110005,149.52065)"/>
<use data-text="5" xlink:href="#font_2_6" transform="matrix(8.468244,0,0,-8.468244,12.39765,149.52065)"/>
<use data-text="&#x2212;" xlink:href="#font_1_1" transform="matrix(8.468244,0,0,-8.468244,41.670804,149.52065)"/>
<use data-text="4" xlink:href="#font_2_5" transform="matrix(8.468244,0,0,-8.468244,48.25745,149.52065)"/>
<use data-text="&#x2212;" xlink:href="#font_1_1" transform="matrix(8.468244,0,0,-8.468244,77.53061,149.52065)"/>
<use data-text="3" xlink:href="#font_2_4" transform="matrix(8.468244,0,0,-8.468244,84.117259,149.52065)"/>
<use data-text="&#x2212;" xlink:href="#font_1_1" transform="matrix(8.468244,0,0,-8.468244,113.3904,149.52065)"/>
<use data-text="2" xlink:href="#font_2_3" transform="matrix(8.468244,0,0,-8.468244,119.97705,149.52065)"/>
<use data-text="&#x2212;" xlink:href="#font_1_1" transform="matrix(8.468244,0,0,-8.468244,149.2502,149.52065)"/>
<use data-text="1" xlink:href="#font_2_2" transform="matrix(8.468244,0,0,-8.468244,155.83684,149.52065)"/>
<use data-text="1" xlink:href="#font_2_2" transform="matrix(8.468244,0,0,-8.468244,224.26357,149.52065)"/>
<use data-text="2" xlink:href="#font_2_3" transform="matrix(8.468244,0,0,-8.468244,260.12336,149.52065)"/>
<use data-text="2" xlink:href="#font_2_3" transform="matrix(8.468244,0,0,-8.468244,181.31816,120.06474)"/>
<use data-text="4" xlink:href="#font_2_5" transform="matrix(8.468244,0,0,-8.468244,181.31816,98.30561)"/>
<use data-text="6" xlink:href="#font_2_7" transform="matrix(8.468244,0,0,-8.468244,181.31816,76.54645)"/>
<use data-text="8" xlink:href="#font_2_8" transform="matrix(8.468244,0,0,-8.468244,181.31816,54.787309)"/>
<use data-text="1" xlink:href="#font_2_2" transform="matrix(8.468244,0,0,-8.468244,177.0843,33.029)"/>
<use data-text="0" xlink:href="#font_2_1" transform="matrix(8.468244,0,0,-8.468244,181.31844,33.029)"/>
<use data-text="1" xlink:href="#font_2_2" transform="matrix(8.468244,0,0,-8.468244,177.0843,11.269852)"/>
<use data-text="2" xlink:href="#font_2_3" transform="matrix(8.468244,0,0,-8.468244,181.31844,11.269852)"/>
<g clip-path="url(#clip_3)">
<path transform="matrix(.85,0,0,-.85,11.221251,139.0954)" stroke-width=".79701" stroke-linecap="butt" stroke-miterlimit="10" stroke-linejoin="miter" fill="none" stroke="#2471a3" d="M0 6.09497 1.378 6.21852 2.75603 6.34401 4.13403 6.47166 5.51205 6.60121 6.89006 6.73291 8.2681 6.86667 9.6461 7.00256 11.02412 7.14041 12.40213 7.28053 13.78015 7.42267 15.15816 7.56697 16.5362 7.71336 17.9142 7.86198 19.29222 8.01277 20.67023 8.1656 22.04825 8.32074 23.42627 8.47804 24.80429 8.63734 26.1823 8.79903 27.56032 8.96265 28.93832 9.1286 30.31635 9.29674 31.69437 9.46684 33.07239 9.63925 34.4504 9.81383 35.82841 9.99046 37.20642 10.16925 38.58446 10.35002 39.96246 10.53305 41.34048 10.71814 42.71849 10.90517 44.09651 11.09436 45.47453 11.28552 46.85255 11.47853 48.23056 11.67366 49.60858 11.87051 50.98659 12.06947 52.36462 12.27031 53.74263 12.47272 55.12065 12.67706 56.49866 12.88312 57.87668 13.09077 59.2547 13.30008 60.63272 13.51091 62.01073 13.7234 63.38875 13.93735 64.76675 14.1525 66.14479 14.36922 67.5228 14.58696 68.90082 14.80614 70.27882 15.0264 71.65685 15.24823 73.03487 15.46828 74.41289 15.68483 75.7909 15.91623 77.16891 16.13138 78.54692 16.3583 79.92496 16.58347 81.30296 16.8171 82.68098 17.04614 84.05899 17.2703 85.43701 17.49031 86.81503 17.7157 88.19305 17.94658 89.57106 18.17003 90.94908 18.39737 92.32709 18.62868 93.70512 18.84955 95.08315 19.0718 96.46115 19.2945 97.83917 19.5157 99.21718 19.72745 100.5952 19.94753 101.97322 20.16264 103.35124 20.38565 104.72925 20.59248 106.10727 20.80528 107.48528 21.01096 108.86331 21.21857 110.24132 21.41835 111.61934 21.61818 112.99734 21.8169 114.37537 22.00629 115.75337 22.19984 117.13141 22.38174 118.50941 22.56715 119.88744 22.74591 121.26544 22.9173 122.64346 23.08948 124.02148 23.2525 125.3995 23.41354 126.77751 23.5702 128.15554 23.72209 129.53354 23.8688 130.91156 24.00888 132.28958 24.14026 133.6676 24.27007 135.04561 24.38998 136.42363 24.51053 137.80164 24.62048 139.17975 24.72874 140.55764 24.82396 141.93575 24.91559 143.31362 25.00314 144.69173 25.08449 146.06983 25.15932 147.44773 25.22739 148.82582 25.28688 150.2037 25.34221 151.5818 25.39188 152.95992 25.43518 154.3378 25.47098 155.71591 25.50342 157.09378 25.53125 158.4719 25.55368 159.84999 25.56999 161.22788 25.58347 162.60599 25.59381 163.98387 25.59988 165.36197 25.60176 166.74008 25.60245 168.11795 25.60426 169.49607 25.59943 170.87395 25.59929 172.25206 25.60161 173.63016 25.6059 175.00804 25.6141 176.38614 25.62752 177.76404 25.64734 179.14214 25.67523 180.52025 25.71254 181.89812 25.76181 183.27623 25.82443 184.65413 25.90247 186.03223 25.9983 187.41033 26.11417 188.78821 26.25298 190.16632 26.41821 191.5442 26.6121 192.92232 26.83817 194.30042 27.09996 195.6783 27.40092 197.0564 27.74596 198.4343 28.13829 199.8124 28.58337 201.1905 29.08638 202.56838 29.65176 203.94649 30.28587 205.32437 30.99402 206.70249 31.78249 208.08057 32.65932 209.45847 33.63028 210.83657 34.70364 212.21446 35.88943 213.59256 37.19272 214.97066 38.62613 216.34854 40.19768 217.72666 41.91699 219.10454 43.7973 220.48265 45.85034 221.86074 48.0863 223.23863 50.51962 224.61673 53.16357 225.99463 56.03519 227.37273 59.14746 228.75083 62.51782 230.12871 66.1647 231.50682 70.10416 232.8847 74.35713 234.26282 78.94641 235.6409 83.88922 237.0188 89.21254 238.3969 94.93915 239.7748 101.09286 241.1529 107.70511 242.53099 114.80106 243.90888 122.41064 245.28699 130.56722 246.66486 139.30216 248.04299 148.65587 249.42107 158.6616 250.79897 169.35448 252.17707 180.78456"/>
<path transform="matrix(.85,0,0,-.85,11.221251,139.0954)" stroke-width=".79701" stroke-linecap="butt" stroke-dasharray="2.98883,2.98883" stroke-miterlimit="10" stroke-linejoin="miter" fill="none" stroke="#1b4f72" d="M0 0H1.48401 2.96803 4.45206 5.93608 7.4201 8.90413 10.38814 11.87218 13.35619 14.84023 16.32423 17.80826 19.2923 20.7763 22.26035 23.74435 25.22838 26.7124 28.19643 29.68045 31.16447 32.64848 34.13252 35.61655 37.10057 38.5846 40.06862 41.55264 43.03667 44.52069 46.0047 47.48874 48.97275 50.45679 51.94081 53.42482 54.90886 56.39287 57.8769 59.36092 60.84496 62.32896 63.813 65.29701 66.78104 68.26508 69.74908 71.23312 72.71713 74.20117 75.68518 77.1692 78.65323 80.13725 81.62128 83.1053 84.58934 86.07335 87.55739 89.0414 90.52542 92.00945 93.49347 94.9775 96.46152 97.94553 99.42957 100.91359 102.39761 103.88164 105.36565 106.84969 108.3337 109.81773 111.30174 112.78577 114.26979 115.75381 117.23785 118.72186 120.20589 121.68991 123.17393 124.65796 126.14198 127.626 129.11003 130.59404 132.07808 133.5621 135.04613 136.53015 138.01418 139.4982 140.98221 142.46625 143.95026 145.4343 146.9183 148.40235 149.88646 151.37033 152.85446 154.33834 155.82247 157.30657 158.79045 160.27457 161.75846 163.24257 164.72669 166.21057 167.69469 169.17858 170.66269 172.1468 173.63068 175.1148 176.59868 178.08281 179.56691 181.05081 182.53493 184.01882 185.50293 186.98703 188.47093 189.95503 191.43894 192.92304 194.40715 195.89104 197.37516 198.85906 200.34316 201.82729 203.31116 204.79528 206.27916 207.76328 209.24739 210.73128 212.2154 213.69928 215.18341 216.66751 218.1514 219.63552 221.1194 222.60352 224.08763 225.5715 227.05564 228.5395 230.02364 231.50775 232.99163 234.47576 235.95963 237.44376 238.92786 240.41175 241.89586 243.37975 244.86386 246.34798 247.83187 249.31598 250.79987 252.28398 253.7681 255.25199 256.7361 258.22 259.7041 261.1882 262.6721 264.15623 265.6401 267.1242 268.6083 270.09223 271.57633 273.06025 274.54435 276.02848 277.51234 278.99647 280.48036 281.96446 283.44859 284.93247 286.41658 287.90046 289.38459 290.86869 292.35258 293.8367 295.32057"/>
<use data-text="f" xlink:href="#font_4_126" transform="matrix(7.6214234,0,0,-7.6214234,157.8216,112.269397)"/>
<use data-text="e" xlink:href="#font_4_50" transform="matrix(7.6214234,0,0,-7.6214234,162.17342,112.269397)"/>
<use data-text="s" xlink:href="#font_4_98" transform="matrix(7.6214234,0,0,-7.6214234,165.65642,112.269397)"/>
<use data-text="s" xlink:href="#font_4_98" transform="matrix(7.6214234,0,0,-7.6214234,168.74309,112.269397)"/>
<use data-text="o" xlink:href="#font_4_81" transform="matrix(7.6214234,0,0,-7.6214234,171.82976,112.269397)"/>
<use data-text="(" xlink:href="#font_5_1" transform="matrix(7.6214234,0,0,-7.6214234,178.36183,112.269397)"/>
<use data-text="&#x2212;" xlink:href="#font_6_1" transform="matrix(7.6214234,0,0,-7.6214234,181.4074,112.269397)"/>
<use data-text="1" xlink:href="#font_5_4" transform="matrix(7.6214234,0,0,-7.6214234,187.5002,112.269397)"/>
<use data-text="," xlink:href="#font_7_1" transform="matrix(7.6214234,0,0,-7.6214234,191.41699,112.269397)"/>
<use data-text="2" xlink:href="#font_5_5" transform="matrix(7.6214234,0,0,-7.6214234,194.89775,112.269397)"/>
<use data-text=")" xlink:href="#font_5_2" transform="matrix(7.6214234,0,0,-7.6214234,198.81516,112.269397)"/>
<use data-text="(" xlink:href="#font_5_1" transform="matrix(7.6214234,0,0,-7.6214234,193.68141,118.38006)"/>
<use data-text="0" xlink:href="#font_5_3" transform="matrix(7.6214234,0,0,-7.6214234,196.72998,118.38006)"/>
<use data-text="," xlink:href="#font_7_1" transform="matrix(7.6214234,0,0,-7.6214234,200.6446,118.38006)"/>
<use data-text="e" xlink:href="#font_7_2" transform="matrix(7.6214234,0,0,-7.6214234,204.12761,118.38006)"/>
<use data-text=")" xlink:href="#font_5_2" transform="matrix(7.6214234,0,0,-7.6214234,207.76763,118.38006)"/>
</g>
<path transform="matrix(.85,0,0,-.85,11.221251,139.0954)" d="M170.74668 25.59921C170.74668 26.69968 169.85459 27.59177 168.75412 27.59177 167.65364 27.59177 166.76157 26.69968 166.76157 25.59921 166.76157 24.49873 167.65364 23.60666 168.75412 23.60666 169.85459 23.60666 170.74668 24.49873 170.74668 25.59921ZM168.75412 25.59921"/>
<path transform="matrix(.85,0,0,-.85,11.221251,139.0954)" stroke-width=".79701" stroke-linecap="butt" stroke-miterlimit="10" stroke-linejoin="miter" fill="none" stroke="#000000" d="M170.74668 25.59921C170.74668 26.69968 169.85459 27.59177 168.75412 27.59177 167.65364 27.59177 166.76157 26.69968 166.76157 25.59921 166.76157 24.49873 167.65364 23.60666 168.75412 23.60666 169.85459 23.60666 170.74668 24.49873 170.74668 25.59921ZM168.75412 25.59921"/>
<path transform="matrix(.85,0,0,-.85,11.221251,139.0954)" stroke-width=".79701" stroke-linecap="butt" stroke-miterlimit="10" stroke-linejoin="miter" fill="none" stroke="#000000" d=""/>
<path transform="matrix(.85,0,0,-.85,11.221251,139.0954)" d="M212.9352 34.79291C212.9352 35.89339 212.04312 36.78546 210.94264 36.78546 209.84218 36.78546 208.95009 35.89339 208.95009 34.79291 208.95009 33.69244 209.84218 32.80035 210.94264 32.80035 212.04312 32.80035 212.9352 33.69244 212.9352 34.79291ZM210.94264 34.79291"/>
<path transform="matrix(.85,0,0,-.85,11.221251,139.0954)" stroke-width=".79701" stroke-linecap="butt" stroke-miterlimit="10" stroke-linejoin="miter" fill="none" stroke="#000000" d="M212.9352 34.79291C212.9352 35.89339 212.04312 36.78546 210.94264 36.78546 209.84218 36.78546 208.95009 35.89339 208.95009 34.79291 208.95009 33.69244 209.84218 32.80035 210.94264 32.80035 212.04312 32.80035 212.9352 33.69244 212.9352 34.79291ZM210.94264 34.79291"/>
<path transform="matrix(.85,0,0,-.85,11.221251,139.0954)" stroke-width=".79701" stroke-linecap="butt" stroke-miterlimit="10" stroke-linejoin="miter" fill="none" stroke="#000000" d=""/>
<use data-text="x" xlink:href="#font_8_1" transform="matrix(8.468244,0,0,-8.468244,254.23882,135.93425)"/>
<use data-text="y" xlink:href="#font_8_2" transform="matrix(8.468244,0,0,-8.468244,193.68141,15.348145)"/>
</svg>
