<svg xmlns="http://www.w3.org/2000/svg" xmlns:xlink="http://www.w3.org/1999/xlink" xmlns:inkscape="http://www.inkscape.org/namespaces/inkscape" version="1.1" width="234.144" height="117.712" viewBox="0 0 234.144 117.712">
<defs>
<path id="font_1_1" d="M.33399964 .30233766C.33999635 .32835389 .36299134 .42037965 .43299867 .42037965 .43798829 .42037965 .46199037 .42037965 .48298646 .40734864 .45498658 .402359 .43499757 .37734986 .43499757 .35334779 .43499757 .33735658 .44599916 .31835938 .47299195 .31835938 .49499513 .31835938 .5269928 .3363495 .5269928 .37635804 .5269928 .42837525 .46798707 .4423828 .43399049 .4423828 .37599183 .4423828 .34098817 .38935853 .32899476 .36634828 .3039856 .43237306 .25 .4423828 .22099304 .4423828 .116989139 .4423828 .05999756 .3133545 .05999756 .28834535 .05999756 .27833558 .069992069 .27833558 .07199097 .27833558 .07998657 .27833558 .08299255 .28033448 .084991458 .28933717 .11898804 .39535523 .18499756 .42037965 .21899414 .42037965 .23799134 .42037965 .272995 .4113617 .272995 .35334779 .272995 .32235719 .2559967 .25532533 .21899414 .11528015 .20298767 .053268434 .16799927 .011245728 .12399292 .011245728 .117996219 .011245728 .09498596 .011245728 .07398987 .024276734 .09899902 .029266358 .12098694 .05027771 .12098694 .07827759 .12098694 .105270389 .09899902 .11328125 .083999637 .11328125 .053985597 .11328125 .0289917 .08728027 .0289917 .055267335 .0289917 .009246826 .07899475-.0107421879 .12298584-.0107421879 .18899536-.0107421879 .22499085 .059280397 .22799683 .0652771 .23999024 .028274537 .27598573-.0107421879 .33599855-.0107421879 .43899537-.0107421879 .49598695 .118270877 .49598695 .14328003 .49598695 .1532898 .4869995 .1532898 .48399354 .1532898 .47499085 .1532898 .47299195 .14929199 .47099305 .14228821 .43798829 .03527832 .36999513 .011245728 .33799745 .011245728 .29899598 .011245728 .2829895 .043273927 .2829895 .07727051 .2829895 .09927368 .2889862 .121276859 .2999878 .16529846L.33399964 .30233766Z"/>
<path id="font_1_2" d="M.48599244 .38136292C.48999024 .39537049 .48999024 .39736939 .48999024 .40437318 .48999024 .42237855 .47599793 .43138124 .46099855 .43138124 .45098878 .43138124 .43499757 .42536927 .42599488 .41036988 .42399598 .405365 .41600038 .37435914 .4119873 .35635377 .40499879 .33035279 .397995 .30334474 .3919983 .27633668L.34700013 .09628296C.34298707 .08126831 .2999878 .011245728 .23399353 .011245728 .18299866 .011245728 .17199707 .055267335 .17199707 .0922699 .17199707 .1382904 .18899536 .20030213 .22299195 .28833009 .23899842 .3293457 .24299622 .3403473 .24299622 .36035157 .24299622 .405365 .21099854 .4423828 .16099549 .4423828 .06599426 .4423828 .0289917 .29733277 .0289917 .28833009 .0289917 .27833558 .038986207 .27833558 .040985109 .27833558 .050994874 .27833558 .051986696 .28033448 .056991579 .29634095 .083999637 .3903656 .12399292 .42037965 .1579895 .42037965 .1659851 .42037965 .18299866 .42037965 .18299866 .3883667 .18299866 .36335755 .17298889 .3373413 .1659851 .31834413 .12599182 .21231079 .10798645 .1552887 .10798645 .10827637 .10798645 .019256592 .17098999-.0107421879 .22999573-.0107421879 .2689972-.0107421879 .30299378 .0062561037 .33099366 .03425598 .31799317-.017745972 .30599977-.06674194 .2659912-.11973572 .23999024-.15385437 .20199585-.18309021 .1559906-.18309021 .14199829-.18309021 .09700012-.18005371 .07998657-.14074707 .09599304-.14074707 .10899353-.14074707 .12298584-.1287384 .1329956-.11973572 .14299011-.10673523 .14299011-.08773804 .14299011-.056747438 .115997318-.052734376 .10598755-.052734376 .08299255-.052734376 .049987794-.068740848 .049987794-.11773682 .049987794-.16796875 .09399414-.20507813 .1559906-.20507813 .25898744-.20507813 .3619995-.11373901 .3899994-.00074768069L.48599244 .38136292Z"/>
<path id="font_2_1" d="M.33499146 .63612368C.33499146 .6630554 .33299256 .6640625 .30499269 .6640625 .24099732 .6014404 .1499939 .6004486 .10899353 .6004486V.5644531C.1329956 .5644531 .19898987 .5644531 .2539978 .592453V.08203125C.2539978 .04899597 .2539978 .035995485 .1539917 .035995485H.115997318V0C.13398743 .0009918213 .25698854 .0039978029 .2939911 .0039978029 .32499696 .0039978029 .45098878 .0009918213 .47299195 0V.035995485H.43499757C.33499146 .035995485 .33499146 .04899597 .33499146 .08203125V.63612368Z"/>
<path id="font_2_2" d="M.5049896 .18203736H.47099305C.46798707 .16001892 .45799256 .100997928 .44499208 .09098816 .43699647 .084991458 .3600006 .084991458 .34599305 .084991458H.1619873C.2669983 .17803955 .3019867 .20603943 .3619995 .25306703 .43598939 .312088 .5049896 .374115 .5049896 .46914674 .5049896 .5900879 .39898683 .6640625 .2709961 .6640625 .14698792 .6640625 .06298828 .57710269 .06298828 .4851532 .06298828 .43414308 .10598755 .42915345 .115997318 .42915345 .13999939 .42915345 .16899109 .44615174 .16899109 .48214723 .16899109 .5001526 .1619873 .53515627 .10998535 .53515627 .14099121 .6060791 .20899964 .62805178 .2559967 .62805178 .35598756 .62805178 .4079895 .5501404 .4079895 .46914674 .4079895 .38212586 .34599305 .3130951 .31399537 .27708436L.07299805 .038986207C.06298828 .02999878 .06298828 .027999878 .06298828 0H.47499085L.5049896 .18203736Z"/>
<path id="font_2_3" d="M.272995 .33428956C.35099793 .33428956 .40699769 .2803192 .40699769 .1733551 .40699769 .04940796 .33499146 .012466431 .2769928 .012466431 .23699951 .012466431 .14898682 .0234375 .10699463 .082351688 .1539917 .084350589 .16499329 .11735535 .16499329 .13835144 .16499329 .17034912 .14099121 .19335938 .10998535 .19335938 .08198547 .19335938 .053985597 .17634583 .053985597 .13534546 .053985597 .041412355 .1579895-.01953125 .2789917-.01953125 .41799928-.01953125 .5139923 .07336426 .5139923 .1733551 .5139923 .2513275 .44999696 .32929994 .33999635 .35229493 .44499208 .39024354 .48298646 .4650879 .48298646 .5260773 .48298646 .60505679 .3919983 .6640625 .2809906 .6640625 .16999817 .6640625 .084991458 .61006167 .084991458 .5300751 .084991458 .49606324 .10699463 .47706605 .13699341 .47706605 .16799927 .47706605 .18798828 .5000763 .18798828 .5280762 .18798828 .5570679 .16799927 .57806399 .13699341 .5800781 .17199707 .62405398 .24099732 .63505557 .27799989 .63505557 .32299806 .63505557 .38598634 .6130676 .38598634 .5260773 .38598634 .48406983 .37199403 .43814088 .34599305 .4072113 .31298829 .36927796 .2849884 .3672943 .23498535 .36428834 .20999146 .3623047 .20799256 .3623047 .20298767 .3612976 .20098877 .3612976 .19299317 .3592987 .19299317 .34829713 .19299317 .33428956 .20199585 .33428956 .21899414 .33428956H.272995Z"/>
<path id="font_2_4" d="M.5289917 .1640625V.20005799H.41799928V.64582827C.41799928 .66682437 .41799928 .6738281 .3959961 .6738281 .38398744 .6738281 .37998963 .6738281 .36999513 .65982058L.038986207 .20005799V.1640625H.33299256V.08201599C.33299256 .04800415 .33299256 .035995485 .2519989 .035995485H.22499085V0C.2749939 .0019989014 .33898927 .0039978029 .375 .0039978029 .4119873 .0039978029 .47599793 .0019989014 .526001 0V.035995485H.49899293C.41799928 .035995485 .41799928 .04800415 .41799928 .08201599V.1640625H.5289917M.33999635 .5658722V.20005799H.07598877L.33999635 .5658722Z"/>
<path id="font_2_5" d="M.15499878 .5588074C.20599365 .5458069 .23599243 .5458069 .2519989 .5458069 .38398744 .5458069 .46199037 .6358032 .46199037 .6508026 .46199037 .6618042 .45498658 .6648102 .44999696 .6648102 .44799806 .6648102 .44599916 .6648102 .44198609 .6618042 .41799928 .6528015 .36499024 .6328125 .29100038 .6328125 .2630005 .6328125 .20999146 .6348114 .14498902 .6598053 .1349945 .6648102 .1329956 .6648102 .13198853 .6648102 .11898804 .6648102 .11898804 .6538086 .11898804 .6378021V.34251405C.11898804 .32548524 .11898804 .3134613 .1349945 .3134613 .14399719 .3134613 .14498902 .3154602 .15499878 .32748414 .19799805 .38259889 .25898744 .390625 .2939911 .390625 .35398866 .390625 .3809967 .34251405 .38598634 .33450318 .4039917 .30143739 .4099884 .26335145 .4099884 .20524597 .4099884 .17524719 .4099884 .116256717 .37998963 .07234192 .35499574 .03640747 .31199647 .012466431 .2630005 .012466431 .19799805 .012466431 .1309967 .04838562 .10598755 .11425781 .14399719 .11125183 .16299439 .13624573 .16299439 .16325379 .16299439 .20625305 .12599182 .21424866 .11299133 .21424866 .11099243 .21424866 .06298828 .21424866 .06298828 .1602478 .06298828 .07034302 .14498902-.01953125 .2649994-.01953125 .3929901-.01953125 .5049896 .07533264 .5049896 .20124817 .5049896 .31445313 .4189911 .41862489 .29499818 .41862489 .25099183 .41862489 .19898987 .4076233 .15499878 .36956788V.5588074Z"/>
<path id="font_2_6" d="M.1499939 .3274536C.1499939 .40945436 .15699768 .48303224 .19499207 .543869 .22898865 .5978699 .2829895 .63505557 .34700013 .63505557 .3769989 .63505557 .4169922 .62701418 .43699647 .5998688 .4119873 .5978699 .3909912 .5808716 .3909912 .5518799 .3909912 .5268707 .4079895 .5048828 .43798829 .5048828 .46798707 .5048828 .48599244 .5248718 .48599244 .5538788 .48599244 .6119385 .44400025 .6640625 .34498597 .6640625 .20098877 .6640625 .053985597 .5318756 .053985597 .3174591 .053985597 .05845642 .17599488-.01953125 .28599549-.01953125 .4079895-.01953125 .5139923 .07345581 .5139923 .20445252 .5139923 .33145143 .41299439 .42546083 .29599 .42546083 .21598816 .42546083 .17199707 .37245179 .1499939 .3274536M.28599549 .012466431C.23599243 .012466431 .19699097 .04145813 .17599488 .08546448 .16099549 .11546326 .15299988 .16545105 .15299988 .22544861 .15299988 .32244874 .21099854 .39746095 .29100038 .39746095 .33699037 .39746095 .36799623 .37945558 .3929901 .342453 .4169922 .30445863 .41799928 .26245118 .41799928 .20445252 .41799928 .14746094 .41799928 .10545349 .3909912 .066467288 .36698915 .031463624 .33499146 .012466431 .28599549 .012466431Z"/>
<path id="font_3_1" d="M.74398806 .2263794C.7599945 .2263794 .7839966 .2263794 .7839966 .25038148 .7839966 .27539063 .7609863 .27539063 .74398806 .27539063H.147995C.13198853 .27539063 .10798645 .27539063 .10798645 .25138856 .10798645 .2263794 .1309967 .2263794 .147995 .2263794H.74398806Z"/>
<path id="font_4_2" d="M.55599978 .37738038C.55999758 .39138795 .55999758 .39338685 .55999758 .3993988 .55999758 .41940309 .5439911 .43139649 .5269928 .43139649 .5159912 .43139649 .49699403 .4263916 .48599244 .4073944 .48298646 .4013977 .47499085 .36938478 .46998597 .34936524L.44898988 .2663269C.44299317 .24232483 .4119873 .11627197 .40899659 .105270389 .4079895 .105270389 .3639984 .018234253 .28599549 .018234253 .21798706 .018234253 .21798706 .08325195 .21798706 .101257327 .21798706 .1552887 .24099732 .2183075 .2709961 .29534913 .2829895 .32736207 .28799439 .33937074 .28799439 .35636903 .28799439 .40438844 .24699402 .44140626 .19299317 .44140626 .09199524 .44140626 .04699707 .3053589 .04699707 .28834535 .04699707 .27534486 .06098938 .27534486 .06399536 .27534486 .07798767 .27534486 .07899475 .28033448 .08198547 .29135133 .10699463 .3743744 .1499939 .4133911 .18998719 .4133911 .20698548 .4133911 .21499634 .40238954 .21499634 .37838746 .21499634 .3553772 .20599365 .33335877 .20098877 .32035829 .15299988 .19830323 .14299011 .1612854 .14299011 .117263797 .14299011 .1002655 .14299011 .053237916 .18199158 .021224976 .21299744-.004776001 .25498963-.009765625 .28199769-.009765625 .32199098-.009765625 .35798646 .0052337648 .3909912 .035232545 .37799073-.01977539 .36698915-.061782838 .32499696-.11178589 .2979889-.14279175 .2579956-.17610169 .20498657-.17610169 .19799805-.17610169 .15098572-.17610169 .12998963-.14279175 .18399048-.13679505 .18399048-.08879089 .18399048-.08778381 .18399048-.055786134 .15499878-.04978943 .14498902-.04978943 .11999512-.04978943 .08699036-.0697937 .08699036-.11578369 .08699036-.1670227 .1349945-.20410156 .20599365-.20410156 .30699159-.20410156 .42999269-.12579346 .46099855-.00077819827L.55599978 .37738038Z"/>
<path id="font_2_7" d="M.7679901 .3359375C.7829895 .3359375 .80599978 .3359375 .80599978 .3609314 .80599978 .38493348 .7819977 .38493348 .7689972 .38493348H.10699463C.09399414 .38493348 .069992069 .38493348 .069992069 .3609314 .069992069 .3359375 .09298706 .3359375 .10798645 .3359375H.7679901M.7689972 .11602783C.7819977 .11602783 .80599978 .11602783 .80599978 .1400299 .80599978 .16503906 .7829895 .16503906 .7679901 .16503906H.10798645C.09298706 .16503906 .069992069 .16503906 .069992069 .1400299 .069992069 .11602783 .09399414 .11602783 .10699463 .11602783H.7689972Z"/>
<path id="font_5_2" d="M.19599915 .55078127C.24899292 .53778079 .2939911 .53778079 .30499269 .53778079 .37298585 .53778079 .4229889 .55778506 .44898988 .57177737 .47299195 .583786 .54100039 .6267853 .54100039 .64878848 .54100039 .66378787 .5299988 .66578677 .5269928 .66578677 .5249939 .66578677 .522995 .66578677 .5119934 .66078189 .47399903 .6477814 .4119873 .63378909 .34599305 .63378909 .2889862 .63378909 .23399353 .64378359 .18099976 .66178897 .16999817 .66578677 .16799927 .66578677 .1659851 .66578677 .1519928 .66578677 .1519928 .6537781 .1519928 .63778689V.33763124C.1519928 .32061769 .1519928 .30760194 .17098999 .30760194 .18199158 .30760194 .18299866 .30960084 .19198609 .32061769 .22999573 .36468507 .2829895 .38671876 .35099793 .38671876 .40899659 .38671876 .44099427 .35266114 .45498658 .33163453 .47799684 .2975769 .48298646 .2525177 .48298646 .20446778 .48298646 .16246033 .47898866 .10646057 .43998719 .067489627 .394989 .021530152 .33799745 .01852417 .31599427 .01852417 .25099183 .01852417 .17799378 .04650879 .14698792 .10546875 .18899536 .10845947 .20298767 .13845825 .20298767 .1614685 .20298767 .19346619 .1789856 .21746826 .14698792 .21746826 .125 .21746826 .09098816 .20446778 .09098816 .15846253 .09098816 .0605011 .18699646-.022460938 .31799317-.022460938 .46699525-.022460938 .58898928 .07748413 .58898928 .20146179 .58898928 .3146057 .49198915 .41970826 .35299684 .41970826 .2899933 .41970826 .23899842 .40371705 .19599915 .37068177V.55078127Z"/>
<path id="font_5_1" d="M.61698916 .1630249V.20703125H.49198915V.64675906C.49198915 .67074587 .4909973 .6767578 .46499635 .6767578 .44499208 .6767578 .44400025 .67575076 .43299867 .66174319L.06298828 .20703125V.1630249H.3959961V.085006717C.3959961 .054000856 .3959961 .04399109 .30899049 .04399109H.27398683V0C.32099916 .0019989014 .38598634 .0039978029 .44400025 .0039978029 .5019989 .0039978029 .56599429 .0019989014 .6139984 0V.04399109H.57899478C.49198915 .04399109 .49198915 .054000856 .49198915 .085006717V.1630249H.61698916M.4039917 .5688019V.20703125H.10998535L.4039917 .5688019Z"/>
<path id="font_4_1" d="M.41299439 .6126709C.41999818 .640625 .42199708 .6436157 .44400025 .64660647H.5079956C.6009979 .64660647 .71598818 .64660647 .71598818 .5437927 .71598818 .50286868 .69699099 .43997193 .6499939 .40403749 .60899356 .37208558 .5469971 .35612489 .47799684 .35612489H.34899903L.41299439 .6126709M.59399417 .3401184C.71299746 .36810304 .81900027 .43997193 .81900027 .5288086 .81900027 .6146698 .71699526 .6826172 .57199099 .6826172H.2649994C.24598694 .6826172 .23298645 .6826172 .23298645 .660614 .23298645 .64660647 .24499512 .64660647 .2649994 .64660647 .2659912 .64660647 .2849884 .64660647 .30299378 .64460757 .32398988 .6426239 .32598878 .640625 .32598878 .63064578 .32598878 .62864688 .32598878 .6236572 .32199098 .6086731L.18899536 .07801819C.18099976 .04399109 .1789856 .035995485 .100997928 .035995485 .083999637 .035995485 .070999149 .035995485 .070999149 .01499939 .070999149 .004989624 .07798767 0 .08699036 0 .10598755 0 .1289978 .0029907227 .14898682 .0029907227 .16799927 .0029907227 .19699097 .0039978029 .21499634 .0039978029 .23498535 .0039978029 .2579956 .0029907227 .2789917 .0029907227 .2999878 .0029907227 .32499696 0 .34599305 0 .35099793 0 .36698915 0 .36698915 .020996094 .36698915 .035995485 .35699464 .035995485 .33399964 .035995485 .31799317 .035995485 .31399537 .035995485 .29599 .037994386 .27398683 .041000368 .27398683 .042999269 .27398683 .052993776 .27398683 .054000856 .27398683 .05999756 .27799989 .07501221L.34098817 .328125H.47698976C.5629883 .328125 .59999087 .2851715 .59999087 .23822022 .59999087 .22523499 .59098818 .19126892 .58599856 .16828919 .57398989 .12234497 .56999209 .10736084 .56999209 .09037781 .56999209 .011459351 .6429901-.01953125 .71699526-.01953125 .8089905-.01953125 .848999 .0783844 .848999 .09637451 .848999 .099365238 .8470001 .11035156 .83200076 .11035156 .81900027 .11035156 .81700137 .10336304 .81399539 .09336853 .7999878 .049423219 .7630005 .008468628 .72099307 .008468628 .69499209 .008468628 .6759949 .019454956 .6759949 .073394779 .6759949 .098358158 .6819916 .15031433 .6859894 .17727661 .6899872 .20425415 .6899872 .2142334 .6899872 .2242279 .6899872 .23622132 .6899872 .26818849 .6619873 .29815675 .6429901 .3191223 .6159973 .3321228 .59399417 .3401184Z"/>
</defs>
<path transform="matrix(1,0,0,-1,40.038,68.951)" stroke-width=".3985" stroke-linecap="butt" stroke-miterlimit="10" stroke-linejoin="miter" fill="none" stroke="#000000" d="M-36.85092 0H178.18648"/>
<path transform="matrix(1,0,0,-1,218.42372,68.951)" stroke-width=".3985" stroke-linecap="round" stroke-linejoin="round" fill="none" stroke="#000000" d="M-2.07224 2.39104C-1.69365 .95639-.84999 .27895 0 0-.84999-.27895-1.69365-.95639-2.07224-2.39104"/>
<use data-text="x" xlink:href="#font_1_1" transform="matrix(9.96264,0,0,-9.96264,222.14099,76.759998)"/>
<path transform="matrix(1,0,0,-1,40.038,68.951)" stroke-width=".3985" stroke-linecap="butt" stroke-miterlimit="10" stroke-linejoin="miter" fill="none" stroke="#000000" d="M0-45.35506V59.12996"/>
<path transform="matrix(0,-1,-1,-0,40.038,9.621788)" stroke-width=".3985" stroke-linecap="round" stroke-linejoin="round" fill="none" stroke="#000000" d="M-2.07224 2.39104C-1.69365 .95639-.84999 .27895 0 0-.84999-.27895-1.69365-.95639-2.07224-2.39104"/>
<use data-text="y" xlink:href="#font_1_2" transform="matrix(9.96264,0,0,-9.96264,31.276999,10.598991)"/>
<path transform="matrix(1,0,0,-1,40.038,68.951)" stroke-width=".3985" stroke-linecap="butt" stroke-miterlimit="10" stroke-linejoin="miter" fill="none" stroke="#000000" d="M28.3468 1.70073V-1.70073"/>
<use data-text="1" xlink:href="#font_2_1" transform="matrix(6.97385,0,0,-6.97385,66.399,78.66499)"/>
<path transform="matrix(1,0,0,-1,40.038,68.951)" stroke-width=".3985" stroke-linecap="butt" stroke-miterlimit="10" stroke-linejoin="miter" fill="none" stroke="#000000" d="M56.69362 1.70073V-1.70073"/>
<use data-text="2" xlink:href="#font_2_2" transform="matrix(6.97385,0,0,-6.97385,94.746,78.66499)"/>
<path transform="matrix(1,0,0,-1,40.038,68.951)" stroke-width=".3985" stroke-linecap="butt" stroke-miterlimit="10" stroke-linejoin="miter" fill="none" stroke="#000000" d="M85.04042 1.70073V-1.70073"/>
<use data-text="3" xlink:href="#font_2_3" transform="matrix(6.97385,0,0,-6.97385,123.091999,78.66499)"/>
<path transform="matrix(1,0,0,-1,40.038,68.951)" stroke-width=".3985" stroke-linecap="butt" stroke-miterlimit="10" stroke-linejoin="miter" fill="none" stroke="#000000" d="M113.38724 1.70073V-1.70073"/>
<use data-text="4" xlink:href="#font_2_4" transform="matrix(6.97385,0,0,-6.97385,151.439,78.66499)"/>
<path transform="matrix(1,0,0,-1,40.038,68.951)" stroke-width=".3985" stroke-linecap="butt" stroke-miterlimit="10" stroke-linejoin="miter" fill="none" stroke="#000000" d="M141.73404 1.70073V-1.70073"/>
<use data-text="5" xlink:href="#font_2_5" transform="matrix(6.97385,0,0,-6.97385,179.78499,78.66499)"/>
<path transform="matrix(1,0,0,-1,40.038,68.951)" stroke-width=".3985" stroke-linecap="butt" stroke-miterlimit="10" stroke-linejoin="miter" fill="none" stroke="#000000" d="M170.08086 1.70073V-1.70073"/>
<use data-text="6" xlink:href="#font_2_6" transform="matrix(6.97385,0,0,-6.97385,208.13199,78.66499)"/>
<path transform="matrix(1,0,0,-1,40.038,68.951)" stroke-width=".3985" stroke-linecap="butt" stroke-miterlimit="10" stroke-linejoin="miter" fill="none" stroke="#000000" d="M-28.3468 1.70073V-1.70073"/>
<use data-text="&#x2212;" xlink:href="#font_3_1" transform="matrix(6.97385,0,0,-6.97385,6.5929987,78.66499)"/>
<use data-text="1" xlink:href="#font_2_1" transform="matrix(6.97385,0,0,-6.97385,12.819998,78.66499)"/>
<path transform="matrix(1,0,0,-1,40.038,68.951)" stroke-width=".3985" stroke-linecap="butt" stroke-miterlimit="10" stroke-linejoin="miter" fill="none" stroke="#000000" d="M1.70073 28.3468H-1.70073"/>
<use data-text="1" xlink:href="#font_2_1" transform="matrix(6.97385,0,0,-6.97385,30.846999,42.850999)"/>
<path transform="matrix(1,0,0,-1,40.038,68.951)" stroke-width=".3985" stroke-linecap="butt" stroke-miterlimit="10" stroke-linejoin="miter" fill="none" stroke="#000000" d="M1.70073-28.3468H-1.70073"/>
<use data-text="&#x2212;" xlink:href="#font_3_1" transform="matrix(6.97385,0,0,-6.97385,24.619999,99.129)"/>
<use data-text="1" xlink:href="#font_2_1" transform="matrix(6.97385,0,0,-6.97385,30.846999,99.129)"/>
<path transform="matrix(1,0,0,-1,40.038,68.951)" stroke-width=".3985" stroke-linecap="butt" stroke-dasharray="2.98883,1.99255" stroke-miterlimit="10" stroke-linejoin="miter" fill="none" stroke="#000000" d="M-36.85092 35.43349H178.58498"/>
<use data-text="y" xlink:href="#font_4_2" transform="matrix(6.97385,0,0,-6.97385,202.299,31.008996)"/>
<use data-text="=" xlink:href="#font_2_7" transform="matrix(6.97385,0,0,-6.97385,208.857,31.008996)"/>
<use data-text="5" xlink:href="#font_5_2" transform="matrix(4.98132,0,0,-4.98132,218.436,28.332)"/>
<path transform="matrix(1,0,0,-1,218.436,29.265999)" stroke-width=".339" stroke-linecap="butt" stroke-miterlimit="10" stroke-linejoin="miter" fill="none" stroke="#000000" d="M0 0H3.39"/>
<use data-text="4" xlink:href="#font_5_1" transform="matrix(4.98132,0,0,-4.98132,218.436,33.409997)"/>
<path transform="matrix(1,0,0,-1,40.038,68.951)" stroke-width=".79701" stroke-linecap="butt" stroke-miterlimit="10" stroke-linejoin="miter" fill="none" stroke="#000000" d="M-25.51193-.17949C-25.51193-.17949-24.80191 .95776-24.52922 1.39406-24.25653 1.83035-23.81918 2.52959-23.5465 2.96503-23.27379 3.40048-22.83646 4.09824-22.56375 4.53255-22.29106 4.96687-21.85373 5.66287-21.58104 6.09532-21.30835 6.52777-20.871 7.2193-20.59831 7.64941-20.32562 8.07953-19.88828 8.76794-19.61557 9.1953-19.34288 9.62267-18.90555 10.30553-18.63286 10.72952-18.36017 11.15352-17.92282 11.83092-17.65013 12.25119-17.37744 12.67146-16.94011 13.3427-16.6674 13.75859-16.39471 14.17448-15.95737 14.83766-15.68468 15.24869-15.41199 15.65971-14.97464 16.3153-14.70195 16.72104-14.42926 17.12679-13.99193 17.77322-13.71922 18.17308-13.44653 18.57294-13.00919 19.20941-12.7365 19.60303-12.4638 19.99666-12.02646 20.62325-11.75377 21.01009-11.48108 21.39693-11.04375 22.01161-10.77106 22.39119-10.49835 22.77077-10.061 23.37393-9.78831 23.7459-9.51563 24.11786-9.07828 24.70819-8.80559 25.07205-8.5329 25.43591-8.09557 26.01305-7.82288 26.36838-7.55017 26.72371-7.11282 27.28696-6.84013 27.6331-6.56744 27.97925-6.13011 28.5265-5.85742 28.86325-5.58473 29.19998-5.14738 29.73318-4.8747 30.06007-4.60199 30.38696-4.16466 30.90265-3.89195 31.21928-3.61926 31.5359-3.18193 32.03607-2.90924 32.34215-2.63655 32.64821-2.1992 33.13002-1.92651 33.42522-1.65381 33.72043-1.21648 34.1859-.94377 34.4698-.67108 34.75372-.23376 35.19952 .03891 35.47156 .3116 35.74359 .74895 36.17035 1.02164 36.4305 1.29434 36.69066 1.73167 37.09877 2.00438 37.34662 2.27707 37.59447 2.7144 37.98163 2.98709 38.21689 3.25978 38.45213 3.69713 38.81969 3.96982 39.04216 4.24251 39.26462 4.67984 39.61108 4.95255 39.8203 5.22523 40.02951 5.66258 40.35405 5.93527 40.54999 6.20796 40.74593 6.64531 41.05034 6.918 41.23253 7.19069 41.41473 7.62802 41.6949 7.90073 41.86317 8.17342 42.03145 8.61076 42.29103 8.88345 42.44537 9.15614 42.59972 9.59349 42.83566 9.86618 42.97566 10.13887 43.11568 10.5762 43.32889 10.84889 43.45448 11.1216 43.58008 11.55894 43.76994 11.83163 43.88097 12.10432 43.99197 12.54166 44.15837 12.81435 44.25468 13.08704 44.351 13.52438 44.49358 13.79707 44.5752 14.06978 44.6568 14.50713 44.7762 14.77982 44.84293 15.0525 44.90965 15.48984 45.00455 15.76253 45.05617 16.03522 45.10777 16.47256 45.17838 16.74525 45.21492 17.01796 45.25146 17.45529 45.29803 17.728 45.31958 18.00069 45.34113 18.43802 45.36377 18.71071 45.3702 18.9834 45.3766 19.42075 45.37476 19.69344 45.36588 19.96614 45.357 20.40347 45.33 20.67618 45.30617 20.94887 45.28235 21.3862 45.23291 21.65889 45.19415 21.93158 45.15538 22.36893 45.08078 22.64162 45.02676 22.91432 44.97275 23.35164 44.87386 23.62434 44.80486 23.89703 44.73586 24.33438 44.61328 24.60707 44.52934 24.87976 44.44539 25.31711 44.2984 25.5898 44.19974 25.86249 44.10109 26.29982 43.93149 26.57253 43.81825 26.84521 43.70502 27.28256 43.51149 27.55525 43.38354 27.82794 43.25562 28.26529 43.03836 28.53798 42.89607 28.81067 42.75378 29.248 42.51443 29.5207 42.358 29.7934 42.20155 30.23074 41.93887 30.50343 41.76845 30.77612 41.59802 31.21347 41.31387 31.48616 41.12958 31.75885 40.9453 32.19618 40.6381 32.46887 40.44012 32.74158 40.24216 33.17892 39.9139 33.45161 39.70265 33.7243 39.49141 34.16164 39.14185 34.43433 38.91759 34.70702 38.69333 35.14436 38.32349 35.41705 38.08626 35.68976 37.84903 36.1271 37.45772 36.3998 37.20776 36.67249 36.95781 37.10982 36.5468 37.3825 36.28473 37.6552 36.02266 38.09254 35.59282 38.36523 35.31886 38.63794 35.04492 39.07527 34.59573 39.34798 34.3102 39.62067 34.02464 40.058 33.55768 40.33069 33.26086 40.60338 32.96404 41.04073 32.47871 41.31342 32.17085 41.58612 31.863 42.02344 31.36024 42.29614 31.04195 42.56883 30.72365 43.00618 30.20502 43.27887 29.87668 43.55156 29.54836 43.9889 29.01352 44.2616 28.67554 44.5343 28.33754 44.97162 27.78804 45.24432 27.44063 45.51701 27.09322 45.95436 26.52815 46.22705 26.17157 46.49974 25.81497 46.93709 25.23555 47.20978 24.87048 47.48247 24.50543 47.9198 23.91354 48.1925 23.54044 48.4652 23.16734 48.90254 22.56218 49.17523 22.1814 49.44792 21.80061 49.88527 21.18378 50.15796 20.79597 50.43065 20.40817 50.86798 19.78079 51.14069 19.38634 51.41338 18.99187 51.85072 18.35373 52.12341 17.95291 52.3961 17.55208 52.83344 16.90407 53.10612 16.49742 53.37881 16.09077 53.81616 15.43384 54.08885 15.02202 54.36156 14.61021 54.7989 13.94595 55.0716 13.52934 55.34428 13.11273 55.78162 12.44022 56.0543 12.01935 56.327 11.59848 56.76434 10.92049 57.03703 10.49596 57.30974 10.07143 57.74709 9.38753 58.01978 8.95958 58.29247 8.53163 58.7298 7.84206 59.00249 7.41151 59.27518 6.98099 59.71252 6.2893 59.98521 5.85655 60.25792 5.4238 60.69527 4.72699 60.96796 4.2925 61.24065 3.85802 61.67798 3.16048 61.95067 2.72498 62.22336 2.28947 62.6607 1.58992 62.9334 1.15356 63.2061 .71721 63.64342 .01646 63.91612-.41998 64.18881-.85645 64.62616-1.55626 64.89885-1.99226 65.17154-2.42825 65.60889-3.12733 65.88158-3.56236 66.15428-3.99739 66.5916-4.69408 66.8643-5.12773 67.137-5.56137 67.57434-6.25621 67.84703-6.6879 68.11972-7.11957 68.55707-7.80988 68.82976-8.23897 69.10245-8.66806 69.53978-9.35432 69.81248-9.78053 70.08517-10.20676 70.52252-10.88818 70.79521-11.31085 71.0679-11.73354 71.50523-12.40839 71.77792-12.8269 72.05061-13.24544 72.48796-13.91328 72.76067-14.32738 73.03336-14.74146 73.4707-15.40219 73.7434-15.81142 74.01608-16.22064 74.45341-16.87326 74.7261-17.27684 74.9988-17.68042 75.43614-18.3227 75.70885-18.72023 75.98154-19.11775 76.41888-19.75081 76.69157-20.14197 76.96426-20.53314 77.4016-21.1553 77.67429-21.5395 77.94698-21.9237 78.38432-22.5344 78.65701-22.91109 78.92972-23.2878 79.36707-23.88583 79.63976-24.25455 79.91245-24.62328 80.34978-25.20805 80.62247-25.5686 80.89516-25.92917 81.3325-26.50133 81.6052-26.85324 81.8779-27.20515 82.31523-27.76233 82.58792-28.105 82.86061-28.44766 83.29796-28.99002 83.57065-29.32303 83.84334-29.65604 84.28069-30.18213 84.55338-30.50516 84.82608-30.8282 85.2634-31.33865 85.5361-31.65138 85.80879-31.9641 86.24614-32.45724 86.51883-32.75911 86.79152-33.06097 87.22887-33.53624 87.50156-33.82706 87.77426-34.11787 88.21158-34.57578 88.48428-34.8552 88.75697-35.13461 89.19432-35.57341 89.46701-35.84096 89.7397-36.10849 90.17705-36.52797 90.44974-36.78345 90.72243-37.03891 91.15976-37.43915 91.43246-37.68227 91.70515-37.92537 92.1425-38.30527 92.41519-38.53566 92.68788-38.76604 93.12521-39.12529 93.3979-39.34277 93.6706-39.56026 94.10794-39.89902 94.38065-40.10318 94.65334-40.30734 95.09068-40.6236 95.36337-40.81427 95.63606-41.00493 96.0734-41.30032 96.34608-41.47734 96.61877-41.65437 97.05612-41.92726 97.32883-42.09026 97.60152-42.25325 98.03886-42.5033 98.31155-42.65211 98.58424-42.80095 99.02158-43.02847 99.29427-43.16295 99.56696-43.29742 100.0043-43.50136 100.277-43.62144 100.5497-43.74153 100.98703-43.9229 101.25972-44.02846 101.53241-44.13403 101.96976-44.29149 102.24245-44.38228 102.51514-44.47307 102.95248-44.607 103.22517-44.68289 103.49788-44.7588 103.93521-44.86848 104.2079-44.92944 104.48059-44.9904 104.91794-45.07646 105.19063-45.12234 105.46332-45.16824 105.90067-45.22942 106.17336-45.26033 106.44606-45.29123 106.88338-45.32933 107.15608-45.34511 107.42877-45.36089 107.86612-45.37349 108.13881-45.37408 108.4115-45.37468 108.84885-45.36394 109.12154-45.34943 109.39424-45.3349 109.83156-45.299 110.10426-45.26941 110.37695-45.23984 110.8143-45.18071 111.08699-45.13618 111.35968-45.09166 111.79701-45.00812 112.0697-44.94847 112.3424-44.88882 112.77974-44.78096 113.05244-44.70624 113.32513-44.63153 113.76248-44.49944 114.03517-44.40996 114.30786-44.32048 114.7452-44.16557 115.01788-44.06133 115.29057-43.95709 115.72792-43.77753 116.00063-43.65865 116.27332-43.53976 116.71066-43.33777 116.98335-43.20447 117.25604-43.07118 117.69337-42.84566 117.96606-42.69797 118.23875-42.55028 118.6761-42.30185 118.9488-42.14 119.2215-41.97815 119.65884-41.70718 119.93153-41.53142 120.20422-41.35565 120.64156-41.06262 120.91425-40.8731 121.18694-40.68358 121.62428-40.3686 121.89697-40.16547 122.16968-39.96231 122.60701-39.62523 122.8797-39.40895 123.15239-39.19267 123.58974-38.83585 123.86243-38.6066 124.13512-38.37735 124.57246-37.99869 124.84515-37.75665 125.11786-37.51463 125.55519-37.11668 125.82788-36.86218 126.10057-36.60767 126.53792-36.18889 126.81061-35.92227 127.0833-35.65564 127.52065-35.21873 127.79333-34.9404 128.06604-34.66206 128.50337-34.20607 128.77606-33.91615 129.04875-33.62624 129.4861-33.15189 129.75879-32.85081 130.03148-32.54974 130.46881-32.05788 130.7415-31.74611 131.0142-31.43436 131.45154-30.92592 131.72425-30.60378 131.99694-30.28163 132.43428-29.75629 132.70697-29.42424 132.97966-29.0922 133.41699-28.5522 133.68968-28.21054 133.96239-27.8689 134.39972-27.31288 134.67243-26.9618 134.94512-26.61073 135.38246-26.04002 135.65515-25.68019 135.92784-25.32036 136.36518-24.73636 136.63787-24.3683 136.91056-24.00026 137.3479-23.40343 137.6206-23.02745 137.8933-22.65147 138.33065-22.042 138.60334-21.65846 138.87602-21.27492 139.31336-20.6536 139.58605-20.26309 139.85874-19.87257 140.29608-19.24098 140.56879-18.84393 140.84148-18.4469 141.27881-17.8046 141.5515-17.40143 141.82419-16.99825 142.26154-16.34671 142.53423-15.93814 142.80692-15.52957 143.24427-14.87032 143.51696-14.45671 143.78966-14.0431 144.22699-13.37546 144.49968-12.95709 144.77237-12.53874 145.20972-11.8639 145.4824-11.44147 145.7551-11.01904 146.19245-10.33826 146.46514-9.91246 146.73784-9.48666 147.17517-8.80153 147.44786-8.37262 147.72055-7.94371 148.1579-7.25266 148.43059-6.8211 148.70328-6.38956 149.14063-5.69566 149.41332-5.26225 149.68602-4.82884 150.12335-4.13223 150.39604-3.69733 150.66873-3.2624 151.10608-2.56364 151.37877-2.12764 151.65146-1.69165 152.08879-.99152 152.36148-.55493 152.63419-.11835 153.07152 .58269 153.34423 1.01904 153.61692 1.4554 154.05426 2.1544 154.32695 2.59003 154.59964 3.02565 155.03697 3.72423 155.30966 4.15884 155.58237 4.59346 156.0197 5.28958 156.2924 5.72246 156.5651 6.15533 157.00244 6.84795 157.27513 7.27873 157.54782 7.7095 157.98516 8.39908 158.25785 8.82722 158.53054 9.25536 158.96788 9.93956 159.24059 10.36446 159.51328 10.78935 159.9506 11.46837 160.2233 11.8896 160.49599 12.31082 160.93334 12.98349 161.20603 13.40045 161.47872 13.8174 161.91606 14.48264 162.18877 14.89487 162.46146 15.3071 162.89879 15.96455 163.17148 16.37155 163.44417 16.77855 163.88152 17.42703 164.1542 17.82834 164.4269 18.22964 164.86425 18.86879 165.13695 19.26393 165.40964 19.65906 165.84697 20.28778 166.11966 20.67618 166.39235 21.06458 166.8297 21.68198 167.10239 22.06331 167.37508 22.44464 167.81243 23.05063 168.08512 23.42451 168.35782 23.79839 168.79515 24.39226 169.06784 24.75803 169.34053 25.1238 170.05057 26.06084 170.05057 26.06084"/>
<path transform="matrix(1,0,0,-1,40.038,68.951)" d="M0 35.43349C0 35.43349 .76782 36.18808 1.06273 36.46857 1.35764 36.74905 1.83057 37.18878 2.12547 37.45517 2.42038 37.72157 2.89333 38.13701 3.18823 38.3886 3.48312 38.64017 3.95607 39.03186 4.25096 39.26837 4.54587 39.50488 5.0188 39.87221 5.3137 40.09323 5.60861 40.31425 6.08156 40.65611 6.37646 40.86142 6.67137 41.06673 7.1443 41.38377 7.43921 41.57294 7.7341 41.76208 8.20705 42.05206 8.50195 42.22478 8.79686 42.39749 9.26979 42.66162 9.5647 42.81778 9.8596 42.97394 10.33253 43.21097 10.62744 43.35025 10.92233 43.48952 11.3953 43.69928 11.69019 43.8217 11.98509 43.94412 12.45802 44.12717 12.75293 44.2326 13.04784 44.33806 13.52078 44.49364 13.81569 44.58168 14.1106 44.66971 14.58353 44.79677 14.87843 44.86716 15.17332 44.93755 15.64627 45.03642 15.94116 45.08905 16.23607 45.14168 16.70901 45.21133 17.00392 45.24649 17.29883 45.28165 17.77176 45.32475 18.06667 45.34251 18.36157 45.36026 18.83452 45.37447 19.12941 45.37453 19.42432 45.37459 19.89725 45.36052 20.19215 45.34294 20.48706 45.32538 20.95999 45.28313 21.2549 45.24779 21.5498 45.21243 22.02275 45.14134 22.31766 45.08818 22.61255 45.03502 23.0855 44.9353 23.38039 44.86456 23.6753 44.79381 24.14822 44.6663 24.44313 44.57822 24.73804 44.49011 25.50589 44.22958 25.50589 44.22958L25.51193 35.43349H0Z" fill="#d2d2d2"/>
<use data-text="R" xlink:href="#font_4_1" transform="matrix(6.97385,0,0,-6.97385,49.775999,27.395997)"/>
</svg>
