<svg xmlns="http://www.w3.org/2000/svg" xmlns:xlink="http://www.w3.org/1999/xlink" xmlns:inkscape="http://www.inkscape.org/namespaces/inkscape" version="1.1" width="228.475" height="171.668" viewBox="0 0 228.475 171.668">
<defs>
<path id="font_1_5" d="M.33399964 .30233766C.33999635 .32835389 .36299134 .42037965 .43299867 .42037965 .43798829 .42037965 .46199037 .42037965 .48298646 .40734864 .45498658 .402359 .43499757 .37734986 .43499757 .35334779 .43499757 .33735658 .44599916 .31835938 .47299195 .31835938 .49499513 .31835938 .5269928 .3363495 .5269928 .37635804 .5269928 .42837525 .46798707 .4423828 .43399049 .4423828 .37599183 .4423828 .34098817 .38935853 .32899476 .36634828 .3039856 .43237306 .25 .4423828 .22099304 .4423828 .116989139 .4423828 .05999756 .3133545 .05999756 .28834535 .05999756 .27833558 .069992069 .27833558 .07199097 .27833558 .07998657 .27833558 .08299255 .28033448 .084991458 .28933717 .11898804 .39535523 .18499756 .42037965 .21899414 .42037965 .23799134 .42037965 .272995 .4113617 .272995 .35334779 .272995 .32235719 .2559967 .25532533 .21899414 .11528015 .20298767 .053268434 .16799927 .011245728 .12399292 .011245728 .117996219 .011245728 .09498596 .011245728 .07398987 .024276734 .09899902 .029266358 .12098694 .05027771 .12098694 .07827759 .12098694 .105270389 .09899902 .11328125 .083999637 .11328125 .053985597 .11328125 .0289917 .08728027 .0289917 .055267335 .0289917 .009246826 .07899475-.0107421879 .12298584-.0107421879 .18899536-.0107421879 .22499085 .059280397 .22799683 .0652771 .23999024 .028274537 .27598573-.0107421879 .33599855-.0107421879 .43899537-.0107421879 .49598695 .118270877 .49598695 .14328003 .49598695 .1532898 .4869995 .1532898 .48399354 .1532898 .47499085 .1532898 .47299195 .14929199 .47099305 .14228821 .43798829 .03527832 .36999513 .011245728 .33799745 .011245728 .29899598 .011245728 .2829895 .043273927 .2829895 .07727051 .2829895 .09927368 .2889862 .121276859 .2999878 .16529846L.33399964 .30233766Z"/>
<path id="font_1_6" d="M.48599244 .38136292C.48999024 .39537049 .48999024 .39736939 .48999024 .40437318 .48999024 .42237855 .47599793 .43138124 .46099855 .43138124 .45098878 .43138124 .43499757 .42536927 .42599488 .41036988 .42399598 .405365 .41600038 .37435914 .4119873 .35635377 .40499879 .33035279 .397995 .30334474 .3919983 .27633668L.34700013 .09628296C.34298707 .08126831 .2999878 .011245728 .23399353 .011245728 .18299866 .011245728 .17199707 .055267335 .17199707 .0922699 .17199707 .1382904 .18899536 .20030213 .22299195 .28833009 .23899842 .3293457 .24299622 .3403473 .24299622 .36035157 .24299622 .405365 .21099854 .4423828 .16099549 .4423828 .06599426 .4423828 .0289917 .29733277 .0289917 .28833009 .0289917 .27833558 .038986207 .27833558 .040985109 .27833558 .050994874 .27833558 .051986696 .28033448 .056991579 .29634095 .083999637 .3903656 .12399292 .42037965 .1579895 .42037965 .1659851 .42037965 .18299866 .42037965 .18299866 .3883667 .18299866 .36335755 .17298889 .3373413 .1659851 .31834413 .12599182 .21231079 .10798645 .1552887 .10798645 .10827637 .10798645 .019256592 .17098999-.0107421879 .22999573-.0107421879 .2689972-.0107421879 .30299378 .0062561037 .33099366 .03425598 .31799317-.017745972 .30599977-.06674194 .2659912-.11973572 .23999024-.15385437 .20199585-.18309021 .1559906-.18309021 .14199829-.18309021 .09700012-.18005371 .07998657-.14074707 .09599304-.14074707 .10899353-.14074707 .12298584-.1287384 .1329956-.11973572 .14299011-.10673523 .14299011-.08773804 .14299011-.056747438 .115997318-.052734376 .10598755-.052734376 .08299255-.052734376 .049987794-.068740848 .049987794-.11773682 .049987794-.16796875 .09399414-.20507813 .1559906-.20507813 .25898744-.20507813 .3619995-.11373901 .3899994-.00074768069L.48599244 .38136292Z"/>
<path id="font_2_1" d="M.74398806 .2263794C.7599945 .2263794 .7839966 .2263794 .7839966 .25038148 .7839966 .27539063 .7609863 .27539063 .74398806 .27539063H.147995C.13198853 .27539063 .10798645 .27539063 .10798645 .25138856 .10798645 .2263794 .1309967 .2263794 .147995 .2263794H.74398806Z"/>
<path id="font_3_3" d="M.272995 .33428956C.35099793 .33428956 .40699769 .2803192 .40699769 .1733551 .40699769 .04940796 .33499146 .012466431 .2769928 .012466431 .23699951 .012466431 .14898682 .0234375 .10699463 .082351688 .1539917 .084350589 .16499329 .11735535 .16499329 .13835144 .16499329 .17034912 .14099121 .19335938 .10998535 .19335938 .08198547 .19335938 .053985597 .17634583 .053985597 .13534546 .053985597 .041412355 .1579895-.01953125 .2789917-.01953125 .41799928-.01953125 .5139923 .07336426 .5139923 .1733551 .5139923 .2513275 .44999696 .32929994 .33999635 .35229493 .44499208 .39024354 .48298646 .4650879 .48298646 .5260773 .48298646 .60505679 .3919983 .6640625 .2809906 .6640625 .16999817 .6640625 .084991458 .61006167 .084991458 .5300751 .084991458 .49606324 .10699463 .47706605 .13699341 .47706605 .16799927 .47706605 .18798828 .5000763 .18798828 .5280762 .18798828 .5570679 .16799927 .57806399 .13699341 .5800781 .17199707 .62405398 .24099732 .63505557 .27799989 .63505557 .32299806 .63505557 .38598634 .6130676 .38598634 .5260773 .38598634 .48406983 .37199403 .43814088 .34599305 .4072113 .31298829 .36927796 .2849884 .3672943 .23498535 .36428834 .20999146 .3623047 .20799256 .3623047 .20298767 .3612976 .20098877 .3612976 .19299317 .3592987 .19299317 .34829713 .19299317 .33428956 .20199585 .33428956 .21899414 .33428956H.272995Z"/>
<path id="font_3_2" d="M.5049896 .18203736H.47099305C.46798707 .16001892 .45799256 .100997928 .44499208 .09098816 .43699647 .084991458 .3600006 .084991458 .34599305 .084991458H.1619873C.2669983 .17803955 .3019867 .20603943 .3619995 .25306703 .43598939 .312088 .5049896 .374115 .5049896 .46914674 .5049896 .5900879 .39898683 .6640625 .2709961 .6640625 .14698792 .6640625 .06298828 .57710269 .06298828 .4851532 .06298828 .43414308 .10598755 .42915345 .115997318 .42915345 .13999939 .42915345 .16899109 .44615174 .16899109 .48214723 .16899109 .5001526 .1619873 .53515627 .10998535 .53515627 .14099121 .6060791 .20899964 .62805178 .2559967 .62805178 .35598756 .62805178 .4079895 .5501404 .4079895 .46914674 .4079895 .38212586 .34599305 .3130951 .31399537 .27708436L.07299805 .038986207C.06298828 .02999878 .06298828 .027999878 .06298828 0H.47499085L.5049896 .18203736Z"/>
<path id="font_3_1" d="M.33499146 .63612368C.33499146 .6630554 .33299256 .6640625 .30499269 .6640625 .24099732 .6014404 .1499939 .6004486 .10899353 .6004486V.5644531C.1329956 .5644531 .19898987 .5644531 .2539978 .592453V.08203125C.2539978 .04899597 .2539978 .035995485 .1539917 .035995485H.115997318V0C.13398743 .0009918213 .25698854 .0039978029 .2939911 .0039978029 .32499696 .0039978029 .45098878 .0009918213 .47299195 0V.035995485H.43499757C.33499146 .035995485 .33499146 .04899597 .33499146 .08203125V.63612368Z"/>
<path id="font_1_1" d="M.1789856 .114868167C.13899231 .047973634 .099990848 .033981325 .055999757 .0309906 .04399109 .02999878 .034988405 .02999878 .034988405 .010986328 .034988405 .004989624 .039993287 0 .04798889 0 .07499695 0 .10598755 .0029907227 .13398743 .0029907227 .16699219 .0029907227 .20199585 0 .23399353 0 .23999024 0 .25299073 0 .25299073 .018997193 .25299073 .02999878 .24398804 .0309906 .23699951 .0309906 .21398926 .032989503 .18998719 .04096985 .18998719 .06593323 .18998719 .077926639 .19599915 .088897708 .20399475 .102890018L.27999879 .23068238H.5309906C.5329895 .2097168 .5469971 .07392883 .5469971 .063949588 .5469971 .033981325 .49499513 .0309906 .47499085 .0309906 .46099855 .0309906 .45098878 .0309906 .45098878 .010986328 .45098878 0 .46299745 0 .46499635 0 .5059967 0 .548996 .0029907227 .58999636 .0029907227 .61499026 .0029907227 .6779938 0 .7029877 0 .70899966 0 .72099307 0 .72099307 .019989014 .72099307 .0309906 .71099856 .0309906 .69799807 .0309906 .6359863 .0309906 .6359863 .037979127 .6329956 .06694031L.57199099 .691803C.56999209 .71180728 .56999209 .7158203 .5529938 .7158203 .5369873 .7158203 .5329895 .7088165 .5269928 .69880679L.1789856 .114868167M.29899598 .26168824 .49598695 .5917816 .5279999 .26168824H.29899598Z"/>
<path id="font_1_2" d="M.1599884 .07795715C.1499939 .038986207 .147995 .0309906 .068984989 .0309906 .051986696 .0309906 .041992189 .0309906 .041992189 .010986328 .041992189 0 .050994874 0 .068984989 0H.42599488C.58399966 0 .70199587 .11791992 .70199587 .21585083 .70199587 .28778077 .6439972 .3457489 .5469971 .35673524 .651001 .37573243 .7559967 .44970704 .7559967 .5446625 .7559967 .6186218 .6899872 .6826172 .56999209 .6826172H.23399353C.21499634 .6826172 .20498657 .6826172 .20498657 .6626129 .20498657 .6516113 .21398926 .6516113 .23298645 .6516113 .23498535 .6516113 .2539978 .6516113 .2709961 .6496124 .2889862 .6476135 .2979889 .64660647 .2979889 .6336212 .2979889 .6296234 .29699708 .62661746 .2939911 .614624L.1599884 .07795715M.31098939 .36573792 .37298585 .6136322C.38198854 .64860537 .38398744 .6516113 .4269867 .6516113H.55599978C.6439972 .6516113 .6649933 .5926361 .6649933 .5486603 .6649933 .46069337 .57899478 .36573792 .45700074 .36573792H.31098939M.2659912 .0309906C.2519989 .0309906 .25 .0309906 .24398804 .03199768 .23399353 .032989503 .23098755 .033996583 .23098755 .04197693 .23098755 .04498291 .23098755 .04698181 .23599243 .064971927L.30499269 .34375H.49398805C.58999636 .34375 .60899356 .2698059 .60899356 .22683716 .60899356 .12791443 .519989 .0309906 .4019928 .0309906H.2659912Z"/>
<path id="font_1_3" d="M.7599945 .69506838C.7599945 .69807437 .7579956 .7050781 .7489929 .7050781 .74598696 .7050781 .7449951 .70407107 .73399356 .69306948L.6639862 .61602786C.6549988 .6300354 .60899356 .7050781 .49798585 .7050781 .2749939 .7050781 .049987794 .48391725 .049987794 .25172425 .049987794 .08659363 .16799927-.022460938 .32099916-.022460938 .4079895-.022460938 .48399354 .017532349 .5369873 .063583377 .6299896 .14564514 .6469879 .2367096 .6469879 .23971558 .6469879 .24972534 .6369934 .24972534 .6349945 .24972534 .6289978 .24972534 .6239929 .24772644 .621994 .23971558 .61299136 .21069336 .58999636 .13963318 .5209961 .081588748 .45199586 .025543213 .3889923 .008529663 .33699037 .008529663 .24699402 .008529663 .14099121 .060577394 .14099121 .21670532 .14099121 .27374269 .1619873 .43588258 .2619934 .55296328 .32299806 .62402346 .4169922 .67407229 .5059967 .67407229 .60798647 .67407229 .6669922 .5970001 .6669922 .48091126 .6669922 .44088746 .6639862 .43988038 .6639862 .4298706 .6639862 .41986085 .6749878 .41986085 .67900088 .41986085 .69200137 .41986085 .69200137 .42185975 .69699099 .43988038L.7599945 .69506838Z"/>
<path id="font_1_4" d="M.15899658 .07795715C.14898682 .038986207 .14698792 .0309906 .067993167 .0309906 .050994874 .0309906 .039993287 .0309906 .039993287 .011993408 .039993287 0 .04899597 0 .067993167 0H.39898683C.6069946 0 .80400088 .21087647 .80400088 .42974855 .80400088 .5706482 .71899417 .6826172 .56900027 .6826172H.23298645C.21398926 .6826172 .20298767 .6826172 .20298767 .66360476 .20298767 .6516113 .21199036 .6516113 .23199463 .6516113 .24499512 .6516113 .2630005 .65060427 .2749939 .6496124 .29100038 .6476135 .29699708 .64460757 .29699708 .6336212 .29699708 .6296234 .29599 .62661746 .29299928 .614624L.15899658 .07795715M.375 .6136322C.38398744 .64860537 .38598634 .6516113 .42900086 .6516113H.5359955C.6339874 .6516113 .71699526 .5986328 .71699526 .46672059 .71699526 .41775514 .69699099 .25386048 .6119995 .1439209 .58299258 .10694885 .5039978 .0309906 .3809967 .0309906H.2679901C.2539978 .0309906 .2519989 .0309906 .24598694 .03199768 .23599243 .032989503 .23298645 .033996583 .23298645 .041992189 .23298645 .04498291 .23298645 .04698181 .23799134 .064971927L.375 .6136322Z"/>
<path id="font_4_1" d="M.55400088 .6796112H.032989503V.64860537H.056991579C.13398743 .64860537 .13598633 .637619 .13598633 .6016388V.07795715C.13598633 .041992189 .13398743 .0309906 .056991579 .0309906H.032989503V0C.067993167 .0029907227 .1459961 .0029907227 .18499756 .0029907227 .22599793 .0029907227 .31698609 .0029907227 .35299684 0V.0309906H.31999208C.22499085 .0309906 .22499085 .04399109 .22499085 .07896423V.6086273C.22499085 .6416168 .22698975 .64860537 .27398683 .64860537H.3769989C.519989 .64860537 .54100039 .5896454 .5569916 .45472718H.58200076L.55400088 .6796112Z"/>
</defs>
<path transform="matrix(1,0,0,-1,105.235,123.125)" stroke-width=".3985" stroke-linecap="butt" stroke-miterlimit="10" stroke-linejoin="miter" fill="none" stroke="#000000" d="M-102.04868 0H105.72542"/>
<path transform="matrix(1,0,0,-1,210.96042,123.125)" d="M1.99252 0-1.19551 1.59401 0 0-1.19551-1.59401"/>
<use data-text="x" xlink:href="#font_1_5" transform="matrix(9.96264,0,0,-9.96264,216.472,130.935)"/>
<path transform="matrix(1,0,0,-1,105.235,123.125)" stroke-width=".3985" stroke-linecap="butt" stroke-miterlimit="10" stroke-linejoin="miter" fill="none" stroke="#000000" d="M0-45.35506V60.37036"/>
<path transform="matrix(0,-1,-1,-0,105.235,62.75464)" d="M1.99252 0-1.19551 1.59401 0 0-1.19551-1.59401"/>
<use data-text="y" xlink:href="#font_1_6" transform="matrix(9.96264,0,0,-9.96264,96.474,61.940004)"/>
<path transform="matrix(1,0,0,-1,105.235,123.125)" stroke-width=".3985" stroke-linecap="butt" stroke-miterlimit="10" stroke-linejoin="miter" fill="none" stroke="#000000" d="M-85.04042 1.70073V-1.70073"/>
<use data-text="&#x2212;" xlink:href="#font_2_1" transform="matrix(6.97385,0,0,-6.97385,15.097,132.84)"/>
<use data-text="3" xlink:href="#font_3_3" transform="matrix(6.97385,0,0,-6.97385,21.324,132.84)"/>
<path transform="matrix(1,0,0,-1,105.235,123.125)" stroke-width=".3985" stroke-linecap="butt" stroke-miterlimit="10" stroke-linejoin="miter" fill="none" stroke="#000000" d="M-56.69362 1.70073V-1.70073"/>
<use data-text="&#x2212;" xlink:href="#font_2_1" transform="matrix(6.97385,0,0,-6.97385,43.444,132.84)"/>
<use data-text="2" xlink:href="#font_3_2" transform="matrix(6.97385,0,0,-6.97385,49.67,132.84)"/>
<path transform="matrix(1,0,0,-1,105.235,123.125)" stroke-width=".3985" stroke-linecap="butt" stroke-miterlimit="10" stroke-linejoin="miter" fill="none" stroke="#000000" d="M-28.3468 1.70073V-1.70073"/>
<use data-text="&#x2212;" xlink:href="#font_2_1" transform="matrix(6.97385,0,0,-6.97385,71.79,132.84)"/>
<use data-text="1" xlink:href="#font_3_1" transform="matrix(6.97385,0,0,-6.97385,78.017,132.84)"/>
<path transform="matrix(1,0,0,-1,105.235,123.125)" stroke-width=".3985" stroke-linecap="butt" stroke-miterlimit="10" stroke-linejoin="miter" fill="none" stroke="#000000" d="M28.3468 1.70073V-1.70073"/>
<use data-text="1" xlink:href="#font_3_1" transform="matrix(6.97385,0,0,-6.97385,131.59601,132.84)"/>
<path transform="matrix(1,0,0,-1,105.235,123.125)" stroke-width=".3985" stroke-linecap="butt" stroke-miterlimit="10" stroke-linejoin="miter" fill="none" stroke="#000000" d="M56.69362 1.70073V-1.70073"/>
<use data-text="2" xlink:href="#font_3_2" transform="matrix(6.97385,0,0,-6.97385,159.943,132.84)"/>
<path transform="matrix(1,0,0,-1,105.235,123.125)" stroke-width=".3985" stroke-linecap="butt" stroke-miterlimit="10" stroke-linejoin="miter" fill="none" stroke="#000000" d="M85.04042 1.70073V-1.70073"/>
<use data-text="3" xlink:href="#font_3_3" transform="matrix(6.97385,0,0,-6.97385,188.289,132.84)"/>
<path transform="matrix(1,0,0,-1,105.235,123.125)" stroke-width=".79701" stroke-linecap="butt" stroke-miterlimit="10" stroke-linejoin="miter" fill="none" stroke="#000000" d="M-85.04042 119.73991C-85.04042 119.73991-84.42319 114.79694-84.18614 112.9469-83.9491 111.09688-83.56892 108.18744-83.3319 106.40605-83.09485 104.62468-82.71468 101.82289-82.47763 100.10788-82.24059 98.39287-81.86041 95.69514-81.62337 94.04543-81.38632 92.3957-81.00615 89.80322-80.7691 88.21783-80.53206 86.63245-80.15187 84.1419-79.91483 82.61906-79.67778 81.09622-79.29762 78.70436-79.06058 77.24219-78.82353 75.78001-78.44336 73.48311-78.20631 72.0807-77.96927 70.67831-77.5891 68.4784-77.35205 67.13463-77.115 65.79088-76.73483 63.68256-76.49779 62.39575-76.26074 61.10895-75.88057 59.09164-75.64354 57.86017-75.4065 56.62868-75.0263 54.69719-74.78926 53.52008-74.55222 52.34297-74.17204 50.50009-73.935 49.37636-73.69795 48.25261-73.31778 46.49287-73.08073 45.42079-72.84369 44.34872-72.46352 42.67148-72.22647 41.6495-71.98943 40.62753-71.60927 39.02792-71.37222 38.0551-71.13518 37.08229-70.755 35.56264-70.51796 34.63806-70.28091 33.7135-69.90073 32.26935-69.66368 31.39142-69.42664 30.51349-69.04646 29.14326-68.80942 28.31046-68.57237 27.47765-68.1922 26.17767-67.95515 25.3891-67.71812 24.60054-67.33795 23.37227-67.1009 22.6269-66.86386 21.88153-66.48369 20.72058-66.24664 20.01698-66.0096 19.31339-65.62943 18.21896-65.39238 17.55583-65.15533 16.89268-64.77515 15.8611-64.5381 15.23744-64.30106 14.61377-63.9209 13.64603-63.68385 13.06091-63.44681 12.47578-63.06664 11.5681-62.82959 11.02019-62.59254 10.47226-62.21237 9.62387-61.97533 9.11183-61.73828 8.5998-61.35811 7.80693-61.12106 7.32977-60.88402 6.85262-60.50385 6.1158-60.2668 5.67271-60.02975 5.22964-59.64958 4.54659-59.41254 4.13634-59.17549 3.7261-58.79532 3.0947-58.55827 2.71588-58.32123 2.33708-57.94106 1.75429-57.70401 1.40616-57.46696 1.05803-57.08679 .5248-56.84975 .20674-56.6127-.1113-56.23253-.59682-55.9955-.88625-55.75845-1.17569-55.37828-1.61717-55.14124-1.87936-54.90419-2.14156-54.524-2.54028-54.28696-2.77602-54.04991-3.01173-53.66974-3.3684-53.4327-3.57837-53.19565-3.78836-52.81548-4.1042-52.57843-4.28946-52.34138-4.47472-51.96123-4.75183-51.72418-4.91362-51.48714-5.07541-51.10696-5.31654-50.86992-5.45558-50.63287-5.59462-50.2527-5.79866-50.01566-5.91582-49.77861-6.03296-49.39842-6.20352-49.16138-6.29991-48.92433-6.39629-48.54416-6.53413-48.30713-6.61047-48.07008-6.6868-47.68991-6.79297-47.45287-6.8501-47.21582-6.90723-46.83565-6.98335-46.5986-7.02225-46.36156-7.06113-45.98138-7.1087-45.74434-7.13037-45.5073-7.15204-45.12712-7.17317-44.89008-7.17838-44.65303-7.1836-44.27286-7.1786-44.03581-7.168-43.79877-7.1574-43.4186-7.12732-43.18155-7.10182-42.9445-7.07632-42.56433-7.02359-42.32729-6.98418-42.09024-6.94476-41.71007-6.87035-41.47302-6.81766-41.23598-6.76497-40.8558-6.66963-40.61876-6.6044-40.38173-6.53917-40.00156-6.42441-39.76451-6.34749-39.52747-6.27057-39.14728-6.13774-38.91023-6.0499-38.67319-5.96204-38.29301-5.81236-38.05597-5.71425-37.81892-5.61613-37.43875-5.45036-37.2017-5.3427-36.96466-5.23503-36.5845-5.05469-36.34746-4.93826-36.11041-4.82185-35.73024-4.62802-35.4932-4.50357-35.25615-4.3791-34.87598-4.17308-34.63893-4.04118-34.40189-3.90927-34.0217-3.69153-33.78465-3.55284-33.5476-3.41415-33.16743-3.18634-32.93039-3.0416-32.69336-2.89684-32.31319-2.65971-32.07614-2.50957-31.8391-2.35942-31.45892-2.1144-31.22188-1.95938-30.98483-1.80437-30.60466-1.55159-30.36761-1.39233-30.13057-1.23306-29.7504-.97424-29.51335-.81143-29.2763-.64862-28.89612-.38454-28.65909-.21886-28.42204-.05316-28.04187 .21457-27.80482 .38278-27.56778 .551-27.1876 .82333-26.95056 .99352-26.71352 1.1637-26.33334 1.438-26.0963 1.60945-25.85925 1.7809-25.47908 2.05699-25.24203 2.2293-25.00499 2.40158-24.62483 2.67868-24.38779 2.85127-24.15074 3.02386-23.77055 3.30092-23.53351 3.47327-23.29646 3.64561-22.91629 3.92189-22.67924 4.09352-22.4422 4.26515-22.06203 4.53984-21.82498 4.71033-21.58794 4.88081-21.20776 5.15356-20.97073 5.32237-20.73369 5.49118-20.35352 5.7604-20.11647 5.92705-19.87943 6.09369-19.49925 6.35939-19.2622 6.52353-19.02516 6.68767-18.64497 6.94887-18.40793 7.11005-18.17088 7.27124-17.79071 7.5275-17.55367 7.68532-17.31662 7.84315-16.93646 8.0935-16.69942 8.24762-16.46237 8.40172-16.0822 8.6461-15.84515 8.79607-15.60811 8.94604-15.22794 9.18318-14.99089 9.32854-14.75385 9.47388-14.37367 9.70314-14.13663 9.84369-13.89958 9.98422-13.5194 10.2062-13.28235 10.34154-13.04532 10.47687-12.66515 10.68932-12.4281 10.81906-12.19106 10.9488-11.81088 11.1527-11.57384 11.27669-11.33679 11.40067-10.95662 11.59488-10.71957 11.71268-10.48253 11.83047-10.10236 12.01443-9.86531 12.12576-9.62827 12.23708-9.24811 12.41039-9.01106 12.51503-8.77402 12.61969-8.39383 12.78241-8.15678 12.8801-7.91974 12.97778-7.53957 13.12877-7.30252 13.21921-7.06548 13.30965-6.6853 13.4489-6.44826 13.53194-6.21121 13.61499-5.83104 13.74242-5.594 13.81784-5.35696 13.89328-4.97679 14.00813-4.73975 14.07564-4.5027 14.14316-4.12251 14.24498-3.88547 14.30444-3.64842 14.36392-3.26825 14.45303-3.0312 14.50427-2.79416 14.55553-2.41399 14.631-2.17694 14.67384-1.9399 14.71667-1.55974 14.7788-1.3227 14.81313-1.08565 14.84744-.70547 14.89563-.46843 14.92125-.23138 14.94687 .14876 14.98094 .3858 14.9978 .62285 15.01466 1.00304 15.0348 1.24008 15.04279 1.47713 15.05077 1.8573 15.05641 2.09435 15.05533 2.33139 15.05426 2.71155 15.04515 2.9486 15.035 3.18564 15.02487 3.56581 15.00143 3.80286 14.98224 4.0399 14.96304 4.42007 14.92503 4.65712 14.89659 4.89417 14.86815 5.27434 14.8149 5.51138 14.7772 5.74843 14.73953 6.12862 14.67189 6.36565 14.62497 6.60269 14.57803 6.98286 14.4952 7.21991 14.43896 7.45695 14.38274 7.83713 14.28514 8.07417 14.21967 8.31122 14.15419 8.69139 14.04178 8.92844 13.96707 9.16548 13.89236 9.54565 13.7651 9.7827 13.68117 10.01974 13.59721 10.3999 13.45502 10.63695 13.36195 10.874 13.26889 11.25418 13.1125 11.49123 13.0103 11.72827 12.9081 12.10844 12.73666 12.34549 12.62534 12.58253 12.51402 12.9627 12.3282 13.19975 12.20795 13.4368 12.08768 13.81697 11.88766 14.05402 11.75853 14.29105 11.62938 14.67122 11.41501 14.90826 11.27711 15.14531 11.1392 15.52548 10.91104 15.76253 10.76456 15.99957 10.61807 16.37976 10.3763 16.6168 10.22128 16.85385 10.06627 17.23402 9.81065 17.47107 9.64731 17.70811 9.48396 18.08827 9.21544 18.32532 9.04393 18.56236 8.87242 18.94254 8.59068 19.17958 8.41113 19.41663 8.23157 19.7968 7.93706 20.03384 7.74976 20.27089 7.56247 20.65106 7.25603 20.8881 7.06117 21.12515 6.86632 21.50534 6.54756 21.74239 6.3453 21.97942 6.14307 22.35959 5.8129 22.59663 5.60352 22.83368 5.39413 23.21385 5.05254 23.4509 4.8362 23.68794 4.61986 24.06812 4.26715 24.30516 4.04422 24.5422 3.82129 24.92238 3.45856 25.15942 3.22932 25.39647 3.00008 25.77663 2.62723 26.01367 2.39192 26.25072 2.1566 26.6309 1.7744 26.86795 1.53333 27.105 1.29225 27.48517 .90083 27.72221 .65442 27.95926 .40802 28.33943 .00887 28.57648-.24263 28.81352-.49414 29.1937-.90196 29.43074-1.15833 29.66779-1.41469 30.04794-1.82968 30.28499-2.09045 30.52203-2.35121 30.9022-2.77286 31.13925-3.0377 31.3763-3.30254 31.75648-3.73074 31.99353-3.99924 32.23058-4.26773 32.61075-4.7012 32.8478-4.97289 33.08484-5.24455 33.46501-5.68283 33.70204-5.95732 33.93909-6.23183 34.31926-6.67435 34.5563-6.95131 34.79335-7.22827 35.17352-7.67462 35.41057-7.9535 35.64761-8.23238 36.02779-8.68092 36.26483-8.9613 36.50188-9.24167 36.88206-9.69286 37.11911-9.97432 37.35616-10.25578 37.73631-10.70792 37.97336-10.98991 38.2104-11.27191 38.59058-11.72469 38.82762-12.0068 39.06467-12.28893 39.44484-12.74164 39.68188-13.02327 39.91893-13.3049 40.2991-13.75609 40.53615-14.03671 40.7732-14.31732 41.15337-14.7667 41.3904-15.04582 41.62744-15.32494 42.00763-15.77138 42.24467-16.04845 42.48172-16.32552 42.8619-16.76837 43.09894-17.04286 43.33598-17.31734 43.71616-17.75562 43.9532-18.02687 44.19025-18.29811 44.57042-18.73044 44.80746-18.99792 45.04451-19.2654 45.42467-19.69154 45.66171-19.95468 45.89876-20.21783 46.27893-20.63647 46.51598-20.89459 46.75302-21.15271 47.13321-21.56264 47.37025-21.81505 47.6073-22.06746 47.98747-22.46768 48.22452-22.71385 48.46156-22.96 48.84174-23.35011 49.07878-23.58931 49.31581-23.82852 49.69598-24.20642 49.93303-24.43794 50.17007-24.66948 50.55025-25.03479 50.7873-25.25804 51.02434-25.48128 51.40451-25.83269 51.64156-26.04698 51.8786-26.26129 52.25879-26.59804 52.49583-26.80263 52.73288-27.00722 53.11304-27.3275 53.35008-27.52151 53.58713-27.71555 53.9673-28.01819 54.20435-28.20103 54.44139-28.38388 54.82156-28.66847 55.05861-28.83945 55.29565-29.01044 55.67583-29.27515 55.91287-29.43333 56.14992-29.59152 56.53009-29.83496 56.76714-29.97963 57.00418-30.12431 57.38435-30.34576 57.6214-30.47618 57.85844-30.60658 58.23862-30.80424 58.47566-30.91953 58.7127-31.0348 59.09288-31.20776 59.32993-31.30708 59.56697-31.4064 59.94714-31.55281 60.18419-31.63539 60.42123-31.71796 60.8014-31.83727 61.03844-31.90225 61.27548-31.96724 61.65565-32.05737 61.8927-32.10382 62.12975-32.15027 62.50993-32.20998 62.74698-32.23703 62.98402-32.2641 63.3642-32.29211 63.60124-32.29889 63.83829-32.30566 64.21846-32.30026 64.4555-32.28592 64.69255-32.27159 65.07271-32.23195 65.30975-32.19551 65.5468-32.15909 65.92697-32.08284 66.16402-32.02338 66.40106-31.9639 66.78123-31.85028 67.01828-31.76686 67.25533-31.68346 67.63551-31.53052 67.87256-31.42215 68.1096-31.31377 68.48978-31.12003 68.7268-30.98572 68.96385-30.85141 69.34402-30.6153 69.58107-30.45412 69.81812-30.29292 70.19829-30.01295 70.43533-29.82391 70.67238-29.63489 71.05255-29.30959 71.2896-29.09163 71.52664-28.87366 71.90681-28.5009 72.14386-28.25293 72.3809-28.00496 72.76108-27.58331 72.99812-27.30437 73.23517-27.02544 73.61534-26.55348 73.85239-26.2425 74.08943-25.93152 74.4696-25.40707 74.70665-25.06296 74.9437-24.71886 75.32387-24.14058 75.56091-23.76233 75.79796-23.38406 76.17813-22.75029 76.41518-22.33669 76.6522-21.92308 77.0324-21.23132 77.26944-20.78128 77.50648-20.33124 77.88666-19.58063 78.1237-19.09308 78.36075-18.60555 78.74092-17.79353 78.97797-17.26733 79.21501-16.74112 79.59518-15.86664 79.83223-15.30058 80.06927-14.73454 80.44943-13.79472 80.68648-13.18764 80.92352-12.58054 81.3037-11.57425 81.54074-10.92503 81.77779-10.27582 82.15797-9.20105 82.39502-8.50844 82.63206-7.81581 83.01224-6.67032 83.24928-5.9331 83.48633-5.1959 83.8665-3.97813 84.10355-3.19514 84.34058-2.41216 84.9578-.2898 84.9578-.2898"/>
<path transform="matrix(1,0,0,-1,105.235,123.125)" d="M-85.04042 119.73991C-85.04042 119.73991-84.78134 117.65215-84.68184 116.85876-84.58234 116.0654-84.42276 114.80278-84.32327 114.02176-84.22377 113.24074-84.0642 111.99855-83.9647 111.22972-83.8652 110.46089-83.70561 109.23747-83.60611 108.48051-83.50662 107.72357-83.34705 106.51913-83.24754 105.77412-83.14806 105.02913-82.98848 103.8441-82.88898 103.11098-82.78947 102.37787-82.62988 101.21173-82.5304 100.49023-82.4309 99.76875-82.27132 98.62091-82.17183 97.91101-82.07233 97.20111-81.91275 96.07213-81.81325 95.37375-81.71376 94.67537-81.55417 93.56454-81.45467 92.87758-81.35518 92.1906-81.1956 91.09816-81.0961 90.42249-80.9966 89.7468-80.83704 88.67215-80.73753 88.00761-80.63803 87.3431-80.47844 86.28642-80.37895 85.633-80.27945 84.97957-80.11987 83.94064-80.02039 83.29816-79.92088 82.65565-79.7613 81.63388-79.6618 81.00224-79.56232 80.3706-79.40273 79.36653-79.30322 78.7457-79.20374 78.12486-79.04416 77.13779-78.94466 76.52763-78.84515 75.91748-78.68558 74.94768-78.58609 74.34808-78.48659 73.74849-78.327 72.7953-78.22751 72.20615-78.128 71.617-77.96843 70.68068-77.86893 70.10185-77.76944 69.52301-77.60986 68.60258-77.51036 68.03432-77.41087 67.46605-77.25128 66.56415-77.15178 66.00615-77.05228 65.44814-76.89272 64.56085-76.79321 64.01257-76.69371 63.4643-76.53413 62.59293-76.43465 62.05449-76.33514 61.51604-76.17555 60.66043-76.07607 60.13184-75.97656 59.60326-75.81699 58.7635-75.71748 58.24469-75.618 57.72588-75.45842 56.90164-75.35892 56.39255-75.25943 55.88347-75.09984 55.07495-75.00034 54.57545-74.90083 54.07597-74.74126 53.28261-74.64177 52.79254-74.54227 52.30247-74.38269 51.52412-74.2832 51.04335-74.1837 50.56259-74.02411 49.799-73.9246 49.32748-73.82512 48.85596-73.66554 48.10718-73.56604 47.64491-73.46655 47.18263-73.30698 46.4488-73.20747 45.99565-73.10797 45.5425-72.9484 44.82303-72.84889 44.37881-72.74939 43.93459-72.58981 43.22934-72.49033 42.794-72.39082 42.35866-72.23125 41.66776-72.13176 41.24118-72.03226 40.81462-71.87267 40.13731-71.77316 39.71951-71.67368 39.3017-71.5141 38.63907-71.4146 38.22986-71.31511 37.82063-71.15553 37.1708-71.05603 36.77003-70.95653 36.36926-70.79695 35.73361-70.69746 35.34137-70.59796 34.94913-70.43837 34.32692-70.33888 33.94296-70.23938 33.559-70.0798 32.94943-69.9803 32.57399-69.88081 32.19855-69.72124 31.6043-69.62173 31.23701-69.52225 30.86974-69.36266 30.28639-69.26315 29.92685-69.16365 29.5673-69.00409 28.99722-68.90459 28.64568-68.80508 28.29413-68.64551 27.73672-68.54602 27.39305-68.44652 27.04936-68.28693 26.50447-68.18744 26.16853-68.08794 25.83258-67.92836 25.29991-67.82886 24.97171-67.72937 24.6435-67.5698 24.12357-67.47029 23.80298-67.3708 23.48238-67.21121 22.97417-67.11171 22.66109-67.0122 22.34799-66.85263 21.85207-66.75314 21.54643-66.65364 21.24078-66.49406 20.75648-66.39458 20.45816-66.29507 20.15984-66.13548 19.68735-66.036 19.39629-65.9365 19.10522-65.77692 18.64423-65.67741 18.36037-65.57793 18.07649-65.41835 17.62721-65.31885 17.35037-65.21936 17.07353-65.05977 16.63493-64.96027 16.36507-64.86076 16.09518-64.70119 15.66817-64.6017 15.40526-64.5022 15.14233-64.34262 14.72618-64.24313 14.47012-64.14363 14.21405-63.98404 13.80893-63.88454 13.55963-63.78505 13.31033-63.62547 12.91597-63.52597 12.67336-63.42648 12.43073-63.2669 12.04701-63.1674 11.81087-63.0679 11.57472-62.90833 11.20091-62.80882 10.9713-62.70932 10.7417-62.54974 10.37898-62.45026 10.15598-62.35075 9.93298-62.19118 9.58076-62.09169 9.364-61.99219 9.14723-61.8326 8.80429-61.7331 8.59366-61.6336 8.38301-61.47403 8.05026-61.37453 7.8458-61.27504 7.64133-61.11546 7.31839-61.01596 7.12-60.91646 6.92159-60.75687 6.60822-60.65738 6.41582-60.55788 6.22342-60.3983 5.91974-60.29881 5.73328-60.19931 5.54683-60.03973 5.25261-59.94023 5.07191-59.84074 4.89124-59.68115 4.60582-59.58165 4.4309-59.48216 4.25597-59.32259 3.98032-59.22308 3.81108-59.12358 3.64186-58.96402 3.3748-58.86452 3.21115-58.76501 3.0475-58.60542 2.78961-58.50594 2.63155-58.40643 2.47348-58.24686 2.22446-58.14737 2.07184-58.04787 1.91922-57.88829 1.67886-57.78879 1.5316-57.6893 1.38434-57.52972 1.15237-57.43022 1.01039-57.33073 .86841-57.17114 .64497-57.07164 .50821-56.97214 .37146-56.71307 .02463-56.71307 .02463L-56.69362 0H-85.04042Z" fill="#dfdfdf"/>
<path transform="matrix(1,0,0,-1,105.235,123.125)" d="M-56.69362 0C-56.69362 0-56.17734-.6643-55.97906-.90616-55.78078-1.148-55.46278-1.52058-55.26451-1.74312-55.06622-1.96564-54.74823-2.30627-54.54996-2.51001-54.35167-2.71375-54.03368-3.0259-53.8354-3.21158-53.63712-3.39725-53.31912-3.68031-53.12085-3.84828-52.92256-4.01625-52.60457-4.27126-52.4063-4.42224-52.20801-4.57323-51.89001-4.80206-51.69174-4.93654-51.49345-5.07103-51.17546-5.27306-50.97719-5.39157-50.7789-5.51009-50.4609-5.68759-50.26263-5.7908-50.06435-5.89403-49.74635-6.04726-49.54808-6.13554-49.3498-6.22382-49.0318-6.35309-48.83353-6.42706-48.63524-6.50105-48.31725-6.60867-48.11897-6.66885-47.92068-6.72903-47.60269-6.81398-47.40442-6.8609-47.20613-6.90784-46.88814-6.97284-46.68987-7.0071-46.49158-7.04137-46.1736-7.08598-45.97533-7.10788-45.77704-7.12976-45.45905-7.15483-45.26077-7.16498-45.06248-7.17511-44.74449-7.18211-44.54622-7.18098-44.34793-7.17986-44.02994-7.1687-43.83167-7.15677-43.63338-7.14484-43.31538-7.11703-43.11711-7.09491-42.91882-7.07277-42.60083-7.0292-42.40256-6.99716-42.20427-6.96512-41.88628-6.90538-41.688-6.86392-41.48972-6.82248-41.17172-6.74857-40.97345-6.69827-40.77516-6.64798-40.45717-6.56021-40.2589-6.50146-40.06061-6.44273-39.74261-6.34164-39.54434-6.27481-39.34605-6.20796-39.02806-6.09402-38.82979-6.0196-38.6315-5.94519-38.3135-5.81995-38.11523-5.73846-37.91695-5.65698-37.59895-5.52051-37.40068-5.43224-37.2024-5.34396-36.8844-5.19678-36.68613-5.1022-36.48784-5.00763-36.16985-4.85094-35.97157-4.75055-35.77328-4.65016-35.4553-4.48448-35.25703-4.37857-35.05875-4.27266-34.74075-4.0982-34.54248-3.98712-34.3442-3.87604-34.0262-3.69365-33.82793-3.57794-33.62964-3.46225-33.31165-3.27321-33.11337-3.15318-32.91508-3.03317-32.59709-2.83691-32.39882-2.71286-32.20053-2.5888-31.88254-2.3867-31.68427-2.25912-31.48598-2.13155-31.16798-1.92406-30.96971-1.79329-30.77142-1.66252-30.45343-1.45021-30.25516-1.31664-30.05687-1.18306-29.73888-.96663-29.5406-.83046-29.34232-.69429-29.02432-.4734-28.82605-.33519-28.62776-.19699-28.30977 .02571-28.1115 .16565-27.91321 .30559-27.59521 .53181-27.39694 .67345-27.19865 .81506-26.88066 1.04367-26.68239 1.18643-26.4841 1.3292-26.1661 1.5589-25.96783 1.70245-25.76955 1.846-25.45155 2.07698-25.25328 2.22107-25.055 2.36514-24.73701 2.59666-24.53874 2.74098-24.34045 2.88531-24.02246 3.11699-23.82419 3.26132-23.6259 3.40564-23.3079 3.63727-23.10963 3.78122-22.91135 3.92519-22.59335 4.15567-22.39508 4.29898-22.1968 4.44229-21.8788 4.67172-21.68053 4.81413-21.48224 4.95656-21.16425 5.18419-20.96597 5.3254-20.76768 5.46661-20.44969 5.69212-20.25142 5.8319-20.05313 5.97166-19.73514 6.19469-19.53687 6.33278-19.33858 6.47086-19.02058 6.69107-18.82231 6.82716-18.62402 6.96327-18.30603 7.17989-18.10776 7.31377-17.90947 7.44765-17.59148 7.66068-17.3932 7.79216-17.19492 7.92365-16.87692 8.13269-16.67865 8.26146-16.48036 8.39024-16.16237 8.59448-15.9641 8.72038-15.76581 8.84628-15.44781 9.04608-15.24954 9.16893-15.05125 9.29178-14.73326 9.48631-14.53499 9.60579-14.3367 9.72527-14.01872 9.9141-13.82045 10.0301-13.62216 10.14612-13.30417 10.3296-13.1059 10.44188-12.90761 10.55417-12.58961 10.73106-12.39134 10.83939-12.19305 10.9477-11.87506 11.11836-11.67679 11.22261-11.4785 11.32684-11.1605 11.49068-10.96223 11.59071-10.76395 11.69073-10.44595 11.84807-10.24768 11.94365-10.0494 12.03925-9.7314 12.18877-9.53313 12.27974-9.33484 12.37071-9.01685 12.51309-8.81857 12.59938-8.62029 12.68567-8.30229 12.82036-8.10402 12.90173-7.90573 12.98311-7.58774 13.10957-7.38947 13.1859-7.19118 13.26222-6.87318 13.3808-6.67491 13.45192-6.47662 13.52304-6.15863 13.63264-5.96036 13.69847-5.76207 13.76428-5.44408 13.86598-5.2458 13.9264-5.04752 13.98683-4.72952 14.07924-4.53125 14.13403-4.33296 14.18881-4.01498 14.27211-3.81671 14.32132-3.61842 14.37053-3.30043 14.4452-3.10216 14.48871-2.90387 14.53221-2.58588 14.59734-2.3876 14.6349-2.18932 14.67247-1.87132 14.72784-1.67305 14.75948-1.47476 14.79109-1.15677 14.83719-.9585 14.86285-.76021 14.88853-.44221 14.92505-.24394 14.9446-.04565 14.96416 .27231 14.99054 .47058 15.00386 .66887 15.01718 .98686 15.03351 1.18513 15.04063 1.38342 15.04776 1.70142 15.05443 1.89969 15.05533 2.09798 15.05623 2.41597 15.05264 2.61424 15.04712 2.81253 15.04161 3.13052 15.0274 3.3288 15.01553 3.52708 15.00366 3.84508 14.97972 4.04335 14.96147 4.24164 14.94324 4.55963 14.9087 4.7579 14.88405 4.95619 14.85939 5.27419 14.81483 5.47246 14.7837 5.67075 14.75256 5.98874 14.69725 6.18701 14.65956 6.3853 14.62187 6.70328 14.55617 6.90155 14.51205 7.09984 14.46796 7.41783 14.39223 7.6161 14.34164 7.81439 14.29106 8.13239 14.20457 8.33066 14.14745 8.52895 14.09032 8.84694 13.99341 9.04521 13.92987 9.2435 13.86632 9.5615 13.75935 9.75977 13.68938 9.95805 13.6194 10.27605 13.50198 10.47432 13.42552 10.6726 13.34908 10.9906 13.22113 11.18887 13.13834 11.38716 13.05553 11.70515 12.9178 11.90343 12.82863 12.10172 12.73944 12.41971 12.59105 12.61798 12.49557 12.81627 12.40012 13.13426 12.24223 13.33253 12.14046 13.53082 12.03868 13.84882 11.87 14.04709 11.762 14.24538 11.65398 14.56337 11.47597 14.76164 11.3619 14.95993 11.24782 15.27792 11.05981 15.4762 10.93973 15.67448 10.81966 15.99248 10.62247 16.19075 10.49638 16.38904 10.3703 16.70703 10.16304 16.9053 10.03098 17.10359 9.8989 17.42157 9.68227 17.61984 9.54437 17.81813 9.40648 18.13612 9.18056 18.3344 9.037 18.53268 8.89345 18.85068 8.65887 19.04895 8.50974 19.24724 8.36061 19.56523 8.1168 19.7635 7.96214 19.96179 7.8075 20.27979 7.55507 20.47806 7.39508 20.67635 7.2351 20.99434 6.97421 21.19261 6.809 21.3909 6.64378 21.7089 6.37468 21.90717 6.20432 22.10545 6.03395 22.42345 5.75638 22.62172 5.58102 22.82 5.40567 23.138 5.12059 23.33627 4.94044 23.53456 4.76028 23.85255 4.46744 24.05083 4.28255 24.24911 4.09764 24.56711 3.7972 24.76538 3.60779 24.96367 3.41838 25.28166 3.11111 25.47993 2.91745 25.67822 2.72379 25.99622 2.40984 26.19449 2.21199 26.39278 2.01413 26.71077 1.69327 26.90904 1.49138 27.10733 1.2895 27.42532 .96265 27.6236 .75693 27.82188 .55121 28.33813 .00864 28.33813 .00864L28.3468 0H-56.69362Z" fill="#dfdfdf"/>
<path transform="matrix(1,0,0,-1,105.235,123.125)" d="M28.3468 0C28.3468 0 28.60588-.2739 28.70537-.37975 28.80487-.48561 28.96445-.65622 29.06393-.76299 29.16344-.86974 29.32301-1.04163 29.42252-1.14923 29.522-1.25684 29.6816-1.43008 29.7811-1.53853 29.88058-1.64696 30.04016-1.82162 30.13966-1.93085 30.23917-2.04005 30.39873-2.21587 30.49823-2.32574 30.59773-2.43562 30.75732-2.61223 30.85681-2.72282 30.95631-2.83342 31.11589-3.01152 31.21538-3.12291 31.31488-3.23428 31.47446-3.41362 31.57396-3.5256 31.67345-3.63759 31.83304-3.81746 31.93254-3.93002 32.03203-4.04259 32.1916-4.2238 32.2911-4.33704 32.39061-4.45029 32.55019-4.63243 32.64967-4.74622 32.74918-4.86 32.90877-5.04288 33.00826-5.15714 33.10776-5.2714 33.26733-5.45497 33.36684-5.56976 33.46632-5.68457 33.6259-5.86931 33.7254-5.98459 33.82489-6.09987 33.98448-6.28497 34.08398-6.40068 34.18349-6.51639 34.34305-6.70241 34.44255-6.81853 34.54205-6.93463 34.70163-7.1211 34.80112-7.23764 34.90062-7.35417 35.06021-7.5416 35.1597-7.65851 35.2592-7.7754 35.41878-7.96307 35.51828-8.08023 35.61777-8.19737 35.77734-8.38539 35.87685-8.50282 35.97633-8.62025 36.13593-8.80896 36.23543-8.9267 36.33493-9.04443 36.4945-9.23354 36.594-9.35146 36.6935-9.46938 36.85307-9.6586 36.95256-9.77664 37.05206-9.89468 37.21165-10.08403 37.31116-10.20226 37.41064-10.32048 37.57022-10.51039 37.66972-10.62874 37.76921-10.74709 37.92879-10.93683 38.02829-11.05522 38.12779-11.17361 38.28737-11.36368 38.38687-11.48213 38.48637-11.60059 38.64595-11.79066 38.74544-11.90906 38.84494-12.02745 39.00452-12.21713 39.104-12.33553 39.2035-12.45392 39.3631-12.6441 39.4626-12.76245 39.56209-12.8808 39.72166-13.07033 39.82117-13.18849 39.92065-13.30667 40.08023-13.49608 40.17973-13.61412 40.27924-13.73216 40.43883-13.92151 40.53831-14.0393 40.63782-14.1571 40.7974-14.34563 40.89688-14.46318 40.99638-14.58075 41.15596-14.76933 41.25546-14.88666 41.35495-15.00397 41.51454-15.19177 41.61404-15.30879 41.71353-15.42583 41.87311-15.61343 41.97261-15.73009 42.07211-15.84674 42.23167-16.03343 42.33118-16.14966 42.43068-16.2659 42.59026-16.45215 42.68974-16.56792 42.78925-16.68367 42.94884-16.86868 43.04832-16.98402 43.14783-17.09937 43.3074-17.28445 43.4069-17.39926 43.5064-17.51407 43.66597-17.69733 43.76547-17.81146 43.86496-17.9256 44.02455-18.10835 44.12405-18.22195 44.22356-18.33556 44.38313-18.51726 44.48262-18.63026 44.58212-18.74326 44.7417-18.9242 44.84119-19.0364 44.94069-19.14864 45.10028-19.32767 45.19978-19.43912 45.29927-19.55055 45.45885-19.72887 45.55835-19.83965 45.65784-19.95041 45.81741-20.12769 45.91692-20.23756 46.01642-20.34744 46.176-20.52263 46.2755-20.63162 46.375-20.7406 46.53458-20.915 46.63406-21.02307 46.73357-21.13113 46.89314-21.30356 46.99263-21.41061 47.09213-21.51767 47.25172-21.68867 47.35123-21.79471 47.45071-21.90074 47.61029-22.06995 47.7098-22.17491 47.80928-22.27986 47.96886-22.44734 48.06836-22.55121 48.16786-22.65509 48.32745-22.82095 48.42694-22.92363 48.52644-23.0263 48.68602-23.18982 48.7855-23.29129 48.88501-23.39276 49.04459-23.55486 49.14409-23.65506 49.24358-23.75528 49.40317-23.91473 49.50267-24.01363 49.60216-24.11252 49.76173-24.2703 49.86124-24.36789 49.96074-24.46547 50.1203-24.62086 50.2198-24.71693 50.3193-24.813 50.4789-24.9658 50.57838-25.06038 50.67789-25.15495 50.83746-25.30556 50.93695-25.39862 51.03645-25.49168 51.19603-25.63966 51.29553-25.73125 51.39502-25.82281 51.55461-25.9687 51.65411-26.05865 51.7536-26.1486 51.91318-26.29138 52.01268-26.37961 52.11218-26.46782 52.27176-26.60803 52.37125-26.6945 52.47075-26.78098 52.63034-26.91817 52.72983-27.0029 52.82933-27.08763 52.9889-27.22237 53.08841-27.30524 53.1879-27.3881 53.34747-27.51929 53.44698-27.60023 53.54646-27.68118 53.70605-27.80965 53.80556-27.88873 53.90506-27.96783 54.06462-28.09328 54.16412-28.17032 54.26363-28.24736 54.4232-28.36917 54.52269-28.4441 54.6222-28.51906 54.78178-28.63771 54.88127-28.71056 54.98077-28.7834 55.14035-28.89853 55.23985-28.96922 55.33934-29.0399 55.49892-29.15163 55.59842-29.2201 55.6979-29.28856 55.85748-29.39662 55.95699-29.46275 56.05649-29.52888 56.21608-29.63297 56.31557-29.69675 56.41507-29.76054 56.67413-29.92253 56.67413-29.92253L56.69362 0H28.3468Z" fill="#dfdfdf"/>
<path transform="matrix(1,0,0,-1,105.235,123.125)" d="M56.69362-29.93465C56.69362-29.93465 56.95268-30.09212 57.05219-30.15091 57.15167-30.20972 57.31125-30.30223 57.41075-30.35852 57.51025-30.41483 57.66982-30.50293 57.76932-30.55664 57.86882-30.61035 58.02841-30.69458 58.1279-30.74565 58.2274-30.7967 58.38698-30.87637 58.48647-30.92473 58.58597-30.97308 58.74554-31.04866 58.84505-31.09427 58.94453-31.13988 59.10413-31.21074 59.20363-31.25345 59.30312-31.29617 59.46269-31.3624 59.5622-31.40225 59.6617-31.4421 59.82127-31.50377 59.92076-31.54066 60.02026-31.57756 60.17986-31.63435 60.27934-31.66826 60.37885-31.70215 60.53842-31.7542 60.63792-31.78503 60.73741-31.81587 60.89699-31.86287 60.99649-31.89058 61.09598-31.91829 61.25557-31.9604 61.35507-31.98488 61.45457-32.00935 61.61414-32.04588 61.71364-32.06706 61.81314-32.08824 61.97272-32.11967 62.0722-32.13756 62.1717-32.15543 62.3313-32.18149 62.43079-32.19594 62.53029-32.2104 62.68987-32.23082 62.78937-32.24179 62.88885-32.25276 63.04843-32.26761 63.14793-32.2751 63.24742-32.2826 63.40701-32.29198 63.50652-32.29587 63.60602-32.29976 63.7656-32.30305 63.86508-32.30322 63.96458-32.30339 64.12416-32.30069 64.22365-32.29716 64.32315-32.29362 64.48274-32.28502 64.58224-32.2777 64.68173-32.27039 64.84131-32.25555 64.94081-32.24438 65.0403-32.23323 65.19987-32.21236 65.29938-32.19725 65.39888-32.18214 65.55846-32.15459 65.65796-32.13539 65.75746-32.1162 65.91704-32.08205 66.01653-32.05884 66.11603-32.03563 66.2756-31.9953 66.37509-31.968 66.4746-31.9407 66.63419-31.89359 66.73369-31.86203 66.83318-31.83047 66.99275-31.77637 67.09225-31.7405 67.19174-31.70462 67.35132-31.64359 67.45082-31.60336 67.55032-31.56316 67.70992-31.49527 67.8094-31.45068 67.9089-31.4061 68.06848-31.33115 68.16797-31.282 68.26747-31.23285 68.42705-31.1502 68.52655-31.09645 68.62604-31.04268 68.78563-30.95284 68.88513-30.89444 68.98462-30.83604 69.1442-30.73865 69.2437-30.67558 69.3432-30.6125 69.50276-30.5077 69.60226-30.43983 69.70177-30.37198 69.86136-30.25911 69.96085-30.18637 70.06035-30.11365 70.21992-29.99327 70.31941-29.91562 70.41891-29.83797 70.57849-29.70937 70.678-29.62668 70.77748-29.54398 70.93706-29.40736 71.03656-29.31958 71.13605-29.23178 71.29564-29.08684 71.39514-28.99388 71.49464-28.90091 71.65422-28.7478 71.75371-28.64957 71.85321-28.55133 72.01279-28.38939 72.11227-28.28581 72.21178-28.18224 72.37137-28.01193 72.47087-27.90302 72.57036-27.79408 72.72993-27.61519 72.82944-27.50075 72.92892-27.3863 73.0885-27.19812 73.188-27.07817 73.2875-26.9582 73.44708-26.7617 73.54659-26.63611 73.64609-26.51051 73.80566-26.30415 73.90515-26.17285 74.00465-26.04156 74.16423-25.82677 74.26372-25.68971 74.36322-25.55264 74.52281-25.32794 74.62231-25.18494 74.7218-25.04193 74.88138-24.80792 74.98088-24.65897 75.08037-24.51003 75.23994-24.26633 75.33945-24.11137 75.43895-23.95642 75.59854-23.70322 75.69803-23.54216 75.79753-23.38109 75.9571-23.1177 76.0566-22.95045 76.1561-22.7832 76.31567-22.51018 76.41518-22.33669 76.51466-22.16318 76.67426-21.8799 76.77376-21.69998 76.87325-21.52007 77.03282-21.22626 77.13232-21.03993 77.23183-20.85359 77.39139-20.54984 77.49089-20.35695 77.5904-20.16406 77.74998-19.84923 77.84947-19.64975 77.94897-19.45027 78.10855-19.12534 78.20804-18.9192 78.30754-18.71306 78.46712-18.37697 78.56662-18.16399 78.6661-17.951 78.8257-17.60388 78.9252-17.38412 79.02469-17.16437 79.18427-16.80675 79.28377-16.58003 79.38327-16.3533 79.54285-15.9838 79.64233-15.74998 79.74184-15.51617 79.90143-15.13576 80.00092-14.89487 80.10042-14.65398 80.26-14.26187 80.3595-14.01378 80.45898-13.7657 80.61856-13.3621 80.71806-13.10675 80.81755-12.85141 80.97714-12.43614 81.07664-12.17334 81.17615-11.91054 81.33571-11.4829 81.43521-11.21266 81.53471-10.94244 81.69429-10.50336 81.79378-10.22562 81.89328-9.94788 82.05287-9.4963 82.15236-9.21089 82.25186-8.92548 82.41144-8.46162 82.51094-8.16847 82.61043-7.87532 82.77-7.39894 82.8695-7.09793 82.969-6.79692 83.12859-6.30782 83.22809-5.99886 83.32759-5.68991 83.48717-5.1881 83.58665-4.87122 83.68616-4.55435 83.84573-4.04002 83.94522-3.71506 84.04472-3.39008 84.2043-2.86224 84.3038-2.52904 84.40329-2.19585 84.56288-1.655 84.66238-1.3136 84.76187-.97218 85.02095-.06833 85.02095-.06833L85.04042 0H56.69362Z" fill="#dfdfdf"/>
<use data-text="A" xlink:href="#font_1_1" transform="matrix(9.96264,0,0,-9.96264,30.633004,136.451)"/>
<use data-text="B" xlink:href="#font_1_2" transform="matrix(9.96264,0,0,-9.96264,81.365,106.687)"/>
<use data-text="C" xlink:href="#font_1_3" transform="matrix(9.96264,0,0,-9.96264,143.838,115.190998)"/>
<use data-text="D" xlink:href="#font_1_4" transform="matrix(9.96264,0,0,-9.96264,174.67401,136.451)"/>
<use data-text="&#x0393;" xlink:href="#font_4_1" transform="matrix(9.96264,0,0,-9.96264,187.16101,86.845)"/>
</svg>
