<svg xmlns="http://www.w3.org/2000/svg" xmlns:xlink="http://www.w3.org/1999/xlink" xmlns:inkscape="http://www.inkscape.org/namespaces/inkscape" version="1.1" width="115.625" height="71.003" viewBox="0 0 115.625 71.003">
<defs>
<path id="font_1_1" d="M.5109863 .35635377C.5309906 .44036866 .5309906 .49430848 .5309906 .5063019 .5309906 .5432434 .5249939 .7050781 .41999818 .7050781 .33699037 .7050781 .27198792 .60017397 .27198792 .52227786 .27198792 .42536927 .3659973 .3773651 .43598939 .35435487 .4139862 .264328 .397995 .20631409 .36499024 .1382904 .35198976 .11027527 .3039856 .011245728 .24499512 .011245728 .1769867 .011245728 .17098999 .06227112 .17098999 .091278079 .17098999 .11727905 .1789856 .14929199 .18399048 .17230225 .18998719 .1973114 .19599915 .21931458 .20298767 .24932862L.21499634 .29733277C.21998596 .3143463 .22499085 .3353424 .22499085 .35035707 .22499085 .41036988 .17999268 .4423828 .13398743 .4423828 .08799744 .4423828 .068984989 .4033661 .05999756 .38536073 .041992189 .35134889 .0289917 .29133607 .0289917 .28833009 .0289917 .27833558 .038986207 .27833558 .040985109 .27833558 .050994874 .27833558 .051986696 .2793274 .057998659 .30133058 .07499695 .37236024 .09498596 .42037965 .1309967 .42037965 .147995 .42037965 .1619873 .41236878 .1619873 .37435914 .1619873 .35235597 .147995 .29833985 .13899231 .26132203 .1349945 .24432373 .12599182 .21031189 .12098694 .18830872 .11299133 .15829468 .10699463 .13328552 .10699463 .104278568 .10699463 .009246826 .1769867-.0107421879 .24198914-.0107421879 .34799195-.0107421879 .45498658 .14729309 .5059967 .3353424 .5159912 .3333435 .54499819 .32633973 .5509949 .32633973 .5549927 .32633973 .5609894 .3293457 .5609894 .3383484 .5609894 .346344 .55400088 .34735108 .5399933 .35035707L.5109863 .35635377M.44198609 .37635804C.3929901 .39337159 .29699708 .43237306 .29699708 .52326968 .29699708 .5851898 .34899903 .68307498 .4189911 .68307498 .44400025 .68307498 .47099305 .6680908 .47099305 .56422427 .47099305 .501297 .45498658 .43338014 .44198609 .37635804Z"/>
</defs>
<path transform="matrix(1,0,0,-1,57.813,63.287)" stroke-width=".79701" stroke-linecap="butt" stroke-miterlimit="10" stroke-linejoin="miter" fill="none" stroke="#000000" d="M-54.42593-4.32881-53.73732-4.01326-53.04872-3.69629-52.3601-3.37654-51.67152-3.05542-50.9829-2.73154-50.29431-2.40558-49.60568-2.07756-48.9171-1.74673-48.22849-1.41385-47.53989-1.07959-46.85127-.74187-46.16269-.40207-45.47406-.05879-44.78548 .2858-44.09686 .6339-43.40826 .98407-42.71965 1.33774-42.03107 1.69415-41.34244 2.05263-40.65385 2.41528-39.96527 2.78-39.27664 3.14885-38.58806 3.52051-37.89943 3.89493-37.21085 4.27347-36.52223 4.65547-35.83363 5.04095-35.14502 5.43059-34.45644 5.82367-33.7678 6.22025-33.07922 6.62163-32.39061 7.02649-31.70201 7.43619-31.0134 7.85074-30.32481 8.26942-29.6362 8.69229-28.9476 9.12138-28.259 9.5546-27.57039 9.99336-26.88179 10.43768-26.19318 10.88821-25.50458 11.34428-24.816 11.80656-24.12737 12.2751-23.43878 12.75055-22.75018 13.23291-22.06157 13.7229-21.37297 14.22049-20.68437 14.72638-19.99577 15.2399-19.30716 15.7638-18.61858 16.29597-17.92995 16.83858-17.24136 17.39153-16.55275 17.95557-15.86415 18.53137-15.17554 19.1196-14.48694 19.7224-13.79832 20.33833-13.10974 20.97089-12.42111 21.62003-11.73253 22.28719-11.04391 22.9744-10.35532 23.68376-9.6667 24.41667-8.97812 25.17586-8.28949 25.9655-7.6009 26.78836-6.91232 27.6493-6.2237 28.5538-5.53511 29.51094-4.8465 30.52896-4.1579 31.62312-3.46928 32.81142-2.78069 34.12494-2.09207 35.61424-1.40349 37.37762-.71486 39.66144-.02628 44.26297"/>
<path transform="matrix(1,0,0,-1,57.813,63.287)" stroke-width=".79701" stroke-linecap="butt" stroke-miterlimit="10" stroke-linejoin="miter" fill="none" stroke="#000000" d="M0 45.35506 .68858 39.76732 1.37717 37.45238 2.0658 35.67514 2.75438 34.17822 3.443 32.85915 4.13159 31.66602 4.8202 30.56912 5.50879 29.54832 6.1974 28.58981 6.886 27.68321 7.5746 26.8209 8.26321 25.99596 8.95181 25.20561 9.64041 24.44504 10.32903 23.71075 11.01761 23.00139 11.70624 22.31349 12.39482 21.64496 13.08344 20.9951 13.77203 20.36256 14.46065 19.74524 15.14923 19.14314 15.83786 18.55351 16.52644 17.9777 17.21503 17.41298 17.90366 16.85933 18.59224 16.31676 19.28085 15.78386 19.96945 15.25996 20.65807 14.74576 21.34665 14.23987 22.03528 13.74158 22.72386 13.25162 23.41249 12.76855 24.10107 12.2931 24.78969 11.82388 25.47829 11.36157 26.1669 10.90552 26.85548 10.45497 27.54411 10.00998 28.2327 9.57121 28.92131 9.13799 29.60991 8.70891 30.29852 8.28465 30.9871 7.86667 31.67574 7.45212 32.36432 7.04242 33.05293 6.63686 33.74153 6.23615 34.43011 5.83823 35.11874 5.44513 35.80733 5.0555 36.49594 4.67003 37.18454 4.288 37.87315 3.90944 38.56174 3.53435 39.25037 3.16272 39.93895 2.79453 40.62755 2.42842 41.31616 2.06645 42.00476 1.70728 42.69336 1.35088 43.38197 .99792 44.07057 .64705 44.75917 .29965 45.44778-.04564 46.13638-.38892 46.82498-.72871 47.5136-1.06644 48.20218-1.40138 48.89081-1.73428 49.57939-2.06508 50.268-2.39313 50.9566-2.71909 51.64519-3.04297 52.3338-3.36409 53.0224-3.6838 53.71101-4.00146 54.3996-4.31706"/>
<path transform="matrix(1,0,0,-1,57.813,63.287)" stroke-width=".79701" stroke-linecap="butt" stroke-miterlimit="10" stroke-linejoin="miter" fill="none" stroke="#000000" d="M-54.42593-4.32881H54.42593"/>
<path transform="matrix(1,0,0,-1,57.813,63.287)" stroke-width=".3985" stroke-linecap="butt" stroke-miterlimit="10" stroke-linejoin="miter" fill="none" stroke="#000000" d="M0 45.35506 24.56668 53.3947"/>
<path transform="matrix(.95038,-.311,-.311,-.95038,82.56903,9.830349)" stroke-width=".3985" stroke-linecap="round" stroke-linejoin="round" fill="none" stroke="#000000" d="M-2.07224 2.39104C-1.69365 .95639-.84999 .27895 0 0-.84999-.27895-1.69365-.95639-2.07224-2.39104"/>
<use data-text="&#x03d1;" xlink:href="#font_1_1" transform="matrix(9.96264,0,0,-9.96264,86.277,13.228004)"/>
<path transform="matrix(1,0,0,-1,57.813,63.287)" stroke-width=".3985" stroke-linecap="butt" stroke-miterlimit="10" stroke-linejoin="miter" fill="none" stroke="#000000" d="M0 45.35506-24.56668 53.3947"/>
<path transform="matrix(-.95038,-.311,-.311,.95038,33.05697,9.830349)" stroke-width=".3985" stroke-linecap="round" stroke-linejoin="round" fill="none" stroke="#000000" d="M-2.07224 2.39104C-1.69365 .95639-.84999 .27895 0 0-.84999-.27895-1.69365-.95639-2.07224-2.39104"/>
<path transform="matrix(1,0,0,-1,57.813,63.287)" stroke-width=".3985" stroke-linecap="butt" stroke-miterlimit="10" stroke-linejoin="miter" fill="none" stroke="#000000" d="M8.16354 48.07625C6.6928 52.60263 1.8311 55.07985-2.69527 53.6091-5.3183 52.7569-7.37592 50.69928-8.22812 48.07625"/>
</svg>
