<svg xmlns="http://www.w3.org/2000/svg" xmlns:xlink="http://www.w3.org/1999/xlink" xmlns:inkscape="http://www.inkscape.org/namespaces/inkscape" version="1.1" width="170.077" height="156.639" viewBox="0 0 170.077 156.639">
<defs>
<path id="font_1_1" d="M.18199158 .116867069C.1329956 .036987306 .08898926 .033981325 .04899597 .0309906 .041992189 .02999878 .036987306 .021987915 .036987306 .0129852299 .036987306 .0069885256 .040985109 0 .050994874 0 .069992069 0 .116989139 .0029907227 .13598633 .0029907227 .1579895 .0029907227 .21199036 0 .23399353 0 .23999024 0 .25299073 0 .25299073 .017990113 .25299073 .02999878 .24099732 .0309906 .23799134 .0309906 .22898865 .03199768 .19099427 .033981325 .19099427 .063949588 .19099427 .077926639 .20199585 .09689331 .20498657 .101882938L.28399659 .23068238H.54499819C.5479889 .2077179 .5509949 .17378235 .55400088 .14881897 .55799868 .10987854 .56399539 .06593323 .56399539 .062942508 .56399539 .047973634 .5499878 .0309906 .49198915 .0309906 .48199464 .0309906 .46899415 .0309906 .46899415 .0129852299 .46899415 .0019989014 .47698976 0 .48399354 0 .5029907 0 .5269928 .0019989014 .5469971 .0019989014 .5669861 .0019989014 .59098818 .0029907227 .6069946 .0029907227 .6399994 .0029907227 .6419983 .0029907227 .66600039 .0019989014 .6819916 .0009918213 .7049866 0 .72099307 0 .72698977 0 .73999026 0 .73999026 .017990113 .73999026 .0309906 .72898867 .0309906 .71699526 .0309906 .6569977 .0309906 .6559906 .037979127 .6529999 .06694031L.58299258 .68881228C.58099368 .7108154 .5799866 .7158203 .5629883 .7158203 .548996 .7158203 .54299929 .7088165 .5349884 .69581606L.18199158 .116867069M.30299378 .26168824 .5049896 .5917816 .5419922 .26168824H.30299378Z"/>
<path id="font_1_2" d="M.16299439 .07595825C.1539917 .039993287 .1519928 .0309906 .07699585 .0309906 .057998659 .0309906 .04699707 .0309906 .04699707 .0129852299 .04699707 0 .056991579 0 .07499695 0H.43899537C.6009979 0 .7200012 .11793518 .7200012 .21485901 .7200012 .28581239 .6609955 .34576417 .56199648 .35676576 .6759949 .37875367 .772995 .4547119 .772995 .54367068 .772995 .6216278 .70098879 .6826172 .58200076 .6826172H.23999024C.22200012 .6826172 .20999146 .6826172 .20999146 .6646118 .20999146 .6516113 .21899414 .6516113 .23999024 .6516113 .24398804 .6516113 .2619934 .6516113 .27799989 .6496124 .29499818 .6476135 .3019867 .6456146 .3019867 .63461306 .3019867 .6296234 .30099488 .6256256 .2979889 .614624L.16299439 .07595825M.31900025 .36776734 .37998963 .6126251C.3889923 .64860537 .3909912 .6516113 .43299867 .6516113H.56799319C.6719971 .6516113 .68099978 .5726471 .68099978 .54766848 .68099978 .45870973 .58799746 .36776734 .47499085 .36776734H.31900025M.2709961 .0309906C.25698854 .0309906 .25498963 .0309906 .25099183 .03199768 .24099732 .032989503 .23799134 .033996583 .23799134 .040985109 .23799134 .04397583 .23799134 .04597473 .24299622 .063964847L.31199647 .34277345H.5C.56199648 .34277345 .625 .31578065 .625 .22485352 .625 .12593079 .5339966 .0309906 .4139862 .0309906H.2709961Z"/>
<path id="font_1_5" d="M.7579956 .4328766C.7579956 .5910034 .6519928 .7050781 .49499513 .7050781 .2709961 .7050781 .049987794 .47491456 .049987794 .24671936 .049987794 .082595828 .16299439-.022460938 .31399537-.022460938 .5369873-.022460938 .7579956 .2006836 .7579956 .4328766M.32099916 .007537842C.22499085 .007537842 .1459961 .080596927 .1459961 .2217102 .1459961 .27374269 .16299439 .42185975 .24598694 .53596499 .31799317 .6340332 .4139862 .677063 .48799134 .677063 .58599856 .677063 .6669922 .60601809 .6669922 .4709015 .6669922 .40585328 .6409912 .2597351 .5569916 .14663697 .48199464 .046569826 .3899994 .007537842 .32099916 .007537842Z"/>
<path id="font_1_3" d="M.7739868 .67807009C.7769928 .6900635 .7769928 .69207766 .7769928 .69407656 .7769928 .69506838 .776001 .7050781 .7649994 .7050781 .7589874 .7050781 .7559967 .70207217 .7489929 .69407656L.6879883 .6270294C.6839905 .62202456 .6799927 .61802676 .67900088 .61802676 .6779938 .61802676 .6769867 .61901858 .67099 .62602236 .6559906 .64604189 .61099246 .7050781 .5069885 .7050781 .27799989 .7050781 .050994874 .48291017 .050994874 .25473023 .050994874 .09159851 .16999817-.022460938 .33099366-.022460938 .43499757-.022460938 .5169983 .031555177 .55599978 .0665741 .6469879 .14764405 .6639862 .23571778 .6639862 .23971558 .6639862 .24372864 .6619873 .25073243 .6499939 .25073243 .6389923 .25073243 .6369934 .24472046 .6359863 .24072266 .58699038 .079589847 .44400025 .008529663 .34399415 .008529663 .24699402 .008529663 .14399719 .06758118 .14399719 .21870423 .14399719 .2637329 .15899658 .42185975 .2599945 .54496768 .31999208 .61701968 .41799928 .67407229 .5139923 .67407229 .625 .67407229 .6839905 .5890045 .6839905 .47891236 .6839905 .44488526 .68099978 .43788148 .68099978 .4298706 .68099978 .41886903 .69299319 .41886903 .69599917 .41886903 .70899966 .41886903 .70899966 .42086793 .71398928 .43988038L.7739868 .67807009Z"/>
<path id="font_1_4" d="M.16099549 .07595825C.1519928 .039993287 .1499939 .0309906 .07499695 .0309906 .055999757 .0309906 .04499817 .0309906 .04499817 .0129852299 .04499817 0 .054992677 0 .07299805 0H.4099884C.6239929 0 .82299807 .21188355 .82299807 .42774964 .82299807 .56466677 .7369995 .6826172 .58099368 .6826172H.23799134C.21998596 .6826172 .20799256 .6826172 .20799256 .6646118 .20799256 .6516113 .21699524 .6516113 .23799134 .6516113 .24198914 .6516113 .2599945 .6516113 .27598573 .6496124 .29299928 .6476135 .2999878 .6456146 .2999878 .63461306 .2999878 .6296234 .29899598 .6256256 .29599 .614624L.16099549 .07595825M.3809967 .6126251C.3899994 .64860537 .3919983 .6516113 .43399049 .6516113H.5469971C.651001 .6516113 .73399356 .5936432 .73399356 .46472169 .73399356 .40675355 .70899966 .24685669 .6309967 .1479187 .58499148 .09095764 .5019989 .0309906 .3919983 .0309906H.27198792C.2579956 .0309906 .2559967 .0309906 .2519989 .03199768 .24198914 .032989503 .23899842 .033996583 .23899842 .040985109 .23899842 .04399109 .23899842 .04598999 .24398804 .063964847L.3809967 .6126251Z"/>
<path id="font_2_1" d="M1.0209961 .6016388C1.0299988 .63861086 1.0319977 .64660647 1.1059876 .64660647 1.1269989 .64660647 1.1399994 .64660647 1.1399994 .66760256 1.1399994 .6826172 1.1279907 .6826172 1.1100006 .6826172H.973999C.94499209 .6826172 .94400027 .6816101 .93099978 .6626129L.54499819 .09295654 .44599916 .65560916C.44099427 .6816101 .44099427 .6826172 .41099549 .6826172H.2679901C.24798584 .6826172 .23498535 .6826172 .23498535 .660614 .23498535 .64660647 .24699402 .64660647 .2689972 .64660647 .2849884 .64660647 .2889862 .64660647 .30699159 .64460757 .32699586 .64260867 .32899476 .64060977 .32899476 .63061526 .32899476 .6296234 .32899476 .6236267 .32499696 .6086426L.19898987 .10694885C.18998719 .07296753 .1749878 .038986207 .09498596 .035995485 .08699036 .035995485 .07398987 .034988405 .07398987 .01399231 .07398987 .0129852299 .07499695 0 .08898926 0 .11898804 0 .16099549 .0039978029 .19299317 .0039978029 .21699524 .0039978029 .2749939 0 .29899598 0 .3039856 0 .31900025 0 .31900025 .021987915 .31900025 .034988405 .30599977 .035995485 .29699708 .035995485 .23298645 .037994386 .23298645 .0639801 .23298645 .07797241 .23298645 .081970218 .23298645 .08695984 .23699951 .10295105L.36999513 .63461306H.37098695L.47799684 .026992798C.48098756 .008987427 .48298646 0 .49798585 0 .5119934 0 .519989 .010986328 .5269928 .021987915L.94699099 .64460757 .94799807 .6436157 .8069916 .07797241C.798996 .04399109 .7969971 .035995485 .71899417 .035995485 .70098879 .035995485 .68899539 .035995485 .68899539 .01399231 .68899539 .0129852299 .68899539 0 .7049866 0 .723999 0 .746994 .0029907227 .7669983 .0029907227 .7869873 .0029907227 .80999758 .0039978029 .8299866 .0039978029 .8580017 .0039978029 .92900088 0 .95700076 0 .96299746 0 .9779968 0 .9779968 .021987915 .9779968 .035995485 .96598818 .035995485 .94599917 .035995485 .94499209 .035995485 .9259949 .035995485 .9079895 .037994386 .8849945 .039993287 .8849945 .04298401 .8849945 .052978517 .8849945 .05897522 .8880005 .06896973 .8889923 .07496643L1.0209961 .6016388Z"/>
<path id="font_2_2" d="M.57099917 .66430667C.57199099 .66630557 .57499697 .67930606 .57499697 .68029788 .57499697 .68530276 .57099917 .6943054 .5589905 .6943054 .5389862 .6943054 .45599366 .6863098 .43099977 .6843109 .4229889 .68330386 .40899659 .682312 .40899659 .66130068 .40899659 .64730837 .4229889 .64730837 .43499757 .64730837 .48298646 .64730837 .48298646 .64030459 .48298646 .63230898 .48298646 .62532046 .48098756 .61932376 .47898866 .61032107L.42199708 .38238526C.40098573 .41540528 .36698915 .44140626 .31900025 .44140626 .19099427 .44140626 .06098938 .300354 .06098938 .15628052 .06098938 .059249879 .12599182-.009765625 .21199036-.009765625 .2659912-.009765625 .31399537 .021224976 .35398866 .0602417 .37298585 .00022888184 .43099977-.009765625 .45700074-.009765625 .49299623-.009765625 .5179901 .01222229 .5359955 .04324341 .55799868 .08226013 .57099917 .13928223 .57099917 .14328003 .57099917 .15628052 .55799868 .15628052 .5549927 .15628052 .54100039 .15628052 .5399933 .15228272 .5329895 .12527466 .5209961 .07725525 .5019989 .018234253 .45999146 .018234253 .43399049 .018234253 .4269867 .040237428 .4269867 .06724548 .4269867 .086257938 .42900086 .09526062 .43199159 .10826111L.57099917 .66430667M.35798646 .12527466C.35099793 .09725952 .32899476 .07725525 .30699159 .058242799 .2979889 .050247194 .2579956 .018234253 .21499634 .018234253 .17799378 .018234253 .14199829 .04423523 .14199829 .11526489 .14199829 .16828919 .17098999 .27833558 .19400025 .31835938 .23999024 .39839173 .29100038 .4133911 .31900025 .4133911 .3889923 .4133911 .4079895 .33737184 .4079895 .32635499 .4079895 .32235719 .4059906 .3153534 .40499879 .3123474L.35798646 .12527466Z"/>
</defs>
<path transform="matrix(1,0,0,-1,84.784,78.31901)" stroke-width=".79701" stroke-linecap="butt" stroke-miterlimit="10" stroke-linejoin="miter" fill="none" stroke="#000000" d="M68.03217 0C68.03217 37.5736 37.5736 68.03217 0 68.03217-37.5736 68.03217-68.03217 37.5736-68.03217 0-68.03217-37.5736-37.5736-68.03217 0-68.03217 37.5736-68.03217 68.03217-37.5736 68.03217 0ZM0 0"/>
<path transform="matrix(1,0,0,-1,84.784,78.31901)" stroke-width=".79701" stroke-linecap="butt" stroke-miterlimit="10" stroke-linejoin="miter" fill="none" stroke="#000000" d="M-68.04524 0H68.04524"/>
<path transform="matrix(1,0,0,-1,84.784,78.31901)" stroke-width=".79701" stroke-linecap="butt" stroke-miterlimit="10" stroke-linejoin="miter" fill="none" stroke="#2471a3" d="M27.21817 62.36424V-62.36424"/>
<path transform="matrix(1,0,0,-1,84.784,78.31901)" stroke-width=".3985" stroke-linecap="butt" stroke-dasharray="2.98883,2.98883" stroke-miterlimit="10" stroke-linejoin="miter" fill="none" stroke="#7f807f" d="M-68.04524 0 27.21817 62.36424 68.04524 0M-68.04524 0 27.21817-62.36424 68.04524 0"/>
<path transform="matrix(1,0,0,-1,84.784,78.31901)" d="M-66.61063 0C-66.61063 .79231-67.25291 1.43462-68.04524 1.43462-68.83757 1.43462-69.47987 .79231-69.47987 0-69.47987-.79231-68.83757-1.43462-68.04524-1.43462-67.25291-1.43462-66.61063-.79231-66.61063 0ZM-68.04524 0"/>
<path transform="matrix(1,0,0,-1,84.784,78.31901)" d="M69.47987 0C69.47987 .79231 68.83757 1.43462 68.04524 1.43462 67.25291 1.43462 66.61063 .79231 66.61063 0 66.61063-.79231 67.25291-1.43462 68.04524-1.43462 68.83757-1.43462 69.47987-.79231 69.47987 0ZM68.04524 0"/>
<path transform="matrix(1,0,0,-1,84.784,78.31901)" d="M1.43462 0C1.43462 .79231 .79231 1.43462 0 1.43462-.79231 1.43462-1.43462 .79231-1.43462 0-1.43462-.79231-.79231-1.43462 0-1.43462 .79231-1.43462 1.43462-.79231 1.43462 0ZM0 0"/>
<path transform="matrix(1,0,0,-1,84.784,78.31901)" d="M28.6528 62.36424C28.6528 63.15657 28.0105 63.79886 27.21817 63.79886 26.42584 63.79886 25.78355 63.15657 25.78355 62.36424 25.78355 61.57191 26.42584 60.92961 27.21817 60.92961 28.0105 60.92961 28.6528 61.57191 28.6528 62.36424ZM27.21817 62.36424"/>
<path transform="matrix(1,0,0,-1,84.784,78.31901)" d="M28.6528-62.36424C28.6528-61.57191 28.0105-60.92961 27.21817-60.92961 26.42584-60.92961 25.78355-61.57191 25.78355-62.36424 25.78355-63.15657 26.42584-63.79886 27.21817-63.79886 28.0105-63.79886 28.6528-63.15657 28.6528-62.36424ZM27.21817-62.36424"/>
<path transform="matrix(1,0,0,-1,84.784,78.31901)" d="M28.6528 0C28.6528 .79231 28.0105 1.43462 27.21817 1.43462 26.42584 1.43462 25.78355 .79231 25.78355 0 25.78355-.79231 26.42584-1.43462 27.21817-1.43462 28.0105-1.43462 28.6528-.79231 28.6528 0ZM27.21817 0"/>
<use data-text="A" xlink:href="#font_1_1" transform="matrix(8.96638,0,0,-8.96638,6.308998,87.96601)"/>
<use data-text="B" xlink:href="#font_1_2" transform="matrix(8.96638,0,0,-8.96638,156.34799,87.96601)"/>
<use data-text="O" xlink:href="#font_1_5" transform="matrix(8.96638,0,0,-8.96638,81.148998,87.96601)"/>
<use data-text="C" xlink:href="#font_1_3" transform="matrix(8.96638,0,0,-8.96638,115.520999,12.436005)"/>
<use data-text="D" xlink:href="#font_1_4" transform="matrix(8.96638,0,0,-8.96638,115.520999,150.33002)"/>
<use data-text="M" xlink:href="#font_2_1" transform="matrix(6.97385,0,0,-6.97385,107.828998,86.60501)"/>
<path transform="matrix(1,0,0,-1,84.784,78.31901)" stroke-width=".3985" stroke-linecap="butt" stroke-miterlimit="10" stroke-linejoin="miter" fill="none" stroke="#000000" d="M.3985-6.80309H26.81444"/>
<path transform="matrix(-1,-0,0,1,84.983249,85.1221)" stroke-width=".3985" stroke-linecap="round" stroke-linejoin="round" fill="none" stroke="#000000" d="M-2.07224 2.39104C-1.69365 .95639-.84999 .27895 0 0-.84999-.27895-1.69365-.95639-2.07224-2.39104"/>
<path transform="matrix(1,0,0,-1,111.7977,85.1221)" stroke-width=".3985" stroke-linecap="round" stroke-linejoin="round" fill="none" stroke="#000000" d="M-2.07224 2.39104C-1.69365 .95639-.84999 .27895 0 0-.84999-.27895-1.69365-.95639-2.07224-2.39104"/>
<use data-text="d" xlink:href="#font_2_2" transform="matrix(6.97385,0,0,-6.97385,96.315998,93.48501)"/>
</svg>
