<svg xmlns="http://www.w3.org/2000/svg" xmlns:xlink="http://www.w3.org/1999/xlink" xmlns:inkscape="http://www.inkscape.org/namespaces/inkscape" version="1.1" width="189.826" height="101.067" viewBox="0 0 189.826 101.067">
<defs>
<path id="font_1_1" d="M.6589966 .23046875C.6759949 .23046875 .69400027 .23046875 .69400027 .25045777 .69400027 .27046205 .6759949 .27046205 .6589966 .27046205H.117996219C.100997928 .27046205 .08299255 .27046205 .08299255 .25045777 .08299255 .23046875 .100997928 .23046875 .117996219 .23046875H.6589966Z"/>
<path id="font_2_1" d="M.2649994 .37265016H.37799073C.34498597 .22489929 .33599855 .18196106 .33599855 .11508179 .33599855 .100097659 .33599855 .073150638 .34399415 .03919983 .35398866-.0047454836 .36499024-.0107421879 .37998963-.0107421879 .3999939-.0107421879 .42099 .007247925 .42099 .02722168 .42099 .033218385 .42099 .035202028 .4149933 .049179079 .38598634 .12106323 .38598634 .18595886 .38598634 .21391297 .38598634 .26683045 .3929901 .32073976 .4039917 .37265016H.5179901C.5309906 .37265016 .5669861 .37265016 .5669861 .406662 .5669861 .43066407 .54599 .43066407 .5269928 .43066407H.19198609C.16999817 .43066407 .13198853 .43066407 .08799744 .38365174 .052993776 .34469605 .026992798 .29878236 .026992798 .29379273 .026992798 .29278565 .026992798 .28379823 .038986207 .28379823 .04699707 .28379823 .04899597 .28779603 .054992677 .29577638 .10398865 .37265016 .1619873 .37265016 .18199158 .37265016H.23899842C.20698548 .25186158 .15299988 .13105774 .11099243 .04020691 .102996829 .025222779 .102996829 .023223877 .102996829 .016235352 .102996829-.002746582 .11898804-.0107421879 .13198853-.0107421879 .1619873-.0107421879 .16999817 .017242432 .18199158 .05418396 .19599915 .100097659 .19599915 .10209656 .20899964 .15202332L.2649994 .37265016Z"/>
<path id="font_2_2" d="M.43899537 .71199038C.44400025 .72499087 .44400025 .72898867 .44400025 .7299957 .44400025 .7409973 .43499757 .75 .42399598 .75 .4169922 .75 .4099884 .746994 .40699769 .7409973L.05999756-.21200562C.054992677-.2250061 .054992677-.2290039 .054992677-.23001099 .054992677-.24101258 .06399536-.25 .07499695-.25 .08799744-.25 .09098816-.24301148 .09700012-.22601319L.43899537 .71199038Z"/>
<path id="font_3_2" d="M.1269989 .07699585 .23298645 .18003845C.3889923 .31811524 .44898988 .3721466 .44898988 .47216798 .44898988 .5860901 .35899354 .6660156 .23699951 .6660156 .12399292 .6660156 .049987794 .57411196 .049987794 .48516847 .049987794 .4291687 .099990848 .4291687 .102996829 .4291687 .11999512 .4291687 .15499878 .44117738 .15499878 .48217774 .15499878 .5081787 .13699341 .5341797 .101989749 .5341797 .09399414 .5341797 .09199524 .5341797 .08898926 .5331726 .11199951 .59806826 .1659851 .63500979 .22399903 .63500979 .31498719 .63500979 .35798646 .5541382 .35798646 .47216798 .35798646 .39215089 .30799867 .31311036 .25299073 .25108338L.06098938 .036987306C.049987794 .025985718 .049987794 .023986817 .049987794 0H.42099L.44898988 .17404175H.42399598C.4189911 .14402771 .4119873 .1000061 .4019928 .084991458 .394989 .07699585 .32899476 .07699585 .30699159 .07699585H.1269989Z"/>
<path id="font_3_3" d="M.2899933 .35191346C.37199403 .37893678 .42999269 .4490509 .42999269 .52809146 .42999269 .6100464 .34199525 .6660156 .24598694 .6660156 .14498902 .6660156 .068984989 .60606387 .068984989 .53009036 .068984989 .49710084 .09098816 .47808839 .11999512 .47808839 .15098572 .47808839 .17098999 .50009158 .17098999 .5290985 .17098999 .57910159 .12399292 .57910159 .10899353 .57910159 .13999939 .62802127 .20599365 .64100649 .24198914 .64100649 .2829895 .64100649 .33799745 .6190338 .33799745 .5290985 .33799745 .51708987 .33599855 .45906068 .30999757 .4149933 .27999879 .36691285 .24598694 .36390687 .22099304 .36291505 .21299744 .36190797 .18899536 .35990907 .18199158 .35990907 .17399597 .35890199 .16699219 .35791017 .16699219 .3479004 .16699219 .33691407 .17399597 .33691407 .19099427 .33691407H.23498535C.31698609 .33691407 .35398866 .2686615 .35398866 .17037964 .35398866 .034469606 .2849884 .0055389406 .24099732 .0055389406 .19799805 .0055389406 .12298584 .022491456 .08799744 .08137512 .12298584 .07637024 .1539917 .09837341 .1539917 .1363678 .1539917 .17237854 .1269989 .19238281 .09799194 .19238281 .07398987 .19238281 .041992189 .17837525 .041992189 .1343689 .041992189 .043441774 .1349945-.022460938 .24398804-.022460938 .3659973-.022460938 .45700074 .06838989 .45700074 .17037964 .45700074 .252594 .3939972 .33088685 .2899933 .35191346Z"/>
<path id="font_3_1" d="M.2939911 .64004519C.2939911 .66400149 .2939911 .6660156 .2709961 .6660156 .20899964 .60227969 .12098694 .60227969 .08898926 .60227969V.57128909C.10899353 .57128909 .16799927 .57128909 .21998596 .5972748V.07902527C.21998596 .042999269 .21699524 .0309906 .1269989 .0309906H.09498596V0C.12998963 .0029907227 .21699524 .0029907227 .25698854 .0029907227 .29699708 .0029907227 .38398744 .0029907227 .4189911 0V.0309906H.3869934C.29699708 .0309906 .2939911 .041992189 .2939911 .07902527V.64004519Z"/>
<clipPath id="clip_4">
<path transform="matrix(.85,0,0,-.85,5.4914004,97.73969)" d="M0 0H212.95008V111.07324H0Z"/>
</clipPath>
<path id="font_2_3" d="M.33399964 .30233766C.33999635 .32835389 .36299134 .42037965 .43299867 .42037965 .43798829 .42037965 .46199037 .42037965 .48298646 .40734864 .45498658 .402359 .43499757 .37734986 .43499757 .35334779 .43499757 .33735658 .44599916 .31835938 .47299195 .31835938 .49499513 .31835938 .5269928 .3363495 .5269928 .37635804 .5269928 .42837525 .46798707 .4423828 .43399049 .4423828 .37599183 .4423828 .34098817 .38935853 .32899476 .36634828 .3039856 .43237306 .25 .4423828 .22099304 .4423828 .116989139 .4423828 .05999756 .3133545 .05999756 .28834535 .05999756 .27833558 .069992069 .27833558 .07199097 .27833558 .07998657 .27833558 .08299255 .28033448 .084991458 .28933717 .11898804 .39535523 .18499756 .42037965 .21899414 .42037965 .23799134 .42037965 .272995 .4113617 .272995 .35334779 .272995 .32235719 .2559967 .25532533 .21899414 .11528015 .20298767 .053268434 .16799927 .011245728 .12399292 .011245728 .117996219 .011245728 .09498596 .011245728 .07398987 .024276734 .09899902 .029266358 .12098694 .05027771 .12098694 .07827759 .12098694 .105270389 .09899902 .11328125 .083999637 .11328125 .053985597 .11328125 .0289917 .08728027 .0289917 .055267335 .0289917 .009246826 .07899475-.0107421879 .12298584-.0107421879 .18899536-.0107421879 .22499085 .059280397 .22799683 .0652771 .23999024 .028274537 .27598573-.0107421879 .33599855-.0107421879 .43899537-.0107421879 .49598695 .118270877 .49598695 .14328003 .49598695 .1532898 .4869995 .1532898 .48399354 .1532898 .47499085 .1532898 .47299195 .14929199 .47099305 .14228821 .43798829 .03527832 .36999513 .011245728 .33799745 .011245728 .29899598 .011245728 .2829895 .043273927 .2829895 .07727051 .2829895 .09927368 .2889862 .121276859 .2999878 .16529846L.33399964 .30233766Z"/>
<path id="font_2_4" d="M.48599244 .38136292C.48999024 .39537049 .48999024 .39736939 .48999024 .40437318 .48999024 .42237855 .47599793 .43138124 .46099855 .43138124 .45098878 .43138124 .43499757 .42536927 .42599488 .41036988 .42399598 .405365 .41600038 .37435914 .4119873 .35635377 .40499879 .33035279 .397995 .30334474 .3919983 .27633668L.34700013 .09628296C.34298707 .08126831 .2999878 .011245728 .23399353 .011245728 .18299866 .011245728 .17199707 .055267335 .17199707 .0922699 .17199707 .1382904 .18899536 .20030213 .22299195 .28833009 .23899842 .3293457 .24299622 .3403473 .24299622 .36035157 .24299622 .405365 .21099854 .4423828 .16099549 .4423828 .06599426 .4423828 .0289917 .29733277 .0289917 .28833009 .0289917 .27833558 .038986207 .27833558 .040985109 .27833558 .050994874 .27833558 .051986696 .28033448 .056991579 .29634095 .083999637 .3903656 .12399292 .42037965 .1579895 .42037965 .1659851 .42037965 .18299866 .42037965 .18299866 .3883667 .18299866 .36335755 .17298889 .3373413 .1659851 .31834413 .12599182 .21231079 .10798645 .1552887 .10798645 .10827637 .10798645 .019256592 .17098999-.0107421879 .22999573-.0107421879 .2689972-.0107421879 .30299378 .0062561037 .33099366 .03425598 .31799317-.017745972 .30599977-.06674194 .2659912-.11973572 .23999024-.15385437 .20199585-.18309021 .1559906-.18309021 .14199829-.18309021 .09700012-.18005371 .07998657-.14074707 .09599304-.14074707 .10899353-.14074707 .12298584-.1287384 .1329956-.11973572 .14299011-.10673523 .14299011-.08773804 .14299011-.056747438 .115997318-.052734376 .10598755-.052734376 .08299255-.052734376 .049987794-.068740848 .049987794-.11773682 .049987794-.16796875 .09399414-.20507813 .1559906-.20507813 .25898744-.20507813 .3619995-.11373901 .3899994-.00074768069L.48599244 .38136292Z"/>
</defs>
<path transform="matrix(.85,0,0,-.85,5.4914004,97.73969)" stroke-width=".19925" stroke-linecap="butt" stroke-miterlimit="10" stroke-linejoin="miter" fill="none" stroke="#7f807f" d="M7.26868 53.41063V57.6626M39.126 53.41063V57.6626M102.84068 53.41063V57.6626M134.698 53.41063V57.6626M166.55533 53.41063V57.6626M198.41268 53.41063V57.6626"/>
<path transform="matrix(.85,0,0,-.85,5.4914004,97.73969)" stroke-width=".19925" stroke-linecap="butt" stroke-miterlimit="10" stroke-linejoin="miter" fill="none" stroke="#7f807f" d="M68.85736 18.5122H73.10933M68.85736 92.56104H73.10933"/>
<path transform="matrix(.85,0,0,-.85,5.4914004,97.73969)" stroke-width=".79701" stroke-linecap="butt" stroke-miterlimit="10" stroke-linejoin="miter" fill="none" stroke="#000000" d="M0 55.53662H210.3598"/>
<path transform="matrix(.85,0,0,-.85,184.29723,50.53356)" d="M2.59026 0-1.55415 2.0722 0 0-1.55415-2.0722"/>
<path transform="matrix(.85,0,0,-.85,5.4914004,97.73969)" stroke-width=".79701" stroke-linecap="butt" stroke-miterlimit="10" stroke-linejoin="miter" fill="none" stroke="#000000" d="M70.98335 0V108.48299"/>
<path transform="matrix(0,-.85,-.85,-0,65.82725,5.529152)" d="M2.59026 0-1.55415 2.0722 0 0-1.55415-2.0722"/>
<use data-text="&#x2212;" xlink:href="#font_1_1" transform="matrix(8.468244,0,0,-8.468244,5.8110005,60.44169)"/>
<use data-text="&#x03c0;" xlink:href="#font_2_1" transform="matrix(8.468244,0,0,-8.468244,12.39765,60.44169)"/>
<use data-text="&#x2212;" xlink:href="#font_1_1" transform="matrix(8.468244,0,0,-8.468244,28.655602,61.85354)"/>
<use data-text="&#x03c0;" xlink:href="#font_2_1" transform="matrix(8.468244,0,0,-8.468244,35.24225,61.85354)"/>
<use data-text="/" xlink:href="#font_2_2" transform="matrix(8.468244,0,0,-8.468244,40.365537,61.85354)"/>
<use data-text="2" xlink:href="#font_3_2" transform="matrix(8.468244,0,0,-8.468244,44.6067,61.85354)"/>
<use data-text="&#x03c0;" xlink:href="#font_2_1" transform="matrix(8.468244,0,0,-8.468244,86.1054,61.85354)"/>
<use data-text="/" xlink:href="#font_2_2" transform="matrix(8.468244,0,0,-8.468244,91.22869,61.85354)"/>
<use data-text="2" xlink:href="#font_3_2" transform="matrix(8.468244,0,0,-8.468244,95.4707,61.85354)"/>
<use data-text="&#x03c0;" xlink:href="#font_2_1" transform="matrix(8.468244,0,0,-8.468244,117.4177,59.14799)"/>
<use data-text="3" xlink:href="#font_3_3" transform="matrix(8.468244,0,0,-8.468244,138.14495,61.85354)"/>
<use data-text="&#x03c0;" xlink:href="#font_2_1" transform="matrix(8.468244,0,0,-8.468244,142.37964,61.85354)"/>
<use data-text="/" xlink:href="#font_2_2" transform="matrix(8.468244,0,0,-8.468244,147.50293,61.85354)"/>
<use data-text="2" xlink:href="#font_3_2" transform="matrix(8.468244,0,0,-8.468244,151.74408,61.85354)"/>
<use data-text="2" xlink:href="#font_3_2" transform="matrix(8.468244,0,0,-8.468244,169.4581,60.959344)"/>
<use data-text="&#x03c0;" xlink:href="#font_2_1" transform="matrix(8.468244,0,0,-8.468244,173.69194,60.959344)"/>
<use data-text="&#x2212;" xlink:href="#font_1_1" transform="matrix(8.468244,0,0,-8.468244,50.038206,84.38024)"/>
<use data-text="1" xlink:href="#font_3_1" transform="matrix(8.468244,0,0,-8.468244,56.624,84.38024)"/>
<use data-text="1" xlink:href="#font_3_1" transform="matrix(8.468244,0,0,-8.468244,56.624,21.79219)"/>
<g clip-path="url(#clip_4)">
<path transform="matrix(.85,0,0,-.85,5.4914004,97.73969)" stroke-width="1.19553" stroke-linecap="butt" stroke-miterlimit="10" stroke-linejoin="miter" fill="none" stroke="#2471a3" d="M0 68.52457C0 68.52457 .51457 67.64125 .7122 67.29922 .90984 66.9572 1.22679 66.40524 1.42442 66.0594 1.62204 65.71355 1.93903 65.15582 2.13664 64.8066 2.33427 64.45735 2.65123 63.89452 2.84886 63.54233 3.04648 63.19014 3.36345 62.62292 3.56107 62.26822 3.7587 61.91351 4.07565 61.3426 4.27328 60.98581 4.47092 60.62903 4.78789 60.0551 4.9855 59.69667 5.18314 59.33824 5.50009 58.76204 5.69772 58.4024 5.89536 58.04277 6.21231 57.46501 6.40994 57.10461 6.60756 56.74422 6.92453 56.1656 7.12215 55.80489 7.31978 55.44418 7.63675 54.8654 7.83438 54.50484 8.032 54.14426 8.34897 53.56604 8.54659 53.20604 8.74422 52.84604 9.06117 52.2691 9.2588 51.91013 9.45644 51.55115 9.77339 50.97621 9.97101 50.61868 10.16864 50.26117 10.48561 49.68892 10.68324 49.3333 10.88087 48.97768 11.19783 48.40886 11.39546 48.05557 11.59308 47.7023 11.91005 47.13757 12.10767 46.78708 12.3053 46.43658 12.62225 45.87666 12.81989 45.52937 13.0175 45.18208 13.33449 44.62766 13.5321 44.284 13.72974 43.94034 14.04669 43.39209 14.24432 43.05249 14.44194 42.7129 14.75891 42.17151 14.95653 41.8364 15.15416 41.50128 15.47112 40.9674 15.66875 40.63719 15.86638 40.30698 16.18333 39.78128 16.38097 39.45634 16.57858 39.13142 16.89557 38.61455 17.09319 38.29535 17.29082 37.97614 17.60777 37.4687 17.8054 37.1556 18.00302 36.84247 18.31999 36.34515 18.51761 36.03851 18.71524 35.73187 19.0322 35.24527 19.22983 34.94548 19.42744 34.64569 19.74443 34.1704 19.94205 33.87782 20.13968 33.58527 20.45663 33.12186 20.65427 32.83688 20.8519 32.55193 21.16885 32.10097 21.36649 31.82393 21.5641 31.5469 21.88107 31.10898 22.07869 30.84023 22.27632 30.57149 22.59329 30.1471 22.79092 29.88698 22.98854 29.62686 23.30551 29.21655 23.50313 28.96536 23.70076 28.71416 24.01772 28.31845 24.21535 28.07649 24.41296 27.83453 24.72993 27.4539 24.92755 27.2215 25.12518 26.98909 25.44215 26.62398 25.63979 26.4014 25.83742 26.17883 26.15437 25.82971 26.352 25.61725 26.54962 25.40477 26.8666 25.07208 27.06421 24.86998 27.26184 24.66786 27.5788 24.35202 27.77643 24.16052 27.97404 23.96902 28.29103 23.67041 28.48865 23.48978 28.68628 23.30913 29.00323 23.02809 29.20087 22.85852 29.39848 22.68896 29.71545 22.42586 29.91307 22.26758 30.1107 22.1093 30.42766 21.86446 30.62529 21.71765 30.82292 21.57085 31.1399 21.34457 31.33752 21.20943 31.53514 21.07428 31.85211 20.86685 32.04973 20.74353 32.24736 20.62021 32.56432 20.43187 32.76195 20.32054 32.95956 20.2092 33.27654 20.04019 33.47415 19.94098 33.67178 19.84175 33.98874 19.6923 34.18637 19.6053 34.38399 19.5183 34.70097 19.38857 34.89859 19.31392 35.09622 19.23929 35.41318 19.12943 35.61081 19.06723 35.80844 19.00502 36.1254 18.91519 36.32303 18.8655 36.52065 18.8158 36.83762 18.7461 37.03523 18.70897 37.23286 18.67186 37.54984 18.62239 37.74747 18.59789 37.94508 18.57338 38.26205 18.54419 38.45967 18.53233 38.6573 18.52048 38.97426 18.5116 39.17189 18.5124 39.3695 18.5132 39.68648 18.52467 39.8841 18.53813 40.08173 18.5516 40.3987 18.58337 40.59633 18.6095 40.79396 18.6356 41.11092 18.68767 41.30855 18.72638 41.50616 18.7651 41.82314 18.83737 42.02075 18.88866 42.21838 18.93996 42.53534 19.03232 42.73297 19.09613 42.93059 19.15993 43.24757 19.2723 43.44519 19.34853 43.64282 19.42474 43.95978 19.557 44.15741 19.64555 44.35503 19.7341 44.672 19.88606 44.86961 19.98683 45.06725 20.08762 45.3842 20.2591 45.58183 20.37196 45.77946 20.48485 46.09644 20.67561 46.29407 20.80045 46.49168 20.9253 46.80865 21.13512 47.00627 21.27176 47.2039 21.40839 47.52086 21.63704 47.71849 21.78532 47.9161 21.93361 48.23308 22.18079 48.4307 22.34052 48.62833 22.50024 48.9453 22.76564 49.14293 22.93663 49.34055 23.10762 49.65752 23.3909 49.85513 23.57294 50.05276 23.75499 50.36972 24.05583 50.56735 24.24869 50.76498 24.44153 51.08194 24.75955 51.27957 24.963 51.47719 25.16644 51.79416 25.50124 51.99179 25.71501 52.18942 25.92877 52.50638 26.27994 52.70401 26.50378 52.90163 26.72765 53.2186 27.09474 53.41621 27.32837 53.61385 27.56201 53.9308 27.94461 54.12843 28.18774 54.32605 28.43088 54.64302 28.82849 54.84064 29.08084 55.03827 29.33319 55.35524 29.74532 55.55287 30.00656 55.7505 30.2678 56.06746 30.69392 56.26509 30.96375 56.4627 31.23357 56.77966 31.67319 56.9773 31.95125 57.17493 32.22931 57.49188 32.68187 57.68951 32.96782 57.88713 33.25377 58.20412 33.71875 58.40173 34.01224 58.59937 34.30574 58.91632 34.78252 59.11395 35.08319 59.31157 35.38388 59.62854 35.87187 59.82616 36.17937 60.02379 36.48685 60.34074 36.98549 60.53838 37.29941 60.73601 37.61334 61.05298 38.12196 61.25061 38.44194 61.44823 38.7619 61.76518 39.27994 61.96281 39.60556 62.16045 39.93117 62.4774 40.45793 62.67503 40.7888 62.87265 41.11967 63.18962 41.65454 63.38724 41.99025 63.58487 42.32594 63.90184 42.86827 64.09947 43.20839 64.29709 43.54852 64.61406 44.09758 64.81168 44.44173 65.00931 44.78587 65.32626 45.34103 65.5239 45.68877 65.72153 46.0365 66.03848 46.59706 66.2361 46.94794 66.43373 47.29881 66.7507 47.8641 66.94833 48.2177 67.14597 48.5713 67.46292 49.14061 67.66055 49.49649 67.85817 49.85237 68.17514 50.42499 68.37276 50.78271 68.57039 51.14046 68.88734 51.7157 69.08498 52.07483 69.2826 52.43396 69.59958 53.01108 69.7972 53.37119 69.99483 53.7313 70.31178 54.3096 70.50941 54.67023 70.70705 55.03085 71.024 55.60963 71.22162 55.97034 71.41925 56.33102 71.7362 56.90959 71.93384 57.2699 72.13147 57.63022 72.44843 58.20784 72.64606 58.56735 72.84367 58.92686 73.16066 59.5028 73.35828 59.86105 73.55591 60.2193 73.87286 60.79288 74.0705 61.14941 74.26811 61.50597 74.58508 62.07645 74.7827 62.43085 74.98033 62.78526 75.29729 63.35197 75.49492 63.70381 75.69254 64.05565 76.00952 64.61786 76.20714 64.96667 76.40477 65.3155 76.72173 65.87254 76.91936 66.21793 77.11699 66.56331 77.43394 67.11449 77.63158 67.45601 77.8292 67.79752 78.14616 68.34216 78.34378 68.67938 78.54141 69.01662 78.85838 69.55403 79.05602 69.88655 79.25363 70.21909 79.5706 70.74863 79.76822 71.07603 79.96585 71.40344 80.2828 71.92447 80.48044 72.24637 80.67805 72.56825 80.99503 73.0801 81.19264 73.39607 81.39027 73.71205 81.70724 74.2141 81.90488 74.52377 82.10251 74.83345 82.41946 75.32506 82.6171 75.62805 82.81471 75.93105 83.13168 76.41162 83.3293 76.70755 83.52693 77.00346 83.84389 77.47246 84.04152 77.76096 84.23914 78.04945 84.55612 78.50623 84.75374 78.78696 84.95137 79.06767 85.26833 79.51169 85.46596 79.78429 85.66357 80.0569 85.98055 80.48758 86.17816 80.75171 86.3758 81.01585 86.69275 81.43271 86.89038 81.68805 87.08801 81.9434 87.40497 82.3459 87.6026 82.59215 87.80022 82.83838 88.1172 83.22603 88.31482 83.46288 88.51245 83.69972 88.8294 84.07204 89.02704 84.29918 89.22466 84.5263 89.54163 84.88284 89.73924 85.1 89.93687 85.31715 90.25383 85.65747 90.45146 85.86438 90.64908 86.0713 90.96606 86.39494 91.16368 86.59135 91.36131 86.78777 91.67827 87.09436 91.8759 87.28004 92.07353 87.46571 92.39049 87.75488 92.58812 87.9296 92.78574 88.1043 93.1027 88.37567 93.30032 88.53918 93.49796 88.7027 93.81493 88.95598 94.01256 89.10811 94.21017 89.26024 94.52715 89.49507 94.72476 89.63562 94.9224 89.77615 95.23935 89.99228 95.43698 90.12108 95.6346 90.24986 95.95157 90.447 96.14919 90.56389 96.34682 90.68079 96.66379 90.85869 96.86142 90.96352 97.05905 91.06836 97.376 91.22684 97.57364 91.31947 97.77126 91.41212 98.08823 91.55096 98.28584 91.6313 98.48347 91.71164 98.80043 91.83066 98.99806 91.8986 99.19568 91.96657 99.51266 92.06563 99.71028 92.1211 99.90791 92.17656 100.22487 92.25554 100.4225 92.29846 100.62012 92.34137 100.93709 92.40018 101.1347 92.4305 101.33234 92.46083 101.64929 92.49936 101.84692 92.51704 102.04456 92.53473 102.36153 92.55296 102.55916 92.55798 102.75677 92.563 103.07375 92.56091 103.27136 92.55328 103.469 92.54565 103.78595 92.52322 103.98358 92.50293 104.1812 92.48264 104.49817 92.43993 104.69579 92.407 104.89342 92.37407 105.21037 92.31111 105.408 92.26561 105.60562 92.2201 105.9226 92.13696 106.12022 92.07892 106.31786 92.02087 106.63481 91.9177 106.83244 91.84718 107.03008 91.77667 107.34703 91.65355 107.54466 91.57066 107.74228 91.48776 108.05925 91.34488 108.25687 91.24971 108.4545 91.15456 108.77147 90.99205 108.9691 90.88474 109.16672 90.7774 109.48369 90.59552 109.6813 90.47617 109.87894 90.35681 110.19589 90.15572 110.39352 90.02449 110.59114 89.89328 110.90811 89.67326 111.10573 89.53032 111.30336 89.38737 111.62033 89.14871 111.81796 88.99423 112.0156 88.83975 112.33255 88.58272 112.53018 88.41687 112.7278 88.25104 113.04475 87.97595 113.24239 87.79897 113.44002 87.622 113.75697 87.3292 113.9546 87.1413 114.15222 86.9534 114.46921 86.64325 114.66682 86.44464 114.86446 86.24605 115.18141 85.91893 115.37904 85.70988 115.57666 85.50084 115.89363 85.15717 116.09125 84.93791 116.28888 84.71867 116.60583 84.35886 116.80347 84.1297 117.0011 83.90054 117.31807 83.52502 117.5157 83.28622 117.71332 83.04741 118.03027 82.65668 118.2279 82.40854 118.42554 82.16039 118.7425 81.75488 118.94012 81.4977 119.13774 81.24051 119.45471 80.82077 119.65233 80.55486 119.84996 80.28894 120.16693 79.85547 120.36456 79.58116 120.56218 79.30685 120.87915 78.8602 121.07677 78.57784 121.2744 78.29547 121.59135 77.83615 121.78899 77.54608 121.98662 77.25601 122.30357 76.78459 122.5012 76.48718 122.69882 76.18977 123.01578 75.70685 123.21341 75.40247 123.41104 75.09807 123.72801 74.60425 123.92564 74.29324 124.12326 73.98224 124.44023 73.47813 124.63785 73.1609 124.83548 72.84366 125.15244 72.32988 125.35007 72.00682 125.54768 71.68376 125.86465 71.16093 126.06227 70.83244 126.2599 70.50394 126.57687 69.97272 126.7745 69.63919 126.97214 69.30566 127.2891 68.7667 127.48671 68.42856 127.68434 68.09041 128.0013 67.54437 128.19893 67.20203 128.39656 66.85968 128.71352 66.30722 128.91115 65.9611 129.10877 65.61499 129.42575 65.05681 129.62337 64.70734 129.821 64.35785 130.13796 63.79465 130.33559 63.44226 130.5332 63.08986 130.85018 62.52231 131.04779 62.16742 131.24542 61.81253 131.56238 61.24135 131.76001 60.88441 131.95764 60.5275 132.27462 59.95337 132.47223 59.59483 132.66986 59.2363 132.98682 58.65994 133.18445 58.30023 133.38208 57.94052 133.69904 57.36267 133.89667 57.00223 134.09429 56.64178 134.41126 56.06313 134.60887 55.70241 134.8065 55.3417 135.12348 54.76292 135.3211 54.40239 135.51873 54.04184 135.8357 53.46371 136.03331 53.10378 136.23094 52.74384 136.5479 52.16704 136.74553 51.80815 136.94315 51.44926 137.26012 50.87451 137.45774 50.51712 137.65537 50.15974 137.97234 49.58775 138.16997 49.2323 138.3676 48.87685 138.68456 48.30832 138.88219 47.95525 139.0798 47.60216 139.39678 47.0378 139.59439 46.68753 139.79203 46.33727 140.10898 45.77776 140.30661 45.43074 140.50423 45.08372 140.8212 44.52975 141.01882 44.1864 141.21645 43.84305 141.53342 43.29532 141.73105 42.95607 141.92867 42.61682 142.24564 42.07599 142.44326 41.74124 142.64089 41.4065 142.95784 40.87325 143.15547 40.54343 143.3531 40.21361 143.67006 39.68858 143.86769 39.3641 144.0653 39.03961 144.3823 38.52348 144.57991 38.20473 144.77754 37.88597 145.0945 37.37933 145.29213 37.0667 145.48975 36.75407 145.80672 36.25758 146.00434 35.95148 146.20197 35.64537 146.51892 35.1596 146.71656 34.8604 146.91417 34.56117 147.23116 34.08676 147.42877 33.7948 147.6264 33.50282 147.94336 33.04037 148.14099 32.75601 148.33863 32.47166 148.65558 32.02171 148.85321 31.74533 149.05083 31.46893 149.3678 31.03204 149.56542 30.76398 149.76305 30.49591 150.08002 30.0726 150.27765 29.81317 150.47527 29.55373 150.79224 29.14458 150.98986 28.89409 151.18749 28.6436 151.50444 28.24907 151.70207 28.00786 151.89969 27.76665 152.21666 27.38722 152.41428 27.15558 152.61191 26.92393 152.92888 26.56007 153.12651 26.33827 153.32415 26.11647 153.6411 25.76866 153.83873 25.55699 154.03635 25.34532 154.35332 25.01396 154.55094 24.81268 154.74857 24.61139 155.06552 24.29689 155.26316 24.10625 155.46077 23.91559 155.77776 23.61835 155.97537 23.43857 156.173 23.25879 156.48996 22.97916 156.68759 22.81047 156.88521 22.64178 157.20218 22.38011 157.3998 22.22273 157.59743 22.06534 157.91439 21.82196 158.11202 21.67607 158.30965 21.53018 158.6266 21.30537 158.82424 21.17114 159.02185 21.03693 159.33884 20.83102 159.53646 20.70863 159.73409 20.58624 160.05104 20.39943 160.24868 20.28903 160.44629 20.17865 160.76326 20.01118 160.96088 19.91292 161.15851 19.81465 161.47547 19.66675 161.6731 19.58072 161.87071 19.49469 162.1877 19.36652 162.38532 19.29285 162.58295 19.21918 162.8999 19.11092 163.09754 19.04968 163.29517 18.98845 163.61212 18.90022 163.80976 18.85152 164.00737 18.8028 164.32434 18.73471 164.52196 18.69858 164.71959 18.66245 165.03656 18.61456 165.23419 18.59105 165.43181 18.56755 165.74878 18.53995 165.9464 18.5291 166.14403 18.51823 166.46099 18.51099 166.65862 18.51277 166.85623 18.51457 167.1732 18.52765 167.37082 18.5421 167.56845 18.55656 167.88542 18.58995 168.08306 18.61705 168.28069 18.64415 168.59764 18.6978 168.79528 18.73752 168.99289 18.77725 169.30986 18.8511 169.50748 18.90338 169.70511 18.95566 170.02207 19.04962 170.2197 19.1144 170.41732 19.17917 170.7343 19.29312 170.93192 19.37032 171.12955 19.44753 171.4465 19.58133 171.64414 19.67085 171.84175 19.76038 172.15872 19.91388 172.35634 20.01561 172.55397 20.11736 172.87093 20.29033 173.06856 20.40416 173.26619 20.51799 173.58316 20.71027 173.78079 20.83606 173.97841 20.96184 174.29537 21.17316 174.493 21.31071 174.69063 21.44829 175.00759 21.67839 175.20522 21.82759 175.40283 21.97678 175.7198 22.22539 175.91742 22.38602 176.11505 22.54665 176.432 22.81346 176.62964 22.98534 176.82726 23.15721 177.14424 23.44188 177.34186 23.62479 177.53949 23.80768 177.85645 24.1099 178.05408 24.30359 178.25171 24.4973 178.56867 24.81665 178.7663 25.02092 178.96392 25.22519 179.28087 25.56128 179.4785 25.77586 179.67613 25.99043 179.9931 26.34288 180.19074 26.5675 180.38835 26.79213 180.70532 27.16046 180.90294 27.39485 181.10057 27.62926 181.41753 28.01305 181.61516 28.25693 181.81278 28.50081 182.12975 28.89957 182.32736 29.15263 182.525 29.4057 182.84197 29.81894 183.0396 30.08087 183.23723 30.3428 183.55419 30.77003 183.75182 31.0405 183.94944 31.31097 184.26639 31.75165 184.46402 32.03033 184.66165 32.30902 184.9786 32.7626 185.17624 33.04915 185.37386 33.33571 185.69084 33.80164 185.88846 34.0957 186.08609 34.38977 186.40305 34.86746 186.60068 35.16869 186.7983 35.46991 187.11527 35.95879 187.31288 36.26678 187.51052 36.5748 187.82747 37.07426 188.0251 37.38867 188.22274 37.70308 188.5397 38.21248 188.73732 38.5329 188.93495 38.85333 189.2519 39.37209 189.44954 39.69812 189.64717 40.02415 189.96413 40.55159 190.16176 40.88286 190.35938 41.21413 190.67635 41.7496 190.87397 42.08566 191.0716 42.42174 191.38855 42.9646 191.58618 43.30507 191.7838 43.64552 192.10079 44.19513 192.2984 44.53955 192.49604 44.88399 192.81299 45.4396 193.01062 45.7876 193.20825 46.13557 193.5252 46.69655 193.72283 47.04765 193.92046 47.39876 194.23741 47.96439 194.43505 48.31819 194.63268 48.67198 194.94965 49.24158 195.14728 49.59761 195.3449 49.95366 195.66187 50.52652 195.85948 50.88437 196.05712 51.24223 196.37407 51.81764 196.5717 52.17686 196.76932 52.53609 197.08629 53.11333 197.2839 53.4735 197.48154 53.83366 197.79851 54.41205 197.99614 54.77269 198.19376 55.13333 198.51073 55.71213 198.70835 56.07281 198.90598 56.43349 199.22293 57.01201 199.42057 57.37227 199.6182 57.73254 199.93515 58.31006 200.13278 58.66948 200.3304 59.0289 200.64739 59.60469 200.845 59.96281 201.04264 60.32094 201.35959 60.89429 201.55722 61.25067 201.75484 61.60707 202.07181 62.1773 202.26943 62.53152 202.46706 62.88574 202.78401 63.45212 202.98165 63.80373 203.17926 64.15533 203.49625 64.71716 203.69387 65.06573 203.8915 65.4143 204.20845 65.9709 204.40608 66.31601 204.60372 66.6611 204.92067 67.21179 205.1183 67.55298 205.31592 67.89417 205.63289 68.43826 205.8305 68.77515 206.02814 69.11201 206.34511 69.64885 206.54274 69.98097 206.74036 70.31311 207.05733 70.842 207.25495 71.16899 207.45258 71.49599 207.76953 72.0163 207.96717 72.33774 208.16478 72.65918 208.48175 73.17027 208.67937 73.48578 208.877 73.80128 209.19396 74.3025 209.39159 74.61166 209.58922 74.92082 209.90619 75.4116 210.10382 75.71405 210.30144 76.0165 210.61841 76.4962 210.81603 76.79155 211.01366 77.08691 211.33061 77.55492 211.52825 77.84283 211.72586 78.13074 212.04283 78.58653 212.24045 78.86662 212.43808 79.14673 212.95269 79.86163 212.95269 79.86163"/>
<path transform="matrix(.85,0,0,-.85,5.4914004,97.73969)" stroke-width="1.19553" stroke-linecap="butt" stroke-dasharray="2.98883,2.98883" stroke-miterlimit="10" stroke-linejoin="miter" fill="none" stroke="#b30000" d="M0 20.86497C0 20.86497 .51457 20.54495 .7122 20.43036 .90984 20.31577 1.22679 20.14156 1.42442 20.03905 1.62204 19.93654 1.93903 19.78178 2.13664 19.69148 2.33427 19.60118 2.65123 19.46611 2.84886 19.38812 3.04648 19.31013 3.36345 19.19492 3.56107 19.12933 3.7587 19.06377 4.07565 18.96854 4.27328 18.91545 4.47092 18.86237 4.78789 18.78723 4.9855 18.74672 5.18314 18.7062 5.50009 18.65128 5.69772 18.62335 5.89536 18.59544 6.21231 18.56078 6.40994 18.5455 6.60756 18.53024 6.92453 18.51588 7.12215 18.51328 7.31978 18.51068 7.63675 18.51666 7.83438 18.5267 8.032 18.53676 8.34897 18.56305 8.54659 18.58575 8.74422 18.60844 9.06117 18.65504 9.2588 18.69037 9.45644 18.7257 9.77339 18.79251 9.97101 18.84042 10.16864 18.88835 10.48561 18.9753 10.68324 19.03572 10.88087 19.09616 11.19783 19.20316 11.39546 19.27605 11.59308 19.34892 11.91005 19.47585 12.10767 19.56108 12.3053 19.64632 12.62225 19.79297 12.81989 19.89046 13.0175 19.98795 13.33449 20.15419 13.5321 20.26381 13.72974 20.37343 14.04669 20.559 14.24432 20.68065 14.44194 20.80228 14.75891 21.00699 14.95653 21.14046 15.15416 21.27393 15.47112 21.49753 15.66875 21.64268 15.86638 21.78784 16.18333 22.03006 16.38097 22.18672 16.57858 22.34337 16.89557 22.60388 17.09319 22.77185 17.29082 22.93983 17.60777 23.21834 17.8054 23.39742 18.00302 23.57649 18.31999 23.87263 18.51761 24.06259 18.71524 24.25256 19.0322 24.56598 19.22983 24.76659 19.42744 24.9672 19.74443 25.2975 19.94205 25.50851 20.13968 25.71953 20.45663 26.06633 20.65427 26.28748 20.8519 26.50864 21.16885 26.87148 21.36649 27.10251 21.5641 27.33353 21.88107 27.712 22.07869 27.9526 22.27632 28.1932 22.59329 28.5868 22.79092 28.8367 22.98854 29.0866 23.30551 29.49486 23.50313 29.75372 23.70076 30.0126 24.01772 30.43503 24.21535 30.70256 24.41296 30.97011 24.72993 31.40613 24.92755 31.68199 25.12518 31.95787 25.44215 32.40701 25.63979 32.69086 25.83742 32.97472 26.15437 33.4364 26.352 33.72789 26.54962 34.0194 26.8666 34.49304 27.06421 34.79182 27.26184 35.09059 27.5788 35.57564 27.77643 35.88132 27.97404 36.187 28.29103 36.68283 28.48865 36.99506 28.68628 37.30728 29.00323 37.8133 29.20087 38.13167 29.39848 38.45004 29.71545 38.96558 29.91307 39.28972 30.1107 39.61386 30.42766 40.13834 30.62529 40.46782 30.82292 40.79732 31.1399 41.33005 31.33752 41.66449 31.53514 41.99893 31.85211 42.5393 32.04973 42.87828 32.24736 43.21725 32.56432 43.76457 32.76195 44.10768 32.95956 44.45079 33.27654 45.00436 33.47415 45.35117 33.67178 45.69798 33.98874 46.25716 34.18637 46.60722 34.38399 46.95729 34.70097 47.52138 34.89859 47.8743 35.09622 48.2272 35.41318 48.79547 35.61081 49.15079 35.80844 49.5061 36.1254 50.0779 36.32303 50.43517 36.52065 50.79245 36.83762 51.36705 37.03523 51.72585 37.23286 52.08464 37.54984 52.66133 37.74747 53.02122 37.94508 53.38112 38.26205 53.95917 38.45967 54.3197 38.6573 54.68024 38.97426 55.25897 39.17189 55.61969 39.3695 55.9804 39.68648 56.5591 39.8841 56.91956 40.08173 57.28003 40.3987 57.85794 40.59633 58.21771 40.79396 58.57748 41.11092 59.15396 41.30855 59.51259 41.50616 59.87122 41.82314 60.44551 42.02075 60.80255 42.21838 61.1596 42.53534 61.73099 42.73297 62.08601 42.93059 62.44104 43.24757 63.00883 43.44519 63.36142 43.64282 63.71399 43.95978 64.27748 44.15741 64.62717 44.35503 64.97684 44.672 65.53534 44.86961 65.88168 45.06725 66.22803 45.3842 66.78087 45.58183 67.12347 45.77946 67.46608 46.09644 68.01253 46.29407 68.35097 46.49168 68.68939 46.80865 69.22884 47.00627 69.56267 47.2039 69.8965 47.52086 70.42822 47.71849 70.75705 47.9161 71.08589 48.23308 71.60927 48.4307 71.93268 48.62833 72.2561 48.9453 72.77048 49.14293 73.08809 49.34055 73.40572 49.65752 73.91046 49.85513 74.22188 50.05276 74.53328 50.36972 75.02777 50.56735 75.33261 50.76498 75.63744 51.08194 76.12106 51.27957 76.41893 51.47719 76.7168 51.79416 77.18895 51.99179 77.47949 52.18942 77.77003 52.50638 78.23015 52.70401 78.51302 52.90163 78.79587 53.2186 79.24338 53.41621 79.5182 53.61385 79.79301 53.9308 80.22737 54.12843 80.49382 54.32605 80.76025 54.64302 81.1809 54.84064 81.43864 55.03827 81.6964 55.35524 82.10281 55.55287 82.35155 55.7505 82.60028 56.06746 82.99199 56.26509 83.23138 56.4627 83.4708 56.77966 83.84729 56.9773 84.07707 57.17493 84.30685 57.49188 84.66768 57.68951 84.88757 57.88713 85.10745 58.20412 85.45215 58.40173 85.66187 58.59937 85.87158 58.91632 86.19975 59.11395 86.39902 59.31157 86.5983 59.62854 86.90952 59.82616 87.09811 60.02379 87.28671 60.34074 87.58063 60.53838 87.7583 60.73601 87.93599 61.05298 88.2122 61.25061 88.37875 61.44823 88.54532 61.76518 88.8035 61.96281 88.95871 62.16045 89.11392 62.4774 89.35379 62.67503 89.49747 62.87265 89.64113 63.18962 89.86235 63.38724 89.99432 63.58487 90.1263 63.90184 90.32858 64.09947 90.4487 64.29709 90.5688 64.61406 90.75194 64.81168 90.86003 65.00931 90.96811 65.32626 91.13185 65.5239 91.2278 65.72153 91.32373 66.03848 91.4679 66.2361 91.55156 66.43373 91.63524 66.7507 91.75961 66.94833 91.83092 67.14597 91.90222 67.46292 92.00667 67.66055 92.06552 67.85817 92.12436 68.17514 92.20876 68.37276 92.25508 68.57039 92.3014 68.88734 92.36565 69.08498 92.39937 69.2826 92.43309 69.59958 92.4771 69.7972 92.4982 69.99483 92.51929 70.31178 92.54301 70.50941 92.55145 70.70705 92.55988 71.024 92.56326 71.22162 92.55905 71.41925 92.55484 71.7362 92.53789 71.93384 92.52101 72.13147 92.50414 72.44843 92.46687 72.64606 92.43735 72.84367 92.40784 73.16066 92.35034 73.35828 92.30821 73.55591 92.26608 73.87286 92.1884 74.0705 92.13373 74.26811 92.07904 74.58508 91.98126 74.7827 91.91411 74.98033 91.84694 75.29729 91.72919 75.49492 91.64963 75.69254 91.57008 76.00952 91.43251 76.20714 91.34064 76.40477 91.24878 76.72173 91.09154 76.91936 90.98749 77.11699 90.88342 77.43394 90.70673 77.63158 90.59062 77.8292 90.4745 78.14616 90.27856 78.34378 90.15054 78.54141 90.0225 78.85838 89.80756 79.05602 89.66776 79.25363 89.52795 79.5706 89.29428 79.76822 89.1429 79.96585 88.99152 80.2828 88.7394 80.48044 88.57661 80.67805 88.41383 80.99503 88.14355 81.19264 87.96957 81.39027 87.79558 81.70724 87.50752 81.90488 87.32254 82.10251 87.13756 82.41946 86.83206 82.6171 86.63632 82.81471 86.44058 83.13168 86.11801 83.3293 85.91176 83.52693 85.70549 83.84389 85.36626 84.04152 85.14973 84.23914 84.93321 84.55612 84.5777 84.75374 84.3512 84.95137 84.12468 85.26833 83.75334 85.46596 83.51712 85.66357 83.2809 85.98055 82.89421 86.17816 82.64856 86.3758 82.40291 86.69275 82.00133 86.89038 81.74655 87.08801 81.49176 87.40497 81.07582 87.6026 80.81224 87.80022 80.54865 88.1172 80.1188 88.31482 79.84674 88.51245 79.57468 88.8294 79.1315 89.02704 78.85129 89.22466 78.57108 89.54163 78.11508 89.73924 77.82707 89.93687 77.53905 90.25383 77.07085 90.45146 76.77538 90.64908 76.47992 90.96606 76.00003 91.16368 75.69748 91.36131 75.39493 91.67827 74.904 91.8759 74.59474 92.07353 74.28549 92.39049 73.78409 92.58812 73.46849 92.78574 73.1529 93.1027 72.64166 93.30032 72.32013 93.49796 71.99861 93.81493 71.47816 94.01256 71.1511 94.21017 70.82402 94.52715 70.29498 94.72476 69.96278 94.9224 69.63057 95.23935 69.09364 95.43698 68.7567 95.6346 68.41977 95.95157 67.87555 96.14919 67.5343 96.34682 67.19304 96.66379 66.64226 96.86142 66.29712 97.05905 65.95197 97.376 65.39526 97.57364 65.04666 97.77126 64.69804 98.08823 64.13612 98.28584 63.78447 98.48347 63.43282 98.80043 62.86638 98.99806 62.51213 99.19568 62.15787 99.51266 61.5876 99.71028 61.23117 99.90791 60.87476 100.22487 60.30136 100.4225 59.9432 100.62012 59.58504 100.93709 59.00922 101.1347 58.64978 101.33234 58.29036 101.64929 57.71283 101.84692 57.35254 102.04456 56.99225 102.36153 56.41374 102.55916 56.05305 102.75677 55.69238 103.07375 55.11359 103.27136 54.75294 103.469 54.3923 103.78595 53.81393 103.98358 53.45378 104.1812 53.09363 104.49817 52.51642 104.69579 52.15721 104.89342 51.798 105.21037 51.22261 105.408 50.86478 105.60562 50.50694 105.9226 49.93414 106.12022 49.57813 106.31786 49.2221 106.63481 48.65257 106.83244 48.29883 107.03008 47.94507 107.34703 47.3795 107.54466 47.02844 107.74228 46.67738 108.05925 46.11649 108.25687 45.76854 108.4545 45.4206 108.77147 44.86508 108.9691 44.52069 109.16672 44.1763 109.48369 43.62683 109.6813 43.28642 109.87894 42.94603 110.19589 42.40326 110.39352 42.06728 110.59114 41.73128 110.90811 41.1959 111.10573 40.86472 111.30336 40.53352 111.62033 40.00623 111.81796 39.68027 112.0156 39.35431 112.33255 38.8357 112.53018 38.51537 112.7278 38.19502 113.04475 37.68578 113.24239 37.37146 113.44002 37.05714 113.75697 36.55785 113.9546 36.24992 114.15222 35.94202 114.46921 35.45332 114.66682 35.15219 114.86446 34.85107 115.18141 34.37357 115.37904 34.0796 115.57666 33.78564 115.89363 33.3199 116.09125 33.03346 116.28888 32.74702 116.60583 32.29364 116.80347 32.01509 117.0011 31.73653 117.31807 31.29605 117.5157 31.0257 117.71332 30.75534 118.03027 30.32834 118.2279 30.06654 118.42554 29.80475 118.7425 29.39171 118.94012 29.13878 119.13774 28.88585 119.45471 28.48732 119.65233 28.24358 119.84996 27.99985 120.16693 27.61627 120.36456 27.38202 120.56218 27.14778 120.87915 26.77968 121.07677 26.5552 121.2744 26.33073 121.59135 25.97853 121.78899 25.76411 121.98662 25.54968 122.30357 25.21382 122.5012 25.00972 122.69882 24.80562 123.01578 24.48651 123.21341 24.29298 123.41104 24.09944 123.72801 23.7975 123.92564 23.61478 124.12326 23.43205 124.44023 23.14763 124.63785 22.97592 124.83548 22.80421 125.15244 22.53769 125.35007 22.37723 125.54768 22.21677 125.86465 21.96843 126.06227 21.81943 126.2599 21.67041 126.57687 21.44057 126.7745 21.30318 126.97214 21.16579 127.2891 20.95476 127.48671 20.82916 127.68434 20.70357 128.0013 20.5116 128.19893 20.39795 128.39656 20.2843 128.71352 20.1116 128.91115 20.01006 129.10877 19.90851 129.42575 19.7553 129.62337 19.66595 129.821 19.57661 130.13796 19.44313 130.33559 19.36612 130.5332 19.2891 130.85018 19.17545 131.04779 19.11086 131.24542 19.04626 131.56238 18.95262 131.76001 18.90053 131.95764 18.84842 132.27462 18.77487 132.47223 18.73535 132.66986 18.69583 132.98682 18.64249 133.18445 18.61557 133.38208 18.58867 133.69904 18.55559 133.89667 18.54132 134.09429 18.52704 134.41126 18.51428 134.60887 18.51268 134.8065 18.51106 135.12348 18.51865 135.3211 18.5297 135.51873 18.54076 135.8357 18.56865 136.03331 18.59235 136.23094 18.61604 136.5479 18.66423 136.74553 18.70056 136.94315 18.73688 137.26012 18.80528 137.45774 18.85419 137.65537 18.90309 137.97234 18.99162 138.16997 19.05304 138.3676 19.11446 138.68456 19.22304 138.88219 19.29689 139.0798 19.37076 139.39678 19.49922 139.59439 19.58543 139.79203 19.67165 140.10898 19.81982 140.30661 19.91829 140.50423 20.01675 140.8212 20.18451 141.01882 20.29509 141.21645 20.40567 141.53342 20.59277 141.73105 20.71533 141.92867 20.83789 142.24564 21.04411 142.44326 21.17851 142.64089 21.31291 142.95784 21.538 143.15547 21.68407 143.3531 21.83014 143.67006 22.07378 143.86769 22.23135 144.0653 22.38892 144.3823 22.65085 144.57991 22.81972 144.77754 22.98857 145.0945 23.26848 145.29213 23.44843 145.48975 23.62837 145.80672 23.92587 146.00434 24.11668 146.20197 24.3075 146.51892 24.62225 146.71656 24.8237 146.91417 25.02515 147.23116 25.35675 147.42877 25.56857 147.6264 25.78041 147.94336 26.12848 148.14099 26.35043 148.33863 26.57239 148.65558 26.93646 148.85321 27.16826 149.05083 27.40004 149.3678 27.77972 149.56542 28.02107 149.76305 28.26242 150.08002 28.65718 150.27765 28.9078 150.47527 29.15842 150.79224 29.56781 150.98986 29.82738 151.18749 30.08696 151.50444 30.51045 151.70207 30.77866 151.89969 31.04688 152.21666 31.48396 152.41428 31.76047 152.61191 32.03697 152.92888 32.48712 153.12651 32.77159 153.32415 33.05608 153.6411 33.5187 153.83873 33.81079 154.03635 34.10286 154.35332 34.57742 154.55094 34.87677 154.74857 35.1761 155.06552 35.66202 155.26316 35.96823 155.46077 36.27444 155.77776 36.7711 155.97537 37.08382 156.173 37.39655 156.48996 37.90334 156.68759 38.22217 156.88521 38.54102 157.20218 39.05731 157.3998 39.38187 157.59743 39.70644 157.91439 40.23158 158.11202 40.5615 158.30965 40.89139 158.6266 41.42476 158.82424 41.75957 159.02185 42.09438 159.33884 42.63533 159.53646 42.97464 159.73409 43.31396 160.05104 43.86179 160.24868 44.2052 160.44629 44.54861 160.76326 45.10266 160.96088 45.44974 161.15851 45.79681 161.47547 46.3564 161.6731 46.70671 161.87071 47.05704 162.1877 47.62146 162.38532 47.97458 162.58295 48.32768 162.8999 48.89627 163.09754 49.25175 163.29517 49.60724 163.61212 50.17929 163.80976 50.5367 164.00737 50.89412 164.32434 51.46889 164.52196 51.82779 164.71959 52.18669 165.03656 52.76352 165.23419 53.12347 165.43181 53.48343 165.74878 54.06157 165.9464 54.42213 166.14403 54.7827 166.46099 55.36145 166.65862 55.72215 166.85623 56.08287 167.1732 56.66153 167.37082 57.02196 167.56845 57.38239 167.88542 57.96022 168.08306 58.31992 168.28069 58.67961 168.59764 59.25594 168.79528 59.61446 168.99289 59.97298 169.30986 60.54706 169.50748 60.90396 169.70511 61.26088 170.02207 61.83202 170.2197 62.18686 170.41732 62.5417 170.7343 63.10919 170.93192 63.46155 171.12955 63.8139 171.4465 64.37703 171.64414 64.72646 171.84175 65.0759 172.15872 65.63397 172.35634 65.98004 172.55397 66.32611 172.87093 66.87846 173.06856 67.22075 173.26619 67.56305 173.58316 68.109 173.78079 68.44707 173.97841 68.78514 174.29537 69.32399 174.493 69.65746 174.69063 69.9909 175.00759 70.522 175.20522 70.85042 175.40283 71.17885 175.7198 71.70152 175.91742 72.0245 176.11505 72.34749 176.432 72.86113 176.62964 73.17827 176.82726 73.49542 177.14424 73.99936 177.34186 74.31027 177.53949 74.62119 177.85645 75.11484 178.05408 75.41913 178.25171 75.72343 178.56867 76.20616 178.7663 76.50346 178.96392 76.80077 179.28087 77.27202 179.4785 77.56197 179.67613 77.85191 179.9931 78.31104 180.19074 78.59328 180.38835 78.87552 180.70532 79.322 180.90294 79.59618 181.10057 79.87036 181.41753 80.30363 181.61516 80.56941 181.81278 80.83519 182.12975 81.25471 182.32736 81.51176 182.525 81.76881 182.84197 82.1741 183.0396 82.4221 183.23723 82.67012 183.55419 83.06064 183.75182 83.2993 183.94944 83.53795 184.26639 83.91322 184.46402 84.14224 184.66165 84.37126 184.9786 84.73083 185.17624 84.94992 185.37386 85.16902 185.69084 85.51244 185.88846 85.72133 186.08609 85.93022 186.40305 86.25708 186.60068 86.45552 186.7983 86.65395 187.11527 86.96384 187.31288 87.15158 187.51052 87.33932 187.82747 87.63184 188.0251 87.80865 188.22274 87.98547 188.5397 88.2603 188.73732 88.42595 188.93495 88.5916 189.2519 88.84837 189.44954 89.00269 189.64717 89.15698 189.96413 89.39539 190.16176 89.53815 190.35938 89.68091 190.67635 89.90065 190.87397 90.0317 191.0716 90.16273 191.38855 90.36351 191.58618 90.48268 191.7838 90.60185 192.10079 90.78346 192.2984 90.8906 192.49604 90.99774 192.81299 91.15994 193.01062 91.25493 193.20825 91.34991 193.5252 91.49251 193.72283 91.57521 193.92046 91.6579 194.23741 91.78072 194.43505 91.85104 194.63268 91.92137 194.94965 92.02425 195.14728 92.0821 195.3449 92.13995 195.66187 92.22278 195.85948 92.2681 196.05712 92.31342 196.37407 92.37608 196.5717 92.4088 196.76932 92.44153 197.08629 92.48395 197.2839 92.50404 197.48154 92.52414 197.79851 92.54626 197.99614 92.5537 198.19376 92.56113 198.51073 92.56293 198.70835 92.55771 198.90598 92.55249 199.22293 92.53395 199.42057 92.51607 199.6182 92.4982 199.93515 92.45934 200.13278 92.42883 200.3304 92.39832 200.64739 92.33922 200.845 92.2961 201.04264 92.25299 201.35959 92.1737 201.55722 92.11806 201.75484 92.0624 202.07181 91.96303 202.26943 91.89488 202.46706 91.82675 202.78401 91.70743 202.98165 91.62689 203.17926 91.54636 203.49625 91.40724 203.69387 91.3144 203.8915 91.22156 204.20845 91.06279 204.40608 90.95778 204.60372 90.85277 204.92067 90.67455 205.1183 90.5575 205.31592 90.44044 205.63289 90.243 205.8305 90.11403 206.02814 89.98505 206.34511 89.76863 206.54274 89.62791 206.74036 89.48718 207.05733 89.25206 207.25495 89.09976 207.45258 88.94746 207.76953 88.69391 207.96717 88.53023 208.16478 88.36655 208.48175 88.0949 208.67937 87.92003 208.877 87.74516 209.19396 87.4557 209.39159 87.26987 209.58922 87.08405 209.90619 86.77718 210.10382 86.5806 210.30144 86.38402 210.61841 86.0601 210.81603 85.85304 211.01366 85.64598 211.33061 85.30542 211.52825 85.0881 211.72586 84.8708 212.04283 84.51402 212.24045 84.28674 212.43808 84.05945 212.95269 83.4499 212.95269 83.4499"/>
</g>
<use data-text="x" xlink:href="#font_2_3" transform="matrix(8.468244,0,0,-8.468244,178.49616,47.372938)"/>
<use data-text="y" xlink:href="#font_2_4" transform="matrix(8.468244,0,0,-8.468244,68.988109,10.135284)"/>
</svg>
