<svg xmlns="http://www.w3.org/2000/svg" xmlns:xlink="http://www.w3.org/1999/xlink" xmlns:inkscape="http://www.inkscape.org/namespaces/inkscape" version="1.1" width="307.393" height="203.948" viewBox="0 0 307.393 203.948">
<defs>
<path id="font_1_1" d="M.33399964 .30233766C.33999635 .32835389 .36299134 .42037965 .43299867 .42037965 .43798829 .42037965 .46199037 .42037965 .48298646 .40734864 .45498658 .402359 .43499757 .37734986 .43499757 .35334779 .43499757 .33735658 .44599916 .31835938 .47299195 .31835938 .49499513 .31835938 .5269928 .3363495 .5269928 .37635804 .5269928 .42837525 .46798707 .4423828 .43399049 .4423828 .37599183 .4423828 .34098817 .38935853 .32899476 .36634828 .3039856 .43237306 .25 .4423828 .22099304 .4423828 .116989139 .4423828 .05999756 .3133545 .05999756 .28834535 .05999756 .27833558 .069992069 .27833558 .07199097 .27833558 .07998657 .27833558 .08299255 .28033448 .084991458 .28933717 .11898804 .39535523 .18499756 .42037965 .21899414 .42037965 .23799134 .42037965 .272995 .4113617 .272995 .35334779 .272995 .32235719 .2559967 .25532533 .21899414 .11528015 .20298767 .053268434 .16799927 .011245728 .12399292 .011245728 .117996219 .011245728 .09498596 .011245728 .07398987 .024276734 .09899902 .029266358 .12098694 .05027771 .12098694 .07827759 .12098694 .105270389 .09899902 .11328125 .083999637 .11328125 .053985597 .11328125 .0289917 .08728027 .0289917 .055267335 .0289917 .009246826 .07899475-.0107421879 .12298584-.0107421879 .18899536-.0107421879 .22499085 .059280397 .22799683 .0652771 .23999024 .028274537 .27598573-.0107421879 .33599855-.0107421879 .43899537-.0107421879 .49598695 .118270877 .49598695 .14328003 .49598695 .1532898 .4869995 .1532898 .48399354 .1532898 .47499085 .1532898 .47299195 .14929199 .47099305 .14228821 .43798829 .03527832 .36999513 .011245728 .33799745 .011245728 .29899598 .011245728 .2829895 .043273927 .2829895 .07727051 .2829895 .09927368 .2889862 .121276859 .2999878 .16529846L.33399964 .30233766Z"/>
<path id="font_1_2" d="M.48599244 .38136292C.48999024 .39537049 .48999024 .39736939 .48999024 .40437318 .48999024 .42237855 .47599793 .43138124 .46099855 .43138124 .45098878 .43138124 .43499757 .42536927 .42599488 .41036988 .42399598 .405365 .41600038 .37435914 .4119873 .35635377 .40499879 .33035279 .397995 .30334474 .3919983 .27633668L.34700013 .09628296C.34298707 .08126831 .2999878 .011245728 .23399353 .011245728 .18299866 .011245728 .17199707 .055267335 .17199707 .0922699 .17199707 .1382904 .18899536 .20030213 .22299195 .28833009 .23899842 .3293457 .24299622 .3403473 .24299622 .36035157 .24299622 .405365 .21099854 .4423828 .16099549 .4423828 .06599426 .4423828 .0289917 .29733277 .0289917 .28833009 .0289917 .27833558 .038986207 .27833558 .040985109 .27833558 .050994874 .27833558 .051986696 .28033448 .056991579 .29634095 .083999637 .3903656 .12399292 .42037965 .1579895 .42037965 .1659851 .42037965 .18299866 .42037965 .18299866 .3883667 .18299866 .36335755 .17298889 .3373413 .1659851 .31834413 .12599182 .21231079 .10798645 .1552887 .10798645 .10827637 .10798645 .019256592 .17098999-.0107421879 .22999573-.0107421879 .2689972-.0107421879 .30299378 .0062561037 .33099366 .03425598 .31799317-.017745972 .30599977-.06674194 .2659912-.11973572 .23999024-.15385437 .20199585-.18309021 .1559906-.18309021 .14199829-.18309021 .09700012-.18005371 .07998657-.14074707 .09599304-.14074707 .10899353-.14074707 .12298584-.1287384 .1329956-.11973572 .14299011-.10673523 .14299011-.08773804 .14299011-.056747438 .115997318-.052734376 .10598755-.052734376 .08299255-.052734376 .049987794-.068740848 .049987794-.11773682 .049987794-.16796875 .09399414-.20507813 .1559906-.20507813 .25898744-.20507813 .3619995-.11373901 .3899994-.00074768069L.48599244 .38136292Z"/>
<path id="font_2_1" d="M.74398806 .2263794C.7599945 .2263794 .7839966 .2263794 .7839966 .25038148 .7839966 .27539063 .7609863 .27539063 .74398806 .27539063H.147995C.13198853 .27539063 .10798645 .27539063 .10798645 .25138856 .10798645 .2263794 .1309967 .2263794 .147995 .2263794H.74398806Z"/>
<path id="font_3_2" d="M.33499146 .63612368C.33499146 .6630554 .33299256 .6640625 .30499269 .6640625 .24099732 .6014404 .1499939 .6004486 .10899353 .6004486V.5644531C.1329956 .5644531 .19898987 .5644531 .2539978 .592453V.08203125C.2539978 .04899597 .2539978 .035995485 .1539917 .035995485H.115997318V0C.13398743 .0009918213 .25698854 .0039978029 .2939911 .0039978029 .32499696 .0039978029 .45098878 .0009918213 .47299195 0V.035995485H.43499757C.33499146 .035995485 .33499146 .04899597 .33499146 .08203125V.63612368Z"/>
<path id="font_3_1" d="M.5159912 .31925965C.5159912 .42918397 .5029907 .50813296 .45700074 .5780945 .42599488 .62405398 .3639984 .6640625 .28399659 .6640625 .051986696 .6640625 .051986696 .39120484 .051986696 .31925965 .051986696 .2472992 .051986696-.01953125 .28399659-.01953125 .5159912-.01953125 .5159912 .2472992 .5159912 .31925965M.28399659 .008468628C.23799134 .008468628 .1769867 .035446168 .15699768 .117385867 .14299011 .17634583 .14299011 .25830079 .14299011 .33224488 .14299011 .40519715 .14299011 .4811554 .1579895 .53611758 .1789856 .6150665 .24299622 .63604739 .28399659 .63604739 .33799745 .63604739 .3899994 .6030731 .4079895 .545105 .42399598 .4911499 .4249878 .41918946 .4249878 .33224488 .4249878 .25830079 .4249878 .18434143 .4119873 .12138367 .3919983 .030441285 .32398988 .008468628 .28399659 .008468628Z"/>
<path id="font_3_4" d="M.15499878 .5588074C.20599365 .5458069 .23599243 .5458069 .2519989 .5458069 .38398744 .5458069 .46199037 .6358032 .46199037 .6508026 .46199037 .6618042 .45498658 .6648102 .44999696 .6648102 .44799806 .6648102 .44599916 .6648102 .44198609 .6618042 .41799928 .6528015 .36499024 .6328125 .29100038 .6328125 .2630005 .6328125 .20999146 .6348114 .14498902 .6598053 .1349945 .6648102 .1329956 .6648102 .13198853 .6648102 .11898804 .6648102 .11898804 .6538086 .11898804 .6378021V.34251405C.11898804 .32548524 .11898804 .3134613 .1349945 .3134613 .14399719 .3134613 .14498902 .3154602 .15499878 .32748414 .19799805 .38259889 .25898744 .390625 .2939911 .390625 .35398866 .390625 .3809967 .34251405 .38598634 .33450318 .4039917 .30143739 .4099884 .26335145 .4099884 .20524597 .4099884 .17524719 .4099884 .116256717 .37998963 .07234192 .35499574 .03640747 .31199647 .012466431 .2630005 .012466431 .19799805 .012466431 .1309967 .04838562 .10598755 .11425781 .14399719 .11125183 .16299439 .13624573 .16299439 .16325379 .16299439 .20625305 .12599182 .21424866 .11299133 .21424866 .11099243 .21424866 .06298828 .21424866 .06298828 .1602478 .06298828 .07034302 .14498902-.01953125 .2649994-.01953125 .3929901-.01953125 .5049896 .07533264 .5049896 .20124817 .5049896 .31445313 .4189911 .41862489 .29499818 .41862489 .25099183 .41862489 .19898987 .4076233 .15499878 .36956788V.5588074Z"/>
<path id="font_4_1" d="M.82899478 .4252472C.82899478 .5821686 .71598818 .703125 .5389862 .703125 .2999878 .703125 .068984989 .47921754 .068984989 .2543335 .068984989 .09341431 .18798828-.01953125 .3600006-.01953125 .59799197-.01953125 .82899478 .19836426 .82899478 .4252472M.36799623 .013458252C.2619934 .013458252 .17199707 .0854187 .17199707 .23335266 .17199707 .28431703 .18598938 .426239 .27799989 .54019168 .34498597 .6221466 .44198609 .67111209 .5309906 .67111209 .6349945 .67111209 .73098757 .6051483 .73098757 .4602356 .73098757 .38726808 .69999697 .24134827 .6069946 .13439942 .5369873 .05444336 .44599916 .013458252 .36799623 .013458252Z"/>
<path id="font_3_3" d="M.5289917 .1640625V.20005799H.41799928V.64582827C.41799928 .66682437 .41799928 .6738281 .3959961 .6738281 .38398744 .6738281 .37998963 .6738281 .36999513 .65982058L.038986207 .20005799V.1640625H.33299256V.08201599C.33299256 .04800415 .33299256 .035995485 .2519989 .035995485H.22499085V0C.2749939 .0019989014 .33898927 .0039978029 .375 .0039978029 .4119873 .0039978029 .47599793 .0019989014 .526001 0V.035995485H.49899293C.41799928 .035995485 .41799928 .04800415 .41799928 .08201599V.1640625H.5289917M.33999635 .5658722V.20005799H.07598877L.33999635 .5658722Z"/>
<path id="font_3_5" d="M.35499574 .36123658C.43299867 .3992157 .48298646 .44618226 .48298646 .5151367 .48298646 .6120758 .38198854 .6640625 .2849884 .6640625 .1749878 .6640625 .084991458 .5920868 .084991458 .4971466 .084991458 .45018006 .10699463 .41619874 .125 .39620973 .14299011 .37522889 .1499939 .37123109 .20899964 .33624269 .15299988 .31227113 .053985597 .25830079 .053985597 .15336609 .053985597 .042434694 .16899109-.01953125 .2829895-.01953125 .4099884-.01953125 .5139923 .061431886 .5139923 .1693573 .5139923 .23532105 .47499085 .29127503 .4169922 .32525636 .4039917 .33325196 .36898805 .35324098 .35499574 .36123658M.19198609 .45617677C.1659851 .4711609 .13798523 .49813844 .13798523 .53512576 .13798523 .5980835 .21099854 .63505557 .2829895 .63505557 .36099244 .63505557 .42999269 .5860901 .42999269 .5151367 .42999269 .42619325 .32598878 .3812256 .32398988 .3812256 .32199098 .3812256 .31999208 .3822174 .31298829 .3862152L.19198609 .45617677M.24099732 .31726075 .37799073 .23831177C.4039917 .22332764 .45399476 .19334412 .45399476 .13438416 .45399476 .059432985 .37098695 .012466431 .2849884 .012466431 .19299317 .012466431 .11399841 .07142639 .11399841 .15336609 .11399841 .22732544 .16899109 .2842865 .24099732 .31726075Z"/>
</defs>
<path transform="matrix(1,0,0,-1,151.556,85.958)" stroke-width=".3985" stroke-linecap="butt" stroke-miterlimit="10" stroke-linejoin="miter" fill="none" stroke="#000000" d="M-140.31575 0H138.32323"/>
<path transform="matrix(1,0,0,-1,289.8792,85.958)" d="M1.99252 0-1.19551 1.59401 0 0-1.19551-1.59401"/>
<use data-text="x" xlink:href="#font_1_1" transform="matrix(9.96264,0,0,-9.96264,295.39,93.767)"/>
<path transform="matrix(1,0,0,-1,151.556,85.958)" stroke-width=".3985" stroke-linecap="butt" stroke-miterlimit="10" stroke-linejoin="miter" fill="none" stroke="#000000" d="M0-114.80379V74.54333"/>
<path transform="matrix(0,-1,-1,-0,151.556,11.414673)" d="M1.99252 0-1.19551 1.59401 0 0-1.19551-1.59401"/>
<use data-text="y" xlink:href="#font_1_2" transform="matrix(9.96264,0,0,-9.96264,142.795,10.598999)"/>
<path transform="matrix(1,0,0,-1,151.556,85.958)" stroke-width=".3985" stroke-linecap="butt" stroke-miterlimit="10" stroke-linejoin="miter" fill="none" stroke="#000000" d="M-127.55977 1.9133V-1.9133"/>
<path transform="matrix(1,0,0,-1,151.556,85.958)" stroke-width=".3985" stroke-linecap="butt" stroke-miterlimit="10" stroke-linejoin="miter" fill="none" stroke="#000000" d="M-63.77988 1.9133V-1.9133"/>
<path transform="matrix(1,0,0,-1,151.556,85.958)" stroke-width=".3985" stroke-linecap="butt" stroke-miterlimit="10" stroke-linejoin="miter" fill="none" stroke="#000000" d="M63.77988 1.9133V-1.9133"/>
<path transform="matrix(1,0,0,-1,151.556,85.958)" stroke-width=".3985" stroke-linecap="butt" stroke-miterlimit="10" stroke-linejoin="miter" fill="none" stroke="#000000" d="M127.55977 1.9133V-1.9133"/>
<use data-text="&#x2212;" xlink:href="#font_2_1" transform="matrix(6.97385,0,0,-6.97385,6.3090059,93.972)"/>
<use data-text="1" xlink:href="#font_3_2" transform="matrix(6.97385,0,0,-6.97385,12.536006,93.972)"/>
<use data-text="0" xlink:href="#font_3_1" transform="matrix(6.97385,0,0,-6.97385,16.504126,93.972)"/>
<use data-text="&#x2212;" xlink:href="#font_2_1" transform="matrix(6.97385,0,0,-6.97385,82.678,79.057)"/>
<use data-text="5" xlink:href="#font_3_4" transform="matrix(6.97385,0,0,-6.97385,88.905,79.057)"/>
<use data-text="O" xlink:href="#font_4_1" transform="matrix(6.97385,0,0,-6.97385,155.076,94.243)"/>
<use data-text="5" xlink:href="#font_3_4" transform="matrix(6.97385,0,0,-6.97385,213.35,79.887)"/>
<use data-text="1" xlink:href="#font_3_2" transform="matrix(6.97385,0,0,-6.97385,282.634,93.972)"/>
<use data-text="0" xlink:href="#font_3_1" transform="matrix(6.97385,0,0,-6.97385,286.6021,93.972)"/>
<use data-text="4" xlink:href="#font_3_3" transform="matrix(6.97385,0,0,-6.97385,144.065,37.18199)"/>
<use data-text="&#x2212;" xlink:href="#font_2_1" transform="matrix(6.97385,0,0,-6.97385,137.839,189.836)"/>
<use data-text="8" xlink:href="#font_3_5" transform="matrix(6.97385,0,0,-6.97385,144.065,189.836)"/>
<path transform="matrix(1,0,0,-1,151.556,85.958)" stroke-width=".3985" stroke-linecap="butt" stroke-miterlimit="10" stroke-linejoin="miter" fill="none" stroke="#000000" d="M1.9133 51.0239H-1.9133"/>
<path transform="matrix(1,0,0,-1,151.556,85.958)" stroke-width=".3985" stroke-linecap="butt" stroke-miterlimit="10" stroke-linejoin="miter" fill="none" stroke="#000000" d="M1.9133-102.0478H-1.9133"/>
<path transform="matrix(1,0,0,-1,151.556,85.958)" stroke-width=".79701" stroke-linecap="butt" stroke-miterlimit="10" stroke-linejoin="miter" fill="none" stroke="#000000" d="M.00134 47.74556C.00134 47.74556 .77579 40.09738 1.07324 38.56728 1.37067 37.03717 1.84767 37.13968 2.14511 36.7176 2.44255 36.29552 2.91956 35.81783 3.21701 35.52524 3.51445 35.23264 3.99146 34.83978 4.2889 34.60866 4.58633 34.37755 5.06332 34.0518 5.36078 33.8595 5.65822 33.66719 6.13522 33.3883 6.43266 33.22264 6.7301 33.05695 7.2071 32.81154 7.50456 32.66537 7.80199 32.51923 8.279 32.30038 8.57645 32.16924 8.87387 32.0381 9.35088 31.83975 9.64833 31.7202 9.94577 31.60065 10.42278 31.41747 10.72021 31.30756 11.01765 31.19765 11.49466 31.02896 11.7921 30.92802 12.08955 30.82707 12.56654 30.67403 12.86398 30.57999 13.16142 30.48596 13.63843 30.339 13.93587 30.25027 14.23332 30.16154 14.71033 30.02406 15.00775 29.9404 15.30519 29.85674 15.78221 29.72643 16.07964 29.64728 16.37709 29.56813 16.8541 29.44498 17.15154 29.3699 17.44897 29.29485 17.92598 29.17776 18.22342 29.10617 18.52086 29.03459 18.99786 28.92232 19.2953 28.85393 19.59274 28.78552 20.06975 28.67867 20.36719 28.61314 20.66463 28.54764 21.14165 28.4446 21.43909 28.38171 21.73653 28.31886 22.21352 28.22038 22.51096 28.16003 22.8084 28.09967 23.28542 28.00482 23.58286 27.9467 23.8803 27.88858 24.3573 27.79742 24.65474 27.74115 24.95218 27.6849 25.4292 27.59576 25.72662 27.54126 26.02406 27.48677 26.50107 27.40099 26.79851 27.34837 27.09595 27.29576 27.57297 27.21304 27.8704 27.1621 28.16783 27.11118 28.64485 27.03075 28.94229 26.98128 29.23973 26.93181 29.71674 26.85353 30.01418 26.80553 30.31161 26.75749 30.78862 26.68187 31.08606 26.63521 31.3835 26.58855 31.86049 26.51463 32.15794 26.46918 32.45538 26.42374 32.9324 26.35187 33.22983 26.30762 33.52727 26.26338 34.00427 26.19348 34.30173 26.15036 34.59917 26.10724 35.07617 26.03885 35.37361 25.9968 35.67104 25.95471 36.14804 25.88818 36.4455 25.8471 36.74294 25.80603 37.21994 25.74089 37.51738 25.70074 37.81482 25.66058 38.29182 25.59697 38.58928 25.55768 38.88672 25.51839 39.36371 25.4559 39.66115 25.41753 39.95859 25.37917 40.4356 25.31863 40.73303 25.2811 41.03049 25.24356 41.50749 25.18382 41.80493 25.14699 42.10237 25.11017 42.57938 25.05174 42.8768 25.01561 43.17426 24.97948 43.65126 24.92188 43.9487 24.88655 44.24614 24.85124 44.72314 24.79561 45.02058 24.76102 45.31804 24.72643 45.79504 24.6713 46.09248 24.63722 46.38991 24.60315 46.86691 24.5489 47.16435 24.51537 47.4618 24.48184 47.93881 24.42827 48.23625 24.39548 48.53369 24.3627 49.0107 24.31126 49.30814 24.27908 49.60559 24.2469 50.08258 24.19533 50.38002 24.16347 50.67746 24.13159 51.15446 24.08066 51.4519 24.04942 51.74934 24.01816 52.22636 23.96893 52.52379 23.93826 52.82123 23.9076 53.29825 23.85847 53.59567 23.8283 53.89311 23.7981 54.37013 23.75043 54.66757 23.72066 54.96501 23.6909 55.44202 23.64302 55.73946 23.6138 56.0369 23.58458 56.5139 23.53885 56.81134 23.51006 57.10878 23.48128 57.58578 23.43475 57.88322 23.40631 58.18066 23.37788 58.65768 23.33304 58.95512 23.3051 59.25256 23.27716 59.72957 23.2324 60.027 23.20485 60.32443 23.17732 60.80145 23.1337 61.09889 23.10655 61.39633 23.07942 61.87334 23.03604 62.17078 23.00925 62.46822 22.98245 62.94522 22.93985 63.24268 22.91348 63.5401 22.8871 64.0171 22.84521 64.31454 22.81909 64.61198 22.79294 65.08899 22.75087 65.38644 22.72507 65.68388 22.69928 66.16089 22.65857 66.45833 22.6332 66.75577 22.60782 67.23276 22.56717 67.53021 22.54211 67.82765 22.51706 68.30466 22.47737 68.6021 22.45258 68.89954 22.42778 69.37654 22.38802 69.67398 22.36342 69.97142 22.33882 70.44844 22.29945 70.74586 22.27525 71.0433 22.25107 71.52031 22.21286 71.81775 22.18903 72.1152 22.16519 72.59221 22.12698 72.88965 22.10338 73.18707 22.07979 73.6641 22.04216 73.96153 22.01892 74.25897 21.99567 74.73598 21.95886 75.03342 21.93579 75.33086 21.91275 75.80786 21.87553 76.1053 21.85269 76.40276 21.82985 76.87975 21.79366 77.17719 21.77113 77.47462 21.74861 77.95163 21.7126 78.24907 21.69035 78.54652 21.66812 79.02353 21.63281 79.32097 21.61075 79.61841 21.58868 80.09541 21.55315 80.39284 21.53133 80.69028 21.50952 81.1673 21.47508 81.46474 21.45348 81.76218 21.43188 82.23918 21.397 82.53662 21.37563 82.83406 21.35425 83.31108 21.3205 83.60852 21.29933 83.90596 21.27815 84.38295 21.2439 84.68039 21.22302 84.97783 21.20216 85.45485 21.16953 85.75229 21.14888 86.04973 21.12822 86.52673 21.09479 86.82417 21.07413 87.12161 21.05347 87.59863 21.0202 87.89606 20.99995 88.1935 20.9797 88.6705 20.94815 88.96794 20.92815 89.26538 20.90814 89.7424 20.87561 90.03984 20.85574 90.33727 20.83588 90.81429 20.80463 91.11172 20.7849 91.40915 20.76515 91.88615 20.73317 92.18361 20.71347 92.48105 20.69374 92.95805 20.66217 93.2555 20.6428 93.55293 20.62346 94.02992 20.59296 94.32738 20.5739 94.62482 20.55482 95.10182 20.52426 95.39926 20.50539 95.6967 20.48651 96.1737 20.4568 96.47116 20.43785 96.7686 20.4189 97.2456 20.38762 97.54303 20.36874 97.84047 20.34988 98.31747 20.3203 98.61493 20.30179 98.91237 20.2833 99.38937 20.25365 99.68681 20.23543 99.98425 20.2172 100.46126 20.18872 100.7587 20.17043 101.05614 20.1521 101.53314 20.1217 101.83058 20.10345 102.12802 20.08519 102.60503 20.05673 102.90247 20.03883 103.19992 20.02094 103.67693 19.99222 103.97437 19.97441 104.2718 19.95659 104.7488 19.928 105.04623 19.91037 105.34369 19.89275 105.8207 19.86469 106.11813 19.8473 106.41557 19.82991 106.89258 19.80234 107.19002 19.78502 107.48747 19.76772 107.96448 19.73976 108.26192 19.72253 108.55934 19.7053 109.03635 19.67789 109.33379 19.66084 109.63124 19.6438 110.10825 19.61665 110.40569 19.59972 110.70313 19.58278 111.18013 19.5556 111.47757 19.5388 111.77501 19.522 112.25201 19.49529 112.54945 19.47865 112.8469 19.46202 113.3239 19.43549 113.62134 19.41891 113.91878 19.40233 114.3958 19.37563 114.69322 19.35915 114.99066 19.34267 115.46768 19.31638 115.7651 19.30019 116.06255 19.28398 116.53957 19.25851 116.837 19.24237 117.13445 19.22623 117.61145 19.19995 117.90889 19.18378 118.20631 19.1676 118.68333 19.14175 118.98077 19.12576 119.27821 19.10979 119.75522 19.08435 120.05266 19.06854 120.3501 19.05275 120.82712 19.02753 121.12456 19.0119 121.422 18.99628 121.89899 18.97151 122.19643 18.95586 122.49387 18.9402 122.97087 18.91463 123.26833 18.89902 123.56577 18.88342 124.04277 18.85872 124.34021 18.84335 124.63765 18.82799 125.11465 18.80351 125.4121 18.78827 125.70953 18.77301 126.18654 18.74858 126.48398 18.73337 126.78142 18.71817 127.55588 18.67868 127.55588 18.67868"/>
<path transform="matrix(1,0,0,-1,151.556,85.958)" stroke-width=".79701" stroke-linecap="butt" stroke-miterlimit="10" stroke-linejoin="miter" fill="none" stroke="#000000" d="M-127.55977 18.67868C-127.55977 18.67868-126.78531 18.71817-126.48787 18.73337-126.19043 18.74858-125.71342 18.77301-125.416 18.78827-125.11855 18.80351-124.64154 18.82799-124.3441 18.84335-124.04666 18.85872-123.56966 18.88342-123.27222 18.89902-122.97478 18.91463-122.49776 18.94025-122.20032 18.95586-121.90288 18.97145-121.42589 18.99594-121.12845 19.0115-120.83101 19.0271-120.35399 19.0523-120.05655 19.06815-119.75911 19.08401-119.2821 19.1098-118.98466 19.12576-118.68723 19.14172-118.2102 19.16707-117.91278 19.1832-117.61534 19.19931-117.13834 19.22577-116.8409 19.24197-116.54346 19.25818-116.06644 19.28372-115.769 19.29997-115.47157 19.31624-114.99455 19.3427-114.69711 19.35915-114.39969 19.3756-113.92267 19.40195-113.62523 19.41852-113.32779 19.43509-112.85078 19.46198-112.55334 19.47865-112.2559 19.49535-111.77892 19.52203-111.48146 19.5388-111.18402 19.55557-110.70702 19.58264-110.40958 19.59952-110.11214 19.61641-109.63513 19.6434-109.33768 19.66045-109.04024 19.6775-108.56323 19.70534-108.26581 19.72253-107.96837 19.73975-107.49136 19.76712-107.19391 19.78444-106.89647 19.80174-106.41946 19.82983-106.12202 19.8473-105.82458 19.86478-105.34758 19.89275-105.05013 19.91037-104.7527 19.928-104.2757 19.95659-103.97826 19.97441-103.68082 19.99222-103.20381 20.02081-102.90637 20.03883-102.60892 20.05684-102.13191 20.08624-101.83447 20.10423-101.53703 20.12221-101.06004 20.15025-100.7626 20.16846-100.46515 20.18666-99.98814 20.21698-99.6907 20.23543-99.39326 20.25386-98.91626 20.28291-98.61884 20.3014-98.32138 20.3199-97.84436 20.35007-97.54692 20.36874-97.2495 20.38742-96.77249 20.41736-96.47505 20.4361-96.1776 20.45483-95.70059 20.48473-95.40315 20.50383-95.10571 20.52293-94.62871 20.55461-94.33127 20.5739-94.03383 20.59317-93.55682 20.62354-93.25938 20.6428-92.96194 20.66208-92.48494 20.6933-92.1875 20.71288-91.89006 20.73245-91.41304 20.76404-91.11562 20.78392-90.81818 20.80379-90.34116 20.83612-90.04373 20.85614-89.74629 20.87614-89.26927 20.90814-88.97183 20.92815-88.6744 20.94815-88.19739 20.9801-87.89995 21.00035-87.60252 21.0206-87.1255 21.05365-86.82806 21.07413-86.53062 21.09459-86.05362 21.12732-85.75618 21.1479-85.45874 21.16847-84.98172 21.20143-84.68428 21.22244-84.38684 21.24345-83.90985 21.27808-83.61241 21.29933-83.31497 21.32057-82.83797 21.35425-82.54051 21.37563-82.24307 21.397-81.76607 21.43193-81.46863 21.45348-81.17119 21.47502-80.69418 21.50928-80.39674 21.53094-80.0993 21.55264-79.6223 21.58774-79.32486 21.60979-79.02742 21.63182-78.55042 21.66748-78.25296 21.68977-77.95554 21.71208-77.47852 21.74796-77.18108 21.77055-76.88365 21.79315-76.40665 21.82977-76.10919 21.85269-75.81175 21.87561-75.33475 21.91277-75.03731 21.93579-74.73987 21.95885-74.26288 21.99547-73.96542 22.01872-73.66798 22.04196-73.19096 22.07976-72.89354 22.10338-72.5961 22.12701-72.1191 22.16522-71.82166 22.18903-71.5242 22.21283-71.0472 22.25087-70.74976 22.27505-70.45233 22.29926-69.97533 22.3389-69.67789 22.36342-69.38043 22.38794-68.90343 22.427-68.60599 22.4518-68.30855 22.4766-67.83154 22.517-67.5341 22.54211-67.23665 22.56723-66.75966 22.6075-66.46222 22.63281-66.16478 22.65814-65.68777 22.69891-65.39034 22.72469-65.09288 22.75044-64.61588 22.7924-64.31844 22.8185-64.021 22.84459-63.54399 22.88634-63.24657 22.9127-62.94913 22.93906-62.4721 22.98167-62.17467 23.00845-61.87723 23.03526-61.40022 23.07857-61.10278 23.10579-60.80534 23.13301-60.32832 23.1771-60.03088 23.20467-59.73346 23.23224-59.25645 23.27655-58.95901 23.30452-58.66158 23.33249-58.18456 23.37793-57.88712 23.40631-57.58968 23.4347-57.11267 23.48036-56.81523 23.5091-56.51779 23.53783-56.04079 23.5841-55.74335 23.6134-55.4459 23.6427-54.9689 23.69048-54.67146 23.72026-54.37402 23.75006-53.897 23.79794-53.59958 23.82811-53.30214 23.85826-52.82512 23.907-52.5277 23.93768-52.23026 23.96835-51.75325 24.01796-51.4558 24.04922-51.15836 24.08046-50.68135 24.131-50.38391 24.16289-50.08649 24.19478-49.60948 24.24677-49.31203 24.27908-49.01459 24.3114-48.53758 24.36317-48.24014 24.39587-47.9427 24.42857-47.4657 24.48137-47.16824 24.5148-46.8708 24.54822-46.39381 24.60278-46.09637 24.63684-45.79893 24.67088-45.32193 24.72562-45.02448 24.76022-44.72704 24.79485-44.25003 24.85104-43.95259 24.88637-43.65515 24.92168-43.17815 24.97871-42.8807 25.01482-42.58327 25.05092-42.10626 25.10974-41.80882 25.1466-41.51138 25.18346-41.03438 25.24294-40.73694 25.2805-40.43948 25.31807-39.96248 25.37892-39.66504 25.41733-39.3676 25.45576-38.89061 25.51822-38.59317 25.55748-38.29572 25.59676-37.81871 25.66028-37.52127 25.70035-37.22383 25.74042-36.74683 25.80522-36.4494 25.84633-36.15195 25.88742-35.67493 25.9545-35.3775 25.9966-35.08006 26.03868-34.60306 26.10669-34.30562 26.14977-34.00816 26.19287-33.53116 26.26294-33.23372 26.30725-32.9363 26.35153-32.45927 26.42357-32.16183 26.469-31.86441 26.51442-31.38739 26.58797-31.08995 26.63461-30.79251 26.68129-30.3155 26.75735-30.01807 26.80533-29.72063 26.85329-29.24362 26.9309-28.94618 26.98032-28.64874 27.02972-28.17174 27.11053-27.8743 27.16151-27.57686 27.21251-27.09984 27.29524-26.8024 27.3478-26.50496 27.40034-26.02795 27.48592-25.73053 27.5403-25.43309 27.59467-24.95607 27.68349-24.65863 27.7398-24.36119 27.79611-23.88419 27.88786-23.58675 27.94612-23.2893 28.00436-22.81229 28.09933-22.51485 28.15964-22.2174 28.21994-21.74042 28.31801-21.44298 28.38075-21.14554 28.44347-20.66853 28.54626-20.37108 28.61179-20.07364 28.6773-19.59663 28.7845-19.2992 28.85295-19.00175 28.9214-18.52475 29.03368-18.22731 29.1052-17.92987 29.17674-17.45287 29.2935-17.15543 29.36855-16.85799 29.44359-16.38098 29.56691-16.08353 29.64612-15.7861 29.72531-15.30908 29.85573-15.01164 29.93944-14.71422 30.02312-14.23721 30.16058-13.93976 30.2493-13.64232 30.33801-13.16531 30.48465-12.86787 30.57881-12.57043 30.67299-12.09344 30.82716-11.796 30.92802-11.49855 31.02887-11.02155 31.1962-10.7241 31.3058-10.42667 31.4154-9.94966 31.59857-9.65222 31.71805-9.35477 31.83755-8.87776 32.03596-8.58034 32.16708-8.2829 32.29823-7.8059 32.51706-7.50845 32.66324-7.211 32.80942-6.734 33.05498-6.43655 33.22067-6.13911 33.3864-5.66211 33.6652-5.36467 33.85754-5.06723 34.04988-4.59023 34.3761-4.29279 34.60692-3.99535 34.83772-3.51834 35.22914-3.2209 35.52115-2.92346 35.81313-2.44644 36.2899-2.149 36.71136-1.85156 37.13284-1.37457 37.169-1.07713 38.5589-.7797 39.94879-.00523 46.72876-.00523 46.72876"/>
<path transform="matrix(1,0,0,-1,151.556,85.958)" stroke-width=".3985" stroke-linecap="butt" stroke-dasharray="2.98883,2.98883" stroke-miterlimit="10" stroke-linejoin="miter" fill="none" stroke="#000000" d="M0 51.0239 127.55977-102.0478"/>
<path transform="matrix(1,0,0,-1,151.556,85.958)" stroke-width=".3985" stroke-linecap="butt" stroke-dasharray="2.98883,2.98883" stroke-miterlimit="10" stroke-linejoin="miter" fill="none" stroke="#000000" d="M0 51.0239-127.55977-102.0478"/>
</svg>
