<svg xmlns="http://www.w3.org/2000/svg" xmlns:xlink="http://www.w3.org/1999/xlink" xmlns:inkscape="http://www.inkscape.org/namespaces/inkscape" version="1.1" width="168.384" height="81.771" viewBox="0 0 168.384 81.771">
<defs>
<clipPath id="clip_1">
<path transform="matrix(1,0,0,-1,12.531,78.336009)" d="M0 0H143.18054V75.14912H0Z"/>
</clipPath>
<path id="font_2_1" d="M.45999146 .31976319C.45999146 .39982606 .45498658 .47988893 .41999818 .5539398 .37399293 .65000918 .2919922 .6660156 .25 .6660156 .18998719 .6660156 .116989139 .64001467 .07598877 .54693606 .04399109 .47789 .038986207 .39982606 .038986207 .31976319 .038986207 .24472046 .042999269 .15464783 .083999637 .07859802 .1269989-.0024719239 .19999695-.022460938 .24899292-.022460938 .30299378-.022460938 .3789978-.0014648438 .4229889 .09359741 .45498658 .16265869 .45999146 .2407074 .45999146 .31976319M.24899292-.00047302247C.20999146-.00047302247 .15098572 .024551392 .1329956 .12062073 .12199402 .18066406 .12199402 .2727356 .12199402 .3317871 .12199402 .39582826 .12199402 .46188355 .12998963 .5159149 .14898682 .63500979 .22399903 .64401248 .24899292 .64401248 .28199769 .64401248 .34799195 .6259918 .36698915 .52693179 .3769989 .47088624 .3769989 .39482118 .3769989 .3317871 .3769989 .25672914 .3769989 .18867493 .3659973 .12461853 .35099793 .029556275 .2939911-.00047302247 .24899292-.00047302247Z"/>
<path id="font_3_1" d="M.19198609 .052993776C.19198609 .08198547 .16799927 .10598755 .13899231 .10598755 .10998535 .10598755 .085998538 .08198547 .085998538 .052993776 .085998538 .023986817 .10998535 0 .13899231 0 .16799927 0 .19198609 .023986817 .19198609 .052993776Z"/>
<path id="font_2_5" d="M.44898988 .20022583C.44898988 .3193512 .36698915 .41944886 .25898744 .41944886 .21099854 .41944886 .16799927 .40345765 .13198853 .36842347V.5637665C.1519928 .5577698 .18499756 .55078127 .21699524 .55078127 .33999635 .55078127 .4099884 .6417694 .4099884 .6547699 .4099884 .6607666 .40699769 .6657715 .3999939 .6657715 .39898683 .6657715 .39698792 .6657715 .3919983 .66278079 .37199403 .6537781 .32299806 .6337738 .2559967 .6337738 .21598816 .6337738 .16999817 .6407776 .12298584 .6617737 .114990238 .66477969 .11299133 .66477969 .11099243 .66477969 .100997928 .66477969 .100997928 .6567688 .100997928 .6407776V.34439088C.100997928 .32637025 .100997928 .31835938 .114990238 .31835938 .12199402 .31835938 .12399292 .32136537 .12799073 .32736207 .13899231 .3433838 .17599488 .39746095 .25698854 .39746095 .30899049 .39746095 .33399964 .35139466 .34199525 .33337403 .35798646 .29632569 .3600006 .25727845 .3600006 .20722962 .3600006 .17222595 .3600006 .11222839 .33599855 .07035828 .31199647 .031463624 .2749939 .0055389406 .22898865 .0055389406 .1559906 .0055389406 .09899902 .058380128 .08198547 .11723328 .084991458 .1162262 .08799744 .115234378 .09899902 .115234378 .13198853 .115234378 .14898682 .14022827 .14898682 .16423035 .14898682 .18823242 .13198853 .21322632 .09899902 .21322632 .084991458 .21322632 .049987794 .20622254 .049987794 .16023255 .049987794 .07434082 .11898804-.022460938 .23098755-.022460938 .34700013-.022460938 .44898988 .073349 .44898988 .20022583Z"/>
<path id="font_2_2" d="M.2939911 .64004519C.2939911 .66400149 .2939911 .6660156 .2709961 .6660156 .20899964 .60227969 .12098694 .60227969 .08898926 .60227969V.57128909C.10899353 .57128909 .16799927 .57128909 .21998596 .5972748V.07902527C.21998596 .042999269 .21699524 .0309906 .1269989 .0309906H.09498596V0C.12998963 .0029907227 .21699524 .0029907227 .25698854 .0029907227 .29699708 .0029907227 .38398744 .0029907227 .4189911 0V.0309906H.3869934C.29699708 .0309906 .2939911 .041992189 .2939911 .07902527V.64004519Z"/>
<path id="font_2_3" d="M.1269989 .07699585 .23298645 .18003845C.3889923 .31811524 .44898988 .3721466 .44898988 .47216798 .44898988 .5860901 .35899354 .6660156 .23699951 .6660156 .12399292 .6660156 .049987794 .57411196 .049987794 .48516847 .049987794 .4291687 .099990848 .4291687 .102996829 .4291687 .11999512 .4291687 .15499878 .44117738 .15499878 .48217774 .15499878 .5081787 .13699341 .5341797 .101989749 .5341797 .09399414 .5341797 .09199524 .5341797 .08898926 .5331726 .11199951 .59806826 .1659851 .63500979 .22399903 .63500979 .31498719 .63500979 .35798646 .5541382 .35798646 .47216798 .35798646 .39215089 .30799867 .31311036 .25299073 .25108338L.06098938 .036987306C.049987794 .025985718 .049987794 .023986817 .049987794 0H.42099L.44898988 .17404175H.42399598C.4189911 .14402771 .4119873 .1000061 .4019928 .084991458 .394989 .07699585 .32899476 .07699585 .30699159 .07699585H.1269989Z"/>
<path id="font_2_4" d="M.2899933 .35191346C.37199403 .37893678 .42999269 .4490509 .42999269 .52809146 .42999269 .6100464 .34199525 .6660156 .24598694 .6660156 .14498902 .6660156 .068984989 .60606387 .068984989 .53009036 .068984989 .49710084 .09098816 .47808839 .11999512 .47808839 .15098572 .47808839 .17098999 .50009158 .17098999 .5290985 .17098999 .57910159 .12399292 .57910159 .10899353 .57910159 .13999939 .62802127 .20599365 .64100649 .24198914 .64100649 .2829895 .64100649 .33799745 .6190338 .33799745 .5290985 .33799745 .51708987 .33599855 .45906068 .30999757 .4149933 .27999879 .36691285 .24598694 .36390687 .22099304 .36291505 .21299744 .36190797 .18899536 .35990907 .18199158 .35990907 .17399597 .35890199 .16699219 .35791017 .16699219 .3479004 .16699219 .33691407 .17399597 .33691407 .19099427 .33691407H.23498535C.31698609 .33691407 .35398866 .2686615 .35398866 .17037964 .35398866 .034469606 .2849884 .0055389406 .24099732 .0055389406 .19799805 .0055389406 .12298584 .022491456 .08799744 .08137512 .12298584 .07637024 .1539917 .09837341 .1539917 .1363678 .1539917 .17237854 .1269989 .19238281 .09799194 .19238281 .07398987 .19238281 .041992189 .17837525 .041992189 .1343689 .041992189 .043441774 .1349945-.022460938 .24398804-.022460938 .3659973-.022460938 .45700074 .06838989 .45700074 .17037964 .45700074 .252594 .3939972 .33088685 .2899933 .35191346Z"/>
<clipPath id="clip_4">
<path transform="matrix(1,0,0,-1,12.531,78.336009)" d="M0 0H143.18054V75.14912H0Z"/>
</clipPath>
<path id="font_3_2" d="M.33399964 .30233766C.33999635 .32835389 .36299134 .42037965 .43299867 .42037965 .43798829 .42037965 .46199037 .42037965 .48298646 .40734864 .45498658 .402359 .43499757 .37734986 .43499757 .35334779 .43499757 .33735658 .44599916 .31835938 .47299195 .31835938 .49499513 .31835938 .5269928 .3363495 .5269928 .37635804 .5269928 .42837525 .46798707 .4423828 .43399049 .4423828 .37599183 .4423828 .34098817 .38935853 .32899476 .36634828 .3039856 .43237306 .25 .4423828 .22099304 .4423828 .116989139 .4423828 .05999756 .3133545 .05999756 .28834535 .05999756 .27833558 .069992069 .27833558 .07199097 .27833558 .07998657 .27833558 .08299255 .28033448 .084991458 .28933717 .11898804 .39535523 .18499756 .42037965 .21899414 .42037965 .23799134 .42037965 .272995 .4113617 .272995 .35334779 .272995 .32235719 .2559967 .25532533 .21899414 .11528015 .20298767 .053268434 .16799927 .011245728 .12399292 .011245728 .117996219 .011245728 .09498596 .011245728 .07398987 .024276734 .09899902 .029266358 .12098694 .05027771 .12098694 .07827759 .12098694 .105270389 .09899902 .11328125 .083999637 .11328125 .053985597 .11328125 .0289917 .08728027 .0289917 .055267335 .0289917 .009246826 .07899475-.0107421879 .12298584-.0107421879 .18899536-.0107421879 .22499085 .059280397 .22799683 .0652771 .23999024 .028274537 .27598573-.0107421879 .33599855-.0107421879 .43899537-.0107421879 .49598695 .118270877 .49598695 .14328003 .49598695 .1532898 .4869995 .1532898 .48399354 .1532898 .47499085 .1532898 .47299195 .14929199 .47099305 .14228821 .43798829 .03527832 .36999513 .011245728 .33799745 .011245728 .29899598 .011245728 .2829895 .043273927 .2829895 .07727051 .2829895 .09927368 .2889862 .121276859 .2999878 .16529846L.33399964 .30233766Z"/>
<path id="font_3_3" d="M.48599244 .38136292C.48999024 .39537049 .48999024 .39736939 .48999024 .40437318 .48999024 .42237855 .47599793 .43138124 .46099855 .43138124 .45098878 .43138124 .43499757 .42536927 .42599488 .41036988 .42399598 .405365 .41600038 .37435914 .4119873 .35635377 .40499879 .33035279 .397995 .30334474 .3919983 .27633668L.34700013 .09628296C.34298707 .08126831 .2999878 .011245728 .23399353 .011245728 .18299866 .011245728 .17199707 .055267335 .17199707 .0922699 .17199707 .1382904 .18899536 .20030213 .22299195 .28833009 .23899842 .3293457 .24299622 .3403473 .24299622 .36035157 .24299622 .405365 .21099854 .4423828 .16099549 .4423828 .06599426 .4423828 .0289917 .29733277 .0289917 .28833009 .0289917 .27833558 .038986207 .27833558 .040985109 .27833558 .050994874 .27833558 .051986696 .28033448 .056991579 .29634095 .083999637 .3903656 .12399292 .42037965 .1579895 .42037965 .1659851 .42037965 .18299866 .42037965 .18299866 .3883667 .18299866 .36335755 .17298889 .3373413 .1659851 .31834413 .12599182 .21231079 .10798645 .1552887 .10798645 .10827637 .10798645 .019256592 .17098999-.0107421879 .22999573-.0107421879 .2689972-.0107421879 .30299378 .0062561037 .33099366 .03425598 .31799317-.017745972 .30599977-.06674194 .2659912-.11973572 .23999024-.15385437 .20199585-.18309021 .1559906-.18309021 .14199829-.18309021 .09700012-.18005371 .07998657-.14074707 .09599304-.14074707 .10899353-.14074707 .12298584-.1287384 .1329956-.11973572 .14299011-.10673523 .14299011-.08773804 .14299011-.056747438 .115997318-.052734376 .10598755-.052734376 .08299255-.052734376 .049987794-.068740848 .049987794-.11773682 .049987794-.16796875 .09399414-.20507813 .1559906-.20507813 .25898744-.20507813 .3619995-.11373901 .3899994-.00074768069L.48599244 .38136292Z"/>
</defs>
<path transform="matrix(1,0,0,-1,12.531,78.336009)" stroke-width=".3985" stroke-linecap="butt" stroke-miterlimit="10" stroke-linejoin="miter" fill="none" stroke="#e5e6e5" d="M30.14326 0V75.14912M48.9828 0V75.14912M67.82236 0V75.14912M86.6619 0V75.14912M105.50145 0V75.14912M124.341 0V75.14912M143.18054 0V75.14912"/>
<path transform="matrix(1,0,0,-1,12.531,78.336009)" stroke-width=".3985" stroke-linecap="butt" stroke-miterlimit="10" stroke-linejoin="miter" fill="none" stroke="#e5e6e5" d="M0 37.57455H143.18054M0 61.05865H143.18054"/>
<path transform="matrix(1,0,0,-1,12.531,78.336009)" stroke-width=".19925" stroke-linecap="butt" stroke-miterlimit="10" stroke-linejoin="miter" fill="none" stroke="#7f807f" d="M30.14326 12.81485V15.36604M48.9828 12.81485V15.36604M67.82236 12.81485V15.36604M86.6619 12.81485V15.36604M105.50145 12.81485V15.36604M124.341 12.81485V15.36604M143.18054 12.81485V15.36604"/>
<path transform="matrix(1,0,0,-1,12.531,78.336009)" stroke-width=".19925" stroke-linecap="butt" stroke-miterlimit="10" stroke-linejoin="miter" fill="none" stroke="#7f807f" d="M10.02809 37.57455H12.57932M10.02809 61.05865H12.57932"/>
<path transform="matrix(1,0,0,-1,12.531,78.336009)" stroke-width=".3985" stroke-linecap="butt" stroke-miterlimit="10" stroke-linejoin="miter" fill="none" stroke="#000000" d="M0 14.09045H141.18802"/>
<path transform="matrix(1,0,0,-1,153.71903,64.24556)" d="M1.99252 0-1.19551 1.59401 0 0-1.19551-1.59401"/>
<path transform="matrix(1,0,0,-1,12.531,78.336009)" stroke-width=".3985" stroke-linecap="butt" stroke-miterlimit="10" stroke-linejoin="miter" fill="none" stroke="#000000" d="M11.30371 0V73.1566"/>
<path transform="matrix(0,-1,-1,-0,23.83471,5.179405)" d="M1.99252 0-1.19551 1.59401 0 0-1.19551-1.59401"/>
<g clip-path="url(#clip_1)">
</g>
<use data-text="0" xlink:href="#font_2_1" transform="matrix(9.96264,0,0,-9.96264,36.309,75.462009)"/>
<use data-text="." xlink:href="#font_3_1" transform="matrix(9.96264,0,0,-9.96264,41.29,75.462009)"/>
<use data-text="5" xlink:href="#font_2_5" transform="matrix(9.96264,0,0,-9.96264,44.058,75.462009)"/>
<use data-text="1" xlink:href="#font_2_2" transform="matrix(9.96264,0,0,-9.96264,59.023004,75.462009)"/>
<use data-text="1" xlink:href="#font_2_2" transform="matrix(9.96264,0,0,-9.96264,73.988,75.462009)"/>
<use data-text="." xlink:href="#font_3_1" transform="matrix(9.96264,0,0,-9.96264,78.969,75.462009)"/>
<use data-text="5" xlink:href="#font_2_5" transform="matrix(9.96264,0,0,-9.96264,81.736,75.462009)"/>
<use data-text="2" xlink:href="#font_2_3" transform="matrix(9.96264,0,0,-9.96264,96.701,75.462009)"/>
<use data-text="2" xlink:href="#font_2_3" transform="matrix(9.96264,0,0,-9.96264,111.666,75.462009)"/>
<use data-text="." xlink:href="#font_3_1" transform="matrix(9.96264,0,0,-9.96264,116.648,75.462009)"/>
<use data-text="5" xlink:href="#font_2_5" transform="matrix(9.96264,0,0,-9.96264,119.415,75.462009)"/>
<use data-text="3" xlink:href="#font_2_4" transform="matrix(9.96264,0,0,-9.96264,134.38,75.462009)"/>
<use data-text="3" xlink:href="#font_2_4" transform="matrix(9.96264,0,0,-9.96264,149.345,75.462009)"/>
<use data-text="." xlink:href="#font_3_1" transform="matrix(9.96264,0,0,-9.96264,154.326,75.462009)"/>
<use data-text="5" xlink:href="#font_2_5" transform="matrix(9.96264,0,0,-9.96264,157.094,75.462009)"/>
<use data-text="0" xlink:href="#font_2_1" transform="matrix(9.96264,0,0,-9.96264,6.309,43.97201)"/>
<use data-text="." xlink:href="#font_3_1" transform="matrix(9.96264,0,0,-9.96264,11.291,43.97201)"/>
<use data-text="5" xlink:href="#font_2_5" transform="matrix(9.96264,0,0,-9.96264,14.058,43.97201)"/>
<use data-text="1" xlink:href="#font_2_2" transform="matrix(9.96264,0,0,-9.96264,14.058001,20.48901)"/>
<g clip-path="url(#clip_4)">
<path transform="matrix(1,0,0,-1,12.531,78.336009)" stroke-width=".79701" stroke-linecap="butt" stroke-miterlimit="10" stroke-linejoin="miter" fill="none" stroke="#2471a3" d="M0 .21039 .71948 1.0697 1.439 1.93375 2.15851 2.80222 2.878 3.67482 3.5975 4.55121 4.31702 5.43108 5.03653 6.3141 5.75604 7.19998 6.47554 8.08836 7.19504 8.97891 7.91455 9.87135 8.63405 10.76532 9.35356 11.6605 10.07306 12.55656 10.79256 13.4532 11.51208 14.35005 12.23158 15.24681 12.9511 16.14317 13.6706 17.03876 14.39009 17.93326 15.1096 18.82639 15.82912 19.71777 16.54861 20.60712 17.26811 21.49408 17.98763 22.37834 18.70712 23.25958 19.42665 24.13748 20.14613 25.01172 20.86565 25.88197 21.58516 26.74792 22.30466 27.60927 23.02417 28.46567 23.74367 29.31683 24.46317 30.16245 25.18268 31.00221 25.90219 31.8358 26.6217 32.6629 27.3412 33.48326 28.0607 34.29652 28.78021 35.10243 29.49973 35.90068 30.21922 36.69096 30.93872 37.47302 31.65823 38.24654 32.37775 39.01126 33.09724 39.76689 33.81674 40.51317 34.53625 41.2498 35.25577 41.97653 35.97528 42.69308 36.69478 43.39923 37.41428 44.09468 38.13379 44.77919 38.85329 45.4525 39.5728 46.1144 40.2923 46.76459 41.0118 47.40288 41.73131 48.02902 42.45082 48.64279 43.17033 49.24396 43.88983 49.83232 44.60933 50.40764 45.32884 50.96971 46.04836 51.51834 46.76784 52.05333 47.48735 52.57446 48.20686 53.08157 48.92636 53.57446 49.64587 54.05296 50.36537 54.51689 51.08488 54.96608 51.8044 55.40034 52.5239 55.81958 53.24341 56.22357 53.9629 56.6122 54.6824 56.98534 55.40192 57.34283 56.12143 57.68456 56.84093 58.01039 57.56042 58.32019 58.27994 58.61388 58.99945 58.89133 59.71896 59.15244 60.43846 59.39713 61.15796 59.62529 61.87747 59.83685 62.59698 60.03174 63.31648 60.20985 64.03598 60.37117 64.7555 60.51561 65.475 60.64311 66.19452 60.75365 66.914 60.84717 67.63351 60.92366 68.35303 60.98303 69.07253 61.02534 69.79204 61.05052 70.51154 61.0586 71.23103 61.04951 71.95055 61.02333 72.67006 60.98003 73.38957 60.91963 74.10907 60.84216 74.82857 60.74763 75.54808 60.6361 76.2676 60.5076 76.98708 60.36217 77.70659 60.19987 78.4261 60.02075 79.1456 59.82489 79.86511 59.61237 80.58461 59.38322 81.30412 59.13756 82.02364 58.87549 82.74313 58.59708 83.46265 58.30246 84.18214 57.9917 84.90166 57.66493 85.62115 57.3223 86.34067 56.96385 87.06017 56.58981 87.77966 56.20027 88.49919 55.7954 89.21869 55.37527 89.9382 54.94011 90.6577 54.49007 91.3772 54.02528 92.09671 53.54593 92.81622 53.0522 93.5357 52.54427 94.25522 52.02231 94.97473 51.48653 95.69423 50.93709 96.41376 50.37422 97.13324 49.79813 97.85275 49.20903 98.57227 48.60712 99.29176 47.99261 100.01128 47.36574 100.73077 46.72676 101.45027 46.07585 102.16978 45.41328 102.8893 44.7393 103.60878 44.05415 104.32831 43.35808 105.0478 42.65132 105.76732 41.93414 106.48683 41.20683 107.20631 40.46962 107.92583 39.7228 108.64534 38.96661 109.36484 38.20139 110.08435 37.42735 110.80385 36.6448 111.52336 35.85403 112.24287 35.05533 112.96237 34.249 113.68187 33.4353 114.40138 32.61455 115.1209 31.78703 115.8404 30.95308 116.5599 30.11296 117.2794 29.26701 117.9989 28.41553 118.71841 27.55882 119.43793 26.69722 120.15744 25.831 120.87694 24.9605 121.59644 24.08606 122.31595 23.20795 123.03546 22.3265 123.75494 21.4421 124.47446 20.55498 125.19397 19.66551 125.91347 18.77402 126.63298 17.88078 127.35248 16.9862 128.07199 16.09056 128.7915 15.19418 129.511 14.29741 130.23052 13.40056 130.95001 12.50394 131.66951 11.60793 132.38903 10.71281 133.10854 9.81892 133.82802 8.92659 134.54753 8.03613 135.26705 7.1479 135.98656 6.2622 136.70607 5.37933 137.42555 4.49966 138.14507 3.62349 138.86458 2.75113 139.58409 1.88289 140.30358 1.01912 141.02309 .16011 141.7426-.6938 142.46212-1.54234 143.18163-2.38518"/>
<path transform="matrix(1,0,0,-1,12.531,78.336009)" stroke-width=".79701" stroke-linecap="butt" stroke-miterlimit="10" stroke-linejoin="miter" fill="none" stroke="#b30000" d="M0 14.09044H.71948 1.439 2.15851 2.878 3.5975 4.31702 5.03653 5.75604 6.47554 7.19504 7.91455 8.63405 9.35356 10.07306 10.79256 11.51208 12.23158 12.9511 13.6706 14.39009 15.1096 15.82912 16.54861 17.26811 17.98763 18.70712 19.42665 20.14613 20.86565 21.58516 22.30466 23.02417 23.74367 24.46317 25.18268 25.90219 26.6217 27.3412 28.0607 28.78021 29.49973 30.21922 30.93872 31.65823 32.37775 33.09724 33.81674 34.53625 35.25577 35.97528 36.69478 37.41428 38.13379 38.85329 39.5728 40.2923 41.0118 41.73131 42.45082 43.17033 43.88983 44.60933 45.32884 46.04836 46.76784 47.48735 48.20686 48.92636 49.64587 50.36537 51.08488 51.8044 52.5239 53.24341 53.9629 54.6824 55.40192 56.12143 56.84093 57.56042 58.27994 58.99945 59.71896 60.43846 61.15796 61.87747 62.59698 63.31648 64.03598 64.7555 65.475 66.19452 66.914 67.63351 68.35303 69.07253 69.79204 70.51154 71.23103 71.95055 72.67006 73.38957 74.10907 74.82857 75.54808 76.2676 76.98708 77.70659 78.4261 79.1456 79.86511 80.58461 81.30412 82.02364 82.74313 83.46265 84.18214 84.90166 85.62115 86.34067 87.06017 87.77966 88.49919 89.21869 89.9382 90.6577 91.3772 92.09671 92.81622 93.5357 94.25522 94.97473 95.69423 96.41376 97.13324 97.85275 98.57227 99.29176 100.01128 100.73077 101.45027 102.16978 102.8893 103.60878 104.32831 105.0478 105.76732 106.48683 107.20631 107.92583 108.64534 109.36484 110.08435 110.80385 111.52336 112.24287 112.96237 113.68187 114.40138 115.1209 115.8404 116.5599 117.2794 117.9989 118.71841 119.43793 120.15744 120.87694 121.59644 122.31595 123.03546 123.75494 124.47446 125.19397 125.91347 126.63298 127.35248 128.07199 128.7915 129.511 130.23052 130.95001 131.66951 132.38903 133.10854 133.82802 134.54753 135.26705 135.98656 136.70607 137.42555 138.14507 138.86458 139.58409 140.30358 141.02309 141.7426 142.46212 143.18163"/>
</g>
<use data-text="x" xlink:href="#font_3_2" transform="matrix(9.96264,0,0,-9.96264,146.29701,60.52701)"/>
<use data-text="y" xlink:href="#font_3_3" transform="matrix(9.96264,0,0,-9.96264,27.554,11.197006)"/>
</svg>
