<svg xmlns="http://www.w3.org/2000/svg" xmlns:xlink="http://www.w3.org/1999/xlink" xmlns:inkscape="http://www.inkscape.org/namespaces/inkscape" version="1.1" width="269.349" height="189.761" viewBox="0 0 269.349 189.761">
<defs>
<path id="font_1_1" d="M.6589966 .23046875C.6759949 .23046875 .69400027 .23046875 .69400027 .25045777 .69400027 .27046205 .6759949 .27046205 .6589966 .27046205H.117996219C.100997928 .27046205 .08299255 .27046205 .08299255 .25045777 .08299255 .23046875 .100997928 .23046875 .117996219 .23046875H.6589966Z"/>
<path id="font_2_1" d="M.45999146 .31976319C.45999146 .39982606 .45498658 .47988893 .41999818 .5539398 .37399293 .65000918 .2919922 .6660156 .25 .6660156 .18998719 .6660156 .116989139 .64001467 .07598877 .54693606 .04399109 .47789 .038986207 .39982606 .038986207 .31976319 .038986207 .24472046 .042999269 .15464783 .083999637 .07859802 .1269989-.0024719239 .19999695-.022460938 .24899292-.022460938 .30299378-.022460938 .3789978-.0014648438 .4229889 .09359741 .45498658 .16265869 .45999146 .2407074 .45999146 .31976319M.24899292-.00047302247C.20999146-.00047302247 .15098572 .024551392 .1329956 .12062073 .12199402 .18066406 .12199402 .2727356 .12199402 .3317871 .12199402 .39582826 .12199402 .46188355 .12998963 .5159149 .14898682 .63500979 .22399903 .64401248 .24899292 .64401248 .28199769 .64401248 .34799195 .6259918 .36698915 .52693179 .3769989 .47088624 .3769989 .39482118 .3769989 .3317871 .3769989 .25672914 .3769989 .18867493 .3659973 .12461853 .35099793 .029556275 .2939911-.00047302247 .24899292-.00047302247Z"/>
<path id="font_3_1" d="M.19198609 .052993776C.19198609 .08198547 .16799927 .10598755 .13899231 .10598755 .10998535 .10598755 .085998538 .08198547 .085998538 .052993776 .085998538 .023986817 .10998535 0 .13899231 0 .16799927 0 .19198609 .023986817 .19198609 .052993776Z"/>
<path id="font_2_5" d="M.44898988 .20022583C.44898988 .3193512 .36698915 .41944886 .25898744 .41944886 .21099854 .41944886 .16799927 .40345765 .13198853 .36842347V.5637665C.1519928 .5577698 .18499756 .55078127 .21699524 .55078127 .33999635 .55078127 .4099884 .6417694 .4099884 .6547699 .4099884 .6607666 .40699769 .6657715 .3999939 .6657715 .39898683 .6657715 .39698792 .6657715 .3919983 .66278079 .37199403 .6537781 .32299806 .6337738 .2559967 .6337738 .21598816 .6337738 .16999817 .6407776 .12298584 .6617737 .114990238 .66477969 .11299133 .66477969 .11099243 .66477969 .100997928 .66477969 .100997928 .6567688 .100997928 .6407776V.34439088C.100997928 .32637025 .100997928 .31835938 .114990238 .31835938 .12199402 .31835938 .12399292 .32136537 .12799073 .32736207 .13899231 .3433838 .17599488 .39746095 .25698854 .39746095 .30899049 .39746095 .33399964 .35139466 .34199525 .33337403 .35798646 .29632569 .3600006 .25727845 .3600006 .20722962 .3600006 .17222595 .3600006 .11222839 .33599855 .07035828 .31199647 .031463624 .2749939 .0055389406 .22898865 .0055389406 .1559906 .0055389406 .09899902 .058380128 .08198547 .11723328 .084991458 .1162262 .08799744 .115234378 .09899902 .115234378 .13198853 .115234378 .14898682 .14022827 .14898682 .16423035 .14898682 .18823242 .13198853 .21322632 .09899902 .21322632 .084991458 .21322632 .049987794 .20622254 .049987794 .16023255 .049987794 .07434082 .11898804-.022460938 .23098755-.022460938 .34700013-.022460938 .44898988 .073349 .44898988 .20022583Z"/>
<path id="font_2_2" d="M.2939911 .64004519C.2939911 .66400149 .2939911 .6660156 .2709961 .6660156 .20899964 .60227969 .12098694 .60227969 .08898926 .60227969V.57128909C.10899353 .57128909 .16799927 .57128909 .21998596 .5972748V.07902527C.21998596 .042999269 .21699524 .0309906 .1269989 .0309906H.09498596V0C.12998963 .0029907227 .21699524 .0029907227 .25698854 .0029907227 .29699708 .0029907227 .38398744 .0029907227 .4189911 0V.0309906H.3869934C.29699708 .0309906 .2939911 .041992189 .2939911 .07902527V.64004519Z"/>
<path id="font_2_4" d="M.2939911 .16503906V.07800293C.2939911 .041992189 .2919922 .0309906 .21798706 .0309906H.19699097V0C.23799134 .0029907227 .2899933 .0029907227 .33198548 .0029907227 .37399293 .0029907227 .4269867 .0029907227 .46798707 0V.0309906H.44699098C.37298585 .0309906 .37098695 .041992189 .37098695 .07800293V.16503906H.47099305V.19602967H.37098695V.65075686C.37098695 .67074587 .37098695 .6767578 .35499574 .6767578 .34599305 .6767578 .34298707 .6767578 .33499146 .66474917L.027999878 .19602967V.16503906H.2939911M.2999878 .19602967H.055999757L.2999878 .5688019V.19602967Z"/>
<path id="font_2_3" d="M.1269989 .07699585 .23298645 .18003845C.3889923 .31811524 .44898988 .3721466 .44898988 .47216798 .44898988 .5860901 .35899354 .6660156 .23699951 .6660156 .12399292 .6660156 .049987794 .57411196 .049987794 .48516847 .049987794 .4291687 .099990848 .4291687 .102996829 .4291687 .11999512 .4291687 .15499878 .44117738 .15499878 .48217774 .15499878 .5081787 .13699341 .5341797 .101989749 .5341797 .09399414 .5341797 .09199524 .5341797 .08898926 .5331726 .11199951 .59806826 .1659851 .63500979 .22399903 .63500979 .31498719 .63500979 .35798646 .5541382 .35798646 .47216798 .35798646 .39215089 .30799867 .31311036 .25299073 .25108338L.06098938 .036987306C.049987794 .025985718 .049987794 .023986817 .049987794 0H.42099L.44898988 .17404175H.42399598C.4189911 .14402771 .4119873 .1000061 .4019928 .084991458 .394989 .07699585 .32899476 .07699585 .30699159 .07699585H.1269989Z"/>
<path id="font_2_6" d="M.13198853 .327713V.35173036C.13198853 .6047821 .2559967 .64100649 .30699159 .64100649 .33099366 .64100649 .37298585 .634964 .394989 .6007538 .37998963 .6007538 .33999635 .6007538 .33999635 .5557556 .33999635 .524765 .3639984 .5097656 .38598634 .5097656 .4019928 .5097656 .43199159 .51875308 .43199159 .5577545 .43199159 .6178589 .3880005 .6660156 .30499269 .6660156 .1769867 .6660156 .041992189 .5367584 .041992189 .31570436 .041992189 .048553468 .1579895-.022460938 .25099183-.022460938 .3619995-.022460938 .45700074 .07156372 .45700074 .2036438 .45700074 .33070375 .36799623 .4267578 .25698854 .4267578 .18899536 .4267578 .1519928 .37573243 .13198853 .327713M.25099183 .0055389406C.18798828 .0055389406 .1579895 .06556702 .1519928 .080566409 .13398743 .127594 .13398743 .2076416 .13398743 .22564698 .13398743 .30369569 .1659851 .40374757 .2559967 .40374757 .27198792 .40374757 .31799317 .40374757 .34899903 .34172059 .36698915 .30470277 .36698915 .2536621 .36698915 .20463562 .36698915 .15661621 .36698915 .10658264 .34999085 .0705719 .31999208 .010528564 .27398683 .0055389406 .25099183 .0055389406Z"/>
<clipPath id="clip_4">
<path transform="matrix(1.1,0,0,-1.1,3.4268,179.13141)" d="M0 0H238.63304V153.60079H0Z"/>
</clipPath>
<path id="font_5_2" d="M.7579956 .4328766C.7579956 .5910034 .6519928 .7050781 .49499513 .7050781 .2709961 .7050781 .049987794 .47491456 .049987794 .24671936 .049987794 .082595828 .16299439-.022460938 .31399537-.022460938 .5369873-.022460938 .7579956 .2006836 .7579956 .4328766M.32099916 .007537842C.22499085 .007537842 .1459961 .080596927 .1459961 .2217102 .1459961 .27374269 .16299439 .42185975 .24598694 .53596499 .31799317 .6340332 .4139862 .677063 .48799134 .677063 .58599856 .677063 .6669922 .60601809 .6669922 .4709015 .6669922 .40585328 .6409912 .2597351 .5569916 .14663697 .48199464 .046569826 .3899994 .007537842 .32099916 .007537842Z"/>
<path id="font_6_1" d="M.34098817-.23803711C.34098817-.23303223 .33799745-.23002625 .33198548-.22303772 .20298767-.105026248 .1639862 .07498169 .1639862 .24996948 .1639862 .40498353 .19400025 .59298709 .33499146 .72698977 .33898927 .73098757 .34098817 .73399356 .34098817 .7389984 .34098817 .74598696 .33599855 .75 .32899476 .75 .31698609 .75 .22698975 .6779785 .17298889 .568985 .125 .47297669 .100997928 .36997987 .100997928 .25097657 .100997928 .17897034 .10998535 .064971927 .16499329-.053024293 .22399903-.17602539 .31698609-.24902344 .32899476-.24902344 .33599855-.24902344 .34098817-.24502564 .34098817-.23803711Z"/>
<path id="font_6_4" d="M.3039856 .6392822C.3039856 .6642761 .30299378 .666275 .27799989 .666275 .21598816 .60227969 .12399292 .60227969 .09298706 .60227969V.57128909C.11199951 .57128909 .17298889 .57128909 .22698975 .5972748V.08001709C.22698975 .042999269 .22399903 .0309906 .1309967 .0309906H.09899902V0C.1349945 .0029907227 .22399903 .0029907227 .2649994 .0029907227 .30599977 .0029907227 .3959961 .0029907227 .43199159 0V.0309906H.3999939C.30699159 .0309906 .3039856 .042999269 .3039856 .08001709V.6392822Z"/>
<path id="font_5_1" d="M.18199158 .015991211C.18199158-.017044068 .18199158-.09921265 .10798645-.17036438 .101989749-.17636109 .101989749-.17736817 .101989749-.18136597 .101989749-.18836975 .10899353-.19335938 .114990238-.19335938 .12599182-.19335938 .20698548-.115249637 .20698548 .0019989014 .20698548 .06399536 .18499756 .10798645 .14199829 .10798645 .10798645 .10798645 .08799744 .08198547 .08799744 .053985597 .08799744 .025985718 .10798645 0 .14199829 0 .15699768 0 .17199707 .004989624 .18199158 .015991211Z"/>
<path id="font_6_3" d="M.47299195 .31976319C.47299195 .38682557 .46998597 .47288514 .43499757 .5479431 .3909912 .64201357 .31498719 .6660156 .25698854 .6660156 .19699097 .6660156 .12098694 .64201357 .07699585 .5459442 .04499817 .47688294 .039993287 .39582826 .039993287 .31976319 .039993287 .25471498 .041992189 .15765381 .084991458 .07858276 .13198853-.0064697267 .20999146-.022460938 .2559967-.022460938 .32099916-.022460938 .394989 .0055389406 .43699647 .097595218 .46699525 .1646576 .47299195 .23971558 .47299195 .31976319M.25698854 .002532959C.22698975 .002532959 .15499878 .016540528 .13598633 .12962342 .12599182 .18867493 .12599182 .2747345 .12599182 .33177186 .12599182 .39982606 .12599182 .47888185 .13798523 .53393557 .1579895 .6230011 .22200012 .64100649 .2559967 .64100649 .2939911 .64100649 .35699464 .62098696 .37599183 .5279236 .3869934 .47288514 .3869934 .39482118 .3869934 .33177186 .3869934 .2697296 .3869934 .18566895 .3769989 .12661743 .35598756 .012542725 .28199769 .002532959 .25698854 .002532959Z"/>
<path id="font_6_2" d="M.2979889 .25097657C.2979889 .3329773 .28599549 .4429779 .23399353 .5539856 .1749878 .6769867 .08198547 .75 .069992069 .75 .05999756 .75 .057998659 .74198916 .057998659 .7389984 .057998659 .73399356 .05999756 .73098757 .066986087 .72398379 .125 .6719818 .23498535 .5359802 .23498535 .25097657 .23498535 .10797119 .20899964-.091033939 .06399536-.22602844 .06199646-.22903443 .057998659-.23303223 .057998659-.23803711 .057998659-.24102783 .05999756-.24902344 .069992069-.24902344 .08198547-.24902344 .17199707-.17703247 .22599793-.06802368 .27398683 .02796936 .2979889 .13098145 .2979889 .25097657Z"/>
<path id="font_7_1" d="M.42599488-1.1462402C.42599488-1.1412354 .42399598-1.1382294 .42199708-1.1372376 .37298585-1.0862274 .30699159-1.0032044 .2689972-.86317446 .24798584-.78616335 .23098755-.69114688 .23098755-.5581207 .23098755-.25306703 .31698609-.088027957 .4229889 .022979737 .42599488 .024978638 .42599488 .02798462 .42599488 .0309906 .42599488 .037979127 .42099 .041992189 .41299439 .041992189 .394989 .041992189 .33399964-.026016236 .33198548-.028015137 .21499634-.16104126 .15699768-.35107423 .15699768-.55711367 .15699768-.76016238 .21299744-.98820498 .38598634-1.1412354 .4039917-1.1572266 .4059906-1.1572266 .41299439-1.1572266 .42099-1.1572266 .42599488-1.1532288 .42599488-1.1462402Z"/>
<path id="font_8_1" d="M.5379944 .18702698H.5009918C.49899293 .17301941 .4889984 .10699463 .47399903 .09599304 .46699525 .08999634 .38598634 .08999634 .37199403 .08999634H.18499756L.31298829 .19403076C.34700013 .22103882 .43598939 .28504945 .46699525 .31506349 .49699403 .3450775 .5379944 .39608766 .5379944 .46710206 .5379944 .5920563 .4249878 .66503909 .29100038 .66503909 .1619873 .66503909 .07199097 .58006289 .07199097 .48609925 .07199097 .43510438 .114990238 .42910768 .12599182 .42910768 .15098572 .42910768 .17999268 .44709779 .17999268 .48310853 .17999268 .50509646 .16699219 .5371094 .12298584 .5371094 .1459961 .5880585 .20698548 .6260376 .27598573 .6260376 .3809967 .6260376 .43699647 .5480957 .43699647 .46710206 .43699647 .39608766 .3899994 .32305909 .31999208 .25904847L.08299255 .041992189C.07299805 .03199768 .07199097 .0309906 .07199097 0H.5069885L.5379944 .18702698Z"/>
<path id="font_8_2" d="M.2939911 .33203126C.3789978 .33203126 .43598939 .274765 .43598939 .17237854 .43598939 .062408449 .36999513 .014511108 .29699708 .014511108 .269989 .014511108 .16699219 .020492554 .12199402 .07836914 .16099549 .0823822 .1769867 .10836792 .1769867 .13537598 .1769867 .16937256 .15299988 .19238281 .11999512 .19238281 .09298706 .19238281 .06298828 .17536927 .06298828 .13337708 .06298828 .034469606 .17298889-.021484375 .2999878-.021484375 .44799806-.021484375 .5469971 .07337952 .5469971 .17237854 .5469971 .24562073 .4909973 .3229828 .37199403 .35302735 .45098878 .37902833 .5149994 .44306947 .5149994 .5251007 .5149994 .60505679 .42099 .66503909 .30099488 .66503909 .18399048 .66503909 .09498596 .61105349 .09498596 .5290985 .09498596 .48609925 .12799073 .47409059 .147995 .47409059 .17399597 .47409059 .20098877 .49209596 .20098877 .5270996 .20098877 .5580902 .1789856 .5760956 .1519928 .5800934 .19898987 .6320343 .2899933 .6320343 .29899598 .6320343 .34999085 .6320343 .4139862 .60806277 .4139862 .5251007 .4139862 .47009278 .3829956 .37402345 .2829895 .36802674 .2649994 .36701966 .23799134 .36502076 .22898865 .36502076 .21899414 .36402894 .20799256 .36302186 .20799256 .34802247 .20799256 .33203126 .21899414 .33203126 .23599243 .33203126H.2939911Z"/>
<path id="font_9_1" d="M.6749878 .22944641C.69299319 .22944641 .71199038 .22944641 .71199038 .25144959 .71199038 .27246095 .69200137 .27246095 .6749878 .27246095H.12298584C.10598755 .27246095 .085998538 .27246095 .085998538 .25144959 .085998538 .22944641 .10499573 .22944641 .12298584 .22944641H.6749878Z"/>
<path id="font_8_3" d="M.56399539 .1640625V.2030487H.44699098V.6448059C.44699098 .6678009 .44699098 .6748047 .42199708 .6748047 .4039917 .6748047 .4019928 .6717987 .3929901 .65979006L.04598999 .2030487V.1640625H.35699464V.08401489C.35699464 .050994874 .35699464 .038986207 .272995 .038986207H.24398804V0C.2639923 .0009918213 .35798646 .0039978029 .4019928 .0039978029 .44599916 .0039978029 .5399933 .0009918213 .55999758 0V.038986207H.5309906C.44699098 .038986207 .44699098 .050994874 .44699098 .08401489V.1640625H.56399539M.3639984 .56585696V.2030487H.08898926L.3639984 .56585696Z"/>
<path id="font_8_4" d="M.57099917 .60369876C.5799866 .6137085 .5799866 .6157074 .5799866 .6437073H.32199098C.2809906 .6437073 .25698854 .64471438 .21798706 .64772036 .16899109 .6507416 .15699768 .65174868 .1519928 .67578127H.114990238L.07899475 .45666505H.115997318C.11898804 .4776764 .1289978 .5366974 .14399719 .547699 .1519928 .55371096 .23799134 .55371096 .25299073 .55371096H.47898866C.46798707 .53970339 .4139862 .4756775 .3899994 .44667054 .29299928 .32962037 .22499085 .1875763 .22499085 .03552246 .22499085 .026519776 .22499085-.021484375 .272995-.021484375 .32199098-.021484375 .32199098 .024520874 .32199098 .037521364V.0655365C.32199098 .25759889 .36299134 .3556366 .41299439 .41566468L.57099917 .60369876Z"/>
<path id="font_7_2" d="M.31298829-.5581207C.31298829-.35508729 .25698854-.12702942 .083999637 .025985718 .06599426 .041992189 .06399536 .041992189 .056991579 .041992189 .04399109 .041992189 .04399109 .032989503 .04399109 .0309906 .04399109 .02798462 .04399109 .025985718 .04899597 .019989014 .10499573-.038024904 .16499329-.122039798 .20098877-.25205995 .22200012-.32907105 .23899842-.42408753 .23899842-.55711367 .23899842-.85317996 .1579895-1.0222168 .04699707-1.1372376 .04598999-1.1392365 .04399109-1.1422272 .04399109-1.1462402 .04399109-1.1482391 .04399109-1.1572266 .056991579-1.1572266 .07499695-1.1572266 .13598633-1.0892181 .13798523-1.0872192 .25498963-.9541931 .31298829-.76416018 .31298829-.5581207Z"/>
<path id="font_3_2" d="M.33399964 .30233766C.33999635 .32835389 .36299134 .42037965 .43299867 .42037965 .43798829 .42037965 .46199037 .42037965 .48298646 .40734864 .45498658 .402359 .43499757 .37734986 .43499757 .35334779 .43499757 .33735658 .44599916 .31835938 .47299195 .31835938 .49499513 .31835938 .5269928 .3363495 .5269928 .37635804 .5269928 .42837525 .46798707 .4423828 .43399049 .4423828 .37599183 .4423828 .34098817 .38935853 .32899476 .36634828 .3039856 .43237306 .25 .4423828 .22099304 .4423828 .116989139 .4423828 .05999756 .3133545 .05999756 .28834535 .05999756 .27833558 .069992069 .27833558 .07199097 .27833558 .07998657 .27833558 .08299255 .28033448 .084991458 .28933717 .11898804 .39535523 .18499756 .42037965 .21899414 .42037965 .23799134 .42037965 .272995 .4113617 .272995 .35334779 .272995 .32235719 .2559967 .25532533 .21899414 .11528015 .20298767 .053268434 .16799927 .011245728 .12399292 .011245728 .117996219 .011245728 .09498596 .011245728 .07398987 .024276734 .09899902 .029266358 .12098694 .05027771 .12098694 .07827759 .12098694 .105270389 .09899902 .11328125 .083999637 .11328125 .053985597 .11328125 .0289917 .08728027 .0289917 .055267335 .0289917 .009246826 .07899475-.0107421879 .12298584-.0107421879 .18899536-.0107421879 .22499085 .059280397 .22799683 .0652771 .23999024 .028274537 .27598573-.0107421879 .33599855-.0107421879 .43899537-.0107421879 .49598695 .118270877 .49598695 .14328003 .49598695 .1532898 .4869995 .1532898 .48399354 .1532898 .47499085 .1532898 .47299195 .14929199 .47099305 .14228821 .43798829 .03527832 .36999513 .011245728 .33799745 .011245728 .29899598 .011245728 .2829895 .043273927 .2829895 .07727051 .2829895 .09927368 .2889862 .121276859 .2999878 .16529846L.33399964 .30233766Z"/>
<path id="font_3_3" d="M.48599244 .38136292C.48999024 .39537049 .48999024 .39736939 .48999024 .40437318 .48999024 .42237855 .47599793 .43138124 .46099855 .43138124 .45098878 .43138124 .43499757 .42536927 .42599488 .41036988 .42399598 .405365 .41600038 .37435914 .4119873 .35635377 .40499879 .33035279 .397995 .30334474 .3919983 .27633668L.34700013 .09628296C.34298707 .08126831 .2999878 .011245728 .23399353 .011245728 .18299866 .011245728 .17199707 .055267335 .17199707 .0922699 .17199707 .1382904 .18899536 .20030213 .22299195 .28833009 .23899842 .3293457 .24299622 .3403473 .24299622 .36035157 .24299622 .405365 .21099854 .4423828 .16099549 .4423828 .06599426 .4423828 .0289917 .29733277 .0289917 .28833009 .0289917 .27833558 .038986207 .27833558 .040985109 .27833558 .050994874 .27833558 .051986696 .28033448 .056991579 .29634095 .083999637 .3903656 .12399292 .42037965 .1579895 .42037965 .1659851 .42037965 .18299866 .42037965 .18299866 .3883667 .18299866 .36335755 .17298889 .3373413 .1659851 .31834413 .12599182 .21231079 .10798645 .1552887 .10798645 .10827637 .10798645 .019256592 .17098999-.0107421879 .22999573-.0107421879 .2689972-.0107421879 .30299378 .0062561037 .33099366 .03425598 .31799317-.017745972 .30599977-.06674194 .2659912-.11973572 .23999024-.15385437 .20199585-.18309021 .1559906-.18309021 .14199829-.18309021 .09700012-.18005371 .07998657-.14074707 .09599304-.14074707 .10899353-.14074707 .12298584-.1287384 .1329956-.11973572 .14299011-.10673523 .14299011-.08773804 .14299011-.056747438 .115997318-.052734376 .10598755-.052734376 .08299255-.052734376 .049987794-.068740848 .049987794-.11773682 .049987794-.16796875 .09399414-.20507813 .1559906-.20507813 .25898744-.20507813 .3619995-.11373901 .3899994-.00074768069L.48599244 .38136292Z"/>
</defs>
<path transform="matrix(1.1,0,0,-1.1,3.4268,179.13141)" stroke-width=".3985" stroke-linecap="butt" stroke-miterlimit="10" stroke-linejoin="miter" fill="none" stroke="#e5e6e5" d="M27.53458 0V153.60079M119.31651 0V153.60079M165.20749 0V153.60079M211.09847 0V153.60079"/>
<path transform="matrix(1.1,0,0,-1.1,3.4268,179.13141)" stroke-width=".3985" stroke-linecap="butt" stroke-miterlimit="10" stroke-linejoin="miter" fill="none" stroke="#e5e6e5" d="M0 0H238.63304M0 30.72015H238.63304M0 92.16046H238.63304M0 122.88063H238.63304M0 153.60079H238.63304"/>
<path transform="matrix(1.1,0,0,-1.1,3.4268,179.13141)" stroke-width=".19925" stroke-linecap="butt" stroke-miterlimit="10" stroke-linejoin="miter" fill="none" stroke="#7f807f" d="M27.53458 59.3143V63.5663M119.31651 59.3143V63.5663M165.20749 59.3143V63.5663M211.09847 59.3143V63.5663"/>
<path transform="matrix(1.1,0,0,-1.1,3.4268,179.13141)" stroke-width=".19925" stroke-linecap="butt" stroke-miterlimit="10" stroke-linejoin="miter" fill="none" stroke="#7f807f" d="M71.29974 0H75.55133M71.29974 30.72015H75.55133M71.29974 92.16046H75.55133M71.29974 122.88063H75.55133M71.29974 153.60079H75.55133"/>
<path transform="matrix(1.1,0,0,-1.1,3.4268,179.13141)" stroke-width=".79701" stroke-linecap="butt" stroke-miterlimit="10" stroke-linejoin="miter" fill="none" stroke="#000000" d="M0 61.4403H236.04279"/>
<path transform="matrix(1.1,0,0,-1.1,263.07386,111.54708)" d="M2.59026 0-1.55415 2.0722 0 0-1.55415-2.0722"/>
<path transform="matrix(1.1,0,0,-1.1,3.4268,179.13141)" stroke-width=".79701" stroke-linecap="butt" stroke-miterlimit="10" stroke-linejoin="miter" fill="none" stroke="#000000" d="M73.42555 0V151.01052"/>
<path transform="matrix(0,-1.1,-1.1,-0,84.194919,13.019836)" d="M2.59026 0-1.55415 2.0722 0 0-1.55415-2.0722"/>
<use data-text="&#x2212;" xlink:href="#font_1_1" transform="matrix(10.958904,0,0,-10.958904,22.4513,125.04)"/>
<use data-text="0" xlink:href="#font_2_1" transform="matrix(10.958904,0,0,-10.958904,30.9752,125.04)"/>
<use data-text="." xlink:href="#font_3_1" transform="matrix(10.958904,0,0,-10.958904,36.4543,125.04)"/>
<use data-text="5" xlink:href="#font_2_5" transform="matrix(10.958904,0,0,-10.958904,39.4991,125.04)"/>
<use data-text="0" xlink:href="#font_2_1" transform="matrix(10.958904,0,0,-10.958904,127.67181,125.04)"/>
<use data-text="." xlink:href="#font_3_1" transform="matrix(10.958904,0,0,-10.958904,133.15201,125.04)"/>
<use data-text="5" xlink:href="#font_2_5" transform="matrix(10.958904,0,0,-10.958904,136.19571,125.04)"/>
<use data-text="1" xlink:href="#font_2_2" transform="matrix(10.958904,0,0,-10.958904,182.4133,125.04)"/>
<use data-text="1" xlink:href="#font_2_2" transform="matrix(10.958904,0,0,-10.958904,228.6309,125.04)"/>
<use data-text="." xlink:href="#font_3_1" transform="matrix(10.958904,0,0,-10.958904,234.11002,125.04)"/>
<use data-text="5" xlink:href="#font_2_5" transform="matrix(10.958904,0,0,-10.958904,237.15482,125.04)"/>
<use data-text="&#x2212;" xlink:href="#font_1_1" transform="matrix(10.958904,0,0,-10.958904,55.237905,182.2059)"/>
<use data-text="0" xlink:href="#font_2_1" transform="matrix(10.958904,0,0,-10.958904,63.761804,182.2059)"/>
<use data-text="." xlink:href="#font_3_1" transform="matrix(10.958904,0,0,-10.958904,69.240909,182.2059)"/>
<use data-text="4" xlink:href="#font_2_4" transform="matrix(10.958904,0,0,-10.958904,72.285709,182.2059)"/>
<use data-text="&#x2212;" xlink:href="#font_1_1" transform="matrix(10.958904,0,0,-10.958904,55.237905,148.41501)"/>
<use data-text="0" xlink:href="#font_2_1" transform="matrix(10.958904,0,0,-10.958904,63.761804,148.41501)"/>
<use data-text="." xlink:href="#font_3_1" transform="matrix(10.958904,0,0,-10.958904,69.240909,148.41501)"/>
<use data-text="2" xlink:href="#font_2_3" transform="matrix(10.958904,0,0,-10.958904,72.285709,148.41501)"/>
<use data-text="0" xlink:href="#font_2_1" transform="matrix(10.958904,0,0,-10.958904,63.7618,81.2875)"/>
<use data-text="." xlink:href="#font_3_1" transform="matrix(10.958904,0,0,-10.958904,69.240909,81.2875)"/>
<use data-text="2" xlink:href="#font_2_3" transform="matrix(10.958904,0,0,-10.958904,72.285709,81.2875)"/>
<use data-text="0" xlink:href="#font_2_1" transform="matrix(10.958904,0,0,-10.958904,63.7618,47.496614)"/>
<use data-text="." xlink:href="#font_3_1" transform="matrix(10.958904,0,0,-10.958904,69.240909,47.496614)"/>
<use data-text="4" xlink:href="#font_2_4" transform="matrix(10.958904,0,0,-10.958904,72.285709,47.496614)"/>
<use data-text="0" xlink:href="#font_2_1" transform="matrix(10.958904,0,0,-10.958904,63.7618,13.704605)"/>
<use data-text="." xlink:href="#font_3_1" transform="matrix(10.958904,0,0,-10.958904,69.240909,13.704605)"/>
<use data-text="6" xlink:href="#font_2_6" transform="matrix(10.958904,0,0,-10.958904,72.285709,13.704605)"/>
<g clip-path="url(#clip_4)">
<path transform="matrix(1.1,0,0,-1.1,3.4268,179.13141)" stroke-width=".79701" stroke-linecap="butt" stroke-miterlimit="10" stroke-linejoin="miter" fill="none" stroke="#2471a3" d="M18.3564-27.0329 20.396-19.46138 22.4356-12.30453 24.47519-5.55222 26.5148 .80568 28.5544 6.77928 30.594 12.3787 32.63359 17.61403 34.6732 22.49538 36.7128 27.0329 38.7524 31.23665 40.79199 35.1168 42.8316 38.68343 44.8712 41.94666 46.91078 44.91661 48.9504 47.60338 50.98999 50.01709 53.0296 52.16785 55.06918 54.06578 57.1088 55.72101 59.14839 57.1436 61.188 58.34372 63.22758 59.33147 65.2672 60.11691 67.3068 60.71024 69.3464 61.1215 71.38599 61.36086 73.4256 61.4384 75.4652 61.36423 77.5048 61.14848 79.54439 60.80125 81.584 60.33267 83.6236 59.75284 85.66321 59.07187 87.7028 58.2999 89.7424 57.447 91.782 56.52332 93.8216 55.53896 95.86119 54.50403 97.90079 53.42865 99.9404 52.32292 101.98 51.19698 104.0196 50.06091 106.05919 48.92485 108.0988 47.7989 110.1384 46.69318 112.17801 45.6178 114.21759 44.58287 116.2572 43.59851 118.2968 42.67482 120.33641 41.82193 122.37599 41.04994 124.4156 40.36899 126.4552 39.78915 128.49481 39.32056 130.5344 38.97334 132.574 38.75758 134.6136 38.68343 136.65322 38.76096 138.6928 39.00032 140.73239 39.41159 142.772 40.00491 144.8116 40.79036 146.8512 41.7781 148.8908 42.97823 150.9304 44.40082 152.97 46.05605 155.0096 47.95396 157.0492 50.10474 159.0888 52.51845 161.1284 55.20522 163.168 58.17517 165.2076 61.4384 167.24721 65.00502 169.2868 68.88516 171.3264 73.08893 173.366 77.62645 175.40561 82.5078 177.4452 87.74313 179.48482 93.34254 181.5244 99.31615 183.56401 105.67404 185.6036 112.42636 187.64319 119.58322 189.6828 127.15472 191.7224 135.15099 193.76201 143.58214 195.8016 152.45825 197.8412 161.78946 199.8808 171.5859 201.92041 181.85765 203.96 192.61487 205.9996 203.86762 208.0392 215.62602 210.07881 227.90023 212.11841 240.7003 214.158 254.0364 216.1976 267.9186 218.23722 282.35707 220.27681 297.36186"/>
<use data-text="O" xlink:href="#font_5_2" transform="matrix(9.863018,0,0,-9.863018,72.108608,107.4576)"/>
<use data-text="(" xlink:href="#font_6_1" transform="matrix(9.863018,0,0,-9.863018,189.24431,123.0369)"/>
<use data-text="1" xlink:href="#font_6_4" transform="matrix(9.863018,0,0,-9.863018,193.18952,123.0369)"/>
<use data-text="," xlink:href="#font_5_1" transform="matrix(9.863018,0,0,-9.863018,198.25443,123.0369)"/>
<use data-text="0" xlink:href="#font_6_3" transform="matrix(9.863018,0,0,-9.863018,202.76001,123.0369)"/>
<use data-text=")" xlink:href="#font_6_2" transform="matrix(9.863018,0,0,-9.863018,207.8296,123.0369)"/>
<use data-text="&#xfffd;" xlink:href="#font_7_1" transform="matrix(9.863018,0,0,-9.863018,132.0355,141.06151)"/>
<use data-text="2" xlink:href="#font_8_1" transform="matrix(6.5753386,0,0,-6.5753386,137.99642,144.98741)"/>
<path transform="matrix(1.1,0,0,-1.1,137.99642,146.5626)" stroke-width=".379" stroke-linecap="butt" stroke-miterlimit="10" stroke-linejoin="miter" fill="none" stroke="#000000" d="M0 0H3.653"/>
<use data-text="3" xlink:href="#font_8_2" transform="matrix(6.5753386,0,0,-6.5753386,137.99642,152.3761)"/>
<use data-text="," xlink:href="#font_5_1" transform="matrix(9.863018,0,0,-9.863018,143.33032,149.02881)"/>
<use data-text="&#x2212;" xlink:href="#font_9_1" transform="matrix(9.863018,0,0,-9.863018,147.83483,149.02881)"/>
<use data-text="4" xlink:href="#font_8_3" transform="matrix(6.5753386,0,0,-6.5753386,159.04381,144.98741)"/>
<path transform="matrix(1.1,0,0,-1.1,157.03412,146.5626)" stroke-width=".379" stroke-linecap="butt" stroke-miterlimit="10" stroke-linejoin="miter" fill="none" stroke="#000000" d="M0 0H7.306"/>
<use data-text="2" xlink:href="#font_8_1" transform="matrix(6.5753386,0,0,-6.5753386,157.03412,152.3761)"/>
<use data-text="7" xlink:href="#font_8_4" transform="matrix(6.5753386,0,0,-6.5753386,161.05164,152.3761)"/>
<use data-text="&#xfffd;" xlink:href="#font_7_2" transform="matrix(9.863018,0,0,-9.863018,166.3863,141.06151)"/>
</g>
<path transform="matrix(1.1,0,0,-1.1,3.4268,179.13141)" d="M75.41815 61.4384C75.41815 62.53886 74.52606 63.43095 73.4256 63.43095 72.32512 63.43095 71.43304 62.53886 71.43304 61.4384 71.43304 60.33792 72.32512 59.44585 73.4256 59.44585 74.52606 59.44585 75.41815 60.33792 75.41815 61.4384ZM73.4256 61.4384" fill="#2471a3"/>
<path transform="matrix(1.1,0,0,-1.1,3.4268,179.13141)" stroke-width=".79701" stroke-linecap="butt" stroke-miterlimit="10" stroke-linejoin="miter" fill="none" stroke="#2471a3" d="M75.41815 61.4384C75.41815 62.53886 74.52606 63.43095 73.4256 63.43095 72.32512 63.43095 71.43304 62.53886 71.43304 61.4384 71.43304 60.33792 72.32512 59.44585 73.4256 59.44585 74.52606 59.44585 75.41815 60.33792 75.41815 61.4384ZM73.4256 61.4384"/>
<path transform="matrix(1.1,0,0,-1.1,3.4268,179.13141)" d="M167.20015 61.4384C167.20015 62.53886 166.30808 63.43095 165.2076 63.43095 164.10713 63.43095 163.21504 62.53886 163.21504 61.4384 163.21504 60.33792 164.10713 59.44585 165.2076 59.44585 166.30808 59.44585 167.20015 60.33792 167.20015 61.4384ZM165.2076 61.4384" fill="#2471a3"/>
<path transform="matrix(1.1,0,0,-1.1,3.4268,179.13141)" stroke-width=".79701" stroke-linecap="butt" stroke-miterlimit="10" stroke-linejoin="miter" fill="none" stroke="#2471a3" d="M167.20015 61.4384C167.20015 62.53886 166.30808 63.43095 165.2076 63.43095 164.10713 63.43095 163.21504 62.53886 163.21504 61.4384 163.21504 60.33792 164.10713 59.44585 165.2076 59.44585 166.30808 59.44585 167.20015 60.33792 167.20015 61.4384ZM165.2076 61.4384"/>
<path transform="matrix(1.1,0,0,-1.1,3.4268,179.13141)" d="M136.63675 38.70619C136.63675 39.80666 135.74466 40.69875 134.6442 40.69875 133.54372 40.69875 132.65164 39.80666 132.65164 38.70619 132.65164 37.60571 133.54372 36.71364 134.6442 36.71364 135.74466 36.71364 136.63675 37.60571 136.63675 38.70619ZM134.6442 38.70619" fill="#2471a3"/>
<path transform="matrix(1.1,0,0,-1.1,3.4268,179.13141)" stroke-width=".79701" stroke-linecap="butt" stroke-miterlimit="10" stroke-linejoin="miter" fill="none" stroke="#2471a3" d="M136.63675 38.70619C136.63675 39.80666 135.74466 40.69875 134.6442 40.69875 133.54372 40.69875 132.65164 39.80666 132.65164 38.70619 132.65164 37.60571 133.54372 36.71364 134.6442 36.71364 135.74466 36.71364 136.63675 37.60571 136.63675 38.70619ZM134.6442 38.70619"/>
<path transform="matrix(1.1,0,0,-1.1,3.4268,179.13141)" stroke-width=".79701" stroke-linecap="butt" stroke-miterlimit="10" stroke-linejoin="miter" fill="none" stroke="#2471a3" d=""/>
<use data-text="x" xlink:href="#font_3_2" transform="matrix(10.958904,0,0,-10.958904,255.5655,107.4576)"/>
<use data-text="y" xlink:href="#font_3_3" transform="matrix(10.958904,0,0,-10.958904,88.2852,18.982407)"/>
</svg>
