<svg xmlns="http://www.w3.org/2000/svg" xmlns:xlink="http://www.w3.org/1999/xlink" xmlns:inkscape="http://www.inkscape.org/namespaces/inkscape" version="1.1" width="244.775" height="142.421" viewBox="0 0 244.775 142.421">
<defs>
<path id="font_1_1" d="M.6589966 .23046875C.6759949 .23046875 .69400027 .23046875 .69400027 .25045777 .69400027 .27046205 .6759949 .27046205 .6589966 .27046205H.117996219C.100997928 .27046205 .08299255 .27046205 .08299255 .25045777 .08299255 .23046875 .100997928 .23046875 .117996219 .23046875H.6589966Z"/>
<path id="font_2_3" d="M.45999146 .31976319C.45999146 .39982606 .45498658 .47988893 .41999818 .5539398 .37399293 .65000918 .2919922 .6660156 .25 .6660156 .18998719 .6660156 .116989139 .64001467 .07598877 .54693606 .04399109 .47789 .038986207 .39982606 .038986207 .31976319 .038986207 .24472046 .042999269 .15464783 .083999637 .07859802 .1269989-.0024719239 .19999695-.022460938 .24899292-.022460938 .30299378-.022460938 .3789978-.0014648438 .4229889 .09359741 .45498658 .16265869 .45999146 .2407074 .45999146 .31976319M.24899292-.00047302247C.20999146-.00047302247 .15098572 .024551392 .1329956 .12062073 .12199402 .18066406 .12199402 .2727356 .12199402 .3317871 .12199402 .39582826 .12199402 .46188355 .12998963 .5159149 .14898682 .63500979 .22399903 .64401248 .24899292 .64401248 .28199769 .64401248 .34799195 .6259918 .36698915 .52693179 .3769989 .47088624 .3769989 .39482118 .3769989 .3317871 .3769989 .25672914 .3769989 .18867493 .3659973 .12461853 .35099793 .029556275 .2939911-.00047302247 .24899292-.00047302247Z"/>
<path id="font_3_1" d="M.19198609 .052993776C.19198609 .08198547 .16799927 .10598755 .13899231 .10598755 .10998535 .10598755 .085998538 .08198547 .085998538 .052993776 .085998538 .023986817 .10998535 0 .13899231 0 .16799927 0 .19198609 .023986817 .19198609 .052993776Z"/>
<path id="font_2_6" d="M.44898988 .20022583C.44898988 .3193512 .36698915 .41944886 .25898744 .41944886 .21099854 .41944886 .16799927 .40345765 .13198853 .36842347V.5637665C.1519928 .5577698 .18499756 .55078127 .21699524 .55078127 .33999635 .55078127 .4099884 .6417694 .4099884 .6547699 .4099884 .6607666 .40699769 .6657715 .3999939 .6657715 .39898683 .6657715 .39698792 .6657715 .3919983 .66278079 .37199403 .6537781 .32299806 .6337738 .2559967 .6337738 .21598816 .6337738 .16999817 .6407776 .12298584 .6617737 .114990238 .66477969 .11299133 .66477969 .11099243 .66477969 .100997928 .66477969 .100997928 .6567688 .100997928 .6407776V.34439088C.100997928 .32637025 .100997928 .31835938 .114990238 .31835938 .12199402 .31835938 .12399292 .32136537 .12799073 .32736207 .13899231 .3433838 .17599488 .39746095 .25698854 .39746095 .30899049 .39746095 .33399964 .35139466 .34199525 .33337403 .35798646 .29632569 .3600006 .25727845 .3600006 .20722962 .3600006 .17222595 .3600006 .11222839 .33599855 .07035828 .31199647 .031463624 .2749939 .0055389406 .22898865 .0055389406 .1559906 .0055389406 .09899902 .058380128 .08198547 .11723328 .084991458 .1162262 .08799744 .115234378 .09899902 .115234378 .13198853 .115234378 .14898682 .14022827 .14898682 .16423035 .14898682 .18823242 .13198853 .21322632 .09899902 .21322632 .084991458 .21322632 .049987794 .20622254 .049987794 .16023255 .049987794 .07434082 .11898804-.022460938 .23098755-.022460938 .34700013-.022460938 .44898988 .073349 .44898988 .20022583Z"/>
<path id="font_2_4" d="M.2939911 .64004519C.2939911 .66400149 .2939911 .6660156 .2709961 .6660156 .20899964 .60227969 .12098694 .60227969 .08898926 .60227969V.57128909C.10899353 .57128909 .16799927 .57128909 .21998596 .5972748V.07902527C.21998596 .042999269 .21699524 .0309906 .1269989 .0309906H.09498596V0C.12998963 .0029907227 .21699524 .0029907227 .25698854 .0029907227 .29699708 .0029907227 .38398744 .0029907227 .4189911 0V.0309906H.3869934C.29699708 .0309906 .2939911 .041992189 .2939911 .07902527V.64004519Z"/>
<path id="font_2_5" d="M.1269989 .07699585 .23298645 .18003845C.3889923 .31811524 .44898988 .3721466 .44898988 .47216798 .44898988 .5860901 .35899354 .6660156 .23699951 .6660156 .12399292 .6660156 .049987794 .57411196 .049987794 .48516847 .049987794 .4291687 .099990848 .4291687 .102996829 .4291687 .11999512 .4291687 .15499878 .44117738 .15499878 .48217774 .15499878 .5081787 .13699341 .5341797 .101989749 .5341797 .09399414 .5341797 .09199524 .5341797 .08898926 .5331726 .11199951 .59806826 .1659851 .63500979 .22399903 .63500979 .31498719 .63500979 .35798646 .5541382 .35798646 .47216798 .35798646 .39215089 .30799867 .31311036 .25299073 .25108338L.06098938 .036987306C.049987794 .025985718 .049987794 .023986817 .049987794 0H.42099L.44898988 .17404175H.42399598C.4189911 .14402771 .4119873 .1000061 .4019928 .084991458 .394989 .07699585 .32899476 .07699585 .30699159 .07699585H.1269989Z"/>
<clipPath id="clip_4">
<path transform="matrix(.85,0,0,-.85,14.515001,139.0937)" d="M0 0H266.98127V153.59319H0Z"/>
</clipPath>
<path id="font_5_3" d="M.7579956 .4328766C.7579956 .5910034 .6519928 .7050781 .49499513 .7050781 .2709961 .7050781 .049987794 .47491456 .049987794 .24671936 .049987794 .082595828 .16299439-.022460938 .31399537-.022460938 .5369873-.022460938 .7579956 .2006836 .7579956 .4328766M.32099916 .007537842C.22499085 .007537842 .1459961 .080596927 .1459961 .2217102 .1459961 .27374269 .16299439 .42185975 .24598694 .53596499 .31799317 .6340332 .4139862 .677063 .48799134 .677063 .58599856 .677063 .6669922 .60601809 .6669922 .4709015 .6669922 .40585328 .6409912 .2597351 .5569916 .14663697 .48199464 .046569826 .3899994 .007537842 .32099916 .007537842Z"/>
<path id="font_5_2" d="M.18199158 .116867069C.1329956 .036987306 .08898926 .033981325 .04899597 .0309906 .041992189 .02999878 .036987306 .021987915 .036987306 .0129852299 .036987306 .0069885256 .040985109 0 .050994874 0 .069992069 0 .116989139 .0029907227 .13598633 .0029907227 .1579895 .0029907227 .21199036 0 .23399353 0 .23999024 0 .25299073 0 .25299073 .017990113 .25299073 .02999878 .24099732 .0309906 .23799134 .0309906 .22898865 .03199768 .19099427 .033981325 .19099427 .063949588 .19099427 .077926639 .20199585 .09689331 .20498657 .101882938L.28399659 .23068238H.54499819C.5479889 .2077179 .5509949 .17378235 .55400088 .14881897 .55799868 .10987854 .56399539 .06593323 .56399539 .062942508 .56399539 .047973634 .5499878 .0309906 .49198915 .0309906 .48199464 .0309906 .46899415 .0309906 .46899415 .0129852299 .46899415 .0019989014 .47698976 0 .48399354 0 .5029907 0 .5269928 .0019989014 .5469971 .0019989014 .5669861 .0019989014 .59098818 .0029907227 .6069946 .0029907227 .6399994 .0029907227 .6419983 .0029907227 .66600039 .0019989014 .6819916 .0009918213 .7049866 0 .72099307 0 .72698977 0 .73999026 0 .73999026 .017990113 .73999026 .0309906 .72898867 .0309906 .71699526 .0309906 .6569977 .0309906 .6559906 .037979127 .6529999 .06694031L.58299258 .68881228C.58099368 .7108154 .5799866 .7158203 .5629883 .7158203 .548996 .7158203 .54299929 .7088165 .5349884 .69581606L.18199158 .116867069M.30299378 .26168824 .5049896 .5917816 .5419922 .26168824H.30299378Z"/>
<path id="font_6_1" d="M.34098817-.23803711C.34098817-.23303223 .33799745-.23002625 .33198548-.22303772 .20298767-.105026248 .1639862 .07498169 .1639862 .24996948 .1639862 .40498353 .19400025 .59298709 .33499146 .72698977 .33898927 .73098757 .34098817 .73399356 .34098817 .7389984 .34098817 .74598696 .33599855 .75 .32899476 .75 .31698609 .75 .22698975 .6779785 .17298889 .568985 .125 .47297669 .100997928 .36997987 .100997928 .25097657 .100997928 .17897034 .10998535 .064971927 .16499329-.053024293 .22399903-.17602539 .31698609-.24902344 .32899476-.24902344 .33599855-.24902344 .34098817-.24502564 .34098817-.23803711Z"/>
<path id="font_6_5" d="M.46199037 .17704773H.43399049C.43199159 .16404724 .42399598 .10501099 .41099549 .08900452 .40499879 .07998657 .33599855 .07998657 .31599427 .07998657H.13798523L.23699951 .17404175C.40098573 .3161316 .46199037 .36915589 .46199037 .4711914 .46199037 .5860901 .36698915 .6660156 .24398804 .6660156 .1289978 .6660156 .050994874 .575119 .050994874 .4841919 .050994874 .43418885 .09399414 .42919923 .102996829 .42919923 .125 .42919923 .15499878 .44519044 .15499878 .48120118 .15499878 .51119998 .13398743 .5332031 .102996829 .5332031 .09799194 .5332031 .09498596 .5332031 .09098816 .53219607 .114990238 .6030731 .1789856 .63500979 .23298645 .63500979 .33499146 .63500979 .36999513 .5401764 .36999513 .4711914 .36999513 .36915589 .29299928 .28611756 .24499512 .23408509L.06199646 .035995485C.050994874 .024993897 .050994874 .022994996 .050994874 0H.43399049L.46199037 .17704773Z"/>
<path id="font_5_1" d="M.18199158 .015991211C.18199158-.017044068 .18199158-.09921265 .10798645-.17036438 .101989749-.17636109 .101989749-.17736817 .101989749-.18136597 .101989749-.18836975 .10899353-.19335938 .114990238-.19335938 .12599182-.19335938 .20698548-.115249637 .20698548 .0019989014 .20698548 .06399536 .18499756 .10798645 .14199829 .10798645 .10798645 .10798645 .08799744 .08198547 .08799744 .053985597 .08799744 .025985718 .10798645 0 .14199829 0 .15699768 0 .17199707 .004989624 .18199158 .015991211Z"/>
<path id="font_6_3" d="M.47299195 .31976319C.47299195 .38682557 .46998597 .47288514 .43499757 .5479431 .3909912 .64201357 .31498719 .6660156 .25698854 .6660156 .19699097 .6660156 .12098694 .64201357 .07699585 .5459442 .04499817 .47688294 .039993287 .39582826 .039993287 .31976319 .039993287 .25471498 .041992189 .15765381 .084991458 .07858276 .13198853-.0064697267 .20999146-.022460938 .2559967-.022460938 .32099916-.022460938 .394989 .0055389406 .43699647 .097595218 .46699525 .1646576 .47299195 .23971558 .47299195 .31976319M.25698854 .002532959C.22698975 .002532959 .15499878 .016540528 .13598633 .12962342 .12599182 .18867493 .12599182 .2747345 .12599182 .33177186 .12599182 .39982606 .12599182 .47888185 .13798523 .53393557 .1579895 .6230011 .22200012 .64100649 .2559967 .64100649 .2939911 .64100649 .35699464 .62098696 .37599183 .5279236 .3869934 .47288514 .3869934 .39482118 .3869934 .33177186 .3869934 .2697296 .3869934 .18566895 .3769989 .12661743 .35598756 .012542725 .28199769 .002532959 .25698854 .002532959Z"/>
<path id="font_6_2" d="M.2979889 .25097657C.2979889 .3329773 .28599549 .4429779 .23399353 .5539856 .1749878 .6769867 .08198547 .75 .069992069 .75 .05999756 .75 .057998659 .74198916 .057998659 .7389984 .057998659 .73399356 .05999756 .73098757 .066986087 .72398379 .125 .6719818 .23498535 .5359802 .23498535 .25097657 .23498535 .10797119 .20899964-.091033939 .06399536-.22602844 .06199646-.22903443 .057998659-.23303223 .057998659-.23803711 .057998659-.24102783 .05999756-.24902344 .069992069-.24902344 .08198547-.24902344 .17199707-.17703247 .22599793-.06802368 .27398683 .02796936 .2979889 .13098145 .2979889 .25097657Z"/>
<path id="font_7_75" d="M.83299258 0V.0309906C.7819977 .03125 .7569885 .03125 .7559967 .0622406V.2539215C.7559967 .34077455 .7559967 .36872865 .72299197 .4056549 .70199587 .43037416 .6619873 .4423828 .6159973 .4423828 .5439911 .4423828 .49499513 .40037538 .46699525 .3473816 .45498658 .40637208 .4149933 .4423828 .33099366 .4423828 .25099183 .4423828 .20199585 .39038087 .18099976 .3443756H.17999268V.4423828L.034988405 .43066407V.3996582C.102996829 .3996582 .11199951 .39266969 .11199951 .34370423V.07695007C.11199951 .0309906 .100997928 .0309906 .034988405 .0309906V0C.08198547 .0019989014 .100997928 .0029907227 .14898682 .0029907227 .19699097 .0029907227 .20999146 .0019989014 .2630005 0V.0309906C.19699097 .0309906 .18598938 .0309906 .18598938 .07695007V.25878907C.18598938 .36732484 .2639923 .41737367 .32398988 .41737367 .3789978 .41737367 .39698792 .37834168 .39698792 .30825807V.077041629C.39698792 .0309906 .38598634 .0309906 .31999208 .0309906V0C.36698915 .0019989014 .38598634 .0029907227 .43399049 .0029907227 .48199464 .0029907227 .49499513 .0019989014 .5479889 0V.0309906C.48199464 .0309906 .47099305 .0309906 .47099305 .077041629V.2592163C.47099305 .36732484 .548996 .41737367 .60899356 .41737367 .6639862 .41737367 .6819916 .37834168 .6819916 .30825807V.077041629C.6819916 .0309906 .67099 .0309906 .6049957 .0309906V0C.6519928 .0019989014 .67099 .0029907227 .71899417 .0029907227 .7669983 .0029907227 .7799988 .0019989014 .83299258 0Z"/>
<path id="font_7_66" d="M.25299073 0V.0309906C.18798828 .0309906 .18399048 .035995485 .18399048 .075042728V.4423828L.039993287 .43066407V.3996582C.10398865 .3996582 .11299133 .3936615 .11299133 .3447113V.07695007C.11299133 .0309906 .101989749 .0309906 .035995485 .0309906V0C.08099365 .0019989014 .101989749 .0029907227 .1459961 .0029907227 .1619873 .0029907227 .20399475 .0029907227 .25299073 0M.19699097 .6028137C.19699097 .63282778 .17298889 .6568146 .14299011 .6568146 .11299133 .6568146 .08898926 .63282778 .08898926 .6028137 .08898926 .57281497 .11299133 .5488281 .14299011 .5488281 .17298889 .5488281 .19699097 .57281497 .19699097 .6028137Z"/>
<path id="font_7_77" d="M.5469971 0V.0309906C.49598695 .03125 .47099305 .03125 .46998597 .0622406V.25431825C.46998597 .3373413 .46998597 .36636354 .44198609 .4013672 .4189911 .42938233 .3809967 .4423828 .33099366 .4423828 .23799134 .4423828 .19499207 .37335206 .18099976 .34535218H.17999268V.4423828L.034988405 .43066407V.3996582C.102996829 .3996582 .11199951 .39266969 .11199951 .34370423V.07695007C.11199951 .0309906 .100997928 .0309906 .034988405 .0309906V0C.08198547 .0019989014 .100997928 .0029907227 .14898682 .0029907227 .19699097 .0029907227 .20999146 .0019989014 .2630005 0V.0309906C.19699097 .0309906 .18598938 .0309906 .18598938 .07695007V.25878907C.18598938 .36532594 .26098634 .41737367 .32398988 .41737367 .3829956 .41737367 .3959961 .3683319 .3959961 .30825807V.077041629C.3959961 .0309906 .3849945 .0309906 .31900025 .0309906V0C.3659973 .0019989014 .3849945 .0029907227 .43299867 .0029907227 .48098756 .0029907227 .49398805 .0019989014 .5469971 0Z"/>
<path id="font_6_4" d="M.3039856 .6392822C.3039856 .6642761 .30299378 .666275 .27799989 .666275 .21598816 .60227969 .12399292 .60227969 .09298706 .60227969V.57128909C.11199951 .57128909 .17298889 .57128909 .22698975 .5972748V.08001709C.22698975 .042999269 .22399903 .0309906 .1309967 .0309906H.09899902V0C.1349945 .0029907227 .22399903 .0029907227 .2649994 .0029907227 .30599977 .0029907227 .3959961 .0029907227 .43199159 0V.0309906H.3999939C.30699159 .0309906 .3039856 .042999269 .3039856 .08001709V.6392822Z"/>
<path id="font_8_1" d="M.6749878 .22944641C.69299319 .22944641 .71199038 .22944641 .71199038 .25144959 .71199038 .27246095 .69200137 .27246095 .6749878 .27246095H.12298584C.10598755 .27246095 .085998538 .27246095 .085998538 .25144959 .085998538 .22944641 .10499573 .22944641 .12298584 .22944641H.6749878Z"/>
<path id="font_7_28" d="M.49699403 .089141849V.14515686H.46899415V.090148929C.46899415 .07914734 .46899415 .029129029 .43299867 .029129029 .39698792 .029129029 .39698792 .07714844 .39698792 .09315491V.26818849C.39698792 .32521058 .39698792 .3592224 .35198976 .40022279 .31498719 .43322755 .2669983 .4482422 .21699524 .4482422 .1329956 .4482422 .06298828 .40623475 .06298828 .34220887 .06298828 .311203 .083999637 .2942047 .10998535 .2942047 .13699341 .2942047 .1559906 .31420899 .1559906 .34020997 .1559906 .3832245 .11099243 .38822938 .11099243 .38822938 .13798523 .41423036 .18598938 .42323304 .21499634 .42323304 .2659912 .42323304 .32299806 .3852234 .32299806 .29719544V.26419068C.2689972 .26219178 .19400025 .2571869 .1269989 .22518921 .054992677 .19017029 .032989503 .13816834 .032989503 .09814453 .032989503 .01625061 .12998963-.0107421879 .19699097-.0107421879 .27999879-.0107421879 .31799317 .04425049 .33198548 .072250369 .33699037 .030136109 .3659973-.005859375 .40899659-.005859375 .43399049-.005859375 .49699403 .009140015 .49699403 .08912659V.089141849M.32299806 .14112854C.32299806 .04425049 .24798584 .014251709 .20399475 .014251709 .15699768 .014251709 .11299133 .04824829 .11299133 .098236087 .11299133 .16423035 .16999817 .23422241 .32299806 .24023438V.14112854Z"/>
<path id="font_7_116" d="M.5279999 0V.0309906C.48799134 .0309906 .45799256 .0309906 .43598939 .05897522L.30499269 .22491455C.2979889 .23390198 .2979889 .23590088 .2979889 .23590088 .2979889 .23590088 .37599183 .33285523 .38398744 .3408661 .4149933 .37483216 .44898988 .39866639 .5099945 .3996582V.43066407C.48098756 .42765809 .45399476 .42765809 .4249878 .42765809 .3869934 .42765809 .36898805 .42765809 .32899476 .43066407V.3996582C.34399415 .39767457 .35699464 .38972474 .35699464 .3698578 .35699464 .35386659 .34799195 .342865 .34298707 .3368683L.2789917 .2578888 .20098877 .3568573C.19400025 .36586 .19198609 .3678589 .19198609 .37483216 .19198609 .38674928 .20298767 .39866639 .22599793 .3996582V.43066407C.18798828 .4286499 .1619873 .42765809 .116989139 .42765809 .116989139 .42765809 .057998659 .42765809 .018997193 .43066407V.3996582C.08799744 .3996582 .08999634 .39767457 .13598633 .3388672L.23899842 .20991516 .14199829 .0929718C.09199524 .032989503 .034988405 .0309906 .01399231 .0309906V0C.042999269 .0029907227 .069992069 .0029907227 .09899902 .0029907227 .1309967 .0029907227 .16299439 .0019989014 .19499207 0V.0309906C.16999817 .033996583 .16699219 .050979616 .16699219 .06097412 .16699219 .0639801 .16699219 .07797241 .18199158 .095962528 .20599365 .12695313 .23199463 .15693665 .25698854 .18692017L.33599855 .08596802C.35499574 .0639801 .35499574 .0619812 .35499574 .055984498 .35499574 .04498291 .34498597 .03199768 .32099916 .0309906V0C.36299134 .0019989014 .3869934 .0029907227 .42999269 .0029907227 .42999269 .0029907227 .4889984 .0029907227 .5279999 0Z"/>
<path id="font_9_1" d="M.35899354 .6349335C.35899354 .66503909 .35499574 .66503909 .32499696 .66503909 .25898744 .60058596 .15699768 .60058596 .12098694 .60058596V.5615845C.14698792 .5615845 .21299744 .5615845 .272995 .58958438V.08496094C.272995 .051986696 .272995 .038986207 .16999817 .038986207H.1269989V0C.18199158 .0039978029 .2599945 .0039978029 .31599427 .0039978029 .37199403 .0039978029 .44999696 .0039978029 .5049896 0V.038986207H.46199037C.35899354 .038986207 .35899354 .051986696 .35899354 .08496094V.6349335Z"/>
<path id="font_9_2" d="M.5379944 .18702698H.5009918C.49899293 .17301941 .4889984 .10699463 .47399903 .09599304 .46699525 .08999634 .38598634 .08999634 .37199403 .08999634H.18499756L.31298829 .19403076C.34700013 .22103882 .43598939 .28504945 .46699525 .31506349 .49699403 .3450775 .5379944 .39608766 .5379944 .46710206 .5379944 .5920563 .4249878 .66503909 .29100038 .66503909 .1619873 .66503909 .07199097 .58006289 .07199097 .48609925 .07199097 .43510438 .114990238 .42910768 .12599182 .42910768 .15098572 .42910768 .17999268 .44709779 .17999268 .48310853 .17999268 .50509646 .16699219 .5371094 .12298584 .5371094 .1459961 .5880585 .20698548 .6260376 .27598573 .6260376 .3809967 .6260376 .43699647 .5480957 .43699647 .46710206 .43699647 .39608766 .3899994 .32305909 .31999208 .25904847L.08299255 .041992189C.07299805 .03199768 .07199097 .0309906 .07199097 0H.5069885L.5379944 .18702698Z"/>
<path id="font_3_4" d="M.33399964 .30233766C.33999635 .32835389 .36299134 .42037965 .43299867 .42037965 .43798829 .42037965 .46199037 .42037965 .48298646 .40734864 .45498658 .402359 .43499757 .37734986 .43499757 .35334779 .43499757 .33735658 .44599916 .31835938 .47299195 .31835938 .49499513 .31835938 .5269928 .3363495 .5269928 .37635804 .5269928 .42837525 .46798707 .4423828 .43399049 .4423828 .37599183 .4423828 .34098817 .38935853 .32899476 .36634828 .3039856 .43237306 .25 .4423828 .22099304 .4423828 .116989139 .4423828 .05999756 .3133545 .05999756 .28834535 .05999756 .27833558 .069992069 .27833558 .07199097 .27833558 .07998657 .27833558 .08299255 .28033448 .084991458 .28933717 .11898804 .39535523 .18499756 .42037965 .21899414 .42037965 .23799134 .42037965 .272995 .4113617 .272995 .35334779 .272995 .32235719 .2559967 .25532533 .21899414 .11528015 .20298767 .053268434 .16799927 .011245728 .12399292 .011245728 .117996219 .011245728 .09498596 .011245728 .07398987 .024276734 .09899902 .029266358 .12098694 .05027771 .12098694 .07827759 .12098694 .105270389 .09899902 .11328125 .083999637 .11328125 .053985597 .11328125 .0289917 .08728027 .0289917 .055267335 .0289917 .009246826 .07899475-.0107421879 .12298584-.0107421879 .18899536-.0107421879 .22499085 .059280397 .22799683 .0652771 .23999024 .028274537 .27598573-.0107421879 .33599855-.0107421879 .43899537-.0107421879 .49598695 .118270877 .49598695 .14328003 .49598695 .1532898 .4869995 .1532898 .48399354 .1532898 .47499085 .1532898 .47299195 .14929199 .47099305 .14228821 .43798829 .03527832 .36999513 .011245728 .33799745 .011245728 .29899598 .011245728 .2829895 .043273927 .2829895 .07727051 .2829895 .09927368 .2889862 .121276859 .2999878 .16529846L.33399964 .30233766Z"/>
<path id="font_3_5" d="M.48599244 .38136292C.48999024 .39537049 .48999024 .39736939 .48999024 .40437318 .48999024 .42237855 .47599793 .43138124 .46099855 .43138124 .45098878 .43138124 .43499757 .42536927 .42599488 .41036988 .42399598 .405365 .41600038 .37435914 .4119873 .35635377 .40499879 .33035279 .397995 .30334474 .3919983 .27633668L.34700013 .09628296C.34298707 .08126831 .2999878 .011245728 .23399353 .011245728 .18299866 .011245728 .17199707 .055267335 .17199707 .0922699 .17199707 .1382904 .18899536 .20030213 .22299195 .28833009 .23899842 .3293457 .24299622 .3403473 .24299622 .36035157 .24299622 .405365 .21099854 .4423828 .16099549 .4423828 .06599426 .4423828 .0289917 .29733277 .0289917 .28833009 .0289917 .27833558 .038986207 .27833558 .040985109 .27833558 .050994874 .27833558 .051986696 .28033448 .056991579 .29634095 .083999637 .3903656 .12399292 .42037965 .1579895 .42037965 .1659851 .42037965 .18299866 .42037965 .18299866 .3883667 .18299866 .36335755 .17298889 .3373413 .1659851 .31834413 .12599182 .21231079 .10798645 .1552887 .10798645 .10827637 .10798645 .019256592 .17098999-.0107421879 .22999573-.0107421879 .2689972-.0107421879 .30299378 .0062561037 .33099366 .03425598 .31799317-.017745972 .30599977-.06674194 .2659912-.11973572 .23999024-.15385437 .20199585-.18309021 .1559906-.18309021 .14199829-.18309021 .09700012-.18005371 .07998657-.14074707 .09599304-.14074707 .10899353-.14074707 .12298584-.1287384 .1329956-.11973572 .14299011-.10673523 .14299011-.08773804 .14299011-.056747438 .115997318-.052734376 .10598755-.052734376 .08299255-.052734376 .049987794-.068740848 .049987794-.11773682 .049987794-.16796875 .09399414-.20507813 .1559906-.20507813 .25898744-.20507813 .3619995-.11373901 .3899994-.00074768069L.48599244 .38136292Z"/>
<path id="font_3_2" d="M.36698915 .3996582H.45298768C.47299195 .3996582 .48298646 .3996582 .48298646 .41966249 .48298646 .43066407 .47299195 .43066407 .45599366 .43066407H.37298585L.3939972 .5449524C.397995 .5660095 .4119873 .6370239 .41799928 .6490326 .4269867 .66804507 .44400025 .68307498 .46499635 .68307498 .46899415 .68307498 .49499513 .68307498 .5139923 .66503909 .46998597 .661026 .45999146 .6260376 .45999146 .6110382 .45999146 .58802798 .47799684 .57603457 .49699403 .57603457 .522995 .57603457 .5519867 .5980377 .5519867 .6360321 .5519867 .6820679 .5059967 .7050781 .46499635 .7050781 .43099977 .7050781 .36799623 .68707278 .33799745 .58802798 .33198548 .56700137 .32899476 .5569763 .30499269 .43066407H.23599243C.21699524 .43066407 .20599365 .43066407 .20599365 .4116516 .20599365 .3996582 .21499634 .3996582 .23399353 .3996582H.2999878L.22499085 .0048828127C.20698548-.09207153 .18998719-.18309021 .13798523-.18309021 .13398743-.18309021 .10899353-.18309021 .08999634-.16506958 .13598633-.1620636 .14498902-.12606812 .14498902-.111068729 .14498902-.08807373 .1269989-.07606506 .10798645-.07606506 .08198547-.07606506 .052993776-.09806824 .052993776-.13606262 .052993776-.18109131 .09700012-.20507813 .13798523-.20507813 .19299317-.20507813 .23298645-.14607239 .25099183-.108062747 .2829895-.04508972 .30599977 .07583618 .30699159 .082839969L.36698915 .3996582Z"/>
<path id="font_2_1" d="M.33099366-.2400055C.33099366-.23701477 .33099366-.23500061 .31399537-.21800232 .18899536-.0920105 .15699768 .09700012 .15699768 .25 .15699768 .42399598 .19499207 .59799197 .31799317 .72299197 .33099366 .73498538 .33099366 .7369995 .33099366 .73999026 .33099366 .746994 .32699586 .75 .32099916 .75 .31098939 .75 .22099304 .6819916 .1619873 .5549927 .11099243 .44499208 .09899902 .33399964 .09899902 .25 .09899902 .17199707 .10998535 .050994874 .16499329-.06201172 .22499085-.18501282 .31098939-.25 .32099916-.25 .32699586-.25 .33099366-.24700928 .33099366-.2400055Z"/>
<path id="font_2_2" d="M.2889862 .25C.2889862 .32798768 .27799989 .44898988 .22299195 .56199648 .16299439 .68499758 .07699585 .75 .066986087 .75 .06098938 .75 .056991579 .74598696 .056991579 .73999026 .056991579 .7369995 .056991579 .73498538 .07598877 .71699526 .17399597 .6179962 .23098755 .45899964 .23098755 .25 .23098755 .07899475 .19400025-.09700012 .069992069-.2230072 .056991579-.23500061 .056991579-.23701477 .056991579-.2400055 .056991579-.2460022 .06098938-.25 .066986087-.25 .07699585-.25 .16699219-.18200684 .22599793-.055007936 .2769928 .054992677 .2889862 .16600037 .2889862 .25Z"/>
<path id="font_2_7" d="M.68699648 .32714845C.70199587 .32714845 .72099307 .32714845 .72099307 .34713746 .72099307 .36714173 .70199587 .36714173 .6879883 .36714173H.08898926C.07499695 .36714173 .055999757 .36714173 .055999757 .34713746 .055999757 .32714845 .07499695 .32714845 .08999634 .32714845H.68699648M.6879883 .13284302C.70199587 .13284302 .72099307 .13284302 .72099307 .15284729 .72099307 .17285156 .70199587 .17285156 .68699648 .17285156H.08999634C.07499695 .17285156 .055999757 .17285156 .055999757 .15284729 .055999757 .13284302 .07499695 .13284302 .08898926 .13284302H.6879883Z"/>
<path id="font_10_1" d="M.5049896 .18203736H.47099305C.46798707 .16001892 .45799256 .100997928 .44499208 .09098816 .43699647 .084991458 .3600006 .084991458 .34599305 .084991458H.1619873C.2669983 .17803955 .3019867 .20603943 .3619995 .25306703 .43598939 .312088 .5049896 .374115 .5049896 .46914674 .5049896 .5900879 .39898683 .6640625 .2709961 .6640625 .14698792 .6640625 .06298828 .57710269 .06298828 .4851532 .06298828 .43414308 .10598755 .42915345 .115997318 .42915345 .13999939 .42915345 .16899109 .44615174 .16899109 .48214723 .16899109 .5001526 .1619873 .53515627 .10998535 .53515627 .14099121 .6060791 .20899964 .62805178 .2559967 .62805178 .35598756 .62805178 .4079895 .5501404 .4079895 .46914674 .4079895 .38212586 .34599305 .3130951 .31399537 .27708436L.07299805 .038986207C.06298828 .02999878 .06298828 .027999878 .06298828 0H.47499085L.5049896 .18203736Z"/>
<path id="font_3_3" d="M.47099305 .3773346C.47200013 .3833313 .47399903 .38833619 .47399903 .39535523 .47399903 .41236878 .46199037 .42237855 .44499208 .42237855 .43499757 .42237855 .4079895 .41537477 .4039917 .3793335 .38598634 .41636659 .35099793 .4423828 .31098939 .4423828 .19699097 .4423828 .07299805 .30226136 .07299805 .15812683 .07299805 .059020997 .13398743 0 .20599365 0 .2649994 0 .31199647 .04701233 .32199098 .058029176L.32299806 .057022096C.3019867-.031982423 .2899933-.07295227 .2899933-.07495117 .28599549-.08395386 .2519989-.18309021 .1459961-.18309021 .1269989-.18309021 .09399414-.18206787 .06599426-.17297364 .09599304-.16394043 .10699463-.13793946 .10699463-.12094116 .10699463-.10494995 .09599304-.0859375 .068984989-.0859375 .04699707-.0859375 .01499939-.10394287 .01499939-.14395142 .01499939-.18508911 .051986696-.20507813 .147995-.20507813 .272995-.20507813 .34498597-.12693787 .3600006-.06695557L.47099305 .3773346M.34098817 .12809754C.33499146 .10206604 .31199647 .077041629 .2899933 .058029176 .2689972 .040008546 .23799134 .021987915 .20899964 .021987915 .15899658 .021987915 .14399719 .074035648 .14399719 .11407471 .14399719 .16212464 .17298889 .28024293 .19999695 .33128358 .22698975 .38034059 .269989 .42037965 .31199647 .42037965 .37799073 .42037965 .3919983 .33929444 .3919983 .33428956 .3919983 .32928468 .3899994 .3232727 .3889923 .3192749L.34098817 .12809754Z"/>
<path id="font_11_1" d="M.24899292 .10601807C.23899842 .072021488 .20599365 .018234253 .15499878 .018234253 .1519928 .018234253 .12199402 .018234253 .100997928 .03215027 .14199829 .04508972 .14498902 .08100891 .14498902 .087020877 .14498902 .10900879 .12799073 .12402344 .10499573 .12402344 .07699585 .12402344 .04798889 .10002136 .04798889 .0630188 .04798889 .01322937 .10398865-.009765625 .15299988-.009765625 .19898987-.009765625 .23999024 .019226075 .2649994 .061019899 .2889862 .008224487 .34399415-.009765625 .38398744-.009765625 .49899293-.009765625 .55999758 .11502075 .55999758 .14305115 .55999758 .15608216 .5469971 .15608216 .5439911 .15608216 .5299988 .15608216 .5289917 .15107727 .5249939 .13905335 .5039978 .07002258 .44400025 .018234253 .3880005 .018234253 .34799195 .018234253 .32699586 .04508972 .32699586 .08302307 .32699586 .10900879 .35099793 .20018006 .3789978 .31140138 .39898683 .38841249 .44400025 .4133911 .47698976 .4133911 .47898866 .4133911 .5099945 .4133911 .5309906 .39941407 .49899293 .39041139 .4869995 .3624115 .4869995 .34440614 .4869995 .32240296 .5039978 .30740357 .5269928 .30740357 .5499878 .30740357 .58299258 .32640077 .58299258 .3684082 .58299258 .4243927 .5189972 .44140626 .47898866 .44140626 .42900086 .44140626 .3889923 .4084015 .36698915 .3704071 .34899903 .4113922 .30299378 .44140626 .24699402 .44140626 .1349945 .44140626 .070999149 .31840516 .070999149 .2883606 .070999149 .27534486 .084991458 .27534486 .08799744 .27534486 .100997928 .27534486 .101989749 .27934266 .10699463 .29237367 .13198853 .3704071 .19499207 .4133911 .24398804 .4133911 .2769928 .4133911 .3039856 .395401 .3039856 .3474121 .3039856 .32740785 .2919922 .27734376 .2829895 .24327088L.24899292 .10601807Z"/>
<path id="font_12_1" d="M.58898928 .19296265H.5469971C.5439911 .17396546 .5339966 .11198425 .5179901 .101989749 .5099945 .09599304 .42599488 .09599304 .41099549 .09599304H.21499634C.2809906 .14497376 .35499574 .20095825 .4149933 .24093628 .5049896 .30291749 .58898928 .36090089 .58898928 .46687318 .58898928 .59495547 .46798707 .6660156 .32499696 .6660156 .18998719 .6660156 .09098816 .58795168 .09098816 .48986817 .09098816 .4378662 .1349945 .42886354 .14898682 .42886354 .17599488 .42886354 .20799256 .4468689 .20799256 .48786927 .20799256 .52386477 .18199158 .543869 .15098572 .546875 .1789856 .59194949 .23699951 .6220093 .3039856 .6220093 .40098573 .6220093 .48199464 .5639038 .48199464 .4658661 .48199464 .3818817 .42399598 .31791688 .34700013 .2529297L.102996829 .04598999C.09298706 .036987306 .09199524 .036987306 .09098816 .02999878V0H.55599978L.58898928 .19296265Z"/>
</defs>
<path transform="matrix(.85,0,0,-.85,14.515001,139.0937)" stroke-width=".3985" stroke-linecap="butt" stroke-miterlimit="10" stroke-linejoin="miter" fill="none" stroke="#e5e6e5" d="M0 0V153.59319M80.9034 0V153.59319M121.3551 0V153.59319M161.80681 0V153.59319M202.25852 0V153.59319M242.71022 0V153.59319"/>
<path transform="matrix(.85,0,0,-.85,14.515001,139.0937)" stroke-width=".3985" stroke-linecap="butt" stroke-miterlimit="10" stroke-linejoin="miter" fill="none" stroke="#e5e6e5" d="M0 13.96301H266.98127M0 48.87056H266.98127M0 118.68564H266.98127M0 153.59319H266.98127"/>
<path transform="matrix(.85,0,0,-.85,14.515001,139.0937)" stroke-width=".19925" stroke-linecap="butt" stroke-miterlimit="10" stroke-linejoin="miter" fill="none" stroke="#7f807f" d="M0 81.65207V85.90411M80.9034 81.65207V85.90411M121.3551 81.65207V85.90411M161.80681 81.65207V85.90411M202.25852 81.65207V85.90411M242.71022 81.65207V85.90411"/>
<path transform="matrix(.85,0,0,-.85,14.515001,139.0937)" stroke-width=".19925" stroke-linecap="butt" stroke-miterlimit="10" stroke-linejoin="miter" fill="none" stroke="#7f807f" d="M38.32576 13.96301H42.57762M38.32576 48.87056H42.57762M38.32576 118.68564H42.57762M38.32576 153.59319H42.57762"/>
<path transform="matrix(.85,0,0,-.85,14.515001,139.0937)" stroke-width=".79701" stroke-linecap="butt" stroke-miterlimit="10" stroke-linejoin="miter" fill="none" stroke="#000000" d="M0 83.77809H264.391"/>
<path transform="matrix(.85,0,0,-.85,239.24735,67.882328)" d="M2.59026 0-1.55415 2.0722 0 0-1.55415-2.0722"/>
<path transform="matrix(.85,0,0,-.85,14.515001,139.0937)" stroke-width=".79701" stroke-linecap="butt" stroke-miterlimit="10" stroke-linejoin="miter" fill="none" stroke="#000000" d="M40.45169 0V151.00292"/>
<path transform="matrix(0,-.85,-.85,-0,48.89894,10.741226)" d="M2.59026 0-1.55415 2.0722 0 0-1.55415-2.0722"/>
<use data-text="&#x2212;" xlink:href="#font_1_1" transform="matrix(8.468244,0,0,-8.468244,5.811001,78.3085)"/>
<use data-text="0" xlink:href="#font_2_3" transform="matrix(8.468244,0,0,-8.468244,12.39765,78.3085)"/>
<use data-text="." xlink:href="#font_3_1" transform="matrix(8.468244,0,0,-8.468244,16.6315,78.3085)"/>
<use data-text="5" xlink:href="#font_2_6" transform="matrix(8.468244,0,0,-8.468244,18.9843,78.3085)"/>
<use data-text="0" xlink:href="#font_2_3" transform="matrix(8.468244,0,0,-8.468244,77.87145,78.3085)"/>
<use data-text="." xlink:href="#font_3_1" transform="matrix(8.468244,0,0,-8.468244,82.1053,78.3085)"/>
<use data-text="5" xlink:href="#font_2_6" transform="matrix(8.468244,0,0,-8.468244,84.4581,78.3085)"/>
<use data-text="1" xlink:href="#font_2_4" transform="matrix(8.468244,0,0,-8.468244,115.54855,78.3085)"/>
<use data-text="1" xlink:href="#font_2_4" transform="matrix(8.468244,0,0,-8.468244,146.63816,78.3085)"/>
<use data-text="." xlink:href="#font_3_1" transform="matrix(8.468244,0,0,-8.468244,150.87285,78.3085)"/>
<use data-text="5" xlink:href="#font_2_6" transform="matrix(8.468244,0,0,-8.468244,153.22481,78.3085)"/>
<use data-text="2" xlink:href="#font_2_5" transform="matrix(8.468244,0,0,-8.468244,184.31525,78.3085)"/>
<use data-text="2" xlink:href="#font_2_5" transform="matrix(8.468244,0,0,-8.468244,215.4057,78.3085)"/>
<use data-text="." xlink:href="#font_3_1" transform="matrix(8.468244,0,0,-8.468244,219.63954,78.3085)"/>
<use data-text="5" xlink:href="#font_2_6" transform="matrix(8.468244,0,0,-8.468244,221.99236,78.3085)"/>
<use data-text="&#x2212;" xlink:href="#font_1_1" transform="matrix(8.468244,0,0,-8.468244,33.109605,129.6009)"/>
<use data-text="1" xlink:href="#font_2_4" transform="matrix(8.468244,0,0,-8.468244,39.696256,129.6009)"/>
<use data-text="&#x2212;" xlink:href="#font_1_1" transform="matrix(8.468244,0,0,-8.468244,26.522952,99.929958)"/>
<use data-text="0" xlink:href="#font_2_3" transform="matrix(8.468244,0,0,-8.468244,33.1096,99.929958)"/>
<use data-text="." xlink:href="#font_3_1" transform="matrix(8.468244,0,0,-8.468244,37.34345,99.929958)"/>
<use data-text="5" xlink:href="#font_2_6" transform="matrix(8.468244,0,0,-8.468244,39.69625,99.929958)"/>
<use data-text="0" xlink:href="#font_2_3" transform="matrix(8.468244,0,0,-8.468244,33.109605,40.940805)"/>
<use data-text="." xlink:href="#font_3_1" transform="matrix(8.468244,0,0,-8.468244,37.343454,40.940805)"/>
<use data-text="5" xlink:href="#font_2_6" transform="matrix(8.468244,0,0,-8.468244,39.696256,40.940805)"/>
<use data-text="1" xlink:href="#font_2_4" transform="matrix(8.468244,0,0,-8.468244,39.69625,11.269852)"/>
<g clip-path="url(#clip_4)">
<path transform="matrix(.85,0,0,-.85,14.515001,139.0937)" stroke-width=".79701" stroke-linecap="butt" stroke-miterlimit="10" stroke-linejoin="miter" fill="none" stroke="#2471a3" d="M16.18073 131.95052 17.31908 129.41031 18.45741 126.89774 19.59575 124.4128 20.73409 121.9555 21.87244 119.52586 23.01079 117.12386 24.14912 114.74951 25.28746 112.4028 26.42581 110.08372 27.56416 107.7923 28.7025 105.5285 29.84084 103.29236 30.97917 101.08386 32.11754 98.90302 33.25587 96.74979 34.39421 94.62422 35.53255 92.5263 36.6709 90.45602 37.80925 88.41338 38.94759 86.39839 40.08592 84.41103 41.22426 82.45132 42.36261 80.51924 43.50096 78.61484 44.6393 76.73804 45.77763 74.88892 46.91599 73.06741 48.05432 71.27357 49.19267 69.50735 50.33101 67.7688 51.46936 66.05788 52.6077 64.3746 53.74603 62.71896 54.88438 61.09099 56.02274 59.49063 57.16107 57.91794 58.29941 56.37286 59.43774 54.85545 60.5761 53.36568 61.71445 51.90355 62.85278 50.46906 63.99112 49.06223 65.12947 47.683 66.26782 46.33145 67.40616 45.00754 68.5445 43.71126 69.68283 42.44264 70.8212 41.20166 71.95953 39.98831 73.09787 38.80261 74.2362 37.64456 75.37456 36.51414 76.51291 35.41138 77.65125 34.33626 78.78958 33.28877 79.92792 32.26892 81.06627 31.27673 82.20462 30.3122 83.34296 29.37527 84.4813 28.46602 85.61964 27.5844 86.75798 26.73041 87.89633 25.90407 89.03467 25.10538 90.17302 24.33434 91.31136 23.59093 92.44969 22.87515 93.58804 22.18704 94.7264 21.52655 95.86473 20.89372 97.00307 20.28854 98.14142 19.711 99.27977 19.16109 100.4181 18.63884 101.55644 18.14421 102.69478 17.67723 103.83313 17.23792 104.97148 16.82623 106.10982 16.44218 107.24815 16.08578 108.38649 15.75702 109.52486 15.4559 110.6632 15.18243 111.80153 14.9366 112.93987 14.71843 114.07822 14.52788 115.21657 14.36497 116.3549 14.22972 117.49324 14.12212 118.63159 14.04214 119.76993 13.98982 120.90828 13.96513 122.04662 13.96811 123.18495 13.9987 124.3233 14.05696 125.46164 14.14285 126.59999 14.2564 127.73833 14.39755 128.87668 14.56639 130.01502 14.76285 131.15335 14.98695 132.2917 15.23871 133.43006 15.5181 134.56839 15.82515 135.70673 16.15982 136.84508 16.52214 137.98343 16.91212 139.12177 17.32973 140.2601 17.77498 141.39844 18.24786 142.53679 18.74841 143.67514 19.2766 144.81348 19.83243 145.95182 20.4159 147.09015 21.02701 148.22852 21.66576 149.36685 22.33217 150.50519 23.02621 151.64353 23.7479 152.78188 24.49722 153.92023 25.2742 155.05857 26.07881 156.1969 26.91109 157.33525 27.77098 158.47359 28.65852 159.61194 29.57372 160.75028 30.51656 161.88861 31.48703 163.02696 32.48515 164.1653 33.5109 165.30365 34.5643 166.44199 35.64537 167.58034 36.75404 168.71868 37.8904 169.85703 39.05437 170.99536 40.24599 172.13372 41.46526 173.27205 42.71216 174.41039 43.98672 175.54874 45.28891 176.68709 46.61874 177.82543 47.97623 178.96376 49.36134 180.1021 50.77411 181.24047 52.21454 182.3788 53.68259 183.51714 55.17828 184.65547 56.70163 185.79381 58.25261 186.93218 59.83124 188.07051 61.43752 189.20885 63.07143 190.34719 64.73299 191.48554 66.42218 192.62389 68.13902 193.76222 69.8835 194.90056 71.65564 196.03891 73.45541 197.17725 75.28284 198.3156 77.1379 199.45394 79.02058 200.59229 80.93095 201.73062 82.86893 202.86896 84.83458 204.00731 86.82784 205.14565 88.84875 206.284 90.89732 207.42234 92.97353 208.56069 95.07738 209.69902 97.20888 210.83737 99.36801 211.97571 101.5548 213.11405 103.76921 214.2524 106.01128 215.39075 108.28098 216.52909 110.57834 217.66742 112.90334 218.80576 115.25597 219.94412 117.63626 221.08246 120.04417 222.2208 122.47975 223.35913 124.94295 224.49747 127.4338 225.63584 129.95232 226.77417 132.49846 227.9125 135.07225 229.05084 137.67368 230.1892 140.30275 231.32755 142.95946 232.46588 145.64382 233.60422 148.3558 234.74257 151.09545 235.8809 153.86275 237.01926 156.65767 238.1576 159.48026 239.29595 162.33048 240.43428 165.20833 241.57263 168.11383 242.71097 171.04698"/>
<path transform="matrix(.85,0,0,-.85,14.515001,139.0937)" stroke-width=".79701" stroke-linecap="butt" stroke-miterlimit="10" stroke-linejoin="miter" fill="none" stroke="#1b4f72" d="M16.18073 59.6919 17.31908 60.962 18.45741 62.21829 19.59575 63.46075 20.73409 64.6894 21.87244 65.90424 23.01079 67.10524 24.14912 68.2924 25.28746 69.46577 26.42581 70.6253 27.56416 71.77103 28.7025 72.90291 29.84084 74.02098 30.97917 75.12523 32.11754 76.21565 33.25587 77.29227 34.39421 78.35504 35.53255 79.40402 36.6709 80.43915 37.80925 81.46048 38.94759 82.46797 40.08592 83.46165 41.22426 84.44151 42.36261 85.40753 43.50096 86.35974 44.6393 87.29814 45.77763 88.22272 46.91599 89.13345 48.05432 90.03038 49.19267 90.91348 50.33101 91.78276 51.46936 92.63821 52.6077 93.47986 53.74603 94.30768 54.88438 95.12167 56.02274 95.92184 57.16107 96.7082 58.29941 97.48073 59.43774 98.23943 60.5761 98.98433 61.71445 99.7154 62.85278 100.43263 63.99112 101.13606 65.12947 101.82565 66.26782 102.50143 67.40616 103.1634 68.5445 103.81154 69.68283 104.44583 70.8212 105.06635 71.95953 105.673 73.09787 106.26585 74.2362 106.84488 75.37456 107.41008 76.51291 107.96147 77.65125 108.49904 78.78958 109.02278 79.92792 109.5327 81.06627 110.0288 82.20462 110.51108 83.34296 110.97952 84.4813 111.43416 85.61964 111.87497 86.75798 112.30196 87.89633 112.71512 89.03467 113.11447 90.17302 113.5 91.31136 113.8717 92.44969 114.22958 93.58804 114.57364 94.7264 114.90388 95.86473 115.2203 97.00307 115.5229 98.14142 115.81168 99.27977 116.08662 100.4181 116.34775 101.55644 116.59506 102.69478 116.82855 103.83313 117.0482 104.97148 117.25406 106.10982 117.44608 107.24815 117.62428 108.38649 117.78865 109.52486 117.93921 110.6632 118.07594 111.80153 118.19885 112.93987 118.30794 114.07822 118.40321 115.21657 118.48466 116.3549 118.5523 117.49324 118.6061 118.63159 118.64609 119.76993 118.67224 120.90828 118.68459 122.04662 118.68312 123.18495 118.6678 124.3233 118.63867 125.46164 118.59573 126.59999 118.53897 127.73833 118.46838 128.87668 118.38397 130.01502 118.28574 131.15335 118.17368 132.2917 118.0478 133.43006 117.90811 134.56839 117.7546 135.70673 117.58725 136.84508 117.40608 137.98343 117.2111 139.12177 117.0023 140.2601 116.77968 141.39844 116.54323 142.53679 116.29295 143.67514 116.02887 144.81348 115.75095 145.95182 115.45921 147.09015 115.15366 148.22852 114.83427 149.36685 114.50108 150.50519 114.15407 151.64353 113.79321 152.78188 113.41855 153.92023 113.03006 155.05857 112.62776 156.1969 112.21164 157.33525 111.78168 158.47359 111.3379 159.61194 110.88031 160.75028 110.40889 161.88861 109.92366 163.02696 109.42459 164.1653 108.91171 165.30365 108.38501 166.44199 107.84448 167.58034 107.29015 168.71868 106.72197 169.85703 106.13998 170.99536 105.54416 172.13372 104.93454 173.27205 104.31108 174.41039 103.67381 175.54874 103.0227 176.68709 102.35779 177.82543 101.67905 178.96376 100.9865 180.1021 100.2801 181.24047 99.55989 182.3788 98.82587 183.51714 98.07802 184.65547 97.31636 185.79381 96.54085 186.93218 95.75154 188.07051 94.94841 189.20885 94.13145 190.34719 93.30067 191.48554 92.45607 192.62389 91.59766 193.76222 90.72542 194.90056 89.83934 196.03891 88.93945 197.17725 88.02574 198.3156 87.09822 199.45394 86.15688 200.59229 85.2017 201.73062 84.2327 202.86896 83.2499 204.00731 82.25325 205.14565 81.24278 206.284 80.2185 207.42234 79.18039 208.56069 78.12848 209.69902 77.06273 210.83737 75.98315 211.97571 74.88977 213.11405 73.78255 214.2524 72.66153 215.39075 71.52667 216.52909 70.37799 217.66742 69.2155 218.80576 68.03918 219.94412 66.84903 221.08246 65.64507 222.2208 64.42728 223.35913 63.19568 224.49747 61.95026 225.63584 60.69101 226.77417 59.41794 227.9125 58.13106 229.05084 56.83032 230.1892 55.5158 231.32755 54.18742 232.46588 52.84526 233.60422 51.48926 234.74257 50.11945 235.8809 48.7358 237.01926 47.33833 238.1576 45.92703 239.29595 44.50192 240.43428 43.063 241.57263 41.61024 242.71097 40.14368"/>
<path transform="matrix(.85,0,0,-.85,14.515001,139.0937)" d="M40.45181 83.7781 41.26492 84.47624 42.07802 85.16733 42.89113 85.85135 43.70424 86.52834 44.51733 87.19826 45.33044 87.86113 46.14352 88.51695 46.95663 89.16573 47.76974 89.80745 48.58284 90.44211 49.39595 91.06972 50.20905 91.69028 51.02216 92.30379 51.83525 92.91026 52.64835 93.50966 53.46146 94.10202 54.27455 94.68732 55.08766 95.26558 55.90077 95.83678 56.71387 96.40092 57.52696 96.95801 58.34006 97.50807 59.15317 98.05106 59.96628 98.58699 60.77937 99.11589 61.59248 99.63773 62.40558 100.15251 63.21867 100.66025 64.03177 101.16092 64.84488 101.65456 65.65799 102.14113 66.47108 102.62065 67.2842 103.09314 68.0973 103.55856 68.9104 104.01694 69.7235 104.46825 70.53659 104.9125 71.3497 105.34972 72.1628 105.77989 72.9759 106.203 73.78902 106.61905 74.60211 107.02806 75.4152 107.43002 76.2283 107.82492 77.04141 108.21278 77.85452 108.59358 78.66762 108.96732 79.48073 109.33401 80.29382 109.69366 81.10692 110.04626 81.92003 110.3918 82.73312 110.73029 83.54623 111.06172 84.35933 111.38611 85.17244 111.70345 85.98555 112.01372 86.79863 112.31696 87.61174 112.61313 88.42484 112.90225 89.23795 113.18433 90.05106 113.45935 90.86415 113.72733 91.67726 113.98824 92.49036 114.24211 93.30345 114.48892 94.11656 114.72868 94.92966 114.9614 95.74277 115.18706 96.55586 115.40565 97.36897 115.61722 98.18208 115.82172 98.99516 116.01918 99.80827 116.20956 100.62137 116.39291 101.43448 116.56921 102.24759 116.73846 103.06068 116.90065 103.8738 117.0558 104.68687 117.20389 105.49998 117.34492 106.3131 117.47891 107.12619 117.60583 107.9393 117.72572 108.7524 117.83855 109.5655 117.94434 110.3786 118.04305 111.1917 118.13474 112.0048 118.21935 112.8179 118.29692 113.63101 118.36745 114.44412 118.43091 115.25722 118.48734 116.07033 118.53668 116.8834 118.579 117.69652 118.61424 118.50963 118.64247 119.32272 118.66362 120.13583 118.67772 120.94893 118.68477H121.76204L122.57513 118.67772 123.38823 118.66362 124.20134 118.64247 125.01443 118.61424 125.82755 118.579 126.64066 118.53668 127.45375 118.48734 128.26685 118.43091 129.07994 118.36745 129.89305 118.29692 130.70615 118.21935 131.51926 118.13474 132.33237 118.04305 133.14546 117.94434 133.95856 117.83855 134.77167 117.72572 135.58477 117.60583 136.39788 117.47891 137.21097 117.34492 138.02408 117.20389 138.83718 117.0558 139.65027 116.90065 140.46338 116.73846 141.27648 116.56921 142.08959 116.39291 142.90268 116.20956 143.71579 116.01918 144.5289 115.82172 145.342 115.61722 146.15509 115.40565 146.96819 115.18706 147.7813 114.9614 148.5944 114.72868 149.4075 114.48892 150.22061 114.24211 151.0337 113.98824 151.8468 113.72733 152.65991 113.45935 153.473 113.18433 154.28612 112.90225 155.09922 112.61313 155.91233 112.31696 156.72544 112.01372 157.53852 111.70345 158.35163 111.38611 159.16472 111.06172 159.97783 110.73029 160.79094 110.3918 161.60404 110.04626 162.41715 109.69366 163.23023 109.33401 164.04334 108.96732 164.85645 108.59358 165.66954 108.21278 166.48265 107.82492 167.29575 107.43002 168.10886 107.02806 168.92197 106.61905 169.73505 106.203 170.54816 105.77989 171.36125 105.34972 172.17436 104.9125 172.98748 104.46825 173.80057 104.01694 174.61368 103.55856 175.42676 103.09314 176.23987 102.62065 177.05298 102.14113 177.86608 101.65456 178.67919 101.16092 179.49228 100.66025 180.30539 100.15251 181.11849 99.63773 181.93158 99.11589 182.74469 98.58699 183.55779 98.05106 184.3709 97.50807 185.18399 96.95801 185.9971 96.40092 186.8102 95.83678 187.62329 95.26558 188.4364 94.68732 189.24951 94.10202 190.0626 93.50966 190.87572 92.91026 191.68881 92.30379 192.5019 91.69028 193.315 91.06972 194.12812 90.44211 194.94123 89.80745 195.75432 89.16573 196.56743 88.51695 197.38053 87.86113 198.19364 87.19826 199.00673 86.52834 199.81983 85.85135 200.63294 85.16733 201.44603 84.47624 202.25914 83.7781 202.25852 83.77809H40.45169Z" fill="#d2e6db" fill-opacity=".3"/>
<path transform="matrix(.85,0,0,-.85,14.515001,139.0937)" d="M40.45181 83.7781 41.26492 82.38184 42.07802 80.99968 42.89113 79.63162 43.70424 78.27766 44.51733 76.93782 45.33044 75.61206 46.14352 74.30042 46.95663 73.00287 47.76974 71.71945 48.58284 70.4501 49.39595 69.19489 50.20905 67.95375 51.02216 66.72673 51.83525 65.51381 52.64835 64.315 53.46146 63.13028 54.27455 61.95969 55.08766 60.80318 55.90077 59.66078 56.71387 58.53247 57.52696 57.41829 58.34006 56.3182 59.15317 55.23221 59.96628 54.16032 60.77937 53.10255 61.59248 52.05888 62.40558 51.02931 63.21867 50.01385 64.03177 49.01248 64.84488 48.02522 65.65799 47.05206 66.47108 46.09302 67.2842 45.14806 68.0973 44.21721 68.9104 43.30048 69.7235 42.39784 70.53659 41.50931 71.3497 40.63489 72.1628 39.77455 72.9759 38.92833 73.78902 38.0962 74.60211 37.2782 75.4152 36.47429 76.2283 35.68448 77.04141 34.90878 77.85452 34.14717 78.66762 33.39969 79.48073 32.66629 80.29382 31.94699 81.10692 31.2418 81.92003 30.55072 82.73312 29.87375 83.54623 29.21088 84.35933 28.5621 85.17244 27.92744 85.98555 27.30688 86.79863 26.70041 87.61174 26.10806 88.42484 25.52982 89.23795 24.96567 90.05106 24.41562 90.86415 23.87968 91.67726 23.35785 92.49036 22.8501 93.30345 22.35648 94.11656 21.87695 94.92966 21.41153 95.74277 20.9602 96.55586 20.523 97.36897 20.09988 98.18208 19.69087 98.99516 19.29597 99.80827 18.91518 100.62137 18.54848 101.43448 18.19588 102.24759 17.85739 103.06068 17.533 103.8738 17.22272 104.68687 16.92656 105.49998 16.64447 106.3131 16.37651 107.12619 16.12265 107.9393 15.88289 108.7524 15.65723 109.5655 15.44566 110.3786 15.24821 111.1917 15.06487 112.0048 14.89561 112.8179 14.74048 113.63101 14.59944 114.44412 14.4725 115.25722 14.35968 116.07033 14.26096 116.8834 14.17633 117.69652 14.10582 118.50963 14.04941 119.32272 14.00708 120.13583 13.97888 120.94893 13.96477H121.76204L122.57513 13.97888 123.38823 14.00708 124.20134 14.04941 125.01443 14.10582 125.82755 14.17633 126.64066 14.26096 127.45375 14.35968 128.26685 14.4725 129.07994 14.59944 129.89305 14.74048 130.70615 14.89561 131.51926 15.06487 132.33237 15.24821 133.14546 15.44566 133.95856 15.65723 134.77167 15.88289 135.58477 16.12265 136.39788 16.37651 137.21097 16.64447 138.02408 16.92656 138.83718 17.22272 139.65027 17.533 140.46338 17.85739 141.27648 18.19588 142.08959 18.54848 142.90268 18.91518 143.71579 19.29597 144.5289 19.69087 145.342 20.09988 146.15509 20.523 146.96819 20.9602 147.7813 21.41153 148.5944 21.87695 149.4075 22.35648 150.22061 22.8501 151.0337 23.35785 151.8468 23.87968 152.65991 24.41562 153.473 24.96567 154.28612 25.52982 155.09922 26.10806 155.91233 26.70041 156.72544 27.30688 157.53852 27.92744 158.35163 28.5621 159.16472 29.21088 159.97783 29.87375 160.79094 30.55072 161.60404 31.2418 162.41715 31.94699 163.23023 32.66629 164.04334 33.39969 164.85645 34.14717 165.66954 34.90878 166.48265 35.68448 167.29575 36.47429 168.10886 37.2782 168.92197 38.0962 169.73505 38.92833 170.54816 39.77455 171.36125 40.63489 172.17436 41.50931 172.98748 42.39784 173.80057 43.30048 174.61368 44.21721 175.42676 45.14806 176.23987 46.09302 177.05298 47.05206 177.86608 48.02522 178.67919 49.01248 179.49228 50.01385 180.30539 51.02931 181.11849 52.05888 181.93158 53.10255 182.74469 54.16032 183.55779 55.23221 184.3709 56.3182 185.18399 57.41829 185.9971 58.53247 186.8102 59.66078 187.62329 60.80318 188.4364 61.95969 189.24951 63.13028 190.0626 64.315 190.87572 65.51381 191.68881 66.72673 192.5019 67.95375 193.315 69.19489 194.12812 70.4501 194.94123 71.71945 195.75432 73.00287 196.56743 74.30042 197.38053 75.61206 198.19364 76.93782 199.00673 78.27766 199.81983 79.63162 200.63294 80.99968 201.44603 82.38184 202.25914 83.7781 202.25852 83.77809H40.45169Z" fill="#ffffff" fill-opacity=".3"/>
<path transform="matrix(.85,0,0,-.85,14.515001,139.0937)" stroke-width=".79701" stroke-linecap="butt" stroke-miterlimit="10" stroke-linejoin="miter" fill="none" stroke="#2471a3" d="M16.18073 131.95052 17.31908 129.41031 18.45741 126.89774 19.59575 124.4128 20.73409 121.9555 21.87244 119.52586 23.01079 117.12386 24.14912 114.74951 25.28746 112.4028 26.42581 110.08372 27.56416 107.7923 28.7025 105.5285 29.84084 103.29236 30.97917 101.08386 32.11754 98.90302 33.25587 96.74979 34.39421 94.62422 35.53255 92.5263 36.6709 90.45602 37.80925 88.41338 38.94759 86.39839 40.08592 84.41103 41.22426 82.45132 42.36261 80.51924 43.50096 78.61484 44.6393 76.73804 45.77763 74.88892 46.91599 73.06741 48.05432 71.27357 49.19267 69.50735 50.33101 67.7688 51.46936 66.05788 52.6077 64.3746 53.74603 62.71896 54.88438 61.09099 56.02274 59.49063 57.16107 57.91794 58.29941 56.37286 59.43774 54.85545 60.5761 53.36568 61.71445 51.90355 62.85278 50.46906 63.99112 49.06223 65.12947 47.683 66.26782 46.33145 67.40616 45.00754 68.5445 43.71126 69.68283 42.44264 70.8212 41.20166 71.95953 39.98831 73.09787 38.80261 74.2362 37.64456 75.37456 36.51414 76.51291 35.41138 77.65125 34.33626 78.78958 33.28877 79.92792 32.26892 81.06627 31.27673 82.20462 30.3122 83.34296 29.37527 84.4813 28.46602 85.61964 27.5844 86.75798 26.73041 87.89633 25.90407 89.03467 25.10538 90.17302 24.33434 91.31136 23.59093 92.44969 22.87515 93.58804 22.18704 94.7264 21.52655 95.86473 20.89372 97.00307 20.28854 98.14142 19.711 99.27977 19.16109 100.4181 18.63884 101.55644 18.14421 102.69478 17.67723 103.83313 17.23792 104.97148 16.82623 106.10982 16.44218 107.24815 16.08578 108.38649 15.75702 109.52486 15.4559 110.6632 15.18243 111.80153 14.9366 112.93987 14.71843 114.07822 14.52788 115.21657 14.36497 116.3549 14.22972 117.49324 14.12212 118.63159 14.04214 119.76993 13.98982 120.90828 13.96513 122.04662 13.96811 123.18495 13.9987 124.3233 14.05696 125.46164 14.14285 126.59999 14.2564 127.73833 14.39755 128.87668 14.56639 130.01502 14.76285 131.15335 14.98695 132.2917 15.23871 133.43006 15.5181 134.56839 15.82515 135.70673 16.15982 136.84508 16.52214 137.98343 16.91212 139.12177 17.32973 140.2601 17.77498 141.39844 18.24786 142.53679 18.74841 143.67514 19.2766 144.81348 19.83243 145.95182 20.4159 147.09015 21.02701 148.22852 21.66576 149.36685 22.33217 150.50519 23.02621 151.64353 23.7479 152.78188 24.49722 153.92023 25.2742 155.05857 26.07881 156.1969 26.91109 157.33525 27.77098 158.47359 28.65852 159.61194 29.57372 160.75028 30.51656 161.88861 31.48703 163.02696 32.48515 164.1653 33.5109 165.30365 34.5643 166.44199 35.64537 167.58034 36.75404 168.71868 37.8904 169.85703 39.05437 170.99536 40.24599 172.13372 41.46526 173.27205 42.71216 174.41039 43.98672 175.54874 45.28891 176.68709 46.61874 177.82543 47.97623 178.96376 49.36134 180.1021 50.77411 181.24047 52.21454 182.3788 53.68259 183.51714 55.17828 184.65547 56.70163 185.79381 58.25261 186.93218 59.83124 188.07051 61.43752 189.20885 63.07143 190.34719 64.73299 191.48554 66.42218 192.62389 68.13902 193.76222 69.8835 194.90056 71.65564 196.03891 73.45541 197.17725 75.28284 198.3156 77.1379 199.45394 79.02058 200.59229 80.93095 201.73062 82.86893 202.86896 84.83458 204.00731 86.82784 205.14565 88.84875 206.284 90.89732 207.42234 92.97353 208.56069 95.07738 209.69902 97.20888 210.83737 99.36801 211.97571 101.5548 213.11405 103.76921 214.2524 106.01128 215.39075 108.28098 216.52909 110.57834 217.66742 112.90334 218.80576 115.25597 219.94412 117.63626 221.08246 120.04417 222.2208 122.47975 223.35913 124.94295 224.49747 127.4338 225.63584 129.95232 226.77417 132.49846 227.9125 135.07225 229.05084 137.67368 230.1892 140.30275 231.32755 142.95946 232.46588 145.64382 233.60422 148.3558 234.74257 151.09545 235.8809 153.86275 237.01926 156.65767 238.1576 159.48026 239.29595 162.33048 240.43428 165.20833 241.57263 168.11383 242.71097 171.04698"/>
<path transform="matrix(.85,0,0,-.85,14.515001,139.0937)" stroke-width=".79701" stroke-linecap="butt" stroke-miterlimit="10" stroke-linejoin="miter" fill="none" stroke="#1b4f72" d="M16.18073 59.6919 17.31908 60.962 18.45741 62.21829 19.59575 63.46075 20.73409 64.6894 21.87244 65.90424 23.01079 67.10524 24.14912 68.2924 25.28746 69.46577 26.42581 70.6253 27.56416 71.77103 28.7025 72.90291 29.84084 74.02098 30.97917 75.12523 32.11754 76.21565 33.25587 77.29227 34.39421 78.35504 35.53255 79.40402 36.6709 80.43915 37.80925 81.46048 38.94759 82.46797 40.08592 83.46165 41.22426 84.44151 42.36261 85.40753 43.50096 86.35974 44.6393 87.29814 45.77763 88.22272 46.91599 89.13345 48.05432 90.03038 49.19267 90.91348 50.33101 91.78276 51.46936 92.63821 52.6077 93.47986 53.74603 94.30768 54.88438 95.12167 56.02274 95.92184 57.16107 96.7082 58.29941 97.48073 59.43774 98.23943 60.5761 98.98433 61.71445 99.7154 62.85278 100.43263 63.99112 101.13606 65.12947 101.82565 66.26782 102.50143 67.40616 103.1634 68.5445 103.81154 69.68283 104.44583 70.8212 105.06635 71.95953 105.673 73.09787 106.26585 74.2362 106.84488 75.37456 107.41008 76.51291 107.96147 77.65125 108.49904 78.78958 109.02278 79.92792 109.5327 81.06627 110.0288 82.20462 110.51108 83.34296 110.97952 84.4813 111.43416 85.61964 111.87497 86.75798 112.30196 87.89633 112.71512 89.03467 113.11447 90.17302 113.5 91.31136 113.8717 92.44969 114.22958 93.58804 114.57364 94.7264 114.90388 95.86473 115.2203 97.00307 115.5229 98.14142 115.81168 99.27977 116.08662 100.4181 116.34775 101.55644 116.59506 102.69478 116.82855 103.83313 117.0482 104.97148 117.25406 106.10982 117.44608 107.24815 117.62428 108.38649 117.78865 109.52486 117.93921 110.6632 118.07594 111.80153 118.19885 112.93987 118.30794 114.07822 118.40321 115.21657 118.48466 116.3549 118.5523 117.49324 118.6061 118.63159 118.64609 119.76993 118.67224 120.90828 118.68459 122.04662 118.68312 123.18495 118.6678 124.3233 118.63867 125.46164 118.59573 126.59999 118.53897 127.73833 118.46838 128.87668 118.38397 130.01502 118.28574 131.15335 118.17368 132.2917 118.0478 133.43006 117.90811 134.56839 117.7546 135.70673 117.58725 136.84508 117.40608 137.98343 117.2111 139.12177 117.0023 140.2601 116.77968 141.39844 116.54323 142.53679 116.29295 143.67514 116.02887 144.81348 115.75095 145.95182 115.45921 147.09015 115.15366 148.22852 114.83427 149.36685 114.50108 150.50519 114.15407 151.64353 113.79321 152.78188 113.41855 153.92023 113.03006 155.05857 112.62776 156.1969 112.21164 157.33525 111.78168 158.47359 111.3379 159.61194 110.88031 160.75028 110.40889 161.88861 109.92366 163.02696 109.42459 164.1653 108.91171 165.30365 108.38501 166.44199 107.84448 167.58034 107.29015 168.71868 106.72197 169.85703 106.13998 170.99536 105.54416 172.13372 104.93454 173.27205 104.31108 174.41039 103.67381 175.54874 103.0227 176.68709 102.35779 177.82543 101.67905 178.96376 100.9865 180.1021 100.2801 181.24047 99.55989 182.3788 98.82587 183.51714 98.07802 184.65547 97.31636 185.79381 96.54085 186.93218 95.75154 188.07051 94.94841 189.20885 94.13145 190.34719 93.30067 191.48554 92.45607 192.62389 91.59766 193.76222 90.72542 194.90056 89.83934 196.03891 88.93945 197.17725 88.02574 198.3156 87.09822 199.45394 86.15688 200.59229 85.2017 201.73062 84.2327 202.86896 83.2499 204.00731 82.25325 205.14565 81.24278 206.284 80.2185 207.42234 79.18039 208.56069 78.12848 209.69902 77.06273 210.83737 75.98315 211.97571 74.88977 213.11405 73.78255 214.2524 72.66153 215.39075 71.52667 216.52909 70.37799 217.66742 69.2155 218.80576 68.03918 219.94412 66.84903 221.08246 65.64507 222.2208 64.42728 223.35913 63.19568 224.49747 61.95026 225.63584 60.69101 226.77417 59.41794 227.9125 58.13106 229.05084 56.83032 230.1892 55.5158 231.32755 54.18742 232.46588 52.84526 233.60422 51.48926 234.74257 50.11945 235.8809 48.7358 237.01926 47.33833 238.1576 45.92703 239.29595 44.50192 240.43428 43.063 241.57263 41.61024 242.71097 40.14368"/>
<use data-text="O" xlink:href="#font_5_3" transform="matrix(7.6214234,0,0,-7.6214234,39.559404,64.7221)"/>
<use data-text="A" xlink:href="#font_5_2" transform="matrix(7.6214234,0,0,-7.6214234,189.59377,62.816408)"/>
<use data-text="(" xlink:href="#font_6_1" transform="matrix(7.6214234,0,0,-7.6214234,195.46727,62.816408)"/>
<use data-text="2" xlink:href="#font_6_5" transform="matrix(7.6214234,0,0,-7.6214234,198.51584,62.816408)"/>
<use data-text="," xlink:href="#font_5_1" transform="matrix(7.6214234,0,0,-7.6214234,202.42963,62.816408)"/>
<use data-text="0" xlink:href="#font_6_3" transform="matrix(7.6214234,0,0,-7.6214234,205.91121,62.816408)"/>
<use data-text=")" xlink:href="#font_6_2" transform="matrix(7.6214234,0,0,-7.6214234,209.82863,62.816408)"/>
<use data-text="m" xlink:href="#font_7_75" transform="matrix(7.6214234,0,0,-7.6214234,98.081058,136.10256)"/>
<use data-text="i" xlink:href="#font_7_66" transform="matrix(7.6214234,0,0,-7.6214234,104.604999,136.10256)"/>
<use data-text="n" xlink:href="#font_7_77" transform="matrix(7.6214234,0,0,-7.6214234,106.78472,136.10256)"/>
<use data-text="(" xlink:href="#font_6_1" transform="matrix(7.6214234,0,0,-7.6214234,113.7508,136.10256)"/>
<use data-text="1" xlink:href="#font_6_4" transform="matrix(7.6214234,0,0,-7.6214234,116.79936,136.10256)"/>
<use data-text="," xlink:href="#font_5_1" transform="matrix(7.6214234,0,0,-7.6214234,120.71316,136.10256)"/>
<use data-text="&#x2212;" xlink:href="#font_8_1" transform="matrix(7.6214234,0,0,-7.6214234,124.194759,136.10256)"/>
<use data-text="1" xlink:href="#font_6_4" transform="matrix(7.6214234,0,0,-7.6214234,130.28672,136.10256)"/>
<use data-text=")" xlink:href="#font_6_2" transform="matrix(7.6214234,0,0,-7.6214234,134.20412,136.10256)"/>
<use data-text="m" xlink:href="#font_7_75" transform="matrix(7.6214234,0,0,-7.6214234,99.7581,32.464609)"/>
<use data-text="a" xlink:href="#font_7_28" transform="matrix(7.6214234,0,0,-7.6214234,106.28204,32.464609)"/>
<use data-text="x" xlink:href="#font_7_116" transform="matrix(7.6214234,0,0,-7.6214234,110.199459,32.464609)"/>
<use data-text="(" xlink:href="#font_6_1" transform="matrix(7.6214234,0,0,-7.6214234,116.94425,32.464609)"/>
<use data-text="1" xlink:href="#font_6_4" transform="matrix(7.6214234,0,0,-7.6214234,119.99282,32.464609)"/>
<use data-text="," xlink:href="#font_5_1" transform="matrix(7.6214234,0,0,-7.6214234,123.907459,32.464609)"/>
<use data-text="1" xlink:href="#font_9_1" transform="matrix(5.080943,0,0,-5.080943,128.40482,29.341698)"/>
<path transform="matrix(.85,0,0,-.85,128.40482,30.558907)" stroke-width=".379" stroke-linecap="butt" stroke-miterlimit="10" stroke-linejoin="miter" fill="none" stroke="#000000" d="M0 0H3.653"/>
<use data-text="2" xlink:href="#font_9_2" transform="matrix(5.080943,0,0,-5.080943,128.40482,35.051156)"/>
<use data-text=")" xlink:href="#font_6_2" transform="matrix(7.6214234,0,0,-7.6214234,132.52646,32.464609)"/>
</g>
<path transform="matrix(.85,0,0,-.85,14.515001,139.0937)" d="M42.9425 83.7781C42.9425 85.15369 41.8274 86.2688 40.45181 86.2688 39.07623 86.2688 37.96112 85.15369 37.96112 83.7781 37.96112 82.40253 39.07623 81.28741 40.45181 81.28741 41.8274 81.28741 42.9425 82.40253 42.9425 83.7781ZM40.45181 83.7781"/>
<path transform="matrix(.85,0,0,-.85,14.515001,139.0937)" stroke-width=".79701" stroke-linecap="butt" stroke-miterlimit="10" stroke-linejoin="miter" fill="none" stroke="#000000" d="M42.9425 83.7781C42.9425 85.15369 41.8274 86.2688 40.45181 86.2688 39.07623 86.2688 37.96112 85.15369 37.96112 83.7781 37.96112 82.40253 39.07623 81.28741 40.45181 81.28741 41.8274 81.28741 42.9425 82.40253 42.9425 83.7781ZM40.45181 83.7781"/>
<path transform="matrix(.85,0,0,-.85,14.515001,139.0937)" d="M204.74983 83.7781C204.74983 85.15369 203.63472 86.2688 202.25914 86.2688 200.88356 86.2688 199.76845 85.15369 199.76845 83.7781 199.76845 82.40253 200.88356 81.28741 202.25914 81.28741 203.63472 81.28741 204.74983 82.40253 204.74983 83.7781ZM202.25914 83.7781"/>
<path transform="matrix(.85,0,0,-.85,14.515001,139.0937)" stroke-width=".79701" stroke-linecap="butt" stroke-miterlimit="10" stroke-linejoin="miter" fill="none" stroke="#000000" d="M204.74983 83.7781C204.74983 85.15369 203.63472 86.2688 202.25914 86.2688 200.88356 86.2688 199.76845 85.15369 199.76845 83.7781 199.76845 82.40253 200.88356 81.28741 202.25914 81.28741 203.63472 81.28741 204.74983 82.40253 204.74983 83.7781ZM202.25914 83.7781"/>
<path transform="matrix(.85,0,0,-.85,14.515001,139.0937)" d="M123.84618 13.96301C123.84618 15.3386 122.73106 16.4537 121.35548 16.4537 119.9799 16.4537 118.86479 15.3386 118.86479 13.96301 118.86479 12.58743 119.9799 11.47232 121.35548 11.47232 122.73106 11.47232 123.84618 12.58743 123.84618 13.96301ZM121.35548 13.96301"/>
<path transform="matrix(.85,0,0,-.85,14.515001,139.0937)" stroke-width=".79701" stroke-linecap="butt" stroke-miterlimit="10" stroke-linejoin="miter" fill="none" stroke="#000000" d="M123.84618 13.96301C123.84618 15.3386 122.73106 16.4537 121.35548 16.4537 119.9799 16.4537 118.86479 15.3386 118.86479 13.96301 118.86479 12.58743 119.9799 11.47232 121.35548 11.47232 122.73106 11.47232 123.84618 12.58743 123.84618 13.96301ZM121.35548 13.96301"/>
<path transform="matrix(.85,0,0,-.85,14.515001,139.0937)" d="M123.84618 118.68565C123.84618 120.06123 122.73106 121.17635 121.35548 121.17635 119.9799 121.17635 118.86479 120.06123 118.86479 118.68565 118.86479 117.31007 119.9799 116.19496 121.35548 116.19496 122.73106 116.19496 123.84618 117.31007 123.84618 118.68565ZM121.35548 118.68565"/>
<path transform="matrix(.85,0,0,-.85,14.515001,139.0937)" stroke-width=".79701" stroke-linecap="butt" stroke-miterlimit="10" stroke-linejoin="miter" fill="none" stroke="#000000" d="M123.84618 118.68565C123.84618 120.06123 122.73106 121.17635 121.35548 121.17635 119.9799 121.17635 118.86479 120.06123 118.86479 118.68565 118.86479 117.31007 119.9799 116.19496 121.35548 116.19496 122.73106 116.19496 123.84618 117.31007 123.84618 118.68565ZM121.35548 118.68565"/>
<path transform="matrix(.85,0,0,-.85,14.515001,139.0937)" stroke-width=".79701" stroke-linecap="butt" stroke-miterlimit="10" stroke-linejoin="miter" fill="none" stroke="#000000" d=""/>
<use data-text="x" xlink:href="#font_3_4" transform="matrix(8.468244,0,0,-8.468244,233.44525,64.7221)"/>
<use data-text="y" xlink:href="#font_3_5" transform="matrix(8.468244,0,0,-8.468244,52.0595,15.348152)"/>
<path transform="matrix(.85,0,0,-.85,14.515001,139.0937)" d="M165.11371 5.00609H258.5736V38.19924H165.11371Z" fill="#ffffff"/>
<path transform="matrix(.85,0,0,-.85,14.515001,139.0937)" stroke-width=".79701" stroke-linecap="butt" stroke-miterlimit="10" stroke-linejoin="miter" fill="none" stroke="#000000" d="M165.11371 5.00609H258.5736V38.19924H165.11371Z"/>
<path transform="matrix(.85,0,0,-.85,157.73917,114.093509)" stroke-width=".79701" stroke-linecap="butt" stroke-miterlimit="10" stroke-linejoin="miter" fill="none" stroke="#2471a3" d="M0 0H8.50412 17.00826"/>
<use data-text="f" xlink:href="#font_3_2" transform="matrix(8.468244,0,0,-8.468244,174.22834,116.905307)"/>
<use data-text="(" xlink:href="#font_2_1" transform="matrix(8.468244,0,0,-8.468244,179.28585,116.905307)"/>
<use data-text="x" xlink:href="#font_3_4" transform="matrix(8.468244,0,0,-8.468244,182.57874,116.905307)"/>
<use data-text=")" xlink:href="#font_2_2" transform="matrix(8.468244,0,0,-8.468244,187.41863,116.905307)"/>
<use data-text="=" xlink:href="#font_2_7" transform="matrix(8.468244,0,0,-8.468244,193.05849,116.905307)"/>
<use data-text="x" xlink:href="#font_3_4" transform="matrix(8.468244,0,0,-8.468244,202.00293,116.905307)"/>
<use data-text="2" xlink:href="#font_10_1" transform="matrix(5.9277727,0,0,-5.9277727,206.84284,113.83171)"/>
<use data-text="&#x2212;" xlink:href="#font_1_1" transform="matrix(8.468244,0,0,-8.468244,212.52339,116.905307)"/>
<use data-text="2" xlink:href="#font_2_5" transform="matrix(8.468244,0,0,-8.468244,220.99109,116.905307)"/>
<use data-text="x" xlink:href="#font_3_4" transform="matrix(8.468244,0,0,-8.468244,225.22579,116.905307)"/>
<path transform="matrix(.85,0,0,-.85,157.73917,126.506908)" stroke-width=".79701" stroke-linecap="butt" stroke-miterlimit="10" stroke-linejoin="miter" fill="none" stroke="#1b4f72" d="M0 0H8.50412 17.00826"/>
<use data-text="g" xlink:href="#font_3_3" transform="matrix(8.468244,0,0,-8.468244,176.43323,130.1806)"/>
<use data-text="(" xlink:href="#font_2_1" transform="matrix(8.468244,0,0,-8.468244,180.77588,130.1806)"/>
<use data-text="x" xlink:href="#font_3_4" transform="matrix(8.468244,0,0,-8.468244,184.06879,130.1806)"/>
<use data-text=")" xlink:href="#font_2_2" transform="matrix(8.468244,0,0,-8.468244,188.90869,130.1806)"/>
<use data-text="=" xlink:href="#font_2_7" transform="matrix(8.468244,0,0,-8.468244,194.54854,130.1806)"/>
<use data-text="x" xlink:href="#font_3_4" transform="matrix(8.468244,0,0,-8.468244,203.493,130.1806)"/>
<use data-text="&#x2212;" xlink:href="#font_1_1" transform="matrix(8.468244,0,0,-8.468244,210.21479,130.1806)"/>
<use data-text="x" xlink:href="#font_11_1" transform="matrix(5.9277727,0,0,-5.9277727,219.69908,126.84691)"/>
<use data-text="2" xlink:href="#font_12_1" transform="matrix(4.234122,0,0,-4.234122,223.53939,124.290958)"/>
<path transform="matrix(.85,0,0,-.85,219.69908,128.0641)" stroke-width=".398" stroke-linecap="butt" stroke-miterlimit="10" stroke-linejoin="miter" fill="none" stroke="#000000" d="M0 0H8.406"/>
<use data-text="2" xlink:href="#font_10_1" transform="matrix(5.9277727,0,0,-5.9277727,221.58353,133.10121)"/>
</svg>
