<svg xmlns="http://www.w3.org/2000/svg" xmlns:xlink="http://www.w3.org/1999/xlink" xmlns:inkscape="http://www.inkscape.org/namespaces/inkscape" version="1.1" width="159.568" height="100.055" viewBox="0 0 159.568 100.055">
<defs>
<path id="font_1_1" d="M.20599365 .11984253C.17098999 .06594849 .13899231 .039978029 .07998657 .035995485 .069992069 .034988405 .056991579 .034988405 .056991579 .01499939 .056991579 .0039978029 .06599426 0 .070999149 0 .09700012 0 .12998963 .0039978029 .15699768 .0039978029 .18899536 .0039978029 .22999573 0 .2599945 0 .2649994 0 .27999879 0 .27999879 .021987915 .27999879 .034988405 .2669983 .035995485 .2630005 .035995485 .25498963 .036987306 .21899414 .038986207 .21899414 .06594849 .21899414 .077926639 .22898865 .09489441 .23399353 .103881839L.31399537 .22766114H.59999087L.6239929 .061950685C.6199951 .051971437 .6139984 .035995485 .5549927 .035995485 .54299929 .035995485 .5289917 .035995485 .5289917 .01399231 .5289917 .009994507 .5319977 0 .54499819 0 .57398989 0 .644989 .0039978029 .673996 .0039978029 .69200137 .0039978029 .71499636 .0029907227 .73298647 .0029907227 .7509918 .0019989014 .7719879 0 .7899933 0 .8029938 0 .80999758 .0079956059 .80999758 .020996094 .80999758 .035995485 .7979889 .035995485 .7819977 .035995485 .723999 .035995485 .7220001 .04397583 .71899417 .06793213L.6309967 .6848755C.6279907 .70588687 .6259918 .7128906 .6069946 .7128906 .58799746 .7128906 .58200076 .70388796 .57299807 .6898804L.20599365 .11984253M.33799745 .26367188 .5479889 .5908356 .59498599 .26367188H.33799745Z"/>
<path id="font_1_2" d="M.18998719 .07797241C.18099976 .04399109 .1789856 .035995485 .101989749 .035995485 .084991458 .035995485 .07199097 .035995485 .07199097 .01499939 .07199097 0 .083999637 0 .101989749 0H.4889984C.6569977 0 .7859955 .11494446 .7859955 .21388245 .7859955 .28485108 .72099307 .34580995 .61499026 .35681153 .73599246 .37879945 .83699038 .4547577 .83699038 .54067996 .83699038 .6166382 .7599945 .6826172 .6299896 .6826172H.2659912C.24699402 .6826172 .23399353 .6826172 .23399353 .660614 .23399353 .64660647 .24598694 .64660647 .2659912 .64660647 .2669983 .64660647 .28599549 .64660647 .3039856 .64460757 .32499696 .64260867 .32699586 .64060977 .32699586 .63061526 .32699586 .62861636 .32699586 .6236267 .32299806 .6086426L.18998719 .07797241M.34999085 .3688202 .41099549 .6126404C.4189911 .6436157 .41999818 .64660647 .46199037 .64660647H.6139984C.71598818 .64660647 .7389984 .57966616 .7389984 .541687 .7389984 .46073915 .647995 .3688202 .5139923 .3688202H.34999085M.3019867 .035995485C.2709961 .035995485 .269989 .036987306 .269989 .04598999 .269989 .04698181 .269989 .051986696 .27398683 .066970828L.34298707 .3408203H.5549927C.6489868 .3408203 .68499758 .27885438 .68499758 .22088623 .68499758 .12194824 .58399966 .035995485 .46299745 .035995485H.3019867Z"/>
<path id="font_1_3" d="M.84298709 .6901245C.84298709 .69511416 .83999636 .703125 .8299866 .703125 .82299807 .703125 .82099917 .70111086 .81199648 .69111636L.7389984 .61413577C.7299957 .62612918 .673996 .703125 .5509949 .703125 .30799867 .703125 .069992069 .48820497 .069992069 .2623291 .069992069 .09941101 .19799805-.01953125 .3769989-.01953125 .43099977-.01953125 .5269928-.008544922 .6299896 .078430179 .70899966 .14538574 .73098757 .23234558 .73098757 .24034119 .73098757 .25334168 .71899417 .25334168 .71398928 .25334168 .70098879 .25334168 .69898989 .24833679 .69599917 .23735047 .6549988 .10041809 .5149994 .016464234 .3939972 .016464234 .28799439 .016464234 .16999817 .07342529 .16999817 .23135376 .16999817 .2603302 .1769867 .4182434 .2919922 .5441742 .36099244 .6211395 .46598817 .66711428 .5609894 .66711428 .6769867 .66711428 .7449951 .5831604 .7449951 .47122193 .7449951 .4432373 .74198916 .43623353 .74198916 .43023683 .74198916 .4172516 .7549896 .4172516 .7599945 .4172516 .776001 .4172516 .776001 .4202423 .7809906 .4392395L.84298709 .6901245Z"/>
<path id="font_1_4" d="M1.0209961 .6016388C1.0299988 .63861086 1.0319977 .64660647 1.1059876 .64660647 1.1269989 .64660647 1.1399994 .64660647 1.1399994 .66760256 1.1399994 .6826172 1.1279907 .6826172 1.1100006 .6826172H.973999C.94499209 .6826172 .94400027 .6816101 .93099978 .6626129L.54499819 .09295654 .44599916 .65560916C.44099427 .6816101 .44099427 .6826172 .41099549 .6826172H.2679901C.24798584 .6826172 .23498535 .6826172 .23498535 .660614 .23498535 .64660647 .24699402 .64660647 .2689972 .64660647 .2849884 .64660647 .2889862 .64660647 .30699159 .64460757 .32699586 .64260867 .32899476 .64060977 .32899476 .63061526 .32899476 .6296234 .32899476 .6236267 .32499696 .6086426L.19898987 .10694885C.18998719 .07296753 .1749878 .038986207 .09498596 .035995485 .08699036 .035995485 .07398987 .034988405 .07398987 .01399231 .07398987 .0129852299 .07499695 0 .08898926 0 .11898804 0 .16099549 .0039978029 .19299317 .0039978029 .21699524 .0039978029 .2749939 0 .29899598 0 .3039856 0 .31900025 0 .31900025 .021987915 .31900025 .034988405 .30599977 .035995485 .29699708 .035995485 .23298645 .037994386 .23298645 .0639801 .23298645 .07797241 .23298645 .081970218 .23298645 .08695984 .23699951 .10295105L.36999513 .63461306H.37098695L.47799684 .026992798C.48098756 .008987427 .48298646 0 .49798585 0 .5119934 0 .519989 .010986328 .5269928 .021987915L.94699099 .64460757 .94799807 .6436157 .8069916 .07797241C.798996 .04399109 .7969971 .035995485 .71899417 .035995485 .70098879 .035995485 .68899539 .035995485 .68899539 .01399231 .68899539 .0129852299 .68899539 0 .7049866 0 .723999 0 .746994 .0029907227 .7669983 .0029907227 .7869873 .0029907227 .80999758 .0039978029 .8299866 .0039978029 .8580017 .0039978029 .92900088 0 .95700076 0 .96299746 0 .9779968 0 .9779968 .021987915 .9779968 .035995485 .96598818 .035995485 .94599917 .035995485 .94499209 .035995485 .9259949 .035995485 .9079895 .037994386 .8849945 .039993287 .8849945 .04298401 .8849945 .052978517 .8849945 .05897522 .8880005 .06896973 .8889923 .07496643L1.0209961 .6016388Z"/>
</defs>
<path transform="matrix(1,0,0,-1,15.821,85.46)" stroke-width=".79701" stroke-linecap="butt" stroke-miterlimit="10" stroke-linejoin="miter" fill="none" stroke="#2471a3" d="M0 0H127.56062L34.01608 70.867Z"/>
<path transform="matrix(1,0,0,-1,15.821,85.46)" stroke-width=".79701" stroke-linecap="butt" stroke-miterlimit="10" stroke-linejoin="miter" fill="none" stroke="#b30000" d="M34.01608 70.867 63.7803 0"/>
<path transform="matrix(1,0,0,-1,15.821,85.46)" d="M65.27472 0C65.27472 .82533 64.60565 1.49442 63.7803 1.49442 62.95496 1.49442 62.28589 .82533 62.28589 0 62.28589-.82533 62.95496-1.49442 63.7803-1.49442 64.60565-1.49442 65.27472-.82533 65.27472 0ZM63.7803 0"/>
<use data-text="A" xlink:href="#font_1_1" transform="matrix(6.97385,0,0,-6.97385,6.309,93.746)"/>
<use data-text="B" xlink:href="#font_1_2" transform="matrix(6.97385,0,0,-6.97385,146.899,93.746)"/>
<use data-text="C" xlink:href="#font_1_3" transform="matrix(6.97385,0,0,-6.97385,46.735,11.074997)"/>
<use data-text="M" xlink:href="#font_1_4" transform="matrix(6.97385,0,0,-6.97385,75.427,93.746)"/>
</svg>
