<svg xmlns="http://www.w3.org/2000/svg" xmlns:xlink="http://www.w3.org/1999/xlink" xmlns:inkscape="http://www.inkscape.org/namespaces/inkscape" version="1.1" width="249.451" height="283.781" viewBox="0 0 249.451 283.781">
<defs>
<path id="font_1_1" d="M.33399964 .30233766C.33999635 .32835389 .36299134 .42037965 .43299867 .42037965 .43798829 .42037965 .46199037 .42037965 .48298646 .40734864 .45498658 .402359 .43499757 .37734986 .43499757 .35334779 .43499757 .33735658 .44599916 .31835938 .47299195 .31835938 .49499513 .31835938 .5269928 .3363495 .5269928 .37635804 .5269928 .42837525 .46798707 .4423828 .43399049 .4423828 .37599183 .4423828 .34098817 .38935853 .32899476 .36634828 .3039856 .43237306 .25 .4423828 .22099304 .4423828 .116989139 .4423828 .05999756 .3133545 .05999756 .28834535 .05999756 .27833558 .069992069 .27833558 .07199097 .27833558 .07998657 .27833558 .08299255 .28033448 .084991458 .28933717 .11898804 .39535523 .18499756 .42037965 .21899414 .42037965 .23799134 .42037965 .272995 .4113617 .272995 .35334779 .272995 .32235719 .2559967 .25532533 .21899414 .11528015 .20298767 .053268434 .16799927 .011245728 .12399292 .011245728 .117996219 .011245728 .09498596 .011245728 .07398987 .024276734 .09899902 .029266358 .12098694 .05027771 .12098694 .07827759 .12098694 .105270389 .09899902 .11328125 .083999637 .11328125 .053985597 .11328125 .0289917 .08728027 .0289917 .055267335 .0289917 .009246826 .07899475-.0107421879 .12298584-.0107421879 .18899536-.0107421879 .22499085 .059280397 .22799683 .0652771 .23999024 .028274537 .27598573-.0107421879 .33599855-.0107421879 .43899537-.0107421879 .49598695 .118270877 .49598695 .14328003 .49598695 .1532898 .4869995 .1532898 .48399354 .1532898 .47499085 .1532898 .47299195 .14929199 .47099305 .14228821 .43798829 .03527832 .36999513 .011245728 .33799745 .011245728 .29899598 .011245728 .2829895 .043273927 .2829895 .07727051 .2829895 .09927368 .2889862 .121276859 .2999878 .16529846L.33399964 .30233766Z"/>
<path id="font_1_2" d="M.48599244 .38136292C.48999024 .39537049 .48999024 .39736939 .48999024 .40437318 .48999024 .42237855 .47599793 .43138124 .46099855 .43138124 .45098878 .43138124 .43499757 .42536927 .42599488 .41036988 .42399598 .405365 .41600038 .37435914 .4119873 .35635377 .40499879 .33035279 .397995 .30334474 .3919983 .27633668L.34700013 .09628296C.34298707 .08126831 .2999878 .011245728 .23399353 .011245728 .18299866 .011245728 .17199707 .055267335 .17199707 .0922699 .17199707 .1382904 .18899536 .20030213 .22299195 .28833009 .23899842 .3293457 .24299622 .3403473 .24299622 .36035157 .24299622 .405365 .21099854 .4423828 .16099549 .4423828 .06599426 .4423828 .0289917 .29733277 .0289917 .28833009 .0289917 .27833558 .038986207 .27833558 .040985109 .27833558 .050994874 .27833558 .051986696 .28033448 .056991579 .29634095 .083999637 .3903656 .12399292 .42037965 .1579895 .42037965 .1659851 .42037965 .18299866 .42037965 .18299866 .3883667 .18299866 .36335755 .17298889 .3373413 .1659851 .31834413 .12599182 .21231079 .10798645 .1552887 .10798645 .10827637 .10798645 .019256592 .17098999-.0107421879 .22999573-.0107421879 .2689972-.0107421879 .30299378 .0062561037 .33099366 .03425598 .31799317-.017745972 .30599977-.06674194 .2659912-.11973572 .23999024-.15385437 .20199585-.18309021 .1559906-.18309021 .14199829-.18309021 .09700012-.18005371 .07998657-.14074707 .09599304-.14074707 .10899353-.14074707 .12298584-.1287384 .1329956-.11973572 .14299011-.10673523 .14299011-.08773804 .14299011-.056747438 .115997318-.052734376 .10598755-.052734376 .08299255-.052734376 .049987794-.068740848 .049987794-.11773682 .049987794-.16796875 .09399414-.20507813 .1559906-.20507813 .25898744-.20507813 .3619995-.11373901 .3899994-.00074768069L.48599244 .38136292Z"/>
<path id="font_2_1" d="M.74398806 .2263794C.7599945 .2263794 .7839966 .2263794 .7839966 .25038148 .7839966 .27539063 .7609863 .27539063 .74398806 .27539063H.147995C.13198853 .27539063 .10798645 .27539063 .10798645 .25138856 .10798645 .2263794 .1309967 .2263794 .147995 .2263794H.74398806Z"/>
<path id="font_3_2" d="M.33499146 .63612368C.33499146 .6630554 .33299256 .6640625 .30499269 .6640625 .24099732 .6014404 .1499939 .6004486 .10899353 .6004486V.5644531C.1329956 .5644531 .19898987 .5644531 .2539978 .592453V.08203125C.2539978 .04899597 .2539978 .035995485 .1539917 .035995485H.115997318V0C.13398743 .0009918213 .25698854 .0039978029 .2939911 .0039978029 .32499696 .0039978029 .45098878 .0009918213 .47299195 0V.035995485H.43499757C.33499146 .035995485 .33499146 .04899597 .33499146 .08203125V.63612368Z"/>
<path id="font_3_3" d="M.5049896 .18203736H.47099305C.46798707 .16001892 .45799256 .100997928 .44499208 .09098816 .43699647 .084991458 .3600006 .084991458 .34599305 .084991458H.1619873C.2669983 .17803955 .3019867 .20603943 .3619995 .25306703 .43598939 .312088 .5049896 .374115 .5049896 .46914674 .5049896 .5900879 .39898683 .6640625 .2709961 .6640625 .14698792 .6640625 .06298828 .57710269 .06298828 .4851532 .06298828 .43414308 .10598755 .42915345 .115997318 .42915345 .13999939 .42915345 .16899109 .44615174 .16899109 .48214723 .16899109 .5001526 .1619873 .53515627 .10998535 .53515627 .14099121 .6060791 .20899964 .62805178 .2559967 .62805178 .35598756 .62805178 .4079895 .5501404 .4079895 .46914674 .4079895 .38212586 .34599305 .3130951 .31399537 .27708436L.07299805 .038986207C.06298828 .02999878 .06298828 .027999878 .06298828 0H.47499085L.5049896 .18203736Z"/>
<path id="font_3_1" d="M.5159912 .31925965C.5159912 .42918397 .5029907 .50813296 .45700074 .5780945 .42599488 .62405398 .3639984 .6640625 .28399659 .6640625 .051986696 .6640625 .051986696 .39120484 .051986696 .31925965 .051986696 .2472992 .051986696-.01953125 .28399659-.01953125 .5159912-.01953125 .5159912 .2472992 .5159912 .31925965M.28399659 .008468628C.23799134 .008468628 .1769867 .035446168 .15699768 .117385867 .14299011 .17634583 .14299011 .25830079 .14299011 .33224488 .14299011 .40519715 .14299011 .4811554 .1579895 .53611758 .1789856 .6150665 .24299622 .63604739 .28399659 .63604739 .33799745 .63604739 .3899994 .6030731 .4079895 .545105 .42399598 .4911499 .4249878 .41918946 .4249878 .33224488 .4249878 .25830079 .4249878 .18434143 .4119873 .12138367 .3919983 .030441285 .32398988 .008468628 .28399659 .008468628Z"/>
<path id="font_3_4" d="M.272995 .33428956C.35099793 .33428956 .40699769 .2803192 .40699769 .1733551 .40699769 .04940796 .33499146 .012466431 .2769928 .012466431 .23699951 .012466431 .14898682 .0234375 .10699463 .082351688 .1539917 .084350589 .16499329 .11735535 .16499329 .13835144 .16499329 .17034912 .14099121 .19335938 .10998535 .19335938 .08198547 .19335938 .053985597 .17634583 .053985597 .13534546 .053985597 .041412355 .1579895-.01953125 .2789917-.01953125 .41799928-.01953125 .5139923 .07336426 .5139923 .1733551 .5139923 .2513275 .44999696 .32929994 .33999635 .35229493 .44499208 .39024354 .48298646 .4650879 .48298646 .5260773 .48298646 .60505679 .3919983 .6640625 .2809906 .6640625 .16999817 .6640625 .084991458 .61006167 .084991458 .5300751 .084991458 .49606324 .10699463 .47706605 .13699341 .47706605 .16799927 .47706605 .18798828 .5000763 .18798828 .5280762 .18798828 .5570679 .16799927 .57806399 .13699341 .5800781 .17199707 .62405398 .24099732 .63505557 .27799989 .63505557 .32299806 .63505557 .38598634 .6130676 .38598634 .5260773 .38598634 .48406983 .37199403 .43814088 .34599305 .4072113 .31298829 .36927796 .2849884 .3672943 .23498535 .36428834 .20999146 .3623047 .20799256 .3623047 .20298767 .3612976 .20098877 .3612976 .19299317 .3592987 .19299317 .34829713 .19299317 .33428956 .20199585 .33428956 .21899414 .33428956H.272995Z"/>
</defs>
<path transform="matrix(1,0,0,-1,90.495,261.884)" stroke-width=".3985" stroke-linecap="butt" stroke-miterlimit="10" stroke-linejoin="miter" fill="none" stroke="#000000" d="M-87.30765 0H141.4423"/>
<path transform="matrix(1,0,0,-1,231.93732,261.884)" d="M1.99252 0-1.19551 1.59401 0 0-1.19551-1.59401"/>
<use data-text="x" xlink:href="#font_1_1" transform="matrix(9.96264,0,0,-9.96264,237.44699,269.693)"/>
<path transform="matrix(1,0,0,-1,90.495,261.884)" stroke-width=".3985" stroke-linecap="butt" stroke-miterlimit="10" stroke-linejoin="miter" fill="none" stroke="#000000" d="M0-18.70903V210.04093"/>
<path transform="matrix(0,-1,-1,-0,90.495,51.84308)" d="M1.99252 0-1.19551 1.59401 0 0-1.19551-1.59401"/>
<use data-text="y" xlink:href="#font_1_2" transform="matrix(9.96264,0,0,-9.96264,81.733,51.03)"/>
<path transform="matrix(1,0,0,-1,90.495,261.884)" stroke-width=".3985" stroke-linecap="butt" stroke-miterlimit="10" stroke-linejoin="miter" fill="none" stroke="#000000" d="M-62.36288 2.49406V-2.49406"/>
<use data-text="&#x2212;" xlink:href="#font_2_1" transform="matrix(6.97385,0,0,-6.97385,23.034005,272.392)"/>
<use data-text="1" xlink:href="#font_3_2" transform="matrix(6.97385,0,0,-6.97385,29.260004,272.392)"/>
<path transform="matrix(1,0,0,-1,90.495,261.884)" stroke-width=".3985" stroke-linecap="butt" stroke-miterlimit="10" stroke-linejoin="miter" fill="none" stroke="#000000" d="M62.36288 2.49406V-2.49406"/>
<use data-text="1" xlink:href="#font_3_2" transform="matrix(6.97385,0,0,-6.97385,150.871,272.392)"/>
<path transform="matrix(1,0,0,-1,90.495,261.884)" stroke-width=".3985" stroke-linecap="butt" stroke-miterlimit="10" stroke-linejoin="miter" fill="none" stroke="#000000" d="M124.72578 2.49406V-2.49406"/>
<use data-text="2" xlink:href="#font_3_3" transform="matrix(6.97385,0,0,-6.97385,213.233,272.392)"/>
<use data-text="0" xlink:href="#font_3_1" transform="matrix(6.97385,0,0,-6.97385,83.004009,269.898)"/>
<path transform="matrix(1,0,0,-1,90.495,261.884)" stroke-width=".3985" stroke-linecap="butt" stroke-miterlimit="10" stroke-linejoin="miter" fill="none" stroke="#000000" d="M2.49406 62.36288H-2.49406"/>
<use data-text="1" xlink:href="#font_3_2" transform="matrix(6.97385,0,0,-6.97385,80.51,201.76902)"/>
<path transform="matrix(1,0,0,-1,90.495,261.884)" stroke-width=".3985" stroke-linecap="butt" stroke-miterlimit="10" stroke-linejoin="miter" fill="none" stroke="#000000" d="M2.49406 124.72578H-2.49406"/>
<use data-text="2" xlink:href="#font_3_3" transform="matrix(6.97385,0,0,-6.97385,80.51,139.40702)"/>
<path transform="matrix(1,0,0,-1,90.495,261.884)" stroke-width=".3985" stroke-linecap="butt" stroke-miterlimit="10" stroke-linejoin="miter" fill="none" stroke="#000000" d="M2.49406 187.08867H-2.49406"/>
<use data-text="3" xlink:href="#font_3_4" transform="matrix(6.97385,0,0,-6.97385,80.51,77.04501)"/>
<path transform="matrix(1,0,0,-1,90.495,261.884)" stroke-width=".3985" stroke-linecap="butt" stroke-dasharray="2.98883,2.98883" stroke-miterlimit="10" stroke-linejoin="miter" fill="none" stroke="#7f807f" d="M-62.36288-12.47237V212.03345"/>
<path transform="matrix(1,0,0,-1,90.495,261.884)" stroke-width=".79701" stroke-linecap="butt" stroke-miterlimit="10" stroke-linejoin="miter" fill="none" stroke="#000000" d="M-55.50291 258.50019C-55.50291 258.50019-55.07527 250.31026-54.91101 247.39992-54.74677 244.4896-54.48334 240.12516-54.31912 237.52443-54.1549 234.92369-53.89148 230.99854-53.72726 228.65566-53.56305 226.31279-53.29958 222.76506-53.13536 220.63858-52.97115 218.51213-52.70772 215.27082-52.5435 213.32949-52.37929 211.38814-52.11584 208.42815-51.9516 206.64653-51.78735 204.86493-51.52393 202.13314-51.35971 200.48883-51.1955 198.84455-50.93205 196.31914-50.76784 194.79552-50.60362 193.27188-50.34016 190.9245-50.17595 189.50757-50.01173 188.09064-49.74829 185.90592-49.58408 184.58313-49.41986 183.26033-49.15643 181.21341-48.99219 179.97367-48.82794 178.7339-48.56448 176.81255-48.40028 175.64777-48.23607 174.48302-47.97263 172.67584-47.80843 171.57881-47.64421 170.48177-47.38072 168.77698-47.21652 167.74108-47.0523 166.70516-46.78886 165.09342-46.62466 164.1127-46.46045 163.13199-46.197 161.60338-46.03276 160.67272-45.86852 159.74207-45.60507 158.28949-45.44086 157.40502-45.27666 156.52054-45.01321 155.14026-44.849 154.29807-44.6848 153.45587-44.42131 152.1385-44.2571 151.33487-44.0929 150.53124-43.82945 149.27344-43.66524 148.50582-43.50104 147.7382-43.23758 146.53722-43.07333 145.80236-42.9091 145.06748-42.64566 143.91408-42.48145 143.2093-42.31725 142.50453-42.05379 141.3975-41.88957 140.72283-41.72536 140.04816-41.4619 138.99469-41.29768 138.34671-41.13347 137.69872-40.87003 136.67748-40.70581 136.05246-40.5416 135.42746-40.27817 134.4437-40.11392 133.84192-39.94968 133.24016-39.68623 132.29512-39.52202 131.71514-39.3578 131.13515-39.09438 130.22168-38.93016 129.66162-38.76595 129.10157-38.50252 128.21944-38.33826 127.67851-38.17401 127.13757-37.91058 126.28569-37.74637 125.76299-37.58215 125.24028-37.31871 124.41725-37.15451 123.91121-36.9903 123.40515-36.72682 122.60594-36.5626 122.11559-36.39839 121.62521-36.13496 120.85255-35.97075 120.37701-35.80653 119.90146-35.54309 119.149-35.37885 118.68797-35.2146 118.22694-34.95117 117.50163-34.78696 117.0541-34.62274 116.60654-34.3593 115.89752-34.19508 115.4621-34.03087 115.02669-33.7674 114.33878-33.6032 113.91577-33.43898 113.49277-33.17552 112.82462-33.01132 112.41322-32.8471 112.00182-32.58366 111.35095-32.41943 110.95067-32.25519 110.55037-31.99173 109.9183-31.82753 109.52805-31.66331 109.13779-31.39987 108.51706-31.23567 108.13776-31.07146 107.75847-30.80797 107.16408-30.64375 106.79414-30.47955 106.42421-30.21611 105.83359-30.0519 105.47145-29.8877 105.10931-29.62425 104.53712-29.45999 104.18396-29.29576 103.83078-29.03232 103.27095-28.8681 102.92598-28.7039 102.581-28.44046 102.03452-28.27625 101.69746-28.11205 101.36041-27.84856 100.82637-27.68434 100.49658-27.52013 100.16678-27.2567 99.64322-27.09248 99.32042-26.92827 98.9976-26.66483 98.4855-26.50058 98.16997-26.33633 97.85442-26.0729 97.35506-25.90869 97.04613-25.74448 96.7372-25.48103 96.24571-25.31682 95.94324-25.1526 95.64076-24.88914 95.16258-24.72493 94.86607-24.56071 94.56953-24.29727 94.09698-24.13306 93.80602-23.96884 93.51506-23.70541 93.05382-23.54117 92.76877-23.37692 92.48372-23.11348 92.03102-22.94926 91.75153-22.78505 91.47203-22.52162 91.02837-22.3574 90.75429-22.19319 90.48021-21.92975 90.04536-21.7655 89.77603-21.60126 89.50671-21.33783 89.07735-21.17361 88.81305-21.0094 88.54874-20.74596 88.13081-20.58174 87.87099-20.41753 87.61115-20.15407 87.1959-19.98985 86.94034-19.82564 86.68474-19.5622 86.2794-19.398 86.0287-19.23378 85.778-18.97032 85.37988-18.80609 85.13327-18.64185 84.88666-18.37839 84.49394-18.21419 84.25117-18.04997 84.0084-17.78653 83.62215-17.62233 83.38333-17.45811 83.1445-17.19464 82.76447-17.03044 82.52972-16.86623 82.29498-16.60277 81.92259-16.43857 81.6914-16.27435 81.46025-16.01091 81.09125-15.84666 80.86354-15.68242 80.63582-15.41898 80.27425-15.25476 80.04993-15.09056 79.82562-14.82712 79.46794-14.6629 79.2468-14.4987 79.02567-14.23521 78.6736-14.071 78.45602-13.9068 78.23842-13.64336 77.89325-13.47914 77.67856-13.31494 77.4639-13.0515 77.12065-12.88724 76.90875-12.72299 76.69685-12.45956 76.35962-12.29535 76.15129-12.13113 75.94298-11.86769 75.61258-11.70348 75.40715-11.53926 75.20175-11.2758 74.8738-11.11159 74.67062-10.94737 74.46745-10.68394 74.14334-10.51973 73.94267-10.35551 73.742-10.09207 73.42226-9.92783 73.22421-9.76358 73.0262-9.50014 72.71082-9.33592 72.5153-9.1717 72.3198-8.90828 72.00809-8.74406 71.81494-8.57985 71.6218-8.31639 71.31375-8.15218 71.12312-7.98796 70.93248-7.72452 70.62924-7.5603 70.44086-7.39609 70.25246-7.13266 69.95137-6.96841 69.76521-6.80415 69.57906-6.54073 69.28273-6.37651 69.09909-6.2123 68.91545-5.94887 68.62312-5.78465 68.44157-5.62044 68.26006-5.35696 67.97063-5.19275 67.7907-5.02853 67.61076-4.76509 67.3224-4.60089 67.14458-4.43668 66.96677-4.17323 66.68489-4.00899 66.50891-3.84474 66.33292-3.5813 66.05025-3.4171 65.87611-3.25288 65.70195-2.98943 65.42578-2.82523 65.25377-2.66101 65.08177-2.39757 64.80663-2.23334 64.63618-2.06909 64.46576-1.80563 64.194-1.64142 64.02527-1.47722 63.85654-1.21378 63.58743-1.04956 63.42006-.88536 63.25267-.62187 62.98488-.45766 62.81865-.29346 62.65244-.03004 62.38533 .13414 62.22202 .29834 62.05872 .56178 61.80302 .72603 61.64156 .89026 61.48007 1.15372 61.21918 1.31793 61.05826 1.48215 60.89732 1.74557 60.64171 1.90979 60.48157 2.074 60.32144 2.33748 60.06242 2.5017 59.90398 2.66591 59.74556 2.92934 59.49573 3.09355 59.33969 3.25777 59.18364 3.5212 58.93431 3.68546 58.77919 3.8497 58.62408 4.11313 58.37526 4.27734 58.22157 4.44156 58.0679 4.70499 57.82416 4.8692 57.67154 5.03342 57.51894 5.29689 57.27364 5.4611 57.12155 5.62532 56.96948 5.88875 56.72598 6.05296 56.57535 6.21718 56.4247 6.48062 56.18457 6.64487 56.0358 6.80911 55.887 7.07254 55.65118 7.23676 55.50291 7.40097 55.35464 7.66441 55.1149 7.82863 54.96716 7.99284 54.81946 8.2563 54.58423 8.42052 54.43808 8.58473 54.29193 8.84818 54.05887 9.01239 53.91377 9.1766 53.76869 9.44005 53.53633 9.60428 53.39227 9.76852 53.24823 10.03198 53.01845 10.19618 52.87561 10.3604 52.73276 10.62384 52.50487 10.78804 52.3627 10.95226 52.22052 11.21574 51.99237 11.37994 51.85074 11.54416 51.70909 11.8076 51.48184 11.9718 51.34164 12.13602 51.20145 12.39946 50.97968 12.5637 50.84015 12.72795 50.7006 12.9914 50.4747 13.15561 50.33582 13.31981 50.19691 13.58325 49.97652 13.74747 49.83908 13.91167 49.70168 14.17516 49.48238 14.33937 49.34521 14.50357 49.20807 14.76701 48.9873 14.93123 48.8504 15.09543 48.71352 15.35889 48.49454 15.52313 48.35841 15.68736 48.22229 15.9508 48.0041 16.11502 47.86932 16.27924 47.73454 16.54268 47.52124 16.7069 47.38686 16.87111 47.25247 17.13454 47.03458 17.29878 46.9006 17.46304 46.76663 17.72647 46.5541 17.89069 46.421 18.0549 46.28793 18.31833 46.0741 18.48254 45.94142 18.64676 45.80875 18.91023 45.5964 19.07445 45.46468 19.23866 45.33295 19.50209 45.12297 19.6663 44.99173 19.83052 44.8605 20.09395 44.65027 20.25821 44.5188 20.42245 44.38734 20.68588 44.17506 20.8501 44.04396 21.01431 43.91286 21.27776 43.7039 21.44197 43.57387 21.60619 43.44385 21.86964 43.23563 22.03386 43.10664 22.19807 42.97769 22.4615 42.77318 22.62572 42.64418 22.78993 42.51518 23.05338 42.30682 23.21762 42.17694 23.38187 42.04704 23.64531 41.83664 23.80952 41.70781 23.97374 41.57898 24.23718 41.37642 24.40138 41.24821 24.5656 41.12003 24.82907 40.91138 24.99327 40.78384 25.15749 40.65631 25.42094 40.45595 25.58514 40.32896 25.74936 40.20198 26.0128 39.99701 26.17703 39.86841 26.34128 39.73982 26.60474 39.52951 26.76894 39.40211 26.93315 39.27475 27.1966 39.0762 27.36081 38.95012 27.52501 38.82404 27.7885 38.62024 27.95271 38.49338 28.11691 38.36652 28.38036 38.16331 28.54457 38.03566 28.70877 37.90799 28.97221 37.70018 29.13647 37.57318 29.3007 37.4462 29.56415 37.24594 29.72836 37.12025 29.89256 36.99457 30.15602 36.7939 30.32024 36.66728 30.48444 36.54066 30.74791 36.33438 30.91212 36.20766 31.07634 36.08095 31.33977 35.87984 31.50398 35.75375 31.6682 35.62767 31.93164 35.42577 32.09589 35.2989 32.26013 35.17204 32.52357 34.96614 32.68779 34.8393 32.852 34.71243 33.11543 34.51 33.27965 34.38445 33.44386 34.2589 33.70729 34.0616 33.87154 33.93436 34.0358 33.8071 34.29922 33.59529 34.46344 33.4671 34.62766 33.3389 34.89108 33.13707 35.0553 33.01035 35.21951 32.88364 35.48299 32.68033 35.6472 32.5536 35.81142 32.42688 36.07484 32.22371 36.23906 32.09686 36.40327 31.97 36.66672 31.76706 36.83096 31.63914 36.99521 31.51122 37.25864 31.30362 37.42285 31.17476 37.58707 31.0459 37.85051 30.8395 38.01472 30.71039 38.17894 30.5813 38.4424 30.37347 38.60661 30.2441 38.77083 30.11475 39.03429 29.90732 39.19849 29.77783 39.3627 29.64833 39.62614 29.44037 39.79037 29.31061 39.95462 29.18085 40.21808 28.97339 40.38228 28.84242 40.5465 28.71146 40.80994 28.49788 40.97414 28.36664 41.13835 28.2354 41.40184 28.02818 41.56604 27.89655 41.73024 27.76492 41.9937 27.55177 42.15791 27.41791 42.32211 27.28401 42.58556 27.0659 42.7498 26.93166 42.91405 26.7974 43.17749 26.58481 43.3417 26.45015 43.5059 26.3155 43.76935 26.09607 43.93356 25.96103 44.09776 25.82597 44.36125 25.6133 44.52547 25.47668 44.68967 25.34006 44.95311 25.11542 45.11732 24.97617 45.28154 24.8369 45.54498 24.61165 45.70923 24.47276 45.87347 24.33386 46.1369 24.11461 46.30112 23.97508 46.46533 23.83554 46.72878 23.60953 46.89299 23.46695 47.0572 23.32437 47.32066 23.09204 47.48488 22.94736 47.6491 22.80269 47.91254 22.56961 48.07675 22.424 48.24095 22.27837 48.5044 22.04562 48.66864 21.89777 48.83289 21.74992 49.09633 21.50859 49.26054 21.35823 49.42476 21.20786 49.68819 20.96545 49.8524 20.81392 50.01662 20.66238 50.28009 20.42027 50.44429 20.26582 50.6085 20.11139 50.87195 19.85822 51.03616 19.70059 51.20038 19.54297 51.4638 19.28899 51.62805 19.12962 51.79231 18.97026 52.05574 18.71492 52.21996 18.55202 52.38417 18.3891 52.6476 18.12383 52.81181 17.95537 52.97603 17.7869 53.23949 17.50888 53.40372 17.33778 53.56796 17.16667 53.8314 16.89812 53.9956 16.72214 54.15982 16.54616 54.42328 16.25073 54.58748 16.06934 54.7517 15.88792 55.01517 15.60025 55.17937 15.41463 55.34358 15.22902 55.60704 14.92575 55.77124 14.7314 55.93546 14.53705 56.1989 14.2163 56.36313 14.01392 56.52737 13.81155 56.79083 13.48439 56.95505 13.27263 57.11925 13.06087 57.38269 12.71043 57.5469 12.48758 57.7111 12.26476 57.9746 11.9003 58.13881 11.66635 58.30301 11.43242 58.56645 11.05473 58.73067 10.80139 58.89487 10.54805 59.15831 10.11528 59.32256 9.84027 59.4868 9.56526 59.75024 9.12132 59.91446 8.81926 60.07867 8.51718 60.3421 8.01291 60.50632 7.66306 60.67053 7.31317 60.934 6.72488 61.09822 6.29755 61.26244 5.8702 61.52586 5.24466 61.69008 4.5828 61.8543 3.92093 62.28198 1.52725 62.28198 1.52725"/>
<path transform="matrix(1,0,0,-1,90.495,261.884)" d="M1.53424 62.36288C1.53424 63.21024 .84734 63.89713 0 63.89713-.84734 63.89713-1.53424 63.21024-1.53424 62.36288-1.53424 61.51555-.84734 60.82864 0 60.82864 .84734 60.82864 1.53424 61.51555 1.53424 62.36288ZM0 62.36288"/>
<path transform="matrix(1,0,0,-1,90.495,261.884)" d="M63.89713 0C63.89713 .84734 63.21024 1.53424 62.36288 1.53424 61.51555 1.53424 60.82864 .84734 60.82864 0 60.82864-.84734 61.51555-1.53424 62.36288-1.53424 63.21024-1.53424 63.89713-.84734 63.89713 0ZM62.36288 0"/>
</svg>
