<svg xmlns="http://www.w3.org/2000/svg" xmlns:xlink="http://www.w3.org/1999/xlink" xmlns:inkscape="http://www.inkscape.org/namespaces/inkscape" version="1.1" width="120.16" height="110.117" viewBox="0 0 120.16 110.117">
<defs>
<path id="font_1_1" d="M.2919922 .66430667C.29299928 .66630557 .29599 .67930606 .29599 .68029788 .29599 .68530276 .2919922 .6943054 .27999879 .6943054 .27598573 .6943054 .24499512 .69129946 .22200012 .68930056L.1659851 .68530276C.14399719 .68330386 .13398743 .682312 .13398743 .66430667 .13398743 .6502991 .147995 .6502991 .1599884 .6502991 .20799256 .6502991 .20799256 .64430239 .20799256 .63531497 .20799256 .63230898 .20799256 .63031008 .20298767 .61231997L.06098938 .04324341C.056991579 .02822876 .056991579 .022232056 .056991579 .021224976 .056991579 .0042266848 .070999149-.009765625 .08999634-.009765625 .10598755-.009765625 .11999512 .00022888184 .12799073 .01322937 .1309967 .019226075 .13899231 .051239015 .14399719 .071243289L.16699219 .16029358C.16999817 .17529297 .17999268 .21331787 .18299866 .22831726 .19799805 .28634645 .19799805 .28834535 .21998596 .32035829 .2539978 .36938478 .30099488 .4133911 .36799623 .4133911 .4039917 .4133911 .4249878 .39239503 .4249878 .34536744 .4249878 .29034425 .3829956 .17630005 .3639984 .12727356 .35099793 .09425354 .35099793 .088256839 .35099793 .07525635 .35099793 .018234253 .397995-.009765625 .44099427-.009765625 .5389862-.009765625 .5799866 .13027954 .5799866 .14328003 .5799866 .1532898 .57199099 .15628052 .5649872 .15628052 .5529938 .15628052 .5509949 .14927674 .5479889 .13928223 .5239868 .057250978 .48199464 .018234253 .44400025 .018234253 .42799378 .018234253 .41999818 .02822876 .41999818 .051239015 .41999818 .07424927 .42799378 .0962677 .43798829 .121276859 .45298768 .1592865 .49699403 .27433778 .49699403 .33036805 .49699403 .4053955 .44499208 .44140626 .37298585 .44140626 .31698609 .44140626 .2639923 .41740418 .21798706 .36437989L.2919922 .66430667Z"/>
<path id="font_1_2" d="M.19299317 .1382904C.20399475 .18132019 .21499634 .22433472 .22499085 .26835633 .22599793 .27035523 .23298645 .29937745 .23399353 .30438233 .23699951 .313385 .2619934 .35438539 .28799439 .37937928 .31999208 .40838624 .35398866 .4133911 .37199403 .4133911 .3829956 .4133911 .40098573 .4123993 .4149933 .40039063 .37199403 .39138795 .3659973 .35438539 .3659973 .3453827 .3659973 .32337953 .3829956 .30838014 .40499879 .30838014 .43199159 .30838014 .46199037 .3303833 .46199037 .3703766 .46199037 .40638734 .43099977 .44140626 .37399293 .44140626 .30599977 .44140626 .2599945 .39637757 .23899842 .36938478 .21899414 .44140626 .15098572 .44140626 .14099121 .44140626 .10499573 .44140626 .07998657 .418396 .06399536 .38739015 .040985109 .3423767 .02999878 .29136659 .02999878 .28837586 .02999878 .27937318 .036987306 .2753601 .04499817 .2753601 .057998659 .2753601 .05899048 .27937318 .06599426 .30537416 .07798767 .35438539 .09599304 .4133911 .13798523 .4133911 .1639862 .4133911 .16999817 .38838197 .16999817 .36637879 .16999817 .34838868 .16499329 .32937623 .15699768 .29637147 .15499878 .28837586 .13999939 .2293396 .13598633 .21533203L.09899902 .06526184C.09498596 .050247194 .08898926 .025238038 .08898926 .021224976 .08898926-.0017700195 .10798645-.009765625 .12098694-.009765625 .1559906-.009765625 .16299439 .018234253 .17098999 .052246095L.19299317 .1382904Z"/>
</defs>
<path transform="matrix(1,0,0,-1,60.08,95.391)" stroke-width=".79701" stroke-linecap="butt" stroke-miterlimit="10" stroke-linejoin="miter" fill="none" stroke="#2471a3" d="M-56.69362 0H56.69362L0 90.7097Z"/>
<path transform="matrix(1,0,0,-1,60.08,95.391)" stroke-width=".79701" stroke-linecap="butt" stroke-miterlimit="10" stroke-linejoin="miter" fill="none" stroke="#2471a3" d="M-56.69362 0C-56.69362-6.26218-31.31142-11.33855 0-11.33855 31.31142-11.33855 56.69362-6.26218 56.69362 0"/>
<path transform="matrix(1,0,0,-1,60.08,95.391)" stroke-width=".79701" stroke-linecap="butt" stroke-dasharray="2.98883,2.98883" stroke-miterlimit="10" stroke-linejoin="miter" fill="none" stroke="#2471a3" d="M-56.69362 0C-56.69362 6.26218-31.31142 11.33855 0 11.33855 31.31142 11.33855 56.69362 6.26218 56.69362 0"/>
<path transform="matrix(1,0,0,-1,60.08,95.391)" stroke-width=".3985" stroke-linecap="butt" stroke-dasharray="2.98883,2.98883" stroke-miterlimit="10" stroke-linejoin="miter" fill="none" stroke="#7f807f" d="M0 0V90.7097"/>
<use data-text="h" xlink:href="#font_1_1" transform="matrix(7.97011,0,0,-7.97011,63.600004,52.803998)"/>
<use data-text="r" xlink:href="#font_1_2" transform="matrix(7.97011,0,0,-7.97011,86.398,102.343)"/>
<path transform="matrix(1,0,0,-1,60.08,95.391)" d="M1.49442 90.7097C1.49442 91.53503 .82533 92.20412 0 92.20412-.82533 92.20412-1.49442 91.53503-1.49442 90.7097-1.49442 89.88435-.82533 89.21529 0 89.21529 .82533 89.21529 1.49442 89.88435 1.49442 90.7097ZM0 90.7097" fill="#1e8449"/>
<path transform="matrix(1,0,0,-1,60.08,95.391)" stroke-width=".3985" stroke-linecap="butt" stroke-miterlimit="10" stroke-linejoin="miter" fill="none" stroke="#1e8449" d="M1.49442 90.7097C1.49442 91.53503 .82533 92.20412 0 92.20412-.82533 92.20412-1.49442 91.53503-1.49442 90.7097-1.49442 89.88435-.82533 89.21529 0 89.21529 .82533 89.21529 1.49442 89.88435 1.49442 90.7097ZM0 90.7097"/>
</svg>
