<svg xmlns="http://www.w3.org/2000/svg" xmlns:xlink="http://www.w3.org/1999/xlink" xmlns:inkscape="http://www.inkscape.org/namespaces/inkscape" version="1.1" width="245.826" height="268.941" viewBox="0 0 245.826 268.941">
<defs>
<path id="font_1_5" d="M.33399964 .30233766C.33999635 .32835389 .36299134 .42037965 .43299867 .42037965 .43798829 .42037965 .46199037 .42037965 .48298646 .40734864 .45498658 .402359 .43499757 .37734986 .43499757 .35334779 .43499757 .33735658 .44599916 .31835938 .47299195 .31835938 .49499513 .31835938 .5269928 .3363495 .5269928 .37635804 .5269928 .42837525 .46798707 .4423828 .43399049 .4423828 .37599183 .4423828 .34098817 .38935853 .32899476 .36634828 .3039856 .43237306 .25 .4423828 .22099304 .4423828 .116989139 .4423828 .05999756 .3133545 .05999756 .28834535 .05999756 .27833558 .069992069 .27833558 .07199097 .27833558 .07998657 .27833558 .08299255 .28033448 .084991458 .28933717 .11898804 .39535523 .18499756 .42037965 .21899414 .42037965 .23799134 .42037965 .272995 .4113617 .272995 .35334779 .272995 .32235719 .2559967 .25532533 .21899414 .11528015 .20298767 .053268434 .16799927 .011245728 .12399292 .011245728 .117996219 .011245728 .09498596 .011245728 .07398987 .024276734 .09899902 .029266358 .12098694 .05027771 .12098694 .07827759 .12098694 .105270389 .09899902 .11328125 .083999637 .11328125 .053985597 .11328125 .0289917 .08728027 .0289917 .055267335 .0289917 .009246826 .07899475-.0107421879 .12298584-.0107421879 .18899536-.0107421879 .22499085 .059280397 .22799683 .0652771 .23999024 .028274537 .27598573-.0107421879 .33599855-.0107421879 .43899537-.0107421879 .49598695 .118270877 .49598695 .14328003 .49598695 .1532898 .4869995 .1532898 .48399354 .1532898 .47499085 .1532898 .47299195 .14929199 .47099305 .14228821 .43798829 .03527832 .36999513 .011245728 .33799745 .011245728 .29899598 .011245728 .2829895 .043273927 .2829895 .07727051 .2829895 .09927368 .2889862 .121276859 .2999878 .16529846L.33399964 .30233766Z"/>
<path id="font_1_6" d="M.48599244 .38136292C.48999024 .39537049 .48999024 .39736939 .48999024 .40437318 .48999024 .42237855 .47599793 .43138124 .46099855 .43138124 .45098878 .43138124 .43499757 .42536927 .42599488 .41036988 .42399598 .405365 .41600038 .37435914 .4119873 .35635377 .40499879 .33035279 .397995 .30334474 .3919983 .27633668L.34700013 .09628296C.34298707 .08126831 .2999878 .011245728 .23399353 .011245728 .18299866 .011245728 .17199707 .055267335 .17199707 .0922699 .17199707 .1382904 .18899536 .20030213 .22299195 .28833009 .23899842 .3293457 .24299622 .3403473 .24299622 .36035157 .24299622 .405365 .21099854 .4423828 .16099549 .4423828 .06599426 .4423828 .0289917 .29733277 .0289917 .28833009 .0289917 .27833558 .038986207 .27833558 .040985109 .27833558 .050994874 .27833558 .051986696 .28033448 .056991579 .29634095 .083999637 .3903656 .12399292 .42037965 .1579895 .42037965 .1659851 .42037965 .18299866 .42037965 .18299866 .3883667 .18299866 .36335755 .17298889 .3373413 .1659851 .31834413 .12599182 .21231079 .10798645 .1552887 .10798645 .10827637 .10798645 .019256592 .17098999-.0107421879 .22999573-.0107421879 .2689972-.0107421879 .30299378 .0062561037 .33099366 .03425598 .31799317-.017745972 .30599977-.06674194 .2659912-.11973572 .23999024-.15385437 .20199585-.18309021 .1559906-.18309021 .14199829-.18309021 .09700012-.18005371 .07998657-.14074707 .09599304-.14074707 .10899353-.14074707 .12298584-.1287384 .1329956-.11973572 .14299011-.10673523 .14299011-.08773804 .14299011-.056747438 .115997318-.052734376 .10598755-.052734376 .08299255-.052734376 .049987794-.068740848 .049987794-.11773682 .049987794-.16796875 .09399414-.20507813 .1559906-.20507813 .25898744-.20507813 .3619995-.11373901 .3899994-.00074768069L.48599244 .38136292Z"/>
<path id="font_1_2" d="M.73999026 .4358673C.73999026 .5970001 .6339874 .7050781 .4850006 .7050781 .2689972 .7050781 .04899597 .47790528 .04899597 .24472046 .04899597 .07859802 .16099549-.022460938 .30499269-.022460938 .5169983-.022460938 .73999026 .19668579 .73999026 .4358673M.31098939 .0035247803C.21199036 .0035247803 .14199829 .08459473 .14199829 .21670532 .14199829 .2607422 .1559906 .4068451 .23298645 .52394106 .3019867 .62802127 .3999939 .68006899 .47898866 .68006899 .5609894 .68006899 .651001 .62402346 .651001 .4748993 .651001 .4028473 .6239929 .24671936 .5249939 .12362671 .47698976 .062576297 .394989 .0035247803 .31098939 .0035247803Z"/>
<path id="font_1_1" d="M.30299378 .3244629H.3999939C.47499085 .3244629 .48298646 .30848695 .48298646 .27954103 .48298646 .2725525 .48298646 .26057435 .47599793 .2306366 .47399903 .22564698 .47299195 .22164917 .47299195 .21965027 .47299195 .21166992 .47898866 .20767212 .4850006 .20767212 .49499513 .20767212 .49499513 .21066284 .5 .2286377L.5549927 .44551087C.55799868 .45651246 .55799868 .45851136 .55799868 .46151734 .55799868 .46351625 .55599978 .47251893 .54599 .47251893 .5359955 .47251893 .5349884 .46751405 .5309906 .45150758 .5099945 .37347413 .4869995 .35546876 .4019928 .35546876H.31098939L.375 .6095886C.38398744 .64460757 .3849945 .64860537 .42900086 .64860537H.5609894C.6839905 .64860537 .70700076 .6156006 .70700076 .53855898 .70700076 .5155487 .70700076 .51153567 .70399478 .4845276 .70199587 .4715271 .70199587 .46951295 .70199587 .46652223 .70199587 .46151734 .7049866 .45451356 .71398928 .45451356 .72499087 .45451356 .7259979 .46051026 .7279968 .4795227L.7480011 .65260317C.7509918 .6796112 .74598696 .6796112 .72099307 .6796112H.23098755C.21099854 .6796112 .20098877 .6796112 .20098877 .65960696 .20098877 .64860537 .20999146 .64860537 .22898865 .64860537 .2659912 .64860537 .2939911 .64860537 .2939911 .6306 .2939911 .6266022 .2939911 .6246033 .2889862 .60658267L.15699768 .07791138C.14698792 .038970949 .14498902 .0309906 .06599426 .0309906 .04899597 .0309906 .037994386 .0309906 .037994386 .011993408 .037994386 0 .049987794 0 .052993776 0 .08198547 0 .1559906 .0029907227 .18499756 .0029907227 .21798706 .0029907227 .30099488 0 .33399964 0 .34298707 0 .35499574 0 .35499574 .018997193 .35499574 .026992798 .34899903 .0289917 .34899903 .02999878 .34599305 .0309906 .34399415 .0309906 .32099916 .0309906 .29899598 .0309906 .2939911 .0309906 .2689972 .032989503 .23999024 .035980226 .23699951 .039978029 .23699951 .052947999 .23699951 .0549469 .23699951 .060943605 .24099732 .075912479L.30299378 .3244629Z"/>
<path id="font_2_119" d="M.59498599 .2688446H.56399539C.55599978 .12992859 .5339966 .035995485 .34498597 .035995485H.16799927L.58099368 .6436157C.58898928 .65560916 .58898928 .65960696 .58898928 .6646118 .58898928 .6826172 .57899478 .6826172 .5609894 .6826172H.085998538L.07398987 .45573426H.10499573C.11299133 .6036377 .18199158 .6496124 .31399537 .6496124H.48098756L.066986087 .040985109C.05899048 .0289917 .05899048 .023986817 .05899048 .018997193 .05899048 0 .067993167 0 .08699036 0H.57699587L.59498599 .2688446Z"/>
<path id="font_2_74" d="M.9229889 0V.032989503H.901001C.82398989 .032989503 .82199099 .04399109 .82199099 .080963138V.6016388C.82199099 .63861086 .82398989 .6496124 .901001 .6496124H.9229889V.6826172H.7539978C.72698977 .6826172 .72499087 .6796112 .71798709 .66160586L.48599244 .094955448 .2539978 .65960696C.24598694 .6796112 .24499512 .6826172 .21699524 .6826172H.04899597V.6496124H.070999149C.147995 .6496124 .1499939 .63861086 .1499939 .6016388V.10694885C.1499939 .080963138 .1499939 .032989503 .04899597 .032989503V0C.09399414 .0029907227 .14099121 .0029907227 .16699219 .0029907227 .19299317 .0029907227 .23999024 .0029907227 .2849884 0V.032989503C.18399048 .032989503 .18399048 .080963138 .18399048 .10694885V.637619L.18499756 .63861086 .43699647 .023986817C.44299317 .010986328 .44699098 0 .46099855 0 .47399903 0 .47898866 .011993408 .48399354 .023986817L.7389984 .64660647 .73999026 .6456146V.080963138C.73999026 .04399109 .73799136 .032989503 .6609955 .032989503H.6389923V0L.7809906 .0029907227 .9229889 0Z"/>
<path id="font_2_83" d="M.6629944 .49568177C.6629944 .5936432 .5569916 .6826172 .41299439 .6826172H.04598999V.6496124H.067993167C.14498902 .6496124 .14698792 .63861086 .14698792 .6016388V.0809021C.14698792 .043914796 .14498902 .032928468 .067993167 .032928468H.04598999V0L.19299317 .0029296876 .33999635 0V.032989503H.31799317C.24099732 .032989503 .23899842 .04399109 .23899842 .080963138V.31178285H.42099C.5439911 .31178285 .6629944 .39079286 .6629944 .49578858V.49568177M.5589905 .49578858C.5589905 .4517212 .5589905 .34179688 .3880005 .34179688H.23599243V.6086273C.23599243 .64260867 .23799134 .6496124 .28399659 .6496124H.3880005C.5589905 .6496124 .5589905 .54067996 .5589905 .49569703V.49578858Z"/>
<path id="font_1_3" d="M.30299378 .3157959H.47299195C.61499026 .3157959 .7539978 .41973878 .7539978 .53167727 .7539978 .6086273 .6879883 .6826172 .5569916 .6826172H.23298645C.21398926 .6826172 .20298767 .6826172 .20298767 .66360476 .20298767 .6516113 .21199036 .6516113 .23199463 .6516113 .24499512 .6516113 .2630005 .65060427 .2749939 .6496124 .29100038 .6476135 .29699708 .64460757 .29699708 .6336212 .29699708 .6296234 .29599 .62661746 .29299928 .614624L.15899658 .07795715C.14898682 .038986207 .14698792 .0309906 .067993167 .0309906 .050994874 .0309906 .039993287 .0309906 .039993287 .011993408 .039993287 0 .051986696 0 .054992677 0 .08299255 0 .1539917 .0029907227 .18199158 .0029907227 .20298767 .0029907227 .22499085 .0019989014 .24598694 .0019989014 .2679901 .0019989014 .2899933 0 .31098939 0 .31799317 0 .33099366 0 .33099366 .019989014 .33099366 .0309906 .32199098 .0309906 .30299378 .0309906 .2659912 .0309906 .23799134 .0309906 .23799134 .048980714 .23799134 .054977418 .23999024 .05996704 .24099732 .065963748L.30299378 .3157959M.375 .6136322C.38398744 .64860537 .38598634 .6516113 .42900086 .6516113H.5249939C.60798647 .6516113 .6609955 .62461856 .6609955 .55566409 .6609955 .5166931 .6409912 .43074037 .60198977 .39476014 .5519867 .34977723 .49198915 .34179688 .44799806 .34179688H.30699159L.375 .6136322Z"/>
<path id="font_3_1" d="M.33499146 .63612368C.33499146 .6630554 .33299256 .6640625 .30499269 .6640625 .24099732 .6014404 .1499939 .6004486 .10899353 .6004486V.5644531C.1329956 .5644531 .19898987 .5644531 .2539978 .592453V.08203125C.2539978 .04899597 .2539978 .035995485 .1539917 .035995485H.115997318V0C.13398743 .0009918213 .25698854 .0039978029 .2939911 .0039978029 .32499696 .0039978029 .45098878 .0009918213 .47299195 0V.035995485H.43499757C.33499146 .035995485 .33499146 .04899597 .33499146 .08203125V.63612368Z"/>
<path id="font_3_2" d="M.5049896 .18203736H.47099305C.46798707 .16001892 .45799256 .100997928 .44499208 .09098816 .43699647 .084991458 .3600006 .084991458 .34599305 .084991458H.1619873C.2669983 .17803955 .3019867 .20603943 .3619995 .25306703 .43598939 .312088 .5049896 .374115 .5049896 .46914674 .5049896 .5900879 .39898683 .6640625 .2709961 .6640625 .14698792 .6640625 .06298828 .57710269 .06298828 .4851532 .06298828 .43414308 .10598755 .42915345 .115997318 .42915345 .13999939 .42915345 .16899109 .44615174 .16899109 .48214723 .16899109 .5001526 .1619873 .53515627 .10998535 .53515627 .14099121 .6060791 .20899964 .62805178 .2559967 .62805178 .35598756 .62805178 .4079895 .5501404 .4079895 .46914674 .4079895 .38212586 .34599305 .3130951 .31399537 .27708436L.07299805 .038986207C.06298828 .02999878 .06298828 .027999878 .06298828 0H.47499085L.5049896 .18203736Z"/>
<path id="font_1_4" d="M.43798829 .0055236818C.59298709 .0644989 .73999026 .24256897 .73999026 .43579103 .73999026 .5969696 .6339874 .7050781 .4850006 .7050781 .2689972 .7050781 .04899597 .47784425 .04899597 .24456787 .04899597 .07847595 .16099549-.022460938 .30499269-.022460938 .32998658-.022460938 .3639984-.018463135 .40299989-.007461548 .39898683-.06939697 .39898683-.071380618 .39898683-.084365848 .39898683-.11634827 .39898683-.19433594 .48199464-.19433594 .6009979-.19433594 .6489868-.011474609 .6489868-.00047302247 .6489868 .0065307619 .6419983 .009521484 .6380005 .009521484 .6299896 .009521484 .6279907 .0045318605 .6259918-.0014648438 .60198977-.072387699 .5439911-.097335819 .5089874-.097335819 .46299745-.097335819 .44799806-.070388797 .43798829 .0055236818M.24899292 .013519287C.17098999 .044509889 .13699341 .12245178 .13699341 .21252442 .13699341 .2816162 .16299439 .4237671 .23899842 .5319061 .31199647 .63401797 .4059906 .68006899 .47898866 .68006899 .57899478 .68006899 .6519928 .6019745 .6519928 .4678192 .6519928 .3677063 .6009979 .13345337 .43299867 .039505006 .42799378 .07447815 .41799928 .14746094 .34498597 .14746094 .2919922 .14746094 .24299622 .097473148 .24299622 .04550171 .24299622 .025512696 .24899292 .014526367 .24899292 .013519287M.31098939 .002532959C.29699708 .002532959 .2649994 .002532959 .2649994 .04550171 .2649994 .08547974 .30299378 .12545777 .34498597 .12545777 .3869934 .12545777 .4059906 .10147095 .4059906 .040512086 .4059906 .025512696 .40499879 .024520874 .394989 .020523072 .36898805 .009521484 .33898927 .002532959 .31098939 .002532959Z"/>
</defs>
<path transform="matrix(1,0,0,-1,17.705,222.02101)" stroke-width=".3985" stroke-linecap="butt" stroke-miterlimit="10" stroke-linejoin="miter" fill="none" stroke="#000000" d="M-14.17339 0H210.60854"/>
<path transform="matrix(1,0,0,-1,228.31354,222.02101)" d="M1.99252 0-1.19551 1.59401 0 0-1.19551-1.59401"/>
<use data-text="x" xlink:href="#font_1_5" transform="matrix(9.96264,0,0,-9.96264,233.823,229.83002)"/>
<path transform="matrix(1,0,0,-1,17.705,222.02101)" stroke-width=".3985" stroke-linecap="butt" stroke-miterlimit="10" stroke-linejoin="miter" fill="none" stroke="#000000" d="M0-14.17339V210.60854"/>
<path transform="matrix(0,-1,-1,-0,17.705,11.412476)" d="M1.99252 0-1.19551 1.59401 0 0-1.19551-1.59401"/>
<use data-text="y" xlink:href="#font_1_6" transform="matrix(9.96264,0,0,-9.96264,8.943,10.597992)"/>
<use data-text="O" xlink:href="#font_1_2" transform="matrix(9.96264,0,0,-9.96264,6.309,232.348)"/>
<path transform="matrix(1,0,0,-1,17.705,222.02101)" d="M1.49442 14.17339C1.49442 14.99873 .82533 15.6678 0 15.6678-.82533 15.6678-1.49442 14.99873-1.49442 14.17339-1.49442 13.34804-.82533 12.67897 0 12.67897 .82533 12.67897 1.49442 13.34804 1.49442 14.17339ZM0 14.17339"/>
<use data-text="F" xlink:href="#font_1_1" transform="matrix(9.96264,0,0,-9.96264,6.3949997,211.251)"/>
<path transform="matrix(1,0,0,-1,17.705,222.02101)" stroke-width=".79701" stroke-linecap="butt" stroke-miterlimit="10" stroke-linejoin="miter" fill="none" stroke="#000000" d="M141.73404 14.17339C141.73404 92.45195 78.27855 155.90744 0 155.90744"/>
<path transform="matrix(1,0,0,-1,17.705,222.02101)" stroke-width=".79701" stroke-linecap="butt" stroke-miterlimit="10" stroke-linejoin="miter" fill="none" stroke="#000000" d="M0 14.17339H141.73404"/>
<path transform="matrix(1,0,0,-1,17.705,222.02101)" stroke-width=".79701" stroke-linecap="butt" stroke-miterlimit="10" stroke-linejoin="miter" fill="none" stroke="#000000" d="M0 14.17339V155.90744"/>
<path transform="matrix(1,0,0,-1,17.705,222.02101)" stroke-width=".79701" stroke-linecap="butt" stroke-miterlimit="10" stroke-linejoin="miter" fill="none" stroke="#000000" d="M0 56.69362C0 56.69362 11.42027 55.82549 14.17339 53.85896 16.92653 51.89243 19.84267 45.66666 19.84267 42.5202 19.84267 39.37373 16.92653 35.1145 14.17339 31.18144 11.42027 27.24837 0 14.17339 0 14.17339"/>
<use data-text="Z" xlink:href="#font_2_119" transform="matrix(7.97011,0,0,-7.97011,26.785,182.223)"/>
<use data-text="M" xlink:href="#font_2_74" transform="matrix(7.97011,0,0,-7.97011,31.957602,182.223)"/>
<use data-text="P" xlink:href="#font_2_83" transform="matrix(7.97011,0,0,-7.97011,39.712518,182.223)"/>
<path transform="matrix(1,0,0,-1,17.705,222.02101)" d="M199.92208 184.25424C199.92208 185.07959 199.253 185.74866 198.42766 185.74866 197.60231 185.74866 196.93325 185.07959 196.93325 184.25424 196.93325 183.42891 197.60231 182.75983 198.42766 182.75983 199.253 182.75983 199.92208 183.42891 199.92208 184.25424ZM198.42766 184.25424"/>
<use data-text="P" xlink:href="#font_1_3" transform="matrix(9.96264,0,0,-9.96264,219.65001,32.754014)"/>
<use data-text="1" xlink:href="#font_3_1" transform="matrix(6.97385,0,0,-6.97385,226.04602,34.24901)"/>
<path transform="matrix(1,0,0,-1,17.705,222.02101)" d="M171.57527 155.90744C171.57527 156.73279 170.9062 157.40186 170.08086 157.40186 169.25551 157.40186 168.58644 156.73279 168.58644 155.90744 168.58644 155.08209 169.25551 154.41303 170.08086 154.41303 170.9062 154.41303 171.57527 155.08209 171.57527 155.90744ZM170.08086 155.90744"/>
<use data-text="P" xlink:href="#font_1_3" transform="matrix(9.96264,0,0,-9.96264,191.304,61.101015)"/>
<use data-text="2" xlink:href="#font_3_2" transform="matrix(6.97385,0,0,-6.97385,197.7,62.595018)"/>
<path transform="matrix(1,0,0,-1,17.705,222.02101)" stroke-width=".79701" stroke-linecap="butt" stroke-miterlimit="10" stroke-linejoin="miter" fill="none" stroke="#000000" d="M212.60106 198.42766 150.65233 136.47893"/>
<path transform="matrix(-.7071,.7071,.7071,.7071,168.35733,85.54208)" d="M2.59026 0-1.55415 2.0722 0 0-1.55415-2.0722"/>
<path transform="matrix(1,0,0,-1,17.705,222.02101)" d="M171.57527-28.3468C171.57527-27.52145 170.9062-26.85239 170.08086-26.85239 169.25551-26.85239 168.58644-27.52145 168.58644-28.3468 168.58644-29.17215 169.25551-29.84122 170.08086-29.84122 170.9062-29.84122 171.57527-29.17215 171.57527-28.3468ZM170.08086-28.3468"/>
<use data-text="Q" xlink:href="#font_1_4" transform="matrix(9.96264,0,0,-9.96264,191.304,260.695)"/>
<use data-text="1" xlink:href="#font_3_1" transform="matrix(6.97385,0,0,-6.97385,199.18,262.189)"/>
<path transform="matrix(1,0,0,-1,17.705,222.02101)" d="M157.40186-14.17339C157.40186-13.34804 156.73279-12.67897 155.90744-12.67897 155.08209-12.67897 154.41303-13.34804 154.41303-14.17339 154.41303-14.99873 155.08209-15.6678 155.90744-15.6678 156.73279-15.6678 157.40186-14.99873 157.40186-14.17339ZM155.90744-14.17339"/>
<use data-text="Q" xlink:href="#font_1_4" transform="matrix(9.96264,0,0,-9.96264,157.745,230.73702)"/>
<use data-text="2" xlink:href="#font_3_2" transform="matrix(6.97385,0,0,-6.97385,165.621,232.23102)"/>
<path transform="matrix(1,0,0,-1,17.705,222.02101)" stroke-width=".79701" stroke-linecap="butt" stroke-miterlimit="10" stroke-linejoin="miter" fill="none" stroke="#000000" d="M184.25424-42.5202 136.47893 5.25508"/>
<path transform="matrix(-.7071,-.7071,-.7071,.7071,154.18393,216.76593)" d="M2.59026 0-1.55415 2.0722 0 0-1.55415-2.0722"/>
</svg>
