<svg xmlns="http://www.w3.org/2000/svg" xmlns:xlink="http://www.w3.org/1999/xlink" xmlns:inkscape="http://www.inkscape.org/namespaces/inkscape" version="1.1" width="119.038" height="108.185" viewBox="0 0 119.038 108.185">
<defs>
<path id="font_1_1" d="M.18199158 .116867069C.1329956 .036987306 .08898926 .033981325 .04899597 .0309906 .041992189 .02999878 .036987306 .021987915 .036987306 .0129852299 .036987306 .0069885256 .040985109 0 .050994874 0 .069992069 0 .116989139 .0029907227 .13598633 .0029907227 .1579895 .0029907227 .21199036 0 .23399353 0 .23999024 0 .25299073 0 .25299073 .017990113 .25299073 .02999878 .24099732 .0309906 .23799134 .0309906 .22898865 .03199768 .19099427 .033981325 .19099427 .063949588 .19099427 .077926639 .20199585 .09689331 .20498657 .101882938L.28399659 .23068238H.54499819C.5479889 .2077179 .5509949 .17378235 .55400088 .14881897 .55799868 .10987854 .56399539 .06593323 .56399539 .062942508 .56399539 .047973634 .5499878 .0309906 .49198915 .0309906 .48199464 .0309906 .46899415 .0309906 .46899415 .0129852299 .46899415 .0019989014 .47698976 0 .48399354 0 .5029907 0 .5269928 .0019989014 .5469971 .0019989014 .5669861 .0019989014 .59098818 .0029907227 .6069946 .0029907227 .6399994 .0029907227 .6419983 .0029907227 .66600039 .0019989014 .6819916 .0009918213 .7049866 0 .72099307 0 .72698977 0 .73999026 0 .73999026 .017990113 .73999026 .0309906 .72898867 .0309906 .71699526 .0309906 .6569977 .0309906 .6559906 .037979127 .6529999 .06694031L.58299258 .68881228C.58099368 .7108154 .5799866 .7158203 .5629883 .7158203 .548996 .7158203 .54299929 .7088165 .5349884 .69581606L.18199158 .116867069M.30299378 .26168824 .5049896 .5917816 .5419922 .26168824H.30299378Z"/>
<path id="font_1_2" d="M.16299439 .07595825C.1539917 .039993287 .1519928 .0309906 .07699585 .0309906 .057998659 .0309906 .04699707 .0309906 .04699707 .0129852299 .04699707 0 .056991579 0 .07499695 0H.43899537C.6009979 0 .7200012 .11793518 .7200012 .21485901 .7200012 .28581239 .6609955 .34576417 .56199648 .35676576 .6759949 .37875367 .772995 .4547119 .772995 .54367068 .772995 .6216278 .70098879 .6826172 .58200076 .6826172H.23999024C.22200012 .6826172 .20999146 .6826172 .20999146 .6646118 .20999146 .6516113 .21899414 .6516113 .23999024 .6516113 .24398804 .6516113 .2619934 .6516113 .27799989 .6496124 .29499818 .6476135 .3019867 .6456146 .3019867 .63461306 .3019867 .6296234 .30099488 .6256256 .2979889 .614624L.16299439 .07595825M.31900025 .36776734 .37998963 .6126251C.3889923 .64860537 .3909912 .6516113 .43299867 .6516113H.56799319C.6719971 .6516113 .68099978 .5726471 .68099978 .54766848 .68099978 .45870973 .58799746 .36776734 .47499085 .36776734H.31900025M.2709961 .0309906C.25698854 .0309906 .25498963 .0309906 .25099183 .03199768 .24099732 .032989503 .23799134 .033996583 .23799134 .040985109 .23799134 .04397583 .23799134 .04597473 .24299622 .063964847L.31199647 .34277345H.5C.56199648 .34277345 .625 .31578065 .625 .22485352 .625 .12593079 .5339966 .0309906 .4139862 .0309906H.2709961Z"/>
<path id="font_1_3" d="M.7739868 .67807009C.7769928 .6900635 .7769928 .69207766 .7769928 .69407656 .7769928 .69506838 .776001 .7050781 .7649994 .7050781 .7589874 .7050781 .7559967 .70207217 .7489929 .69407656L.6879883 .6270294C.6839905 .62202456 .6799927 .61802676 .67900088 .61802676 .6779938 .61802676 .6769867 .61901858 .67099 .62602236 .6559906 .64604189 .61099246 .7050781 .5069885 .7050781 .27799989 .7050781 .050994874 .48291017 .050994874 .25473023 .050994874 .09159851 .16999817-.022460938 .33099366-.022460938 .43499757-.022460938 .5169983 .031555177 .55599978 .0665741 .6469879 .14764405 .6639862 .23571778 .6639862 .23971558 .6639862 .24372864 .6619873 .25073243 .6499939 .25073243 .6389923 .25073243 .6369934 .24472046 .6359863 .24072266 .58699038 .079589847 .44400025 .008529663 .34399415 .008529663 .24699402 .008529663 .14399719 .06758118 .14399719 .21870423 .14399719 .2637329 .15899658 .42185975 .2599945 .54496768 .31999208 .61701968 .41799928 .67407229 .5139923 .67407229 .625 .67407229 .6839905 .5890045 .6839905 .47891236 .6839905 .44488526 .68099978 .43788148 .68099978 .4298706 .68099978 .41886903 .69299319 .41886903 .69599917 .41886903 .70899966 .41886903 .70899966 .42086793 .71398928 .43988038L.7739868 .67807009Z"/>
<path id="font_1_4" d="M.3809967 .6036377C.3899994 .6416168 .3929901 .6516113 .48599244 .6516113 .5139923 .6516113 .522995 .6516113 .522995 .6696167 .522995 .6826172 .5099945 .6826172 .5069885 .6826172 .48399354 .6826172 .45799256 .680603 .43399049 .680603 .4099884 .680603 .38598634 .6796112 .3619995 .6796112 .33898927 .6796112 .31498719 .6796112 .29299928 .680603 .2749939 .6816101 .24398804 .6826172 .22698975 .6826172 .22099304 .6826172 .20698548 .6826172 .20698548 .6646118 .20698548 .6516113 .21598816 .6516113 .23699951 .6516113 .24099732 .6516113 .25898744 .6516113 .2749939 .6496124 .2919922 .6476135 .29899598 .6456146 .29899598 .63461306 .29899598 .6296234 .2979889 .6256256 .29499818 .614624L.1599884 .07595825C.15098572 .039993287 .14898682 .0309906 .07398987 .0309906 .054992677 .0309906 .04399109 .0309906 .04399109 .0129852299 .04399109 0 .053985597 0 .07199097 0H.5439911C.56799319 0 .56900027 .0009918213 .57699587 .021987915 .58699038 .04698181 .6589966 .23686219 .6589966 .24485779 .6589966 .2528534 .6519928 .25785829 .644989 .25785829 .6349945 .25785829 .6339874 .25386048 .6259918 .23387146 .59199526 .14492798 .5479889 .0309906 .37298585 .0309906H.27398683C.2599945 .0309906 .2579956 .0309906 .2539978 .03199768 .24398804 .032989503 .24099732 .033996583 .24099732 .040985109 .24099732 .04399109 .24099732 .04598999 .24598694 .063964847L.3809967 .6036377Z"/>
</defs>
<path transform="matrix(1,0,0,-1,16.739,89.60899)" stroke-width=".79701" stroke-linecap="butt" stroke-miterlimit="10" stroke-linejoin="miter" fill="none" stroke="#2471a3" d="M85.0508 0C85.0508 30.37842 68.83838 58.45879 42.53056 73.64735"/>
<path transform="matrix(1,0,0,-1,16.739,89.60899)" stroke-width=".79701" stroke-linecap="butt" stroke-miterlimit="10" stroke-linejoin="miter" fill="none" stroke="#2471a3" d="M42.52539 73.65376C16.21758 58.4652 .00516 30.38483 .00516 .0064"/>
<path transform="matrix(1,0,0,-1,16.739,89.60899)" stroke-width=".79701" stroke-linecap="butt" stroke-miterlimit="10" stroke-linejoin="miter" fill="none" stroke="#2471a3" d="M0 0C26.3078-15.18857 58.73259-15.18857 85.0404 0"/>
<path transform="matrix(1,0,0,-1,16.739,89.60899)" d="M85.0508 0C85.0508 30.37842 68.83838 58.45879 42.53056 73.64735 16.22275 58.45879 .01035 30.37842 .01035 0 26.31816-15.18857 58.74295-15.18857 85.05077 0Z" fill="#e9f1f6" fill-opacity=".3"/>
<path transform="matrix(1,0,0,-1,16.739,89.60899)" stroke-width=".3985" stroke-linecap="butt" stroke-dasharray="2.98883,2.98883" stroke-miterlimit="10" stroke-linejoin="miter" fill="none" stroke="#000000" d="M0 0H85.0508L42.52539 73.65376Z"/>
<path transform="matrix(1,0,0,-1,16.739,89.60899)" d="M2.24162 0C2.24162 1.238 1.238 2.24162 0 2.24162-1.238 2.24162-2.24162 1.238-2.24162 0-2.24162-1.238-1.238-2.24162 0-2.24162 1.238-2.24162 2.24162-1.238 2.24162 0ZM0 0"/>
<use data-text="A" xlink:href="#font_1_1" transform="matrix(8.96638,0,0,-8.96638,6.309,99.256)"/>
<path transform="matrix(1,0,0,-1,16.739,89.60899)" d="M87.29242 0C87.29242 1.238 86.2888 2.24162 85.0508 2.24162 83.81277 2.24162 82.80917 1.238 82.80917 0 82.80917-1.238 83.81277-2.24162 85.0508-2.24162 86.2888-2.24162 87.29242-1.238 87.29242 0ZM85.0508 0"/>
<use data-text="B" xlink:href="#font_1_2" transform="matrix(8.96638,0,0,-8.96638,105.309,99.256)"/>
<path transform="matrix(1,0,0,-1,16.739,89.60899)" d="M44.76701 73.65376C44.76701 74.89178 43.7634 75.89539 42.52539 75.89539 41.28737 75.89539 40.28377 74.89178 40.28377 73.65376 40.28377 72.41574 41.28737 71.41214 42.52539 71.41214 43.7634 71.41214 44.76701 72.41574 44.76701 73.65376ZM42.52539 73.65376"/>
<use data-text="C" xlink:href="#font_1_3" transform="matrix(8.96638,0,0,-8.96638,55.656,12.436996)"/>
<use data-text="L" xlink:href="#font_1_4" transform="matrix(8.96638,0,0,-8.96638,56.123,67.160999)"/>
</svg>
