<svg xmlns="http://www.w3.org/2000/svg" xmlns:xlink="http://www.w3.org/1999/xlink" xmlns:inkscape="http://www.inkscape.org/namespaces/inkscape" version="1.1" width="217.48" height="162.528" viewBox="0 0 217.48 162.528">
<defs>
<path id="font_1_5" d="M.33399964 .30233766C.33999635 .32835389 .36299134 .42037965 .43299867 .42037965 .43798829 .42037965 .46199037 .42037965 .48298646 .40734864 .45498658 .402359 .43499757 .37734986 .43499757 .35334779 .43499757 .33735658 .44599916 .31835938 .47299195 .31835938 .49499513 .31835938 .5269928 .3363495 .5269928 .37635804 .5269928 .42837525 .46798707 .4423828 .43399049 .4423828 .37599183 .4423828 .34098817 .38935853 .32899476 .36634828 .3039856 .43237306 .25 .4423828 .22099304 .4423828 .116989139 .4423828 .05999756 .3133545 .05999756 .28834535 .05999756 .27833558 .069992069 .27833558 .07199097 .27833558 .07998657 .27833558 .08299255 .28033448 .084991458 .28933717 .11898804 .39535523 .18499756 .42037965 .21899414 .42037965 .23799134 .42037965 .272995 .4113617 .272995 .35334779 .272995 .32235719 .2559967 .25532533 .21899414 .11528015 .20298767 .053268434 .16799927 .011245728 .12399292 .011245728 .117996219 .011245728 .09498596 .011245728 .07398987 .024276734 .09899902 .029266358 .12098694 .05027771 .12098694 .07827759 .12098694 .105270389 .09899902 .11328125 .083999637 .11328125 .053985597 .11328125 .0289917 .08728027 .0289917 .055267335 .0289917 .009246826 .07899475-.0107421879 .12298584-.0107421879 .18899536-.0107421879 .22499085 .059280397 .22799683 .0652771 .23999024 .028274537 .27598573-.0107421879 .33599855-.0107421879 .43899537-.0107421879 .49598695 .118270877 .49598695 .14328003 .49598695 .1532898 .4869995 .1532898 .48399354 .1532898 .47499085 .1532898 .47299195 .14929199 .47099305 .14228821 .43798829 .03527832 .36999513 .011245728 .33799745 .011245728 .29899598 .011245728 .2829895 .043273927 .2829895 .07727051 .2829895 .09927368 .2889862 .121276859 .2999878 .16529846L.33399964 .30233766Z"/>
<path id="font_1_6" d="M.48599244 .38136292C.48999024 .39537049 .48999024 .39736939 .48999024 .40437318 .48999024 .42237855 .47599793 .43138124 .46099855 .43138124 .45098878 .43138124 .43499757 .42536927 .42599488 .41036988 .42399598 .405365 .41600038 .37435914 .4119873 .35635377 .40499879 .33035279 .397995 .30334474 .3919983 .27633668L.34700013 .09628296C.34298707 .08126831 .2999878 .011245728 .23399353 .011245728 .18299866 .011245728 .17199707 .055267335 .17199707 .0922699 .17199707 .1382904 .18899536 .20030213 .22299195 .28833009 .23899842 .3293457 .24299622 .3403473 .24299622 .36035157 .24299622 .405365 .21099854 .4423828 .16099549 .4423828 .06599426 .4423828 .0289917 .29733277 .0289917 .28833009 .0289917 .27833558 .038986207 .27833558 .040985109 .27833558 .050994874 .27833558 .051986696 .28033448 .056991579 .29634095 .083999637 .3903656 .12399292 .42037965 .1579895 .42037965 .1659851 .42037965 .18299866 .42037965 .18299866 .3883667 .18299866 .36335755 .17298889 .3373413 .1659851 .31834413 .12599182 .21231079 .10798645 .1552887 .10798645 .10827637 .10798645 .019256592 .17098999-.0107421879 .22999573-.0107421879 .2689972-.0107421879 .30299378 .0062561037 .33099366 .03425598 .31799317-.017745972 .30599977-.06674194 .2659912-.11973572 .23999024-.15385437 .20199585-.18309021 .1559906-.18309021 .14199829-.18309021 .09700012-.18005371 .07998657-.14074707 .09599304-.14074707 .10899353-.14074707 .12298584-.1287384 .1329956-.11973572 .14299011-.10673523 .14299011-.08773804 .14299011-.056747438 .115997318-.052734376 .10598755-.052734376 .08299255-.052734376 .049987794-.068740848 .049987794-.11773682 .049987794-.16796875 .09399414-.20507813 .1559906-.20507813 .25898744-.20507813 .3619995-.11373901 .3899994-.00074768069L.48599244 .38136292Z"/>
<path id="font_1_1" d="M.73999026 .4358673C.73999026 .5970001 .6339874 .7050781 .4850006 .7050781 .2689972 .7050781 .04899597 .47790528 .04899597 .24472046 .04899597 .07859802 .16099549-.022460938 .30499269-.022460938 .5169983-.022460938 .73999026 .19668579 .73999026 .4358673M.31098939 .0035247803C.21199036 .0035247803 .14199829 .08459473 .14199829 .21670532 .14199829 .2607422 .1559906 .4068451 .23298645 .52394106 .3019867 .62802127 .3999939 .68006899 .47898866 .68006899 .5609894 .68006899 .651001 .62402346 .651001 .4748993 .651001 .4028473 .6239929 .24671936 .5249939 .12362671 .47698976 .062576297 .394989 .0035247803 .31098939 .0035247803Z"/>
<path id="font_2_1" d="M.55400088 .6796112H.032989503V.64860537H.056991579C.13398743 .64860537 .13598633 .637619 .13598633 .6016388V.07795715C.13598633 .041992189 .13398743 .0309906 .056991579 .0309906H.032989503V0C.067993167 .0029907227 .1459961 .0029907227 .18499756 .0029907227 .22599793 .0029907227 .31698609 .0029907227 .35299684 0V.0309906H.31999208C.22499085 .0309906 .22499085 .04399109 .22499085 .07896423V.6086273C.22499085 .6416168 .22698975 .64860537 .27398683 .64860537H.3769989C.519989 .64860537 .54100039 .5896454 .5569916 .45472718H.58200076L.55400088 .6796112Z"/>
<path id="font_1_2" d="M.2869873 .68333438C.2869873 .6843262 .2869873 .69433596 .27398683 .69433596 .25099183 .69433596 .17799378 .6863251 .1519928 .6843262 .14399719 .68333438 .1329956 .6823273 .1329956 .6643219 .1329956 .6523285 .14199829 .6523285 .15699768 .6523285 .20498657 .6523285 .20698548 .6453247 .20698548 .6353302L.20399475 .6153412 .05899048 .039260866C.054992677 .025253296 .054992677 .023254395 .054992677 .01725769 .054992677-.0057525637 .07499695-.0107421879 .083999637-.0107421879 .099990848-.0107421879 .115997318 .0012512207 .12098694 .015258789L.13999939 .091278079 .1619873 .18130493C.16799927 .2033081 .17399597 .22531128 .1789856 .24832154 .18099976 .25431825 .18899536 .28733827 .18998719 .29333497 .19299317 .30233766 .22399903 .35835267 .2579956 .38536073 .27999879 .4013672 .31098939 .42037965 .35398866 .42037965 .39698792 .42037965 .4079895 .3863678 .4079895 .35035707 .4079895 .29634095 .36999513 .18730164 .34599305 .12628174 .33799745 .103271488 .33299256 .091278079 .33299256 .0712738 .33299256 .024261475 .36799623-.0107421879 .4149933-.0107421879 .5089874-.0107421879 .54599 .13528443 .54599 .14329529 .54599 .1532898 .5369873 .1532898 .5339966 .1532898 .5239868 .1532898 .5239868 .15029907 .5189972 .13528443 .5039978 .08227539 .47200013 .011245728 .4169922 .011245728 .3999939 .011245728 .3929901 .021255494 .3929901 .044265748 .3929901 .0692749 .4019928 .09327698 .41099549 .11528015 .4269867 .15829468 .47200013 .2773285 .47200013 .3353424 .47200013 .4003601 .43199159 .4423828 .35699464 .4423828 .2939911 .4423828 .24598694 .41137696 .20899964 .36535646L.2869873 .68333438Z"/>
<path id="font_1_3" d="M.2869873 .68333438C.2869873 .6843262 .2869873 .69433596 .27398683 .69433596 .25099183 .69433596 .17799378 .6863251 .1519928 .6843262 .14399719 .68333438 .1329956 .6823273 .1329956 .6643219 .1329956 .6523285 .14199829 .6523285 .15699768 .6523285 .20498657 .6523285 .20698548 .6453247 .20698548 .6353302L.20399475 .6153412 .05899048 .039260866C.054992677 .025253296 .054992677 .023254395 .054992677 .01725769 .054992677-.0057525637 .07499695-.0107421879 .083999637-.0107421879 .09700012-.0107421879 .11199951-.0017547608 .117996219 .010253906 .12298584 .019256592 .16799927 .20431519 .17399597 .22932434 .20799256 .22631836 .2899933 .21031189 .2899933 .14428711 .2899933 .13729859 .2899933 .13328552 .2869873 .123291019 .2849884 .11128235 .2829895 .09927368 .2829895 .088272098 .2829895 .029251099 .32299806-.0107421879 .375-.0107421879 .40499879-.0107421879 .43199159 .0052490236 .45399476 .042266847 .47898866 .08627319 .48999024 .14129639 .48999024 .14329529 .48999024 .1532898 .48098756 .1532898 .47799684 .1532898 .46798707 .1532898 .46699525 .14929199 .46398927 .13528443 .44400025 .06227112 .42099 .011245728 .3769989 .011245728 .35798646 .011245728 .34498597 .022247315 .34498597 .058273317 .34498597 .07527161 .34899903 .09828186 .35299684 .11428833 .35699464 .13128662 .35699464 .13528443 .35699464 .14529419 .35699464 .21031189 .2939911 .23931885 .20899964 .2503357 .23999024 .26834107 .27198792 .30033876 .29499818 .32435609 .34298707 .37734986 .3889923 .42037965 .43798829 .42037965 .44400025 .42037965 .44499208 .42037965 .44699098 .41937257 .45899964 .41737367 .45999146 .41737367 .46798707 .4113617 .46998597 .4103546 .46998597 .40934754 .47200013 .40734864 .42399598 .4043579 .4149933 .36535646 .4149933 .35334779 .4149933 .33735658 .42599488 .31835938 .45298768 .31835938 .47898866 .31835938 .5079956 .3403473 .5079956 .37934876 .5079956 .40934754 .4850006 .4423828 .43998719 .4423828 .4119873 .4423828 .3659973 .43437196 .2939911 .35435487 .2599945 .3163452 .22099304 .27633668 .18299866 .26133729L.2869873 .68333438Z"/>
<path id="font_1_4" d="M.46199037 .33935548C.46699525 .36135865 .47698976 .3983612 .47698976 .40437318 .47698976 .42237855 .46299745 .43138124 .44799806 .43138124 .43598939 .43138124 .41799928 .42337037 .41099549 .4033661 .4079895 .3963623 .36099244 .205307 .35398866 .17930603 .34700013 .14929199 .34498597 .13128662 .34498597 .11328125 .34498597 .10227966 .34498597 .10028076 .34599305 .09527588 .32299806 .042266847 .29299928 .011245728 .2539978 .011245728 .17399597 .011245728 .17399597 .08526611 .17399597 .10227966 .17399597 .1342926 .1789856 .17329407 .22599793 .29634095 .23699951 .32633973 .24299622 .3403473 .24299622 .36035157 .24299622 .405365 .20999146 .4423828 .16099549 .4423828 .06599426 .4423828 .0289917 .29733277 .0289917 .28833009 .0289917 .27833558 .038986207 .27833558 .040985109 .27833558 .050994874 .27833558 .051986696 .28033448 .056991579 .29634095 .083999637 .38935853 .12298584 .42037965 .1579895 .42037965 .16699219 .42037965 .18299866 .41937257 .18299866 .38735963 .18299866 .36235047 .17199707 .3343506 .16499329 .31733705 .12098694 .1993103 .10899353 .1532898 .10899353 .11528015 .10899353 .024261475 .17599488-.0107421879 .25099183-.0107421879 .2679901-.0107421879 .31498719-.0107421879 .35499574 .059265138 .3809967-.0047454836 .44999696-.0107421879 .47999574-.0107421879 .5549927-.0107421879 .598999 .052261354 .625 .11227417 .6589966 .19030762 .69099429 .32434083 .69099429 .37236024 .69099429 .42736817 .6639862 .4423828 .6469879 .4423828 .621994 .4423828 .5970001 .41636659 .5970001 .3943634 .5970001 .38136292 .6029968 .3753662 .6119995 .36735536 .6230011 .35635377 .647995 .33035279 .647995 .28233338 .647995 .24832154 .61898806 .15029907 .59298709 .09927368 .5669861 .04626465 .5319977 .011245728 .48298646 .011245728 .43598939 .011245728 .40899659 .041259767 .40899659 .09828186 .40899659 .12628174 .41600038 .1572876 .41999818 .17129517L.46199037 .33935548Z"/>
</defs>
<path transform="matrix(1,0,0,-1,17.705,145.16699)" stroke-width=".3985" stroke-linecap="butt" stroke-miterlimit="10" stroke-linejoin="miter" fill="none" stroke="#000000" d="M-14.17339 0H182.26172"/>
<path transform="matrix(1,0,0,-1,199.96672,145.16699)" d="M1.99252 0-1.19551 1.59401 0 0-1.19551-1.59401"/>
<use data-text="x" xlink:href="#font_1_5" transform="matrix(9.96264,0,0,-9.96264,205.477,152.976)"/>
<path transform="matrix(1,0,0,-1,17.705,145.16699)" stroke-width=".3985" stroke-linecap="butt" stroke-miterlimit="10" stroke-linejoin="miter" fill="none" stroke="#000000" d="M0-14.17339V88.71718"/>
<path transform="matrix(0,-1,-1,-0,17.705,56.449815)" d="M1.99252 0-1.19551 1.59401 0 0-1.19551-1.59401"/>
<use data-text="y" xlink:href="#font_1_6" transform="matrix(9.96264,0,0,-9.96264,8.943,55.633989)"/>
<use data-text="O" xlink:href="#font_1_1" transform="matrix(9.96264,0,0,-9.96264,6.309,155.49399)"/>
<path transform="matrix(1,0,0,-1,17.705,145.16699)" stroke-width=".79701" stroke-linecap="butt" stroke-miterlimit="10" stroke-linejoin="miter" fill="none" stroke="#000000" d="M0 0C0 0 1.03253 .0134 1.42908 .02983 1.82564 .04626 2.46164 .0858 2.85818 .1185 3.25475 .1512 3.89075 .21683 4.2873 .26555 4.68385 .31429 5.31985 .40533 5.7164 .46971 6.11296 .5341 6.74896 .64992 7.14551 .72968 7.54207 .80942 8.17807 .94975 8.57462 1.04457 8.97118 1.13937 9.60718 1.30333 10.00372 1.41309 10.40028 1.52286 11.03627 1.71133 11.43282 1.83568 11.82938 1.96 12.46538 2.1708 12.86192 2.30931 13.25848 2.44781 13.89449 2.68137 14.29103 2.83397 14.68759 2.98659 15.3236 3.24295 15.72014 3.40926 16.1167 3.57555 16.7527 3.8528 17.14925 4.03253 17.5458 4.21227 18.18181 4.51183 18.57835 4.7047 18.97491 4.89758 19.61092 5.21701 20.00746 5.42271 20.40402 5.62843 21.04001 5.96901 21.43655 6.18744 21.83311 6.40588 22.46912 6.7664 22.86566 6.99716 23.26222 7.2279 23.89822 7.6078 24.29477 7.85056 24.69133 8.09329 25.32733 8.49226 25.72388 8.74677 26.12044 9.00128 26.75644 9.41898 27.15298 9.68495 27.54955 9.95091 28.18555 10.38658 28.58209 10.66377 28.97865 10.94096 29.61465 11.39471 30.0112 11.68283 30.40776 11.97096 31.04376 12.44159 31.4403 12.74039 31.83687 13.03918 32.47285 13.52731 32.8694 13.83644 33.26596 14.14555 33.90196 14.64919 34.29851 14.9684 34.69507 15.2876 35.33107 15.80794 35.72762 16.1371 36.12418 16.46628 36.76016 17.0022 37.15672 17.34087 37.55328 17.67952 38.18927 18.23021 38.58583 18.57793 38.98239 18.92563 39.61838 19.49034 40.01494 19.847 40.4115 20.20364 41.04749 20.78308 41.44405 21.1485 41.8406 21.5139 42.47658 22.10683 42.87314 22.48071 43.2697 22.85458 43.90569 23.46118 44.30225 23.84322 44.6988 24.22525 45.3348 24.84454 45.73135 25.23425 46.12791 25.62398 46.7639 26.25482 47.16046 26.65211 47.55702 27.04941 48.19301 27.69293 48.58957 28.09766 48.98613 28.50238 49.62212 29.15752 50.01868 29.56915 50.41524 29.98077 51.05122 30.64609 51.44778 31.06442 51.84435 31.48277 52.48032 32.15959 52.87688 32.58437 53.27344 33.00914 53.90942 33.69504 54.30598 34.12595 54.70255 34.55684 55.33853 35.25305 55.73509 35.69 56.13165 36.12695 56.76764 36.83278 57.1642 37.27524 57.56076 37.71771 58.19675 38.43146 58.5933 38.8791 58.98987 39.32674 59.62585 40.04869 60.02242 40.50154 60.41898 40.95439 61.05496 41.68536 61.45152 42.14302 61.84808 42.60068 62.48407 43.3381 62.88063 43.80008 63.27719 44.26205 63.91316 45.00645 64.30972 45.4727 64.70628 45.93895 65.34227 46.69032 65.73883 47.16046 66.13539 47.6306 66.77138 48.38747 67.16794 48.8612 67.5645 49.33495 68.20049 50.09776 68.59705 50.57492 68.9936 51.05208 69.6296 51.81961 70.02615 52.30032 70.42271 52.78102 71.0587 53.55614 71.45526 54.03955 71.85182 54.52295 72.48781 55.29884 72.88437 55.78441 73.28093 56.26997 73.9169 57.05132 74.31346 57.53922 74.71002 58.02713 75.34601 58.81107 75.74257 59.30095 76.13913 59.79083 76.77512 60.5785 77.17168 61.07002 77.56824 61.56152 78.20422 62.35066 78.60078 62.84343 78.99734 63.33621 79.63333 64.12752 80.02989 64.6216 80.42645 65.11568 81.06244 65.90958 81.459 66.40451 81.85556 66.89944 82.49155 67.69328 82.8881 68.18874 83.28467 68.6842 83.92065 69.47972 84.31721 69.97556 84.71378 70.47137 85.34975 71.26677 85.7463 71.76236 86.14287 72.25795 86.77885 73.05217 87.17542 73.54745 87.57198 74.04274 88.20796 74.83717 88.60452 75.3321 89.00108 75.82704 89.63707 76.62038 90.03363 77.11458 90.43019 77.60878 91.06618 78.40121 91.46274 78.89404 91.8593 79.38689 92.49529 80.17538 92.89185 80.66658 93.2884 81.15779 93.9244 81.94443 94.32095 82.43437 94.71751 82.92432 95.35349 83.70969 95.75005 84.19783 96.1466 84.68599 96.7826 85.46701 97.17915 85.95264 97.57571 86.43826 98.2117 87.21506 98.60826 87.69792 99.00482 88.18079 99.64081 88.95273 100.03737 89.43283 100.43393 89.91295 101.06992 90.68077 101.46648 91.15823 101.86304 91.6357 102.49902 92.40013 102.89558 92.87411 103.29214 93.34808 103.92813 94.10342 104.32469 94.57442 104.72125 95.04541 105.35722 95.80159 105.75378 96.26866 106.15034 96.73575 106.78633 97.47871 107.18289 97.94087 107.57945 98.40302 108.21544 99.14175 108.612 99.59964 109.00856 100.05754 109.64455 100.78827 110.0411 101.24112 110.43767 101.69397 111.07365 102.41606 111.47021 102.86357 111.86678 103.31108 112.50276 104.0241 112.89932 104.46655 113.29588 104.90903 113.93187 105.61536 114.32843 106.05267 114.72499 106.48999 115.36098 107.1874 115.75754 107.61845 116.1541 108.04953 116.79007 108.7347 117.18663 109.15959 117.58319 109.58449 118.21918 110.26237 118.61574 110.68083 119.0123 111.0993 119.64828 111.76399 120.04485 112.17567 120.4414 112.58737 121.0774 113.24309 121.47395 113.64806 121.87051 114.05302 122.5065 114.69681 122.90306 115.09445 123.29962 115.49208 123.93561 116.12407 124.33217 116.51404 124.72873 116.90399 125.36472 117.52322 125.76128 117.90508 126.15784 118.28694 126.79381 118.89258 127.19037 119.26628 127.58693 119.63997 128.22292 120.23303 128.61948 120.5985 129.01604 120.96397 129.65203 121.54335 130.04859 121.90044 130.44515 122.2575 131.08113 122.82425 131.47769 123.17209 131.87425 123.51993 132.51024 124.06895 132.9068 124.40742 133.30336 124.7459 133.93935 125.28238 134.3359 125.61162 134.73247 125.94084 135.36846 126.46095 135.76502 126.78032 136.16158 127.0997 136.79756 127.60397 137.19412 127.91357 137.59069 128.22318 138.22666 128.71288 138.62322 129.0118 139.01978 129.31072 139.65576 129.77867 140.05233 130.06806 140.44889 130.35744 141.08487 130.81844 141.48143 131.09749 141.87799 131.37656 142.51398 131.81279 142.91054 132.07936 143.3071 132.34592 143.94309 132.76432 144.33965 133.01883 144.7362 133.27333 145.3722 133.67107 145.76876 133.91374 146.16532 134.15644 146.8013 134.53714 147.19786 134.768 147.59442 134.99889 148.2304 135.35887 148.62696 135.57773 149.02352 135.79659 149.6595 136.13927 150.05606 136.34548 150.45262 136.55167 151.08861 136.87097 151.48517 137.06392 151.88173 137.25687 152.51772 137.55635 152.91428 137.73609 153.31084 137.91582 153.94683 138.19272 154.34339 138.35938 154.73995 138.52602 155.37593 138.7841 155.77249 138.93724 156.16905 139.0904 156.80504 139.32447 157.2016 139.46321 157.59816 139.60196 158.23413 139.81282 158.63069 139.93727 159.02725 140.06174 159.66324 140.25054 160.0598 140.3603 160.45636 140.47006 161.09235 140.63315 161.4889 140.72838 161.88547 140.82363 162.52146 140.96662 162.91802 141.04673 163.31458 141.12685 163.95056 141.24155 164.34712 141.30582 164.74369 141.37009 165.37967 141.46102 165.77623 141.50998 166.17279 141.55895 166.80878 141.62584 167.20534 141.65879 167.6019 141.69173 168.23789 141.73047 168.63445 141.74745 169.031 141.76444 170.06354 141.78119 170.06354 141.78119"/>
<use data-text="&#x0393;" xlink:href="#font_2_1" transform="matrix(9.96264,0,0,-9.96264,29.729,137.39499)"/>
<path transform="matrix(1,0,0,-1,17.705,145.16699)" stroke-width=".3985" stroke-linecap="butt" stroke-dasharray="2.98883,2.98883" stroke-miterlimit="10" stroke-linejoin="miter" fill="none" stroke="#000000" d="M56.69362 0V36.85092"/>
<path transform="matrix(1,0,0,-1,17.705,145.16699)" stroke-width=".3985" stroke-linecap="butt" stroke-dasharray="2.98883,2.98883" stroke-miterlimit="10" stroke-linejoin="miter" fill="none" stroke="#000000" d="M113.38724 0V65.19774"/>
<use data-text="h" xlink:href="#font_1_2" transform="matrix(9.96264,0,0,-9.96264,71.528,155.605)"/>
<use data-text="k" xlink:href="#font_1_3" transform="matrix(9.96264,0,0,-9.96264,128.341,155.605)"/>
<use data-text="w" xlink:href="#font_1_4" transform="matrix(9.96264,0,0,-9.96264,184.084,152.976)"/>
<path transform="matrix(1,0,0,-1,17.705,145.16699)" d="M114.78201 65.19774C114.78201 65.96805 114.15755 66.59251 113.38724 66.59251 112.61691 66.59251 111.99245 65.96805 111.99245 65.19774 111.99245 64.42741 112.61691 63.80295 113.38724 63.80295 114.15755 63.80295 114.78201 64.42741 114.78201 65.19774ZM113.38724 65.19774"/>
</svg>
