<svg xmlns="http://www.w3.org/2000/svg" xmlns:xlink="http://www.w3.org/1999/xlink" xmlns:inkscape="http://www.inkscape.org/namespaces/inkscape" version="1.1" width="139.948" height="148.154" viewBox="0 0 139.948 148.154">
<defs>
<path id="font_1_2" d="M.73999026 .4358673C.73999026 .5970001 .6339874 .7050781 .4850006 .7050781 .2689972 .7050781 .04899597 .47790528 .04899597 .24472046 .04899597 .07859802 .16099549-.022460938 .30499269-.022460938 .5169983-.022460938 .73999026 .19668579 .73999026 .4358673M.31098939 .0035247803C.21199036 .0035247803 .14199829 .08459473 .14199829 .21670532 .14199829 .2607422 .1559906 .4068451 .23298645 .52394106 .3019867 .62802127 .3999939 .68006899 .47898866 .68006899 .5609894 .68006899 .651001 .62402346 .651001 .4748993 .651001 .4028473 .6239929 .24671936 .5249939 .12362671 .47698976 .062576297 .394989 .0035247803 .31098939 .0035247803Z"/>
<path id="font_2_1" d="M.55400088 .6796112H.032989503V.64860537H.056991579C.13398743 .64860537 .13598633 .637619 .13598633 .6016388V.07795715C.13598633 .041992189 .13398743 .0309906 .056991579 .0309906H.032989503V0C.067993167 .0029907227 .1459961 .0029907227 .18499756 .0029907227 .22599793 .0029907227 .31698609 .0029907227 .35299684 0V.0309906H.31999208C.22499085 .0309906 .22499085 .04399109 .22499085 .07896423V.6086273C.22499085 .6416168 .22698975 .64860537 .27398683 .64860537H.3769989C.519989 .64860537 .54100039 .5896454 .5569916 .45472718H.58200076L.55400088 .6796112Z"/>
<path id="font_3_1" d="M.33499146 .63612368C.33499146 .6630554 .33299256 .6640625 .30499269 .6640625 .24099732 .6014404 .1499939 .6004486 .10899353 .6004486V.5644531C.1329956 .5644531 .19898987 .5644531 .2539978 .592453V.08203125C.2539978 .04899597 .2539978 .035995485 .1539917 .035995485H.115997318V0C.13398743 .0009918213 .25698854 .0039978029 .2939911 .0039978029 .32499696 .0039978029 .45098878 .0009918213 .47299195 0V.035995485H.43499757C.33499146 .035995485 .33499146 .04899597 .33499146 .08203125V.63612368Z"/>
<path id="font_1_1" d="M.7559967 .577652C.7659912 .61763 .7839966 .64860537 .8639984 .6516113 .86898806 .6516113 .8809967 .65260317 .8809967 .6716156 .8809967 .6726074 .8809967 .6826172 .8679962 .6826172 .83499148 .6826172 .7999878 .6796112 .7669983 .6796112 .73298647 .6796112 .69799807 .6826172 .6649933 .6826172 .6589966 .6826172 .6469879 .6826172 .6469879 .6626129 .6469879 .6516113 .6569977 .6516113 .6649933 .6516113 .7220001 .65060427 .73298647 .6296234 .73298647 .6076355 .73298647 .6046295 .73098757 .5896454 .7299957 .5866394L.6179962 .141922 .39698792 .66360476C.3889923 .6816101 .3880005 .6826172 .36499024 .6826172H.23098755C.21099854 .6826172 .20199585 .6826172 .20199585 .6626129 .20199585 .6516113 .21099854 .6516113 .22999573 .6516113 .23498535 .6516113 .2979889 .6516113 .2979889 .64260867L.1639862 .10594177C.1539917 .065963748 .13699341 .033996583 .055999757 .0309906 .049987794 .0309906 .038986207 .02999878 .038986207 .010986328 .038986207 .0039978029 .04399109 0 .051986696 0 .083999637 0 .11898804 .0029907227 .1519928 .0029907227 .18598938 .0029907227 .22200012 0 .25498963 0 .2599945 0 .272995 0 .272995 .019989014 .272995 .02999878 .2639923 .0309906 .25299073 .0309906 .19499207 .032989503 .18699646 .054977418 .18699646 .07496643 .18699646 .081954959 .18798828 .08695984 .19099427 .09794617L.32299806 .6256256C.32699586 .6196289 .32699586 .61763 .33198548 .6076355L.58099368 .018997193C.58799746 .0019989014 .59098818 0 .59999087 0 .61099246 0 .61099246 .0029907227 .6159973 .020996094L.7559967 .577652Z"/>
</defs>
<path transform="matrix(1,0,0,-1,17.705,131.51702)" stroke-width=".3985" stroke-linecap="butt" stroke-miterlimit="10" stroke-linejoin="miter" fill="none" stroke="#000000" d="M-8.50412 0H117.06398"/>
<path transform="matrix(1,0,0,-1,134.76898,131.51702)" d="M1.99252 0-1.19551 1.59401 0 0-1.19551-1.59401"/>
<path transform="matrix(1,0,0,-1,17.705,131.51702)" stroke-width=".3985" stroke-linecap="butt" stroke-miterlimit="10" stroke-linejoin="miter" fill="none" stroke="#000000" d="M0-8.50412V117.06398"/>
<path transform="matrix(0,-1,-1,-0,17.705,14.453033)" d="M1.99252 0-1.19551 1.59401 0 0-1.19551-1.59401"/>
<use data-text="O" xlink:href="#font_1_2" transform="matrix(9.96264,0,0,-9.96264,6.309,141.84502)"/>
<path transform="matrix(1,0,0,-1,17.705,131.51702)" stroke-width=".79701" stroke-linecap="butt" stroke-miterlimit="10" stroke-linejoin="miter" fill="none" stroke="#000000" d="M39.68535 11.33855C39.68535 11.33855 41.39197 11.38661 42.04744 11.44667 42.7029 11.50673 43.75407 11.65137 44.40953 11.77151 45.065 11.89165 46.11615 12.13239 46.77162 12.3126 47.42708 12.49283 48.47824 12.83014 49.1337 13.07042 49.78917 13.31071 50.84033 13.74413 51.4958 14.0445 52.15126 14.34485 53.20242 14.87476 53.85788 15.23526 54.51335 15.59576 55.56451 16.22218 56.21999 16.64275 56.87544 17.06331 57.9266 17.78586 58.58206 18.2665 59.23753 18.74713 60.2887 19.56622 60.94417 20.10695 61.59962 20.64767 62.65079 21.56287 63.30624 22.16367 63.96172 22.76447 65.01286 23.77621 65.66833 24.43709 66.32379 25.09795 67.37497 26.20576 68.03043 26.92677 68.6859 27.64777 69.73705 28.85251 70.39252 29.63359 71.04797 30.41467 72.09915 31.71516 72.75461 32.55626 73.41008 33.39735 74.46123 34.79434 75.1167 35.69562 75.77216 36.5969 76.82333 38.09082 77.47879 39.05211 78.13425 40.01341 79.18541 41.60266 79.84088 42.62401 80.49634 43.64537 81.54752 45.33203 82.20297 46.41347 82.85843 47.4949 83.90959 49.27682 84.56506 50.41833 85.22052 51.55986 86.27168 53.4392 86.92714 54.64078 87.5826 55.84238 88.63377 57.81696 89.28925 59.07861 89.9447 60.34027 90.99586 62.41211 91.65132 63.73402 92.30678 65.05595 93.35796 67.22426 94.01341 68.60614 94.66888 69.98802 96.3755 73.69365 96.3755 73.69365"/>
<use data-text="&#x0393;" xlink:href="#font_2_1" transform="matrix(9.96264,0,0,-9.96264,108.735,13.11702)"/>
<use data-text="1" xlink:href="#font_3_1" transform="matrix(6.97385,0,0,-6.97385,114.961,14.612015)"/>
<path transform="matrix(1,0,0,-1,17.705,131.51702)" d="M75.29591 33.78941C75.29591 34.66978 74.58223 35.38347 73.70186 35.38347 72.82149 35.38347 72.1078 34.66978 72.1078 33.78941 72.1078 32.90904 72.82149 32.19536 73.70186 32.19536 74.58223 32.19536 75.29591 32.90904 75.29591 33.78941ZM73.70186 33.78941"/>
<use data-text="N" xlink:href="#font_1_1" transform="matrix(9.96264,0,0,-9.96264,94.926,101.132)"/>
</svg>
