<svg xmlns="http://www.w3.org/2000/svg" xmlns:xlink="http://www.w3.org/1999/xlink" xmlns:inkscape="http://www.inkscape.org/namespaces/inkscape" version="1.1" width="116.78" height="153.052" viewBox="0 0 116.78 153.052">
<defs>
<path id="font_1_1" d="M.1789856 .114868167C.13899231 .047973634 .099990848 .033981325 .055999757 .0309906 .04399109 .02999878 .034988405 .02999878 .034988405 .010986328 .034988405 .004989624 .039993287 0 .04798889 0 .07499695 0 .10598755 .0029907227 .13398743 .0029907227 .16699219 .0029907227 .20199585 0 .23399353 0 .23999024 0 .25299073 0 .25299073 .018997193 .25299073 .02999878 .24398804 .0309906 .23699951 .0309906 .21398926 .032989503 .18998719 .04096985 .18998719 .06593323 .18998719 .077926639 .19599915 .088897708 .20399475 .102890018L.27999879 .23068238H.5309906C.5329895 .2097168 .5469971 .07392883 .5469971 .063949588 .5469971 .033981325 .49499513 .0309906 .47499085 .0309906 .46099855 .0309906 .45098878 .0309906 .45098878 .010986328 .45098878 0 .46299745 0 .46499635 0 .5059967 0 .548996 .0029907227 .58999636 .0029907227 .61499026 .0029907227 .6779938 0 .7029877 0 .70899966 0 .72099307 0 .72099307 .019989014 .72099307 .0309906 .71099856 .0309906 .69799807 .0309906 .6359863 .0309906 .6359863 .037979127 .6329956 .06694031L.57199099 .691803C.56999209 .71180728 .56999209 .7158203 .5529938 .7158203 .5369873 .7158203 .5329895 .7088165 .5269928 .69880679L.1789856 .114868167M.29899598 .26168824 .49598695 .5917816 .5279999 .26168824H.29899598Z"/>
<path id="font_1_2" d="M.1599884 .07795715C.1499939 .038986207 .147995 .0309906 .068984989 .0309906 .051986696 .0309906 .041992189 .0309906 .041992189 .010986328 .041992189 0 .050994874 0 .068984989 0H.42599488C.58399966 0 .70199587 .11791992 .70199587 .21585083 .70199587 .28778077 .6439972 .3457489 .5469971 .35673524 .651001 .37573243 .7559967 .44970704 .7559967 .5446625 .7559967 .6186218 .6899872 .6826172 .56999209 .6826172H.23399353C.21499634 .6826172 .20498657 .6826172 .20498657 .6626129 .20498657 .6516113 .21398926 .6516113 .23298645 .6516113 .23498535 .6516113 .2539978 .6516113 .2709961 .6496124 .2889862 .6476135 .2979889 .64660647 .2979889 .6336212 .2979889 .6296234 .29699708 .62661746 .2939911 .614624L.1599884 .07795715M.31098939 .36573792 .37298585 .6136322C.38198854 .64860537 .38398744 .6516113 .4269867 .6516113H.55599978C.6439972 .6516113 .6649933 .5926361 .6649933 .5486603 .6649933 .46069337 .57899478 .36573792 .45700074 .36573792H.31098939M.2659912 .0309906C.2519989 .0309906 .25 .0309906 .24398804 .03199768 .23399353 .032989503 .23098755 .033996583 .23098755 .04197693 .23098755 .04498291 .23098755 .04698181 .23599243 .064971927L.30499269 .34375H.49398805C.58999636 .34375 .60899356 .2698059 .60899356 .22683716 .60899356 .12791443 .519989 .0309906 .4019928 .0309906H.2659912Z"/>
<path id="font_1_3" d="M.7599945 .69506838C.7599945 .69807437 .7579956 .7050781 .7489929 .7050781 .74598696 .7050781 .7449951 .70407107 .73399356 .69306948L.6639862 .61602786C.6549988 .6300354 .60899356 .7050781 .49798585 .7050781 .2749939 .7050781 .049987794 .48391725 .049987794 .25172425 .049987794 .08659363 .16799927-.022460938 .32099916-.022460938 .4079895-.022460938 .48399354 .017532349 .5369873 .063583377 .6299896 .14564514 .6469879 .2367096 .6469879 .23971558 .6469879 .24972534 .6369934 .24972534 .6349945 .24972534 .6289978 .24972534 .6239929 .24772644 .621994 .23971558 .61299136 .21069336 .58999636 .13963318 .5209961 .081588748 .45199586 .025543213 .3889923 .008529663 .33699037 .008529663 .24699402 .008529663 .14099121 .060577394 .14099121 .21670532 .14099121 .27374269 .1619873 .43588258 .2619934 .55296328 .32299806 .62402346 .4169922 .67407229 .5059967 .67407229 .60798647 .67407229 .6669922 .5970001 .6669922 .48091126 .6669922 .44088746 .6639862 .43988038 .6639862 .4298706 .6639862 .41986085 .6749878 .41986085 .67900088 .41986085 .69200137 .41986085 .69200137 .42185975 .69699099 .43988038L.7599945 .69506838Z"/>
<path id="font_1_4" d="M.30299378 .3157959H.47299195C.61499026 .3157959 .7539978 .41973878 .7539978 .53167727 .7539978 .6086273 .6879883 .6826172 .5569916 .6826172H.23298645C.21398926 .6826172 .20298767 .6826172 .20298767 .66360476 .20298767 .6516113 .21199036 .6516113 .23199463 .6516113 .24499512 .6516113 .2630005 .65060427 .2749939 .6496124 .29100038 .6476135 .29699708 .64460757 .29699708 .6336212 .29699708 .6296234 .29599 .62661746 .29299928 .614624L.15899658 .07795715C.14898682 .038986207 .14698792 .0309906 .067993167 .0309906 .050994874 .0309906 .039993287 .0309906 .039993287 .011993408 .039993287 0 .051986696 0 .054992677 0 .08299255 0 .1539917 .0029907227 .18199158 .0029907227 .20298767 .0029907227 .22499085 .0019989014 .24598694 .0019989014 .2679901 .0019989014 .2899933 0 .31098939 0 .31799317 0 .33099366 0 .33099366 .019989014 .33099366 .0309906 .32199098 .0309906 .30299378 .0309906 .2659912 .0309906 .23799134 .0309906 .23799134 .048980714 .23799134 .054977418 .23999024 .05996704 .24099732 .065963748L.30299378 .3157959M.375 .6136322C.38398744 .64860537 .38598634 .6516113 .42900086 .6516113H.5249939C.60798647 .6516113 .6609955 .62461856 .6609955 .55566409 .6609955 .5166931 .6409912 .43074037 .60198977 .39476014 .5519867 .34977723 .49198915 .34179688 .44799806 .34179688H.30699159L.375 .6136322Z"/>
<path id="font_2_54" d="M.6100006 .45477296 .58200076 .6796875H.032989503V.64868167H.056991579C.13398743 .64868167 .13598633 .63768008 .13598633 .6016998V.07797241C.13598633 .041992189 .13398743 .0309906 .056991579 .0309906H.032989503V0C.067993167 .0029907227 .1459961 .0029907227 .18499756 .0029907227 .22599793 .0029907227 .31698609 .0029907227 .35299684 0V.0309906H.31999208C.22499085 .031188965 .22499085 .044189454 .22499085 .079193118V.3251953H.31098939C.40699769 .3251953 .4169922 .29318238 .4169922 .20819092H.44198609V.4731903H.4169922C.4169922 .38919068 .40699769 .3561859 .31098939 .3561859H.22499085V.6091919C.22499085 .64167788 .22698975 .64868167 .27398683 .64868167H.3939972C.5439911 .64868167 .56900027 .5926819 .58499148 .4546814L.6100006 .45477296Z"/>
<path id="font_2_66" d="M.24699402 0V.0309906C.18099976 .0309906 .1769867 .035995485 .1769867 .075042728V.4423828L.036987306 .43066407V.3996582C.101989749 .3996582 .11099243 .3936615 .11099243 .3447113V.07595825C.11099243 .0309906 .099990848 .0309906 .032989503 .0309906V0L.14299011 .0029907227C.17799378 .0029907227 .21299744 .0009918213 .24699402 0M.19198609 .603775C.19198609 .6307678 .16899109 .6567688 .13899231 .6567688 .10499573 .6567688 .084991458 .6287689 .084991458 .603775 .084991458 .57676699 .10798645 .55078127 .13798523 .55078127 .17199707 .55078127 .19198609 .5787811 .19198609 .603775Z"/>
<path id="font_2_59" d="M.4850006 .40411378C.4850006 .42111207 .47299195 .453125 .43399049 .453125 .4139862 .453125 .36999513 .44711305 .32798768 .40611268 .28599549 .43937684 .24398804 .4423828 .22200012 .4423828 .1289978 .4423828 .05999756 .37338258 .05999756 .29638673 .05999756 .25239564 .08198547 .21440125 .10699463 .19340515 .09399414 .17840576 .07598877 .14538574 .07598877 .11035156 .07598877 .07899475 .08898926 .04083252 .11999512 .020828248 .05999756 .003829956 .027999878-.039138795 .027999878-.07911682 .027999878-.15107727 .1269989-.20605469 .24899292-.20605469 .36698915-.20605469 .47099305-.15507508 .47099305-.07711792 .47099305-.042144777 .45700074 .008834839 .4059906 .036834718 .35299684 .064834598 .29499818 .064834598 .23399353 .064834598 .20899964 .064834598 .1659851 .064834598 .15899658 .065841678 .1269989 .069885257 .10598755 .101242069 .10598755 .13334656 .10598755 .13735962 .10598755 .16040039 .12298584 .18040467 .1619873 .15240479 .20298767 .14941406 .22200012 .14941406 .31498719 .14941406 .38398744 .21839905 .38398744 .2953949 .38398744 .3323822 .36799623 .36938478 .34298707 .39237977 .3789978 .42637635 .4149933 .43138124 .43299867 .43138124 .43299867 .43112184 .43998719 .43112184 .44299317 .43011476 .43199159 .42611695 .4269867 .41513063 .4269867 .40315248 .4269867 .38616944 .43998719 .37417604 .45599366 .37417604 .46598817 .37417604 .4850006 .3811798 .4850006 .4041443V.40411378M.30899049 .29626466C.30899049 .26930238 .30799867 .2373352 .29299928 .21235657 .2849884 .20037842 .2619934 .17240906 .22200012 .17240906 .1349945 .17240906 .1349945 .2722931 .1349945 .29527284 .1349945 .3222351 .13598633 .35420228 .15098572 .3791809 .15899658 .3913269 .18199158 .41937257 .22200012 .41937257 .30899049 .41937257 .30899049 .31922914 .30899049 .29618836V.29626466M.4189911-.07911682C.4189911-.13308716 .34799195-.18305969 .25-.18305969 .14898682-.18305969 .07998657-.13209534 .07998657-.07911682 .07998657-.03314209 .117996219 .003829956 .1619873 .0068359377H.22099304C.30699159 .0068359377 .4189911 .0068359377 .4189911-.07911682Z"/>
<path id="font_2_109" d="M.5349884 0V.0309906C.46499635 .0309906 .45700074 .037994386 .45700074 .08705139V.4423828L.30999757 .43066407V.3996582C.37998963 .3996582 .3880005 .39266969 .3880005 .34373475V.16601563C.3880005 .07910156 .33999635 .011245728 .2669983 .011245728 .18299866 .011245728 .1789856 .058135988 .1789856 .11009216V.4423828L.03199768 .43066407V.3996582C.10998535 .3996582 .10998535 .39666749 .10998535 .3078003V.15802002C.10998535 .080093387 .10998535-.0107421879 .2619934-.0107421879 .31799317-.0107421879 .3619995 .017242432 .3909912 .07910156V-.0107421879L.5349884 0Z"/>
<path id="font_2_96" d="M.3639984 .38137818C.3639984 .41337586 .33299256 .4423828 .2899933 .4423828 .21699524 .4423828 .18099976 .37538148 .16699219 .3323822V.4423828L.027999878 .43066407V.3996582C.09799194 .3996582 .10598755 .39266969 .10598755 .34370423V.07595825C.10598755 .0309906 .09498596 .0309906 .027999878 .0309906V0L.14199829 .0029907227C.18199158 .0029907227 .22898865 .0029907227 .2689972 0V.0309906H.24798584C.17399597 .0309906 .17199707 .04197693 .17199707 .07795715V.23181153C.17199707 .33137513 .21398926 .42037965 .2899933 .42037965 .29699708 .42037965 .29899598 .42037965 .30099488 .41937257 .2979889 .41838075 .27799989 .40637208 .27799989 .3803711 .27799989 .35237123 .29899598 .33737184 .32099916 .33737184 .33898927 .33737184 .3639984 .3493805 .3639984 .38137818Z"/>
<path id="font_2_28" d="M.48298646 .08912659V.14511109H.45799256V.08912659C.45799256 .03112793 .43299867 .025131226 .42199708 .025131226 .3889923 .025131226 .3849945 .070129398 .3849945 .07511902V.27508546C.3849945 .31707765 .3849945 .3560791 .34899903 .39312745 .30999757 .43223573 .2599945 .4482422 .21199036 .4482422 .12998963 .4482422 .06098938 .40115357 .06098938 .335083 .06098938 .30508424 .08099365 .28808595 .10699463 .28808595 .1349945 .28808595 .15299988 .30807496 .15299988 .33407594 .15299988 .3460846 .147995 .37908937 .101989749 .38008119 .1289978 .41519166 .17799378 .426239 .20999146 .426239 .25898744 .426239 .31599427 .38710023 .31599427 .29808045V.26107789C.2649994 .25808717 .19499207 .25508119 .13198853 .22509766 .056991579 .19110108 .03199768 .13911438 .03199768 .09512329 .03199768 .014251709 .1289978-.0107421879 .19198609-.0107421879 .2579956-.0107421879 .3039856 .029251099 .32299806 .07624817 .32699586 .036132814 .35398866-.005859375 .40098573-.005859375 .42199708-.005859375 .48298646 .008132935 .48298646 .08912659M.31599427 .14013672C.31599427 .04525757 .24398804 .011245728 .19898987 .011245728 .1499939 .011245728 .10899353 .04624939 .10899353 .09625244 .10899353 .15124512 .15098572 .23425293 .31599427 .24024964V.14013672Z"/>
<path id="font_2_82" d="M.4189911 0V.0309906H.3869934C.29699708 .0309906 .2939911 .041992189 .2939911 .07902527V.64012148C.2939911 .6640167 .2939911 .6660156 .2709961 .6660156 .20899964 .60227969 .12098694 .60227969 .08898926 .60227969V.57128909C.10899353 .57128909 .16799927 .57128909 .21998596 .5972748V.07902527C.21998596 .042999269 .21699524 .0309906 .1269989 .0309906H.09498596V0C.12998963 .0029907227 .21699524 .0029907227 .25698854 .0029907227 .29699708 .0029907227 .38398744 .0029907227 .4189911 0Z"/>
</defs>
<path transform="matrix(1,0,0,-1,58.39,66.899)" stroke-width=".79701" stroke-linecap="butt" stroke-linejoin="round" fill="none" stroke="#000000" d="M0 63.51254 55.00357 31.75624V-31.75624L0-63.51254-55.00357-31.75624V31.75624Z"/>
<path transform="matrix(1,0,0,-1,58.39,66.899)" stroke-width=".79701" stroke-linecap="butt" stroke-linejoin="round" fill="none" stroke="#000000" d="M0 0 55.00357 31.75624"/>
<path transform="matrix(1,0,0,-1,58.39,66.899)" stroke-width=".79701" stroke-linecap="butt" stroke-linejoin="round" fill="none" stroke="#000000" d="M0 0V-63.51254"/>
<path transform="matrix(1,0,0,-1,58.39,66.899)" stroke-width=".79701" stroke-linecap="butt" stroke-linejoin="round" fill="none" stroke="#000000" d="M0 0-55.00357 31.75624"/>
<use data-text="A" xlink:href="#font_1_1" transform="matrix(9.96264,0,0,-9.96264,27.16,54.429)"/>
<use data-text="B" xlink:href="#font_1_2" transform="matrix(9.96264,0,0,-9.96264,54.362,104.319)"/>
<use data-text="C" xlink:href="#font_1_3" transform="matrix(9.96264,0,0,-9.96264,83.932,53.295)"/>
<path transform="matrix(1,0,0,-1,58.39,66.899)" d="M-23.03256 0C-23.03256 1.05644-23.88896 1.91284-24.9454 1.91284-26.00185 1.91284-26.85826 1.05644-26.85826 0-26.85826-1.05644-26.00185-1.91284-24.9454-1.91284-23.88896-1.91284-23.03256-1.05644-23.03256 0ZM-24.9454 0"/>
<use data-text="P" xlink:href="#font_1_4" transform="matrix(9.96264,0,0,-9.96264,22.145,77.227008)"/>
<path transform="matrix(1,0,0,-1,58.39,66.899)" stroke-width=".79701" stroke-linecap="butt" stroke-linejoin="round" fill="none" stroke="#000000" d="M16.50122 9.52693C16.93262 9.77599 16.84944 10.4182 17.28082 10.66725 17.59315 10.84756 18.00818 10.75037 18.44249 10.6477 18.87675 10.54506 19.29181 10.44783 19.60414 10.62816 19.91647 10.80846 20.03981 11.21648 20.16806 11.64395 20.29633 12.07137 20.41963 12.47942 20.73198 12.65974 21.0443 12.84006 21.45934 12.74286 21.89363 12.6402 22.32791 12.53755 22.74295 12.44032 23.0553 12.62065 23.36761 12.80095 23.49095 13.20897 23.61922 13.63644 23.74747 14.06386 23.87079 14.47191 24.18314 14.65224 24.49545 14.83255 24.91049 14.73535 25.34479 14.63269 25.77907 14.53004 26.1941 14.43282 26.50645 14.61314 26.81877 14.79344 26.94211 15.20146 27.07037 15.62894 27.19862 16.05635 27.32195 16.4644 27.6343 16.64473 27.94661 16.82504 28.36163 16.72784 28.79594 16.62518 29.23022 16.52254 29.64526 16.42531 29.95761 16.60564 30.26993 16.78593 30.39326 17.19395 30.52151 17.62143 30.64978 18.04884 30.7731 18.4569 31.08543 18.63722 31.39777 18.81754 31.81279 18.72034 32.2471 18.61768 32.68137 18.51503 33.09642 18.4178 33.40875 18.59813 33.72108 18.77843 33.84442 19.18646 33.97267 19.61392 34.10094 20.04134 34.22426 20.44939 34.53659 20.62971 34.84892 20.81003 35.26395 20.71283 35.69826 20.61017 36.13252 20.50752 36.54758 20.4103 36.85991 20.59062 37.17224 20.77092 37.29556 21.17896 37.42383 21.60641 37.5521 22.03383 37.6754 22.44188 37.98775 22.62221 38.30006 22.80252 38.7151 22.70532 39.1494 22.60266 39.58368 22.50002 39.99872 22.40279 40.31107 22.58311 40.62338 22.76341 40.74672 23.17145 40.87498 23.5989 41.00323 24.02632 41.12656 24.43437 41.4389 24.6147 41.75122 24.79501 42.16624 24.69781 42.60056 24.59515 43.03484 24.49251 43.44987 24.39528 43.76222 24.5756 44.07454 24.7559 44.19788 25.16394 44.32614 25.5914 44.45439 26.01881 44.57771 26.42686 44.89005 26.6072 45.32144 26.85625 45.83601 26.4631 46.2674 26.71216L46.75336 26.99297"/>
<path transform="matrix(1,0,0,-1,58.39,66.899)" stroke-width=".79701" stroke-linecap="butt" stroke-linejoin="round" fill="none" stroke="#000000" d="M0-19.05392C0-19.55206 .59776-19.80113 .59776-20.29927 .59776-20.65993 .30606-20.97076 0-21.29555-.30605-21.62033-.59776-21.93117-.59776-22.29182-.59776-22.65248-.30606-22.96332 0-23.2881 .30605-23.61288 .59776-23.92372 .59776-24.28438 .59776-24.64503 .30606-24.95587 0-25.28065-.30605-25.60544-.59776-25.91628-.59776-26.27693-.59776-26.63759-.30606-26.94843 0-27.27321 .30605-27.59799 .59776-27.90883 .59776-28.26949 .59776-28.63014 .30606-28.94098 0-29.26576-.30605-29.59055-.59776-29.90138-.59776-30.26204-.59776-30.6227-.30606-30.93353 0-31.25832 .30605-31.5831 .59776-31.89394 .59776-32.2546 .59776-32.61525 .30606-32.92609 0-33.25087-.30605-33.57565-.59776-33.88649-.59776-34.24715-.59776-34.6078-.30606-34.91864 0-35.24342 .30605-35.5682 .59776-35.87904 .59776-36.2397 .59776-36.60036 .30606-36.9112 0-37.23598-.30605-37.56076-.59776-37.8716-.59776-38.23225-.59776-38.59291-.30606-38.90375 0-39.22853 .30605-39.55331 .59776-39.86415 .59776-40.22481 .59776-40.58546 .30606-40.8963 0-41.22108-.30605-41.54587-.59776-41.8567-.59776-42.21736-.59776-42.57802-.30606-42.88885 0-43.21364 .30605-43.53842 .59776-43.84926 .59776-44.20992 .59776-44.57057 .30606-44.88141 0-45.20619-.30605-45.53098-.59776-45.84181-.59776-46.20247-.59776-46.56313-.30606-46.87396 0-47.19875 .30605-47.52353 .59776-47.83437 .59776-48.19502 .59776-48.55568 .30606-48.86652 0-49.1913-.30605-49.51608-.59776-49.82692-.59776-50.18758-.59776-50.54823-.30606-50.85907 0-51.18385 .30605-51.50864 .59776-51.81947 .59776-52.18013 .59776-52.67827 0-52.92734 0-53.42548V-53.98604"/>
<path transform="matrix(1,0,0,-1,58.39,66.899)" stroke-width=".79701" stroke-linecap="butt" stroke-linejoin="round" fill="none" stroke="#000000" d="M-16.50122 9.52693C-16.93262 9.77599-17.44717 9.38286-17.87857 9.63191-18.19089 9.81221-18.31422 10.22023-18.44249 10.6477-18.57074 11.07512-18.69406 11.48317-19.00641 11.6635-19.31873 11.84381-19.73375 11.74661-20.16806 11.64395-20.60234 11.5413-21.01738 11.44408-21.32973 11.6244-21.64204 11.8047-21.76538 12.21272-21.89363 12.6402-22.0219 13.06761-22.14522 13.47566-22.45755 13.65599-22.76988 13.8363-23.1849 13.7391-23.61922 13.63644-24.0535 13.5338-24.46854 13.43657-24.78087 13.6169-25.0932 13.7972-25.21654 14.20522-25.34479 14.63269-25.47305 15.0601-25.59637 15.46815-25.9087 15.64848-26.22104 15.8288-26.63606 15.7316-27.07037 15.62894-27.50464 15.52629-27.9197 15.42906-28.23203 15.60939-28.54436 15.78969-28.66768 16.19771-28.79594 16.62518-28.92421 17.0526-29.04752 17.46065-29.35986 17.64098-29.67218 17.82129-30.08722 17.72409-30.52151 17.62143-30.9558 17.51878-31.37083 17.42155-31.68318 17.60188-31.9955 17.78218-32.11884 18.19022-32.2471 18.61768-32.37535 19.04509-32.49867 19.45314-32.81102 19.63347-33.12334 19.81378-33.53838 19.71658-33.97267 19.61392-34.40695 19.51128-34.82199 19.41405-35.13434 19.59438-35.44666 19.77467-35.56999 20.18271-35.69826 20.61017-35.8265 21.03758-35.94983 21.44563-36.26216 21.62596-36.5745 21.80627-36.98952 21.70908-37.42383 21.60641-37.85811 21.50377-38.27315 21.40654-38.58548 21.58687-38.89781 21.76717-39.02115 22.1752-39.1494 22.60266-39.27766 23.03008-39.40099 23.43813-39.71332 23.61845-40.02565 23.79877-40.44067 23.70157-40.87498 23.5989-41.30925 23.49626-41.7243 23.39903-42.03664 23.57936-42.34897 23.75966-42.4723 24.1677-42.60056 24.59515-42.72882 25.02257-42.85214 25.43062-43.16447 25.61095-43.4768 25.79126-43.89183 25.69406-44.32614 25.5914-44.7604 25.48875-45.17545 25.39153-45.4878 25.57185-45.91917 25.8209-45.83601 26.4631-46.2674 26.71216L-46.75336 26.99297"/>
<use data-text="F" xlink:href="#font_2_54" transform="matrix(9.96264,0,0,-9.96264,39.899003,144.69)"/>
<use data-text="i" xlink:href="#font_2_66" transform="matrix(9.96264,0,0,-9.96264,46.404607,144.69)"/>
<use data-text="g" xlink:href="#font_2_59" transform="matrix(9.96264,0,0,-9.96264,49.17422,144.69)"/>
<use data-text="u" xlink:href="#font_2_109" transform="matrix(9.96264,0,0,-9.96264,54.15554,144.69)"/>
<use data-text="r" xlink:href="#font_2_96" transform="matrix(9.96264,0,0,-9.96264,59.694768,144.69)"/>
<use data-text="a" xlink:href="#font_2_28" transform="matrix(9.96264,0,0,-9.96264,63.60012,144.69)"/>
<use data-text="1" xlink:href="#font_2_82" transform="matrix(9.96264,0,0,-9.96264,71.899,144.69)"/>
</svg>
