<svg xmlns="http://www.w3.org/2000/svg" xmlns:xlink="http://www.w3.org/1999/xlink" xmlns:inkscape="http://www.inkscape.org/namespaces/inkscape" version="1.1" width="145.606" height="114.228" viewBox="0 0 145.606 114.228">
<defs>
<path id="font_1_3" d="M.84298709 .6901245C.84298709 .69511416 .83999636 .703125 .8299866 .703125 .82299807 .703125 .82099917 .70111086 .81199648 .69111636L.7389984 .61413577C.7299957 .62612918 .673996 .703125 .5509949 .703125 .30799867 .703125 .069992069 .48820497 .069992069 .2623291 .069992069 .09941101 .19799805-.01953125 .3769989-.01953125 .43099977-.01953125 .5269928-.008544922 .6299896 .078430179 .70899966 .14538574 .73098757 .23234558 .73098757 .24034119 .73098757 .25334168 .71899417 .25334168 .71398928 .25334168 .70098879 .25334168 .69898989 .24833679 .69599917 .23735047 .6549988 .10041809 .5149994 .016464234 .3939972 .016464234 .28799439 .016464234 .16999817 .07342529 .16999817 .23135376 .16999817 .2603302 .1769867 .4182434 .2919922 .5441742 .36099244 .6211395 .46598817 .66711428 .5609894 .66711428 .6769867 .66711428 .7449951 .5831604 .7449951 .47122193 .7449951 .4432373 .74198916 .43623353 .74198916 .43023683 .74198916 .4172516 .7549896 .4172516 .7599945 .4172516 .776001 .4172516 .776001 .4202423 .7809906 .4392395L.84298709 .6901245Z"/>
<path id="font_1_2" d="M.18998719 .07797241C.18099976 .04399109 .1789856 .035995485 .101989749 .035995485 .084991458 .035995485 .07199097 .035995485 .07199097 .01499939 .07199097 0 .083999637 0 .101989749 0H.4889984C.6569977 0 .7859955 .11494446 .7859955 .21388245 .7859955 .28485108 .72099307 .34580995 .61499026 .35681153 .73599246 .37879945 .83699038 .4547577 .83699038 .54067996 .83699038 .6166382 .7599945 .6826172 .6299896 .6826172H.2659912C.24699402 .6826172 .23399353 .6826172 .23399353 .660614 .23399353 .64660647 .24598694 .64660647 .2659912 .64660647 .2669983 .64660647 .28599549 .64660647 .3039856 .64460757 .32499696 .64260867 .32699586 .64060977 .32699586 .63061526 .32699586 .62861636 .32699586 .6236267 .32299806 .6086426L.18998719 .07797241M.34999085 .3688202 .41099549 .6126404C.4189911 .6436157 .41999818 .64660647 .46199037 .64660647H.6139984C.71598818 .64660647 .7389984 .57966616 .7389984 .541687 .7389984 .46073915 .647995 .3688202 .5139923 .3688202H.34999085M.3019867 .035995485C.2709961 .035995485 .269989 .036987306 .269989 .04598999 .269989 .04698181 .269989 .051986696 .27398683 .066970828L.34298707 .3408203H.5549927C.6489868 .3408203 .68499758 .27885438 .68499758 .22088623 .68499758 .12194824 .58399966 .035995485 .46299745 .035995485H.3019867Z"/>
<path id="font_1_1" d="M.20599365 .11984253C.17098999 .06594849 .13899231 .039978029 .07998657 .035995485 .069992069 .034988405 .056991579 .034988405 .056991579 .01499939 .056991579 .0039978029 .06599426 0 .070999149 0 .09700012 0 .12998963 .0039978029 .15699768 .0039978029 .18899536 .0039978029 .22999573 0 .2599945 0 .2649994 0 .27999879 0 .27999879 .021987915 .27999879 .034988405 .2669983 .035995485 .2630005 .035995485 .25498963 .036987306 .21899414 .038986207 .21899414 .06594849 .21899414 .077926639 .22898865 .09489441 .23399353 .103881839L.31399537 .22766114H.59999087L.6239929 .061950685C.6199951 .051971437 .6139984 .035995485 .5549927 .035995485 .54299929 .035995485 .5289917 .035995485 .5289917 .01399231 .5289917 .009994507 .5319977 0 .54499819 0 .57398989 0 .644989 .0039978029 .673996 .0039978029 .69200137 .0039978029 .71499636 .0029907227 .73298647 .0029907227 .7509918 .0019989014 .7719879 0 .7899933 0 .8029938 0 .80999758 .0079956059 .80999758 .020996094 .80999758 .035995485 .7979889 .035995485 .7819977 .035995485 .723999 .035995485 .7220001 .04397583 .71899417 .06793213L.6309967 .6848755C.6279907 .70588687 .6259918 .7128906 .6069946 .7128906 .58799746 .7128906 .58200076 .70388796 .57299807 .6898804L.20599365 .11984253M.33799745 .26367188 .5479889 .5908356 .59498599 .26367188H.33799745Z"/>
<path id="font_1_4" d="M.42199708 .38238526C.40098573 .41540528 .36698915 .44140626 .31900025 .44140626 .19099427 .44140626 .06098938 .300354 .06098938 .15628052 .06098938 .059249879 .12599182-.009765625 .21199036-.009765625 .2659912-.009765625 .31399537 .021224976 .35398866 .0602417 .37298585 .00022888184 .43099977-.009765625 .45700074-.009765625 .49299623-.009765625 .5179901 .01222229 .5359955 .04324341 .55799868 .08226013 .57099917 .13928223 .57099917 .14328003 .57099917 .15628052 .55799868 .15628052 .5549927 .15628052 .54100039 .15628052 .5399933 .15228272 .5329895 .12527466 .5209961 .07725525 .5019989 .018234253 .45999146 .018234253 .43399049 .018234253 .4269867 .040237428 .4269867 .06724548 .4269867 .08425903 .43499757 .120269779 .44198609 .14628601 .44898988 .17329407 .45899964 .21430969 .46398927 .23632813L.48399354 .3123474C.48999024 .33836366 .5019989 .38539125 .5019989 .39038087 .5019989 .4123993 .48399354 .4223938 .46798707 .4223938 .45098878 .4223938 .42799378 .4104004 .42199708 .38238526M.35798646 .12527466C.35099793 .09725952 .32899476 .07725525 .30699159 .058242799 .2979889 .050247194 .2579956 .018234253 .21499634 .018234253 .17799378 .018234253 .14199829 .04423523 .14199829 .11526489 .14199829 .16828919 .17098999 .27833558 .19400025 .31835938 .23999024 .39839173 .29100038 .4133911 .31900025 .4133911 .3889923 .4133911 .4079895 .33737184 .4079895 .32635499 .4079895 .32235719 .4059906 .3153534 .40499879 .3123474L.35798646 .12527466Z"/>
<path id="font_1_5" d="M.2639923 .66430667C.2649994 .66630557 .2679901 .67930606 .2679901 .68029788 .2679901 .68530276 .2639923 .6943054 .2519989 .6943054 .23199463 .6943054 .14898682 .6863098 .12399292 .6843109 .115997318 .68330386 .101989749 .682312 .101989749 .66130068 .101989749 .64730837 .115997318 .64730837 .12799073 .64730837 .17599488 .64730837 .17599488 .64030459 .17599488 .63230898 .17599488 .62532046 .1659851 .58532717 .1599884 .5623474L.13699341 .4703827C.12799073 .43640138 .07299805 .21731568 .070999149 .20431519 .06599426 .18029785 .06599426 .16729737 .06599426 .1552887 .06599426 .054244996 .12998963-.009765625 .21299744-.009765625 .33799745-.009765625 .47099305 .12626648 .47099305 .27433778 .47099305 .39138795 .3899994 .44140626 .32099916 .44140626 .2689972 .44140626 .22499085 .4123993 .19499207 .38638307L.2639923 .66430667M.21398926 .018234253C.16499329 .018234253 .13699341 .06124878 .13699341 .120269779 .13699341 .1572876 .1459961 .19129944 .17399597 .3043518 .17999268 .32336427 .17999268 .32536317 .19898987 .34736634 .23699951 .39138795 .28199769 .4133911 .31799317 .4133911 .35699464 .4133911 .3909912 .38438417 .3909912 .31636048 .3909912 .27534486 .36898805 .17329407 .33898927 .11526489 .31498719 .06625366 .2649994 .018234253 .21398926 .018234253Z"/>
<path id="font_1_6" d="M.43798829 .38304139C.4019928 .37702943 .3869934 .34902955 .3869934 .32702638 .3869934 .30003358 .4079895 .29003907 .42599488 .29003907 .44799806 .29003907 .48298646 .30603028 .48298646 .35403443 .48298646 .4223938 .40499879 .44140626 .35099793 .44140626 .20098877 .44140626 .06199646 .3030243 .06199646 .16412354 .06199646 .078186038 .12199402-.009765625 .24699402-.009765625 .41600038-.009765625 .49499513 .08917236 .49499513 .10316467 .49499513 .10916138 .48599244 .120147708 .47799684 .120147708 .47200013 .120147708 .46998597 .1181488 .46199037 .11016846 .38398744 .018234253 .2669983 .018234253 .24899292 .018234253 .1769867 .018234253 .14498902 .06718445 .14498902 .12915039 .14498902 .15812683 .15899658 .26704408 .21099854 .33602906 .24899292 .3850708 .30099488 .4133911 .35099793 .4133911 .36499024 .4133911 .41299439 .41137696 .43798829 .38304139Z"/>
</defs>
<path transform="matrix(1,0,0,-1,16.032,99.632999)" stroke-width=".79701" stroke-linecap="butt" stroke-miterlimit="10" stroke-linejoin="miter" fill="none" stroke="#2471a3" d="M0 0H113.38724L0 85.04042Z"/>
<path transform="matrix(1,0,0,-1,16.032,99.632999)" stroke-width=".3985" stroke-linecap="butt" stroke-miterlimit="10" stroke-linejoin="miter" fill="none" stroke="#000000" d="M8.50412 0V8.50412H0"/>
<use data-text="C" xlink:href="#font_1_3" transform="matrix(6.97385,0,0,-6.97385,6.309,107.919)"/>
<use data-text="B" xlink:href="#font_1_2" transform="matrix(6.97385,0,0,-6.97385,132.937,107.919)"/>
<use data-text="A" xlink:href="#font_1_1" transform="matrix(6.97385,0,0,-6.97385,13.035999,11.0739979)"/>
<use data-text="a" xlink:href="#font_1_4" transform="matrix(6.97385,0,0,-6.97385,70.564,106.156)"/>
<use data-text="b" xlink:href="#font_1_5" transform="matrix(6.97385,0,0,-6.97385,9.009,59.534997)"/>
<use data-text="c" xlink:href="#font_1_6" transform="matrix(6.97385,0,0,-6.97385,76.244,53.593999)"/>
</svg>
