<svg version="1.1" xmlns="http://www.w3.org/2000/svg" style="display: block;" viewBox="0 0 2048 2048" width="512" height="512" preserveAspectRatio="none">
<path transform="translate(0,0)" fill="rgb(0,0,0)" d="M 1726.94 925.375 C 1759.46 921.868 1783.97 937.149 1791.9 970.115 C 1817.78 1077.74 1779.5 1071.65 1691.01 1089.7 L 1552.45 1118.03 C 1385.55 1151.37 1218.82 1185.57 1052.27 1220.62 L 1209.59 1558.51 C 1232.85 1608.51 1261.72 1661.21 1280.88 1711.89 C 1315.8 1715.45 1480.67 1705.63 1497.49 1717.79 C 1501.29 1720.54 1503.76 1724.5 1504.38 1729.17 C 1505.07 1734.48 1503.44 1740.3 1500.18 1744.53 C 1496.29 1749.56 1490.44 1751.45 1484.31 1752.07 C 1473.9 1753.14 1462.73 1752.12 1452.21 1752.12 L 1384.25 1752.1 L 1163.46 1751.98 L 771.621 1752.05 L 642.775 1752.13 C 620.01 1752.16 598.345 1752.05 574.221 1752.16 C 553.866 1752.26 536.436 1739.88 550.437 1717.6 C 552.496 1714.32 560.417 1712.58 564.397 1712.41 C 588.114 1711.44 612.096 1711.93 635.877 1712.03 L 767.107 1712.27 C 771.954 1699.66 788.013 1668.21 794.675 1653.73 L 988.915 1231.32 C 953.535 1239.77 915.391 1246.59 879.481 1254.08 L 642.047 1303.33 L 410.527 1351.17 C 381.228 1357.11 351.965 1363.4 322.767 1369.54 C 303.794 1373.49 283.68 1367.49 272.741 1350.69 C 260.031 1331.17 255.296 1305.86 251.725 1283.22 C 246.697 1251.33 251.085 1224.52 287.117 1216.56 C 326.375 1207.88 365.738 1200.58 405.237 1192.87 L 561.099 1161.27 L 1182.09 1034.96 L 1544.82 961.268 L 1654.44 938.996 C 1675.85 934.584 1705.64 927.588 1726.94 925.375 z"/>
<path transform="translate(0,0)" fill="rgb(179,100,56)" d="M 1023.47 1249.42 C 1067.5 1342.3 1112.57 1438.34 1154.86 1532.01 C 1186.24 1588.36 1209.12 1653.06 1240.04 1711.97 C 1188.59 1712.59 1136 1712.05 1084.48 1712.05 L 809.456 1711.96 C 839.746 1654.21 865.253 1589.59 894.207 1531.25 C 920.023 1471.94 946.702 1413.01 974.235 1354.48 L 1006.45 1286.14 C 1011.28 1275.88 1019.56 1259.64 1023.47 1249.42 z"/>
<path transform="translate(0,0)" fill="rgb(232,150,90)" d="M 1023.47 1249.42 C 1067.5 1342.3 1112.57 1438.34 1154.86 1532.01 C 1143.96 1532.8 1130.17 1532.28 1119.02 1532.26 L 1055.99 1532.22 C 1005.56 1532.2 955.105 1532.02 904.676 1532.88 C 900.891 1532.95 897.607 1532.87 894.207 1531.25 C 920.023 1471.94 946.702 1413.01 974.235 1354.48 L 1006.45 1286.14 C 1011.28 1275.88 1019.56 1259.64 1023.47 1249.42 z"/>
<path transform="translate(0,0)" fill="rgb(232,150,90)" d="M 1731.36 963.366 C 1760.49 958.107 1763.04 1015.09 1760.62 1033.5 C 1735.58 1043.18 1699.3 1047.56 1672.5 1053.07 C 1635.1 1060.76 1597.6 1068.43 1560.19 1076.1 C 1392.17 1108.99 1224.5 1143.67 1057.21 1180.14 C 1052.38 1181.33 1047.55 1182.56 1042.73 1183.82 C 1042.13 1178.51 1040.87 1173.17 1039.76 1167.94 C 1035.49 1147.82 1031.36 1127.97 1028.61 1107.57 C 1208.93 1068.28 1390.83 1034.71 1571.14 995.194 C 1623.93 983.626 1678 971.754 1731.36 963.366 z"/>
<path transform="translate(0,0)" fill="rgb(232,150,90)" d="M 981.67 1116.26 C 984.291 1115.84 983.58 1115.92 986.252 1116.16 C 995.143 1125.15 1002.01 1174.83 1005.25 1189.6 C 982.918 1192.92 956.298 1198.66 934.014 1203.16 L 816.198 1227.42 L 480.218 1296.55 L 373.38 1318.65 C 355.981 1322.29 330.229 1328.6 313.34 1330.56 C 293.801 1333.88 290.02 1268.16 290.286 1256.56 C 313.008 1249.88 353.102 1243.16 377.266 1238.42 L 526.468 1208.85 C 678.387 1178.9 830.124 1148.04 981.67 1116.26 z"/>
<path transform="translate(0,0)" fill="rgb(0,0,0)" d="M 501.284 498.344 C 515.33 497.568 527.946 499.226 541.1 504.494 C 564.145 513.977 582.479 532.227 592.068 555.229 C 614.287 607.798 584.958 660.883 534.312 681.697 C 575.042 719.228 615.216 756.482 653.432 796.62 C 662.688 806.342 672.765 817.287 682.641 826.204 C 695.509 826.876 709.079 825.005 722.22 825.841 C 753.271 827.816 748.69 852.794 749.231 874.64 C 750.896 941.768 725.309 1004.4 664.599 1037.83 C 615.626 1065.89 569.87 1061.2 515.675 1060.41 C 437.392 1060.1 364.251 1068.92 305.049 1005.83 C 264.027 964.384 263.747 909.75 264.647 855.444 C 265.327 814.422 304.229 824.754 333.429 826.489 C 360.615 793.483 387.803 768.095 418.308 738.395 C 437.442 719.766 455.335 700.427 474.896 681.961 C 442.24 664.94 417.686 641.571 412.754 603.292 C 409.365 578.545 415.954 553.466 431.067 533.58 C 449.682 509.502 472.331 501.946 501.284 498.344 z M 387.186 827.274 C 428.106 826.206 471.407 826.792 512.5 826.825 C 547.834 826.801 595.189 825.398 629.611 827.374 C 614.446 812.631 516.298 713.763 504.401 709.665 C 488.728 723.263 469.611 742.005 454.455 756.729 C 433.484 777.104 404.817 804.271 387.186 827.274 z"/>
<path transform="translate(0,0)" fill="rgb(232,150,90)" d="M 304.016 866.022 L 709.935 866.037 C 709.875 918.082 708.17 943.925 671.743 983.149 C 644.016 1010.11 616.294 1021.08 577.992 1021.68 C 554.89 1022.04 530.829 1022.2 507.66 1021.94 C 455.903 1021.35 380.94 1025.55 340.631 988.363 C 306.668 957.029 305.594 908.458 304.016 866.022 z"/>
<path transform="translate(0,0)" fill="rgb(165,220,226)" d="M 495.812 538.492 C 525.672 533.028 554.259 552.96 559.457 582.868 C 564.655 612.776 544.469 641.184 514.516 646.115 C 484.938 650.985 456.962 631.106 451.829 601.573 C 446.697 572.039 466.325 543.888 495.812 538.492 z"/>
<path transform="translate(0,0)" fill="rgb(0,0,0)" d="M 1466.11 292.343 C 1571.45 283.148 1606.38 439.838 1492.88 473.635 C 1528.46 509.967 1567.5 543.749 1602.64 580.753 C 1616.15 594.979 1631.59 612.143 1646 625.109 C 1662.54 627.527 1689.64 623.221 1702.79 635.193 C 1709.03 640.868 1708.82 654.783 1708.97 662.801 C 1710.2 725.551 1708.86 768.036 1662.02 815.904 C 1610.02 869.051 1547.73 861.329 1479.71 861.258 C 1435.17 862.294 1383.35 865.39 1341.13 850.095 C 1302.9 836.248 1266.13 803.855 1249.11 766.674 C 1243.97 755.296 1240.19 743.355 1237.84 731.096 C 1233.78 710.69 1230.1 652.694 1237.16 633.604 C 1253.33 621.931 1274.94 625.292 1294.7 625.374 C 1344.65 572.791 1396.66 522.201 1450.6 473.724 C 1416.63 462.834 1384.81 428.598 1381.46 392.532 C 1376.06 334.388 1410.67 299.181 1466.11 292.343 z M 1348.83 625.914 L 1471.5 625.782 C 1507.34 625.738 1558.1 624.15 1592.82 626.254 C 1582.85 613.609 1479.69 513.382 1470.16 508.503 C 1460.6 519.196 1445.75 532.595 1434.93 542.937 C 1418.24 559.131 1401.44 575.209 1384.52 591.167 C 1373.19 601.756 1358.62 614.405 1348.83 625.914 z"/>
<path transform="translate(0,0)" fill="rgb(232,150,90)" d="M 1271.32 665.036 L 1669.98 665.018 C 1670.14 720.003 1672.8 745.24 1633.75 788 C 1610.08 811.492 1583.42 820.907 1550.5 822.092 C 1527.03 822.938 1501.54 823.016 1477.91 822.683 C 1425.48 821.943 1351.23 825.519 1310.03 788.073 C 1275.31 756.517 1273.54 708.123 1271.32 665.036 z"/>
<path transform="translate(0,0)" fill="rgb(165,220,226)" d="M 1471.41 330.645 C 1500.23 329.815 1524.34 352.348 1525.47 381.159 C 1526.59 409.969 1504.3 434.31 1475.5 435.724 C 1456.61 436.651 1438.68 427.363 1428.54 411.399 C 1418.4 395.434 1417.61 375.254 1426.48 358.549 C 1435.35 341.845 1452.51 331.19 1471.41 330.645 z"/>
<path transform="translate(0,0)" fill="rgb(0,0,0)" d="M 831.904 424.013 C 854.25 421.831 868.969 442.396 883.291 457.054 C 891.074 449.426 914.512 424.211 926.009 424.255 C 942.792 424.319 953.166 438.364 941.769 453.93 C 932.972 465.944 921.403 475.34 910.11 486.161 C 915.929 491.701 921.907 497.235 927.604 502.903 C 941.839 517.068 960.088 533.565 935.099 548.339 C 933.934 548.456 932.765 548.527 931.595 548.551 C 912.156 549.003 896.268 527.555 882.523 514.314 C 871.218 526.139 853.55 545.998 836.747 548.922 C 827.062 550.608 818.135 536.245 819.38 529.002 C 821.932 514.15 844.173 495.548 854.614 485.589 C 837.854 469.699 802.967 445.139 831.904 424.013 z"/>
</svg>