<svg xmlns="http://www.w3.org/2000/svg" height="512" preserveAspectRatio="none" style="display: block;" version="1.1" viewBox="0 0 2048 2048" width="512">
<path d="M 980.667 1117.14 C 983.021 1116.32 1056.79 1117.14 1065.92 1117.14 C 1069.73 1127.04 1080.83 1146.73 1086.13 1156.88 L 1302.3 1576.05 C 1309.27 1589.35 1319.53 1607.7 1325.17 1621.14 C 1332.91 1623.36 1401.23 1621.12 1414.69 1621.14 C 1414.51 1660.67 1418.75 1715.03 1361.82 1714.99 L 754.721 1714.94 C 664.723 1714.94 633.306 1730.41 634.055 1621.14 C 642.468 1621.2 723.236 1621.6 724.283 1621.14 C 729.608 1606.57 740.053 1587.75 747.311 1573.48 L 954.255 1170.06 C 962.783 1153.28 973.142 1134.19 980.667 1117.14 z M 1229.74 1621.14 C 1221.77 1604.07 1209.44 1583.12 1200.46 1565.57 L 1050.85 1274.13 C 1045.36 1263.51 1028.61 1228.75 1022.69 1220.41 C 1012.23 1242.58 1000.81 1263.8 989.828 1285.66 L 894.943 1472.05 C 869.391 1521.58 843.296 1570.61 819.629 1621.14 L 1185.07 1621.17 C 1197.75 1621.18 1217.7 1621.83 1229.74 1621.14 z" fill="rgb(122,61,42)" transform="translate(0,0)"></path>
<path d="M 724.283 1621.14 C 724.487 1621.26 816.326 1622.01 819.629 1621.14 L 1185.07 1621.17 C 1197.75 1621.18 1217.7 1621.83 1229.74 1621.14 C 1237.45 1624.44 1306.22 1623.38 1325.17 1621.14 C 1332.91 1623.36 1401.23 1621.12 1414.69 1621.14 C 1414.51 1660.67 1418.75 1715.03 1361.82 1714.99 L 754.721 1714.94 C 664.723 1714.94 633.306 1730.41 634.055 1621.14 C 642.468 1621.2 723.236 1621.6 724.283 1621.14 z" fill="rgb(167,98,55)" transform="translate(0,0)"></path>
<path d="M 176.624 1030.02 L 1815.04 1030.01 C 1833.3 1030 1857.67 1029.11 1875.26 1030.02 C 1868.3 1103.91 1824.51 1116.92 1759.42 1117.16 L 1065.92 1117.14 C 1056.79 1117.14 983.021 1116.32 980.667 1117.14 C 979.13 1116.47 889.284 1117.17 879.388 1117.17 L 312.774 1117.16 C 244.637 1117.22 180.169 1118.13 176.624 1030.02 z" fill="rgb(250,196,124)" transform="translate(0,0)"></path>
<path d="M 597.523 514.813 C 603.647 502.663 613.406 488.526 620.519 476.589 L 673.221 387.588 C 681.82 373.032 690.395 358.194 698.501 343.465 C 730.224 285.509 798.258 327.794 782.758 371.266 C 779.361 380.792 770.605 392.984 765.225 402.066 L 643.46 603.151 C 659.411 627.521 675.013 656.839 690.279 682.074 L 748.586 778.071 C 764.453 804.264 801.288 845.196 777.874 874.59 C 767.724 887.333 758.128 891.29 742.622 893.414 C 713.865 891.562 705.57 868.635 692.801 847.271 L 654.231 782.427 C 637.65 754.236 610.503 713.44 597.523 685.278 C 585.933 701.639 576.195 718.528 565.876 735.729 L 510.503 829.426 C 501.158 845.02 491.243 863.897 480.239 878.069 C 460.544 903.436 415.439 893.397 408.537 861.439 C 402.126 831.755 425.117 809.362 439.124 784.853 L 510.696 660.486 C 522.219 640.747 536.25 619.226 546.776 599.441 C 515.889 543.73 478.69 490.262 447.921 434.549 C 427.045 396.747 372.781 332.859 450.484 315.179 C 488.57 312.727 501.687 357.244 517.73 383.225 C 544.705 426.911 570.024 471.404 597.523 514.813 z" fill="rgb(237,136,37)" transform="translate(0,0)"></path>
<path d="M 1350.33 555.999 C 1361.97 555.31 1380.88 555.973 1392.94 555.988 L 1548.84 555.987 C 1560.44 555.993 1578.88 554.908 1589.16 556.636 C 1614.69 562.656 1608.7 592.464 1579.9 590.603 C 1564.37 589.599 1541.22 589.686 1525.39 590.023 L 1525.39 862.041 C 1544.45 861.935 1586.42 858.358 1601.18 867.561 C 1612.74 874.775 1608.65 895.583 1587.96 897.613 L 1425.57 897.612 C 1400.29 897.615 1370.77 898.42 1345.93 897.613 C 1301.12 856.071 1404.82 861.965 1421.02 862.041 L 1421.02 590.023 C 1402.31 590.106 1363.79 592.143 1346.27 587.526 C 1333.43 584.143 1331.85 562.098 1350.33 555.999 z" fill="rgb(169,192,207)" transform="translate(0,0)"></path>
<metadata><recraft-signature>{"signed_by": "recraft", "signature_b64": "0dxbW+Obno02K4E83BFOv7CRG2ip7RZy3lJMbuTMebCuhmpfXoh2gzsKmtJtxmfiZAMjx85ES7aeVhDG9f70Ag==", "signing_algo": "Ed25519", "generation_timestamp": 1782332288, "identifier": "ed116ca7-ae05-45e7-a897-1114ef85e240"}</recraft-signature></metadata></svg>