<svg version="1.1" xmlns="http://www.w3.org/2000/svg" style="display: block;" viewBox="0 0 2048 2048" width="512" height="512" preserveAspectRatio="none">
<path transform="translate(0,0)" fill="rgb(123,62,43)" d="M 981.281 1117.59 C 1000.18 1117.01 1019.09 1116.9 1038 1117.25 C 1043.37 1117.31 1060.38 1117.91 1065.1 1117.44 C 1071.81 1126.34 1094.4 1171.55 1100.43 1183.22 L 1177.3 1332.59 L 1276.81 1525.15 L 1305 1579.75 C 1312.22 1593.68 1319.43 1606.44 1325.2 1621.1 C 1333.04 1620.44 1346.62 1620.83 1354.83 1620.76 L 1416.36 1620.03 C 1415.68 1658.7 1419.48 1713.55 1365.7 1715.74 C 1350.02 1716.38 1334.36 1716.09 1318.66 1716.07 L 1240.31 1716.04 L 993.708 1716.04 L 788.819 1716.06 C 753.542 1716.1 718.034 1716.89 682.804 1715.6 C 631.459 1713.73 633.594 1657.83 632.317 1620.6 C 639.857 1619.5 658.131 1619.93 666.309 1619.94 L 724.87 1620.11 C 729.36 1606.38 739.79 1587.25 746.565 1574.05 L 777.828 1512.89 L 898.841 1277.35 L 959.234 1159.6 C 964.251 1149.94 975.375 1124.92 981.281 1117.59 z M 1200.25 1620.26 C 1209.26 1619.82 1220.46 1620.21 1229.63 1620.28 C 1223.87 1611.94 1214.54 1593.11 1209.51 1583.59 C 1196.91 1559.91 1184.55 1536.1 1172.43 1512.17 L 1078.49 1329.12 C 1061.12 1295.17 1041.35 1253.16 1022.33 1221.12 C 1018.34 1231.39 1010.6 1246.16 1005.5 1256.29 C 994.877 1277.42 984.122 1298.48 973.239 1319.47 C 959.382 1346.56 821.612 1614.09 821.444 1619.58 L 823.771 1620.42 C 848.231 1619.54 873.85 1619.81 898.406 1620.02 C 998.885 1620.9 1099.82 1618.76 1200.25 1620.26 z"/>
<path transform="translate(0,0)" fill="rgb(168,99,56)" d="M 1325.2 1621.1 C 1333.04 1620.44 1346.62 1620.83 1354.83 1620.76 L 1416.36 1620.03 C 1415.68 1658.7 1419.48 1713.55 1365.7 1715.74 C 1350.02 1716.38 1334.36 1716.09 1318.66 1716.07 L 1240.31 1716.04 L 993.708 1716.04 L 788.819 1716.06 C 753.542 1716.1 718.034 1716.89 682.804 1715.6 C 631.459 1713.73 633.594 1657.83 632.317 1620.6 C 639.688 1621.93 820.078 1621.63 823.771 1620.42 C 848.231 1619.54 873.85 1619.81 898.406 1620.02 C 998.885 1620.9 1099.82 1618.76 1200.25 1620.26 C 1204.37 1622.61 1316.6 1624.14 1325.2 1621.1 z"/>
<path transform="translate(0,0)" fill="rgb(251,196,124)" d="M 981.281 1117.59 L 486.431 1117.68 L 346.469 1117.75 C 315.199 1117.77 285.692 1118.59 254.464 1115.32 C 212.615 1110.94 183.447 1089.93 177.631 1046.48 C 176.946 1041.36 175.045 1034.79 176.694 1029.77 C 177.331 1029.47 389.666 1029.91 409.194 1029.91 L 1358.54 1029.94 L 1669.54 1029.92 C 1738.55 1030.31 1807.56 1029.94 1876.56 1028.8 C 1872.68 1055.09 1866.66 1082.05 1843.82 1098.31 C 1811.47 1121.33 1760.5 1117.8 1722.67 1117.78 L 1627.75 1117.71 L 1239.2 1117.73 L 1119.48 1117.66 C 1108.55 1117.64 1074.26 1116.58 1065.1 1117.44 C 1060.38 1117.91 1043.37 1117.31 1038 1117.25 C 1019.09 1116.9 1000.18 1117.01 981.281 1117.59 z"/>
<path transform="translate(0,0)" fill="rgb(238,136,38)" d="M 598.241 515.421 C 601.099 505.947 606.772 497.552 611.826 489.066 C 640.526 440.879 669.263 392.684 697.038 343.958 C 705.145 329.736 713.911 320.005 730.477 315.808 C 761.846 307.86 796.19 341.804 782.89 372.535 C 776.967 386.189 767.913 400.058 759.919 413.141 L 729.793 462.788 L 683.318 539.534 C 670.958 560.05 657.763 582.718 644.046 602.159 C 650.024 614.364 661.807 631.038 669.058 643.527 C 693.796 686.339 719.222 728.75 745.327 770.742 C 755.557 787.529 767.142 803.671 776.772 820.814 C 797.347 857.439 783.77 885.486 742.38 894.478 C 728.471 891.155 717.742 887.339 709.292 875.089 C 693.083 851.591 678.806 825.099 664.139 800.587 C 652.647 781.396 641.046 762.269 629.339 743.207 C 619.427 726.991 604.878 703.168 597.677 685.829 C 564.244 740.043 531.611 794.746 499.789 849.921 C 483.858 877.109 462.075 909.09 425.32 885.332 C 384.613 859.019 419.393 815.072 436.994 785.979 C 474.075 724.689 507.797 660.057 546.454 599.502 C 515.065 547.713 483.093 496.135 452.445 443.959 C 438.475 418.748 420.56 395.142 411.721 367.485 C 401.887 336.718 420.674 322.838 447.434 315.303 C 460.525 314.186 477.917 318.658 486.07 329.377 C 503.226 351.934 516.17 378.774 530.839 403.129 L 579.317 483.677 C 584.747 492.833 593.939 506.68 598.241 515.421 z"/>
<path transform="translate(0,0)" fill="rgb(169,192,206)" d="M 1356.52 555.268 C 1433.75 557.435 1511.72 553.755 1588.87 556.492 C 1591.29 556.578 1599.35 561.076 1601.85 562.413 C 1618.64 593.681 1577.52 590.439 1559.77 590.065 C 1548.4 589.934 1537.03 589.873 1525.65 589.883 C 1527.67 625.544 1526.16 677.839 1526.08 714.61 C 1525.98 761.166 1527.61 816.357 1525.75 862.24 C 1544.92 859.815 1626.28 853.508 1603.53 891.376 C 1596.66 895.787 1594.63 896.155 1586.91 897.851 L 1424.49 897.819 C 1399.71 897.831 1374.44 898.476 1349.71 897.221 C 1340.11 896.946 1328.09 879.164 1338.18 872.454 C 1358.72 858.782 1397.9 861.551 1421.12 862.12 C 1419.34 807.595 1421.45 751.936 1420.77 697.242 C 1420.33 661.749 1420.5 625.489 1421.03 589.984 C 1400.61 590.198 1359.02 593.373 1342.3 585.011 C 1328.42 578.07 1336.61 558.177 1356.52 555.268 z"/>
</svg>