<svg xmlns="http://www.w3.org/2000/svg" height="512" preserveAspectRatio="none" style="display: block;" version="1.1" viewBox="0 0 2048 2048" width="512">
<path d="M 1578.32 578.213 C 1593.99 575.092 1609.24 572.126 1624.99 569.473 C 1628.4 643.467 1612.37 637.445 1646.63 704.605 L 1703.88 815.714 C 1709.13 826.014 1723.09 857.124 1728.1 864.881 C 1748.72 863.56 1761.69 887.485 1776.08 899.418 C 1789.58 914.025 1809.91 931.045 1791.82 950.727 C 1754.45 991.372 1713.96 1029.4 1675.23 1068.7 C 1702.05 1096.62 1786.61 1163.94 1802.91 1188.72 C 1804.03 1197.61 1803.51 1200.61 1802.91 1209.59 C 1848.54 1210.89 1872.07 1198.37 1854.76 1258.14 C 1812.38 1404.44 1630.31 1502.85 1496.92 1427.83 C 1430.07 1402.06 1370.94 1315.91 1358.35 1247.94 C 1350.08 1203.31 1361.38 1207.91 1401.47 1209.59 C 1402.2 1183.23 1404.64 1181.91 1423.31 1163.71 C 1457.6 1130.29 1490.57 1095.91 1525.66 1063.24 L 1456.88 994.653 C 1423.8 962.21 1376.09 937.794 1420.58 899.418 C 1432.53 882.786 1455.55 848.599 1474.85 864.881 C 1480.68 846.964 1490.78 836.062 1499.34 819.467 C 1514.28 790.478 1528 761.773 1541.95 732.126 C 1564.7 683.778 1578.71 679.349 1578.43 625.448 L 1578.32 578.213 z M 1602.07 987.742 C 1632.3 956.784 1665.77 925.282 1695.1 894.207 C 1687.23 883.807 1670.16 848.661 1663.32 835.328 L 1602.07 716.114 L 1534.31 843.552 C 1526.31 858.384 1515.73 880.627 1506.86 894.207 C 1515.71 902.088 1523.35 910.714 1531.64 919.173 L 1573.18 960.911 C 1582.76 970.5 1591.25 979.45 1602.07 987.742 z M 1666.32 1209.59 C 1651.04 1192.98 1615.81 1157.47 1598.74 1143.62 C 1579.12 1164.14 1552.94 1190.27 1532.31 1209.59 C 1575.96 1208.73 1622.38 1209.6 1666.32 1209.59 z" fill="rgb(251,133,16)" transform="translate(0,0)"></path>
<path d="M 1401.47 1209.59 C 1420.8 1210.18 1440.42 1209.51 1459.81 1209.59 C 1477.77 1209.52 1516.37 1211.03 1532.31 1209.59 C 1575.96 1208.73 1622.38 1209.6 1666.32 1209.59 L 1736.67 1209.59 L 1762.87 1209.59 C 1775.37 1209.56 1790.64 1209.1 1802.91 1209.59 C 1848.54 1210.89 1872.07 1198.37 1854.76 1258.14 C 1812.38 1404.44 1630.31 1502.85 1496.92 1427.83 C 1430.07 1402.06 1370.94 1315.91 1358.35 1247.94 C 1350.08 1203.31 1361.38 1207.91 1401.47 1209.59 z" fill="rgb(55,126,196)" transform="translate(0,0)"></path>
<path d="M 1802.91 1209.59 C 1848.54 1210.89 1872.07 1198.37 1854.76 1258.14 C 1812.38 1404.44 1630.31 1502.85 1496.92 1427.83 C 1502.06 1421.75 1526.46 1417.68 1535 1415.97 C 1641.74 1394.59 1724.9 1308.76 1762.87 1209.59 C 1775.37 1209.56 1790.64 1209.1 1802.91 1209.59 z" fill="rgb(39,102,176)" transform="translate(0,0)"></path>
<path d="M 1578.32 578.213 C 1593.99 575.092 1609.24 572.126 1624.99 569.473 C 1628.4 643.467 1612.37 637.445 1646.63 704.605 L 1703.88 815.714 C 1709.13 826.014 1723.09 857.124 1728.1 864.881 C 1717.36 874.988 1706.24 883.246 1695.1 894.207 C 1687.23 883.807 1670.16 848.661 1663.32 835.328 L 1602.07 716.114 L 1534.31 843.552 C 1526.31 858.384 1515.73 880.627 1506.86 894.207 C 1497 883.775 1486.45 873.343 1474.85 864.881 C 1480.68 846.964 1490.78 836.062 1499.34 819.467 C 1514.28 790.478 1528 761.773 1541.95 732.126 C 1564.7 683.778 1578.71 679.349 1578.43 625.448 L 1578.32 578.213 z" fill="rgb(32,70,127)" transform="translate(0,0)"></path>
<path d="M 1598.74 1075.07 C 1606.41 1084.21 1623.16 1099.87 1632.25 1108.84 L 1704.6 1178.91 C 1712.91 1186.83 1730.67 1201.03 1736.67 1209.59 L 1666.32 1209.59 C 1651.04 1192.98 1615.81 1157.47 1598.74 1143.62 C 1579.12 1164.14 1552.94 1190.27 1532.31 1209.59 C 1516.37 1211.03 1477.77 1209.52 1459.81 1209.59 C 1506.16 1166.76 1551.41 1115.17 1598.74 1075.07 z" fill="rgb(234,87,10)" transform="translate(0,0)"></path>
<path d="M 1776.08 899.418 C 1789.58 914.025 1809.91 931.045 1791.82 950.727 C 1754.45 991.372 1713.96 1029.4 1675.23 1068.7 C 1671.67 1067.89 1643.29 1042.57 1637.07 1037.98 C 1677.84 1001.75 1714.63 963.269 1753.73 925.452 C 1760.71 918.697 1771.62 902.928 1776.08 899.418 z" fill="rgb(234,87,10)" transform="translate(0,0)"></path>
<path d="M 1420.58 899.418 C 1424.17 901.288 1461.29 942.956 1468.24 950.163 C 1493.51 976.393 1536.43 1010.72 1557.15 1037.98 C 1546.62 1046.16 1535.81 1054.61 1525.66 1063.24 L 1456.88 994.653 C 1423.8 962.21 1376.09 937.794 1420.58 899.418 z" fill="rgb(234,87,10)" transform="translate(0,0)"></path>
<path d="M 420.997 781.49 C 436.972 778.041 453.118 774.962 469.161 771.807 C 469.177 856.254 470.441 837.666 508.41 913.782 L 635.392 1166.2 C 642.302 1179.91 649.032 1192.23 654.221 1206.77 C 671.779 1205.9 704.253 1198.9 699.827 1226.97 C 685.923 1360.83 565.144 1461.67 430.795 1451.27 C 392.369 1448.29 370.77 1440.86 335.686 1427.83 C 257.866 1375.23 200.795 1329.68 190.848 1224.19 C 188.406 1198.29 224.12 1206.38 243.09 1206.77 C 252.045 1182.39 275.888 1136.81 287.587 1112.57 L 383.334 915.824 C 416.504 846.959 421.391 856.838 420.997 781.49 z M 600.14 1206.77 L 600.14 1206.77 C 587.687 1171.63 565.848 1137.74 549.297 1104.27 L 491.721 989.346 C 477.719 961.151 461.323 926.346 445.72 899.418 L 340.7 1115.73 C 327.892 1142.54 307.248 1180.43 297.294 1206.77 C 302.966 1208.23 339.526 1206.78 347.989 1206.78 L 572.442 1206.82 C 577.736 1206.84 596.054 1207.43 600.14 1206.77 z" fill="rgb(55,126,196)" transform="translate(0,0)"></path>
<path d="M 420.997 781.49 C 436.972 778.041 453.118 774.962 469.161 771.807 C 469.177 856.254 470.441 837.666 508.41 913.782 L 635.392 1166.2 C 642.302 1179.91 649.032 1192.23 654.221 1206.77 C 645.582 1207.2 604.918 1208.15 600.14 1206.77 C 587.687 1171.63 565.848 1137.74 549.297 1104.27 L 491.721 989.346 C 477.719 961.151 461.323 926.346 445.72 899.418 L 340.7 1115.73 C 327.892 1142.54 307.248 1180.43 297.294 1206.77 C 295.808 1207.22 245.24 1207.45 243.09 1206.77 C 252.045 1182.39 275.888 1136.81 287.587 1112.57 L 383.334 915.824 C 416.504 846.959 421.391 856.838 420.997 781.49 z" fill="rgb(32,70,127)" transform="translate(0,0)"></path>
<path d="M 600.14 1206.77 C 604.918 1208.15 645.582 1207.2 654.221 1206.77 C 671.779 1205.9 704.253 1198.9 699.827 1226.97 C 685.923 1360.83 565.144 1461.67 430.795 1451.27 C 392.369 1448.29 370.77 1440.86 335.686 1427.83 C 344.742 1419.58 361.029 1418.38 373.016 1415.96 C 463.846 1397.66 589.169 1304.62 600.14 1206.77 L 600.14 1206.77 z" fill="rgb(39,102,176)" transform="translate(0,0)"></path>
<path d="M 1073.47 1542.35 L 1073.47 1542.35 L 1073.47 1581.54 L 1192.02 1581.5 C 1309.1 1581.46 1287.74 1604.19 1288.21 1703.93 C 1354.11 1705.89 1390.34 1718.32 1427.07 1778.69 C 1433.76 1797 1439.34 1814.87 1420.94 1827.65 C 1412.38 1833.59 1306.91 1831.06 1290.08 1831.06 L 695.806 1831.04 C 664.952 1831.03 590.208 1841.46 619.391 1783.1 C 647.952 1719.04 694.935 1704.16 760.947 1703.93 C 761.505 1600.22 739.645 1581.61 857.318 1581.52 L 976.284 1581.54 C 988.883 1583.84 1008.03 1580.87 1021.76 1581.57 C 1081.64 1584.61 1070.68 1590.28 1073.47 1542.35 z" fill="rgb(32,70,127)" transform="translate(0,0)"></path>
<path d="M 1073.47 1542.35 L 1073.47 1542.35 L 1073.47 1581.54 L 1192.02 1581.5 C 1309.1 1581.46 1287.74 1604.19 1288.21 1703.93 C 1271.07 1701.73 1229.6 1703.21 1210.52 1703.93 C 1164.07 1705.41 1108.31 1703.94 1061.33 1703.94 L 760.947 1703.93 C 761.505 1600.22 739.645 1581.61 857.318 1581.52 L 976.284 1581.54 C 988.883 1583.84 1008.03 1580.87 1021.76 1581.57 C 1081.64 1584.61 1070.68 1590.28 1073.47 1542.35 z" fill="rgb(32,70,127)" transform="translate(0,0)"></path>
<path d="M 760.947 1703.93 L 1061.33 1703.94 C 1108.31 1703.94 1164.07 1705.41 1210.52 1703.93 C 1244.68 1714.7 1293.46 1740.61 1300.88 1778.69 L 1240.57 1778.59 C 1232.87 1778.57 1217.79 1778.08 1210.52 1778.69 L 698.729 1778.62 C 678.748 1778.61 643.691 1777.17 625.81 1781.58 L 619.391 1783.1 C 647.952 1719.04 694.935 1704.16 760.947 1703.93 z" fill="rgb(55,126,196)" transform="translate(0,0)"></path>
<path d="M 1288.21 1703.93 C 1354.11 1705.89 1390.34 1718.32 1427.07 1778.69 C 1422.56 1779.28 1406.8 1778.87 1401.74 1778.84 L 1260 1778.72 C 1244.27 1778.76 1226.04 1779.33 1210.52 1778.69 C 1217.79 1778.08 1232.87 1778.57 1240.57 1778.59 L 1300.88 1778.69 C 1293.46 1740.61 1244.68 1714.7 1210.52 1703.93 C 1229.6 1703.21 1271.07 1701.73 1288.21 1703.93 z" fill="rgb(39,102,176)" transform="translate(0,0)"></path>
<path d="M 1024.01 458.187 C 1040.45 457.988 1058.09 460.649 1073.47 466.58 C 1086.17 471.735 1111.3 482.993 1121.1 492.279 C 1137.87 504.054 1162.97 529.777 1170.78 548.837 C 1177.05 561.923 1185.84 579.353 1188.8 593.459 C 1189.63 600.007 1192.96 646.352 1192.97 646.385 C 1194.98 711.578 1133.63 780.056 1073.47 795.648 C 1031.59 807.507 1016.6 803.072 976.284 795.648 C 949 783.659 922.101 771.329 901.035 749.609 C 889.552 738.961 869.422 708.517 863.424 693.996 C 856.918 672.547 852.548 662.788 853.507 640.513 C 849.176 625.642 851.712 612.532 853.507 597.464 C 872.924 538.586 908.446 478.233 976.284 466.58 C 981.491 464.956 986.679 463.209 991.86 461.498 C 1002.4 459.503 1013.3 458.557 1024.01 458.187 z" fill="rgb(254,182,34)" transform="translate(0,0)"></path>
<path d="M 1121.1 492.279 C 1137.87 504.054 1162.97 529.777 1170.78 548.837 C 1177.05 561.923 1185.84 579.353 1188.8 593.459 C 1189.63 600.007 1192.96 646.352 1192.97 646.385 C 1194.98 711.578 1133.63 780.056 1073.47 795.648 C 1031.59 807.507 1016.6 803.072 976.284 795.648 C 949 783.659 922.101 771.329 901.035 749.609 C 907.353 749.111 915.907 752.587 921.994 754.761 C 1069.59 807.489 1199.33 653.39 1130.18 515.905 C 1127.23 510.041 1119.92 498.338 1121.1 492.279 z" fill="rgb(251,133,16)" transform="translate(0,0)"></path>
<path d="M 976.284 795.648 C 1016.6 803.072 1031.59 807.507 1073.47 795.648 L 1073.48 1459.44 C 1073.48 1485.92 1074.4 1516.3 1073.47 1542.35 L 1073.47 1542.35 C 1070.68 1590.28 1081.64 1584.61 1021.76 1581.57 C 1008.03 1580.87 988.883 1583.84 976.284 1581.54 C 975.911 1567.49 976.264 1551.92 976.284 1537.75 L 976.284 795.648 z" fill="rgb(55,126,196)" transform="translate(0,0)"></path>
<path d="M 1073.47 1509.37 C 1073.12 1521.16 1073 1530.55 1073.47 1542.35 C 1070.68 1590.28 1081.64 1584.61 1021.76 1581.57 C 1008.03 1580.87 988.883 1583.84 976.284 1581.54 C 975.911 1567.49 976.264 1551.92 976.284 1537.75 C 1014.4 1569.8 1050.15 1545.03 1073.47 1509.37 z" fill="rgb(22,59,120)" transform="translate(0,0)"></path>
<path d="M 1001.24 840.262 C 1011.14 840.055 1015.66 840.599 1022.63 847.611 C 1025.58 855.815 1024.02 974.872 1024.02 989.413 L 1024.01 1342.58 C 1024 1359.34 1025.7 1479.32 1022.8 1483.77 C 1020.08 1487.95 1016.27 1489.66 1011.73 1491.22 C 987.399 1491.94 989.746 1475.43 989.355 1455.76 C 988.694 1422.52 989.075 1389.13 989.064 1355.88 L 989.08 979.792 C 989.089 954.17 979.122 848.333 1001.24 840.262 z" fill="rgb(87,150,201)" transform="translate(0,0)"></path>
<path d="M 1602.07 473.393 C 1609.25 465.826 1614.13 455.141 1622.61 448.595 C 1649.09 428.152 1685.37 433.305 1706.34 458.187 C 1729.51 486.629 1724.33 524.556 1696.63 548.172 C 1680.41 561.997 1646.4 565.586 1624.99 569.473 C 1609.24 572.126 1593.99 575.092 1578.32 578.213 C 1540.12 584.196 1501.49 591.697 1463.38 598.531 L 1311.86 625.405 C 1273.62 632.32 1231.51 642.073 1192.97 646.385 C 1192.96 646.352 1189.63 600.007 1188.8 593.459 C 1185.84 579.353 1177.05 561.923 1170.78 548.837 L 1556.28 481.874 C 1567.1 480.079 1592.61 476.519 1602.07 473.393 z" fill="rgb(251,133,16)" transform="translate(0,0)"></path>
<path d="M 1602.07 473.393 C 1609.25 465.826 1614.13 455.141 1622.61 448.595 C 1649.09 428.152 1685.37 433.305 1706.34 458.187 C 1695.27 477.615 1696.34 501.494 1666.64 508.359 C 1637.85 515.014 1608.4 518.858 1579.3 524.331 L 1233.64 585.324 C 1221.76 587.307 1199.71 590.305 1188.8 593.459 C 1185.84 579.353 1177.05 561.923 1170.78 548.837 L 1556.28 481.874 C 1567.1 480.079 1592.61 476.519 1602.07 473.393 z" fill="rgb(254,182,34)" transform="translate(0,0)"></path>
<path d="M 427.445 679.754 L 853.507 597.464 C 851.712 612.532 849.176 625.642 853.507 640.513 C 852.548 662.788 856.918 672.547 863.424 693.996 C 842.477 699.246 818.404 703.274 797.021 707.366 L 694.626 726.831 C 621.568 740.361 542.035 756.352 469.161 771.807 C 453.118 774.962 436.972 778.041 420.997 781.49 C 379.373 795.512 343.168 781.215 327.342 739.653 C 320.619 676.405 385.033 639.704 427.445 679.754 z" fill="rgb(251,133,16)" transform="translate(0,0)"></path>
<path d="M 427.445 679.754 L 853.507 597.464 C 851.712 612.532 849.176 625.642 853.507 640.513 C 816.128 646.171 774.817 655.073 737.446 662.279 L 377.065 730.897 C 360.846 733.91 343.281 736.367 327.342 739.653 C 320.619 676.405 385.033 639.704 427.445 679.754 z" fill="rgb(254,182,34)" transform="translate(0,0)"></path>
<path d="M 941.151 324.894 C 915.611 250.282 979.67 184.726 1054.72 209.581 C 1124.2 240.216 1128.19 322.705 1073.47 371.024 C 1073.51 398.999 1074.88 439.625 1073.47 466.58 C 1058.09 460.649 1040.45 457.988 1024.01 458.187 C 1013.3 458.557 1002.4 459.503 991.86 461.498 C 986.679 463.209 981.491 464.956 976.284 466.58 C 976.25 434.986 976.837 402.532 976.284 371.024 C 965.215 353.782 953.638 351.752 941.151 324.894 z M 990.491 282.818 C 1002.96 281.354 1011.92 270.114 1010.56 257.633 C 1009.21 245.152 998.048 236.096 985.556 237.341 C 972.908 238.601 963.713 249.932 965.084 262.569 C 966.456 275.206 977.867 284.3 990.491 282.818 z" fill="rgb(39,102,176)" transform="translate(0,0)"></path>
<path d="M 941.151 324.894 C 915.611 250.282 979.67 184.726 1054.72 209.581 C 1054.31 217.704 1058.45 229.179 1060 237.283 C 1068.57 282.232 1031.43 333.436 984.028 333.03 C 969.007 332.902 953.472 324.124 941.151 324.894 z M 990.491 282.818 C 1002.96 281.354 1011.92 270.114 1010.56 257.633 C 1009.21 245.152 998.048 236.096 985.556 237.341 C 972.908 238.601 963.713 249.932 965.084 262.569 C 966.456 275.206 977.867 284.3 990.491 282.818 z" fill="rgb(55,126,196)" transform="translate(0,0)"></path>
<path d="M 1024.01 383.111 C 1046.43 381.405 1052.64 378.979 1073.47 371.024 C 1073.51 398.999 1074.88 439.625 1073.47 466.58 C 1058.09 460.649 1040.45 457.988 1024.01 458.187 C 1013.3 458.557 1002.4 459.503 991.86 461.498 C 986.679 463.209 981.491 464.956 976.284 466.58 C 976.25 434.986 976.837 402.532 976.284 371.024 C 981.815 372.796 986.664 374.134 991.86 376.771 C 1004.15 380.464 1011.24 381.851 1024.01 383.111 z" fill="rgb(87,150,201)" transform="translate(0,0)"></path>
<path d="M 976.284 371.024 C 981.815 372.796 986.664 374.134 991.86 376.771 C 1004.15 380.464 1011.24 381.851 1024.01 383.111 L 1024.01 458.187 C 1013.3 458.557 1002.4 459.503 991.86 461.498 C 986.679 463.209 981.491 464.956 976.284 466.58 C 976.25 434.986 976.837 402.532 976.284 371.024 z" fill="rgb(99,168,216)" transform="translate(0,0)"></path>
<path d="M 976.284 371.024 C 981.815 372.796 986.664 374.134 991.86 376.771 L 991.86 461.498 C 986.679 463.209 981.491 464.956 976.284 466.58 C 976.25 434.986 976.837 402.532 976.284 371.024 z" fill="rgb(55,126,196)" transform="translate(0,0)"></path>
<metadata><recraft-signature>{"signed_by": "recraft", "signature_b64": "yJ7A27t//sXg+3ZrDAfzZTSYQs6zmX2B5cOavCnBroAsT896/RQiPq7DRfcbkG2OIiKeFLdxpifuBy3xrki0Cw==", "signing_algo": "Ed25519", "generation_timestamp": 1782337276, "identifier": "693cc480-f633-416e-a5e1-935f04650b5c"}</recraft-signature></metadata></svg>