<svg xmlns="http://www.w3.org/2000/svg" height="512" preserveAspectRatio="none" style="display: block;" version="1.1" viewBox="0 0 2048 2048" width="512">
<defs>
	<linearGradient gradientUnits="userSpaceOnUse" id="Gradient1" x1="553.593" x2="276.298" y1="979.633" y2="972.736">
		<stop class="stop0" offset="0" stop-color="rgb(235,155,43)" stop-opacity="1"></stop>
		<stop class="stop1" offset="1" stop-color="rgb(235,135,53)" stop-opacity="1"></stop>
	</linearGradient>
</defs>
<path d="M 334.301 338.149 C 352.735 336.275 373.072 337.992 391.634 339.403 C 566.674 352.705 889.239 385.259 1023.84 509.378 C 1157.49 380.987 1483.06 351.605 1657.27 340.588 C 1755.09 334.402 1717.13 342.317 1724.95 435.017 C 1815.36 442.083 1840.97 416.281 1841 530.296 L 1840.98 1499.16 C 1841.01 1538.99 1854.86 1598.9 1797.51 1602.28 L 1186.76 1602.28 C 1108.98 1721.29 924.563 1724.7 857.632 1602.28 C 846.699 1602.85 831.409 1602.34 820.229 1602.32 L 280.655 1602.35 C 246.523 1602.68 208.646 1605.55 208.457 1557.42 L 208.466 523.799 C 208.276 455.326 212.497 434.645 287.272 434.9 L 326.437 435.017 C 327.487 410.615 318.936 351.149 334.301 338.149 z" fill="rgb(32,56,96)" transform="translate(0,0)"></path>
<path d="M 1102.71 485.46 C 1253.75 405.297 1522.98 372.889 1695.85 366.143 C 1695.03 378.943 1695.76 393.902 1695.81 406.997 L 1695.85 1446.87 C 1687.89 1447.92 1672.92 1451.32 1667.88 1443.02 C 1658.7 1441.48 1643.39 1442.93 1633.59 1442.87 C 1464.99 1441.86 1259.39 1446.07 1102.71 1518.84 C 1088.36 1529.08 1056.39 1542.99 1038.27 1553.75 L 1038.27 535.853 C 1051.03 520.018 1083.8 492.537 1102.71 485.46 z" fill="rgb(64,110,163)" transform="translate(0,0)"></path>
<path d="M 1038.27 535.853 C 1051.03 520.018 1083.8 492.537 1102.71 485.46 L 1102.71 502.902 L 1102.71 1438.11 C 1102.7 1448.82 1100.44 1514.43 1102.71 1518.84 C 1088.36 1529.08 1056.39 1542.99 1038.27 1553.75 L 1038.27 535.853 z" fill="rgb(41,79,127)" transform="translate(0,0)"></path>
<path d="M 1102.71 485.46 C 1253.75 405.297 1522.98 372.889 1695.85 366.143 C 1695.03 378.943 1695.76 393.902 1695.81 406.997 L 1695.85 1446.87 C 1687.89 1447.92 1672.92 1451.32 1667.88 1443.02 C 1668.79 1405.77 1667.87 1365.39 1667.87 1327.85 L 1667.88 395.733 C 1491.75 408.404 1308.52 429.591 1140.97 488.169 C 1128.22 492.625 1115.72 499.248 1102.71 502.902 L 1102.71 485.46 z" fill="rgb(117,159,202)" transform="translate(0,0)"></path>
<path d="M 1524.75 900.856 C 1535.32 904.214 1584.56 957.928 1599.23 971.073 C 1615.12 985.299 1562.17 1025.86 1550.89 1037.06 L 1386.81 1197.7 C 1374.9 1209.55 1333.6 1252.43 1321.3 1259.25 C 1301.57 1247.56 1263.05 1203.7 1242.96 1185.33 C 1225.84 1168.77 1209.61 1151.46 1192.76 1134.66 C 1180.88 1122.81 1154.6 1108.81 1169.33 1090.31 C 1177.02 1080.64 1232.24 1023.99 1241.53 1024.31 C 1248.84 1024.56 1311.74 1090.98 1321.3 1100.65 C 1337.91 1072.9 1409.09 1009.55 1434.37 984.753 L 1487.85 932.679 C 1497.69 923.084 1512.62 906.206 1524.75 900.856 z" fill="rgb(32,56,96)" transform="translate(0,0)"></path>
<path d="M 1524.75 933.176 C 1532.41 940.067 1538.74 946.419 1545.91 953.736 C 1554.65 962.7 1562.92 970.674 1572.04 979.244 C 1560.37 994.069 1521.82 1029.95 1506.7 1044.73 L 1371.79 1176.44 C 1355.12 1192.45 1337.04 1211.23 1321.3 1228.1 C 1281.17 1185.97 1232.87 1142.36 1195.31 1100.65 C 1204.96 1090.6 1232.76 1064.44 1242.96 1057.21 C 1255.57 1073.06 1304.63 1122.73 1321.3 1132.21 C 1331.73 1123.88 1360.58 1093.85 1370.9 1083.56 L 1464.02 991.967 C 1480.83 975.335 1507.17 947.643 1524.75 933.176 z" fill="rgb(248,144,32)" transform="translate(0,0)"></path>
<path d="M 1545.91 953.736 C 1554.65 962.7 1562.92 970.674 1572.04 979.244 C 1560.37 994.069 1521.82 1029.95 1506.7 1044.73 L 1371.79 1176.44 C 1364.98 1171.85 1349.41 1161.78 1352.76 1151.4 C 1353.32 1149.65 1518.94 973.163 1545.91 953.736 z" fill="rgb(247,168,49)" transform="translate(0,0)"></path>
<path d="M 1586.06 577.42 C 1609.02 578.361 1614.18 605.74 1581.3 609.349 C 1444.3 624.388 1313.49 650.517 1182.02 692.841 C 1179.18 692.996 1175.47 693.244 1173.35 691.285 C 1146.47 666.377 1183.97 658.659 1198.78 654.187 C 1311.84 620.053 1466.12 584.924 1586.06 577.42 z" fill="rgb(41,79,127)" transform="translate(0,0)"></path>
<path d="M 1586.06 762.426 C 1596.95 761.259 1606.87 768.525 1604.69 779.828 C 1601.24 797.734 1519.73 799.452 1501.32 802.396 C 1442.7 810.413 1235.84 844.322 1186.76 874.294 C 1166.23 875.907 1147.91 850.828 1191.99 837.305 C 1320.78 797.793 1451.78 773.443 1586.06 762.426 z" fill="rgb(41,79,127)" transform="translate(0,0)"></path>
<path d="M 353 366.143 C 371.427 366.151 390.3 366.844 408.632 368.846 C 578.445 384.97 900.534 414.355 1009.88 535.853 L 1009.88 1557.32 C 1004.24 1552.91 998.55 1548.51 993.024 1543.97 C 991.208 1544.07 988.479 1544.17 986.842 1543.33 C 778.816 1435.62 581.927 1446.76 353 1446.87 L 353 366.143 z" fill="rgb(64,110,163)" transform="translate(0,0)"></path>
<path d="M 353 366.143 C 371.427 366.151 390.3 366.844 408.632 368.846 L 408.632 395.733 C 407.329 506.86 408.64 620.877 408.641 732.17 L 408.632 1405 C 560.552 1404.31 752.152 1416.78 890.989 1478.39 C 917.779 1490.28 948.024 1511.49 974 1526.82 L 993.024 1543.97 C 991.208 1544.07 988.479 1544.17 986.842 1543.33 C 778.816 1435.62 581.927 1446.76 353 1446.87 L 353 366.143 z" fill="rgb(41,79,127)" transform="translate(0,0)"></path>
<path d="M 408.632 368.846 C 578.445 384.97 900.534 414.355 1009.88 535.853 L 1009.88 1557.32 C 1004.24 1552.91 998.55 1548.51 993.024 1543.97 L 974 1526.82 C 974.668 1518.24 974.092 1502.13 974.073 1493.05 L 974 513.528 C 961.685 509.466 949.926 504.486 937.875 499.564 C 799.214 442.928 647.047 419.796 499.043 402.58 C 471.076 399.327 435.926 394.988 408.632 395.733 L 408.632 368.846 z" fill="rgb(117,159,202)" transform="translate(0,0)"></path>
<path d="M 453.193 1121.42 C 605.949 1135.03 737.139 1155.01 884.567 1205.04 C 900.301 1210.38 921.191 1216.38 906.835 1237.98 C 890.542 1248.96 874.713 1235.22 855.86 1228.92 C 753.466 1194.67 564.038 1150.93 453.193 1155.82 L 453.193 1121.42 z" fill="rgb(41,79,127)" transform="translate(0,0)"></path>
<path d="M 453.193 757.895 C 574.608 761.484 733.483 795.23 847.417 829.806 C 868.69 837.329 926.476 844.064 906.835 874.294 C 899.111 880.446 884.022 875.265 875.455 872.228 C 738.101 823.536 597.329 803.406 453.193 788.909 L 453.193 757.895 z" fill="rgb(41,79,127)" transform="translate(0,0)"></path>
<path d="M 453.193 940.851 C 583.494 942.999 780.279 988.084 899.442 1031.25 C 912.992 1036.15 913.554 1046.3 906.835 1057.21 C 895.398 1066.35 871.682 1052.98 859.002 1049.18 C 749.609 1016.4 640.108 991.584 526.381 979.065 C 503.124 976.505 476.053 971.451 453.193 974.268 C 452.224 961.135 452.3 954.104 453.193 940.851 z" fill="rgb(41,79,127)" transform="translate(0,0)"></path>
<path d="M 453.193 572.773 C 587.439 581.326 731.539 610.738 859.133 652.646 C 875.21 659.078 926.927 664.921 906.835 692.841 C 895.841 700.581 885.234 694.482 873.866 690.502 C 740.307 643.738 593.767 614.594 453.193 604.193 C 453.975 593.544 453.501 583.418 453.193 572.773 z" fill="rgb(41,79,127)" transform="translate(0,0)"></path>
<path d="M 1023.84 1602.28 C 1033.62 1597.32 1040.56 1587.83 1049.62 1581.65 C 1157.63 1507.94 1349.29 1472.04 1482.97 1473.25 C 1480.34 1526.66 1512.17 1511 1557.84 1510.97 L 1708.41 1510.94 C 1727.88 1510.94 1758.85 1509.05 1777.15 1510.95 C 1789.49 1510.74 1803.02 1510.34 1815.26 1510.95 C 1815.18 1554.08 1827.3 1575.37 1777.15 1576.15 L 1238.39 1576.13 C 1217.75 1576.13 1191.64 1575.35 1171.45 1576.15 C 1162.23 1584.47 1156.69 1600.6 1148.13 1610.62 C 1088.32 1680.67 963.618 1682.89 900.645 1616.18 C 888.002 1602.78 883.023 1591.12 873.45 1576.15 L 292.982 1576.15 C 291.743 1561.83 292.928 1531.07 292.982 1515.25 C 298.976 1515.33 305.031 1515.27 311.032 1515.25 L 471.652 1515.28 C 482.444 1515.28 563.054 1518.17 567.102 1512.28 C 572.406 1504.56 570.527 1484.2 570.202 1474.88 C 574.388 1475.65 579.32 1475.71 583.817 1475.93 C 723.499 1482.95 870.591 1502.32 991.334 1578.08 C 1002.55 1585.11 1010.36 1595.82 1022.45 1601.62 L 1023.84 1602.28 z" fill="rgb(41,79,127)" transform="translate(0,0)"></path>
<path d="M 1777.15 1510.95 C 1789.49 1510.74 1803.02 1510.34 1815.26 1510.95 C 1815.18 1554.08 1827.3 1575.37 1777.15 1576.15 L 1777.15 1510.95 z" fill="rgb(41,79,127)" transform="translate(0,0)"></path>
<path d="M 233.856 1488.14 L 233.833 501.722 C 234.072 460.403 250.972 457.806 288.889 459.946 L 326.437 459.946 L 326.437 1474.88 L 544.01 1474.88 L 544.01 1488.14 L 389.679 1488.1 C 372.353 1488.1 332.215 1489.33 316.465 1488.14 C 310.91 1488.73 295.074 1488.23 288.794 1488.23 L 233.856 1488.14 z" fill="rgb(204,96,27)" transform="translate(0,0)"></path>
<path d="M 288.889 459.946 L 326.437 459.946 L 326.437 1474.88 L 544.01 1474.88 L 544.01 1488.14 L 389.679 1488.1 C 372.353 1488.1 332.215 1489.33 316.465 1488.14 C 308.753 1487.37 296.924 1487.97 288.889 1488.14 L 288.889 459.946 z" fill="url(#Gradient1)" transform="translate(0,0)"></path>
<path d="M 1763.39 459.946 C 1821.29 459.132 1815.29 472.756 1815.3 525.994 L 1815.26 1486.19 C 1805.73 1485.58 1801.68 1485.59 1792.27 1486.19 L 1509.01 1486.19 L 1509.01 1473.25 L 1696.18 1473.91 C 1731.38 1473.81 1724.99 1435.16 1724.98 1410.67 L 1724.95 459.946 L 1763.39 459.946 z" fill="rgb(247,168,49)" transform="translate(0,0)"></path>
<path d="M 1763.39 459.946 C 1821.29 459.132 1815.29 472.756 1815.3 525.994 L 1815.26 1486.19 C 1805.73 1485.58 1801.68 1485.59 1792.27 1486.19 C 1787.6 1485.93 1781.91 1486.15 1777.15 1486.19 C 1773.4 1445.1 1772.94 1413.91 1772.96 1372.14 L 1772.93 550.639 C 1772.93 527.402 1774.19 494.978 1772.98 472.722 C 1769.34 468.317 1766.34 464.902 1763.39 459.946 z" fill="rgb(254,209,103)" transform="translate(0,0)"></path>
<metadata><recraft-signature>{"signed_by": "recraft", "signature_b64": "lLIwOmE5MQs8u1LFGZMJs67/pAjfWEwYB624kPOhAH53uT2yHRFmupmFrhoExf5ulIvvbxlT7Sd+QCQzI+oUDg==", "signing_algo": "Ed25519", "generation_timestamp": 1782395987, "identifier": "1b3ee369-9bd9-4303-a36b-692854cb3737"}</recraft-signature></metadata></svg>