<svg version="1.1" xmlns="http://www.w3.org/2000/svg" style="display: block;" viewBox="0 0 2048 2048" width="512" height="512" preserveAspectRatio="none">
<defs>
	<linearGradient id="Gradient1" gradientUnits="userSpaceOnUse" x1="1320.47" y1="882.595" x2="1435.7" y2="927.182">
		<stop class="stop0" offset="0" stop-opacity="1" stop-color="rgb(227,131,77)"/>
		<stop class="stop1" offset="1" stop-opacity="1" stop-color="rgb(238,171,81)"/>
	</linearGradient>
</defs>
<path transform="translate(0,0)" fill="url(#Gradient1)" d="M 1596.43 201.403 C 1607.43 201.167 1621.81 198.997 1632.53 200.636 C 1654.61 204.01 1691.59 230.235 1691.08 254.671 C 1690.73 271.361 1684.13 290.618 1678.46 306.341 C 1655.95 362.934 1633.1 419.468 1611.13 476.28 L 1437.77 924.388 L 1282.58 1325.5 L 1229.99 1461.22 C 1219.17 1489.26 1208.51 1517.66 1197.1 1545.32 C 1185.77 1572.77 1166.49 1609.81 1132.1 1609.96 C 1115.87 1610.03 1091.75 1601.02 1080.39 1589.14 C 1057.04 1564.72 1071.72 1528.05 1082.58 1501.46 C 1092.75 1476.75 1101.92 1451.73 1111.52 1426.81 L 1191.22 1219.69 L 1468.36 499.328 C 1488.64 447.117 1508.55 394.764 1528.09 342.273 C 1531.49 333.415 1546.57 299.732 1547.81 292.822 C 1549.99 290.252 1553.54 280.24 1555.08 276.44 C 1567.22 246.363 1572.27 221.708 1600.94 203.705 L 1601.13 202.421 L 1601.61 202.469 L 1596.43 201.403 z"/>
<path transform="translate(0,0)" fill="rgb(233,193,156)" d="M 406.319 1740.42 C 427.415 1739.69 453.603 1740.75 475.248 1740.79 L 623.297 1740.82 L 1087.76 1740.84 L 1460.18 1740.83 L 1579.26 1740.75 C 1599.93 1740.73 1627.55 1739.73 1647.89 1741.12 C 1703.36 1744.91 1703.9 1829.75 1640.04 1831.97 L 798.636 1831.83 L 537.829 1831.84 C 499.152 1831.85 460.121 1833.23 421.507 1832.34 C 407.851 1832.02 383.368 1830 372.576 1820.99 C 352.637 1804.33 349.753 1774.95 367.683 1755.72 C 379.102 1743.34 390.655 1741.22 406.319 1740.42 z"/>
<path transform="translate(0,0)" fill="rgb(233,193,156)" d="M 1547.81 292.822 C 1541.73 293.886 1522.73 293.234 1515.19 293.195 C 1498.29 293.215 1481.4 293.324 1464.5 293.523 L 1259.09 293.254 C 1225.9 293.212 1191.58 292.607 1158.37 293.823 C 1127.99 294.936 1109.3 307.943 1089.83 330.856 C 1017.92 415.45 1005.97 541.143 1058.51 638.671 C 1074.97 669.222 1112.26 698.636 1115.9 736.085 C 1116.52 745.585 1112.56 755.091 1105.94 761.742 C 1085.89 781.919 1060.13 783.876 1040.41 762.014 C 977.307 692.06 936.206 605.028 937.866 509.456 C 940.056 415.486 972.627 318.294 1041.83 252.354 C 1099.54 197.372 1149.46 199.815 1222.72 200.533 C 1248.41 200.774 1274.1 200.869 1299.79 200.819 C 1398.67 200.312 1497.55 200.506 1596.43 201.403 L 1601.61 202.469 L 1601.13 202.421 L 1600.94 203.705 C 1572.27 221.708 1567.22 246.363 1555.08 276.44 C 1553.54 280.24 1549.99 290.252 1547.81 292.822 z"/>
</svg>