<svg xmlns="http://www.w3.org/2000/svg" height="512" preserveAspectRatio="none" style="display: block;" version="1.1" viewBox="0 0 2048 2048" width="512">
<path d="M 1422.92 134.264 C 1446.17 135.702 1562.1 213.128 1564 224.738 C 1567.76 247.65 1566.54 286.725 1566.54 310.666 L 1566.48 1292.26 C 1566.47 1359.79 1579.03 1416.28 1509.3 1459.54 C 1499.6 1465.55 1479.82 1473.61 1468.82 1479.07 L 677.569 1866.93 C 663.85 1873.58 638.313 1886.77 624.703 1891.09 C 618.972 1891.84 607.653 1892.66 602.448 1890.32 C 583.098 1881.64 488.574 1828.59 485.615 1807.74 C 483.116 1790.14 483.019 1769.42 482.996 1751.69 L 478.046 690.187 C 477.954 679.096 476.87 665.955 477.52 655.042 C 482.067 578.669 567.359 554.571 625.259 525.721 L 1262.86 210.251 C 1299.08 192.328 1388.29 141.189 1422.92 134.264 z" fill="rgb(32,58,108)" transform="translate(0,0)"></path>
<path d="M 1512.63 230.328 C 1541.84 226.237 1540.03 245.783 1540.05 268.768 L 1540.07 1204.22 C 1540.07 1256.89 1540.48 1309.65 1539.72 1362.3 C 1539.41 1383.6 1525.59 1423.27 1504.28 1433.15 C 1470.89 1448.62 1434.42 1466.14 1401.7 1482.29 L 712.049 1819.07 C 683.322 1833.2 647.407 1851.47 618.41 1863.91 C 590.557 1861.87 595.381 1810.37 595.341 1790.93 L 590.927 791.341 C 590.806 742.314 578.919 686.054 629.894 660.11 C 667.534 640.952 706.181 623.241 743.956 604.388 L 1410.78 273.664 C 1440.35 258.806 1481.5 235.52 1512.63 230.328 z" fill="rgb(87,107,136)" transform="translate(0,0)"></path>
<path d="M 1462.91 297.969 C 1470.42 297.429 1481.89 302.292 1481.9 310.734 C 1481.95 371.966 1481 433.34 1482.22 494.587 C 1482.14 515.231 1474.88 533.198 1455.09 543.502 C 1422.59 560.424 1389.5 576.24 1356.79 592.817 L 797.046 872.61 C 775.082 883.69 728.552 911.037 705.389 911.269 C 672.249 898.097 685.914 789.535 685.575 755.991 C 684.797 679.076 697.514 675.864 757.654 645.766 L 1418.99 317.586 C 1432.86 310.892 1448.49 302.911 1462.91 297.969 z" fill="rgb(32,58,108)" transform="translate(0,0)"></path>
<path d="M 1459.47 322.908 L 1460.46 323.206 C 1464.21 327.709 1462.85 347.707 1462.86 354.387 L 1462.93 404.404 C 1462.95 419.076 1467.38 509.819 1457.52 517.024 C 1448.9 523.328 1438.72 527.989 1429.22 532.872 L 726.234 885.393 C 720.194 888.49 719.054 888.644 712.313 887.96 C 711.065 886.569 706.535 881.648 706.458 879.83 C 705.45 856.629 698.58 703.741 714.146 692.924 C 740.739 674.443 790.599 652.122 818.595 638.437 L 1381.18 359.74 C 1400.06 350.625 1442.69 328.352 1459.47 322.908 z" fill="rgb(161,191,213)" transform="translate(0,0)"></path>
<path d="M 812.486 1213.12 C 838.122 1210.25 830.909 1240.2 830.975 1256.8 L 831.081 1331.03 C 831.093 1348.87 832.377 1402.57 829.649 1424.2 C 827.856 1438.41 691.529 1497.33 668.55 1511.77 C 661.459 1509.2 654.233 1504.11 651.421 1496.85 C 648.849 1490.2 648.896 1323.93 650.023 1307.58 C 651.533 1285.67 685.764 1276.63 701.812 1268.33 L 773.679 1231.74 C 784.596 1226.28 801.595 1217.19 812.486 1213.12 z" fill="rgb(32,58,108)" transform="translate(0,0)"></path>
<path d="M 658.603 1486.39 C 657.604 1441.36 654.066 1344.64 660.47 1302.77 C 661.916 1293.32 691.204 1282.76 700.012 1278.44 L 760.856 1248.36 C 792.454 1232.98 823.314 1200.42 823.235 1243.39 C 823.261 1251.93 823.511 1261.51 823.235 1269.96 C 823.401 1284.62 824.82 1420.4 821.151 1422.75 C 776.935 1451.1 721.924 1472.3 675.443 1498.05 C 665.019 1503.81 658.65 1497.06 658.603 1486.39 z" fill="rgb(244,163,42)" transform="translate(0,0)"></path>
<path d="M 658.603 1486.39 C 657.604 1441.36 654.066 1344.64 660.47 1302.77 C 661.916 1293.32 691.204 1282.76 700.012 1278.44 L 760.856 1248.36 C 792.454 1232.98 823.314 1200.42 823.235 1243.39 C 805.84 1247.34 701.227 1301.04 683.741 1311.45 L 683.686 1418.16 C 683.688 1430.64 683.004 1468.11 685.635 1478.9 C 675.597 1483.81 669.575 1488.19 658.603 1486.39 z" fill="rgb(254,200,90)" transform="translate(0,0)"></path>
<path d="M 823.235 1269.96 C 823.401 1284.62 824.82 1420.4 821.151 1422.75 C 776.935 1451.1 721.924 1472.3 675.443 1498.05 C 665.019 1503.81 658.65 1497.06 658.603 1486.39 C 669.575 1488.19 675.597 1483.81 685.635 1478.9 C 729.655 1454.57 777.466 1432.22 823.235 1411.53 C 823.31 1364.52 822.665 1316.89 823.235 1269.96 z" fill="rgb(197,98,0)" transform="translate(0,0)"></path>
<path d="M 820.025 1482.98 C 836.641 1482.79 831.27 1514.17 831.196 1525.23 L 831.107 1654 C 831.18 1672.42 837.606 1698.53 814.975 1705.92 C 791.761 1713.51 685.106 1776.89 665.521 1778.22 C 643.17 1768.85 649.624 1759.21 649.881 1736.9 L 649.969 1690.2 C 649.985 1652.91 648.671 1607.74 649.964 1570.97 C 661.845 1554.74 796.37 1493.74 820.025 1482.98 z" fill="rgb(32,58,108)" transform="translate(0,0)"></path>
<path d="M 658.603 1570.97 C 698.298 1550.85 782.609 1504.08 823.235 1491.62 C 823.691 1497.72 823.347 1505.52 823.235 1511.77 C 824.104 1566.63 824.812 1622.37 823.235 1677.21 C 823.684 1682.34 824.814 1688.18 820.945 1692.31 C 815.736 1697.88 675.171 1775.66 658.603 1764.74 C 657.862 1762.38 658.027 1583.56 658.603 1570.97 z" fill="rgb(244,163,42)" transform="translate(0,0)"></path>
<path d="M 658.603 1570.97 C 698.298 1550.85 782.609 1504.08 823.235 1491.62 C 823.691 1497.72 823.347 1505.52 823.235 1511.77 C 820.489 1520.77 702.396 1573.56 683.741 1584.97 C 683.829 1638.43 682.74 1694.89 683.741 1748.07 C 674.471 1755.4 668.771 1758.8 658.603 1764.74 C 657.862 1762.38 658.027 1583.56 658.603 1570.97 z" fill="rgb(254,200,90)" transform="translate(0,0)"></path>
<path d="M 823.235 1677.21 C 823.684 1682.34 824.814 1688.18 820.945 1692.31 C 815.736 1697.88 675.171 1775.66 658.603 1764.74 C 668.771 1758.8 674.471 1755.4 683.741 1748.07 C 689.707 1745.48 703.463 1737.79 710.407 1734.31 L 791.884 1692.92 C 799.216 1689.24 816.807 1679.48 823.235 1677.21 z" fill="rgb(197,98,0)" transform="translate(0,0)"></path>
<path d="M 816.496 944.161 C 827.382 946.283 830.805 954.353 830.817 964.534 C 830.891 1026.67 831.964 1089.13 830.419 1151.22 C 830.135 1162.62 808.217 1170.69 798.887 1175.25 L 759.989 1194.61 C 745.756 1201.72 677.259 1237.8 665.521 1238.38 C 660.338 1236.99 653.636 1235.77 651.47 1230.12 C 648.4 1222.1 649.167 1065.19 650.136 1045.32 C 650.902 1029.6 653.865 1026.26 667.499 1018.29 C 684.614 1008.3 801.949 947.233 816.496 944.161 z" fill="rgb(32,58,108)" transform="translate(0,0)"></path>
<path d="M 658.603 1037.11 C 671.112 1022.51 778.293 973.243 803.096 960.656 C 822.906 950.602 822.012 958.52 823.235 977.352 L 823.182 1095.56 C 823.178 1101.92 822.619 1137.92 823.235 1141.72 C 821.744 1158.34 813.361 1158.42 799.411 1165.16 C 757.743 1185.31 716.445 1206.25 674.831 1226.51 C 665.033 1231.27 661.774 1229.81 658.603 1219.32 C 659.338 1200.9 658.615 1177.8 658.609 1158.87 L 658.603 1037.11 z" fill="rgb(244,163,42)" transform="translate(0,0)"></path>
<path d="M 658.603 1037.11 C 671.112 1022.51 778.293 973.243 803.096 960.656 C 822.906 950.602 822.012 958.52 823.235 977.352 C 806.635 980.281 699.219 1035.13 683.741 1045.54 L 683.692 1144.07 C 683.686 1156.13 682.964 1198.35 685.635 1207.43 C 676.581 1211.54 667.768 1215.43 658.603 1219.32 C 659.338 1200.9 658.615 1177.8 658.609 1158.87 L 658.603 1037.11 z" fill="rgb(254,200,90)" transform="translate(0,0)"></path>
<path d="M 685.635 1207.43 C 727.57 1186.21 780.503 1159.28 823.235 1141.72 C 821.744 1158.34 813.361 1158.42 799.411 1165.16 C 757.743 1185.31 716.445 1206.25 674.831 1226.51 C 665.033 1231.27 661.774 1229.81 658.603 1219.32 C 667.768 1215.43 676.581 1211.54 685.635 1207.43 z" fill="rgb(197,98,0)" transform="translate(0,0)"></path>
<path d="M 1031.52 839.128 C 1046.87 836.917 1049.39 850.525 1049.48 862.743 C 1049.83 920.048 1050.21 977.438 1049.8 1034.74 C 1049.62 1059.53 1030.98 1062.9 1012.2 1072.49 L 946.004 1105.59 C 932.651 1112.18 901.528 1129.37 889.255 1133.4 C 880.509 1136.1 874.918 1132.12 872.168 1123.76 C 868.056 1111.26 859.562 929.284 882.141 913.828 C 903.207 899.407 1004.43 848.477 1031.52 839.128 z" fill="rgb(32,58,108)" transform="translate(0,0)"></path>
<path d="M 878.039 1117.07 C 877.606 1093.88 876.424 939.52 879.373 930.538 C 883.972 916.528 1031.68 846.508 1037.46 848.53 C 1042.12 854.021 1041.11 861.389 1041.18 868.767 C 1041.15 923.225 1040.54 978.772 1041.18 1033.14 C 1042.14 1050.69 1036.07 1050.66 1021 1058.1 C 979.022 1078.81 937.556 1100.53 895.616 1121.32 C 886.492 1125.84 880.642 1128.99 878.039 1117.07 z" fill="rgb(244,163,42)" transform="translate(0,0)"></path>
<path d="M 878.039 1117.07 C 877.606 1093.88 876.424 939.52 879.373 930.538 C 883.972 916.528 1031.68 846.508 1037.46 848.53 C 1042.12 854.021 1041.11 861.389 1041.18 868.767 C 1029.2 871.345 914.046 928.751 902.841 937.101 C 902.031 947.416 902.75 962.289 902.806 973.152 L 902.849 1040.67 C 902.842 1049.84 901.329 1098.14 902.841 1103.93 C 897.586 1107.2 883.362 1116.31 878.039 1117.07 z" fill="rgb(254,200,90)" transform="translate(0,0)"></path>
<path d="M 1041.18 1033.14 C 1042.14 1050.69 1036.07 1050.66 1021 1058.1 C 979.022 1078.81 937.556 1100.53 895.616 1121.32 C 886.492 1125.84 880.642 1128.99 878.039 1117.07 C 883.362 1116.31 897.586 1107.2 902.841 1103.93 C 947.934 1081.48 997.314 1057.73 1041.18 1033.14 z" fill="rgb(197,98,0)" transform="translate(0,0)"></path>
<path d="M 1473.53 1161.11 C 1486.35 1160.76 1490.63 1167.49 1490.41 1179.66 C 1489.34 1239.48 1489.1 1299.52 1490.52 1359.33 C 1491.15 1385.61 1385.66 1426.99 1361.34 1439.26 C 1351.06 1444.45 1337.12 1451.78 1326.38 1454.98 C 1313.77 1453.94 1309.32 1446.07 1308.91 1434.61 C 1308.29 1417.68 1308.51 1253.25 1311.23 1246.08 C 1315.96 1233.59 1455.79 1169.11 1473.53 1161.11 z" fill="rgb(32,58,108)" transform="translate(0,0)"></path>
<path d="M 1316.99 1248.17 C 1356.19 1223.57 1424.78 1192.54 1468.23 1172.92 C 1484.75 1165.45 1481.82 1178.41 1481.69 1191.19 C 1481.76 1243.29 1480.2 1303.08 1481.69 1354.59 C 1483.56 1368.55 1474.95 1371.82 1464 1377.93 C 1447.61 1387.08 1333.94 1444.76 1324.54 1445.23 C 1314.82 1445.72 1316.79 1428.96 1316.99 1423.26 L 1316.99 1248.17 z" fill="rgb(244,163,42)" transform="translate(0,0)"></path>
<path d="M 1316.99 1248.17 C 1356.19 1223.57 1424.78 1192.54 1468.23 1172.92 C 1484.75 1165.45 1481.82 1178.41 1481.69 1191.19 C 1446.39 1207.56 1370.88 1240.9 1343.29 1261.89 C 1344.28 1273.2 1343.37 1291.39 1343.33 1303.53 L 1343.19 1387.27 C 1343.17 1395.21 1342.45 1416.58 1343.29 1423.26 L 1316.99 1436.3 L 1316.99 1423.26 L 1316.99 1248.17 z" fill="rgb(254,200,90)" transform="translate(0,0)"></path>
<path d="M 1343.29 1423.26 C 1387.07 1404.49 1438.96 1377.19 1481.69 1354.59 C 1483.56 1368.55 1474.95 1371.82 1464 1377.93 C 1447.61 1387.08 1333.94 1444.76 1324.54 1445.23 C 1314.82 1445.72 1316.79 1428.96 1316.99 1423.26 L 1316.99 1436.3 L 1343.29 1423.26 z" fill="rgb(197,98,0)" transform="translate(0,0)"></path>
<path d="M 1471.22 624.297 C 1494.76 627.008 1489.75 648.676 1489.68 665.839 C 1489.46 715.058 1490.15 764.314 1489.52 813.523 C 1489.21 837.747 1474.07 842.481 1454.29 852.237 C 1411.15 872.265 1370.78 898.992 1326.38 916.535 C 1306.8 921.854 1309.02 894.811 1309.28 882.357 C 1310.47 823.394 1307.75 763.562 1309.26 704.702 C 1319.69 696.82 1462.46 625.762 1471.22 624.297 z" fill="rgb(32,58,108)" transform="translate(0,0)"></path>
<path d="M 1316.99 709.552 C 1365.09 683.429 1421.62 655.126 1471.22 632.112 C 1479.28 638.981 1481.38 640.687 1481.69 651.358 L 1481.67 760.827 C 1481.66 776.539 1480.91 799.965 1481.69 815.127 C 1481.15 830.282 1474.54 833.326 1461.32 839.786 C 1442.39 849.038 1329.36 914.051 1319.78 907.019 L 1316.99 900.93 C 1315.89 883.729 1316.94 851.673 1316.96 833.392 L 1316.99 709.552 z" fill="rgb(244,163,42)" transform="translate(0,0)"></path>
<path d="M 1316.99 709.552 C 1365.09 683.429 1421.62 655.126 1471.22 632.112 C 1479.28 638.981 1481.38 640.687 1481.69 651.358 C 1442.11 673.427 1376.69 698.412 1341.74 723.632 L 1341.7 831.717 C 1341.69 849.785 1341.19 870.151 1341.74 887.96 C 1333.57 893.739 1326.13 896.916 1316.99 900.93 C 1315.89 883.729 1316.94 851.673 1316.96 833.392 L 1316.99 709.552 z" fill="rgb(254,200,90)" transform="translate(0,0)"></path>
<path d="M 1481.69 815.127 C 1481.15 830.282 1474.54 833.326 1461.32 839.786 C 1442.39 849.038 1329.36 914.051 1319.78 907.019 L 1316.99 900.93 C 1326.13 896.916 1333.57 893.739 1341.74 887.96 C 1376.08 874.197 1417.3 848.469 1452.2 831.5 C 1461.81 826.828 1471.7 818.709 1481.69 815.127 z" fill="rgb(197,98,0)" transform="translate(0,0)"></path>
<path d="M 1250.82 1269.96 C 1271.03 1269.91 1267.22 1296.66 1267.04 1310.51 C 1266.49 1362.12 1267.39 1413.72 1266.55 1465.32 C 1266.09 1493.57 1235.43 1500.8 1213 1511.69 L 1139.78 1547.52 C 1131.26 1551.71 1110.74 1564.04 1103.75 1565.84 C 1090.46 1564.75 1088.65 1557.61 1087.86 1545.4 C 1086.89 1530.51 1086.8 1362.36 1088.28 1358.05 C 1093.61 1342.54 1183.29 1303.35 1200.46 1295.05 C 1217.23 1286.95 1233.52 1276.75 1250.82 1269.96 z" fill="rgb(32,58,108)" transform="translate(0,0)"></path>
<path d="M 1095.08 1359.02 C 1116.08 1340.56 1212.85 1298.07 1243.68 1283.08 C 1261.34 1274.49 1259.13 1287.76 1259.11 1301.46 L 1259.11 1467.26 C 1258.66 1485.99 1235.05 1492.01 1220.52 1498.74 C 1185.3 1515.04 1151.3 1533.75 1116.4 1550.7 C 1109.01 1554.29 1097.66 1560.87 1095.08 1549.31 L 1095.08 1359.02 z" fill="rgb(244,163,42)" transform="translate(0,0)"></path>
<path d="M 1095.08 1359.02 C 1116.08 1340.56 1212.85 1298.07 1243.68 1283.08 C 1261.34 1274.49 1259.13 1287.76 1259.11 1301.46 C 1238.24 1305.7 1143.56 1354.13 1119.84 1371.97 L 1119.84 1536.56 C 1111.79 1541.72 1104.19 1546.14 1095.08 1549.31 L 1095.08 1359.02 z" fill="rgb(254,200,90)" transform="translate(0,0)"></path>
<path d="M 1119.84 1536.56 C 1144.52 1521.41 1229.73 1475.64 1259.11 1467.26 C 1258.66 1485.99 1235.05 1492.01 1220.52 1498.74 C 1185.3 1515.04 1151.3 1533.75 1116.4 1550.7 C 1109.01 1554.29 1097.66 1560.87 1095.08 1549.31 C 1104.19 1546.14 1111.79 1541.72 1119.84 1536.56 z" fill="rgb(197,98,0)" transform="translate(0,0)"></path>
<path d="M 1250.82 728.884 C 1257.07 730.412 1263.61 733.255 1266.02 739.721 C 1268.19 745.575 1270.26 931.634 1264.66 941.121 C 1259.25 950.303 1129.09 1019.02 1103.75 1025.84 C 1092.15 1025.5 1087.73 1016.49 1087.87 1005.63 C 1088.62 943.5 1085.78 880.635 1089.05 818.758 C 1089.64 807.642 1221.44 746.019 1250.82 728.884 z" fill="rgb(32,58,108)" transform="translate(0,0)"></path>
<path d="M 1095.08 1003.42 L 1095.04 902.856 C 1095.04 891.425 1092.53 823.302 1101.21 817.594 C 1119.16 806.063 1246.74 740.345 1256.28 741.156 C 1260.48 745.957 1259.22 755.522 1259.11 762.139 L 1259.11 765.647 C 1260.91 819.312 1257.49 874.402 1259.5 928.217 C 1260.34 950.744 1137.47 1000.19 1111.86 1014.01 C 1099.92 1020.45 1095.81 1014.95 1095.08 1003.42 z" fill="rgb(244,163,42)" transform="translate(0,0)"></path>
<path d="M 1095.08 1003.42 L 1095.04 902.856 C 1095.04 891.425 1092.53 823.302 1101.21 817.594 C 1119.16 806.063 1246.74 740.345 1256.28 741.156 C 1260.48 745.957 1259.22 755.522 1259.11 762.139 C 1218.24 780.657 1157.95 807.895 1119.84 831.683 L 1119.84 995.369 C 1113.82 999.083 1098.07 1012.36 1095.08 1003.42 z" fill="rgb(254,200,90)" transform="translate(0,0)"></path>
<path d="M 1259.11 765.647 C 1260.91 819.312 1257.49 874.402 1259.5 928.217 C 1260.34 950.744 1137.47 1000.19 1111.86 1014.01 C 1099.92 1020.45 1095.81 1014.95 1095.08 1003.42 C 1098.07 1012.36 1113.82 999.083 1119.84 995.369 C 1164.84 975.267 1216.71 948.585 1259.11 924.4 L 1259.11 765.647 z" fill="rgb(197,98,0)" transform="translate(0,0)"></path>
<path d="M 1038.97 1376.07 C 1055.38 1378.42 1050.51 1406.09 1050.31 1418.33 C 1049.44 1471.5 1049.63 1524.74 1050.49 1577.89 C 1050.77 1594.71 1030.74 1599.75 1018.3 1605.61 L 971.791 1627.86 C 954.571 1636.2 900.289 1667.6 884.63 1670.52 C 879.335 1667.14 874.35 1662.54 872.135 1656.49 C 868.36 1646.18 868.962 1495.09 870.204 1474.53 C 871.039 1460.7 874.546 1456.26 886.898 1449.94 C 924.744 1430.6 1000.29 1387.55 1038.97 1376.07 z" fill="rgb(32,58,108)" transform="translate(0,0)"></path>
<path d="M 878.039 1649.58 L 877.984 1524.31 C 877.977 1512.37 877.086 1473.99 879.531 1464.87 C 886.515 1458.1 1024.73 1389.84 1038.28 1385.68 L 1040.21 1386.7 C 1043.75 1392.7 1041.91 1400.81 1041.18 1407.89 L 1041.18 1570.97 C 1041.88 1575.73 1042.52 1579.93 1039.39 1583.98 C 1035.27 1589.3 897.301 1656.73 886.686 1660.35 C 881.684 1658.76 879.895 1654.34 878.039 1649.58 z" fill="rgb(244,163,42)" transform="translate(0,0)"></path>
<path d="M 878.039 1649.58 L 877.984 1524.31 C 877.977 1512.37 877.086 1473.99 879.531 1464.87 C 886.515 1458.1 1024.73 1389.84 1038.28 1385.68 L 1040.21 1386.7 C 1043.75 1392.7 1041.91 1400.81 1041.18 1407.89 C 1030.37 1409.97 917.304 1465.64 902.841 1478.9 C 903.844 1493.88 902.874 1517.13 902.866 1533.04 L 902.841 1637.89 C 894.383 1642.71 887.394 1646.67 878.039 1649.58 z" fill="rgb(254,200,90)" transform="translate(0,0)"></path>
<path d="M 1041.18 1570.97 C 1041.88 1575.73 1042.52 1579.93 1039.39 1583.98 C 1035.27 1589.3 897.301 1656.73 886.686 1660.35 C 881.684 1658.76 879.895 1654.34 878.039 1649.58 C 887.394 1646.67 894.383 1642.71 902.841 1637.89 C 912.798 1633.6 926.729 1626.12 936.897 1621.2 L 1001.29 1590.14 C 1012.34 1584.7 1030.23 1575.17 1041.18 1570.97 z" fill="rgb(197,98,0)" transform="translate(0,0)"></path>
<path d="M 1031.52 1110.19 C 1047.45 1108.5 1049 1121.82 1049.38 1134.57 C 1051.04 1190.23 1050.95 1246.9 1049.81 1302.58 C 1049.32 1326.73 1026.8 1332.78 1008.55 1342.17 C 971.144 1361.44 927.423 1385.17 889.255 1402.22 C 874.265 1402.81 868.965 1393.97 869.293 1379.75 C 869.799 1357.8 867.644 1202.72 871.686 1195.53 C 882.027 1178.08 1009.95 1119.91 1031.52 1110.19 z" fill="rgb(32,58,108)" transform="translate(0,0)"></path>
<path d="M 878.039 1385.29 C 878.024 1362.56 875.888 1206.13 879.935 1197.78 C 884.571 1188.21 1023.76 1120.59 1030.62 1119.6 C 1043.14 1117.81 1041.38 1133.81 1041.18 1141.72 L 1041.15 1248.24 C 1041.15 1264.69 1040.56 1285.3 1041.18 1301.46 C 1041.3 1307.46 1041.76 1312.16 1037.16 1316.72 C 1029.23 1324.58 893.26 1392.67 884.891 1392.17 C 880.411 1391.9 879.171 1388.98 878.039 1385.29 z" fill="rgb(244,163,42)" transform="translate(0,0)"></path>
<path d="M 878.039 1385.29 C 878.024 1362.56 875.888 1206.13 879.935 1197.78 C 884.571 1188.21 1023.76 1120.59 1030.62 1119.6 C 1043.14 1117.81 1041.38 1133.81 1041.18 1141.72 C 1018.29 1148.09 915.952 1199.14 902.841 1213.12 L 902.782 1324.48 C 902.774 1333.13 901.966 1365.07 902.841 1371.97 C 894.002 1377.99 888.081 1381.28 878.039 1385.29 z" fill="rgb(254,200,90)" transform="translate(0,0)"></path>
<path d="M 902.841 1371.97 C 940.503 1357.24 1005.53 1321.24 1041.18 1301.46 C 1041.3 1307.46 1041.76 1312.16 1037.16 1316.72 C 1029.23 1324.58 893.26 1392.67 884.891 1392.17 C 880.411 1391.9 879.171 1388.98 878.039 1385.29 C 888.081 1381.28 894.002 1377.99 902.841 1371.97 z" fill="rgb(197,98,0)" transform="translate(0,0)"></path>
<path d="M 1471.22 893.137 C 1485.52 891.247 1488.54 901.409 1489.42 914.186 C 1490.47 929.432 1490.9 1090.61 1488.96 1096.5 C 1485.1 1108.22 1460.66 1117.22 1450.64 1122.22 L 1407.72 1143.68 C 1382.19 1156.47 1351.41 1173.65 1326.38 1184.95 C 1314.15 1189.53 1308.47 1174.5 1308.69 1165.1 C 1310.02 1108.46 1308.5 1051.81 1309.69 995.186 C 1310.25 968.43 1332.28 960.85 1354.94 950.499 C 1392.57 933.314 1433.08 907.563 1471.22 893.137 z" fill="rgb(32,58,108)" transform="translate(0,0)"></path>
<path d="M 1316.99 981.021 C 1330.49 970.511 1459.44 905.802 1473.61 901.673 C 1482.66 899.035 1481.48 919.408 1481.69 924.4 L 1481.69 1083.54 C 1481.68 1090.75 1482.71 1096.26 1475.43 1100.13 C 1451.65 1112.73 1333.09 1175.27 1320.69 1175.44 C 1316.94 1172.42 1317.09 1170.42 1316.99 1165.78 L 1316.99 981.021 z" fill="rgb(244,163,42)" transform="translate(0,0)"></path>
<path d="M 1316.99 981.021 C 1330.49 970.511 1459.44 905.802 1473.61 901.673 C 1482.66 899.035 1481.48 919.408 1481.69 924.4 C 1467.06 927.497 1355.64 984.629 1341.74 995.369 L 1341.71 1094.63 C 1341.69 1110.2 1340.98 1137.82 1343.29 1152.61 C 1334.56 1157.07 1325.85 1161.59 1316.99 1165.78 L 1316.99 981.021 z" fill="rgb(254,200,90)" transform="translate(0,0)"></path>
<path d="M 1343.29 1152.61 C 1390.31 1131.44 1434.82 1104.71 1481.69 1083.54 C 1481.68 1090.75 1482.71 1096.26 1475.43 1100.13 C 1451.65 1112.73 1333.09 1175.27 1320.69 1175.44 C 1316.94 1172.42 1317.09 1170.42 1316.99 1165.78 C 1325.85 1161.59 1334.56 1157.07 1343.29 1152.61 z" fill="rgb(197,98,0)" transform="translate(0,0)"></path>
<path d="M 1250.82 1003.42 C 1264.17 999.331 1266.48 1009.47 1266.66 1020.34 C 1267.61 1078.96 1270.43 1149.33 1266.94 1207.43 C 1257.85 1218.75 1125.55 1282.21 1103.75 1292.44 C 1085.74 1291.22 1087.24 1274.68 1087.47 1260.62 C 1088.2 1214.77 1087.59 1168.81 1087.66 1122.98 C 1088.79 1100.57 1078.35 1087.63 1102.69 1074.76 C 1128.08 1061.34 1225.25 1008.01 1250.82 1003.42 z" fill="rgb(32,58,108)" transform="translate(0,0)"></path>
<path d="M 1095.08 1275.37 C 1095.02 1252.22 1093.01 1103.19 1096.16 1093.32 C 1100.53 1079.66 1248.42 1008.1 1255.75 1010.83 C 1260.28 1016.43 1259.18 1022.38 1259.11 1029.72 L 1259.11 1121.17 C 1259.44 1132.42 1260.26 1197.11 1257.88 1203.32 C 1243.93 1217.53 1138.62 1267.14 1114.78 1278.35 C 1106.5 1282.25 1097.83 1288.47 1095.08 1275.37 z" fill="rgb(244,163,42)" transform="translate(0,0)"></path>
<path d="M 1095.08 1275.37 C 1095.02 1252.22 1093.01 1103.19 1096.16 1093.32 C 1100.53 1079.66 1248.42 1008.1 1255.75 1010.83 C 1260.28 1016.43 1259.18 1022.38 1259.11 1029.72 C 1222.51 1049.21 1149.71 1078.85 1119.84 1103.93 C 1119.82 1156.1 1119.1 1209.86 1119.84 1261.89 C 1111.91 1266.55 1103.5 1271.82 1095.08 1275.37 z" fill="rgb(254,200,90)" transform="translate(0,0)"></path>
<path d="M 1259.11 1121.17 C 1259.44 1132.42 1260.26 1197.11 1257.88 1203.32 C 1243.93 1217.53 1138.62 1267.14 1114.78 1278.35 C 1106.5 1282.25 1097.83 1288.47 1095.08 1275.37 C 1103.5 1271.82 1111.91 1266.55 1119.84 1261.89 L 1205.05 1218.14 C 1223.1 1209.03 1241.25 1200.77 1259.11 1191.19 C 1259.05 1168.11 1258.71 1144.18 1259.11 1121.17 z" fill="rgb(197,98,0)" transform="translate(0,0)"></path>
<path d="M 541.801 592.287 C 559.841 605.693 600.219 624.724 613.983 638.342 C 563.738 665.12 563.974 709.126 564.114 758.734 L 568.985 1845.98 C 553.931 1838.43 521.168 1815.72 508.07 1805.64 C 506.602 1795.49 507.051 1776.72 507.032 1766 L 499.907 754.233 C 499.656 701.933 486.283 622.019 541.801 592.287 z" fill="rgb(121,144,167)" transform="translate(0,0)"></path>
<path d="M 1427.05 153.954 C 1450.47 162.502 1485.51 192.919 1512.63 204.385 C 1469.6 207.811 1270.59 315.707 1224.05 338.736 L 839.285 527.972 C 764.913 564.522 688.838 603.13 613.983 638.342 C 600.219 624.724 559.841 605.693 541.801 592.287 C 579.738 570.351 635.463 546.56 675.374 526.786 L 1369.52 182.465 C 1388.11 173.232 1408.25 162.257 1427.05 153.954 z" fill="rgb(87,107,136)" transform="translate(0,0)"></path>
<metadata><recraft-signature>{"signed_by": "recraft", "signature_b64": "6AlbD9ZIKW/F2upP70NrIkSS9kepWm86Ys0E6KS+4NrS5Hi2BDdn2xMLkCmfMqWPUvcnreBS/z01IsuU1zpcCw==", "signing_algo": "Ed25519", "generation_timestamp": 1782396004, "identifier": "57bc951f-d691-465b-8f3c-1ee27bf81434"}</recraft-signature></metadata></svg>