<svg xmlns="http://www.w3.org/2000/svg" height="512" preserveAspectRatio="none" style="display: block;" version="1.1" viewBox="0 0 2048 2048" width="512">
<path d="M 1610.39 201.114 C 1628.29 200.897 1641.1 199.439 1656.09 211.448 C 1671.61 223.437 1687 228.549 1690.42 251.521 C 1694.3 277.607 1653.17 365.35 1642.71 392.3 L 1203.36 1527.52 C 1187.27 1568.81 1163.98 1629.39 1105.19 1603.66 C 1044.91 1580.12 1074.25 1526.15 1090.03 1486.42 L 1501.53 416.753 C 1517.18 375.483 1532.26 334.006 1548.53 292.972 C 1559.03 267.044 1574.1 205.884 1610.39 201.114 z" fill="rgb(234,159,79)" transform="translate(0,0)"></path>
<path d="M 1610.39 201.114 C 1628.29 200.897 1641.1 199.439 1656.09 211.448 C 1650.8 216.767 1636.95 216.192 1629 220.77 C 1605.5 234.287 1598.93 264.553 1589.43 287.974 L 1123.69 1498.95 C 1115.4 1520.59 1102.36 1546.78 1097.53 1568.98 C 1094.29 1583.84 1107.98 1596.71 1105.19 1603.66 C 1044.91 1580.12 1074.25 1526.15 1090.03 1486.42 L 1501.53 416.753 C 1517.18 375.483 1532.26 334.006 1548.53 292.972 C 1559.03 267.044 1574.1 205.884 1610.39 201.114 z" fill="rgb(224,127,75)" transform="translate(0,0)"></path>
<path d="M 395.281 1741.02 C 413.165 1740.2 437.818 1741.02 456.227 1741.02 L 1647.06 1741.15 C 1694.77 1740.06 1707.08 1819.49 1650.25 1831.35 C 1637.72 1832.34 1614.69 1831.4 1601.05 1831.39 L 499.916 1831.39 C 477.477 1831.4 396.832 1835.97 379.346 1825.22 C 340.828 1801.55 352.362 1750.32 395.281 1741.02 z" fill="rgb(233,193,155)" transform="translate(0,0)"></path>
<path d="M 1548.53 292.972 C 1523.11 292.043 1491.67 292.952 1465.74 292.959 L 1205.57 292.882 C 1145.75 292.66 1121.47 287.876 1080.77 340.778 C 1014.41 427.029 1006.62 551.104 1061.18 645.049 C 1078.23 674.401 1141.49 729.09 1103.85 763.234 C 1060.49 802.569 1032.34 753.103 1011.99 725.916 C 968.274 667.536 944.571 608.782 939.408 536.764 C 930.382 410.847 992.665 248.454 1121.26 206.515 C 1148.15 198.195 1225.04 201.075 1256.18 201.106 L 1565.37 201.155 C 1579.39 201.261 1594.71 202.182 1608.48 201.252 L 1610.39 201.114 C 1574.1 205.884 1559.03 267.044 1548.53 292.972 z" fill="rgb(233,193,155)" transform="translate(0,0)"></path>
<metadata><recraft-signature>{"signed_by": "recraft", "signature_b64": "js7Vmylblhzx+IcgBZ/3Eyu1T5nEk0HN8Ny9xD8eaYVKMBylKhYP4NIxZ7pbkXMQmsJSQNLgthGw9/XNSAbfDw==", "signing_algo": "Ed25519", "generation_timestamp": 1782332406, "identifier": "fa1f8945-10d4-4ecc-ae7f-b352503c99cf"}</recraft-signature></metadata></svg>