<svg xmlns="http://www.w3.org/2000/svg" height="512" preserveAspectRatio="none" style="display: block;" version="1.1" viewBox="0 0 2048 2048" width="512">
<path d="M 514.611 283.03 C 541.153 282.255 571.197 282.979 598.132 283.004 L 1445.04 283.014 C 1477.19 283.01 1556.08 272.926 1573.23 307.907 C 1580.16 322.039 1576.76 343.476 1577.69 359.348 C 1575.52 397.165 1590.77 441.066 1540.95 451.858 C 1535.89 452.964 1523.32 469.065 1519.97 473.869 C 1467.48 548.969 1451.32 647.835 1476.79 735.836 C 1492.13 785.399 1523.34 830.021 1548.21 875.118 C 1603.08 974.629 1674.02 1076.17 1705.24 1186.07 C 1761.51 1384.17 1667.17 1596.37 1483.51 1689.03 C 1387.33 1736.43 1328.55 1741.28 1226.24 1741.21 L 792.371 1741.27 C 559.767 1741.32 354.694 1593.86 328.656 1351.79 C 309.676 1175.34 401.941 1044.01 487.109 899.386 C 587.044 729.681 635.15 637.14 514.611 453.913 C 464.87 450.059 470.759 400.385 470.928 365.787 C 471.119 326.894 466.186 292.939 514.611 283.03 z" fill="rgb(20,49,111)" transform="translate(0,0)"></path>
<path d="M 628.385 702.996 L 1420.42 702.996 C 1426.16 763.965 1466.31 830.925 1496.59 883.004 L 1550.4 976.384 C 1611.75 1081.08 1659.14 1159.72 1673.52 1280.75 C 1607.65 1316.67 1569.71 1334.35 1494.82 1356.5 C 1489.61 1345.8 1485.09 1334.69 1478.86 1324.61 C 1425.95 1238.97 1306.17 1198.82 1218.18 1251.17 C 1222.56 1234.8 1224.89 1220.51 1225 1203.5 C 1229.68 1135.02 1189.3 1065.37 1130.33 1031.37 C 979.405 944.377 794.971 1080.15 839.4 1251.17 C 726.704 1203.69 627.745 1256.04 575.765 1358.5 C 500.524 1345.95 438.857 1327.13 376.495 1280.75 C 381.675 1168.93 451.404 1054.77 506.974 961.522 C 553.569 883.338 614.639 791.741 628.385 702.996 z" fill="rgb(88,142,202)" transform="translate(0,0)"></path>
<path d="M 690.242 759.875 C 707.756 757.105 782.624 758.869 801.842 759.875 C 812.852 766.645 814.393 773.015 817.064 784.842 C 810.165 813.68 787.125 808.664 764.254 808.569 L 714.602 808.444 C 663.117 935.164 574.879 1037.39 528.004 1155.72 C 520.829 1173.06 518.091 1191.06 511.357 1208.47 C 502.975 1230.14 469.923 1227.11 465.858 1205.02 C 457.224 1154.19 552.968 1002.44 580.743 959.938 C 610.277 914.739 637.369 864.082 658.684 814.5 C 666.246 796.911 668.33 764.27 690.242 759.875 z" fill="rgb(20,49,111)" transform="translate(0,0)"></path>
<path d="M 874.809 759.875 C 892.557 757.124 948.005 755.848 957.788 770.755 C 967.473 785.514 955.67 801.01 942.379 808.444 C 914.703 811.137 866.807 815.414 856.5 784.842 C 859.43 771.708 861.816 765.274 874.809 759.875 z" fill="rgb(20,49,111)" transform="translate(0,0)"></path>
<path d="M 571.868 453.913 L 607.096 453.913 L 1442.83 454.01 C 1452.57 454.097 1465.48 454.876 1474.89 453.913 C 1438.6 517.447 1415.93 579.638 1417.22 654.102 L 631.157 654.102 C 633.675 598.981 619.997 539.323 594.155 491.171 C 592.527 488.137 588.485 481.157 587.55 478.206 C 582.176 470.233 577.661 462.309 571.868 453.913 z" fill="rgb(190,210,224)" transform="translate(0,0)"></path>
<path d="M 571.868 453.913 L 607.096 453.913 C 601.119 455.313 594.742 455.518 588.694 454.453 L 586.711 455.82 C 590.829 462.727 591.26 463.094 583.964 467.52 C 586.088 471.501 587.906 473.794 587.55 478.206 C 582.176 470.233 577.661 462.309 571.868 453.913 z" fill="rgb(221,224,229)" transform="translate(0,0)"></path>
<path d="M 1669.76 1337.04 C 1671.02 1344.78 1666.62 1369.87 1664.83 1378.38 C 1631.05 1538.73 1519.01 1642.62 1362.08 1682.87 C 1304.69 1697.6 1255.72 1694.05 1197.29 1694.02 L 844.809 1694.04 C 703.196 1694.03 610.493 1686.32 496.232 1583.76 C 431.567 1525.72 380.58 1424.81 376.495 1337.04 C 386.066 1341.98 397.961 1350 406.457 1356.5 C 461.966 1380.31 501.877 1395.25 563.218 1407.2 C 551.23 1582.48 726.425 1697.91 870.896 1604.05 C 881.757 1597 890.036 1588.33 899.898 1580.16 C 965.655 1654.04 1069.88 1675.87 1156.68 1623.95 C 1170.68 1615.57 1183.33 1604.55 1196.42 1594.78 C 1286.67 1663.57 1424.34 1630.52 1479.29 1533.41 C 1505.1 1487.8 1508.58 1453.44 1507.11 1402.54 C 1560.17 1392.54 1622.41 1362.03 1669.76 1337.04 z" fill="rgb(13,99,181)" transform="translate(0,0)"></path>
<path d="M 519.107 331.07 L 1529.21 331.07 C 1529.16 355.037 1529.89 381.153 1529.21 404.917 L 519.107 404.917 L 519.107 331.07 z" fill="rgb(246,172,5)" transform="translate(0,0)"></path>
<path d="M 1039.26 1306.05 C 1121.36 1298.58 1193.98 1359.06 1201.48 1441.15 C 1208.99 1523.25 1148.54 1595.89 1066.45 1603.43 C 984.305 1610.98 911.604 1550.49 904.094 1468.34 C 896.584 1386.19 957.111 1313.52 1039.26 1306.05 z" fill="rgb(248,139,16)" transform="translate(0,0)"></path>
<path d="M 747.558 1283.37 C 804.736 1275.87 850.938 1304.37 887.89 1345.59 C 852.953 1403.06 839.675 1473.35 874.809 1534.91 C 841.729 1566.88 816.998 1581.6 770.767 1587.02 C 577.202 1592.1 550.49 1306.31 747.558 1283.37 z" fill="rgb(248,139,16)" transform="translate(0,0)"></path>
<path d="M 1294.69 1277.4 C 1460.75 1255.2 1541.98 1520.34 1338.34 1580.16 L 1336.48 1580.45 C 1297.34 1586.31 1257.03 1580.03 1225 1555.65 C 1269.06 1455.65 1260.25 1405.42 1200.93 1321.98 C 1226.73 1296.38 1258.61 1281.06 1294.69 1277.4 z" fill="rgb(248,139,16)" transform="translate(0,0)"></path>
<path d="M 1021.72 1053.41 C 1116.26 1043.36 1197.37 1142.46 1172.09 1235.88 C 1167.19 1254 1159.95 1267.05 1151.15 1283.37 C 1102.39 1252.68 1070.82 1257.39 1018.19 1256.91 C 1012 1260.82 991.156 1265.85 983 1268.78 C 958.572 1277.58 941.488 1289.79 921.461 1305.39 C 838.337 1204.47 891.932 1065.82 1021.72 1053.41 z" fill="rgb(248,139,16)" transform="translate(0,0)"></path>
<metadata><recraft-signature>{"signed_by": "recraft", "signature_b64": "uVtdi6QpXgvsb7GdOyN65c6oU72KSXK6hg+mNQALO46Nx5LbIT957eFviQBD0REl3fHwBtBoKdEQ5tvaP6n8Dg==", "signing_algo": "Ed25519", "generation_timestamp": 1782395417, "identifier": "38833f4e-d809-4ab8-9703-41b488045252"}</recraft-signature></metadata></svg>