<svg version="1.1" xmlns="http://www.w3.org/2000/svg" style="display: block;" viewBox="0 0 2048 2048" width="512" height="512" preserveAspectRatio="none">
<defs>
	<linearGradient id="Gradient1" gradientUnits="userSpaceOnUse" x1="795.838" y1="988.182" x2="661.233" y2="994.23">
		<stop class="stop0" offset="0" stop-opacity="1" stop-color="rgb(234,163,124)"/>
		<stop class="stop1" offset="1" stop-opacity="1" stop-color="rgb(240,193,166)"/>
	</linearGradient>
	<linearGradient id="Gradient2" gradientUnits="userSpaceOnUse" x1="1085.35" y1="1033.93" x2="782.33" y2="1046.41">
		<stop class="stop0" offset="0" stop-opacity="1" stop-color="rgb(219,102,36)"/>
		<stop class="stop1" offset="1" stop-opacity="1" stop-color="rgb(234,167,129)"/>
	</linearGradient>
	<linearGradient id="Gradient3" gradientUnits="userSpaceOnUse" x1="669.622" y1="932.217" x2="376.297" y2="946.674">
		<stop class="stop0" offset="0" stop-opacity="1" stop-color="rgb(240,190,162)"/>
		<stop class="stop1" offset="1" stop-opacity="1" stop-color="rgb(255,255,255)"/>
	</linearGradient>
</defs>
<path transform="translate(0,0)" fill="url(#Gradient3)" d="M 360.924 1508.98 C 359.251 1494.73 360.312 1474.51 360.339 1459.91 L 360.372 1375.24 L 360.375 1091.54 L 360.464 590.183 L 360.478 426.811 C 360.467 402.847 360.176 379.206 360.118 354.862 C 360.081 339.228 363.498 313.544 386.05 328.676 C 389.968 331.305 390.952 336.866 391.131 341.335 C 391.908 360.726 390.376 380.625 390.222 400.001 L 390.097 531.005 L 391.057 532.424 C 432.768 539.534 464.339 550.041 504.316 564.121 C 687.143 628.511 840.015 755.825 951.501 913.009 C 985.971 961.884 1016.15 1013.65 1041.69 1067.73 C 1080.48 1148.75 1096.39 1226.56 1176.59 1278.08 C 1203.12 1295.12 1229.99 1307.31 1261.29 1312.66 C 1269.11 1314.03 1277.01 1314.98 1284.93 1315.5 C 1299.06 1316.29 1315.85 1315.78 1328.48 1318.93 C 1345.29 1323.12 1340.73 1341.29 1327.07 1344.3 C 1307.1 1348.69 1267.13 1346.2 1248.29 1346.17 L 1127 1346.14 L 532.985 1345.76 L 436.802 1345.53 C 429.202 1345.57 395.938 1346.42 390.448 1345.54 C 389.493 1348.62 390.053 1372.52 390.064 1377.79 L 390.135 1460.29 C 390.136 1473.67 390.721 1496.55 389.227 1508.97 C 394.389 1508.74 399.554 1508.58 404.72 1508.49 C 497.554 1507.09 593.421 1508.53 686.501 1508.41 L 1282.93 1508.07 L 1653.39 1508.07 L 1778.56 1508.16 C 1796.66 1508.19 1814.83 1507.75 1832.92 1508.01 C 1841.51 1508.13 1858.7 1511.04 1858.28 1522.54 C 1857.85 1534.48 1846.36 1538.85 1835.99 1539.05 C 1816.79 1539.32 1797.76 1539.19 1778.65 1539.19 L 1667.45 1539.19 L 1328.07 1539.18 L 389.379 1538.85 C 391.949 1565.62 390.063 1598.71 390.165 1626.21 C 390.24 1646.09 392.359 1667.77 390.32 1687.46 C 390.009 1690.47 389.297 1692.7 387.349 1695.06 C 385.062 1697.82 380.925 1699.54 377.391 1699.67 C 373.453 1699.8 366.755 1697.95 364.177 1694.71 C 358.227 1687.22 359.565 1556.05 361.018 1538.28 C 346.731 1539.2 201.298 1540.88 195.254 1536.78 C 190.847 1533.79 190.182 1528.28 188.9 1523.48 C 191.724 1514.13 194.473 1509.69 204.845 1509.16 C 245.96 1507.08 287.349 1508.64 328.521 1508.39 C 339.078 1508.33 350.473 1508.22 360.924 1508.98 z M 390.11 630.067 C 456.808 631.743 555.736 676.843 614.703 707.858 C 624.243 712.875 655.719 729.844 663.361 736.067 C 673.648 742.038 685.907 751.483 695.964 758.23 C 720.766 774.869 744.513 792.597 767.027 812.234 C 774.275 818.557 779.561 821.931 786.226 829.375 L 789.748 833.253 C 802.202 842.291 824.111 864.57 835.444 876.115 C 883.251 925.555 928.504 977.403 971.024 1031.46 C 978.82 1041.2 1011.67 1086.34 1017.54 1090.87 C 1016.53 1086.42 1010.55 1074.18 1008.28 1069.49 C 891.528 828.836 659.599 612.91 391.976 562.935 C 389.142 568.696 390.195 619.699 390.11 630.067 z"/>
<path transform="translate(0,0)" fill="rgb(40,54,71)" d="M 391.057 532.424 C 432.768 539.534 464.339 550.041 504.316 564.121 C 687.143 628.511 840.015 755.825 951.501 913.009 C 985.971 961.884 1016.15 1013.65 1041.69 1067.73 C 1080.48 1148.75 1096.39 1226.56 1176.59 1278.08 C 1203.12 1295.12 1229.99 1307.31 1261.29 1312.66 C 1269.11 1314.03 1277.01 1314.98 1284.93 1315.5 C 1299.06 1316.29 1315.85 1315.78 1328.48 1318.93 C 1345.29 1323.12 1340.73 1341.29 1327.07 1344.3 C 1307.1 1348.69 1267.13 1346.2 1248.29 1346.17 L 1127 1346.14 L 532.985 1345.76 L 436.802 1345.53 C 429.202 1345.57 395.938 1346.42 390.448 1345.54 C 392.134 1336.13 389.588 1323.78 393.428 1318.87 L 397.94 1318.55 C 394.132 1318.23 392.941 1318.82 390.425 1316.88 C 388.789 1302.22 389.996 1264.93 389.8 1248.09 L 583.95 1248.02 C 615.895 1248.01 651.731 1248.81 683.413 1247.86 C 687.749 1248.17 692.818 1248.05 697.202 1248 C 727.463 1247.7 757.839 1249 788.038 1246.69 C 794.041 1246.23 799.839 1245.69 805.829 1246.19 L 809.517 1245.97 C 804.466 1241.72 804.102 1245.54 799.784 1241.17 C 796.13 1233.28 794.574 1217.54 793.953 1208.51 C 785.913 1091.58 776.082 972.955 777.596 855.798 C 777.627 853.392 783.921 844.428 784.084 842.039 C 784.223 840.024 781.363 838.78 782.617 834.59 C 785.031 836.53 785.141 836.733 787.917 837.999 L 789.317 836.93 L 789.748 833.253 C 802.202 842.291 824.111 864.57 835.444 876.115 C 883.251 925.555 928.504 977.403 971.024 1031.46 C 978.82 1041.2 1011.67 1086.34 1017.54 1090.87 C 1016.53 1086.42 1010.55 1074.18 1008.28 1069.49 C 891.528 828.836 659.599 612.91 391.976 562.935 C 390.45 554.57 392.177 542.338 391.057 532.424 z"/>
<path transform="translate(0,0)" fill="url(#Gradient2)" d="M 789.748 833.253 C 802.202 842.291 824.111 864.57 835.444 876.115 C 883.251 925.555 928.504 977.403 971.024 1031.46 C 978.82 1041.2 1011.67 1086.34 1017.54 1090.87 C 1030.08 1103.29 1053.45 1170.75 1063.69 1190.09 C 1073.76 1209.11 1085.03 1228.02 1097.79 1245.83 C 1097.01 1246.48 1096.23 1247.13 1095.45 1247.78 C 1080.73 1249.08 1044.94 1249.69 1031.49 1249.06 C 1026.64 1249.24 1020.86 1249.03 1015.96 1248.92 C 979.298 1248.06 942.57 1249.74 905.926 1248.97 C 891.886 1248.67 877.339 1246.54 863.248 1245.71 C 845.346 1244.82 827.409 1244.91 809.517 1245.97 C 804.466 1241.72 804.102 1245.54 799.784 1241.17 C 796.13 1233.28 794.574 1217.54 793.953 1208.51 C 785.913 1091.58 776.082 972.955 777.596 855.798 C 777.627 853.392 783.921 844.428 784.084 842.039 C 784.223 840.024 781.363 838.78 782.617 834.59 C 785.031 836.53 785.141 836.733 787.917 837.999 L 789.317 836.93 L 789.748 833.253 z"/>
<path transform="translate(0,0)" fill="rgb(225,132,79)" d="M 1097.79 1245.83 C 1117.08 1263.65 1128.32 1277.63 1149.58 1294.46 C 1161.53 1303.41 1174.58 1311.06 1187.22 1319.07 C 1123.25 1317.94 1056.93 1318.79 992.803 1318.7 L 620.055 1318.36 L 499.981 1318.59 C 468.424 1318.92 429.19 1320.01 397.94 1318.55 C 394.132 1318.23 392.941 1318.82 390.425 1316.88 C 388.789 1302.22 389.996 1264.93 389.8 1248.09 L 583.95 1248.02 C 615.895 1248.01 651.731 1248.81 683.413 1247.86 C 687.749 1248.17 692.818 1248.05 697.202 1248 C 727.463 1247.7 757.839 1249 788.038 1246.69 C 794.041 1246.23 799.839 1245.69 805.829 1246.19 L 809.517 1245.97 C 827.409 1244.91 845.346 1244.82 863.248 1245.71 C 877.339 1246.54 891.886 1248.67 905.926 1248.97 C 942.57 1249.74 979.298 1248.06 1015.96 1248.92 C 1020.86 1249.03 1026.64 1249.24 1031.49 1249.06 C 1044.94 1249.69 1080.73 1249.08 1095.45 1247.78 C 1096.23 1247.13 1097.01 1246.48 1097.79 1245.83 z"/>
<path transform="translate(0,0)" fill="rgb(196,90,35)" d="M 1097.79 1245.83 C 1117.08 1263.65 1128.32 1277.63 1149.58 1294.46 C 1136.97 1298.19 1133.74 1290.94 1126.31 1283.66 C 1120.94 1283.07 1126.96 1285.11 1121.51 1287.74 C 1119.42 1286.6 1110.52 1276.75 1106.18 1273.16 C 1093.36 1282.44 1085.1 1282.35 1069.87 1277.14 C 1057.34 1272.85 1043.56 1264.06 1037.64 1251.84 L 1038.45 1251.02 C 1037.08 1249.44 1034.18 1249.52 1031.49 1249.06 C 1044.94 1249.69 1080.73 1249.08 1095.45 1247.78 C 1096.23 1247.13 1097.01 1246.48 1097.79 1245.83 z"/>
<path transform="translate(0,0)" fill="rgb(157,76,40)" d="M 809.517 1245.97 C 827.409 1244.91 845.346 1244.82 863.248 1245.71 C 877.339 1246.54 891.886 1248.67 905.926 1248.97 C 942.57 1249.74 979.298 1248.06 1015.96 1248.92 C 1020.86 1249.03 1026.64 1249.24 1031.49 1249.06 C 1034.18 1249.52 1037.08 1249.44 1038.45 1251.02 L 1037.64 1251.84 C 1000.82 1249.79 960.479 1252.06 923.348 1251.06 C 901.72 1250.47 879.957 1248.09 858.341 1247.18 C 841.631 1246.47 822.348 1248.15 805.829 1246.19 L 809.517 1245.97 z"/>
<path transform="translate(0,0)" fill="rgb(80,108,130)" d="M 360.924 1508.98 C 359.251 1494.73 360.312 1474.51 360.339 1459.91 L 360.372 1375.24 L 360.375 1091.54 L 360.464 590.183 L 360.478 426.811 C 360.467 402.847 360.176 379.206 360.118 354.862 C 360.081 339.228 363.498 313.544 386.05 328.676 C 389.968 331.305 390.952 336.866 391.131 341.335 C 391.908 360.726 390.376 380.625 390.222 400.001 L 390.097 531.005 L 391.057 532.424 C 392.177 542.338 390.45 554.57 391.976 562.935 C 389.142 568.696 390.195 619.699 390.11 630.067 C 387.893 659.188 389.289 701.288 389.291 731.419 L 389.278 914.367 L 389.256 1131.97 C 389.253 1167.16 387.902 1214.05 389.8 1248.09 C 389.996 1264.93 388.789 1302.22 390.425 1316.88 C 392.941 1318.82 394.132 1318.23 397.94 1318.55 L 393.428 1318.87 C 389.588 1323.78 392.134 1336.13 390.448 1345.54 C 389.493 1348.62 390.053 1372.52 390.064 1377.79 L 390.135 1460.29 C 390.136 1473.67 390.721 1496.55 389.227 1508.97 C 394.389 1508.74 399.554 1508.58 404.72 1508.49 C 497.554 1507.09 593.421 1508.53 686.501 1508.41 L 1282.93 1508.07 L 1653.39 1508.07 L 1778.56 1508.16 C 1796.66 1508.19 1814.83 1507.75 1832.92 1508.01 C 1841.51 1508.13 1858.7 1511.04 1858.28 1522.54 C 1857.85 1534.48 1846.36 1538.85 1835.99 1539.05 C 1816.79 1539.32 1797.76 1539.19 1778.65 1539.19 L 1667.45 1539.19 L 1328.07 1539.18 L 389.379 1538.85 C 391.949 1565.62 390.063 1598.71 390.165 1626.21 C 390.24 1646.09 392.359 1667.77 390.32 1687.46 C 390.009 1690.47 389.297 1692.7 387.349 1695.06 C 385.062 1697.82 380.925 1699.54 377.391 1699.67 C 373.453 1699.8 366.755 1697.95 364.177 1694.71 C 358.227 1687.22 359.565 1556.05 361.018 1538.28 C 346.731 1539.2 201.298 1540.88 195.254 1536.78 C 190.847 1533.79 190.182 1528.28 188.9 1523.48 C 191.724 1514.13 194.473 1509.69 204.845 1509.16 C 245.96 1507.08 287.349 1508.64 328.521 1508.39 C 339.078 1508.33 350.473 1508.22 360.924 1508.98 z"/>
<path transform="translate(0,0)" fill="url(#Gradient1)" d="M 663.361 736.067 C 673.648 742.038 685.907 751.483 695.964 758.23 C 720.766 774.869 744.513 792.597 767.027 812.234 C 774.275 818.557 779.561 821.931 786.226 829.375 L 789.748 833.253 L 789.317 836.93 L 787.917 837.999 C 785.141 836.733 785.031 836.53 782.617 834.59 C 781.363 838.78 784.223 840.024 784.084 842.039 C 783.921 844.428 777.627 853.392 777.596 855.798 C 776.082 972.955 785.913 1091.58 793.953 1208.51 C 794.574 1217.54 796.13 1233.28 799.784 1241.17 C 804.102 1245.54 804.466 1241.72 809.517 1245.97 L 805.829 1246.19 C 799.839 1245.69 794.041 1246.23 788.038 1246.69 C 757.839 1249 727.463 1247.7 697.202 1248 C 692.818 1248.05 687.749 1248.17 683.413 1247.86 C 680.196 1246.96 678.618 1246.47 675.546 1245.18 L 676.084 1245.3 L 676.103 1243.8 C 678.399 1242.19 678.543 1240.8 678.303 1238.16 C 676.506 1218.39 673.39 1197.7 672.396 1177.9 L 658.931 914.699 L 654.694 838.613 C 652.863 803.849 651.009 780.68 660.434 746.703 C 658.467 744.241 658.234 744.249 657.23 741.332 C 658.621 738.441 660.221 738.166 663.361 736.067 z"/>
<path transform="translate(0,0)" fill="rgb(40,54,71)" d="M 1194.08 557.48 C 1253.78 555.598 1321.55 557.912 1382.12 557.908 C 1406.11 557.96 1430.11 557.89 1454.1 557.7 C 1472.3 557.527 1489.72 557.255 1508.25 558.479 C 1520.69 559.302 1532.34 571.432 1522.55 582.892 C 1515.9 590.693 1499.74 589.32 1489.76 589.24 L 1273.15 589.229 L 1206.28 589.277 C 1196.13 589.3 1169.51 591.278 1162.05 585.727 C 1158.5 583.074 1156.27 579.024 1155.92 574.611 C 1154.34 555.15 1181.87 557.594 1194.08 557.48 z"/>
<path transform="translate(0,0)" fill="rgb(40,54,71)" d="M 1066.65 558.212 C 1079.97 557.767 1098.28 556.533 1111.07 558.762 C 1129.54 561.982 1134.66 578.824 1114.59 587.6 C 1096.49 591.872 1024.46 588.542 1066.65 558.212 z"/>
</svg>