<svg xmlns="http://www.w3.org/2000/svg" height="512" preserveAspectRatio="none" style="display: block;" version="1.1" viewBox="0 0 2048 2048" width="512">
<path d="M 1504.43 242.898 L 1727.86 242.81 C 1775.48 243.238 1798.69 246.842 1799.14 300.325 L 1799.15 838.161 C 1799.2 864.828 1809.05 933.208 1768.82 935.306 C 1757 935.922 1744.46 935.48 1732.57 935.447 L 1407.5 935.365 L 1219.36 935.312 C 1118.31 935.277 1110.57 951.756 1110.67 834.844 L 1110.7 713.918 C 1110.69 572.333 1111.52 430.601 1109.76 289.055 C 1109.14 239.004 1147.77 242.823 1183.99 242.848 L 1504.43 242.898 z" fill="rgb(250,163,32)" transform="translate(0,0)"></path>
<path d="M 1313.04 352.036 C 1371.93 350.726 1436.68 352.018 1496.09 351.987 L 1566.97 351.967 C 1579.56 351.967 1593.49 351.549 1605.89 352.447 C 1652.73 355.84 1653.64 428.561 1603.41 433.711 L 1353.3 433.743 C 1335.16 433.733 1305.25 436.155 1290.36 425.324 C 1263.81 406.017 1267.38 356.181 1313.04 352.036 z" fill="rgb(33,56,98)" transform="translate(0,0)"></path>
<path d="M 1313.04 543.084 C 1322.5 544.891 1353.64 543.12 1365.51 543.108 C 1399.38 543.075 1598.81 539.474 1617.87 548.248 C 1654 564.888 1643.99 614.424 1609.33 625.122 C 1593.38 625.851 1571.8 625.153 1555.38 625.154 L 1358.66 625.149 C 1342.31 625.143 1326.07 625.287 1309.96 624.611 C 1265.92 622.764 1257.99 550.962 1313.04 543.084 z" fill="rgb(33,56,98)" transform="translate(0,0)"></path>
<path d="M 1305.75 735.011 C 1317.15 734.239 1337.32 734.976 1349.58 734.978 L 1598.48 735.343 C 1647.84 735.097 1656.43 801.926 1609.33 815.291 C 1596.13 815.938 1577.86 815.33 1564.2 815.325 L 1373.42 815.346 C 1360.08 815.368 1308.89 817.069 1299.1 812.29 C 1265.14 795.712 1263.62 747.84 1305.75 735.011 z" fill="rgb(33,56,98)" transform="translate(0,0)"></path>
<path d="M 1143.18 1099 L 1605.33 1099 C 1625.25 1099 1762.45 1096.85 1772.66 1100.46 C 1813.58 1114.91 1799.17 1195.93 1799.14 1233.18 L 1799.14 1639.98 C 1799.14 1690.72 1815.93 1762.39 1766.06 1786.3 C 1748.25 1789.78 1713.61 1787.93 1693.43 1787.9 L 1293.6 1787.91 C 1247.72 1787.92 1201.34 1789.52 1155.53 1787.74 C 1093.06 1785.32 1110.71 1699.81 1110.72 1656.6 L 1110.71 1268.68 C 1110.7 1227.45 1110.33 1186.22 1110.98 1144.99 C 1111.36 1120.46 1118.24 1106.79 1143.18 1099 z" fill="rgb(33,56,98)" transform="translate(0,0)"></path>
<path d="M 1287.26 1232.11 C 1314.85 1232.67 1344.42 1232.12 1372.15 1232.12 L 1597.51 1232.02 C 1635.51 1231.98 1666.97 1230.26 1667.08 1276.89 L 1667.17 1579.82 C 1667.15 1613.37 1674.25 1652.68 1627.58 1653.06 L 1317.37 1653.13 C 1241.46 1653.17 1245 1649.06 1244.97 1567.64 L 1244.96 1329.66 C 1244.97 1283.3 1229.95 1235.05 1287.26 1232.11 z" fill="rgb(250,163,32)" transform="translate(0,0)"></path>
<path d="M 1551.84 1307.67 L 1589.16 1307.67 L 1589.16 1576 L 1358.5 1576 L 1320.15 1576 L 1320.15 1307.67 L 1551.84 1307.67 z" fill="rgb(33,56,98)" transform="translate(0,0)"></path>
<path d="M 282.387 1099 C 308.601 1098.16 339.644 1098.99 366.216 1098.99 L 794.623 1099.01 C 812.848 1099.01 898.956 1096.85 909.541 1100.56 C 950.431 1114.9 935.009 1208.28 934.99 1246.6 L 934.97 1662.77 C 934.868 1705.3 949.162 1767.74 904.04 1786.3 C 888.487 1789.98 854.378 1787.93 836.13 1787.88 L 302.596 1787.78 C 282.43 1787.65 255.275 1773.63 252.675 1752.86 C 248.463 1719.2 250.309 1678.27 250.333 1644.43 L 250.245 1139.76 C 250.27 1118.07 261.791 1104.87 282.387 1099 z" fill="rgb(33,56,98)" transform="translate(0,0)"></path>
<path d="M 594.299 1387.06 C 619.485 1360.41 645.824 1335.21 671.699 1309.24 C 696.373 1284.47 758.207 1201.56 796.106 1237.63 C 833.605 1273.32 795.884 1299.13 771.867 1322.93 C 737.077 1357.41 682.085 1407.01 652.827 1442.78 C 665.555 1456.84 680.817 1470.95 694.437 1484.33 L 750.399 1540.04 C 775.972 1565.29 848.794 1625.28 780.37 1653.06 C 741.447 1664.97 718.415 1626.67 692.694 1600.3 C 660.43 1567.21 626.31 1535.57 594.299 1502.35 C 552.367 1545.83 491.099 1611.87 446.65 1648.53 C 413.812 1675.62 364.288 1629.32 388.962 1591.58 C 395.008 1582.44 404.255 1573.99 412.226 1566.49 C 454.772 1526.46 494.402 1483.51 536.238 1442.78 C 490.197 1399.37 445.618 1353.19 400.544 1308.72 C 370.614 1279.18 374.184 1236.25 418.154 1229.26 C 451.308 1228.57 570.327 1360.8 594.299 1387.06 z" fill="rgb(250,163,32)" transform="translate(0,0)"></path>
<path d="M 587.008 242.898 C 633.551 232.67 637.949 271.565 637.967 305.651 L 637.926 543.084 L 869.831 543.028 C 880.447 543.027 891.528 542.655 902.038 543.86 C 933.957 546.89 950.157 589.272 927.347 612.674 C 908.825 631.677 858.533 625.024 831.186 625.063 L 637.926 625.122 C 636.918 715.284 639.309 806.202 637.283 896.387 C 636.798 917.987 619.385 931.334 599.235 935.365 C 552.299 934.895 552.946 897.031 552.946 863.824 L 552.991 625.122 L 315.253 625.156 C 296.87 625.158 275.305 628.228 260.793 615.223 C 234.473 591.636 246.79 549.095 281.731 543.52 C 291.106 542.024 303.91 542.884 313.665 542.974 L 552.991 543.084 L 552.949 307.101 C 552.946 278.207 549.316 248.31 587.008 242.898 z" fill="rgb(33,56,98)" transform="translate(0,0)"></path>
<metadata><recraft-signature>{"signed_by": "recraft", "signature_b64": "QeBoJwgxtTRnYR3VI9/SBW3NkO0W57q7WxXQ/fYERCRfy8vZoiFJtEuXh4fkwqrwMzEr46fMtSntVffEwy5rCA==", "signing_algo": "Ed25519", "generation_timestamp": 1782396023, "identifier": "6ec487d0-76d0-47a8-8fcd-efca2d92e514"}</recraft-signature></metadata></svg>