<svg version="1.1" xmlns="http://www.w3.org/2000/svg" style="display: block;" viewBox="0 0 2048 2048" width="512" height="512" preserveAspectRatio="none">
<path transform="translate(0,0)" fill="rgb(16,42,71)" d="M 1629.72 429.311 C 1635.33 429.608 1643.04 429.304 1648.85 429.222 C 1650.49 473.941 1649.17 526.302 1649.17 571.742 L 1649.16 841.779 L 1649.17 1225.74 C 1649.18 1292.84 1650.08 1362.33 1649 1429.28 C 1678.01 1428.14 1854.16 1425.79 1866.83 1432.11 C 1871.16 1437.26 1871.39 1442.85 1866.65 1447.84 C 1863.68 1450.97 1852.27 1451.84 1848.02 1451.93 C 1826.12 1452.41 1804.14 1451.79 1782.21 1451.74 L 1648.85 1451.74 C 1649.35 1482.21 1648.95 1512.69 1649.34 1543.16 C 1649.56 1560.1 1651.69 1578.24 1649.97 1595.04 C 1649.57 1598.97 1648.9 1604.08 1645.75 1606.85 C 1643.93 1608.44 1640.41 1610.25 1637.95 1610.06 C 1635.16 1609.84 1633.56 1608.83 1631.81 1606.68 C 1624.12 1597.29 1626.33 1472.02 1627.95 1451.47 C 1508.89 1452.89 1387.35 1451.75 1268.07 1451.75 L 580.25 1451.74 L 326.016 1451.71 C 284.531 1451.71 242.592 1452.11 201.127 1451.51 C 197.276 1450.96 183.801 1451.44 181.415 1447.69 C 166.981 1425.07 208.649 1429.05 214.772 1429.05 L 263.504 1429.1 L 408.127 1429.1 C 431.329 1429.1 455.017 1430.11 478.173 1429.07 C 536.165 1426.48 781.374 1130.9 827.417 1077.56 C 853.728 1046.82 880.746 1016.68 908.447 987.181 C 1027.7 860.836 1142.61 770.665 1309.93 714.84 C 1359.68 698.263 1410.78 686.061 1462.65 678.373 C 1513.98 671.212 1576 669.472 1628.18 667.975 C 1628.04 666.488 1627.93 664.998 1627.85 663.506 C 1626.93 648.016 1627.35 629.451 1627.36 613.727 L 1627.34 534.886 C 1627.33 514.784 1627.2 494.681 1626.94 474.58 C 1626.84 466.071 1624.98 434.619 1629.72 429.311 z M 552.836 1428.75 C 550.292 1422.41 551.563 1413.92 552.231 1407.16 C 542.941 1414.25 531.724 1423.62 522.257 1429.9 C 530.766 1428.97 547.622 1429.64 552.836 1428.75 z M 1626.36 1416.64 C 1620.24 1415.94 1618.83 1422.9 1616.15 1428.11 C 1620.07 1429.66 1623.25 1430.1 1626.51 1427.45 C 1628.12 1423.55 1627.14 1420.96 1626.36 1416.64 z"/>
<path transform="translate(0,0)" fill="rgb(239,194,158)" d="M 552.231 1407.16 C 565.08 1393.06 589.503 1372.86 604.602 1358.31 C 636.545 1327.33 667.317 1295.17 696.853 1261.89 C 784.682 1163.75 861.891 1062.02 955.65 968.109 C 1147.51 775.943 1356.73 687.036 1628.11 688.074 L 1628.02 784.113 L 1627.96 1205.94 L 1627.98 1339.29 C 1627.98 1349.75 1629.15 1411.02 1626.36 1416.64 C 1620.24 1415.94 1618.83 1422.9 1616.15 1428.11 C 1612.75 1430.15 1460.6 1429.27 1445.9 1429.27 L 684.779 1431.35 C 676.121 1432.35 662.486 1431.77 653.575 1431.65 C 629.883 1431.33 606.08 1430.69 582.454 1428.91 C 573.14 1428.2 560.82 1430.64 552.836 1428.75 C 550.292 1422.41 551.563 1413.92 552.231 1407.16 z"/>
<path transform="translate(0,0)" fill="rgb(237,168,123)" d="M 552.231 1407.16 C 565.08 1393.06 589.503 1372.86 604.602 1358.31 C 636.545 1327.33 667.317 1295.17 696.853 1261.89 C 784.682 1163.75 861.891 1062.02 955.65 968.109 C 1147.51 775.943 1356.73 687.036 1628.11 688.074 L 1628.02 784.113 C 1596.52 781.156 1566.41 779.2 1534.72 781.837 C 1377.13 794.951 1202.32 880.447 1081.97 980.14 C 1046.1 1009.88 1011.93 1041.61 979.617 1075.19 C 959.197 1096.73 939.134 1118.6 919.438 1140.81 C 874.736 1192.38 830.573 1244.41 786.958 1296.91 C 772.46 1314.12 684.899 1414.1 682.464 1428.56 C 683.502 1431.16 682.603 1430.4 684.779 1431.35 C 676.121 1432.35 662.486 1431.77 653.575 1431.65 C 629.883 1431.33 606.08 1430.69 582.454 1428.91 C 573.14 1428.2 560.82 1430.64 552.836 1428.75 C 550.292 1422.41 551.563 1413.92 552.231 1407.16 z"/>
<path transform="translate(0,0)" fill="rgb(16,42,71)" d="M 1522.59 528.171 C 1530.36 529.529 1578.98 548.434 1579.94 554.3 C 1575.29 557.674 1547.7 569.834 1540.37 573.288 C 1535.03 575.677 1529.97 578.187 1524.73 580.78 L 1525.84 565.115 C 1513.93 565.338 1505.33 564.586 1493.29 566.072 C 1493.05 559.467 1493.25 553.998 1493.52 547.386 C 1502.67 546.987 1513.4 547.253 1522.9 547.015 C 1522.22 541.434 1522.53 533.978 1522.59 528.171 z"/>
<path transform="translate(0,0)" fill="rgb(16,42,71)" d="M 675.54 1495.07 C 682.871 1496.57 684.794 1499.15 685.372 1506.57 C 686.148 1516.51 685.347 1526.54 685.192 1536.5 L 684.766 1583.92 C 691.918 1583.31 714.64 1581.19 718.011 1588.08 C 713.934 1598.91 652.269 1599.35 641.651 1587.87 C 641.375 1586.27 641.307 1587.11 642.088 1585.39 C 648.178 1583.09 667.689 1583.54 675.389 1583.49 C 674.263 1565.15 674.868 1526.93 675.36 1507.89 C 670.054 1512.56 651.926 1529.82 645.483 1527.3 C 644.541 1518.68 668.159 1498.79 675.54 1495.07 z"/>
<path transform="translate(0,0)" fill="rgb(16,42,71)" d="M 565.654 1213.4 C 583.743 1216.24 602.528 1223.09 621.324 1224.98 C 613.762 1233.66 594.133 1249.4 584.793 1257.23 C 574.325 1266.29 566.855 1275.1 557.309 1283.52 C 560.589 1265.98 563.224 1233.22 565.654 1213.4 z"/>
<path transform="translate(0,0)" fill="rgb(16,42,71)" d="M 1755.87 595.207 C 1787.67 594.894 1791.76 620.396 1774.06 642.454 C 1782.69 649.099 1790.18 655.681 1788.93 667.937 C 1787.05 686.298 1768.12 693.697 1751.77 691.357 C 1745.1 690.403 1731.72 684.005 1734.08 675.724 L 1736.35 674.68 C 1740.48 674.775 1743.16 676.825 1746.87 678.898 C 1758.79 684.097 1773.61 684.122 1777.68 669.223 C 1783.09 649.375 1757.29 651.343 1752.25 643.193 C 1756.91 632.214 1787.49 634.244 1771.44 609.773 C 1763 596.896 1746.51 613.813 1735.1 612.016 L 1733.6 609.702 L 1734.18 606.978 C 1739.35 600.328 1747.88 596.946 1755.87 595.207 z"/>
<path transform="translate(0,0)" fill="rgb(16,42,71)" d="M 351.334 1263.66 C 357.886 1269.4 356.227 1351.55 354.773 1363.06 C 362.295 1362.34 384.666 1359.8 388.716 1367.58 L 387.275 1369.17 C 373.504 1374.6 331.979 1373.46 317.595 1370.36 C 315.37 1369.11 316.008 1369.72 314.695 1367.43 L 316.137 1365.59 C 324.776 1362.19 336.847 1362.89 346.352 1362.91 C 345.38 1350.62 345.33 1295.36 346.418 1283.31 C 334.943 1292.09 333.028 1296.24 319.201 1302.87 C 329.49 1284.48 336.095 1277.65 351.334 1263.66 z"/>
<path transform="translate(0,0)" fill="rgb(16,42,71)" d="M 1689.46 1000.86 C 1699.88 1004.07 1708.04 1012.81 1714.59 1021.14 C 1718.88 1016.36 1731.86 1003.04 1738.23 1003.93 L 1738.42 1006.17 C 1735.19 1014.41 1727.11 1022.63 1721.08 1029.45 C 1728.63 1035.67 1738.76 1043.95 1741.43 1053.45 C 1731.86 1057.56 1720.56 1042.58 1714.45 1036.11 C 1709.38 1040.24 1695.79 1052.58 1689.78 1050.62 C 1689.9 1044.63 1702.14 1033.35 1706.53 1029.16 C 1699.7 1022.37 1686.33 1011.29 1689.46 1000.86 z"/>
<path transform="translate(0,0)" fill="rgb(16,42,71)" d="M 852.016 823.633 C 856.967 825.247 860.78 832.233 863.589 836.593 C 859.884 841.854 856.626 848.042 850.454 849.289 C 844.144 845.716 840.91 842.75 835.38 838.07 C 841.431 831.252 844.562 828.516 852.016 823.633 z"/>
<path transform="translate(0,0)" fill="rgb(16,42,71)" d="M 1207.48 605.14 C 1216.63 604.952 1216.92 610.767 1219.6 618.229 L 1204.47 625.977 C 1201.94 627.093 1202.97 626.794 1200.06 626.757 C 1194.86 623.231 1193.83 615.627 1192.13 609.402 C 1197.75 607.399 1201.69 606.497 1207.48 605.14 z"/>
<path transform="translate(0,0)" fill="rgb(16,42,71)" d="M 604.963 1164.55 C 610.645 1166.94 616 1169.78 621.484 1172.58 C 618.516 1178.89 615.938 1186.02 611.662 1191.36 C 606.64 1188.57 600.205 1185.88 594.856 1183.47 C 597.698 1176 600.132 1170.89 604.963 1164.55 z"/>
<path transform="translate(0,0)" fill="rgb(16,42,71)" d="M 1448.08 552.367 C 1450.72 552.704 1450.54 552.666 1452.63 554.333 C 1454.99 558.503 1454.88 563.203 1455.31 568.112 C 1450.31 569.637 1441.58 571.021 1436.2 572.026 C 1432.68 570.134 1430.24 567.315 1428.65 563.715 C 1429.02 554.052 1440.59 553.129 1448.08 552.367 z"/>
<path transform="translate(0,0)" fill="rgb(16,42,71)" d="M 1370.8 561.256 C 1378 560.913 1385.68 560.867 1392.93 560.694 C 1394.21 566.618 1397.05 572.994 1391.78 576.814 C 1378.51 580.441 1365.25 580.903 1370.8 561.256 z"/>
<path transform="translate(0,0)" fill="rgb(16,42,71)" d="M 1045.3 679.986 C 1049.46 681.907 1052.75 690.167 1054.8 694.433 C 1048.17 699.484 1044.81 700.941 1037.29 704.706 C 1032.68 700.439 1029.87 694.976 1026.64 689.557 C 1032.91 685.306 1038.4 683.081 1045.3 679.986 z"/>
<path transform="translate(0,0)" fill="rgb(16,42,71)" d="M 1152.89 626.996 C 1161.84 627.858 1161.98 635.152 1163.91 642.604 C 1158.57 644.471 1153.21 646.744 1147.95 648.873 C 1140.37 647.106 1139.74 640.612 1137.53 633.894 C 1141.47 631.636 1148.52 628.868 1152.89 626.996 z"/>
<path transform="translate(0,0)" fill="rgb(16,42,71)" d="M 1328.09 571.18 C 1330.8 570.769 1330.64 570.867 1333.26 571.747 C 1345.22 585.3 1327.07 588.557 1318.45 590.983 C 1312.99 590.495 1308.8 584.637 1311.68 579.413 C 1315.19 573.043 1321.63 572.634 1328.09 571.18 z"/>
<path transform="translate(0,0)" fill="rgb(16,42,71)" d="M 1097.06 652.927 C 1102.43 652.727 1108.03 658.92 1108.41 664.109 C 1106.23 668.779 1098.04 672.066 1093.26 674.42 L 1091.01 674.861 C 1086.11 673.12 1083.49 666.125 1081.17 661.459 C 1086.77 657.988 1091.16 655.827 1097.06 652.927 z"/>
<path transform="translate(0,0)" fill="rgb(16,42,71)" d="M 808.945 865.586 C 813.318 867.63 818.146 873.51 821.517 877.212 C 816.66 883.374 813.679 887.421 807.841 892.6 C 801.647 888.364 800.186 886.878 794.957 881.472 C 799.566 875.197 803.365 870.911 808.945 865.586 z"/>
<path transform="translate(0,0)" fill="rgb(16,42,71)" d="M 1269.04 585.21 C 1270.47 585.357 1271.39 585.94 1272.8 586.543 C 1276.19 590.22 1277.32 594.635 1279.1 599.41 L 1260.29 605.577 L 1258.96 605.699 C 1256.54 604.659 1254.36 601.925 1253.3 599.588 C 1248.23 588.462 1263.4 586.502 1269.04 585.21 z"/>
<path transform="translate(0,0)" fill="rgb(16,42,71)" d="M 694.17 1008.39 C 700.322 1010.65 705.065 1013.75 710.678 1017.1 L 698.862 1033.07 C 698.09 1033.35 696.47 1033.51 695.582 1033.64 C 690.758 1031.77 688.334 1029.14 684.422 1025.74 C 686.665 1018.88 689.96 1014.06 694.17 1008.39 z"/>
<path transform="translate(0,0)" fill="rgb(16,42,71)" d="M 630.389 1112.59 C 648.659 1117.74 648.247 1122.51 637.89 1136.74 C 619.034 1139.51 623.135 1122.81 630.389 1112.59 z"/>
<path transform="translate(0,0)" fill="rgb(16,42,71)" d="M 943.423 747.628 C 948.441 750.604 951.748 754.943 955.364 759.381 C 950.616 764.808 945.995 768.088 940.025 771.917 C 935.898 772.22 933.833 771.594 930.819 768.741 C 928.159 759.942 936.704 752.044 943.423 747.628 z"/>
<path transform="translate(0,0)" fill="rgb(16,42,71)" d="M 661.914 1060.55 C 670.353 1063.67 676.229 1068.37 672.036 1078.92 C 670.958 1081.63 668.043 1085.53 665.202 1086.55 C 660.404 1083.91 655.761 1082.46 652.963 1078.27 C 651.966 1071.22 657.086 1066.98 661.914 1060.55 z"/>
<path transform="translate(0,0)" fill="rgb(16,42,71)" d="M 992.74 712.732 L 995.872 713.293 C 1000.19 716.745 1002.79 721.345 1005.92 725.984 C 1000.43 729.819 996.27 732.279 990.456 735.615 C 986.921 736.117 984.858 735.304 981.939 733.284 C 977.111 724.754 986.783 717.174 992.74 712.732 z"/>
<path transform="translate(0,0)" fill="rgb(16,42,71)" d="M 729.577 959.518 C 733.764 959.463 739.65 963.341 741.501 967.143 C 741.7 975.019 737.411 978.384 732.27 984.534 C 726.171 984.159 722.394 978.82 718.133 974.34 C 720.718 970.351 726.469 963.455 729.577 959.518 z"/>
<path transform="translate(0,0)" fill="rgb(16,42,71)" d="M 768.705 912.769 C 773.276 915.609 777.827 918.482 782.357 921.388 C 778.085 927.126 773.732 932.804 769.299 938.419 C 763.073 935.546 759.927 931.709 755.492 926.774 C 760.599 920.255 762.341 917.939 768.705 912.769 z"/>
<path transform="translate(0,0)" fill="rgb(16,42,71)" d="M 897.152 784.735 C 901.965 785.989 905.574 793.898 907.721 798.133 C 902.403 802.445 899.22 805.219 893.216 808.53 C 887.728 806.248 884.803 802.546 881.219 798.024 C 886.772 792.742 891.034 789.427 897.152 784.735 z"/>
</svg>