<svg version="1.1" xmlns="http://www.w3.org/2000/svg" style="display: block;" viewBox="0 0 2048 2048" width="512" height="512" preserveAspectRatio="none">
<path transform="translate(0,0)" fill="rgb(243,131,48)" d="M 813.492 1222.07 C 826.427 1230.41 839.934 1244.98 851.486 1255.33 L 953.049 1348.09 L 1311.91 1676.06 C 1327.4 1690.3 1342.81 1704.94 1358.51 1718.95 C 1378.87 1737.12 1407 1769.96 1430.45 1781.89 L 1691.63 1781.87 C 1712.82 1781.91 1734.02 1781.84 1755.21 1781.66 C 1778.88 1781.3 1801.8 1780.38 1825.42 1783.15 C 1845.95 1785.57 1858.62 1800.99 1857.74 1821.69 C 1857.34 1832.61 1852.59 1842.93 1844.57 1850.36 C 1837.69 1856.75 1829.16 1858.42 1820.11 1858.95 C 1793.21 1860.52 1765.23 1859.71 1738.2 1859.61 L 1601.71 1859.55 C 1544.54 1859.56 1486.87 1859.75 1429.68 1860.78 C 1413.44 1861.07 1394.51 1851.18 1382.29 1841.36 C 1358.64 1821.56 1335.27 1798.88 1312.49 1777.99 L 1158.35 1635.77 L 908.351 1405.11 C 863.927 1364.16 810.49 1317.5 768.163 1275.56 C 788.366 1262.76 804.18 1244.1 813.492 1222.07 z"/>
<path transform="translate(0,0)" fill="rgb(245,198,164)" d="M 606.348 1113.03 C 597.761 1109.18 573.202 1078.7 565.915 1070.32 C 463.133 951.947 377.138 819.985 310.353 678.152 C 250.322 549.546 210.972 412.268 193.757 271.389 C 190.784 247.501 178.309 186.04 207.898 175.86 C 264.684 156.324 262.327 219.661 265.211 255.486 C 266.614 272.902 268.564 290.271 271.058 307.565 C 283.787 391.493 305.173 473.878 334.874 553.401 C 379.988 672.778 440.326 785.831 514.391 889.756 C 531.748 914.631 549.622 939.14 568.002 963.27 C 580.766 979.772 594.677 997.024 607.51 1013.31 C 617.271 1025.69 649.501 1058.63 653.705 1070.81 C 634.345 1080.27 617.961 1094.88 606.348 1113.03 z"/>
<path transform="translate(0,0)" fill="rgb(189,92,66)" d="M 653.705 1070.81 C 697.722 1049.29 750.473 1057.35 786.053 1091.03 C 821.634 1124.71 832.571 1176.94 813.492 1222.07 C 804.18 1244.1 788.366 1262.76 768.163 1275.56 C 721.649 1305.03 660.907 1298.23 622.056 1259.21 C 583.206 1220.19 576.675 1159.42 606.348 1113.03 C 617.961 1094.88 634.345 1080.27 653.705 1070.81 z"/>
</svg>