<svg xmlns="http://www.w3.org/2000/svg" height="512" preserveAspectRatio="none" style="display: block;" version="1.1" viewBox="0 0 2048 2048" width="512">
<defs>
	<linearGradient gradientUnits="userSpaceOnUse" id="Gradient1" x1="752.246" x2="792.742" y1="947.686" y2="931.689">
		<stop class="stop0" offset="0" stop-color="rgb(216,127,34)" stop-opacity="1"></stop>
		<stop class="stop1" offset="1" stop-color="rgb(233,165,67)" stop-opacity="1"></stop>
	</linearGradient>
	<linearGradient gradientUnits="userSpaceOnUse" id="Gradient2" x1="893.53" x2="917.486" y1="1062.47" y2="1086.5">
		<stop class="stop0" offset="0" stop-color="rgb(163,84,18)" stop-opacity="1"></stop>
		<stop class="stop1" offset="1" stop-color="rgb(204,124,28)" stop-opacity="1"></stop>
	</linearGradient>
	<linearGradient gradientUnits="userSpaceOnUse" id="Gradient3" x1="291.754" x2="310.448" y1="607.964" y2="581.753">
		<stop class="stop0" offset="0" stop-color="rgb(225,117,13)" stop-opacity="1"></stop>
		<stop class="stop1" offset="1" stop-color="rgb(241,156,59)" stop-opacity="1"></stop>
	</linearGradient>
	<linearGradient gradientUnits="userSpaceOnUse" id="Gradient4" x1="472.141" x2="483.913" y1="749.058" y2="720.375">
		<stop class="stop0" offset="0" stop-color="rgb(220,128,27)" stop-opacity="1"></stop>
		<stop class="stop1" offset="1" stop-color="rgb(234,158,65)" stop-opacity="1"></stop>
	</linearGradient>
</defs>
<path d="M 1753.78 1113.24 C 1755.66 1111.4 1759.44 1109.19 1762.16 1108.79 C 1797.28 1115.22 1800.8 1162.56 1777.1 1188.12 C 1795.08 1188.48 1903.92 1183.96 1914.4 1191.53 C 1924.16 1198.59 1923.53 1280.03 1924.07 1293.5 L 1929.75 1483.16 C 1930.4 1512.07 1948.26 1597.03 1910.86 1595.84 C 1761.33 1591.11 1611.71 1588.26 1462.22 1583.26 C 1441.8 1582.58 1412.24 1584.85 1393.27 1581.11 C 1389.09 1576.04 1385.91 1571.47 1382.15 1566.09 C 1368.9 1557.53 1361.27 1542.5 1362.2 1526.75 C 1363.12 1511 1372.44 1496.96 1386.6 1490.01 C 1392.23 1457.64 1409.49 1401.58 1420.57 1370.42 C 1386.01 1412.46 1341.84 1454.52 1305.43 1496.81 C 1297.87 1506.38 1267.07 1484.28 1255.35 1478.25 L 1160.24 1428.18 C 1154.87 1425.31 1113.38 1405.09 1112.66 1400.79 C 1111.31 1392.78 1108.36 1342.3 1111.07 1337.54 C 1136.79 1322.81 1162.74 1284.13 1186.82 1268.67 C 1194.96 1265.4 1220.89 1259.13 1213.76 1246.62 C 1210.27 1241.77 1209.31 1240.84 1204.79 1236.9 C 1229.61 1208.42 1284.46 1149.03 1313.98 1124.66 C 1362.1 1147.73 1425.67 1182.08 1471.42 1210.22 C 1488.16 1179.43 1555.63 1191.61 1589.76 1189.91 C 1632.91 1187.77 1677.94 1187.19 1721.18 1188.12 C 1706.37 1173.11 1703.87 1158.15 1707.65 1138.31 C 1711.56 1128.9 1713.53 1124.02 1721.18 1117.05 C 1732.21 1119 1743.66 1118.27 1753.78 1113.24 z" fill="rgb(30,55,102)" transform="translate(0,0)"></path>
<path d="M 1204.79 1236.9 C 1229.61 1208.42 1284.46 1149.03 1313.98 1124.66 C 1362.1 1147.73 1425.67 1182.08 1471.42 1210.22 C 1467.38 1249.08 1428.31 1320.45 1393.27 1337.54 C 1389.79 1339.36 1389.89 1339.27 1387.18 1342.09 C 1375.3 1362.55 1319.04 1414.17 1299.96 1437.52 C 1299.89 1449.18 1296.8 1491.11 1305.43 1496.81 C 1297.87 1506.38 1267.07 1484.28 1255.35 1478.25 L 1160.24 1428.18 C 1154.87 1425.31 1113.38 1405.09 1112.66 1400.79 C 1111.31 1392.78 1108.36 1342.3 1111.07 1337.54 C 1136.79 1322.81 1162.74 1284.13 1186.82 1268.67 C 1194.96 1265.4 1220.89 1259.13 1213.76 1246.62 C 1210.27 1241.77 1209.31 1240.84 1204.79 1236.9 z" fill="rgb(51,82,137)" transform="translate(0,0)"></path>
<path d="M 1305.43 1496.81 C 1297.87 1506.38 1267.07 1484.28 1255.35 1478.25 L 1160.24 1428.18 C 1154.87 1425.31 1113.38 1405.09 1112.66 1400.79 C 1111.31 1392.78 1108.36 1342.3 1111.07 1337.54 C 1116.08 1344.5 1133.34 1351.63 1141.69 1355.84 L 1299.96 1437.52 C 1299.89 1449.18 1296.8 1491.11 1305.43 1496.81 z" fill="rgb(23,68,141)" transform="translate(0,0)"></path>
<path d="M 1347.27 1307.85 C 1363.72 1304.8 1384.35 1308.31 1393.27 1324.09 C 1373.91 1336.68 1350.36 1336.76 1347.27 1307.85 z" fill="rgb(234,156,58)" transform="translate(0,0)"></path>
<path d="M 1347.27 1307.85 C 1350.36 1336.76 1373.91 1336.68 1393.27 1324.09 C 1395.01 1329.57 1394.9 1331.97 1393.27 1337.54 C 1389.79 1339.36 1389.89 1339.27 1387.18 1342.09 C 1360.48 1350.38 1320.33 1323.13 1347.27 1307.85 z" fill="rgb(215,112,15)" transform="translate(0,0)"></path>
<path d="M 1281.43 1281.65 C 1298.54 1268.76 1327.63 1280.78 1336.16 1299.92 C 1330.57 1334.34 1263.41 1299.23 1281.43 1281.65 z" fill="rgb(234,156,58)" transform="translate(0,0)"></path>
<path d="M 1281.43 1281.65 L 1283.25 1282.37 L 1286.46 1280.33 C 1287.17 1287.24 1294.41 1295.86 1299.96 1299.92 C 1314.79 1303.01 1321.25 1301.57 1336.16 1299.92 C 1330.57 1334.34 1263.41 1299.23 1281.43 1281.65 z" fill="rgb(215,112,15)" transform="translate(0,0)"></path>
<path d="M 1221.18 1246.62 C 1235.74 1234.13 1264.99 1246.84 1273.2 1263.01 C 1274.22 1295.48 1208.01 1277.22 1221.18 1246.62 z" fill="rgb(234,156,58)" transform="translate(0,0)"></path>
<path d="M 1273.2 1263.01 C 1274.22 1295.48 1208.01 1277.22 1221.18 1246.62 C 1232.34 1266.89 1251.58 1271.71 1273.2 1263.01 z" fill="rgb(215,112,15)" transform="translate(0,0)"></path>
<path d="M 1753.78 1113.24 C 1755.66 1111.4 1759.44 1109.19 1762.16 1108.79 C 1797.28 1115.22 1800.8 1162.56 1777.1 1188.12 L 1775.77 1189.51 C 1777.82 1197.85 1822.91 1226.68 1783.26 1261.38 C 1740.43 1298.85 1683.91 1227.22 1728.62 1192.9 L 1721.18 1188.12 C 1706.37 1173.11 1703.87 1158.15 1707.65 1138.31 C 1711.56 1128.9 1713.53 1124.02 1721.18 1117.05 C 1732.21 1119 1743.66 1118.27 1753.78 1113.24 z" fill="rgb(215,112,15)" transform="translate(0,0)"></path>
<path d="M 1753.78 1113.24 C 1756.71 1119.88 1761.53 1120.46 1767.01 1131.71 C 1768.23 1160.02 1744.07 1171.55 1721.56 1154.25 C 1715.33 1149.47 1716.34 1140.72 1707.65 1138.31 C 1711.56 1128.9 1713.53 1124.02 1721.18 1117.05 C 1732.21 1119 1743.66 1118.27 1753.78 1113.24 z" fill="rgb(234,156,58)" transform="translate(0,0)"></path>
<path d="M 1738.75 1199.13 C 1760 1197.42 1768.02 1200.67 1777.1 1220.12 C 1774.26 1226.07 1767.34 1236.04 1762.16 1240.09 C 1730.22 1243.45 1711.01 1216.89 1738.75 1199.13 z" fill="rgb(234,156,58)" transform="translate(0,0)"></path>
<path d="M 1386.6 1490.01 C 1405.59 1480.68 1428.53 1486.27 1441.11 1503.28 C 1453.69 1520.28 1452.31 1543.85 1437.83 1559.27 C 1423.35 1574.7 1399.92 1577.56 1382.15 1566.09 C 1368.9 1557.53 1361.27 1542.5 1362.2 1526.75 C 1363.12 1511 1372.44 1496.96 1386.6 1490.01 z" fill="rgb(215,112,15)" transform="translate(0,0)"></path>
<path d="M 1393.27 1500.16 C 1428.94 1496.52 1441.88 1536.12 1411.17 1550.51 C 1380.81 1555.26 1361.05 1516.56 1393.27 1500.16 z" fill="rgb(234,156,58)" transform="translate(0,0)"></path>
<path d="M 1470.02 1430.87 C 1493.98 1425.73 1517.53 1441.12 1522.46 1465.13 C 1527.38 1489.14 1511.78 1512.55 1487.73 1517.25 C 1463.98 1521.9 1440.93 1506.54 1436.07 1482.84 C 1431.21 1459.14 1446.36 1435.95 1470.02 1430.87 z" fill="rgb(215,112,15)" transform="translate(0,0)"></path>
<path d="M 1467.96 1445.12 C 1481.97 1443.98 1488.7 1445.09 1499.23 1454.91 C 1504.98 1471.56 1502.5 1484.53 1486.56 1493.79 C 1451.86 1496.01 1434.14 1459.83 1467.96 1445.12 z" fill="rgb(234,156,58)" transform="translate(0,0)"></path>
<path d="M 1688.84 1251.46 C 1712.33 1250.64 1732.16 1268.77 1733.42 1292.25 C 1734.68 1315.72 1716.92 1335.87 1693.47 1337.57 C 1677.92 1338.7 1662.96 1331.34 1654.37 1318.32 C 1645.78 1305.3 1644.88 1288.66 1652.03 1274.8 C 1659.18 1260.94 1673.25 1252.01 1688.84 1251.46 z" fill="rgb(215,112,15)" transform="translate(0,0)"></path>
<path d="M 1680.72 1263.01 C 1684.96 1262.87 1689.86 1263 1694.15 1263.01 C 1714.51 1276.31 1718.7 1301.83 1694.15 1313.13 C 1662.03 1317.51 1646.53 1272.44 1680.72 1263.01 z" fill="rgb(234,156,58)" transform="translate(0,0)"></path>
<path d="M 1609.98 1313.42 C 1633.08 1308.58 1655.72 1323.38 1660.55 1346.47 C 1665.37 1369.57 1650.56 1392.2 1627.46 1397.02 C 1604.38 1401.84 1581.76 1387.03 1576.94 1363.95 C 1572.11 1340.88 1586.91 1318.25 1609.98 1313.42 z" fill="rgb(215,112,15)" transform="translate(0,0)"></path>
<path d="M 1607.2 1324.09 C 1613.53 1323.55 1618.13 1323.82 1624.47 1324.09 C 1644.4 1337.33 1645.31 1361.3 1624.47 1374.27 C 1593.67 1376.99 1577.99 1338.93 1607.2 1324.09 z" fill="rgb(234,156,58)" transform="translate(0,0)"></path>
<path d="M 1544.88 1374.27 C 1592.85 1369.89 1617.47 1442.81 1556.73 1458.18 C 1507.98 1462.01 1479.13 1386.1 1544.88 1374.27 z" fill="rgb(215,112,15)" transform="translate(0,0)"></path>
<path d="M 1537.03 1388 C 1570.84 1386.74 1579.51 1420.02 1553.63 1431.42 C 1524.84 1435.62 1507 1400.76 1537.03 1388 z" fill="rgb(234,156,58)" transform="translate(0,0)"></path>
<path d="M 461.622 716.701 C 487.698 692.009 540.081 627.928 567.149 611.353 C 582.672 616.392 594.547 623.207 609.235 630.216 L 679.33 664.427 C 694.469 671.964 757.591 696.557 761.262 708.792 C 760.419 722.682 767.357 768.792 769.002 785.568 C 746.46 810.939 715.12 836.748 694.239 863.811 C 701.927 881.494 699.79 885.276 685.736 898.646 C 649.554 933.065 659.517 900 651.094 900.047 C 638.803 914.225 563.648 990.145 555.745 991.23 C 520.146 963.565 428.829 922.381 384.733 899.05 C 376.526 894.708 368.297 890.956 360.609 885.663 C 360.175 873.084 357.291 829.183 363.855 820.3 C 390.936 800.722 421.074 756.199 448.759 731.816 C 452.819 725.886 455.939 721.097 461.622 716.701 z" fill="rgb(51,82,137)" transform="translate(0,0)"></path>
<path d="M 553.289 920.619 C 557.359 907.16 735.984 725.794 755.675 707.334 C 756.683 706.388 759.781 708.174 761.262 708.792 C 760.419 722.682 767.357 768.792 769.002 785.568 C 746.46 810.939 715.12 836.748 694.239 863.811 C 701.927 881.494 699.79 885.276 685.736 898.646 C 649.554 933.065 659.517 900 651.094 900.047 C 638.803 914.225 563.648 990.145 555.745 991.23 C 550.315 969.128 555.897 940.064 553.289 920.619 z" fill="rgb(30,55,102)" transform="translate(0,0)"></path>
<path d="M 651.094 900.047 C 632.818 883.55 665.24 858.322 680.482 853.6 C 686.503 857.432 689.021 858.908 694.239 863.811 C 701.927 881.494 699.79 885.276 685.736 898.646 C 649.554 933.065 659.517 900 651.094 900.047 z" fill="rgb(215,112,15)" transform="translate(0,0)"></path>
<path d="M 363.855 820.3 C 367.546 825.963 390.495 836.783 397.365 840.419 L 462.178 874.029 C 490.936 888.655 524.858 907.6 553.289 920.619 C 555.897 940.064 550.315 969.128 555.745 991.23 C 520.146 963.565 428.829 922.381 384.733 899.05 C 376.526 894.708 368.297 890.956 360.609 885.663 C 360.175 873.084 357.291 829.183 363.855 820.3 z" fill="rgb(23,68,141)" transform="translate(0,0)"></path>
<path d="M 448.759 731.816 C 452.819 725.886 455.939 721.097 461.622 716.701 C 534.086 710.669 502.835 796.109 448.759 731.816 z" fill="url(#Gradient4)" transform="translate(0,0)"></path>
<path d="M 524.732 750.27 C 545.183 746.24 562.029 756.954 567.149 777.083 C 559.573 807.065 487.17 771.516 524.732 750.27 z" fill="rgb(234,156,58)" transform="translate(0,0)"></path>
<path d="M 567.149 777.083 C 559.573 807.065 487.17 771.516 524.732 750.27 C 522.693 762.405 527.735 769.376 536.417 777.083 C 547.369 779.383 555.885 777.902 567.149 777.083 z" fill="rgb(227,128,23)" transform="translate(0,0)"></path>
<path d="M 595.653 820.3 C 575.394 811.805 558.102 783.555 592.59 785.568 C 609.839 783.908 616.092 788.721 623.866 803.872 C 631.284 820.287 605.533 820.825 595.653 820.3 z" fill="rgb(234,156,58)" transform="translate(0,0)"></path>
<path d="M 595.653 820.3 C 575.394 811.805 558.102 783.555 592.59 785.568 C 591.86 797.606 591.558 801.637 592.59 813.545 C 593.481 815.53 594.68 818.458 595.653 820.3 z" fill="rgb(227,128,23)" transform="translate(0,0)"></path>
<path d="M 623.866 803.872 C 631.284 820.287 605.533 820.825 595.653 820.3 C 594.68 818.458 593.481 815.53 592.59 813.545 C 597.117 815.811 599.932 814.533 604.948 813.545 C 612.951 807.877 614.799 806.474 623.866 803.872 z" fill="rgb(234,156,58)" transform="translate(0,0)"></path>
<path d="M 1055.86 959.813 C 1078.21 969.052 1243.08 1050.34 1246.31 1058.54 C 1246.71 1069.49 1254.21 1119.97 1256.86 1131.71 C 1227.93 1160.17 1200.12 1190.54 1172.33 1220.12 C 1176.46 1223.15 1177.23 1223.83 1181.84 1225.8 C 1192.43 1229.35 1195.53 1230.38 1204.79 1236.9 C 1209.31 1240.84 1210.27 1241.77 1213.76 1246.62 C 1220.89 1259.13 1194.96 1265.4 1186.82 1268.67 C 1181.58 1266.54 1170.65 1260.39 1165.22 1257.55 C 1150.13 1271.62 1145.04 1277.75 1140.47 1253.8 C 1126.28 1271.69 1075.72 1324.36 1058.74 1337.54 C 997.059 1299.78 922.915 1267.22 859.027 1232.44 C 859.08 1223.74 857.636 1171.91 859.027 1168.57 C 887.835 1146.42 915.34 1110.31 940.891 1083.94 C 979.004 1044.61 1021.92 1002.81 1055.86 959.813 z" fill="rgb(51,82,137)" transform="translate(0,0)"></path>
<path d="M 1134.36 1172.06 C 1139.41 1168.91 1150.77 1155.82 1155.39 1150.85 L 1209.36 1092.78 C 1217.66 1083.76 1235.08 1060.66 1246.31 1058.54 C 1246.71 1069.49 1254.21 1119.97 1256.86 1131.71 C 1227.93 1160.17 1200.12 1190.54 1172.33 1220.12 C 1176.46 1223.15 1177.23 1223.83 1181.84 1225.8 C 1192.43 1229.35 1195.53 1230.38 1204.79 1236.9 C 1209.31 1240.84 1210.27 1241.77 1213.76 1246.62 C 1220.89 1259.13 1194.96 1265.4 1186.82 1268.67 C 1181.58 1266.54 1170.65 1260.39 1165.22 1257.55 C 1150.13 1271.62 1145.04 1277.75 1140.47 1253.8 C 1126.28 1271.69 1075.72 1324.36 1058.74 1337.54 C 1056.07 1321.55 1055.11 1286.76 1054.04 1268.67 C 1061.08 1247.67 1120.88 1198.08 1128.99 1177.57 C 1131.11 1174.5 1131.54 1174.36 1134.36 1172.06 z" fill="rgb(30,55,102)" transform="translate(0,0)"></path>
<path d="M 1181.84 1225.8 C 1192.43 1229.35 1195.53 1230.38 1204.79 1236.9 C 1209.31 1240.84 1210.27 1241.77 1213.76 1246.62 C 1220.89 1259.13 1194.96 1265.4 1186.82 1268.67 C 1181.58 1266.54 1170.65 1260.39 1165.22 1257.55 C 1150.13 1271.62 1145.04 1277.75 1140.47 1253.8 C 1141.25 1248.44 1140.83 1245.44 1140.47 1240.09 C 1155.91 1240.56 1158.93 1232.78 1172.33 1236.9 C 1180.92 1235.41 1183.95 1234.85 1181.84 1225.8 z" fill="rgb(215,112,15)" transform="translate(0,0)"></path>
<path d="M 1181.84 1225.8 C 1192.43 1229.35 1195.53 1230.38 1204.79 1236.9 C 1209.31 1240.84 1210.27 1241.77 1213.76 1246.62 C 1203.39 1250.94 1170.59 1257.63 1172.33 1236.9 C 1180.92 1235.41 1183.95 1234.85 1181.84 1225.8 z" fill="rgb(234,156,58)" transform="translate(0,0)"></path>
<path d="M 1140.47 1240.09 C 1138.97 1230.42 1160.74 1212.6 1172.33 1220.12 C 1176.46 1223.15 1177.23 1223.83 1181.84 1225.8 C 1183.95 1234.85 1180.92 1235.41 1172.33 1236.9 C 1158.93 1232.78 1155.91 1240.56 1140.47 1240.09 z" fill="rgb(227,128,23)" transform="translate(0,0)"></path>
<path d="M 859.027 1232.44 C 859.08 1223.74 857.636 1171.91 859.027 1168.57 C 923.001 1206.6 991.525 1232.86 1054.04 1268.67 C 1055.11 1286.76 1056.07 1321.55 1058.74 1337.54 C 997.059 1299.78 922.915 1267.22 859.027 1232.44 z" fill="rgb(23,68,141)" transform="translate(0,0)"></path>
<path d="M 1085.46 1138.31 C 1105.19 1135.49 1125.26 1142.91 1134.36 1161.56 L 1129.01 1163.95 C 1103.34 1175.54 1085.05 1170.31 1085.46 1138.31 z" fill="rgb(234,156,58)" transform="translate(0,0)"></path>
<path d="M 1128.99 1177.57 C 1096.55 1188.64 1056.98 1153.81 1085.46 1138.31 C 1085.05 1170.31 1103.34 1175.54 1129.01 1163.95 L 1134.36 1161.56 C 1134.94 1166.42 1135.27 1167.39 1134.36 1172.06 C 1131.54 1174.36 1131.11 1174.5 1128.99 1177.57 z" fill="rgb(215,112,15)" transform="translate(0,0)"></path>
<path d="M 957.275 1072.48 C 974.168 1058.07 1015.74 1083.69 1007.01 1099.58 C 988.96 1118.67 945.335 1102.11 957.275 1072.48 z" fill="rgb(234,156,58)" transform="translate(0,0)"></path>
<path d="M 1007.01 1099.58 C 988.96 1118.67 945.335 1102.11 957.275 1072.48 C 966.812 1097.28 983.237 1100.52 1007.01 1099.58 z" fill="rgb(215,112,15)" transform="translate(0,0)"></path>
<path d="M 1020.93 1106.22 C 1040.24 1101.53 1065.85 1109.8 1068.96 1131.71 C 1050.77 1161.04 994.294 1123.85 1020.93 1106.22 z" fill="rgb(234,156,58)" transform="translate(0,0)"></path>
<path d="M 1068.96 1131.71 C 1050.77 1161.04 994.294 1123.85 1020.93 1106.22 C 1020.62 1137.38 1046.25 1135.95 1068.96 1131.71 z" fill="rgb(215,112,15)" transform="translate(0,0)"></path>
<path d="M 325.667 430.283 C 346.784 442.969 502.954 532.926 505.655 540.367 C 505.657 551.974 511.055 603.872 513.289 615.869 C 490.987 639.086 460.669 664.797 440.21 688.646 C 444.99 693.385 449.186 696.263 445.915 703.144 C 436.992 721.479 422.907 730.497 405.53 740.139 C 401.845 734.923 401.119 731.381 399.298 725.369 C 378.868 740.263 315.219 805.266 311.598 805.845 L 307.783 803.872 C 271.092 777.38 208.336 748.958 167.534 725.701 C 152.053 716.877 126.942 705.008 112.99 695.403 C 113.006 684.135 111.808 639.904 112.99 630.913 C 119.416 627.08 146.065 599.872 153.206 593.232 L 271.38 481.842 C 287.934 466.167 308.708 444.373 325.667 430.283 z" fill="rgb(51,82,137)" transform="translate(0,0)"></path>
<path d="M 505.655 540.367 C 505.657 551.974 511.055 603.872 513.289 615.869 C 490.987 639.086 460.669 664.797 440.21 688.646 C 444.99 693.385 449.186 696.263 445.915 703.144 C 436.992 721.479 422.907 730.497 405.53 740.139 C 401.845 734.923 401.119 731.381 399.298 725.369 C 378.868 740.263 315.219 805.266 311.598 805.845 L 307.783 803.872 C 308.825 798.513 308.545 740.345 307.783 731.816 C 333.848 696.113 395.196 643.653 429.037 610.58 L 472.945 566.918 C 480.148 559.739 496.052 541.415 505.655 540.367 z" fill="rgb(30,55,102)" transform="translate(0,0)"></path>
<path d="M 393.252 700.074 C 405.073 678.014 421.468 672.232 440.21 688.646 C 444.99 693.385 449.186 696.263 445.915 703.144 C 436.992 721.479 422.907 730.497 405.53 740.139 C 401.845 734.923 401.119 731.381 399.298 725.369 C 396.232 720.457 395.351 718.122 393.252 712.879 C 391.368 707.35 391.428 705.55 393.252 700.074 z" fill="rgb(215,112,15)" transform="translate(0,0)"></path>
<path d="M 405.53 708.792 C 422.932 715.719 429.618 710.264 445.915 703.144 L 445.915 703.144 C 436.992 721.479 422.907 730.497 405.53 740.139 C 401.845 734.923 401.119 731.381 399.298 725.369 C 396.232 720.457 395.351 718.122 393.252 712.879 L 394.196 710.566 C 397.044 710.302 397.204 710.594 399.298 708.792 C 402.061 709.087 402.985 709.518 405.53 708.792 z" fill="rgb(215,112,15)" transform="translate(0,0)"></path>
<path d="M 405.53 708.792 L 408.507 702.081 C 420.612 709.462 434.271 692.679 445.915 703.144 C 429.618 710.264 422.932 715.719 405.53 708.792 z" fill="rgb(190,90,15)" transform="translate(0,0)"></path>
<path d="M 393.252 700.074 C 400.567 702.585 401.239 699.1 399.298 708.792 C 397.204 710.594 397.044 710.302 394.196 710.566 L 393.252 712.879 C 391.368 707.35 391.428 705.55 393.252 700.074 z" fill="rgb(190,90,15)" transform="translate(0,0)"></path>
<path d="M 112.99 630.913 C 116.809 635.345 138.108 645.008 144.973 648.626 L 261.482 709.583 C 267.788 712.844 302.861 731.589 307.783 731.816 C 308.545 740.345 308.825 798.513 307.783 803.872 C 271.092 777.38 208.336 748.958 167.534 725.701 C 152.053 716.877 126.942 705.008 112.99 695.403 C 113.006 684.135 111.808 639.904 112.99 630.913 z" fill="rgb(23,68,141)" transform="translate(0,0)"></path>
<path d="M 293.4 577.367 C 320.651 578.287 346.224 605.101 311.292 615.869 C 285.603 613.335 254.213 582.924 293.4 577.367 z" fill="url(#Gradient3)" transform="translate(0,0)"></path>
<path d="M 354.817 611.353 C 367.578 612.515 393.475 619.875 388.163 637.454 C 366.748 669.963 308.973 619.395 354.817 611.353 z" fill="rgb(227,128,23)" transform="translate(0,0)"></path>
<path d="M 354.817 611.353 C 367.578 612.515 393.475 619.875 388.163 637.454 C 362.227 634.148 354.208 650.03 354.817 611.353 z" fill="rgb(234,156,58)" transform="translate(0,0)"></path>
<path d="M 233.616 544.599 C 248.345 544.669 275.351 556.337 264.918 574.365 C 237.539 600.682 192.747 547.611 233.616 544.599 z" fill="rgb(234,156,58)" transform="translate(0,0)"></path>
<path d="M 264.918 574.365 C 237.539 600.682 192.747 547.611 233.616 544.599 C 216.426 567.85 257.703 571.984 264.918 574.365 z" fill="rgb(227,128,23)" transform="translate(0,0)"></path>
<path d="M 709.427 900.047 C 724.259 883.303 794.166 801.579 810.899 792.692 C 834.297 802.247 998.554 878.856 999.029 893.719 C 1001.28 916.979 1005.56 945.797 1007.01 968.184 C 983.524 991.852 961.209 1017.07 937.189 1040.05 C 946.374 1050.78 948.952 1069.06 933.368 1076.33 C 924.893 1082.99 917.097 1089.05 909.086 1096.29 C 900.088 1091 900.071 1089.52 895.596 1080.26 C 882.054 1093.08 822.14 1165.73 810.899 1159.23 C 749.597 1129.96 675.716 1087.57 616.208 1054.24 C 616.207 1047.24 614.561 993.741 616.208 991.23 C 643.219 965.674 668.767 937.431 694.239 910.318 C 699.687 904.405 701.916 902.802 709.427 900.047 z" fill="rgb(51,82,137)" transform="translate(0,0)"></path>
<path d="M 810.899 1092.19 C 818.769 1081.54 838.117 1063.22 848.463 1051.58 L 953.151 935.46 C 963.102 924.579 986.343 892.048 999.029 893.719 C 1001.28 916.979 1005.56 945.797 1007.01 968.184 C 983.524 991.852 961.209 1017.07 937.189 1040.05 C 946.374 1050.78 948.952 1069.06 933.368 1076.33 C 924.893 1082.99 917.097 1089.05 909.086 1096.29 C 900.088 1091 900.071 1089.52 895.596 1080.26 C 882.054 1093.08 822.14 1165.73 810.899 1159.23 C 812.897 1151.08 810.733 1105.28 810.899 1092.19 z" fill="rgb(30,55,102)" transform="translate(0,0)"></path>
<path d="M 924.273 1032.76 C 928.868 1034.87 932.869 1037.44 937.189 1040.05 C 946.374 1050.78 948.952 1069.06 933.368 1076.33 C 924.893 1082.99 917.097 1089.05 909.086 1096.29 C 900.088 1091 900.071 1089.52 895.596 1080.26 C 892.355 1071.69 891.934 1066.91 895.596 1058.54 C 901.722 1049.06 915.136 1039.4 924.273 1032.76 z" fill="rgb(215,112,15)" transform="translate(0,0)"></path>
<path d="M 895.596 1058.54 L 897.002 1059.5 C 921.568 1076.44 902.988 1078.07 933.368 1076.33 C 924.893 1082.99 917.097 1089.05 909.086 1096.29 C 900.088 1091 900.071 1089.52 895.596 1080.26 C 892.355 1071.69 891.934 1066.91 895.596 1058.54 z" fill="url(#Gradient2)" transform="translate(0,0)"></path>
<path d="M 616.208 1054.24 C 616.207 1047.24 614.561 993.741 616.208 991.23 L 756.607 1063.86 C 770.213 1070.99 799.055 1084.77 810.899 1092.19 C 810.733 1105.28 812.897 1151.08 810.899 1159.23 C 749.597 1129.96 675.716 1087.57 616.208 1054.24 z" fill="rgb(23,68,141)" transform="translate(0,0)"></path>
<path d="M 709.427 900.047 L 710.485 900.123 C 797.089 905.827 708.475 972.836 694.239 910.318 C 699.687 904.405 701.916 902.802 709.427 900.047 z" fill="rgb(215,112,15)" transform="translate(0,0)"></path>
<path d="M 810.899 959.813 C 831.331 954.822 848.704 961.509 859.027 980.136 C 863.543 1021 776.577 978.212 810.899 959.813 z" fill="rgb(234,156,58)" transform="translate(0,0)"></path>
<path d="M 859.027 980.136 C 863.543 1021 776.577 978.212 810.899 959.813 C 815.488 986.229 837.419 992.687 859.027 980.136 z" fill="rgb(227,128,23)" transform="translate(0,0)"></path>
<path d="M 752.397 949.868 C 729.714 918.166 792.88 915.623 801.749 949.868 C 794.519 973.487 764.207 963.871 752.397 949.868 z" fill="url(#Gradient1)" transform="translate(0,0)"></path>
<path d="M 752.397 949.868 C 767.793 952.819 786.578 953.382 801.749 949.868 C 794.519 973.487 764.207 963.871 752.397 949.868 z" fill="rgb(215,112,15)" transform="translate(0,0)"></path>
<path d="M 412.311 1040.05 C 432.473 1038.16 569.938 1129.68 597.206 1146.45 C 635.921 1170.25 627.626 1193.29 585.039 1197.7 C 549.25 1201.4 513.509 1205.68 477.763 1210.22 C 463.512 1211.92 440.261 1215.19 426.5 1215.02 C 403.721 1202.88 407.171 1177 425.066 1172.75 C 456.859 1165.19 504.063 1163.14 536.417 1159.23 C 492.82 1135.24 450.39 1106.2 407.755 1080.33 C 389.083 1069 393.158 1049.65 412.311 1040.05 z" fill="rgb(234,156,58)" transform="translate(0,0)"></path>
<path d="M 1694.15 1054.24 C 1702.65 1033.62 1725.41 1025.44 1746.29 1029.5 C 1783.38 1043.91 1782.14 1073.65 1767.01 1106.22 L 1762.16 1108.79 C 1759.44 1109.19 1755.66 1111.4 1753.78 1113.24 C 1743.66 1118.27 1732.21 1119 1721.18 1117.05 C 1712.45 1113.66 1701.87 1107.24 1696.31 1099.58 C 1688.36 1087.35 1687.85 1067.28 1694.15 1054.24 z" fill="rgb(215,112,15)" transform="translate(0,0)"></path>
<path d="M 1694.15 1054.24 C 1702.65 1033.62 1725.41 1025.44 1746.29 1029.5 C 1745.52 1038 1751.23 1046.25 1751.82 1054.34 C 1753.52 1077.75 1725.24 1089.89 1709.82 1071.69 C 1705.5 1066.58 1699.12 1055.24 1694.15 1054.24 z" fill="rgb(234,156,58)" transform="translate(0,0)"></path>
<path d="M 1696.31 1099.58 C 1707.08 1092.19 1738.15 1108.75 1753.44 1099.49 C 1761.81 1094.42 1765.05 1099.04 1767.01 1106.22 L 1762.16 1108.79 C 1759.44 1109.19 1755.66 1111.4 1753.78 1113.24 C 1743.66 1118.27 1732.21 1119 1721.18 1117.05 C 1712.45 1113.66 1701.87 1107.24 1696.31 1099.58 z" fill="rgb(190,90,15)" transform="translate(0,0)"></path>
<metadata><recraft-signature>{"signed_by": "recraft", "signature_b64": "cI1yVvMnPWvOzy6dSgzuqp6Df74R525umKIptd/5/J0uDRqa0l1cRk6TZKkEh5AiVfZg/egPUxdC8DAbpojCCw==", "signing_algo": "Ed25519", "generation_timestamp": 1782395952, "identifier": "592343f7-7477-4179-a51f-ac6f9fb8a1ae"}</recraft-signature></metadata></svg>