<svg version="1.1" xmlns="http://www.w3.org/2000/svg" style="display: block;" viewBox="0 0 2048 2048" width="512" height="512" preserveAspectRatio="none">
<path transform="translate(0,0)" fill="rgb(97,46,45)" d="M 408.016 272.505 C 429.456 271.832 455.687 272.828 477.671 272.868 L 625.315 272.906 L 1088.65 272.892 L 1465.55 272.863 L 1588.14 272.863 C 1613.09 272.864 1638.26 272.235 1663.17 273.471 C 1678 274.206 1695.37 275.502 1707.68 284.706 C 1719.71 293.701 1724.24 308.005 1726.21 322.246 C 1728.43 338.318 1733.81 411.116 1724.73 420.127 C 1717.03 427.771 1615.27 425.248 1600.34 424.34 C 1602.22 465.319 1600.86 516.465 1600.86 558.353 L 1600.87 805.044 L 1600.86 1198.02 C 1600.86 1272.6 1601.49 1348.22 1600.56 1422.73 C 1616.26 1431.32 1629.48 1441.32 1638.68 1456.98 C 1663.66 1499.5 1642.52 1556.48 1601.5 1580.23 C 1582.17 1591.28 1559.21 1594.14 1537.76 1588.17 C 1514.5 1581.94 1494.77 1567.44 1482.77 1546.48 C 1470.47 1524.6 1467.51 1498.68 1474.57 1474.6 C 1481.4 1450.67 1494.93 1437.66 1516 1425.92 C 1516.85 1401.95 1515.84 1371.94 1515.83 1347.5 L 1515.8 1181.79 L 1515.75 703.5 C 1515.43 643.567 1515.41 583.632 1515.7 523.699 C 1515.44 490.839 1515.56 457.978 1516.05 425.121 C 1455.52 423.657 1390.38 424.773 1329.59 424.774 L 986.462 424.77 L 857.086 424.866 C 833.96 424.969 798.149 426.001 775.969 424.256 L 1030.93 1070.99 L 1111.2 1274.62 L 1136.85 1339.46 C 1141.88 1352.2 1148.07 1366.64 1151.93 1379.55 C 1182.27 1378.48 1210.69 1379.66 1239.71 1390.06 C 1287.89 1407.12 1327.15 1442.91 1348.6 1489.32 C 1370.08 1536.29 1372.12 1589.85 1354.26 1638.31 C 1343.16 1667.77 1321.24 1701.68 1296.1 1720.86 C 1284.2 1729.94 1257.3 1745.87 1243.64 1752.04 C 1147.56 1793.65 1021.81 1725.39 991.912 1628.12 C 977.336 1579.84 982.205 1527.51 1005.84 1482.94 C 1032.95 1431.8 1070.77 1404.47 1124.7 1387.45 C 1117.14 1371.65 1105.77 1338.87 1098.41 1320.7 L 1023.36 1131.21 L 836.001 656.92 L 778.14 510.442 C 767.074 482.342 755.789 452.169 743.977 424.518 C 734.529 424.924 724.484 424.874 715.002 424.761 C 649.755 423.979 583.971 426.016 518.776 424.564 C 519.69 449.923 519.169 477.944 519.168 503.506 L 519.168 639.185 L 519.23 745.739 C 519.236 765.149 519.306 783.889 518.83 803.841 C 518.525 816.644 506.556 825.845 495.043 817.288 C 491.589 814.72 490.606 800.619 490.529 795.698 C 490.205 774.935 490.472 753.961 490.483 733.115 L 490.808 600.739 L 490.733 491.555 C 490.657 470.552 489.957 445.25 491.066 424.658 C 481.729 424.894 472.386 424.696 463.067 424.064 C 464.418 434.016 463.793 461.69 463.787 472.608 L 463.725 568.621 L 463.731 889.733 L 463.74 1250.54 L 463.806 1357.76 C 463.827 1371.69 464.655 1402.55 463.247 1415.28 C 472.509 1414.37 481.834 1414.27 491.113 1414.99 C 489.762 1396.39 490.554 1368 490.548 1348.64 L 490.523 1227.83 L 490.654 1114.2 C 490.64 1093.35 486.282 1057.39 495.968 1038.14 C 499.76 1030.6 514.888 1034.56 516.256 1038.14 C 521.069 1050.73 519.152 1076.69 519.155 1090.49 L 519.168 1174.01 L 519.046 1422.88 C 532.583 1430.71 544.93 1440.64 553.978 1453.52 C 567.722 1472.83 573.121 1496.85 568.961 1520.18 C 560.463 1566.73 509.891 1598.99 464.033 1589.74 C 417.031 1580.26 383.592 1529.17 393.942 1482.19 C 399.754 1455.81 415.042 1440.62 436.966 1426.33 C 435.017 1251.22 436.7 1073.44 436.698 897.994 L 436.703 594.864 C 436.707 538.253 436.179 480.672 436.966 424.119 C 419.787 424.061 337.047 427.737 328.173 420.608 C 323.461 416.822 322.827 405.167 322.694 399.588 C 322.142 376.393 320.463 331.522 326.503 310.4 C 328.77 302.254 333.092 294.827 339.055 288.831 C 358.013 269.879 383.362 272.46 408.016 272.505 z M 1544.97 1415.09 C 1553.84 1414.67 1561.52 1414.35 1570.46 1414.55 C 1571.52 1412.93 1571.49 1412.94 1571.5 1410.97 L 1570.94 615.699 L 1570.95 494.6 C 1570.95 472.95 1570.26 446.059 1571.43 424.757 C 1562.72 424.76 1553.62 424.965 1544.98 424.139 L 1545.08 1130.48 C 1545.07 1224.21 1546.47 1321.62 1544.97 1415.09 z"/>
<path transform="translate(0,0)" fill="rgb(253,209,133)" d="M 370.811 301.191 C 388.986 300.458 410.925 301 429.335 301 L 536.189 301.002 L 863.069 301.006 L 1381.77 300.992 C 1471.86 300.982 1561.93 300.898 1652.03 301.089 C 1692.83 301.175 1704.54 317.697 1702.44 357.797 C 1701.77 370.432 1701.29 384.21 1700.86 396.94 L 1679.75 396.906 L 350.956 396.807 C 349.608 378.398 348.353 358.603 349.358 340.196 C 350.297 322.985 354.408 309.255 370.811 301.191 z"/>
<path transform="translate(0,0)" fill="rgb(247,167,61)" d="M 1170.93 1407.46 C 1261.14 1405.06 1336.27 1476.12 1338.91 1566.32 C 1341.55 1656.52 1270.7 1731.85 1180.5 1734.72 C 1089.97 1737.61 1014.3 1666.43 1011.66 1575.89 C 1009.01 1485.35 1080.38 1409.88 1170.93 1407.46 z"/>
<path transform="translate(0,0)" fill="rgb(247,167,61)" d="M 475.476 1441.61 C 508.866 1438.37 538.574 1462.78 541.885 1496.16 C 545.196 1529.54 520.86 1559.3 487.485 1562.69 C 454.004 1566.09 424.126 1541.66 420.805 1508.17 C 417.483 1474.68 441.98 1444.86 475.476 1441.61 z"/>
<path transform="translate(0,0)" fill="rgb(247,167,61)" d="M 1551.93 1441.56 C 1585.36 1437.63 1615.61 1461.65 1619.37 1495.1 C 1623.12 1528.55 1598.96 1558.67 1565.49 1562.26 C 1532.26 1565.82 1502.4 1541.86 1498.67 1508.65 C 1494.94 1475.44 1518.74 1445.46 1551.93 1441.56 z"/>
<path transform="translate(0,0)" fill="rgb(97,46,45)" d="M 500.773 890.814 C 531.917 894.472 520.894 955.183 509.5 973.728 C 507.575 974.55 506.797 974.977 504.597 974.811 C 500.881 974.529 497.461 972.676 495.194 969.718 C 489.453 962.113 489.514 947.018 489.749 937.71 C 490.176 920.734 486.007 902.595 500.773 890.814 z"/>
</svg>