<svg xmlns="http://www.w3.org/2000/svg" height="512" preserveAspectRatio="none" style="display: block;" version="1.1" viewBox="0 0 2048 2048" width="512">
<path d="M 414.524 543.16 C 401.51 543.109 369.944 545.009 360.689 540.144 C 353.773 532.149 350.346 416.245 360.203 414.107 C 381.937 409.394 423.706 411.531 444.602 411.535 L 1689.65 411.466 C 1699.28 411.434 1716.43 410.67 1725.24 411.54 C 1727.52 413.978 1733.17 419.7 1733.42 423.022 C 1734.62 439.102 1739.4 530.836 1729.57 541.274 C 1719.34 545.701 1694.81 542.986 1681.92 543.16 L 1681.92 582.722 C 1680.6 581.318 1681.92 547.98 1681.92 543.16 C 1668.78 544.074 1658.5 543.673 1645.45 543.16 L 1382.86 543.16 C 1361.86 593.896 1333.68 644.469 1309.95 693.906 L 1160.64 1004.47 C 1124.67 1078.33 1086.52 1151.89 1054.14 1227.43 C 1129.93 1306.53 1068.18 1445.39 958.764 1439.5 C 922.443 1437.54 885.197 1419.29 862.144 1390.7 C 826.384 1327.42 827.643 1268.07 881.694 1214.86 C 840 1129.57 805.019 1031.3 768.327 943.17 L 678.724 725.893 C 653.696 666.285 625.585 603.152 602.677 543.16 C 588.468 542.433 568.708 543.107 554.082 543.16 C 540.95 543.778 524.121 543.232 510.721 543.16 L 460.849 543.16 L 414.524 543.16 z M 911.656 1196.65 C 952.555 1183.55 986.448 1181.71 1024.72 1203.4 C 1030.66 1187.91 1042.74 1164.27 1050.13 1148.8 L 1305.08 622.287 C 1315.96 599.743 1334.07 565.4 1343.06 543.16 L 641.238 543.16 L 867.351 1090.97 C 881.701 1125.2 898.723 1162.27 911.656 1196.65 z" fill="rgb(26,56,114)" transform="translate(0,0)"></path>
<path d="M 911.656 1196.65 C 952.555 1183.55 986.448 1181.71 1024.72 1203.4 C 1037.75 1211.94 1041.88 1214.71 1050.9 1227.43 L 1054.14 1227.43 C 1129.93 1306.53 1068.18 1445.39 958.764 1439.5 C 922.443 1437.54 885.197 1419.29 862.144 1390.7 C 826.384 1327.42 827.643 1268.07 881.694 1214.86 C 891.202 1207.63 901.217 1202.31 911.656 1196.65 z" fill="rgb(253,161,47)" transform="translate(0,0)"></path>
<path d="M 1050.9 1227.43 L 1054.14 1227.43 C 1129.93 1306.53 1068.18 1445.39 958.764 1439.5 C 922.443 1437.54 885.197 1419.29 862.144 1390.7 C 874.573 1378.55 1021.92 1427.49 1045.53 1268.97 C 1047.23 1257.59 1047.94 1238.54 1050.9 1227.43 z" fill="rgb(242,107,23)" transform="translate(0,0)"></path>
<path d="M 1645.45 1064.97 C 1654.95 1064.9 1673.12 1064.27 1681.92 1064.97 C 1714.47 1071.55 1740.56 1080.97 1766.17 1103.22 C 1798.83 1129.45 1815.68 1164.4 1821.07 1206.02 C 1844.07 1383.62 1608.78 1445.36 1534.26 1319.06 C 1494.24 1271.36 1497.46 1181.06 1532.5 1132.58 C 1563.07 1090.27 1595.99 1073.87 1645.45 1064.97 z" fill="rgb(253,161,47)" transform="translate(0,0)"></path>
<path d="M 1534.26 1319.06 C 1539.02 1316.66 1553.48 1322.23 1559.14 1324.14 C 1684.49 1366.4 1803.41 1258.04 1768.99 1129.43 C 1767.54 1124 1763.22 1108.05 1766.17 1103.22 C 1798.83 1129.45 1815.68 1164.4 1821.07 1206.02 C 1844.07 1383.62 1608.78 1445.36 1534.26 1319.06 z" fill="rgb(242,107,23)" transform="translate(0,0)"></path>
<path d="M 383.224 1536.01 L 427.368 1536.01 L 549.282 1536.01 L 592.028 1536.01 L 659.901 1535.93 C 674.167 1535.95 690.635 1535.24 704.62 1537.63 C 761.154 1547.85 759.551 1635.89 692.658 1636.83 C 663.093 1637.24 633.412 1637.01 603.815 1637.02 L 325.192 1637.01 C 306.854 1637.01 286.78 1637.53 268.553 1636.25 C 214.44 1631.33 204.875 1549.15 261.15 1537.06 C 273.735 1534.36 293.792 1536.04 306.994 1536.06 L 383.224 1536.01 z" fill="rgb(26,56,114)" transform="translate(0,0)"></path>
<path d="M 414.524 543.16 L 460.849 543.16 C 460.796 577.632 458.746 615.79 457.434 650.576 L 429.028 1461.33 C 428.294 1486.18 426.762 1511.2 427.368 1536.01 L 383.224 1536.01 C 383.063 1440.42 388.082 1347.2 391.419 1251.82 L 412.392 626.711 C 413.351 599.398 415.371 570.203 414.524 543.16 z" fill="rgb(253,161,47)" transform="translate(0,0)"></path>
<path d="M 510.721 543.16 C 524.121 543.232 540.95 543.778 554.082 543.16 C 553.879 582.262 556.937 623.898 558.888 662.956 L 588.681 1437.27 C 589.923 1467.99 592.555 1505.77 592.028 1536.01 L 549.282 1536.01 L 513.562 634.772 C 512.459 606.024 509.61 571.034 510.721 543.16 z" fill="rgb(253,161,47)" transform="translate(0,0)"></path>
<path d="M 1645.45 543.16 C 1658.5 543.673 1668.78 544.074 1681.92 543.16 C 1681.92 547.98 1680.6 581.318 1681.92 582.722 L 1681.92 903.085 C 1681.93 956.525 1682.63 1011.64 1681.92 1064.97 C 1673.12 1064.27 1654.95 1064.9 1645.45 1064.97 L 1645.45 543.16 z" fill="rgb(26,56,114)" transform="translate(0,0)"></path>
<metadata><recraft-signature>{"signed_by": "recraft", "signature_b64": "rJuFWgmxa+m1Xtf/l72XOlhaqJA+48T1zluPg9Kz7Um3tSPhzOuAVX+bMwKSYSDreULWIni8mFqlMIm6OUuuCw==", "signing_algo": "Ed25519", "generation_timestamp": 1782337314, "identifier": "fb875d68-220b-4324-b380-70c81f774153"}</recraft-signature></metadata></svg>