<svg version="1.1" xmlns="http://www.w3.org/2000/svg" style="display: block;" viewBox="0 0 2048 2048" width="512" height="512" preserveAspectRatio="none">
<path transform="translate(0,0)" fill="rgb(64,79,103)" d="M 420.659 1581.51 C 419.667 1556.53 454.388 1463.52 464.511 1435.17 C 568.458 1144.12 716.919 853.97 927.768 625.57 C 1047.7 493.292 1191.26 384.548 1351.08 304.915 C 1370.37 295.465 1389.78 285.497 1409.82 277.931 C 1419.86 274.145 1442.84 268.828 1439.49 287.224 C 1437.14 300.097 1407.49 309.136 1396.28 313.994 C 1380.89 320.803 1365.61 327.865 1350.45 335.179 C 1298.22 360.968 1247.86 390.364 1199.72 423.154 C 904.334 622.795 688.355 955.346 553.223 1280.1 C 525.669 1346.07 500.476 1413 477.693 1480.77 C 470.875 1501.3 464.524 1521.97 458.645 1542.78 C 454.651 1556.47 448.129 1579.8 442.173 1592.53 L 420.659 1581.51 z"/>
<path transform="translate(0,0)" fill="rgb(233,126,61)" d="M 1856.44 1593.09 C 1859.49 1593.15 1869.17 1593.58 1871.64 1593.17 C 1882.21 1605.37 1933.48 1654.63 1931.37 1665.99 C 1929.4 1676.63 1880.61 1719.15 1869.94 1727.57 C 1857.14 1716.4 1854.23 1708.34 1867.74 1694.2 C 1874.68 1686.93 1883.48 1680.22 1891.22 1673.65 C 1868.22 1675.17 1837.31 1674.22 1813.8 1674.1 L 1696.02 1674 L 1297.8 1674.25 L 759.308 1674.24 L 579.397 1674.21 C 553.046 1674.2 519.651 1675.17 494.04 1674.25 C 492.07 1670.06 489.174 1653.63 488.487 1648.6 L 489.777 1647.44 C 500.589 1646.12 527.98 1646.78 539.685 1646.78 L 634.043 1646.83 L 949.418 1646.82 L 1562.08 1646.81 L 1764.37 1646.81 C 1804.69 1646.81 1846.59 1646.33 1886.83 1647.22 C 1875.79 1638.05 1837.11 1608.2 1856.44 1593.09 z"/>
<path transform="translate(0,0)" fill="rgb(161,70,66)" d="M 281.987 1647.52 C 284.06 1644.79 289.916 1630.38 292.311 1626.14 C 304.053 1605.35 322.148 1589.86 344.22 1581.27 C 368.225 1571.92 397.138 1571.13 420.659 1581.51 L 442.173 1592.53 C 465.3 1606.96 478.199 1619.2 487.865 1646.12 L 489.777 1647.44 L 488.487 1648.6 C 489.174 1653.63 492.07 1670.06 494.04 1674.25 C 492.489 1677.53 492.853 1691.49 492.364 1696.44 C 478.217 1839.72 262.189 1824.81 277.005 1674.81 C 278.861 1666.98 280.802 1655.53 281.987 1647.52 z"/>
<path transform="translate(0,0)" fill="rgb(250,193,53)" d="M 411.692 1660.84 C 422.541 1658.55 433.209 1665.43 435.588 1676.27 C 437.966 1687.1 431.163 1697.82 420.351 1700.28 C 409.421 1702.77 398.556 1695.87 396.152 1684.92 C 393.748 1673.98 400.725 1663.16 411.692 1660.84 z"/>
<path transform="translate(0,0)" fill="rgb(250,193,53)" d="M 1514.39 459.383 C 1570.43 452.179 1621.75 491.62 1629.21 547.622 C 1636.67 603.625 1597.47 655.125 1541.5 662.843 C 1485.17 670.612 1433.26 631.096 1425.75 574.728 C 1418.24 518.361 1457.99 466.633 1514.39 459.383 z"/>
<path transform="translate(0,0)" fill="rgb(254,254,254)" d="M 1523.86 504.233 C 1560.03 501.424 1569.91 533.472 1545.11 558.212 C 1562.37 568.114 1569.13 582.558 1560 601.47 C 1547.17 628.045 1497.63 623.228 1490.25 595.468 C 1490.94 593.085 1490.22 593.871 1492.06 592.846 C 1500.06 592.841 1506.79 599.305 1513.4 604.097 C 1532.61 613.51 1558.51 601.561 1550.55 578.374 C 1547.05 568.187 1526.71 564.952 1516.76 562.054 C 1529.28 549.555 1557.87 544.313 1543.18 523.705 C 1527.6 501.847 1506.5 528.853 1494.77 527.192 L 1493.49 525.472 C 1494.9 513.764 1514 506.644 1523.86 504.233 z"/>
<path transform="translate(0,0)" fill="rgb(64,79,103)" d="M 400.652 1061.23 C 413.284 1060.13 427.815 1063.37 437.269 1072.25 C 444.08 1078.69 447.889 1087.69 447.776 1097.06 C 447.66 1111.57 439.567 1120.92 429.977 1130.25 C 472.323 1153.86 446.308 1200.52 403.163 1201.73 C 371.534 1202.62 353.574 1162.91 374.747 1161.65 C 378.311 1162.94 379.027 1164.29 381.735 1167.25 L 382.715 1168.34 C 386.519 1173.35 388.379 1175.49 394.179 1179.38 C 411.496 1191.57 438.641 1172.02 432.412 1152.62 C 428.585 1140.7 403.327 1143.6 398.185 1131.06 C 398.977 1120.02 423.71 1116.44 428.691 1104.22 C 434.264 1090.54 418.401 1082.62 407.565 1078.31 C 399.082 1082.45 374.027 1107.01 368.093 1094.33 C 368.621 1076.86 385.743 1066.04 400.652 1061.23 z"/>
<path transform="translate(0,0)" fill="rgb(233,126,61)" d="M 277.005 1674.81 C 264.676 1673.27 246.519 1673.79 233.618 1673.88 L 159.259 1674.71 C 150.207 1674.74 118.765 1675.34 114.964 1668.52 C 100.537 1642.6 144.574 1646.08 156.634 1646.45 C 171.582 1646.91 183.471 1646.82 196.494 1646.83 C 212.011 1646.86 227.528 1646.8 243.045 1646.67 C 254.937 1646.54 270.529 1645.83 281.987 1647.52 C 280.802 1655.53 278.861 1666.98 277.005 1674.81 z"/>
<path transform="translate(0,0)" fill="rgb(64,79,103)" d="M 1879.67 1489.99 L 1878.76 1491.04 C 1873.53 1496.91 1864.88 1505.61 1856.49 1501.52 C 1855.07 1499.18 1854.63 1497.95 1855.13 1495.18 C 1857.11 1484.21 1872 1467.55 1881.39 1462.02 C 1884.38 1460.26 1887.42 1458.93 1890.93 1459.84 C 1892.84 1460.34 1894.27 1461.74 1895.15 1463.5 C 1898.45 1470.14 1897.55 1562.24 1896.7 1576.01 C 1903.71 1575.3 1932.04 1571.04 1932.12 1582.89 C 1932.14 1585.69 1931.1 1588.42 1929.35 1590.62 C 1918.47 1596.66 1881.72 1591.47 1871.64 1593.17 C 1869.17 1593.58 1859.49 1593.15 1856.44 1593.09 C 1851.61 1591.43 1844.8 1589.41 1846.29 1583.2 C 1853.27 1576.54 1871.09 1575.86 1880.46 1575.97 C 1879.72 1547.47 1880.48 1519.02 1879.67 1489.99 z"/>
<path transform="translate(0,0)" fill="rgb(64,79,103)" d="M 1552.72 231.753 C 1555.44 232.262 1555.11 232.36 1557.71 233.597 C 1563.81 241.108 1561.61 339.43 1560.93 354.129 C 1569.08 352.914 1596.68 351.767 1600.11 360.836 C 1597.91 375.689 1537.86 370.36 1523.84 370.021 C 1517.42 369.858 1513.86 369.69 1510.2 364.385 C 1509.85 353.168 1537.39 353.846 1545.27 353.846 C 1543.68 326.77 1544.08 288.717 1544.74 261.367 C 1541.77 266.063 1533.23 278.535 1526.88 274.08 C 1521.77 260.231 1542.81 239.58 1552.72 231.753 z"/>
<path transform="translate(0,0)" fill="rgb(233,126,61)" d="M 545.46 1451.74 C 569.444 1464.32 552.097 1486.92 535.815 1496.36 C 506.602 1492.46 534.255 1460.61 545.46 1451.74 z"/>
<path transform="translate(0,0)" fill="rgb(233,126,61)" d="M 776.431 1166.9 C 781.094 1167.18 784 1168.09 787.006 1171.75 C 791.579 1184.44 772.297 1203.2 761.864 1208.77 C 757.459 1209.29 753.006 1206.74 750.347 1203.39 C 747.239 1189.65 765.202 1172.53 776.431 1166.9 z"/>
<path transform="translate(0,0)" fill="rgb(233,126,61)" d="M 1099.7 833.942 C 1103.99 833.968 1109.48 836.084 1111.7 839.879 C 1115.07 853.632 1095.35 868.814 1084.15 874.089 C 1080.43 873.602 1075.75 871.511 1073.21 868.5 C 1068.33 855.585 1089.98 839.655 1099.7 833.942 z"/>
<path transform="translate(0,0)" fill="rgb(233,126,61)" d="M 658.079 1307.85 C 687.394 1311.92 656.537 1343.12 645.62 1350.78 C 629.666 1348.22 631.958 1334.61 640.022 1324.88 C 646.122 1317.52 650.252 1313.33 658.079 1307.85 z"/>
<path transform="translate(0,0)" fill="rgb(233,126,61)" d="M 837.837 1098.01 C 868.121 1101.44 837.294 1131.23 826.186 1138.89 C 797.549 1137.25 824.891 1104.99 837.837 1098.01 z"/>
<path transform="translate(0,0)" fill="rgb(233,126,61)" d="M 900.339 1030.93 C 903.681 1030.54 909.726 1031.93 912.363 1034.02 C 918.558 1045.7 897.78 1064.13 888.427 1069.56 C 879.182 1072.91 873.313 1064.54 876.57 1055.74 C 880.653 1044.72 890.109 1036.19 900.339 1030.93 z"/>
<path transform="translate(0,0)" fill="rgb(233,126,61)" d="M 494.234 1526.81 C 518.92 1526.29 503.362 1559.83 489.826 1567.55 C 460.03 1564.66 479.833 1536.16 494.234 1526.81 z"/>
<path transform="translate(0,0)" fill="rgb(233,126,61)" d="M 598.83 1380.08 C 604.025 1379.71 607.209 1379.72 611.374 1382.85 C 617.941 1393.56 599.704 1414.35 591.433 1420.04 C 559.389 1423.3 588.998 1385.71 598.83 1380.08 z"/>
<path transform="translate(0,0)" fill="rgb(233,126,61)" d="M 1238.72 711.882 C 1270.37 716.04 1231.45 745.297 1221.66 751.241 C 1190.09 746.819 1228.56 717.882 1238.72 711.882 z"/>
<path transform="translate(0,0)" fill="rgb(233,126,61)" d="M 1384.82 603.942 C 1392.12 603.938 1398.97 611.341 1395.62 617.705 C 1390.28 627.846 1374.21 635.316 1363.76 639.301 C 1332.4 633.167 1374.63 608.358 1384.82 603.942 z"/>
<path transform="translate(0,0)" fill="rgb(233,126,61)" d="M 1309.54 655.881 C 1314.28 656.339 1317.11 656.784 1320.28 660.27 C 1324.59 672.274 1302.63 688.907 1292.97 693.42 C 1292.13 693.374 1290.15 693.331 1289.5 692.965 C 1265.7 679.409 1299.3 660.641 1309.54 655.881 z"/>
<path transform="translate(0,0)" fill="rgb(233,126,61)" d="M 1168.45 771.738 C 1198.43 780.21 1165.05 802.767 1153.57 810.171 C 1149.98 810.278 1145.4 807.957 1142.47 805.915 C 1135.47 793.429 1159.43 777.584 1168.45 771.738 z"/>
<path transform="translate(0,0)" fill="rgb(233,126,61)" d="M 715.205 1238.98 C 720.466 1238.74 722.207 1238.34 726.307 1241.73 C 732.245 1253.39 713.329 1272.62 704.378 1278.58 C 699.356 1279 696.792 1279.27 693.023 1275.39 C 688.253 1263.35 704.847 1243.92 715.205 1238.98 z"/>
<path transform="translate(0,0)" fill="rgb(233,126,61)" d="M 1033.03 898.975 C 1037.11 898.931 1039.77 899.718 1042.83 902.341 C 1047.72 914.302 1025.45 932.351 1015.65 937.027 C 1012.03 936.933 1007.88 934.4 1005.56 931.66 C 1001.14 919.363 1022.5 902.517 1033.03 898.975 z"/>
<path transform="translate(0,0)" fill="rgb(233,126,61)" d="M 966.373 963.947 C 970.764 963.918 971.821 964.463 975.532 966.555 C 983.355 978.056 961.956 996.775 952.905 1002.64 C 948.014 1002.88 945.016 1002.71 941.335 999.469 C 935.907 988.114 957.063 968.948 966.373 963.947 z"/>
</svg>