<svg xmlns="http://www.w3.org/2000/svg" height="512" preserveAspectRatio="none" style="display: block;" version="1.1" viewBox="0 0 2048 2048" width="512">
<path d="M 372.238 272.966 C 400.447 272.092 434.4 272.955 463.014 272.955 L 1625.59 272.948 C 1714.46 272.957 1728.3 277.554 1728.28 369.806 C 1728.28 379.349 1732.03 414.915 1723.15 421.503 C 1715.95 426.853 1616.16 424.444 1600.15 424.428 L 1600.15 1423.07 C 1702.89 1473.09 1627.21 1627.15 1524.61 1583.44 C 1453.15 1553 1456.23 1450.93 1515.96 1426.92 C 1516.93 1418.04 1516.14 1403.06 1516.07 1393.51 L 1515.96 424.428 C 1466.8 425.005 1416.51 424.427 1367.24 424.423 L 874.329 424.43 C 842.826 424.434 806.77 425.376 775.6 424.428 L 1152.03 1379.6 C 1194.11 1379.31 1219.86 1379.9 1258.65 1398.28 C 1355.37 1444.14 1393.17 1562.89 1345.59 1657.59 C 1332.37 1683.9 1302.26 1724.47 1273.46 1733.94 C 1180.12 1807.73 1021.39 1738.84 989.956 1620.36 C 963.389 1520.23 1024.41 1413.76 1124.5 1387.74 C 1114.66 1358.08 1102.06 1328.38 1090.26 1299.47 L 744.629 424.428 L 518.688 424.428 L 518.726 759.16 C 518.764 774.383 518.956 789.241 518.337 804.688 C 519.858 816.997 501.986 826.261 494.693 816.711 C 489.039 809.308 491.023 771.817 491.023 762.735 L 491.026 689.309 C 491.032 601.662 492.069 511.877 491.063 424.428 C 481.31 424.019 472.97 424.183 463.262 424.428 L 463.262 1415.15 C 472.109 1414.71 482.123 1415.05 491.063 1415.15 L 491.035 1091.14 C 490.938 1078.04 487.935 1047.46 496.645 1036.97 C 502.491 1029.94 518.447 1034.47 518.65 1046.15 C 518.86 1058.27 518.706 1071.08 518.703 1083.54 L 518.688 1423.07 C 582.198 1456.81 588.668 1540.8 527.971 1577.22 C 426.81 1637.92 334.39 1486.77 436.902 1426.92 L 436.902 424.428 C 404.2 420.814 363.618 428.709 330.608 422.47 C 321.084 417.494 323.086 393.795 323.467 385.029 C 325.501 338.283 310.312 285.847 372.238 272.966 z M 1544.51 1415.15 C 1554.31 1414.71 1561.66 1414.81 1571.45 1415.15 C 1572.5 1411.86 1571.46 1376.01 1571.45 1370.08 L 1571.45 424.428 C 1562.87 424.333 1552.97 423.986 1544.51 424.428 C 1543.9 460.35 1544.52 497.709 1544.52 533.741 L 1544.51 1415.15 z" fill="rgb(94,44,44)" transform="translate(0,0)"></path>
<path d="M 372.238 300.968 L 1653.28 300.968 C 1716.63 301.149 1701.03 346.678 1700.8 396.765 L 1679.5 396.765 L 350.937 396.765 C 351.067 368.5 339.146 310.186 372.238 300.968 z" fill="rgb(252,209,132)" transform="translate(0,0)"></path>
<path d="M 1165.26 1407.64 C 1255.7 1402.11 1333.46 1471.05 1338.79 1561.5 C 1344.12 1651.96 1275 1729.55 1184.54 1734.68 C 1094.36 1739.79 1017.06 1670.94 1011.75 1580.78 C 1006.43 1490.61 1075.11 1413.16 1165.26 1407.64 z" fill="rgb(246,167,60)" transform="translate(0,0)"></path>
<path d="M 480.388 1441.25 C 513.817 1440.73 541.434 1467.22 542.293 1500.64 C 543.151 1534.07 516.93 1561.94 483.517 1563.13 C 449.634 1564.34 421.277 1537.67 420.407 1503.77 C 419.537 1469.88 446.487 1441.79 480.388 1441.25 z" fill="rgb(246,167,60)" transform="translate(0,0)"></path>
<path d="M 1552.02 1441.47 C 1585.3 1437.6 1615.45 1461.36 1619.46 1494.62 C 1623.47 1527.88 1599.85 1558.13 1566.61 1562.28 C 1533.16 1566.47 1502.69 1542.66 1498.65 1509.2 C 1494.61 1475.74 1518.54 1445.37 1552.02 1441.47 z" fill="rgb(246,167,60)" transform="translate(0,0)"></path>
<path d="M 501.624 890.844 C 531.56 892.661 519.88 965.893 508.025 974.188 C 487.587 974.524 490.909 956.79 490.901 942.063 C 490.89 923.274 484.816 899.361 501.624 890.844 z" fill="rgb(94,44,44)" transform="translate(0,0)"></path>
<metadata><recraft-signature>{"signed_by": "recraft", "signature_b64": "P6emkvNOIxpHUGiXAc8TUgY8+6ZMrAhpi1tWjJ026wJpn8wTlgG9dBPzoYa+Oh4WsWhCjWbNGZPkaxSMKw1wDg==", "signing_algo": "Ed25519", "generation_timestamp": 1782332328, "identifier": "8c84122d-78a6-459f-9ddf-3b25d62b837f"}</recraft-signature></metadata></svg>