<svg version="1.1" xmlns="http://www.w3.org/2000/svg" style="display: block;" viewBox="0 0 2048 2048" width="512" height="512" preserveAspectRatio="none">
<defs>
	<linearGradient id="Gradient1" gradientUnits="userSpaceOnUse" x1="1420.35" y1="1587.38" x2="1482.61" y2="1313.8">
		<stop class="stop0" offset="0" stop-opacity="1" stop-color="rgb(213,177,154)"/>
		<stop class="stop1" offset="1" stop-opacity="1" stop-color="rgb(249,215,184)"/>
	</linearGradient>
	<linearGradient id="Gradient2" gradientUnits="userSpaceOnUse" x1="1069.72" y1="950.789" x2="1809.19" y2="925.712">
		<stop class="stop0" offset="0" stop-opacity="1" stop-color="rgb(205,204,204)"/>
		<stop class="stop1" offset="1" stop-opacity="1" stop-color="rgb(244,244,244)"/>
	</linearGradient>
</defs>
<path transform="translate(0,0)" fill="rgb(61,62,73)" d="M 560.944 415.391 C 562.69 415.77 563.731 416.414 564.955 417.675 C 588.847 442.283 642.372 591.345 659.305 631.394 L 867.266 1113.39 C 883.987 1152.16 905.568 1185.86 921.474 1224 C 958.264 1312.21 936.861 1408.25 868.433 1474.86 C 786.962 1554.17 676.921 1587.34 564.96 1587.51 C 470.142 1586.72 379.281 1563.53 301.261 1509.71 C 219.114 1453.04 159.091 1351.98 196.269 1252.4 C 210.54 1214.18 228.219 1180.98 245.756 1144.41 C 262.008 1110.53 276.459 1074.36 291.259 1039.78 L 471.335 619.151 C 493.192 567.466 512.868 514.786 535.883 463.591 C 543.128 447.476 550.755 429.817 560.944 415.391 z M 403.913 1027.27 C 399.563 1035.25 386.827 1082.15 383.035 1094.28 L 308.063 1341.22 C 300.242 1367.27 281.582 1446.1 268.859 1464.28 C 299.986 1494.31 327.73 1514.92 367.399 1533.23 C 477.957 1584.26 613.254 1589.71 727.834 1549.02 C 784.632 1528.85 839.482 1494.15 876.523 1446.42 C 884.302 1436.4 893.484 1423.51 898.864 1412.03 C 916.456 1379.37 924.108 1349.56 924.099 1312.04 C 924.081 1237.64 880.625 1152.57 827.649 1101.1 C 766.456 1041.65 672.191 1006.94 588.052 1000.17 C 570.274 998.739 553.485 998.896 535.564 999.238 C 490.196 999.205 445.332 1008.76 403.913 1027.27 z"/>
<path transform="translate(0,0)" fill="rgb(250,157,75)" d="M 535.564 999.238 C 553.485 998.896 570.274 998.739 588.052 1000.17 C 672.191 1006.94 766.456 1041.65 827.649 1101.1 C 880.625 1152.57 924.081 1237.64 924.099 1312.04 C 924.108 1349.56 916.456 1379.37 898.864 1412.03 C 893.484 1423.51 884.302 1436.4 876.523 1446.42 C 839.482 1494.15 784.632 1528.85 727.834 1549.02 C 613.254 1589.71 477.957 1584.26 367.399 1533.23 C 327.73 1514.92 299.986 1494.31 268.859 1464.28 C 281.582 1446.1 300.242 1367.27 308.063 1341.22 L 383.035 1094.28 C 386.827 1082.15 399.563 1035.25 403.913 1027.27 C 445.332 1008.76 490.196 999.205 535.564 999.238 z M 839.502 1305.88 C 848.425 1289.38 832.799 1237.38 826.228 1219.08 C 815.808 1190.06 790.557 1124.49 756.731 1119.17 C 750.887 1135.25 776.52 1153.27 785.636 1164.37 C 802.313 1184.66 814.295 1209.7 820.899 1235 C 824.286 1247.98 826.406 1261.25 827.228 1274.63 C 827.793 1283.5 827.73 1292.66 829.014 1301.42 C 829.705 1306.13 835.851 1306.53 839.502 1305.88 z M 713.774 1113.47 C 753.265 1099.85 712.276 1062.82 693.291 1067.22 C 651.141 1076.38 692.878 1108.47 713.774 1113.47 z"/>
<path transform="translate(0,0)" fill="rgb(216,130,63)" d="M 403.913 1027.27 C 445.332 1008.76 490.196 999.205 535.564 999.238 C 528.386 1000.9 514.663 1000.24 506.95 999.994 C 502.731 1011.86 467.069 1035.47 457.202 1046.09 C 320.32 1193.45 429.464 1411.46 596.377 1476.5 C 693.699 1514.43 794.502 1512.66 870.896 1435.3 C 877.012 1428.76 890.276 1412.39 898.864 1412.03 C 893.484 1423.51 884.302 1436.4 876.523 1446.42 C 839.482 1494.15 784.632 1528.85 727.834 1549.02 C 613.254 1589.71 477.957 1584.26 367.399 1533.23 C 327.73 1514.92 299.986 1494.31 268.859 1464.28 C 281.582 1446.1 300.242 1367.27 308.063 1341.22 L 383.035 1094.28 C 386.827 1082.15 399.563 1035.25 403.913 1027.27 z"/>
<path transform="translate(0,0)" fill="rgb(250,209,152)" d="M 538.479 497.79 C 539.411 488.152 559.332 444.338 564.967 434.96 C 566.723 439.66 571.149 450.323 570.728 454.735 C 596.507 517.431 622.805 579.911 649.621 642.171 L 763.662 909.997 C 778.884 945.664 793.997 981.416 809.359 1017.02 C 821.509 1045.18 836.162 1072.24 844.886 1101.72 C 776.549 1029.76 668.176 989.948 569.819 986.017 C 523.262 984.157 451.262 991.772 409.196 1011.18 C 407.138 1016.14 404.296 1022.01 403.913 1027.27 C 399.563 1035.25 386.827 1082.15 383.035 1094.28 L 308.063 1341.22 C 300.242 1367.27 281.582 1446.1 268.859 1464.28 C 265.662 1461.37 261.861 1457.03 258.842 1453.78 C 247.313 1441.75 240.828 1434.2 231.324 1420.4 C 205.487 1382.88 190.221 1321.91 202.159 1276.34 C 221.419 1202.84 275.036 1120.54 333.147 1071.16 C 349.402 1057.35 363.878 1049.83 380.836 1038.85 C 384.386 1033.14 383.907 1030.75 384.195 1024.14 C 354.376 1037.11 332.023 1053.75 307.924 1075.7 C 298.333 1084.44 288.213 1097.68 277.274 1107.99 C 283.119 1088.87 295.975 1062.16 304.303 1042.81 L 355.116 924.481 L 466.585 664.363 L 515.665 549.748 C 523.175 532.298 531.152 515.415 538.479 497.79 z"/>
<path transform="translate(0,0)" fill="rgb(216,130,63)" d="M 380.836 1038.85 C 383.402 1046.63 349.973 1153.03 344.841 1170.21 L 288.685 1358.1 C 285.201 1369.75 261.553 1451.24 258.842 1453.78 C 247.313 1441.75 240.828 1434.2 231.324 1420.4 C 205.487 1382.88 190.221 1321.91 202.159 1276.34 C 221.419 1202.84 275.036 1120.54 333.147 1071.16 C 349.402 1057.35 363.878 1049.83 380.836 1038.85 z"/>
<path transform="translate(0,0)" fill="rgb(250,209,152)" d="M 538.479 497.79 C 539.668 501.028 539.718 501.068 538.612 504.613 C 525.222 547.522 515.436 591.209 502.528 634.284 C 486.534 687.651 470.615 741.071 455.188 794.604 C 439.877 849.045 423.868 903.287 407.164 957.317 C 404.213 966.908 389.709 1022.2 384.195 1024.14 C 354.376 1037.11 332.023 1053.75 307.924 1075.7 C 298.333 1084.44 288.213 1097.68 277.274 1107.99 C 283.119 1088.87 295.975 1062.16 304.303 1042.81 L 355.116 924.481 L 466.585 664.363 L 515.665 549.748 C 523.175 532.298 531.152 515.415 538.479 497.79 z"/>
<path transform="translate(0,0)" fill="rgb(99,108,123)" d="M 538.479 497.79 C 539.411 488.152 559.332 444.338 564.967 434.96 C 566.723 439.66 571.149 450.323 570.728 454.735 C 566.606 463.275 565.52 473.889 562.486 482.374 C 554.604 504.423 548.777 525.917 542.468 548.438 L 498.808 699.035 C 481.083 759.92 463.587 821.783 445.147 882.398 C 435.558 912.893 426.44 943.534 417.797 974.311 C 415.189 983.889 410.161 1001.36 408.658 1010.3 L 409.196 1011.18 C 407.138 1016.14 404.296 1022.01 403.913 1027.27 C 399.563 1035.25 386.827 1082.15 383.035 1094.28 L 308.063 1341.22 C 300.242 1367.27 281.582 1446.1 268.859 1464.28 C 265.662 1461.37 261.861 1457.03 258.842 1453.78 C 261.553 1451.24 285.201 1369.75 288.685 1358.1 L 344.841 1170.21 C 349.973 1153.03 383.402 1046.63 380.836 1038.85 C 384.386 1033.14 383.907 1030.75 384.195 1024.14 C 389.709 1022.2 404.213 966.908 407.164 957.317 C 423.868 903.287 439.877 849.045 455.188 794.604 C 470.615 741.071 486.534 687.651 502.528 634.284 C 515.436 591.209 525.222 547.522 538.612 504.613 C 539.718 501.068 539.668 501.028 538.479 497.79 z"/>
<path transform="translate(0,0)" fill="rgb(253,253,252)" d="M 564.475 478.506 C 572.178 491.446 579.117 515.286 584.247 530.487 C 594.656 561.441 604.888 592.454 614.942 623.525 C 653.097 740.447 693.428 862.44 728.599 980.128 L 726.819 981.442 L 725.488 981.092 C 685.799 871.418 649.556 756.144 613.908 645.026 L 582.844 546.671 C 576.718 526.947 566.993 498.187 564.475 478.506 z"/>
<path transform="translate(0,0)" fill="rgb(254,240,215)" d="M 728.599 980.128 C 730.737 986.516 732.135 990.616 733.461 997.235 C 730.993 992.992 726.662 985.736 725.488 981.092 L 726.819 981.442 L 728.599 980.128 z"/>
<path transform="translate(0,0)" fill="rgb(61,62,73)" d="M 1452.3 436.58 C 1469 441.982 1545.76 650.076 1558.66 682.414 L 1710.43 1061.1 L 1815.6 1323.79 C 1823.55 1343.62 1831.28 1363.6 1839.65 1383.25 C 1846.02 1398.18 1853.43 1412.74 1858.77 1428.08 C 1860.99 1434.45 1862.49 1440.75 1862.66 1447.51 C 1863.04 1462.38 1856.09 1475.11 1846.11 1485.61 C 1774.79 1560.67 1553.34 1576.34 1453.31 1578.77 C 1344.14 1577.89 1153.91 1568.2 1064.92 1492.65 C 1054.32 1482.74 1040.27 1466.48 1041.2 1451.09 C 1042.93 1422.42 1059.07 1391.59 1069.99 1365.08 L 1107.34 1273.46 L 1230.78 970.792 L 1372.32 623.609 C 1395.52 566.723 1418.72 509.626 1441.98 452.757 C 1444.5 446.615 1447.58 441.336 1452.3 436.58 z"/>
<path transform="translate(0,0)" fill="url(#Gradient2)" d="M 1081.2 1374.4 C 1108.79 1304.04 1137.16 1233.99 1166.32 1164.26 L 1304.46 826.617 L 1398.56 596.578 C 1416.21 553.413 1434.89 504.262 1454.43 462.585 C 1462.13 480.291 1468.83 498.661 1476.33 516.595 C 1504.85 583.596 1532.39 651.008 1558.95 718.81 L 1702.27 1077.74 L 1785.66 1286.53 C 1797.55 1316.27 1820.36 1368.1 1828.29 1396.78 C 1733.27 1339.4 1563.5 1326.12 1455.01 1324.51 C 1454.98 1319.05 1455.45 1313.91 1453.47 1308.93 L 1452 1307.7 C 1448.02 1310.97 1448.9 1319.52 1448.83 1324.54 C 1336.49 1325.57 1195 1331.31 1093.97 1387.03 L 1068.45 1404.92 C 1072.8 1394.79 1077.05 1384.61 1081.2 1374.4 z"/>
<path transform="translate(0,0)" fill="rgb(253,253,252)" d="M 1081.2 1374.4 C 1086.59 1375.4 1086.6 1374.48 1089.77 1377.62 L 1090.08 1378.88 C 1091.18 1383.24 1091.08 1383.92 1093.97 1387.03 L 1068.45 1404.92 C 1072.8 1394.79 1077.05 1384.61 1081.2 1374.4 z"/>
<path transform="translate(0,0)" fill="rgb(61,62,73)" d="M 1449.74 511.69 C 1458.76 516.159 1458.1 541.514 1453.4 546.031 C 1442.42 539.248 1445.16 521.608 1449.74 511.69 z"/>
<path transform="translate(0,0)" fill="rgb(1,1,3)" d="M 1449.34 1245.47 C 1459.17 1251.86 1455.85 1270.86 1455.41 1281.57 C 1444.53 1276.69 1447.66 1255.07 1449.34 1245.47 z"/>
<path transform="translate(0,0)" fill="rgb(1,1,3)" d="M 1449.16 793.323 C 1459.23 797.384 1455.64 818.318 1455.17 827.605 C 1443.78 822.168 1448.09 803.994 1449.16 793.323 z"/>
<path transform="translate(0,0)" fill="rgb(1,1,3)" d="M 1452.01 737.483 L 1454.36 738.504 C 1456.29 745.417 1457.73 765.844 1453.28 771.38 C 1445.54 762.283 1446.16 747.468 1452.01 737.483 z"/>
<path transform="translate(0,0)" fill="rgb(1,1,3)" d="M 1452.27 683.128 L 1454.85 684.253 C 1457.61 691.64 1456.87 707.466 1455.27 715.15 L 1452.92 716.448 C 1445.31 705.595 1448.1 694.721 1452.27 683.128 z"/>
<path transform="translate(0,0)" fill="rgb(1,1,3)" d="M 1449.55 1188.51 C 1458.87 1192.82 1455.31 1214.84 1454.78 1223.89 C 1444.28 1218.35 1448.32 1198.54 1449.55 1188.51 z"/>
<path transform="translate(0,0)" fill="rgb(1,1,3)" d="M 1449.22 907.358 C 1460.88 912.648 1456.14 929.13 1454.67 939.609 C 1445.08 935.827 1448.59 916.162 1449.22 907.358 z"/>
<path transform="translate(0,0)" fill="rgb(1,1,3)" d="M 1449.24 1076.03 C 1460.54 1079.03 1455.75 1097.52 1454.76 1106.9 C 1443.97 1104.1 1448.37 1084.92 1449.24 1076.03 z"/>
<path transform="translate(0,0)" fill="rgb(1,1,3)" d="M 1449.27 1131.27 C 1452.06 1131.87 1451.89 1131.75 1454.07 1133.58 C 1457.2 1141.83 1455.98 1155.58 1454.31 1164.15 C 1445.37 1159.64 1448.68 1140.12 1449.27 1131.27 z"/>
<path transform="translate(0,0)" fill="rgb(1,1,3)" d="M 1449.46 625.54 C 1459.28 630.708 1455.61 649.863 1454.9 659.457 C 1445.42 655.49 1448.7 634.162 1449.46 625.54 z"/>
<path transform="translate(0,0)" fill="rgb(1,1,3)" d="M 1449.09 851.035 C 1451.49 851.661 1451.33 851.68 1453.31 853.222 C 1457.19 860.698 1455.35 875.011 1454.99 883.935 C 1444.96 880.642 1448.65 859.771 1449.09 851.035 z"/>
<path transform="translate(0,0)" fill="rgb(1,1,3)" d="M 1449.41 567.374 L 1452.55 569.691 C 1457.63 579.124 1454.82 592.585 1453.55 603.306 C 1451.46 602.769 1452.22 603.066 1450.43 601.713 C 1447.36 593.917 1448.79 576.194 1449.41 567.374 z"/>
<path transform="translate(0,0)" fill="rgb(1,1,3)" d="M 1449.5 963.605 C 1459.55 967.988 1455.63 987.729 1454.84 996.939 C 1452.4 996.109 1453.18 996.447 1451.06 994.917 C 1447.79 986.588 1448.6 972.626 1449.5 963.605 z"/>
<path transform="translate(0,0)" fill="rgb(1,1,3)" d="M 1449.35 1018.39 C 1458.77 1022.64 1455.31 1042.79 1454.81 1051.81 C 1445.29 1045.38 1448.6 1028.73 1449.35 1018.39 z"/>
<path transform="translate(0,0)" fill="url(#Gradient1)" d="M 1383.09 1337.43 C 1391.63 1336.83 1401.41 1336.81 1410 1336.86 C 1525.88 1337.47 1645.46 1340.88 1756.21 1378.32 C 1768.09 1382.33 1780.71 1387.52 1792.04 1392.83 C 1810.6 1401.52 1848.57 1419.58 1849.04 1443.58 C 1849.67 1475.61 1806.05 1498.73 1781.51 1510.14 C 1699.7 1547.63 1608.06 1556.22 1519.41 1563.27 C 1499.78 1566.47 1455.67 1564.83 1434.22 1564.03 C 1334.47 1560.3 1223.71 1553.91 1129.74 1518.09 C 1096.77 1505.52 1068.13 1486.48 1054.39 1453.31 C 1058.31 1441.39 1064.32 1429.41 1073.24 1420.58 C 1136.85 1357.61 1299.23 1339.99 1383.09 1337.43 z"/>
<path transform="translate(0,0)" fill="rgb(1,1,3)" d="M 1448.86 1470.18 C 1459.93 1474.26 1455.84 1494.51 1455.1 1504.23 C 1444.25 1499.58 1448.13 1480.12 1448.86 1470.18 z"/>
<path transform="translate(0,0)" fill="rgb(1,1,3)" d="M 1449.1 1413.34 C 1459.57 1417.8 1455.69 1437.82 1455.09 1447.51 C 1443.7 1441.98 1448.01 1423.86 1449.1 1413.34 z"/>
<path transform="translate(0,0)" fill="rgb(1,1,3)" d="M 1449.44 1356.14 C 1451.68 1356.53 1451.47 1356.58 1453.61 1357.44 C 1456.36 1363.05 1455.58 1384.37 1454.19 1390.64 C 1443.35 1382.85 1447.77 1367.75 1449.44 1356.14 z"/>
<path transform="translate(0,0)" fill="rgb(61,62,73)" d="M 984.245 1011.31 C 992.309 1011.07 999.073 1012.56 1005.3 1018.04 C 1032.21 1041.74 988.937 1080.54 971.877 1098.01 C 979.492 1097.07 1014.97 1095.4 1017.76 1103.5 C 1012.47 1109.03 983.855 1107.05 975.75 1106.91 C 969.289 1106.72 960.349 1107.78 956.498 1101.92 C 956.136 1098.79 957.019 1096.34 959.075 1093.95 C 975.83 1074.49 996.475 1065.34 1003.43 1038.95 C 989.402 1002 966.975 1041.3 957.418 1027.85 C 956.858 1016.63 975.589 1012.7 984.245 1011.31 z"/>
<path transform="translate(0,0)" fill="rgb(61,62,73)" d="M 1071.12 1011.35 C 1084.39 1011.56 1096.95 1020.98 1098.6 1034.41 C 1101.67 1059.36 1075.7 1078.46 1062.52 1096.78 L 1061.59 1098.08 C 1077.15 1096.06 1093.02 1098.14 1108.04 1102.19 C 1092.16 1106.7 1075.35 1106.79 1058.97 1106.95 C 1052.68 1106.68 1047.47 1107.61 1043.58 1102.32 C 1042 1083.48 1119.95 1046.07 1073.6 1021.96 C 1063.59 1023.87 1057.05 1027.94 1047.53 1029.47 C 1045.85 1029.74 1045.86 1029.12 1044.41 1027.69 C 1043.31 1015.2 1061.63 1012.73 1071.12 1011.35 z"/>
</svg>