<svg xmlns="http://www.w3.org/2000/svg" height="512" preserveAspectRatio="none" style="display: block;" version="1.1" viewBox="0 0 2048 2048" width="512">
<defs>
	<linearGradient gradientUnits="userSpaceOnUse" id="Gradient1" x1="1470.36" x2="1254.54" y1="1280.85" y2="637.411">
		<stop class="stop0" offset="0" stop-color="rgb(239,130,11)" stop-opacity="1"></stop>
		<stop class="stop1" offset="1" stop-color="rgb(255,188,31)" stop-opacity="1"></stop>
	</linearGradient>
</defs>
<path d="M 662.538 302.428 C 733.975 296.733 740.735 349.244 757.394 398.994 L 901.479 830.25 C 914.421 867.745 929.413 927.166 946.961 961.284 C 939.65 869.464 981.658 764.064 1036.72 692.272 C 1231.88 437.84 1611.79 466.605 1769.77 747.381 C 1969.25 1101.91 1642.03 1488.31 1250.75 1382.47 C 1136.72 1337.8 1107.15 1306.55 1031 1222.25 C 1041.16 1243.71 1045.97 1261.41 1053.33 1283.78 L 1109.47 1450.1 C 1127.8 1505.27 1146.06 1544.06 1106.76 1596.34 C 1051.31 1670.1 917.811 1704.33 830.669 1716.43 C 669.589 1738.79 407.456 1730.99 273.393 1628.71 C 178.229 1556.11 227.453 1478.31 258.163 1384.71 L 571.143 429.305 C 589.944 372.645 593.608 308.616 662.538 302.428 z" fill="rgb(36,65,111)" transform="translate(0,0)"></path>
<path d="M 267.989 1430.24 L 606.966 393.072 C 615.004 368.452 621.29 335.633 649.4 327.637 C 710.637 310.217 720.527 356.16 733.999 398.45 L 761.896 484.816 L 1049.68 1342.58 C 1059.38 1371.49 1070.06 1401.12 1078.93 1430.24 L 1059.56 1418.59 C 924.896 1338.78 640.492 1304.9 483.433 1345.04 L 483.433 1345.04 C 430.93 1353.72 398.482 1363.95 349.196 1382.47 L 349.196 1382.47 C 317.623 1394.61 294.722 1410.1 267.989 1430.24 z" fill="rgb(118,157,211)" transform="translate(0,0)"></path>
<path d="M 349.196 1382.47 C 349.769 1378.19 351.607 1372.04 352.746 1367.75 L 555.663 628.076 C 561.941 606.539 569.577 585.538 575.854 563.98 C 591.393 510.609 620.924 386.735 648.363 341.727 C 641.846 394.241 633.29 444.049 624.665 496.131 L 506.593 1207.45 C 498.826 1251.02 488.488 1301.41 483.433 1345.04 L 483.433 1345.04 C 430.93 1353.72 398.482 1363.95 349.196 1382.47 z" fill="rgb(166,188,222)" transform="translate(0,0)"></path>
<path d="M 1686.78 699.933 C 1767.31 845.314 1748.05 1033.87 1641.48 1160.77 C 1504.21 1324.23 1251.69 1365.15 1082.45 1226.13 C 929.112 1099.3 935.306 844.679 1059.47 699.933 C 1066.79 705.724 1075.76 711.938 1083.39 717.517 C 1110.85 734.759 1169.09 762.859 1200.73 765.378 C 1315.23 804.513 1601.22 797.087 1686.78 699.933 z" fill="url(#Gradient1)" transform="translate(0,0)"></path>
<path d="M 1083.39 717.517 C 1110.85 734.759 1169.09 762.859 1200.73 765.378 C 1198.43 769.767 1194.72 774.889 1191.96 779.051 C 1138.6 859.263 1081.7 1012.63 1116.4 1109.88 L 1115.72 1109.41 C 1009.94 1033.92 1011.65 817.761 1083.39 717.517 z" fill="rgb(254,196,95)" transform="translate(0,0)"></path>
<path d="M 349.196 1382.47 C 398.482 1363.95 430.93 1353.72 483.433 1345.04 C 482.235 1350.23 479.79 1362.21 477.846 1366.51 C 522.029 1359.54 565.584 1352.9 610.317 1350.61 C 699.996 1346.01 1003.85 1355.28 1022.33 1479.51 C 1024.99 1497.38 1018.53 1507.79 1012.86 1523.71 L 1014.4 1525.58 C 990.751 1600.01 783.38 1638.29 720.053 1648.1 C 713.856 1650 634.634 1652.71 626.918 1652.47 C 569.8 1650.71 485.194 1646.14 431.652 1628.35 L 428.138 1628.35 C 425.946 1642.18 422.899 1658.17 419.929 1671.83 C 372.761 1657.14 329.037 1640.97 289.367 1610.38 C 247.545 1589.34 220.772 1506.46 250.12 1511.24 C 220.8 1483.42 321.728 1420.35 343.693 1410.06 L 343.693 1410.06 C 344.48 1400.53 349.197 1388.66 349.196 1382.47 L 349.196 1382.47 z" fill="rgb(84,115,163)" transform="translate(0,0)"></path>
<path d="M 349.196 1382.47 C 398.482 1363.95 430.93 1353.72 483.433 1345.04 C 482.235 1350.23 479.79 1362.21 477.846 1366.51 L 477.846 1366.51 C 478.932 1369.27 468.505 1416.53 467.278 1422.67 L 434.383 1593.48 C 433.459 1598.36 429.954 1624.22 428.138 1625.67 C 431.052 1626.81 432.911 1627.46 435.903 1628.35 L 431.652 1628.35 L 428.138 1628.35 C 425.946 1642.18 422.899 1658.17 419.929 1671.83 C 372.761 1657.14 329.037 1640.97 289.367 1610.38 C 247.545 1589.34 220.772 1506.46 250.12 1511.24 C 220.8 1483.42 321.728 1420.35 343.693 1410.06 L 343.693 1410.06 C 344.48 1400.53 349.197 1388.66 349.196 1382.47 L 349.196 1382.47 z" fill="rgb(118,157,211)" transform="translate(0,0)"></path>
<path d="M 250.12 1511.24 C 220.8 1483.42 321.728 1420.35 343.693 1410.06 C 327.877 1464.69 314.56 1519.8 299.156 1574.14 C 337.203 1597.63 384.618 1615.54 428.138 1625.67 C 431.052 1626.81 432.911 1627.46 435.903 1628.35 L 431.652 1628.35 L 428.138 1628.35 C 425.946 1642.18 422.899 1658.17 419.929 1671.83 C 372.761 1657.14 329.037 1640.97 289.367 1610.38 C 247.545 1589.34 220.772 1506.46 250.12 1511.24 z" fill="rgb(84,115,163)" transform="translate(0,0)"></path>
<path d="M 299.156 1577.33 C 333.35 1596.85 389.216 1621.78 428.138 1628.35 C 425.946 1642.18 422.899 1658.17 419.929 1671.83 C 372.761 1657.14 329.037 1640.97 289.367 1610.38 C 292.766 1600.8 296.18 1587.39 299.156 1577.33 z" fill="rgb(118,157,211)" transform="translate(0,0)"></path>
<path d="M 250.12 1520.04 C 262.636 1546.43 277.562 1556.62 299.156 1574.14 C 337.203 1597.63 384.618 1615.54 428.138 1625.67 C 431.052 1626.81 432.911 1627.46 435.903 1628.35 L 431.652 1628.35 L 428.138 1628.35 C 389.216 1621.78 333.35 1596.85 299.156 1577.33 C 288.599 1564.43 249.516 1542.71 250.12 1520.04 z" fill="rgb(3,10,47)" transform="translate(0,0)"></path>
<path d="M 349.196 1382.47 C 398.482 1363.95 430.93 1353.72 483.433 1345.04 C 482.235 1350.23 479.79 1362.21 477.846 1366.51 L 477.846 1366.51 C 428.364 1375.79 388.928 1388.27 343.693 1410.06 C 344.48 1400.53 349.197 1388.66 349.196 1382.47 L 349.196 1382.47 z" fill="rgb(84,115,163)" transform="translate(0,0)"></path>
<path d="M 435.903 1628.35 C 452.732 1629.72 469.267 1634.26 485.845 1636.89 C 580.468 1651.9 643.741 1646.9 736.545 1642.2 C 729.414 1645.36 724.201 1643.71 719.791 1646.69 L 720.053 1648.1 C 713.856 1650 634.634 1652.71 626.918 1652.47 C 569.8 1650.71 485.194 1646.14 431.652 1628.35 L 435.903 1628.35 z" fill="rgb(1,27,95)" transform="translate(0,0)"></path>
<path d="M 1012.86 1523.71 L 1014.4 1525.58 C 990.751 1600.01 783.38 1638.29 720.053 1648.1 L 719.791 1646.69 C 724.201 1643.71 729.414 1645.36 736.545 1642.2 C 820.756 1633.23 965.453 1599.97 1012.86 1523.71 z" fill="rgb(3,10,47)" transform="translate(0,0)"></path>
<path d="M 1073.16 681.766 C 1210.82 519.189 1466.15 489.883 1631.83 626.442 C 1674.6 661.692 1687.31 682.084 1639.18 713.871 C 1525.67 773.101 1342.17 776.891 1219.27 748.363 C 1184.72 739.811 1127.4 720.958 1098.92 699.933 C 1087.11 694.299 1083.12 690.497 1073.16 681.766 z" fill="rgb(254,196,95)" transform="translate(0,0)"></path>
<path d="M 1486.12 585.337 C 1543.17 604.274 1620.24 655.127 1639.18 713.871 C 1525.67 773.101 1342.17 776.891 1219.27 748.363 C 1225.15 742.851 1231 734.35 1236.63 728.216 C 1318.87 638.441 1380.46 620.858 1486.12 585.337 z" fill="rgb(253,166,22)" transform="translate(0,0)"></path>
<path d="M 1073.16 681.766 C 1210.82 519.189 1466.15 489.883 1631.83 626.442 C 1674.6 661.692 1687.31 682.084 1639.18 713.871 C 1620.24 655.127 1543.17 604.274 1486.12 585.337 C 1366.72 550.121 1195.92 597.079 1111.44 686.157 C 1107.84 689.951 1101.75 695.712 1098.92 699.933 C 1087.11 694.299 1083.12 690.497 1073.16 681.766 z" fill="rgb(251,157,23)" transform="translate(0,0)"></path>
<path d="M 1709.55 695.021 C 1949.71 991.319 1717.57 1411.51 1341.98 1378.54 C 1289.78 1373.96 1184.25 1340.91 1144.49 1302.75 C 1144.1 1300.95 1141.97 1296.26 1141.14 1294.3 L 1141.68 1292.99 C 1144.04 1293.43 1145.49 1293.52 1147.9 1293.46 C 1159 1297.89 1169.7 1302.94 1181.03 1307.12 C 1546.26 1442 1885.55 1053.46 1709.55 695.021 z" fill="rgb(235,123,6)" transform="translate(0,0)"></path>
<path d="M 1144.49 1302.75 C 1130.73 1293.24 1110.49 1277.05 1098.92 1265.19 C 1117.1 1277.81 1128.16 1283.43 1147.9 1293.46 C 1145.49 1293.52 1144.04 1293.43 1141.68 1292.99 L 1141.14 1294.3 C 1141.97 1296.26 1144.1 1300.95 1144.49 1302.75 z" fill="rgb(251,157,23)" transform="translate(0,0)"></path>
<metadata><recraft-signature>{"signed_by": "recraft", "signature_b64": "LPBJcPDeoPB69NxBZtu5l5aJK3OWNzb8KUwUr6EurNfQsEl/mrgQwxOC5oS3xj6ky5ort6NcfV+MwYxclpXbCQ==", "signing_algo": "Ed25519", "generation_timestamp": 1782337326, "identifier": "376e46c6-3bfe-4de9-8c96-2263db0928a4"}</recraft-signature></metadata></svg>