<svg version="1.1" xmlns="http://www.w3.org/2000/svg" style="display: block;" viewBox="0 0 2048 2048" width="512" height="512" preserveAspectRatio="none">
<defs>
	<linearGradient id="Gradient1" gradientUnits="userSpaceOnUse" x1="1093.96" y1="1847.31" x2="1063.35" y2="1517.75">
		<stop class="stop0" offset="0" stop-opacity="1" stop-color="rgb(165,161,168)"/>
		<stop class="stop1" offset="1" stop-opacity="1" stop-color="rgb(174,181,182)"/>
	</linearGradient>
	<linearGradient id="Gradient2" gradientUnits="userSpaceOnUse" x1="1360.83" y1="948.101" x2="725.435" y2="921.621">
		<stop class="stop0" offset="0" stop-opacity="1" stop-color="rgb(235,158,96)"/>
		<stop class="stop1" offset="1" stop-opacity="1" stop-color="rgb(255,191,148)"/>
	</linearGradient>
</defs>
<path transform="translate(0,0)" fill="url(#Gradient2)" d="M 1025.31 529.323 C 1035.83 557.339 1048.11 584.19 1059.37 611.93 L 1120.7 765.094 L 1348.98 1330.94 C 1357.08 1351.64 1365.4 1372.4 1373.9 1392.93 C 1381.63 1411.59 1391.59 1430.81 1394.59 1450.98 C 1395.94 1460.04 1395.39 1469.21 1391.59 1477.63 C 1378.35 1507 1337.82 1522.51 1309.43 1532.72 C 1158.29 1587.09 855.692 1588.16 709.801 1519.13 C 688.946 1509.27 664.141 1494.65 656.303 1471.46 C 652.338 1459.73 653.587 1447.02 657.997 1435.6 C 670.585 1400.14 693.923 1343.29 710.264 1308.76 C 712.843 1299.43 719.734 1283.87 723.631 1274.39 L 747.405 1216.52 L 818.472 1039.75 L 964.573 675.641 L 999.367 587.734 C 1004.91 573.694 1016.51 542.579 1024.11 531.132 L 1024.85 529.996 C 1025 529.771 1025.16 529.547 1025.31 529.323 z"/>
<path transform="translate(0,0)" fill="rgb(248,180,131)" d="M 1184.02 1258.35 C 1198.21 1259.83 1215.19 1263.99 1229.36 1267.19 L 1230.24 1267.54 C 1237.64 1270.43 1245.35 1272.3 1252.76 1275.12 C 1281.46 1286.02 1307 1300.7 1329.4 1321.8 C 1333.6 1325.75 1343.33 1334.71 1348.98 1330.94 C 1357.08 1351.64 1365.4 1372.4 1373.9 1392.93 C 1381.63 1411.59 1391.59 1430.81 1394.59 1450.98 C 1395.94 1460.04 1395.39 1469.21 1391.59 1477.63 C 1378.35 1507 1337.82 1522.51 1309.43 1532.72 C 1158.29 1587.09 855.692 1588.16 709.801 1519.13 C 688.946 1509.27 664.141 1494.65 656.303 1471.46 C 652.338 1459.73 653.587 1447.02 657.997 1435.6 C 665.099 1438.31 666.221 1441.58 670.366 1448 C 676.526 1439.11 679.158 1432.02 687.255 1423.63 C 713.88 1396.02 771.404 1380.14 809.301 1374.11 C 933.98 1354.27 1082.82 1356.71 1208.2 1370.07 C 1210.71 1387.21 1214.5 1404.96 1218.55 1421.81 C 1226.27 1453.88 1232.43 1486.29 1239.6 1518.44 C 1265.5 1514.88 1315.82 1496.79 1338.25 1484.08 C 1361.43 1470.94 1378.43 1457.45 1386.08 1430.91 C 1383.99 1428.31 1376.2 1425.46 1372.53 1422.88 C 1329.08 1392.47 1261.05 1376.96 1208.53 1369.99 C 1207.44 1363.56 1206.03 1357.13 1204.36 1350.82 C 1196.22 1320.01 1189.54 1289.74 1184.02 1258.35 z"/>
<path transform="translate(0,0)" fill="rgb(221,128,64)" d="M 1184.02 1258.35 C 1198.21 1259.83 1215.19 1263.99 1229.36 1267.19 L 1230.24 1267.54 C 1237.64 1270.43 1245.35 1272.3 1252.76 1275.12 C 1281.46 1286.02 1307 1300.7 1329.4 1321.8 C 1333.6 1325.75 1343.33 1334.71 1348.98 1330.94 C 1357.08 1351.64 1365.4 1372.4 1373.9 1392.93 C 1381.63 1411.59 1391.59 1430.81 1394.59 1450.98 C 1395.94 1460.04 1395.39 1469.21 1391.59 1477.63 C 1378.35 1507 1337.82 1522.51 1309.43 1532.72 C 1158.29 1587.09 855.692 1588.16 709.801 1519.13 C 688.946 1509.27 664.141 1494.65 656.303 1471.46 C 652.338 1459.73 653.587 1447.02 657.997 1435.6 C 665.099 1438.31 666.221 1441.58 670.366 1448 C 695.537 1487.59 765.29 1506.39 809.423 1516.35 C 948.35 1547.72 1099.63 1542.18 1239.6 1518.44 C 1265.5 1514.88 1315.82 1496.79 1338.25 1484.08 C 1361.43 1470.94 1378.43 1457.45 1386.08 1430.91 C 1383.99 1428.31 1376.2 1425.46 1372.53 1422.88 C 1329.08 1392.47 1261.05 1376.96 1208.53 1369.99 C 1207.44 1363.56 1206.03 1357.13 1204.36 1350.82 C 1196.22 1320.01 1189.54 1289.74 1184.02 1258.35 z"/>
<path transform="translate(0,0)" fill="rgb(236,158,97)" d="M 710.264 1308.76 C 709.625 1313.11 708.894 1315.47 709.903 1319.63 C 714.751 1319.58 740.416 1297.97 746.543 1294.61 C 868.846 1227.52 1051.32 1239.92 1181.44 1256.8 C 1181.92 1256.51 1182.41 1256.22 1182.9 1255.94 C 1182.49 1251.3 1179.05 1237.74 1178.11 1233.87 C 1170.81 1203.85 1164.94 1173.64 1158.3 1143.5 L 1120.01 971.337 L 1036.85 603.228 C 1036.06 599.635 1032.33 580.726 1033.29 578.415 C 1034.68 582.711 1034.37 586.62 1035.37 590.39 C 1038.25 601.158 1039.85 611.476 1042.48 622.325 C 1058.94 691.06 1074.59 759.986 1089.43 829.087 L 1154.35 1120.72 C 1158.7 1140.3 1177.62 1233.93 1185.58 1255.74 C 1186.52 1258.32 1221.79 1260.71 1229.36 1267.19 C 1215.19 1263.99 1198.21 1259.83 1184.02 1258.35 C 1189.54 1289.74 1196.22 1320.01 1204.36 1350.82 C 1206.03 1357.13 1207.44 1363.56 1208.53 1369.99 C 1261.05 1376.96 1329.08 1392.47 1372.53 1422.88 C 1376.2 1425.46 1383.99 1428.31 1386.08 1430.91 C 1378.43 1457.45 1361.43 1470.94 1338.25 1484.08 C 1315.82 1496.79 1265.5 1514.88 1239.6 1518.44 C 1232.43 1486.29 1226.27 1453.88 1218.55 1421.81 C 1214.5 1404.96 1210.71 1387.21 1208.2 1370.07 C 1082.82 1356.71 933.98 1354.27 809.301 1374.11 C 771.404 1380.14 713.88 1396.02 687.255 1423.63 C 679.158 1432.02 676.526 1439.11 670.366 1448 C 666.221 1441.58 665.099 1438.31 657.997 1435.6 C 670.585 1400.14 693.923 1343.29 710.264 1308.76 z"/>
<path transform="translate(0,0)" fill="rgb(235,235,235)" d="M 1457.58 1037.35 C 1534.12 1033.28 1599.48 1092 1603.6 1168.54 C 1607.72 1245.08 1549.04 1310.48 1472.5 1314.65 C 1395.89 1318.83 1330.42 1260.08 1326.3 1183.47 C 1322.17 1106.86 1380.96 1041.42 1457.58 1037.35 z"/>
<path transform="translate(0,0)" fill="rgb(155,165,170)" d="M 337.669 687.976 C 355.208 687.698 356.417 698.246 356.174 713.431 C 355.934 728.469 359.981 753.335 346.982 763.637 C 340.205 762.95 338.162 760.809 333.127 756.138 C 327.727 740.958 328.528 714.103 330.743 697.769 C 331.433 692.686 333.646 690.659 337.669 687.976 z"/>
<path transform="translate(0,0)" fill="rgb(155,165,170)" d="M 338.851 474.638 C 359.454 475.797 356.111 500.026 356.695 515.201 C 357.127 526.42 357.337 543.658 346.478 549.915 C 340.047 550.007 338.674 548.885 332.711 546.417 C 328.417 533.785 329.726 513.966 329.377 500.222 C 329.134 490.635 331.646 481.428 338.851 474.638 z"/>
<path transform="translate(0,0)" fill="rgb(155,165,170)" d="M 337.934 900.088 C 359.23 898.556 358.576 920.153 357.634 935.943 C 356.938 947.631 358.757 964.57 348.19 971.554 C 340.835 971.545 338.615 969.541 333.019 964.799 C 327.296 949.721 328.09 927.331 330.653 911.405 C 331.555 905.8 333.597 903.514 337.934 900.088 z"/>
<path transform="translate(0,0)" fill="rgb(155,165,170)" d="M 341.178 1324.87 C 345.096 1325.42 352.23 1326.26 353.458 1330.61 C 358.202 1347.42 358.916 1370.68 354.237 1387.66 C 352.516 1393.9 349.653 1396.72 344.588 1399.19 C 340.743 1398.17 336.676 1396.08 333.019 1394.39 C 329.331 1381.29 327.877 1352.07 330.754 1338.19 C 332.162 1331.39 335.471 1328.25 341.178 1324.87 z"/>
<path transform="translate(0,0)" fill="rgb(155,165,170)" d="M 338.863 1111.94 C 339.705 1111.95 340.548 1111.98 341.39 1112.02 C 357.812 1112.95 357.812 1130.36 356.807 1142.82 C 355.761 1155.79 359.067 1175.31 348.244 1184.29 C 328.112 1184.22 328.372 1158.58 329.015 1143.98 C 329.53 1132.28 327.786 1118.37 338.863 1111.94 z"/>
<path transform="translate(0,0)" fill="rgb(155,165,170)" d="M 340.487 1431.62 C 365.493 1442.31 359.95 1489.75 346.833 1507.28 C 341.781 1506.61 337.054 1503.83 332.787 1501.26 C 329.73 1489.73 329.649 1478.53 329.106 1466.7 C 328.426 1451.88 328.336 1441.57 340.487 1431.62 z"/>
<path transform="translate(0,0)" fill="rgb(155,165,170)" d="M 341.408 1003.82 C 345.169 1003.9 349.213 1003.91 351.3 1007.87 C 358.645 1021.81 360.905 1067.2 345.965 1076.51 C 341.685 1076.06 333.898 1075.41 332.145 1070.74 C 328.92 1062.17 329.139 1051.24 329.009 1042.08 C 328.816 1028.56 328.38 1011.63 341.408 1003.82 z"/>
<path transform="translate(0,0)" fill="rgb(155,165,170)" d="M 340.335 580.433 C 345.368 582.029 346.574 583.202 350.846 586.422 C 358.868 603.092 360.879 644.265 346.416 656.945 C 334.841 652.486 330.239 645.248 329.14 632.698 C 327.667 615.892 329.337 593.985 340.335 580.433 z"/>
<path transform="translate(0,0)" fill="rgb(155,165,170)" d="M 340.215 1216.72 C 357.555 1218.08 356.131 1237.53 356.658 1251.05 C 357.187 1264.61 357.889 1282.7 346.138 1291.83 C 320.345 1286.88 327.369 1232.18 340.215 1216.72 z"/>
<path transform="translate(0,0)" fill="rgb(155,165,170)" d="M 339.83 794.473 C 353.372 795.575 356.541 804.64 357.133 817.228 C 357.887 833.236 358.086 854.689 346.969 867.507 C 341.327 867.071 338.436 864.693 334.025 861.361 C 326.002 844.7 326.9 808.122 339.83 794.473 z"/>
<path transform="translate(0,0)" fill="rgb(155,165,170)" d="M 1175.51 409.051 C 1192.64 408.539 1212.75 407.493 1229.7 410.015 C 1239.11 411.416 1243.95 419.82 1239.75 428.408 C 1238.45 431.081 1235.01 431.968 1232.3 433.029 C 1216.85 433.575 1201.94 434.586 1186.49 432.865 C 1170.66 431.102 1158.92 421.973 1175.51 409.051 z"/>
<path transform="translate(0,0)" fill="rgb(155,165,170)" d="M 970.278 408.373 C 982.632 407.109 1032.44 404.862 1022.9 428.668 C 1021.45 432.293 1012.65 433.257 1009.25 433.298 C 993.677 432.84 969.935 435.849 955.399 430.083 C 953.82 429.457 951.176 426.046 951.272 424.107 C 951.922 411.086 959.325 409.395 970.278 408.373 z"/>
<path transform="translate(0,0)" fill="rgb(155,165,170)" d="M 1089.62 408.451 C 1101.12 407.829 1131.92 406.407 1133.93 422.398 C 1131.04 433.823 1113.24 433.308 1104.25 433.598 C 1091.68 433.919 1050.27 438.216 1062.91 413.907 C 1066 407.97 1083.35 408.638 1089.62 408.451 z"/>
<path transform="translate(0,0)" fill="rgb(155,165,170)" d="M 861.644 408.428 C 871.208 407.23 899.997 406.483 907.095 412.963 C 921.17 425.812 907.667 432.791 893.797 433.001 C 885.744 433.394 840.315 437.026 840.106 421.911 C 839.949 410.609 852.082 409 861.644 408.428 z"/>
<path transform="translate(0,0)" fill="rgb(155,165,170)" d="M 754.729 408.497 C 765.393 408.504 803.916 408.287 807.314 420.901 C 805.844 432.227 794.538 432.589 785.757 433.214 C 771.735 434.798 736.531 436.977 732.225 419.468 C 733.399 409 746.862 408.478 754.729 408.497 z"/>
<path transform="translate(0,0)" fill="rgb(155,165,170)" d="M 436.733 408.474 C 449.353 408.213 476.394 406.526 479.755 422.653 C 477.4 433.836 461.411 433.531 452.678 433.975 C 440.786 434.207 407.722 435.655 406.317 419.037 C 410.041 407.91 427.476 408.552 436.733 408.474 z"/>
<path transform="translate(0,0)" fill="rgb(155,165,170)" d="M 656.544 408.453 C 664.771 408.021 685.288 407.835 690.9 413.175 C 711.304 432.59 674.893 433.378 665.862 433.613 C 658.258 433.741 624.19 435.002 623.639 419.935 C 623.234 408.877 647.427 408.647 656.544 408.453 z"/>
<path transform="translate(0,0)" fill="rgb(155,165,170)" d="M 535.595 408.366 C 547.461 407.392 572.777 406.519 581.997 413.321 C 597.701 424.905 583.009 432.558 570.199 433.158 C 555.452 433.381 537.233 434.823 523.189 429.986 C 515.238 427.247 514.982 419.567 519.495 413.571 C 523.126 408.746 530.078 408.818 535.595 408.366 z"/>
<path transform="translate(0,0)" fill="rgb(155,165,170)" d="M 1401.24 408.434 C 1412.45 407.767 1471.04 402.826 1453.36 429.557 C 1451.18 432.851 1447.59 432.925 1443.98 433.364 C 1431.32 432.583 1391.13 438.974 1387.49 422.569 C 1385.37 413.019 1392.58 409.276 1401.24 408.434 z"/>
<path transform="translate(0,0)" fill="rgb(155,165,170)" d="M 1298.26 408.375 C 1311.18 407.54 1349.39 404.556 1351.65 423.109 C 1349.8 431.402 1336.79 432.147 1329.95 432.417 C 1319.62 433.117 1264.18 439.286 1282.76 414.095 C 1286.51 409.011 1292.47 408.894 1298.26 408.375 z"/>
<path transform="translate(0,0)" fill="rgb(155,165,170)" d="M 1507.51 408.404 C 1522.18 407.27 1545.01 406.099 1558.13 414.28 C 1564.36 418.165 1563.91 426.051 1559.1 430.854 C 1557.02 432.927 1553.06 432.769 1550.25 432.905 C 1539.78 433.104 1494.23 438.276 1493.04 423.208 C 1492.31 413.966 1498.45 409.546 1507.51 408.404 z"/>
<path transform="translate(0,0)" fill="rgb(155,165,170)" d="M 1623.94 409.405 C 1632.17 408.205 1653.89 407.011 1658.97 412.443 C 1678.16 432.975 1648.12 433.971 1636.97 433.206 C 1624.36 433.34 1601.91 434.217 1593.61 423.316 C 1592.15 412.827 1616.2 410.289 1623.94 409.405 z"/>
<path transform="translate(0,0)" fill="rgb(155,165,170)" d="M 1834.75 239.77 C 1835.28 245.765 1835.45 252.255 1835.96 258.449 L 1835.67 1315 L 1835.69 1616.02 L 1835.76 1706.52 C 1835.76 1716.47 1836.34 1743.5 1835.16 1752.46 C 1835.31 1758.55 1835.33 1764.64 1835.2 1770.73 C 1835.95 1782.65 1838.08 1805.12 1830.33 1814.57 C 1827.98 1817.47 1824.54 1819.29 1820.81 1819.59 C 1816.65 1819.95 1812.72 1818.8 1808.85 1817.47 C 1811.2 1812.78 1796.47 1793.98 1797.15 1787.27 C 1804.2 1777.68 1802.38 1745.37 1800.47 1734.24 L 1801.36 1732.28 C 1800.54 1724.32 1800.92 1708.52 1800.91 1700.1 L 1800.92 1641.45 L 1800.9 1452.37 L 1800.89 829.293 L 1800.89 443.339 L 1800.82 344.758 C 1800.78 335.932 1800.01 302.846 1801.29 295.539 C 1802.59 285.589 1815.37 267.636 1821.31 258.615 C 1826.56 250.825 1828.33 246.984 1834.75 239.77 z"/>
<path transform="translate(0,0)" fill="rgb(123,149,159)" d="M 1834.75 239.77 C 1835.28 245.765 1835.45 252.255 1835.96 258.449 L 1835.67 1315 L 1835.69 1616.02 L 1835.76 1706.52 C 1835.76 1716.47 1836.34 1743.5 1835.16 1752.46 C 1834.18 1745.48 1834.58 1726.17 1834.58 1718.22 L 1834.61 1652.02 L 1834.63 1426.39 L 1834.62 628.485 L 1834.63 380.125 L 1834.65 301.211 C 1834.65 289.488 1834.72 277.36 1834.65 265.615 C 1834.62 262.25 1833.75 261.752 1831.8 260.246 C 1827.35 259.926 1825.7 259.596 1821.31 258.615 C 1826.56 250.825 1828.33 246.984 1834.75 239.77 z"/>
<path transform="translate(0,0)" fill="rgb(36,87,109)" d="M 1801.36 1732.28 C 1803.74 1743.63 1827.12 1779.98 1834.66 1789.93 C 1834.81 1783.82 1834.81 1776.74 1835.2 1770.73 C 1835.95 1782.65 1838.08 1805.12 1830.33 1814.57 C 1827.98 1817.47 1824.54 1819.29 1820.81 1819.59 C 1816.65 1819.95 1812.72 1818.8 1808.85 1817.47 C 1811.2 1812.78 1796.47 1793.98 1797.15 1787.27 C 1804.2 1777.68 1802.38 1745.37 1800.47 1734.24 L 1801.36 1732.28 z"/>
<path transform="translate(0,0)" fill="rgb(155,165,170)" d="M 1793.21 1784.59 L 1797.15 1787.27 C 1796.47 1793.98 1811.2 1812.78 1808.85 1817.47 C 1790.68 1816.41 1765.45 1817.06 1746.91 1817.04 L 1636.17 1817.03 L 1294.57 1817.04 L 237.758 1817 L 237.351 1816.14 C 238.438 1811.6 251.872 1788.75 255.155 1784.04 L 1286.02 1783.98 L 1624.73 1783.98 L 1730.17 1783.97 C 1749.35 1783.95 1774.79 1783.21 1793.21 1784.59 z"/>
<path transform="translate(0,0)" fill="rgb(235,235,235)" d="M 241.03 229.545 C 249.118 225.036 262.692 225.114 272.007 225.033 L 1306.01 226.11 L 1627.04 226.101 L 1717.77 225.953 C 1741.18 225.927 1777.81 226.052 1801.18 229.461 C 1801.17 236.962 1789.96 251.413 1785.22 257.977 L 1783.32 258.819 C 1775.51 260.884 1728.28 258.727 1716.43 258.733 L 1495.12 259.035 L 514.323 258.976 L 330.131 258.472 C 315.814 258.419 301.497 258.582 287.185 258.963 C 279.525 259.165 264.581 261.011 258.219 257.489 C 252.815 248.21 246.712 238.704 241.03 229.545 z"/>
<path transform="translate(0,0)" fill="rgb(155,165,170)" d="M 213.052 245.772 C 221.27 253.412 244.453 288.597 245.617 299.695 C 247.095 429.369 247.506 559.052 246.851 688.732 L 246.837 1291.61 L 246.295 1596.98 C 246.562 1634.81 245.377 1692.34 248.213 1728.54 C 248.243 1730.56 248.038 1733.59 247.326 1735.39 C 244.352 1742.87 219.121 1787.19 213.183 1787.6 C 212.224 1765.53 212.93 1737.91 212.919 1715.51 L 212.894 1578.26 L 212.885 1165.01 L 212.869 561.708 C 212.855 458.064 211.161 349.089 213.052 245.772 z"/>
<path transform="translate(0,0)" fill="url(#Gradient1)" d="M 1689.8 1581.72 C 1702.29 1581.7 1707.41 1585.29 1717.41 1586.12 C 1727.12 1606.05 1741.35 1631.41 1751.97 1651.3 C 1763.63 1673.14 1785.7 1715.49 1800.47 1734.24 C 1802.38 1745.37 1804.2 1777.68 1797.15 1787.27 L 1793.21 1784.59 C 1775.47 1758.08 1754.37 1716.88 1738.28 1688.09 C 1727.04 1667.99 1706.79 1633.35 1697.7 1613.35 C 1684.11 1614.58 1644.22 1613.28 1628.63 1613.27 L 1473 1613.28 L 982.417 1613.33 L 547.61 1613.32 L 415.21 1613.32 C 402.411 1613.33 365.774 1614.35 355.267 1613.24 C 355.319 1605.29 355.079 1589.17 356.518 1582.06 C 372.576 1581 399.895 1581.91 416.507 1581.96 L 527.81 1582 L 893.882 1581.99 L 1427.56 1581.97 L 1608.42 1582.04 C 1633.53 1582.05 1665.47 1580.85 1689.8 1581.72 z"/>
<path transform="translate(0,0)" fill="rgb(235,235,235)" d="M 1717.88 432.474 C 1720.82 458.18 1719.63 506.228 1719.55 533.426 L 1719.12 700.643 L 1718.31 1261.87 L 1718.8 1491.97 C 1718.95 1514.61 1718.88 1537.25 1718.6 1559.9 C 1718.51 1565.45 1718.52 1581.52 1717.41 1586.12 C 1707.41 1585.29 1702.29 1581.7 1689.8 1581.72 C 1688.59 1574.81 1689.1 1558.6 1689.1 1550.55 C 1689.05 1535.3 1688.9 1520.05 1688.65 1504.8 C 1687.31 1417.65 1688.32 1328.15 1688.32 1240.85 L 1688.32 725.419 L 1688.29 567.714 C 1688.24 547.251 1684.96 447.414 1694.04 433.731 C 1697.81 435.33 1702.09 436.607 1706.01 437.886 C 1710.57 436.144 1713.55 434.651 1717.88 432.474 z"/>
<path transform="translate(0,0)" fill="rgb(36,87,109)" d="M 213.052 245.772 C 211.306 222.983 222.288 212.84 241.03 229.545 C 246.712 238.704 252.815 248.21 258.219 257.489 C 270.867 280.21 282.599 298.602 296.821 319.968 C 312.112 342.94 338.894 382.346 348.01 408.371 C 356.146 409.286 369.227 409.844 367.229 422.149 C 365.69 431.632 346.78 447.444 337.296 444.946 C 329.236 438.334 324.822 422.873 320.188 415.634 C 309.701 399.253 254.814 303.391 246.491 296.911 C 246.047 298.059 245.738 298.514 245.617 299.695 C 244.453 288.597 221.27 253.412 213.052 245.772 z"/>
<path transform="translate(0,0)" fill="rgb(155,165,170)" d="M 1801.18 229.461 C 1807.19 223.098 1810.67 222.634 1818.92 220.248 C 1822.82 221.802 1827.14 223.395 1830.86 225.264 C 1836.95 236.074 1837.31 246.14 1835.96 258.449 C 1835.45 252.255 1835.28 245.765 1834.75 239.77 C 1828.33 246.984 1826.56 250.825 1821.31 258.615 C 1815.37 267.636 1802.59 285.589 1801.29 295.539 L 1800.51 292.707 C 1789.9 306.887 1773.11 334.759 1763.64 350.706 C 1750.16 373.375 1733.41 399.725 1721.02 422.612 C 1720.08 426.926 1719.94 428.671 1717.88 432.474 C 1713.55 434.651 1710.57 436.144 1706.01 437.886 C 1702.09 436.607 1697.81 435.33 1694.04 433.731 C 1692.15 430.654 1690.44 426.552 1688.9 423.203 C 1690.85 417.974 1691.44 416.211 1694.44 411.574 C 1716.14 365.806 1754.99 303.056 1783.79 260.928 L 1783.32 258.819 L 1785.22 257.977 C 1789.96 251.413 1801.17 236.962 1801.18 229.461 z"/>
<path transform="translate(0,0)" fill="rgb(36,87,109)" d="M 1801.18 229.461 C 1807.19 223.098 1810.67 222.634 1818.92 220.248 C 1822.82 221.802 1827.14 223.395 1830.86 225.264 C 1836.95 236.074 1837.31 246.14 1835.96 258.449 C 1835.45 252.255 1835.28 245.765 1834.75 239.77 C 1828.33 246.984 1826.56 250.825 1821.31 258.615 C 1815.37 267.636 1802.59 285.589 1801.29 295.539 L 1800.51 292.707 C 1803.07 284.047 1803.52 239.912 1801.18 229.461 z"/>
<path transform="translate(0,0)" fill="rgb(76,120,143)" d="M 1694.44 411.574 C 1710.75 408.161 1712.6 408.08 1721.02 422.612 C 1720.08 426.926 1719.94 428.671 1717.88 432.474 C 1713.55 434.651 1710.57 436.144 1706.01 437.886 C 1702.09 436.607 1697.81 435.33 1694.04 433.731 C 1692.15 430.654 1690.44 426.552 1688.9 423.203 C 1690.85 417.974 1691.44 416.211 1694.44 411.574 z"/>
<path transform="translate(0,0)" fill="rgb(36,87,109)" d="M 355.607 1581.77 L 356.518 1582.06 C 355.079 1589.17 355.319 1605.29 355.267 1613.24 C 320.748 1664.01 292.302 1715.52 262.698 1769.27 C 260.58 1773.12 255.975 1780.17 255.155 1784.04 C 251.872 1788.75 238.438 1811.6 237.351 1816.14 L 237.758 1817 C 231.522 1817.43 220.077 1822.6 214.318 1813.99 C 210.744 1808.64 212.337 1794.04 213.183 1787.6 C 219.121 1787.19 244.352 1742.87 247.326 1735.39 C 248.038 1733.59 248.243 1730.56 248.213 1728.54 L 249.352 1733.48 C 251.993 1730.79 260.285 1715.89 262.927 1711.8 C 288.038 1672.89 308.764 1632.82 330.679 1592.28 C 341.778 1585.96 342.454 1584.28 355.607 1581.77 z"/>
<path transform="translate(0,0)" fill="rgb(155,165,170)" d="M 330.679 1592.28 C 327.899 1579 326.705 1557.51 334.593 1545.85 C 338.274 1540.15 346.903 1537.81 351.53 1543.88 C 358.418 1552.91 356.274 1570.92 355.607 1581.77 C 342.454 1584.28 341.778 1585.96 330.679 1592.28 z"/>
</svg>