<svg xmlns="http://www.w3.org/2000/svg" height="512" preserveAspectRatio="none" style="display: block;" version="1.1" viewBox="0 0 2048 2048" width="512">
<path d="M 1367.59 484.423 C 1391.17 480.846 1402.86 525.111 1415.15 546.302 C 1452.16 610.085 1487.56 674.942 1523.37 739.419 L 1748.35 1152.76 C 1794.4 1237.27 1842 1320.95 1887.1 1406.01 C 1891.74 1415.92 1897.33 1436.64 1877.39 1431.18 C 1812.48 1413.39 1749.49 1388.4 1685.27 1368.41 L 1115.88 1179.59 C 1085.04 1169.39 1102.45 1152.71 1113.92 1122.5 L 1152.03 1024.88 C 1209.39 874.673 1267.07 723.659 1328.24 575.006 C 1334.68 559.358 1360.76 493.314 1367.59 484.423 z M 1276.02 1088.06 L 1375.91 1122.17 C 1393.98 1128.44 1412.63 1133.22 1429.14 1142.52 L 1437.23 1142.52 C 1475.35 1153.77 1518.74 1169.34 1555.95 1182.92 C 1580.21 1191.78 1605.22 1198.23 1628.37 1209.42 C 1620.91 1189.09 1596.45 1145.35 1585.14 1124.93 L 1478.11 927.376 C 1454.11 883.681 1422.31 818.886 1394.66 779.019 C 1387.64 795.103 1381.34 813.434 1375.1 830.018 L 1293.96 1041.82 C 1288.24 1056.89 1281.11 1073.08 1276.02 1088.06 z" fill="rgb(32,66,104)" transform="translate(0,0)"></path>
<path d="M 1453.66 637.038 C 1463.85 654.817 1476.91 676.664 1485.73 694.862 C 1486.71 696.478 1488.76 699.614 1489.53 701.16 C 1498.29 716.765 1510.38 737.169 1517.85 752.939 C 1519.69 755.563 1521.51 758.066 1523.13 760.83 C 1531.76 776.53 1544.64 798.552 1551.4 814.526 C 1554.15 817.097 1556.86 819.548 1559.41 822.322 C 1564.25 838.657 1573.44 853.745 1581.6 868.805 C 1583.43 871.716 1585.49 874.754 1586.88 877.864 C 1594.86 892.112 1604.49 908.56 1611.79 923.059 C 1613.78 925.887 1616.75 929.858 1618.34 932.801 C 1624.88 949.583 1633.47 963.556 1641.65 979.48 C 1643.14 982.005 1644.68 984.557 1646.12 987.109 L 1672.65 1036.82 C 1674.34 1039.62 1676.53 1042.99 1677.77 1045.92 C 1686.22 1061 1695.69 1078.42 1703.43 1093.96 C 1705.08 1096.78 1706.92 1099.78 1708.44 1102.64 C 1716.99 1117.73 1727.06 1135.17 1734.61 1150.76 L 1738.81 1157.35 C 1747.77 1174.19 1758.04 1192.47 1766.43 1209.42 L 1770.77 1217.48 L 1797.84 1266.58 L 1802.75 1274.37 C 1812.35 1291.91 1825.51 1314.18 1833.68 1331.89 L 1837.8 1338.54 C 1850.95 1361.08 1871.5 1393.75 1880.71 1417.89 L 1834.23 1403.84 C 1823.03 1400.47 1808.1 1396.47 1797.84 1391.41 C 1795.54 1391.66 1791.36 1391.45 1788.88 1391.41 C 1773.79 1383.52 1755.34 1378.89 1738.81 1373.89 L 1730.98 1371.01 C 1715.14 1365.14 1697.81 1358.64 1681.61 1354.09 L 1677.77 1354.09 C 1663.17 1347.89 1639.23 1341.01 1623.58 1336.07 L 1618.34 1336.07 C 1604.91 1329.11 1580.28 1320.9 1565.47 1316.46 L 1559.41 1316.46 C 1546.47 1309.22 1524.91 1302.94 1510.03 1297.49 L 1503.66 1297.49 C 1489.87 1290.04 1465.74 1283.4 1450.44 1278.86 C 1448.33 1278.93 1446.34 1278.88 1444.23 1278.86 C 1427.61 1270.27 1410.74 1266.69 1394.66 1258.14 C 1393.88 1258.25 1389.14 1258.14 1388.05 1258.14 C 1391.29 1242.94 1422.22 1151.85 1429.14 1142.52 L 1437.23 1142.52 C 1475.35 1153.77 1518.74 1169.34 1555.95 1182.92 C 1580.21 1191.78 1605.22 1198.23 1628.37 1209.42 C 1620.91 1189.09 1596.45 1145.35 1585.14 1124.93 L 1478.11 927.376 C 1454.11 883.681 1422.31 818.886 1394.66 779.019 C 1398.73 758.764 1447.51 644.262 1453.66 637.038 z" fill="rgb(231,136,53)" transform="translate(0,0)"></path>
<path d="M 1837.8 1338.54 C 1850.95 1361.08 1871.5 1393.75 1880.71 1417.89 L 1834.23 1403.84 C 1823.03 1400.47 1808.1 1396.47 1797.84 1391.41 C 1809.32 1355.02 1802.54 1358.25 1837.8 1338.54 z" fill="rgb(231,136,53)" transform="translate(0,0)"></path>
<path d="M 1429.14 1142.52 L 1437.23 1142.52 C 1434.41 1156.29 1401.58 1249.3 1394.66 1258.14 C 1393.88 1258.25 1389.14 1258.14 1388.05 1258.14 C 1391.29 1242.94 1422.22 1151.85 1429.14 1142.52 z" fill="rgb(177,87,20)" transform="translate(0,0)"></path>
<path d="M 1641.65 979.48 C 1643.14 982.005 1644.68 984.557 1646.12 987.109 C 1640.39 991.473 1542.24 1066.65 1546.44 1041.51 C 1574.6 1020.5 1611.65 1000.15 1641.65 979.48 z" fill="rgb(177,87,20)" transform="translate(0,0)"></path>
<path d="M 1581.6 868.805 C 1583.43 871.716 1585.49 874.754 1586.88 877.864 C 1560.94 893.78 1544.17 898.493 1523.13 923.059 C 1539.6 887.043 1546.26 887.879 1581.6 868.805 z" fill="rgb(177,87,20)" transform="translate(0,0)"></path>
<path d="M 1833.68 1331.89 L 1837.8 1338.54 C 1802.54 1358.25 1809.32 1355.02 1797.84 1391.41 C 1795.54 1391.66 1791.36 1391.45 1788.88 1391.41 C 1792.88 1375.49 1797.47 1363.86 1802.75 1348.41 C 1812.99 1340.22 1821.52 1336.27 1833.68 1331.89 z" fill="rgb(177,87,20)" transform="translate(0,0)"></path>
<path d="M 1551.4 814.526 C 1554.15 817.097 1556.86 819.548 1559.41 822.322 C 1543.46 827.538 1507.28 850.657 1496.73 850.484 L 1495.74 849.024 C 1499.67 836.636 1538.56 818.63 1551.4 814.526 z" fill="rgb(177,87,20)" transform="translate(0,0)"></path>
<path d="M 1485.73 694.862 C 1486.71 696.478 1488.76 699.614 1489.53 701.16 C 1478.51 707.389 1447.16 727.428 1438.1 731.364 L 1436.27 730.533 C 1427.58 717.934 1475.29 699.47 1485.73 694.862 z" fill="rgb(177,87,20)" transform="translate(0,0)"></path>
<path d="M 1517.85 752.939 C 1519.69 755.563 1521.51 758.066 1523.13 760.83 C 1511.25 765.209 1485.52 786.127 1472.98 784.535 L 1471.97 783.067 C 1474.64 773.039 1507.65 758.055 1517.85 752.939 z" fill="rgb(177,87,20)" transform="translate(0,0)"></path>
<path d="M 1672.65 1036.82 C 1674.34 1039.62 1676.53 1042.99 1677.77 1045.92 C 1666.77 1051.73 1638.35 1078.49 1633.85 1061.95 C 1637.72 1055.55 1664.77 1041.23 1672.65 1036.82 z" fill="rgb(177,87,20)" transform="translate(0,0)"></path>
<path d="M 1797.84 1266.58 L 1802.75 1274.37 C 1790.32 1283.31 1774.41 1292.2 1761.07 1300.59 C 1759.61 1297.2 1758.19 1293.73 1756.76 1290.32 C 1770.53 1282.61 1784.2 1274.53 1797.84 1266.58 z" fill="rgb(177,87,20)" transform="translate(0,0)"></path>
<path d="M 1766.43 1209.42 L 1770.77 1217.48 C 1755.78 1224.11 1744.48 1232.45 1730.98 1241.66 L 1724.2 1233.5 C 1734.36 1225.86 1754.88 1214.44 1766.43 1209.42 z" fill="rgb(177,87,20)" transform="translate(0,0)"></path>
<path d="M 1734.61 1150.76 L 1738.81 1157.35 C 1722.15 1166.71 1706.31 1192.48 1694.05 1175.89 C 1707.02 1166.33 1720.69 1158.85 1734.61 1150.76 z" fill="rgb(177,87,20)" transform="translate(0,0)"></path>
<path d="M 1611.79 923.059 C 1613.78 925.887 1616.75 929.858 1618.34 932.801 L 1616.73 933.46 C 1610.71 935.858 1575.72 961.045 1575.29 945.949 C 1580.96 938.686 1602.73 929.331 1611.79 923.059 z" fill="rgb(177,87,20)" transform="translate(0,0)"></path>
<path d="M 1730.98 1371.01 C 1738.94 1350.17 1737.29 1322.36 1756.76 1331.89 C 1750.4 1344.4 1743.9 1365.28 1738.81 1373.89 L 1730.98 1371.01 z" fill="rgb(177,87,20)" transform="translate(0,0)"></path>
<path d="M 1703.43 1093.96 C 1705.08 1096.78 1706.92 1099.78 1708.44 1102.64 C 1687.9 1110.29 1674.84 1134.16 1663.87 1117.87 C 1676.62 1109.59 1690.4 1102.48 1703.43 1093.96 z" fill="rgb(177,87,20)" transform="translate(0,0)"></path>
<path d="M 1517.85 1252.5 L 1526.58 1258.14 C 1520.83 1270.79 1516.14 1286.19 1510.03 1297.49 L 1503.66 1297.49 C 1506.31 1284 1512.24 1265.02 1517.85 1252.5 z" fill="rgb(177,87,20)" transform="translate(0,0)"></path>
<path d="M 1573.64 1271.24 C 1587.71 1279.8 1573.17 1302.74 1565.47 1316.46 L 1559.41 1316.46 C 1561.51 1300.62 1567.41 1285.85 1573.64 1271.24 z" fill="rgb(177,87,20)" transform="translate(0,0)"></path>
<path d="M 1618.34 1336.07 C 1633.78 1260.05 1649.57 1295.91 1623.58 1336.07 L 1618.34 1336.07 z" fill="rgb(177,87,20)" transform="translate(0,0)"></path>
<path d="M 1677.77 1354.09 C 1682.67 1293.4 1715.97 1306.18 1681.61 1354.09 L 1677.77 1354.09 z" fill="rgb(177,87,20)" transform="translate(0,0)"></path>
<path d="M 1444.23 1278.86 L 1444.57 1277.96 C 1448.79 1266.7 1454.35 1241.67 1461.7 1234.4 L 1463.8 1233.81 C 1471.93 1239.18 1454.68 1271.02 1450.44 1278.86 C 1448.33 1278.93 1446.34 1278.88 1444.23 1278.86 z" fill="rgb(177,87,20)" transform="translate(0,0)"></path>
<path d="M 1421.32 575.759 C 1430.74 591.863 1445.46 620.225 1453.66 637.038 C 1447.51 644.262 1398.73 758.764 1394.66 779.019 C 1387.64 795.103 1381.34 813.434 1375.1 830.018 L 1293.96 1041.82 C 1288.24 1056.89 1281.11 1073.08 1276.02 1088.06 C 1256.68 1124.98 1249.8 1169.41 1227.63 1204.7 C 1212.99 1199.41 1197.24 1193.43 1182.37 1189.21 C 1197.35 1151.49 1209.62 1114.1 1223.87 1076.48 L 1326.81 808.713 C 1337.77 780.317 1350 751.939 1361.55 723.742 L 1421.32 575.759 z" fill="rgb(177,87,20)" transform="translate(0,0)"></path>
<path d="M 1227.63 1204.7 C 1249.8 1169.41 1256.68 1124.98 1276.02 1088.06 L 1375.91 1122.17 C 1393.98 1128.44 1412.63 1133.22 1429.14 1142.52 C 1422.22 1151.85 1391.29 1242.94 1388.05 1258.14 C 1374.89 1252.92 1353.54 1246.62 1339.22 1241.66 L 1333.93 1241.66 C 1317.98 1234.11 1298.47 1228.56 1281.41 1223.54 C 1279.24 1223.4 1278.19 1223.46 1276.02 1223.54 C 1260.53 1215.82 1243.97 1210.5 1227.63 1204.7 z" fill="rgb(231,136,53)" transform="translate(0,0)"></path>
<path d="M 1289.74 1175.89 C 1291.83 1177.42 1295.72 1180.11 1297.47 1181.75 C 1292.64 1195.61 1287.8 1210.37 1281.41 1223.54 C 1279.24 1223.4 1278.19 1223.46 1276.02 1223.54 C 1278.53 1207.96 1283.82 1190.61 1289.74 1175.89 z" fill="rgb(177,87,20)" transform="translate(0,0)"></path>
<path d="M 1346.6 1195.04 C 1360.32 1203.81 1345.26 1225.42 1339.22 1241.66 L 1333.93 1241.66 C 1333.79 1224.58 1340.46 1210.92 1346.6 1195.04 z" fill="rgb(177,87,20)" transform="translate(0,0)"></path>
<path d="M 629.535 459.468 C 660.826 448.172 694.996 447.664 726.609 458.027 C 773.559 473.417 809.837 511.065 823.476 558.554 C 837.116 606.042 826.345 657.203 794.717 695.162 C 797.37 701.73 806.366 726.658 808.629 731.023 C 816.767 744.472 832.145 796.931 838.989 815.199 L 1099.24 1528.98 C 1104.35 1542.65 1112.91 1563.08 1116.8 1576.28 C 1108.86 1579.52 1091.76 1586.59 1083.74 1588.36 C 1076.29 1590.64 1050.27 1601.14 1043.51 1605.05 C 1039.87 1607.39 1021.08 1615.15 1016.07 1617.31 C 995.526 1569.23 975.771 1521.36 955.913 1473.06 C 945.114 1446.8 926.096 1393.92 912.681 1371.01 C 908.281 1362.35 899.772 1331.49 893.271 1327.99 L 893.913 1326.44 C 882.446 1293.65 862.553 1249.18 848.626 1217.03 L 677.067 814.526 C 664.82 855.586 639.562 909.797 622.838 949.297 L 487.387 1270.89 C 479.558 1289.26 470.468 1309.26 464.146 1327.99 C 478.8 1328.05 495.758 1327.26 510.153 1327.99 C 495.299 1328.53 479.12 1328.01 464.146 1327.99 C 460.4 1335.45 448.939 1362.77 447.028 1371.01 C 439.503 1375.73 346.657 1600.31 340.661 1617.31 C 335.135 1614.97 313.361 1605.43 308.689 1605.05 C 300.6 1599.82 270.045 1586.02 260.482 1584 C 251.558 1580.77 242.214 1576.74 234.02 1571.95 C 244.473 1547.37 252.979 1518.35 262.402 1492.96 L 537.966 768.344 C 543.74 753.03 548.716 735.578 555.67 720.863 C 559.085 712.295 562.231 703.591 565.422 694.935 C 534.402 657.556 523.535 607.41 536.296 560.542 C 549.057 513.675 583.847 475.961 629.535 459.468 z M 679.484 619.406 C 686.595 618.789 691.862 612.529 691.253 605.417 C 690.644 598.306 684.39 593.032 677.277 593.633 C 670.154 594.235 664.87 600.501 665.48 607.624 C 666.09 614.747 672.362 620.024 679.484 619.406 z" fill="rgb(87,113,153)" transform="translate(0,0)"></path>
<path d="M 629.535 459.468 C 660.826 448.172 694.996 447.664 726.609 458.027 C 773.559 473.417 809.837 511.065 823.476 558.554 C 837.116 606.042 826.345 657.203 794.717 695.162 C 766.355 729.202 724.323 748.865 680.016 748.821 C 635.709 748.777 593.716 729.031 565.422 694.935 C 534.402 657.556 523.535 607.41 536.296 560.542 C 549.057 513.675 583.847 475.961 629.535 459.468 z M 679.484 619.406 C 686.595 618.789 691.862 612.529 691.253 605.417 C 690.644 598.306 684.39 593.032 677.277 593.633 C 670.154 594.235 664.87 600.501 665.48 607.624 C 666.09 614.747 672.362 620.024 679.484 619.406 z" fill="rgb(231,136,53)" transform="translate(0,0)"></path>
<path d="M 675.05 501.484 C 729.792 498.559 776.532 540.584 779.422 595.328 C 782.313 650.072 740.258 696.785 685.513 699.641 C 630.816 702.495 584.153 660.486 581.265 605.791 C 578.377 551.096 620.357 504.406 675.05 501.484 z M 679.484 619.406 C 686.595 618.789 691.862 612.529 691.253 605.417 C 690.644 598.306 684.39 593.032 677.277 593.633 C 670.154 594.235 664.87 600.501 665.48 607.624 C 666.09 614.747 672.362 620.024 679.484 619.406 z" fill="rgb(57,87,124)" transform="translate(0,0)"></path>
<path d="M 565.422 694.935 C 593.716 729.031 635.709 748.777 680.016 748.821 C 724.323 748.865 766.355 729.202 794.717 695.162 C 797.37 701.73 806.366 726.658 808.629 731.023 C 806.03 729.302 803.63 726.349 803.583 723.107 C 727.866 806.808 621.996 818.325 559.634 716.607 C 558.746 719.323 559.053 718.545 557.478 720.978 L 555.67 720.863 C 559.085 712.295 562.231 703.591 565.422 694.935 z" fill="rgb(57,87,124)" transform="translate(0,0)"></path>
<path d="M 638.61 272.566 C 660.617 271.447 692.618 272.529 715.369 272.566 C 721.697 276.547 723.163 278.053 727.616 284.109 C 726.35 293.539 726.957 328.621 726.923 339.683 L 726.609 458.027 C 694.996 447.664 660.826 448.172 629.535 459.468 C 629.364 425.878 619.905 290.798 638.61 272.566 z" fill="rgb(57,87,124)" transform="translate(0,0)"></path>
<path d="M 621.902 1327.99 C 631.702 1285.56 710.935 1282.4 722.693 1327.99 C 726.063 1327.92 731.069 1327.66 734.303 1327.99 C 730.374 1328.1 726.614 1328.31 722.693 1327.99 C 722.738 1340.89 722.088 1358.65 722.693 1371.01 C 707.264 1409.25 639.481 1408.47 621.902 1371.01 C 622.304 1357.32 621.924 1341.83 621.902 1327.99 z" fill="rgb(57,87,124)" transform="translate(0,0)"></path>
<path d="M 666.074 1328.5 C 672.772 1326.68 679.932 1328.6 684.816 1333.54 C 689.7 1338.47 691.553 1345.65 689.668 1352.33 C 687.782 1359.01 682.448 1364.16 675.706 1365.81 C 665.463 1368.31 655.109 1362.12 652.473 1351.91 C 649.837 1341.7 655.899 1331.27 666.074 1328.5 z" fill="rgb(32,66,104)" transform="translate(0,0)"></path>
<path d="M 734.303 1327.99 L 842.012 1328.03 C 852 1328.05 885.251 1328.91 893.271 1327.99 C 899.772 1331.49 908.281 1362.35 912.681 1371.01 C 849.791 1371.02 785.489 1370.28 722.693 1371.01 C 722.088 1358.65 722.738 1340.89 722.693 1327.99 C 726.614 1328.31 730.374 1328.1 734.303 1327.99 z" fill="rgb(32,66,104)" transform="translate(0,0)"></path>
<path d="M 510.153 1327.99 C 547.2 1327.52 584.8 1328.05 621.902 1327.99 C 621.924 1341.83 622.304 1357.32 621.902 1371.01 L 447.028 1371.01 C 448.939 1362.77 460.4 1335.45 464.146 1327.99 C 479.12 1328.01 495.299 1328.53 510.153 1327.99 z" fill="rgb(32,66,104)" transform="translate(0,0)"></path>
<path d="M 260.482 1584 C 270.045 1586.02 300.6 1599.82 308.689 1605.05 C 276.099 1662.12 242.618 1720.32 205.233 1774.45 C 219.241 1713.02 243.804 1645.58 260.482 1584 z" fill="rgb(32,66,104)" transform="translate(0,0)"></path>
<path d="M 1043.51 1605.05 C 1050.27 1601.14 1076.29 1590.64 1083.74 1588.36 C 1100.36 1649.71 1133.9 1719.4 1142.19 1780.85 C 1120.54 1755.16 1105.68 1722.52 1090.04 1692.57 L 1043.51 1605.05 z" fill="rgb(32,66,104)" transform="translate(0,0)"></path>
<metadata><recraft-signature>{"signed_by": "recraft", "signature_b64": "q+Zj+ZXpAhBER63qUdFb15LXg7PykOe5RbvbxndHOO9OVwrLr3AytC5HetVwY44wYK372AFrgNPGynfsZX9oAw==", "signing_algo": "Ed25519", "generation_timestamp": 1782395429, "identifier": "1a60a482-dae9-4364-949b-52eee1598ccb"}</recraft-signature></metadata></svg>