<svg xmlns="http://www.w3.org/2000/svg" height="512" preserveAspectRatio="none" style="display: block;" version="1.1" viewBox="0 0 2048 2048" width="512">
<defs>
	<linearGradient gradientUnits="userSpaceOnUse" id="Gradient1" x1="1093.24" x2="1063.54" y1="1846.75" y2="1518.91">
		<stop class="stop0" offset="0" stop-color="rgb(162,159,169)" stop-opacity="1"></stop>
		<stop class="stop1" offset="1" stop-color="rgb(170,180,180)" stop-opacity="1"></stop>
	</linearGradient>
</defs>
<path d="M 704.307 1326.07 C 716.734 1290.46 733.979 1252.05 748.227 1216.57 L 972.196 658.648 C 989.489 616.202 1006.11 569.799 1024.68 528.532 C 1027.92 536.507 1029.41 541.051 1031.69 549.381 C 1056.23 605.752 1077.37 660.634 1099.94 717.445 L 1335.8 1301.34 C 1339.44 1310.23 1345.14 1323.22 1347.63 1332.16 C 1361.29 1361.12 1373.21 1402.83 1388.12 1427.32 C 1388.02 1429.59 1387.94 1430.54 1388.12 1432.79 C 1409.53 1484.46 1368.23 1507.39 1324.96 1525.36 C 1178.3 1586.27 872.718 1585.91 725.417 1524.83 C 684.793 1507.98 639.502 1482.57 660.41 1432.79 C 673.06 1399.2 689.968 1359.19 704.307 1326.07 z" fill="rgb(248,180,131)" transform="translate(0,0)"></path>
<path d="M 704.307 1326.07 C 711.237 1324.02 729.619 1306.37 737.124 1300.98 C 836.932 1229.39 1065.61 1237.75 1183.65 1256.9 L 1183.65 1256.9 C 1232.71 1263.15 1291.01 1284.02 1327.06 1317.98 C 1332.78 1323.37 1339.66 1332.06 1347.63 1332.16 C 1361.29 1361.12 1373.21 1402.83 1388.12 1427.32 C 1388.02 1429.59 1387.94 1430.54 1388.12 1432.79 C 1409.53 1484.46 1368.23 1507.39 1324.96 1525.36 C 1178.3 1586.27 872.718 1585.91 725.417 1524.83 C 684.793 1507.98 639.502 1482.57 660.41 1432.79 C 673.06 1399.2 689.968 1359.19 704.307 1326.07 z" fill="rgb(248,180,131)" transform="translate(0,0)"></path>
<path d="M 704.307 1326.07 C 711.237 1324.02 729.619 1306.37 737.124 1300.98 C 836.932 1229.39 1065.61 1237.75 1183.65 1256.9 L 1183.65 1256.9 C 1187.38 1290.67 1200.44 1336.88 1208.8 1370.12 C 1121.18 1359.51 704.003 1332.42 671.254 1450 C 667.265 1444.11 665.361 1437.66 660.41 1432.79 C 673.06 1399.2 689.968 1359.19 704.307 1326.07 z" fill="rgb(236,158,96)" transform="translate(0,0)"></path>
<path d="M 1183.65 1256.9 C 1232.71 1263.15 1291.01 1284.02 1327.06 1317.98 C 1332.78 1323.37 1339.66 1332.06 1347.63 1332.16 C 1361.29 1361.12 1373.21 1402.83 1388.12 1427.32 C 1388.02 1429.59 1387.94 1430.54 1388.12 1432.79 C 1379.97 1435.01 1381.51 1447.46 1375.96 1454.29 C 1346.51 1490.5 1284.29 1508.74 1240.6 1518.43 C 1232.34 1470.52 1218.3 1419.06 1208.8 1370.12 L 1208.8 1370.12 C 1200.44 1336.88 1187.38 1290.67 1183.65 1256.9 z" fill="rgb(221,128,63)" transform="translate(0,0)"></path>
<path d="M 1208.8 1370.12 C 1255.34 1375.24 1316.49 1391.29 1356.92 1412.22 C 1366.15 1417 1379.36 1431.38 1388.12 1427.32 C 1388.02 1429.59 1387.94 1430.54 1388.12 1432.79 C 1379.97 1435.01 1381.51 1447.46 1375.96 1454.29 C 1346.51 1490.5 1284.29 1508.74 1240.6 1518.43 C 1232.34 1470.52 1218.3 1419.06 1208.8 1370.12 z" fill="rgb(236,158,96)" transform="translate(0,0)"></path>
<path d="M 660.41 1432.79 C 665.361 1437.66 667.265 1444.11 671.254 1450 C 698.598 1491.09 780.47 1510.88 827.493 1520.22 C 967.348 1547.99 1101.6 1540.95 1240.6 1518.43 C 1284.29 1508.74 1346.51 1490.5 1375.96 1454.29 C 1381.51 1447.46 1379.97 1435.01 1388.12 1432.79 C 1409.53 1484.46 1368.23 1507.39 1324.96 1525.36 C 1178.3 1586.27 872.718 1585.91 725.417 1524.83 C 684.793 1507.98 639.502 1482.57 660.41 1432.79 z" fill="rgb(221,128,63)" transform="translate(0,0)"></path>
<path d="M 1031.69 549.381 C 1056.23 605.752 1077.37 660.634 1099.94 717.445 L 1335.8 1301.34 C 1339.44 1310.23 1345.14 1323.22 1347.63 1332.16 C 1339.66 1332.06 1332.78 1323.37 1327.06 1317.98 C 1291.01 1284.02 1232.71 1263.15 1183.65 1256.9 L 1183.65 1256.9 C 1174.56 1224.47 1166.05 1180.66 1158.97 1147.51 L 1051.16 663.002 C 1047.17 646.209 1023.84 560.51 1031.69 549.381 z" fill="rgb(236,158,96)" transform="translate(0,0)"></path>
<path d="M 1451.51 1038.17 C 1527.46 1030.77 1595.11 1086.16 1602.84 1162.08 C 1610.57 1238 1555.48 1305.88 1479.6 1313.95 C 1403.24 1322.07 1334.84 1266.56 1327.05 1190.17 C 1319.27 1113.78 1375.08 1045.61 1451.51 1038.17 z" fill="rgb(234,234,234)" transform="translate(0,0)"></path>
<path d="M 339.575 474.892 C 360.848 477.675 353.923 492.909 355.215 510.03 C 356.247 523.702 359.561 543.988 345.975 549.381 C 325.782 550.039 330.452 534.063 330.37 519.56 C 330.279 503.429 325.247 485.172 339.575 474.892 z" fill="rgb(153,164,169)" transform="translate(0,0)"></path>
<path d="M 339.575 688.147 C 362.255 689.479 353.237 705.169 355.342 723.564 C 356.634 734.853 358.607 757.653 345.975 762.908 C 322.356 762.098 331.036 719.951 330.633 700.797 C 330.476 693.321 332.907 690.223 339.575 688.147 z" fill="rgb(153,164,169)" transform="translate(0,0)"></path>
<path d="M 339.575 1432.79 C 366.411 1433.27 357.661 1502.06 345.975 1505.88 C 328.856 1504.02 330.817 1494.99 330.476 1480.38 C 330.056 1462.34 324.644 1442.42 339.575 1432.79 z" fill="rgb(153,164,169)" transform="translate(0,0)"></path>
<path d="M 339.575 899.974 C 366.816 898.789 354.236 936.618 355.527 962.117 C 355.7 965.522 351.084 968.928 348.251 970.94 C 321.28 973.088 330.13 928.532 331.182 908.757 C 331.401 904.64 337.054 901.583 339.575 899.974 z" fill="rgb(153,164,169)" transform="translate(0,0)"></path>
<path d="M 339.575 582.031 C 365.872 579.168 356.129 650.197 348.251 655.292 C 318.563 658.424 328.664 589.653 339.575 582.031 z" fill="rgb(153,164,169)" transform="translate(0,0)"></path>
<path d="M 339.575 1326.07 C 343.091 1326.11 353.385 1326.48 353.883 1331.05 C 355.61 1346.92 362.537 1391.47 345.975 1397.81 C 326.579 1398.93 331.307 1380.76 330.474 1366.79 C 329.603 1352.21 326.371 1333.04 339.575 1326.07 z" fill="rgb(153,164,169)" transform="translate(0,0)"></path>
<path d="M 339.575 1004.91 C 343.968 1004.74 346.855 1004.23 350.937 1005.85 C 355.259 1009.52 362.61 1069.64 345.975 1075.93 C 337.966 1076.08 331.235 1074.38 330.807 1064.81 C 330.003 1046.82 324.244 1014.42 339.575 1004.91 z" fill="rgb(153,164,169)" transform="translate(0,0)"></path>
<path d="M 341.873 1112.25 C 359.032 1113.51 357.584 1128.62 355.415 1144.1 C 353.543 1157.45 361.376 1179.65 345.975 1184.1 C 322.572 1182.9 330.693 1142.25 330.919 1123.4 C 331.012 1115.67 335.171 1113.48 341.873 1112.25 z" fill="rgb(153,164,169)" transform="translate(0,0)"></path>
<path d="M 1176.3 408.991 C 1193.46 408.861 1212.47 407.982 1229.54 409.812 C 1243.54 411.314 1244.87 427.403 1232.66 433.179 C 1219.72 433.523 1177.2 438.12 1169.65 426.238 C 1166.59 421.408 1169.72 412.149 1176.3 408.991 z" fill="rgb(153,164,169)" transform="translate(0,0)"></path>
<path d="M 962.02 408.991 C 976.482 408.67 1025.69 402.687 1023.48 423.095 C 1022.8 429.421 1020.29 431.64 1014.25 433.179 C 995.537 433.045 975.44 434.745 957.105 432.341 C 951.875 431.656 946.94 412.812 962.02 408.991 z" fill="rgb(153,164,169)" transform="translate(0,0)"></path>
<path d="M 339.575 1217.98 C 352.678 1217.62 355.111 1224.66 355.069 1236.29 C 355.007 1253.58 361.618 1283.03 345.975 1290.58 C 320.802 1291.98 328.329 1226.09 339.575 1217.98 z" fill="rgb(153,164,169)" transform="translate(0,0)"></path>
<path d="M 339.575 795.084 C 346.19 795.892 348.605 795.72 353.315 800.097 C 356.554 806.838 361.806 858.323 345.975 866.543 C 317.966 866.71 330.155 800.646 339.575 795.084 z" fill="rgb(153,164,169)" transform="translate(0,0)"></path>
<path d="M 1075.54 408.991 C 1088.83 408.853 1116.04 406.539 1127.35 411.99 C 1133.27 414.842 1135.46 431.933 1119.25 433.179 C 1109.76 433.094 1062.01 438.999 1061.14 424.267 C 1060.4 411.778 1065.1 410.607 1075.54 408.991 z" fill="rgb(153,164,169)" transform="translate(0,0)"></path>
<path d="M 851.971 408.991 C 863.875 409.125 906.739 403.977 910.708 415.875 C 913.32 423.704 909.964 430.665 901.644 433.179 C 887.404 433.13 831.947 440.164 842.359 415.86 C 844.254 411.436 847.815 410.46 851.971 408.991 z" fill="rgb(153,164,169)" transform="translate(0,0)"></path>
<path d="M 739.4 408.991 C 746.873 408.67 831.985 404.85 799.506 431.501 C 784.504 434.795 714.036 441.287 739.4 408.991 z" fill="rgb(153,164,169)" transform="translate(0,0)"></path>
<path d="M 417.673 408.991 C 433.554 408.834 450.931 407.798 466.511 409.929 C 479.512 411.706 482.151 427.161 469.882 433.179 C 454.215 433.806 409.261 439.712 408.447 421.154 C 408.122 413.764 411.403 411.383 417.673 408.991 z" fill="rgb(153,164,169)" transform="translate(0,0)"></path>
<path d="M 526.835 408.991 C 539.094 408.814 580.218 404.136 585.953 416.707 C 589.846 425.238 583.263 431.522 576.053 433.179 C 564.93 433.267 521.418 437.539 516.93 424.589 C 514.779 418.381 519.932 411.467 526.835 408.991 z" fill="rgb(153,164,169)" transform="translate(0,0)"></path>
<path d="M 1501.34 408.991 C 1515.52 408.057 1561.62 403.643 1561.59 421.698 C 1561.57 428.454 1560.24 430.758 1554.03 433.179 C 1539.74 434.269 1523.96 432.969 1509.57 433.606 C 1491.86 434.391 1487.63 418.418 1501.34 408.991 z" fill="rgb(153,164,169)" transform="translate(0,0)"></path>
<path d="M 642.608 408.991 C 653.692 408.851 680.247 406.981 689.308 411.271 C 698.033 415.401 699.614 431.753 682.25 433.179 C 669.107 433.082 628.873 438.946 626.385 423.025 C 624.314 409.776 632.98 409.931 642.608 408.991 z" fill="rgb(153,164,169)" transform="translate(0,0)"></path>
<path d="M 1394.5 408.991 C 1406.69 408.884 1448.14 403.569 1454.73 416.176 C 1458.14 422.679 1454.31 430.303 1448.33 433.179 C 1433.84 433.284 1419.2 433.507 1404.85 433.52 C 1388.27 433.535 1380.14 418.47 1394.5 408.991 z" fill="rgb(153,164,169)" transform="translate(0,0)"></path>
<path d="M 1289.56 408.991 C 1304.06 408.774 1361.05 401.133 1347.77 428.377 C 1345.17 430.995 1343.6 430.869 1339.94 431.501 C 1324.73 433.042 1305.9 434.286 1290.77 432.838 C 1276.86 431.505 1275.44 415.21 1289.56 408.991 z" fill="rgb(153,164,169)" transform="translate(0,0)"></path>
<path d="M 1630.75 408.991 C 1643.35 409.895 1662.7 404.017 1663.95 420.834 C 1665.23 437.911 1641.46 433.631 1630.75 433.179 C 1586.26 435.976 1578.52 410.57 1630.75 408.991 z" fill="rgb(153,164,169)" transform="translate(0,0)"></path>
<path d="M 1800.99 229.827 C 1813.91 216.41 1835.97 219.92 1835.05 240.643 L 1835.05 258.928 L 1835.04 1737.19 C 1835.03 1752.42 1834.09 1774.45 1835.05 1789.05 C 1834.81 1806.2 1832.3 1825.79 1809.5 1817 C 1808.47 1813.1 1798.23 1793.62 1795.9 1789.05 C 1804.24 1779.58 1800.53 1748.39 1800.99 1735.41 L 1800.99 1735.41 C 1801.87 1727.52 1801.08 1702.96 1801.06 1693.58 L 1800.99 292.011 L 1800.99 292.011 L 1800.99 258.928 C 1801.26 251.731 1801.88 242.593 1800.99 235.626 C 1800.47 233.857 1800.86 231.8 1800.99 229.827 z" fill="rgb(153,164,169)" transform="translate(0,0)"></path>
<path d="M 1800.99 1735.41 L 1802.38 1735.81 C 1806.89 1746.4 1826.67 1782.32 1835.05 1789.05 C 1834.81 1806.2 1832.3 1825.79 1809.5 1817 C 1808.47 1813.1 1798.23 1793.62 1795.9 1789.05 C 1804.24 1779.58 1800.53 1748.39 1800.99 1735.41 z" fill="rgb(36,86,108)" transform="translate(0,0)"></path>
<path d="M 1800.99 229.827 C 1813.91 216.41 1835.97 219.92 1835.05 240.643 L 1835.05 258.928 C 1829.33 259.472 1826.62 259.28 1821.02 258.928 C 1813.41 270.383 1807.84 280.09 1800.99 292.011 L 1800.99 258.928 C 1801.26 251.731 1801.88 242.593 1800.99 235.626 C 1800.47 233.857 1800.86 231.8 1800.99 229.827 z" fill="rgb(36,86,108)" transform="translate(0,0)"></path>
<path d="M 1821.02 258.928 C 1825.43 251.044 1827.96 246.766 1835.05 240.643 L 1835.05 258.928 C 1829.33 259.472 1826.62 259.28 1821.02 258.928 z" fill="rgb(131,151,163)" transform="translate(0,0)"></path>
<path d="M 253.663 1784.17 C 270.47 1784.88 291.332 1784.18 308.594 1784.18 L 1792.65 1784.17 C 1793.88 1786.42 1794.13 1787.24 1795.9 1789.05 C 1798.23 1793.62 1808.47 1813.1 1809.5 1817 C 1793.11 1817.79 1769.62 1817.06 1752.82 1817.04 L 235.473 1817 C 241.813 1806.91 248.246 1794.79 253.663 1784.17 z" fill="rgb(153,164,169)" transform="translate(0,0)"></path>
<path d="M 240.886 229.827 C 249.345 222.172 316.321 226.546 332.779 226.543 L 1645.13 226.509 C 1692.8 226.484 1755.2 224.218 1800.99 229.827 C 1800.86 231.8 1800.47 233.857 1800.99 235.626 C 1801.88 242.593 1801.26 251.731 1800.99 258.928 C 1795.56 259.852 1789.91 261.43 1785.21 258.928 L 1785.21 258.928 C 1739.91 258.335 1693.4 258.926 1647.97 258.93 L 551.177 258.943 C 523.3 258.944 261.283 257.963 258.942 258.928 C 256.33 257.122 243.294 234.007 240.886 229.827 z" fill="rgb(234,234,234)" transform="translate(0,0)"></path>
<path d="M 1785.21 258.928 C 1790.57 248.807 1793.62 244.336 1800.99 235.626 C 1801.88 242.593 1801.26 251.731 1800.99 258.928 C 1795.56 259.852 1789.91 261.43 1785.21 258.928 z" fill="rgb(131,151,163)" transform="translate(0,0)"></path>
<path d="M 213.036 244.702 C 221.07 251.689 239.419 283.606 246.254 294.602 C 243.121 310.913 246.296 359.782 246.294 378.482 L 246.269 1369.55 C 246.269 1409.41 244.263 1726.22 248.407 1735.41 C 240.106 1749.51 224.392 1780.24 213.036 1789.05 C 213.912 1775.41 213.14 1755.77 213.069 1741.73 L 212.962 284.756 C 212.901 273.092 212.246 255.856 213.036 244.702 z" fill="rgb(153,164,169)" transform="translate(0,0)"></path>
<path d="M 355.118 1581.96 L 1584.24 1581.96 L 1662.19 1581.82 C 1678.84 1581.76 1703.02 1579.36 1717.49 1587.22 C 1739.25 1626.27 1776.2 1703.41 1800.99 1735.41 L 1800.99 1735.41 C 1800.53 1748.39 1804.24 1779.58 1795.9 1789.05 C 1794.13 1787.24 1793.88 1786.42 1792.65 1784.17 C 1786.37 1771.73 1774.91 1754.13 1767.61 1740.83 L 1697.54 1613.59 L 355.118 1613.59 C 355.818 1608.96 355.097 1588.31 355.118 1581.96 L 355.118 1581.96 z" fill="url(#Gradient1)" transform="translate(0,0)"></path>
<path d="M 1695.02 433.179 C 1705.39 438.829 1707.86 438.348 1717.49 431.501 C 1718.06 445.589 1718.9 461.049 1718.78 475.046 L 1717.49 1367.64 C 1717.49 1439.44 1719.04 1516.02 1717.49 1587.22 C 1703.02 1579.36 1678.84 1581.76 1662.19 1581.82 L 1584.24 1581.96 C 1584.88 1581.55 1679.55 1581.97 1689.06 1581.96 C 1691.32 1559.96 1689.09 1523.2 1689.06 1498.6 L 1689.05 563.772 C 1689.03 543.813 1684.78 442.174 1695.02 433.179 z" fill="rgb(234,234,234)" transform="translate(0,0)"></path>
<path d="M 330.623 1592.64 C 338.135 1587.43 345.672 1581.53 355.118 1581.96 C 355.097 1588.31 355.818 1608.96 355.118 1613.59 C 330.465 1641.08 275.763 1747.9 253.663 1784.17 C 248.246 1794.79 241.813 1806.91 235.473 1817 C 212.987 1826.99 210.551 1805.63 213.036 1789.05 C 224.392 1780.24 240.106 1749.51 248.407 1735.41 C 266.282 1709.98 320.185 1617.33 330.623 1592.64 z" fill="rgb(36,86,108)" transform="translate(0,0)"></path>
<path d="M 213.036 244.702 C 210.63 223.811 225.619 211.756 240.886 229.827 C 243.294 234.007 256.33 257.122 258.942 258.928 C 285.365 310.655 325.692 355.271 348.251 408.991 C 393.889 408.906 346.797 452.337 335.236 444.042 C 328.476 433.597 326.042 423.538 320.559 414.942 C 296.335 376.963 271.679 330.363 246.254 294.602 C 239.419 283.606 221.07 251.689 213.036 244.702 z" fill="rgb(36,86,108)" transform="translate(0,0)"></path>
<path d="M 1785.21 258.928 C 1789.91 261.43 1795.56 259.852 1800.99 258.928 L 1800.99 292.011 L 1800.99 292.011 C 1792.97 299.642 1727.26 409.498 1720.12 422.8 L 1717.49 431.501 C 1707.86 438.348 1705.39 438.829 1695.02 433.179 C 1688.46 425.104 1689.1 420.189 1695.02 411.884 C 1700.93 390.907 1768.68 282.306 1785.21 258.928 L 1785.21 258.928 z" fill="rgb(153,164,169)" transform="translate(0,0)"></path>
<path d="M 1695.02 411.884 C 1707.95 407.55 1715.17 408.317 1720.12 422.8 L 1717.49 431.501 C 1707.86 438.348 1705.39 438.829 1695.02 433.179 C 1688.46 425.104 1689.1 420.189 1695.02 411.884 z" fill="rgb(77,120,142)" transform="translate(0,0)"></path>
<path d="M 330.623 1592.64 C 321.681 1522.26 355.39 1537.97 355.265 1551.49 C 355.182 1560.35 355.012 1572.05 355.118 1581.96 L 355.118 1581.96 C 345.672 1581.53 338.135 1587.43 330.623 1592.64 z" fill="rgb(153,164,169)" transform="translate(0,0)"></path>
<metadata><recraft-signature>{"signed_by": "recraft", "signature_b64": "d9/G6CJqKkKnVeDc0sWEBiVXNXXwXv48e0aqbwrG2QscU0RQmd4AAdVyOf8cDE6wpqi9umA67IGQJq3PJuqoAg==", "signing_algo": "Ed25519", "generation_timestamp": 1782332341, "identifier": "db5401fc-855f-42f3-a00c-3efbf4dae0e7"}</recraft-signature></metadata></svg>