<svg xmlns="http://www.w3.org/2000/svg" height="512" preserveAspectRatio="none" style="display: block;" version="1.1" viewBox="0 0 2048 2048" width="512">
<path d="M 671.543 233.006 C 740.844 231.667 815.135 232.994 884.744 232.997 L 1587.87 232.898 C 1636.75 232.85 1684.71 243.019 1685.08 305.645 L 1685.2 1413.69 C 1685.51 1536.09 1641.57 1520.78 1538.44 1523.78 C 1474.3 1597.14 1391.66 1670.53 1322.02 1740.7 C 1278.9 1783.39 1284.24 1798.45 1217.42 1798.44 L 497.228 1798.45 C 453.848 1798.47 372.391 1807.79 366.841 1745.79 C 363.916 1713.12 365.007 1679.1 365.036 1646.26 L 364.999 638.928 C 364.97 603.01 364.668 567.047 365.259 531.143 C 365.506 516.147 473.542 418.624 489.137 402.982 C 516.418 375.619 645.999 237.561 671.543 233.006 z" fill="rgb(23,60,120)" transform="translate(0,0)"></path>
<path d="M 699.827 289.13 L 1583.54 289.075 C 1602.44 289.061 1629.42 282.191 1629.88 308.891 C 1630.31 333.32 1630.14 357.67 1630.14 382.061 L 1630.13 1382.66 C 1630.15 1413.87 1639.97 1451.32 1614.23 1469.52 L 1565.99 1469.52 L 1281.5 1469.4 C 1206.07 1468.84 1221.87 1488.62 1221.89 1557.11 L 1221.97 1689 L 1221.97 1740.7 L 420.912 1740.7 L 420.912 1678.59 L 420.912 927.25 L 420.912 567.818 C 422.719 567.918 424.836 568.057 426.621 568.05 L 647.96 567.974 C 715.725 568.46 699.907 542.127 699.886 482.223 L 699.827 352.073 L 699.827 289.13 z" fill="rgb(251,233,210)" transform="translate(0,0)"></path>
<path d="M 699.827 289.13 L 1583.54 289.075 C 1602.44 289.061 1629.42 282.191 1629.88 308.891 C 1630.31 333.32 1630.14 357.67 1630.14 382.061 L 1630.13 1382.66 C 1630.15 1413.87 1639.97 1451.32 1614.23 1469.52 L 1565.99 1469.52 L 1565.99 927.25 L 1565.3 926.304 C 1560.38 923.951 1514.36 925.052 1505.42 924.94 C 1497.44 886.242 1445.83 898.192 1412.61 898.221 L 580.476 898.495 C 559.748 898.653 549.812 905.59 548.519 927.25 L 420.912 927.25 L 420.912 567.818 C 422.719 567.918 424.836 568.057 426.621 568.05 L 647.96 567.974 C 715.725 568.46 699.907 542.127 699.886 482.223 L 699.827 352.073 L 699.827 289.13 z" fill="rgb(247,168,71)" transform="translate(0,0)"></path>
<path d="M 699.827 289.13 L 1583.54 289.075 C 1602.44 289.061 1629.42 282.191 1629.88 308.891 C 1630.31 333.32 1630.14 357.67 1630.14 382.061 L 1630.13 1382.66 C 1630.15 1413.87 1639.97 1451.32 1614.23 1469.52 L 1565.99 1469.52 L 1565.99 927.25 C 1565.02 910.584 1565.93 882.337 1565.95 864.784 L 1565.99 352.073 L 699.827 352.073 L 699.827 289.13 z" fill="rgb(237,148,53)" transform="translate(0,0)"></path>
<path d="M 1362.06 445.278 L 1445.02 445.197 C 1463.84 445.179 1511.08 438.422 1510.85 469.045 C 1510.18 513.058 1512.79 559.192 1509.88 602.922 C 1508.14 629.089 1459.3 634.828 1455.62 601.983 C 1453.62 584.182 1454.78 565.616 1454.89 547.93 C 1425.18 570.799 1391.12 611.94 1362.06 638.779 L 1362.06 733.5 C 1362.04 749.278 1365.73 793.673 1355.14 804.14 C 1335.79 823.259 1305.21 813.793 1305.15 782.59 C 1305.08 739.233 1304.72 695.275 1304.96 651.846 C 1304.63 615.175 1308.95 614.489 1333.96 588.733 C 1362.16 559.697 1390.88 531.262 1418.03 501.265 C 1398.79 501.152 1356.13 506.711 1340.8 494.709 C 1319.26 477.849 1332.35 447.288 1362.06 445.278 z" fill="rgb(23,60,120)" transform="translate(0,0)"></path>
<path d="M 1115.35 554.136 C 1138.93 552.121 1149.31 569.143 1164.34 584.84 L 1195.63 616.884 C 1211.49 632.857 1253.14 663.111 1232.71 685.203 C 1217.99 701.107 1109.58 832.854 1099.84 753.852 C 1097.12 731.753 1129.92 710.604 1142.25 695.332 L 1076.5 695.332 L 954.411 695.349 C 935.896 695.365 913.898 696.388 895.822 695.053 C 865.054 692.782 865.071 639.549 899.928 638.765 C 924.161 638.22 948.381 638.817 972.601 638.814 L 1142.25 638.779 C 1124.61 619.855 1062.08 572.269 1115.35 554.136 z" fill="rgb(23,60,120)" transform="translate(0,0)"></path>
<path d="M 548.519 927.25 C 549.812 905.59 559.748 898.653 580.476 898.495 L 1412.61 898.221 C 1445.83 898.192 1497.44 886.242 1505.42 924.94 C 1504.11 939.203 1494.74 954.499 1478.7 954.412 L 591.395 954.117 C 568.241 954.22 552.504 955.543 548.519 927.25 z" fill="rgb(23,60,120)" transform="translate(0,0)"></path>
<path d="M 420.912 1678.59 C 421.208 1684.56 420.288 1688.98 427.422 1689.01 L 1179.31 1688.94 C 1192.52 1688.92 1209.02 1688.43 1221.97 1689 L 1221.97 1740.7 L 420.912 1740.7 L 420.912 1678.59 z" fill="rgb(213,198,171)" transform="translate(0,0)"></path>
<path d="M 954.444 1227.62 C 974.866 1226.67 1004.42 1227.59 1025.54 1227.6 L 1470.89 1227.54 C 1520.28 1231.24 1513.03 1273.41 1482.45 1283.2 C 1461.2 1284.5 1422.18 1283.21 1399.59 1283.21 L 1051.81 1283.21 C 1020.35 1283.21 988.789 1283.49 957.356 1282.77 C 923.592 1281.99 917.179 1232.25 954.444 1227.62 z" fill="rgb(23,60,120)" transform="translate(0,0)"></path>
<path d="M 754.048 1065.26 L 1087.75 1065.21 C 1102.74 1065.21 1117.53 1065.28 1132.52 1065.6 C 1167.37 1066.34 1169.78 1117.36 1133.11 1121.74 L 752.127 1121.52 C 719.654 1121.77 710.645 1068.79 754.048 1065.26 z" fill="rgb(23,60,120)" transform="translate(0,0)"></path>
<path d="M 749.577 1551.4 C 764.205 1550.7 785.39 1551.37 800.459 1551.37 L 1015.18 1551.39 C 1033.59 1551.38 1078.24 1548.91 1092.94 1553.81 C 1117.09 1561.87 1120.53 1598.63 1088.15 1608.17 C 1078.71 1609.14 1056.9 1608.21 1046.13 1608.19 L 754.043 1608.23 C 718.087 1608.09 713.564 1560.68 749.577 1551.4 z" fill="rgb(23,60,120)" transform="translate(0,0)"></path>
<path d="M 1066.12 1391.67 C 1130.29 1389.48 1116.88 1443.77 1085.72 1447.21 C 1072.86 1448.62 1059.81 1448.19 1046.88 1448.19 L 768.733 1448.17 C 699.451 1446.27 725.179 1393.71 747.677 1392.2 C 759.696 1391.4 772.675 1391.63 785.174 1391.63 L 1066.12 1391.67 z" fill="rgb(23,60,120)" transform="translate(0,0)"></path>
<path d="M 1245.33 1065.26 C 1321.5 1063.09 1398.2 1065.58 1474.44 1065.46 C 1516.68 1070.09 1513.73 1110.98 1482.45 1121.74 C 1470.65 1122.26 1455.32 1121.78 1443.23 1121.78 L 1290.59 1121.76 C 1278.65 1121.77 1241.64 1123.33 1234.15 1118.56 C 1212.34 1104.67 1217.63 1070.35 1245.33 1065.26 z" fill="rgb(23,60,120)" transform="translate(0,0)"></path>
<path d="M 744.238 1227.62 L 803.445 1227.49 C 819.296 1227.48 849.962 1223.91 859.88 1238.06 C 872.66 1256.29 863.028 1272.02 846.655 1283.2 C 835.108 1284.7 747.794 1283.9 740.75 1280.83 C 716.239 1270.16 720.818 1236.01 744.238 1227.62 z" fill="rgb(23,60,120)" transform="translate(0,0)"></path>
<path d="M 566.194 1391.67 C 586.342 1391.01 629.267 1390.01 648.626 1393.63 C 674.187 1398.41 676.654 1434.81 648.585 1448.17 C 626.113 1449.84 597.98 1447.49 574.943 1448.22 C 543.778 1449.22 532.072 1405.24 566.194 1391.67 z" fill="rgb(23,60,120)" transform="translate(0,0)"></path>
<path d="M 612.249 1551.4 C 626.109 1551.33 648.353 1549 659.28 1558.3 C 671.547 1568.44 670.545 1588.42 660.006 1599.42 C 648.054 1611.89 620.739 1608.3 603.962 1608.17 C 590.458 1608.21 566.386 1610.51 555.527 1602.21 C 543.01 1592.06 543.092 1570.76 553.928 1559.51 C 565.642 1547.34 595.728 1551.35 612.249 1551.4 z" fill="rgb(23,60,120)" transform="translate(0,0)"></path>
<path d="M 569.585 1227.62 C 593.724 1226.01 659.326 1220.89 666.37 1244.92 C 671.314 1261.79 661.854 1277.96 645.06 1283.2 C 622.843 1284.54 593.771 1283.47 571.467 1282.94 C 541.425 1282.21 532.854 1234.32 569.585 1227.62 z" fill="rgb(23,60,120)" transform="translate(0,0)"></path>
<path d="M 569.585 1065.26 C 586.98 1065.23 637.608 1061.97 651.296 1068.24 C 677.516 1080.26 668.784 1113.44 645.06 1121.74 C 624.314 1121.14 573.943 1126.23 558.037 1116.34 C 535.833 1102.54 545.832 1069.84 569.585 1065.26 z" fill="rgb(23,60,120)" transform="translate(0,0)"></path>
<path d="M 642.906 333.013 C 643.11 333.351 642.903 496.465 642.906 511.996 L 463.214 511.996 L 462.297 510.697 C 466.152 504.201 527.629 445.366 537.141 436.008 L 596.478 377.107 C 611.191 362.366 626.696 345.816 642.906 333.013 z" fill="rgb(237,148,53)" transform="translate(0,0)"></path>
<path d="M 1277.9 1526.84 L 1454.89 1526.84 C 1446.82 1539.34 1432.78 1551.17 1421.88 1562 L 1368.5 1615.23 C 1338.88 1644.33 1310.35 1677.12 1277.9 1703.12 L 1277.9 1526.84 z" fill="rgb(237,148,53)" transform="translate(0,0)"></path>
<metadata><recraft-signature>{"signed_by": "recraft", "signature_b64": "IOhD/cNCGwnX/Wv+hDiib3X7JIB2M/EcHt757zYY2NaoowtV6mXkip0SjbjVx5qCvWIxON8+ir2rHe0xUaSBDQ==", "signing_algo": "Ed25519", "generation_timestamp": 1782396042, "identifier": "cd0a0b69-621d-48b8-a8b6-12f040eeffc3"}</recraft-signature></metadata></svg>