<svg xmlns="http://www.w3.org/2000/svg" height="512" preserveAspectRatio="none" style="display: block;" version="1.1" viewBox="0 0 2048 2048" width="512">
<path d="M 720.133 256.133 C 750.368 253.838 756.873 259.262 763.546 288.794 C 769.41 314.746 775.868 340.556 780.718 366.783 C 816.461 374.661 851.184 389.459 882.554 408.195 C 904.702 391.075 971.714 325.613 996.652 348.91 C 1019.91 370.635 1093.98 438.735 1110.71 463.94 C 1110.75 464.266 1110.79 464.593 1110.83 464.92 L 1111.01 466.556 C 1113.54 489.074 1066.42 539.05 1054.1 562.184 C 1065.55 595.026 1081.42 622.141 1092.73 658.578 C 1121.06 663.211 1149.6 666.885 1178.07 670.557 C 1220.96 675.516 1211.99 694.753 1213.72 733.046 L 1216.86 793.999 C 1217.36 804.866 1219.23 827.735 1215.88 836.994 C 1208.08 858.572 1123.58 864.277 1113.65 875.18 C 1110.8 891.728 1156.87 911.854 1172.18 922.217 C 1199.51 906.234 1240.94 889.334 1271.8 882.588 C 1292.2 765.767 1261.65 769.1 1375.9 768.958 C 1396.99 768.931 1446.38 759.993 1457.07 783.918 C 1465.21 802.116 1471.66 859.795 1475.98 882.588 C 1504.06 885.908 1554.24 909.951 1580.13 922.217 C 1594.13 909.056 1648.51 852.518 1668.1 864.134 C 1686.02 874.767 1777.42 964.014 1781.34 982.414 C 1783.89 994.346 1736.69 1047.88 1728.59 1060.81 L 1727.72 1062.22 C 1743.11 1103.66 1759.32 1125.39 1773.04 1175.69 C 1801.6 1179.66 1879.5 1173.12 1880.93 1212.62 C 1882.49 1256.02 1882.21 1299.99 1880.46 1343.37 C 1877.75 1378.04 1800.35 1382.01 1773.04 1385.27 L 1770.09 1391.02 C 1755.21 1419.51 1744.35 1452.35 1727.72 1484.01 C 1742.95 1505.79 1797.49 1562.28 1782.03 1586.39 C 1774.79 1597.69 1694.01 1676.77 1682.01 1685.76 C 1654.86 1706.12 1600.96 1649.26 1573.85 1631.9 C 1549.45 1650.56 1511.1 1665.09 1482.43 1675.53 L 1468.98 1762.89 C 1463.82 1795.84 1442.53 1791.31 1416.13 1791.02 L 1374.65 1790.93 C 1355.53 1790.99 1319.81 1793.83 1302.35 1791.02 C 1277.99 1776.06 1271.72 1701.39 1271.8 1675.53 C 1235.67 1668.9 1203.3 1657.08 1172.18 1637.38 C 1151.46 1650.99 1106.7 1687.51 1087.17 1693.61 C 1064.74 1687.55 987.493 1606.97 972.911 1587.56 C 954.453 1562.99 1004.03 1511.71 1020.02 1487.77 C 1005.73 1456.04 989.767 1427.33 981.131 1392.98 C 952.935 1382.88 904.614 1379.98 877.372 1365.04 C 863.885 1357.65 878.375 1226.51 880.839 1209.04 C 884.543 1182.33 974.724 1196.39 984.537 1169.13 C 962.052 1153.43 929.982 1140.72 905.649 1126.65 C 869.597 1147.07 848.449 1156.21 808.451 1169.13 C 804.806 1189.02 799.227 1219.15 797.07 1238.53 C 790.992 1293.15 774.21 1280.87 724.235 1287 L 660.545 1294.9 C 623.007 1299.22 611.922 1304.88 604.101 1261 C 599.141 1233.17 592.016 1203.52 586.066 1175.69 C 563.406 1171.03 510.225 1151.7 490.799 1140.15 C 475.478 1150.75 412.146 1198.43 400.164 1202.17 C 386.08 1206.56 370.948 1187.32 362.193 1179.15 L 312.933 1132.54 C 303.159 1123.4 256.012 1089.79 267.211 1072.72 C 286.131 1043.87 309.753 1012.54 329.543 984.68 C 311.542 950.345 299.86 926.031 285.402 889.46 C 258.7 883.28 172.97 885.072 169.378 852.435 C 166.311 824.819 166.169 795.971 164.79 768.323 C 161.423 700.856 154.929 696.301 221.228 683.224 L 279.141 671.431 C 290.165 631.653 300.37 602.967 319.391 565.61 C 305.553 552.285 260.059 504.633 258.712 489.312 C 256.932 469.076 336.093 390.716 350.373 375.531 C 365.03 359.438 378.842 348.015 399.621 363.39 C 422.884 380.603 447.974 397.804 469.69 416.946 C 491.776 406.496 538.877 373.224 562.481 373.929 C 563.999 358.43 575.235 279.515 582.378 271.878 C 595.534 257.811 698.095 256.298 720.133 256.133 z M 693.5 923.339 C 774.467 920.639 837.874 852.743 835.039 771.78 C 832.203 690.818 764.2 627.524 683.243 630.496 C 602.477 633.461 539.366 701.267 542.195 782.037 C 545.024 862.808 612.725 926.033 693.5 923.339 z M 1389.44 1391.96 C 1454.2 1384.3 1500.45 1325.54 1492.68 1260.79 C 1484.9 1196.04 1426.05 1149.9 1361.32 1157.8 C 1296.76 1165.67 1250.76 1224.34 1258.52 1288.91 C 1266.27 1353.49 1324.85 1399.59 1389.44 1391.96 z" fill="rgb(14,45,85)" transform="translate(0,0)"></path>
<path d="M 655.01 287.689 C 680.989 287.792 706.363 284.364 731.837 284.975 C 738.138 309.405 748.876 370.018 758.678 390.001 C 771.914 396.308 791.478 399.014 806.124 404.452 C 819.699 409.493 882.917 440.322 889.518 437.039 C 921.158 421.306 949.427 389.036 981.131 373.929 C 1012.33 408.161 1048.74 437.815 1080.17 472.033 C 1068.2 488.283 1024.53 545.764 1020.02 562.184 C 1025.31 574.836 1072.66 684.129 1075.22 684.612 C 1108.18 690.838 1149.6 699.657 1182.96 701.318 C 1182.9 722.236 1184.75 741.66 1182.96 762.293 C 1187.78 770.604 1187.9 811.552 1187.71 822.795 C 1171.63 825.527 1101.12 845.274 1087.17 852.556 C 1079.63 880.509 1069 909.007 1053.46 933.624 C 1036.06 961.202 1040.77 966.768 1059.82 991.422 C 1072.77 1008.5 1086.59 1027.8 1099.49 1045.72 C 1075.77 1079.44 1036.5 1115.34 1008.98 1148.75 C 995.253 1140.95 912.689 1090.96 899.175 1097.62 C 879.476 1107.32 862.595 1115.94 842.452 1125.42 C 777.871 1155.82 784.471 1124.75 772.713 1198.57 L 763.442 1254.66 C 726.389 1256.44 671.321 1262.4 634.74 1268.93 L 621.606 1202.71 C 609.302 1139.6 617.074 1158.24 564.924 1139.08 C 536.09 1128.49 497.731 1100.22 472.914 1114.95 C 450.432 1135.64 422.233 1151.99 398.085 1171.06 C 370.527 1146.63 318.834 1103.47 296.599 1076.41 C 313.197 1058.66 331.635 1026.28 346.8 1012.97 C 351.67 1004.11 359.069 993.82 362.389 984.68 C 356.723 970.648 343.328 950.183 335.493 932.685 C 304.543 870.93 336.131 866.05 261.795 856.145 L 198.62 847.502 C 193.93 817.056 192.473 750.233 193.278 719.337 C 223.073 711.573 276.494 706.421 302.319 693.971 C 311.741 676.404 322.3 631.692 332.893 606.885 C 357.55 549.139 360.106 569.853 319.391 519.776 C 309.579 508.622 299.116 497.56 288.999 486.639 C 320.886 451.12 346.525 418.59 382.186 385.312 C 391.494 393.446 400.246 400.518 409.937 408.195 C 493.297 467.083 445.507 455.767 545.508 410.974 C 557.184 405.744 578.833 399.837 587.773 391.623 C 593.555 386.311 602.796 307.504 605.372 293.255 C 620.881 290.929 639.231 289.418 655.01 287.689 z M 693.5 923.339 C 774.467 920.639 837.874 852.743 835.039 771.78 C 832.203 690.818 764.2 627.524 683.243 630.496 C 602.477 633.461 539.366 701.267 542.195 782.037 C 545.024 862.808 612.725 926.033 693.5 923.339 z" fill="rgb(65,103,145)" transform="translate(0,0)"></path>
<path d="M 605.372 293.255 C 620.881 290.929 639.231 289.418 655.01 287.689 C 654.368 314.721 648.783 387.51 640.137 411.109 C 628.679 442.386 594.519 447.232 567.499 458.921 C 485.843 494.247 419.618 562.449 384.422 644.021 C 377.671 659.667 370.602 690.335 362.151 702.424 C 345.943 725.609 299.351 710.605 297.387 776.703 C 295.671 834.466 344.1 811.982 359.666 830.449 C 368.841 841.333 375.088 868.507 380.79 882.692 C 417.897 975.018 500.244 1050.26 595.233 1079.32 C 778.688 1135.44 968.614 1027.51 1037.53 854.058 C 1043.43 839.219 1045.91 821.227 1054.1 807.656 C 1076.28 794.553 1181.89 770.792 1182.96 762.293 C 1187.78 770.604 1187.9 811.552 1187.71 822.795 C 1171.63 825.527 1101.12 845.274 1087.17 852.556 C 1079.63 880.509 1069 909.007 1053.46 933.624 C 1036.06 961.202 1040.77 966.768 1059.82 991.422 C 1072.77 1008.5 1086.59 1027.8 1099.49 1045.72 C 1075.77 1079.44 1036.5 1115.34 1008.98 1148.75 C 995.253 1140.95 912.689 1090.96 899.175 1097.62 C 879.476 1107.32 862.595 1115.94 842.452 1125.42 C 777.871 1155.82 784.471 1124.75 772.713 1198.57 L 763.442 1254.66 C 726.389 1256.44 671.321 1262.4 634.74 1268.93 L 621.606 1202.71 C 609.302 1139.6 617.074 1158.24 564.924 1139.08 C 536.09 1128.49 497.731 1100.22 472.914 1114.95 C 450.432 1135.64 422.233 1151.99 398.085 1171.06 C 370.527 1146.63 318.834 1103.47 296.599 1076.41 C 313.197 1058.66 331.635 1026.28 346.8 1012.97 C 351.67 1004.11 359.069 993.82 362.389 984.68 C 356.723 970.648 343.328 950.183 335.493 932.685 C 304.543 870.93 336.131 866.05 261.795 856.145 L 198.62 847.502 C 193.93 817.056 192.473 750.233 193.278 719.337 C 223.073 711.573 276.494 706.421 302.319 693.971 C 311.741 676.404 322.3 631.692 332.893 606.885 C 357.55 549.139 360.106 569.853 319.391 519.776 C 309.579 508.622 299.116 497.56 288.999 486.639 C 320.886 451.12 346.525 418.59 382.186 385.312 C 391.494 393.446 400.246 400.518 409.937 408.195 C 493.297 467.083 445.507 455.767 545.508 410.974 C 557.184 405.744 578.833 399.837 587.773 391.623 C 593.555 386.311 602.796 307.504 605.372 293.255 z" fill="rgb(50,84,122)" transform="translate(0,0)"></path>
<path d="M 346.8 1012.97 C 348.719 1022.3 345.154 1035.37 347.052 1043.22 C 353.52 1069.98 383.885 1090.4 403.811 1106.94 C 431.975 1130.32 444.679 1113.76 472.914 1114.95 C 450.432 1135.64 422.233 1151.99 398.085 1171.06 C 370.527 1146.63 318.834 1103.47 296.599 1076.41 C 313.197 1058.66 331.635 1026.28 346.8 1012.97 z" fill="rgb(65,103,145)" transform="translate(0,0)"></path>
<path d="M 288.999 486.639 C 320.886 451.12 346.525 418.59 382.186 385.312 C 391.494 393.446 400.246 400.518 409.937 408.195 C 371.87 452.238 349.043 466.121 319.391 519.776 C 309.579 508.622 299.116 497.56 288.999 486.639 z" fill="rgb(65,103,145)" transform="translate(0,0)"></path>
<path d="M 679.257 549.719 C 804.391 544.115 910.506 640.736 916.622 765.846 C 922.737 890.956 826.551 997.466 701.467 1004.09 C 575.657 1010.76 468.395 913.892 462.244 788.056 C 456.093 662.22 553.397 555.355 679.257 549.719 z M 693.5 923.339 C 774.467 920.639 837.874 852.743 835.039 771.78 C 832.203 690.818 764.2 627.524 683.243 630.496 C 602.477 633.461 539.366 701.267 542.195 782.037 C 545.024 862.808 612.725 926.033 693.5 923.339 z" fill="rgb(14,45,85)" transform="translate(0,0)"></path>
<path d="M 679.851 577.912 C 790.086 572.646 883.617 657.955 888.488 768.208 C 893.359 878.461 807.716 971.686 697.446 976.162 C 587.733 980.616 495.082 895.499 490.235 785.803 C 485.389 676.107 570.173 583.151 679.851 577.912 z M 693.5 923.339 C 774.467 920.639 837.874 852.743 835.039 771.78 C 832.203 690.818 764.2 627.524 683.243 630.496 C 602.477 633.461 539.366 701.267 542.195 782.037 C 545.024 862.808 612.725 926.033 693.5 923.339 z" fill="rgb(241,158,58)" transform="translate(0,0)"></path>
<path d="M 677.394 601.965 C 773.789 595.664 857.06 668.655 863.441 765.044 C 869.823 861.433 796.903 944.765 700.519 951.228 C 604.021 957.699 520.568 884.672 514.178 788.169 C 507.789 691.665 580.885 608.273 677.394 601.965 z M 693.5 923.339 C 774.467 920.639 837.874 852.743 835.039 771.78 C 832.203 690.818 764.2 627.524 683.243 630.496 C 602.477 633.461 539.366 701.267 542.195 782.037 C 545.024 862.808 612.725 926.033 693.5 923.339 z" fill="rgb(14,45,85)" transform="translate(0,0)"></path>
<path d="M 1180.88 1030.06 C 1272.08 958.469 1395.4 943.191 1501.32 990.366 C 1607.23 1037.54 1678.36 1139.43 1686.15 1255.11 C 1696.15 1403.65 1600.08 1538.65 1456.47 1577.88 C 1312.86 1617.11 1161.5 1549.69 1094.59 1416.7 C 1027.69 1283.71 1063.78 1121.99 1180.88 1030.06 z M 1389.44 1391.96 C 1454.2 1384.3 1500.45 1325.54 1492.68 1260.79 C 1484.9 1196.04 1426.05 1149.9 1361.32 1157.8 C 1296.76 1165.67 1250.76 1224.34 1258.52 1288.91 C 1266.27 1353.49 1324.85 1399.59 1389.44 1391.96 z" fill="rgb(241,158,58)" transform="translate(0,0)"></path>
<path d="M 1180.88 1030.06 L 1182.39 1030.86 L 1183.23 1030.19 C 1185.86 1028.13 1186.43 1027.42 1189.71 1026.62 L 1189.09 1027.29 C 1241.24 995.099 1302.2 967.666 1365.03 971.325 C 1270.78 1001.43 1175.34 1070.42 1129.73 1159.78 C 1064.19 1288.2 1121.2 1448.89 1248.71 1513.45 C 1408.24 1594.23 1581.16 1499.64 1657.35 1350.37 C 1667.86 1329.77 1681.65 1258.42 1686.15 1255.11 C 1696.15 1403.65 1600.08 1538.65 1456.47 1577.88 C 1312.86 1617.11 1161.5 1549.69 1094.59 1416.7 C 1027.69 1283.71 1063.78 1121.99 1180.88 1030.06 z" fill="rgb(223,120,35)" transform="translate(0,0)"></path>
<path d="M 1359.91 1076.56 C 1469.68 1067.96 1565.6 1150.06 1574.04 1259.83 C 1582.49 1369.61 1500.26 1465.41 1390.47 1473.7 C 1280.9 1481.98 1185.33 1399.95 1176.9 1290.39 C 1168.47 1180.83 1250.37 1085.15 1359.91 1076.56 z M 1389.44 1391.96 C 1454.2 1384.3 1500.45 1325.54 1492.68 1260.79 C 1484.9 1196.04 1426.05 1149.9 1361.32 1157.8 C 1296.76 1165.67 1250.76 1224.34 1258.52 1288.91 C 1266.27 1353.49 1324.85 1399.59 1389.44 1391.96 z" fill="rgb(14,45,85)" transform="translate(0,0)"></path>
<path d="M 1371.9 1104.54 C 1465.88 1102.46 1543.83 1176.81 1546.2 1270.78 C 1548.57 1364.76 1474.46 1442.93 1380.49 1445.58 C 1286.12 1448.24 1207.54 1373.75 1205.16 1279.37 C 1202.79 1185 1277.52 1106.64 1371.9 1104.54 z M 1389.44 1391.96 C 1454.2 1384.3 1500.45 1325.54 1492.68 1260.79 C 1484.9 1196.04 1426.05 1149.9 1361.32 1157.8 C 1296.76 1165.67 1250.76 1224.34 1258.52 1288.91 C 1266.27 1353.49 1324.85 1399.59 1389.44 1391.96 z" fill="rgb(50,84,122)" transform="translate(0,0)"></path>
<path d="M 1375.19 1129.41 C 1455.31 1129.29 1520.42 1194.02 1520.79 1274.14 C 1521.15 1354.26 1456.62 1419.57 1376.5 1420.18 C 1296.03 1420.79 1230.37 1355.92 1230.01 1275.45 C 1229.65 1194.98 1294.72 1129.52 1375.19 1129.41 z M 1389.44 1391.96 C 1454.2 1384.3 1500.45 1325.54 1492.68 1260.79 C 1484.9 1196.04 1426.05 1149.9 1361.32 1157.8 C 1296.76 1165.67 1250.76 1224.34 1258.52 1288.91 C 1266.27 1353.49 1324.85 1399.59 1389.44 1391.96 z" fill="rgb(14,45,85)" transform="translate(0,0)"></path>
<path d="M 1020.02 1175.69 C 1041.56 1159.51 1048.53 1145.84 1065.83 1130.08 C 937.454 1406.14 1200.78 1703.01 1489.32 1597.67 C 1574.53 1566.56 1659.5 1489.47 1690.54 1402.77 C 1702.4 1402.67 1724.15 1394.5 1734.88 1398.05 C 1703.24 1484.7 1672.71 1462.24 1734.88 1543.68 C 1741.14 1552.71 1749.52 1564.12 1754.9 1573.44 C 1731.48 1594.7 1686.36 1638.44 1666.7 1662.02 C 1636.34 1642.56 1603.34 1613.45 1573.85 1597.27 C 1536.39 1622.94 1502.85 1638.18 1458.99 1649.13 C 1456.64 1649.72 1455.56 1654.52 1454.94 1656.69 L 1439.68 1761.86 C 1397.93 1761.2 1355.19 1762.18 1313.26 1761.86 C 1308.09 1726.08 1305.67 1685.07 1298.64 1650.48 C 1250.04 1640.13 1210.91 1625.72 1169.9 1599.08 C 1168.44 1598.13 1167.11 1599.51 1165.38 1600.41 C 1143.13 1619.88 1106.48 1642.08 1087.17 1662.02 C 1065.94 1636.84 1021.74 1593.63 997.3 1573.44 C 1009.85 1554.35 1025.98 1531.99 1039.77 1513.89 C 1044.58 1505.74 1050.52 1496.38 1054.1 1487.77 C 1036.67 1444.91 1017.76 1415.69 1005.81 1367.03 C 987.468 1358.23 927.53 1349.07 903.695 1343.13 C 901.553 1325.47 906.135 1249.56 909.667 1230.83 C 913.747 1219.38 991.458 1210.26 1008.98 1205.39 C 1011.92 1190.54 1012.32 1188.6 1020.02 1175.69 z" fill="rgb(241,158,58)" transform="translate(0,0)"></path>
<path d="M 1298.64 1650.48 C 1334.96 1653.64 1301.95 1713.91 1342.81 1715.67 C 1365.95 1716.67 1391.85 1716.38 1415.05 1715.85 C 1441.6 1715.25 1438.05 1668.43 1454.94 1656.69 L 1439.68 1761.86 C 1397.93 1761.2 1355.19 1762.18 1313.26 1761.86 C 1308.09 1726.08 1305.67 1685.07 1298.64 1650.48 z" fill="rgb(223,120,35)" transform="translate(0,0)"></path>
<path d="M 997.3 1573.44 C 1009.85 1554.35 1025.98 1531.99 1039.77 1513.89 C 1041.89 1565.11 1059.89 1583.98 1102.9 1612.42 C 1122.22 1611.06 1150.67 1597.78 1165.38 1600.41 C 1143.13 1619.88 1106.48 1642.08 1087.17 1662.02 C 1065.94 1636.84 1021.74 1593.63 997.3 1573.44 z" fill="rgb(223,120,35)" transform="translate(0,0)"></path>
<path d="M 1734.88 1543.68 C 1741.14 1552.71 1749.52 1564.12 1754.9 1573.44 C 1731.48 1594.7 1686.36 1638.44 1666.7 1662.02 C 1636.34 1642.56 1603.34 1613.45 1573.85 1597.27 C 1590.94 1584.47 1622.18 1620.46 1651.05 1610.44 C 1677.2 1601.37 1721.94 1565.51 1734.88 1543.68 z" fill="rgb(223,120,35)" transform="translate(0,0)"></path>
<path d="M 909.667 1230.83 L 910.572 1233.19 C 916.399 1233.74 918.136 1231.04 923.971 1230.83 C 933.163 1314.27 900.035 1307.2 1005.81 1336.09 C 1005.88 1344.53 1006.42 1359.12 1005.81 1367.03 C 987.468 1358.23 927.53 1349.07 903.695 1343.13 C 901.553 1325.47 906.135 1249.56 909.667 1230.83 z" fill="rgb(223,120,35)" transform="translate(0,0)"></path>
<path d="M 1315.36 798.754 L 1430.4 798.754 C 1431.71 806.936 1433.07 814.666 1434.68 822.795 C 1438.55 843.504 1444.17 884.174 1454.94 900.42 C 1463.82 913.668 1557.04 933.129 1580.13 957.025 C 1585.41 959.439 1648.02 902.772 1658.95 893.767 C 1668.76 903.299 1676.09 910.479 1687.1 918.533 C 1707.83 941.531 1728.63 959.762 1748.65 984.68 C 1731.8 1010.48 1707.62 1036.86 1690.54 1062.22 C 1724.88 1117.92 1726.43 1144.24 1749.5 1194.82 C 1756.41 1209.95 1832.8 1208.07 1852.38 1213.96 L 1852.38 1304.64 C 1852.42 1316.93 1852.79 1330.99 1852.38 1343.13 C 1821.87 1346.29 1790.3 1354.04 1759.95 1358.94 C 1741.96 1361.85 1740.45 1383.8 1734.88 1398.05 C 1724.15 1394.5 1702.4 1402.67 1690.54 1402.77 C 1703.52 1370.13 1707.91 1355.11 1713.47 1320.28 C 1760.35 1000.94 1363.93 801.999 1129.44 1036.19 C 1111.95 1014.86 1089.78 983.254 1073.91 960.301 C 1082.7 944.374 1090.27 928.041 1099.49 912.357 C 1113.32 922.101 1157.84 950.604 1172.18 957.025 C 1190.59 948.701 1203.81 938.331 1225.9 929.102 C 1249.02 919.438 1278.53 912.872 1298.64 903.665 C 1304.8 878.794 1304.53 848.158 1313.26 822.795 C 1313.61 815.581 1313.74 805.509 1315.36 798.754 z" fill="rgb(241,158,58)" transform="translate(0,0)"></path>
<path d="M 1713.47 1320.28 C 1755.56 1319.4 1809.65 1310.51 1852.38 1304.64 C 1852.42 1316.93 1852.79 1330.99 1852.38 1343.13 C 1821.87 1346.29 1790.3 1354.04 1759.95 1358.94 C 1741.96 1361.85 1740.45 1383.8 1734.88 1398.05 C 1724.15 1394.5 1702.4 1402.67 1690.54 1402.77 C 1703.52 1370.13 1707.91 1355.11 1713.47 1320.28 z" fill="rgb(223,120,35)" transform="translate(0,0)"></path>
<path d="M 1315.36 798.754 L 1430.4 798.754 C 1431.71 806.936 1433.07 814.666 1434.68 822.795 L 1313.26 822.795 C 1313.61 815.581 1313.74 805.509 1315.36 798.754 z" fill="rgb(252,201,123)" transform="translate(0,0)"></path>
<path d="M 1580.13 957.025 C 1585.41 959.439 1648.02 902.772 1658.95 893.767 C 1668.76 903.299 1676.09 910.479 1687.1 918.533 L 1687.65 922.153 C 1683.53 925.03 1670.94 915.118 1666.7 912.357 C 1648.12 921.472 1612.7 957.335 1593.9 971.325 C 1588.66 967.368 1583.75 964.088 1579.71 958.914 L 1580.13 957.025 z" fill="rgb(252,201,123)" transform="translate(0,0)"></path>
<metadata><recraft-signature>{"signed_by": "recraft", "signature_b64": "t4WeADtRjdwky7MpHhhh1rb1uEW21Z/h+PFydHEYD4fiwg1y4E7AP/8PKrm/LZiH1GqoYFvUazGJ4Im3JtinDg==", "signing_algo": "Ed25519", "generation_timestamp": 1782395970, "identifier": "770ec18f-1530-4f1c-916d-f2bbb1146526"}</recraft-signature></metadata></svg>