<svg xmlns="http://www.w3.org/2000/svg" height="512" preserveAspectRatio="none" style="display: block;" version="1.1" viewBox="0 0 2048 2048" width="512">
<path d="M 1005.96 392.545 C 1252.65 383.012 1486.63 575.576 1512.23 824.41 C 1524.41 942.851 1491.69 1101.17 1417.15 1196 C 1399.12 1218.93 1375.85 1236.63 1355.01 1256.83 C 1292.3 1317.63 1238.14 1414.44 1231.23 1503.74 C 1229.67 1523.81 1230.1 1544.06 1230.1 1564.18 L 1230.15 1646.84 C 1230.2 1726.55 1225.47 1759.7 1147.3 1784.91 C 1136.3 1851.74 1102.39 1857.8 1040.5 1857.89 L 1000.36 1857.98 C 947.223 1858.07 911.721 1843.91 905.793 1784.91 C 827.41 1776.18 818.11 1710.69 818.107 1649.54 L 818.162 1557.45 C 818.276 1440.4 793.387 1365.51 710.027 1275.54 C 691.964 1256.04 671.747 1238.9 654.311 1218.73 C 384.657 906.846 585.956 410.646 1005.96 392.545 z" fill="rgb(13,28,78)" transform="translate(0,0)"></path>
<path d="M 977.809 444.227 C 1208.67 415.583 1436.14 592.653 1463.29 823.958 C 1473.57 911.602 1453.5 1057.09 1401.06 1129.65 C 1390.91 1150.61 1368.33 1179.38 1350.51 1194.8 C 1274.27 1260.76 1212.2 1355.41 1190.96 1454.81 L 1095.99 1454.81 L 1095.99 1188.11 C 1095.88 1179.53 1095.96 1170.91 1095.99 1162.33 C 1125.86 1122.51 1267.08 1010.59 1267.45 985.623 C 1267.94 952.536 1210.46 962.639 1187.77 962.751 C 1188.83 844.439 1049.28 854.143 1036.02 938.935 C 1035.05 946.994 1036.12 975.822 1017.43 964.787 C 1006.91 958.574 1012.24 939.452 1008.18 927.952 C 986.161 865.583 899.095 854.539 867.092 912.817 C 862.235 910.293 854.358 902.392 851.224 897.89 C 751.334 754.406 790.098 541.829 949.842 458.806 C 958.046 454.542 972.093 449.451 977.809 444.227 z" fill="rgb(246,179,93)" transform="translate(0,0)"></path>
<path d="M 1095.99 1188.11 C 1176.25 1188.26 1243.77 1186.65 1321.12 1160.36 C 1344.42 1152.44 1379.59 1134.53 1401.06 1129.65 C 1390.91 1150.61 1368.33 1179.38 1350.51 1194.8 C 1274.27 1260.76 1212.2 1355.41 1190.96 1454.81 L 1095.99 1454.81 L 1095.99 1188.11 z" fill="rgb(236,140,45)" transform="translate(0,0)"></path>
<path d="M 1014.89 513.21 C 1210.7 503.955 1395.59 691.582 1318.5 717.18 C 1297.14 716.333 1291.45 698.715 1278.97 683.225 C 1224.29 615.329 1142.51 569.826 1055.42 562.13 C 1040.98 560.854 1018.13 563.97 1004.58 558.34 C 983.461 544.228 991.431 517.772 1014.89 513.21 z" fill="rgb(13,28,78)" transform="translate(0,0)"></path>
<path d="M 1344.29 730.065 C 1388.95 726.161 1400.33 859.629 1401.19 889.325 C 1401.75 908.797 1402.79 922.327 1382.01 930.242 C 1338.07 931.02 1356.05 883.103 1350.12 847.679 C 1346.78 827.707 1342.7 808.233 1336.05 789.069 C 1328.05 764.345 1313.61 743.533 1344.29 730.065 z" fill="rgb(13,28,78)" transform="translate(0,0)"></path>
<path d="M 927.376 453.313 C 945.3 449.404 959.402 445.976 977.809 444.227 C 972.093 449.451 958.046 454.542 949.842 458.806 C 790.098 541.829 751.334 754.406 851.224 897.89 C 854.358 902.392 862.235 910.293 867.092 912.817 C 855.589 931.029 854.268 941.171 855.052 962.751 C 757.406 962.269 759.49 970.241 831.52 1040.9 L 914.429 1123.55 C 926.749 1135.67 942.301 1148.39 951.706 1162.33 L 951.679 1358.37 C 951.676 1370.71 952.686 1451.3 950.463 1454.79 L 948.531 1454.81 C 922.697 1455.98 887.163 1454.85 860.584 1454.81 C 823.908 1318.27 782.145 1287.88 696.49 1193.77 C 487.272 963.902 571.114 588.05 864.554 471.268 C 881.088 464.688 910.091 455.479 927.376 453.313 z" fill="rgb(236,140,45)" transform="translate(0,0)"></path>
<path d="M 860.584 1454.81 C 823.908 1318.27 782.145 1287.88 696.49 1193.77 C 487.272 963.902 571.114 588.05 864.554 471.268 C 881.088 464.688 910.091 455.479 927.376 453.313 C 928.428 453.81 929.445 454.294 930.488 454.812 L 929.912 455.08 L 929.413 456.384 C 813.977 507.114 736.685 588.065 690.609 703.283 C 625.309 866.573 671.109 1041.27 779.217 1172.96 C 856.595 1267.22 907.627 1325.22 933.336 1454.81 C 937.546 1454.69 944.59 1454.28 948.531 1454.81 C 922.697 1455.98 887.163 1454.85 860.584 1454.81 z" fill="rgb(195,96,28)" transform="translate(0,0)"></path>
<path d="M 927.376 1008.11 C 935.195 1003.42 936.706 1001.43 941.014 993.241 C 971.739 1048.52 1026.67 1083.51 1052.45 1140.63 C 1045.65 1146.09 1049.09 1171.37 1049.08 1179.98 L 1049.08 1454.81 L 1034.83 1454.81 L 999.035 1454.81 L 999.035 1140.63 C 989.505 1128.01 973.148 1116.4 962.341 1104.65 C 931.954 1071.63 897.309 1041.08 867.092 1008.11 C 887.063 1008.19 907.441 1008.48 927.376 1008.11 z" fill="rgb(195,96,28)" transform="translate(0,0)"></path>
<path d="M 927.376 1008.11 C 935.195 1003.42 936.706 1001.43 941.014 993.241 C 971.739 1048.52 1026.67 1083.51 1052.45 1140.63 C 1045.65 1146.09 1049.09 1171.37 1049.08 1179.98 L 1049.08 1454.81 L 1034.83 1454.81 L 1034.79 1234.11 C 1034.45 1199.49 1030.15 1164.8 1031.74 1129.65 C 996.144 1099.4 931.336 1059.08 927.376 1008.11 z" fill="rgb(236,140,45)" transform="translate(0,0)"></path>
<path d="M 964.753 962.751 C 974.057 1014.77 1040.32 1033.81 1072.05 987.528 C 1082.29 972.591 1080.55 961.724 1083.44 945.149 C 1089.52 910.199 1146.33 909.287 1140.52 962.751 C 1079.38 961.826 1103.05 1014.48 1143.72 1008.33 C 1153.53 1006.85 1173.19 1008.33 1182.17 1008.11 C 1144.04 1049.37 1084.39 1098.29 1052.45 1140.63 C 1026.67 1083.51 971.739 1048.52 941.014 993.241 C 945.659 961.146 925.548 962.922 901.19 962.751 C 900.393 944.031 904.909 932.849 921.279 923.821 C 952.405 913.734 965.902 935.806 964.753 962.751 z" fill="rgb(247,156,7)" transform="translate(0,0)"></path>
<path d="M 921.279 923.821 C 952.405 913.734 965.902 935.806 964.753 962.751 C 946.28 951.239 935.977 939.627 921.279 923.821 z" fill="rgb(246,179,93)" transform="translate(0,0)"></path>
<path d="M 972.116 1680.98 L 1182.17 1680.98 C 1181.86 1741.75 1142.45 1737.17 1093.03 1737.03 L 1014.89 1736.98 C 989.317 1734.2 972.515 1705.12 972.116 1680.98 z" fill="rgb(92,116,160)" transform="translate(0,0)"></path>
<path d="M 972.116 1501.93 L 1182.17 1501.93 L 1182.17 1548.94 L 972.116 1548.94 C 971.395 1545.79 972.083 1508.15 972.116 1501.93 z" fill="rgb(92,116,160)" transform="translate(0,0)"></path>
<path d="M 972.116 1596.93 L 1182.17 1596.93 C 1182.6 1610.02 1182.76 1621.21 1182.17 1634.34 L 972.116 1634.34 L 972.116 1596.93 z" fill="rgb(92,116,160)" transform="translate(0,0)"></path>
<path d="M 867.092 1680.98 L 972.116 1680.98 C 972.515 1705.12 989.317 1734.2 1014.89 1736.98 C 995.973 1737.4 976.14 1736.91 957.081 1737.02 C 910.258 1734.53 872.745 1744.64 867.092 1680.98 z" fill="rgb(44,78,153)" transform="translate(0,0)"></path>
<path d="M 867.092 1501.93 L 972.116 1501.93 C 972.083 1508.15 971.395 1545.79 972.116 1548.94 L 867.092 1548.94 L 867.092 1501.93 z" fill="rgb(44,78,153)" transform="translate(0,0)"></path>
<path d="M 867.092 1596.93 L 972.116 1596.93 L 972.116 1634.34 C 938.004 1635.05 901.409 1634.35 867.092 1634.34 C 867.547 1621.15 867.423 1610.13 867.092 1596.93 z" fill="rgb(44,78,153)" transform="translate(0,0)"></path>
<path d="M 951.706 1784.91 L 1098.93 1784.91 C 1096.9 1793.02 1095.36 1796.8 1090.95 1803.6 C 1078.78 1815.98 981.412 1812.89 970.387 1808.73 C 960.312 1804.92 955.683 1794.07 951.706 1784.91 z" fill="rgb(44,78,153)" transform="translate(0,0)"></path>
<path d="M 1020.37 181.257 C 1052.91 178.273 1049.93 220.671 1049.16 242.584 C 1048.23 268.871 1056.51 296.661 1028.1 307.298 C 982.168 309.872 996.596 206.291 1002.32 193.955 C 1005.59 186.912 1013.48 183.56 1020.37 181.257 z" fill="rgb(44,78,153)" transform="translate(0,0)"></path>
<path d="M 495.949 1188.11 C 516.257 1187.59 529.131 1207.22 521.135 1224.8 C 516.255 1235.53 453.068 1267.13 438.6 1271.71 C 412.386 1271.11 403.716 1242.37 414.082 1231.77 C 423.911 1221.73 483.294 1190.32 495.949 1188.11 z" fill="rgb(44,78,153)" transform="translate(0,0)"></path>
<path d="M 1631.46 877.456 C 1656.67 877.36 1685.14 876.359 1710 878.442 C 1736.9 880.698 1740.95 919.412 1708.96 923.821 L 1657.35 923.988 C 1586.55 924.182 1599.03 882.348 1631.46 877.456 z" fill="rgb(44,78,153)" transform="translate(0,0)"></path>
<path d="M 343.086 872.998 C 366.726 872.659 431.314 863.673 434.54 894.07 C 436.145 909.201 427.668 918.888 414.241 923.821 C 396.427 924.048 345.182 927.205 331.204 918.65 C 308.535 904.774 320.426 877.822 343.086 872.998 z" fill="rgb(44,78,153)" transform="translate(0,0)"></path>
<path d="M 432.486 526.973 C 451.522 523.085 510.774 563.696 518.935 577.116 C 519.658 595.391 516.499 602.299 499.162 609.954 C 483.016 609.742 456.033 588.719 441.573 581.085 C 412.52 565.746 394.937 534.291 432.486 526.973 z" fill="rgb(44,78,153)" transform="translate(0,0)"></path>
<path d="M 1548.5 1193.02 C 1561.9 1192.73 1616.8 1218.35 1627.9 1228.95 C 1642.57 1242.94 1635.73 1265.24 1615.89 1271.71 C 1595.46 1273.72 1479.76 1220.78 1548.5 1193.02 z" fill="rgb(44,78,153)" transform="translate(0,0)"></path>
<path d="M 678.806 276.412 C 693.769 276.133 776.866 365.538 717.259 380.865 C 694.894 382.456 692.767 364.072 682.113 349.868 C 667.665 330.605 631.208 283.838 678.806 276.412 z" fill="rgb(44,78,153)" transform="translate(0,0)"></path>
<path d="M 1363.38 276.412 C 1426.21 273.735 1360.44 348.148 1354.77 361.443 C 1350.3 371.911 1342.45 377.549 1332.33 380.865 C 1266.6 380.39 1343.01 280.075 1363.38 276.412 z" fill="rgb(44,78,153)" transform="translate(0,0)"></path>
<path d="M 1615.89 526.973 C 1642.44 525.627 1649.22 564.907 1619.87 576.318 C 1603.37 582.73 1575.36 606.226 1557.63 609.954 C 1539.97 609.319 1526.78 592.34 1535.44 575.708 C 1541.78 563.524 1601.48 531.813 1615.89 526.973 z" fill="rgb(44,78,153)" transform="translate(0,0)"></path>
<metadata><recraft-signature>{"signed_by": "recraft", "signature_b64": "GUTXmb5sAQyL4fjobjMxm0IxiGrMEZ3xASKy3HyeEr+Y4EAlgzkm2BJLY9dtUHe31lL7E+jnGWOWLwr8sD5bBw==", "signing_algo": "Ed25519", "generation_timestamp": 1782396057, "identifier": "b6f87694-15a0-4960-b270-037dab0ac35b"}</recraft-signature></metadata></svg>