<svg version="1.1" xmlns="http://www.w3.org/2000/svg" style="display: block;" viewBox="0 0 2048 2048" width="512" height="512" preserveAspectRatio="none">
<path transform="translate(0,0)" fill="rgb(81,85,117)" d="M 1182.54 187.27 C 1220.39 183.194 1307.6 220.477 1347.87 234.642 L 1577.01 314.934 L 1713.41 362.752 C 1740.82 372.252 1773.32 381.137 1798.47 395.08 C 1821.43 409.954 1837.21 435.254 1843.97 460.965 C 1851.72 490.444 1840.92 511.451 1830.98 538.313 C 1824.61 555.525 1818.11 572.525 1811.71 589.642 L 1750.87 753.887 C 1723.62 828.062 1695.96 902.087 1667.9 975.96 C 1659.32 999.02 1650.61 1022.03 1641.77 1044.99 C 1623.38 1092.9 1610.78 1134.17 1555.55 1148.17 C 1513.38 1159.15 1471.27 1136.29 1432.12 1121.65 L 1289.46 1068.23 L 1063.63 983.872 L 997.075 959.032 C 961.133 945.605 899.463 927.457 890.87 884.505 C 887.552 867.923 892.312 841.683 897.432 825.789 C 910.781 784.353 926.401 743.3 941.257 702.322 L 1021.64 480.372 L 1077.55 325.852 C 1081.55 314.78 1085.94 303.09 1089.77 292.026 C 1108.67 237.517 1118.84 198.611 1182.54 187.27 z M 1549.42 1122.8 C 1600.04 1105.44 1606.72 1060.94 1623.3 1015.83 C 1627.24 1005.09 1631.1 994.318 1635.09 983.601 L 1711.02 780.69 L 1778.35 601.002 C 1799.99 544.526 1856.35 450.76 1774.36 413.221 C 1752.88 403.385 1725.47 395.587 1702.77 387.654 L 1567.22 339.953 L 1355.69 265.723 C 1323.99 254.539 1213.77 211.079 1186.89 214.293 C 1138.03 224.766 1133.16 253.442 1117.49 296.435 C 1114.05 305.879 1110.68 315.661 1107.26 325.147 L 1060.28 454.733 L 972.686 696.626 C 956.667 740.86 939.838 785.256 925.368 829.932 C 916.51 857.28 909.397 891.241 939.993 907.485 C 968.418 922.576 999.719 932.062 1029.91 943.095 L 1162.18 992.593 L 1388.62 1077.23 C 1406.88 1084.07 1425.6 1091.19 1443.67 1098.27 C 1470.28 1108.69 1521.16 1131.07 1549.42 1122.8 z"/>
<path transform="translate(0,0)" fill="rgb(240,127,78)" d="M 1361.02 572.057 C 1411.9 570.052 1454.86 609.498 1457.19 660.366 C 1459.52 711.234 1420.36 754.446 1369.5 757.107 C 1318.18 759.792 1274.49 720.187 1272.14 668.853 C 1269.78 617.519 1309.67 574.081 1361.02 572.057 z"/>
<path transform="translate(0,0)" fill="rgb(81,85,117)" d="M 787.911 868.387 C 849.628 863.047 873.145 919.273 898.96 964.535 C 907.983 980.356 916.708 996.405 925.602 1012.3 L 1028.74 1197.63 L 1111.52 1346.39 C 1126.62 1373.44 1142.47 1400.15 1156.3 1427.85 C 1199.45 1514.3 1113.51 1556.65 1052.14 1591.51 L 995.897 1624.03 L 794.811 1740.66 L 675.282 1809.74 C 645.291 1826.97 620.24 1848.31 583.974 1848.77 C 560.132 1847.45 539.85 1841.71 520.727 1826.75 C 510.249 1817.79 495.367 1802.31 488.883 1790.27 C 449.984 1718.05 410.02 1645.92 370.239 1574.24 L 265.909 1386.53 C 248.256 1354.81 230.194 1322.8 212.924 1290.85 C 207.552 1280.91 203.873 1268.77 202.62 1257.52 C 199.833 1230.68 207.696 1203.82 224.515 1182.72 C 231.44 1174.15 240.188 1166.57 249.615 1160.9 C 281.324 1141.82 314.59 1124.74 346.955 1106.74 L 508.771 1015.26 C 583.159 973.257 655.288 927.022 731.192 888.104 C 749.444 878.746 767.355 870.564 787.911 868.387 z M 582.806 1821.98 C 612.644 1821.93 661.071 1787.29 687.914 1771.4 L 800.908 1705.8 L 1004.97 1587.35 C 1065.8 1552.38 1175.61 1518.12 1126.48 1428.34 C 1111.69 1401.31 1096.39 1374.71 1081.36 1347.83 L 989.475 1183.21 L 896.195 1016.03 C 874.254 975.973 845.386 892.228 789.528 895.424 C 757.194 897.754 692.274 941.275 662.058 958.721 L 519.823 1039.64 L 340.265 1141.57 C 315.042 1155.8 288.978 1169.52 263.808 1183.84 C 218.421 1209.66 224.666 1251.72 245.459 1292.04 C 260.453 1321.12 276.766 1349.37 292.644 1377.93 L 379.292 1533.83 L 469.746 1696.73 C 482.443 1719.63 495.112 1742.51 507.861 1765.43 C 515.63 1779.4 524.681 1796.4 536.962 1806.99 C 549.571 1817.85 566.864 1820.04 582.806 1821.98 z"/>
<path transform="translate(0,0)" fill="rgb(240,127,78)" d="M 759.506 1038.37 C 797.082 1033.36 831.609 1059.74 836.652 1097.31 C 841.695 1134.89 815.347 1169.44 777.781 1174.52 C 740.162 1179.61 705.55 1153.21 700.5 1115.59 C 695.45 1077.97 721.877 1043.38 759.506 1038.37 z"/>
<path transform="translate(0,0)" fill="rgb(240,127,78)" d="M 428.729 1228.24 C 466.312 1228.08 497 1258.24 497.485 1295.83 C 497.97 1333.41 468.073 1364.35 430.498 1365.16 C 392.46 1365.98 361.047 1335.64 360.556 1297.59 C 360.064 1259.55 390.682 1228.4 428.729 1228.24 z"/>
<path transform="translate(0,0)" fill="rgb(240,127,78)" d="M 602.38 1545.51 C 640.032 1545.23 670.79 1575.51 671.099 1613.16 C 671.408 1650.82 641.151 1681.6 603.499 1681.93 C 565.807 1682.27 534.986 1651.98 534.677 1614.28 C 534.368 1576.59 564.688 1545.79 602.38 1545.51 z"/>
<path transform="translate(0,0)" fill="rgb(240,127,78)" d="M 922.841 1360.27 C 959.945 1357.75 992.039 1385.85 994.434 1422.96 C 996.829 1460.08 968.613 1492.07 931.492 1494.34 C 894.555 1496.59 862.752 1468.54 860.369 1431.61 C 857.986 1394.69 885.92 1362.78 922.841 1360.27 z"/>
</svg>