<svg version="1.1" xmlns="http://www.w3.org/2000/svg" style="display: block;" viewBox="0 0 2048 2048" width="512" height="512" preserveAspectRatio="none">
<path transform="translate(0,0)" fill="rgb(162,116,77)" d="M 1235.42 205.341 C 1273.73 198.016 1345.26 226.198 1382.16 238.414 L 1511.23 280.462 L 1686.52 337.493 C 1718.44 347.846 1771.65 361.381 1799.55 378.499 C 1836.99 401.474 1859.98 464.343 1848.97 506.559 C 1841.65 534.626 1831.57 565.413 1822.08 593.945 L 1770.94 744.124 L 1695.09 965.943 C 1664.86 1052.29 1658.89 1120.3 1554.73 1136.67 C 1514.54 1142.64 1459.65 1119.52 1420.13 1106.86 L 1275.91 1061.28 L 1119.16 1011.88 C 1090 1002.86 1049.81 991.676 1022.07 981.308 C 1011.38 977.4 1001.26 972.078 991.986 965.485 C 964.192 945.628 945.559 915.42 940.287 881.67 C 937.554 864.349 939.1 848.242 943.396 831.372 C 965.979 742.681 1000.34 656.425 1029.47 569.814 L 1086.71 398.5 C 1115.52 311.734 1128.71 221.405 1235.42 205.341 z M 1546.98 1113.25 C 1595.69 1110.68 1623.38 1089.71 1641.93 1043.9 C 1655.48 1010.45 1666.18 975.806 1677.8 941.645 L 1734.19 776.571 L 1792.41 606.088 C 1801.66 578.964 1811.11 551.452 1820.19 524.393 C 1838.94 468.469 1818.57 406.472 1760.58 385.402 C 1738.03 377.212 1714.72 371.272 1691.86 363.901 L 1538.53 313.981 L 1394.51 267.056 C 1359.56 255.392 1281.23 224.638 1246.36 228.374 C 1192.5 235.037 1161.36 258.411 1142.06 309.716 C 1132.21 335.916 1124.16 362.362 1115.44 388.93 L 1069.78 525.804 L 1008.05 709.964 C 996.33 745.253 983.505 780.831 973.847 816.695 C 967.645 839.727 963.442 864.968 965.896 888.747 C 969.906 929.327 1003.19 947.864 1037.99 960.977 C 1067.92 972.253 1099.28 981.163 1130.13 990.818 L 1277.64 1037.36 L 1411.46 1079.69 C 1450.3 1092.23 1507.01 1114.94 1546.98 1113.25 z"/>
<path transform="translate(0,0)" fill="rgb(236,148,74)" d="M 1394.22 576.169 C 1437.91 574.771 1474.47 609.023 1475.93 652.708 C 1477.38 696.394 1443.18 733.002 1399.49 734.514 C 1355.73 736.028 1319.04 701.748 1317.58 657.982 C 1316.13 614.216 1350.45 577.57 1394.22 576.169 z"/>
<path transform="translate(0,0)" fill="rgb(248,229,205)" d="M 1386.92 601.461 C 1406.27 597.886 1426.04 604.987 1438.69 620.051 C 1451.33 635.115 1454.91 655.816 1448.04 674.248 C 1441.17 692.68 1424.92 705.996 1405.5 709.112 C 1375.96 713.85 1348.11 693.947 1343.02 664.466 C 1337.93 634.986 1357.51 606.898 1386.92 601.461 z"/>
<path transform="translate(0,0)" fill="rgb(236,148,74)" d="M 1647.08 436.094 C 1690.41 432.648 1728.32 464.987 1731.75 508.317 C 1735.18 551.647 1702.83 589.551 1659.5 592.968 C 1616.19 596.383 1578.31 564.049 1574.88 520.741 C 1571.45 477.432 1603.77 439.539 1647.08 436.094 z"/>
<path transform="translate(0,0)" fill="rgb(248,229,205)" d="M 1643.92 461.506 C 1673.41 456.469 1701.37 476.387 1706.25 505.905 C 1711.12 535.424 1691.05 563.273 1661.5 567.983 C 1632.19 572.657 1604.6 552.775 1599.77 523.487 C 1594.93 494.198 1614.66 466.504 1643.92 461.506 z"/>
<path transform="translate(0,0)" fill="rgb(236,148,74)" d="M 1518.16 858.531 C 1560.99 858.344 1595.91 892.813 1596.27 935.636 C 1596.64 978.46 1562.32 1013.52 1519.5 1014.07 C 1476.42 1014.62 1441.1 980.051 1440.73 936.971 C 1440.36 893.891 1475.08 858.719 1518.16 858.531 z M 1511.83 887.915 C 1493.04 887.546 1469.24 906.819 1465.87 928.596 C 1465.92 928.937 1465.96 929.277 1466.01 929.618 C 1477.32 923.826 1479.49 910.804 1489.09 902.548 C 1496.08 896.546 1505.09 894.406 1511.83 887.915 z"/>
<path transform="translate(0,0)" fill="rgb(248,229,205)" d="M 1511.83 887.915 L 1512.51 886.245 C 1521.93 883.204 1533.46 885.856 1542.11 890.105 C 1555.38 896.661 1565.35 908.406 1569.67 922.564 C 1573.57 935.75 1572.07 949.946 1565.5 962.026 C 1558.51 974.993 1546.52 984.543 1532.32 988.466 C 1518.01 992.2 1502.8 989.838 1490.3 981.942 C 1476.75 973.501 1458.39 945.563 1466.01 929.618 C 1477.32 923.826 1479.49 910.804 1489.09 902.548 C 1496.08 896.546 1505.09 894.406 1511.83 887.915 z"/>
<path transform="translate(0,0)" fill="rgb(236,148,74)" d="M 1267.35 320.353 C 1309.51 313.067 1349.59 341.368 1356.82 383.536 C 1364.05 425.704 1335.7 465.743 1293.53 472.926 C 1251.42 480.096 1211.47 451.806 1204.25 409.711 C 1197.03 367.615 1225.27 327.627 1267.35 320.353 z"/>
<path transform="translate(0,0)" fill="rgb(248,229,205)" d="M 1275.22 344.436 C 1304.23 341.194 1330.38 362.087 1333.62 391.102 C 1336.86 420.116 1315.96 446.261 1286.95 449.494 C 1257.94 452.728 1231.8 431.835 1228.56 402.827 C 1225.32 373.82 1246.21 347.678 1275.22 344.436 z"/>
<path transform="translate(0,0)" fill="rgb(236,148,74)" d="M 1135.55 748.081 C 1178.37 744.678 1215.75 776.83 1218.79 819.674 C 1221.83 862.518 1189.36 899.623 1146.49 902.297 C 1104.13 904.938 1067.57 872.941 1064.57 830.611 C 1061.57 788.28 1093.25 751.443 1135.55 748.081 z"/>
<path transform="translate(0,0)" fill="rgb(248,229,205)" d="M 1135.18 773.463 C 1163.86 769.538 1190.29 789.588 1194.24 818.261 C 1198.19 846.933 1178.16 873.385 1149.5 877.361 C 1120.79 881.343 1094.3 861.286 1090.34 832.577 C 1086.39 803.868 1106.47 777.393 1135.18 773.463 z"/>
<path transform="translate(0,0)" fill="rgb(236,148,74)" d="M 684.283 837.397 C 690.855 836.237 702.249 836.893 708.95 837.521 C 773.513 843.572 813.728 897.086 856.414 939.92 L 996.497 1079.59 C 1038.18 1120.29 1079.64 1161.2 1120.89 1202.33 C 1135.49 1216.85 1155.6 1233.02 1168.08 1248.5 C 1248.09 1347.73 1146.25 1428.48 1081.5 1494.17 L 927.921 1649.35 C 904.24 1673.45 881.363 1697.67 858.501 1722.56 C 816.68 1768.1 772.847 1820.06 708.794 1830.91 C 626.303 1836.71 591.679 1781.93 540.362 1729.23 C 512.957 1701.1 483.979 1672.9 456.074 1645.12 L 301.337 1491.02 C 260.859 1450.66 200.508 1403.47 193.859 1344.24 C 189.932 1309.81 199.906 1275.24 221.567 1248.19 C 235.161 1231.13 260.795 1207.26 276.95 1191.16 L 375.323 1092.97 C 430.808 1036.62 487.168 981.147 544.383 926.561 C 568.072 903.562 594.103 874.842 620.305 855.553 C 636.129 843.903 665.01 839.605 684.283 837.397 z"/>
<path transform="translate(0,0)" fill="rgb(248,229,205)" d="M 698.716 859.431 C 750.258 854.93 815.033 933.548 848.904 967.243 L 981.997 1098.59 L 1082.23 1197.46 C 1122.15 1236.85 1186.52 1287.04 1169.08 1349.65 C 1163.27 1370.51 1154.4 1384.86 1139.61 1400.65 C 1117.68 1424.04 1094.39 1445.95 1071.87 1468.76 L 927.603 1615.22 L 827.273 1717.18 C 789.445 1755.61 749.417 1806.41 692.186 1809.29 C 669.524 1808.29 647.768 1800.11 630.064 1785.93 C 616.296 1774.69 596.838 1752.4 582.986 1738.51 L 479.722 1635.65 L 328.149 1484.61 C 298.727 1455.25 266.821 1424.76 239.991 1393.01 C 229.003 1379.11 218.652 1359.59 217.233 1341.73 C 212.631 1282.84 264.707 1238.03 302.582 1200.22 C 330.829 1172.02 360.432 1145.21 387.678 1116.02 C 419.222 1082.23 452.576 1050.19 485.334 1017.58 C 496.09 1006.88 513.261 998.684 523.755 987.017 C 566.27 945.45 604.908 898.728 656.023 867.179 C 665.62 861.256 687.158 860.472 698.716 859.431 z"/>
<path transform="translate(0,0)" fill="rgb(162,116,77)" d="M 956.832 1257.51 C 996.978 1256.31 1030.52 1287.84 1031.8 1327.98 C 1033.09 1368.12 1001.64 1401.74 961.502 1403.12 C 921.23 1404.5 887.485 1372.93 886.193 1332.65 C 884.901 1292.38 916.554 1258.7 956.832 1257.51 z"/>
<path transform="translate(0,0)" fill="rgb(236,148,74)" d="M 955.871 1280.4 C 983.282 1278.67 1006.93 1299.43 1008.76 1326.84 C 1010.58 1354.24 989.898 1377.96 962.498 1379.88 C 934.971 1381.8 911.117 1361 909.283 1333.47 C 907.448 1305.93 928.331 1282.15 955.871 1280.4 z"/>
<path transform="translate(0,0)" fill="rgb(162,116,77)" d="M 680.683 1515.59 C 720.224 1509.34 757.321 1536.4 763.431 1575.97 C 769.542 1615.53 742.34 1652.53 702.754 1658.5 C 663.371 1664.43 626.604 1637.4 620.525 1598.04 C 614.446 1558.68 641.344 1521.81 680.683 1515.59 z"/>
<path transform="translate(0,0)" fill="rgb(236,148,74)" d="M 690.626 1537.57 C 717.881 1536.5 740.843 1557.73 741.914 1584.98 C 742.986 1612.23 721.761 1635.2 694.506 1636.27 C 667.249 1637.34 644.284 1616.12 643.212 1588.86 C 642.141 1561.6 663.369 1538.64 690.626 1537.57 z"/>
<path transform="translate(0,0)" fill="rgb(162,116,77)" d="M 416.156 1259.55 C 455.627 1253.59 492.454 1280.76 498.419 1320.23 C 504.384 1359.7 477.229 1396.53 437.761 1402.5 C 398.28 1408.48 361.432 1381.31 355.465 1341.83 C 349.498 1302.35 376.673 1265.51 416.156 1259.55 z"/>
<path transform="translate(0,0)" fill="rgb(236,148,74)" d="M 418.207 1282.53 C 444.96 1277.56 470.648 1295.32 475.451 1322.1 C 480.253 1348.89 462.336 1374.46 435.521 1379.1 C 408.946 1383.69 383.647 1365.96 378.887 1339.42 C 374.127 1312.87 391.691 1287.46 418.207 1282.53 z"/>
<path transform="translate(0,0)" fill="rgb(162,116,77)" d="M 678.082 1004.4 C 717.516 998.096 754.577 1025.01 760.782 1064.46 C 766.986 1103.91 739.976 1140.9 700.51 1147 C 661.189 1153.08 624.365 1126.19 618.184 1086.89 C 612.002 1047.58 638.794 1010.69 678.082 1004.4 z"/>
<path transform="translate(0,0)" fill="rgb(236,148,74)" d="M 681.266 1027.58 C 707.983 1023.09 733.282 1041.11 737.771 1067.82 C 742.26 1094.54 724.238 1119.84 697.52 1124.32 C 670.805 1128.81 645.511 1110.79 641.023 1084.08 C 636.535 1057.36 654.551 1032.07 681.266 1027.58 z"/>
</svg>