<svg xmlns="http://www.w3.org/2000/svg" height="512" preserveAspectRatio="none" style="display: block;" version="1.1" viewBox="0 0 2048 2048" width="512">
<path d="M 1182.54 187.023 C 1224.86 185.07 1283.38 212.21 1324 226.395 L 1719.78 365.26 C 1742.51 373.111 1769.26 380.579 1790.72 390.953 C 1828.23 409.09 1857.62 465.591 1842.18 506.633 C 1776.68 680.738 1713.5 856.461 1646.93 1030.27 L 1630.09 1073.57 C 1614.59 1113.65 1597.44 1136.68 1552.77 1149.17 C 1514.87 1156.54 1494.32 1145.04 1460.27 1132.06 L 973.848 950.272 C 884.042 916.093 873.198 889.93 908.49 793.526 L 1106.21 247.624 C 1119.25 212.247 1146.2 193.988 1182.54 187.023 z M 1542.48 1124.98 C 1601.24 1111.47 1607.52 1058.17 1625.52 1009.9 L 1780.56 595.726 C 1799.74 543.595 1845.65 471.961 1795.75 426.413 C 1779.85 411.906 1754.08 405.465 1733.72 398.368 L 1356.84 266.062 C 1326.63 255.506 1216.49 213.366 1192.65 213.37 C 1140.09 219.186 1132.58 251.976 1117.26 296.018 L 939.964 785.533 C 896.379 903.073 912.276 900.854 1015.14 937.837 L 1426.9 1091.77 C 1463.56 1105.61 1502.58 1125.89 1542.48 1124.98 z" fill="rgb(79,84,115)" transform="translate(0,0)"></path>
<path d="M 1357.29 572.901 C 1407.64 568.951 1451.79 606.273 1456.27 656.58 C 1460.75 706.887 1423.9 751.426 1373.64 756.439 C 1340.66 759.729 1308.45 745.046 1289.29 717.989 C 1270.14 690.932 1267 655.672 1281.07 625.656 C 1295.14 595.639 1324.24 575.493 1357.29 572.901 z" fill="rgb(239,127,76)" transform="translate(0,0)"></path>
<path d="M 779.598 869.339 C 841.695 859.163 866.626 907.031 890.996 950.985 L 1152.44 1420.63 C 1205.36 1517.71 1107.21 1559.12 1042.95 1596.3 L 660.085 1818.38 C 634.452 1833.83 621.517 1844.31 591.25 1848.99 C 502.827 1849.89 482.633 1775.54 445.109 1708.32 L 211.139 1287.41 C 190.535 1243.24 206.846 1187.24 248.66 1161.74 C 278.604 1143.48 310.583 1127.67 341.244 1110.31 L 541.304 997.125 C 584.629 973.028 738.965 874.95 779.598 869.339 z M 585.36 1822.41 C 617.572 1819.89 655.295 1790.61 683.289 1774.38 L 1011.98 1583.68 C 1056.14 1558.52 1146.27 1526.31 1139.2 1465.51 C 1135.68 1437.42 1113.4 1404.2 1099.42 1379.62 L 891.81 1007.7 C 868.355 965.28 845.059 889.286 784.059 895.29 C 753.435 900.574 696.999 938.389 667.971 955.042 L 324.835 1149.89 C 304.059 1161.7 282.518 1172.32 261.876 1184.4 C 195.359 1223.35 246.446 1294.73 270.792 1339.34 L 501.75 1755.06 C 524.009 1795.85 533.336 1819.71 585.36 1822.41 z" fill="rgb(79,84,115)" transform="translate(0,0)"></path>
<path d="M 758.416 1039.18 C 795.667 1033.61 830.374 1059.31 835.921 1096.56 C 841.468 1133.82 815.754 1168.51 778.497 1174.04 C 741.267 1179.56 706.604 1153.87 701.061 1116.64 C 695.518 1079.42 721.192 1044.74 758.416 1039.18 z" fill="rgb(239,127,76)" transform="translate(0,0)"></path>
<path d="M 417.957 1229.63 C 455.103 1223.55 490.12 1248.8 496.087 1285.96 C 502.053 1323.13 476.701 1358.07 439.52 1363.93 C 402.492 1369.76 367.725 1344.54 361.783 1307.53 C 355.841 1270.52 380.964 1235.68 417.957 1229.63 z" fill="rgb(239,127,76)" transform="translate(0,0)"></path>
<path d="M 593.913 1546.71 C 631.051 1541.76 665.154 1567.91 670.009 1605.06 C 674.864 1642.21 648.627 1676.24 611.462 1680.99 C 574.439 1685.73 540.564 1659.62 535.728 1622.61 C 530.891 1585.6 556.916 1551.65 593.913 1546.71 z" fill="rgb(239,127,76)" transform="translate(0,0)"></path>
<path d="M 926.346 1360.63 C 962.955 1360.1 993.154 1389.17 994.019 1425.77 C 994.885 1462.37 966.095 1492.84 929.502 1494.04 C 892.431 1495.25 861.482 1466.01 860.605 1428.92 C 859.728 1391.84 889.259 1361.16 926.346 1360.63 z" fill="rgb(239,127,76)" transform="translate(0,0)"></path>
<metadata><recraft-signature>{"signed_by": "recraft", "signature_b64": "461LIb36PyQhbaA1RPuCCgni5GzuDUnsLoZ7iKuklSM20RplJ/o126RGJ00NrcgupfXxl1QK14JuXcIqW4i1Bw==", "signing_algo": "Ed25519", "generation_timestamp": 1782332353, "identifier": "3a21bf65-82a7-4df8-9545-923fb3fb7425"}</recraft-signature></metadata></svg>