<svg xmlns="http://www.w3.org/2000/svg" height="512" preserveAspectRatio="none" style="display: block;" version="1.1" viewBox="0 0 2048 2048" width="512">
<defs>
	<linearGradient gradientUnits="userSpaceOnUse" id="Gradient1" x1="668.214" x2="1190.34" y1="1024.83" y2="780.236">
		<stop class="stop0" offset="0" stop-color="rgb(66,95,141)" stop-opacity="1"></stop>
		<stop class="stop1" offset="1" stop-color="rgb(85,117,165)" stop-opacity="1"></stop>
	</linearGradient>
</defs>
<path d="M 165.541 854.957 C 139.16 782.026 154.881 753.274 187.743 689.022 L 286.311 497.709 C 331.904 410.452 341.888 411.386 440.355 384.265 L 814.301 278.028 C 872.514 260.686 912.322 240.491 960.457 289.851 C 975.158 309.195 987.497 348.198 996.6 372.254 L 1093.97 628.865 C 1097.73 639.011 1120.84 703.653 1124.94 709.526 C 1145.09 700.706 1176.81 695.436 1198.59 688.595 C 1249.65 672.559 1284.53 660.171 1335.04 686.749 C 1386.85 711.613 1442.4 743.365 1492.81 771.107 L 1832.76 956.91 C 1923.53 1007.1 1904.75 1066.25 1866.42 1148.56 L 1607.74 1704.59 C 1581.49 1760.29 1519.16 1776.95 1465.29 1749.11 C 1408.25 1719.63 1351.97 1689.05 1295.39 1658.74 L 1091.47 1550.21 C 1063.51 1535.1 995.284 1504.58 974.161 1486.7 C 925.043 1466.79 849.768 1428.46 832.018 1378.3 C 816.111 1333.36 843.11 1288.78 861.604 1248.54 C 856.364 1249 850.249 1250.43 845.045 1251.57 C 739.258 1274.72 629.476 1305.22 523.739 1332.36 L 464.532 1347.03 C 450.506 1350.39 436.802 1354.28 422.345 1355.45 C 339.925 1366.13 319.193 1254.54 297.184 1198.14 L 165.541 854.957 z" fill="rgb(60,89,140)" transform="translate(0,0)"></path>
<path d="M 1124.94 709.526 C 1145.09 700.706 1176.81 695.436 1198.59 688.595 C 1249.65 672.559 1284.53 660.171 1335.04 686.749 C 1386.85 711.613 1442.4 743.365 1492.81 771.107 L 1832.76 956.91 C 1923.53 1007.1 1904.75 1066.25 1866.42 1148.56 L 1607.74 1704.59 C 1581.49 1760.29 1519.16 1776.95 1465.29 1749.11 C 1408.25 1719.63 1351.97 1689.05 1295.39 1658.74 L 1091.47 1550.21 C 1063.51 1535.1 995.284 1504.58 974.161 1486.7 C 972.07 1479.19 962.149 1474.69 955.745 1464.23 C 916.16 1410.83 930.91 1375.26 956.025 1319.86 L 985.971 1254.71 C 993.585 1238.2 1000.71 1220.11 1009.16 1204.27 C 1014 1196.1 1027.11 1186.24 1030.44 1177.34 C 1054.92 1111.84 1085.42 1048.6 1111.72 984.027 C 1111.51 976.013 1137.32 899.861 1143.67 891.071 C 1163.21 825.937 1166.09 811.605 1138.27 746.394 C 1135.96 740.994 1125.6 714.332 1124.94 709.526 z" fill="rgb(47,64,97)" transform="translate(0,0)"></path>
<path d="M 1124.94 709.526 C 1145.09 700.706 1176.81 695.436 1198.59 688.595 C 1249.65 672.559 1284.53 660.171 1335.04 686.749 C 1327.17 688.693 1315.28 686.703 1306.24 687.432 C 1222.75 694.167 1207.37 798.375 1171.41 858.162 C 1164.05 862.503 1142.56 934.173 1143.67 891.071 C 1163.21 825.937 1166.09 811.605 1138.27 746.394 C 1135.96 740.994 1125.6 714.332 1124.94 709.526 z" fill="rgb(60,89,140)" transform="translate(0,0)"></path>
<path d="M 1143.67 891.071 C 1142.56 934.173 1164.05 862.503 1171.41 858.162 C 1157.76 889.318 1130.33 956.656 1111.72 984.027 C 1111.51 976.013 1137.32 899.861 1143.67 891.071 z" fill="rgb(73,103,147)" transform="translate(0,0)"></path>
<path d="M 1307.83 739.994 C 1332.61 734.079 1391.27 774.364 1415.47 787.092 L 1745.88 963.875 C 1791.71 988.309 1871.71 1015.31 1839.93 1084.84 L 1650.45 1489.88 C 1626.16 1542.11 1601.31 1594.08 1578.21 1646.85 C 1564.9 1677.24 1557.24 1703.67 1520.24 1709.7 C 1494.43 1712.45 1427.39 1670.55 1403.1 1657.72 L 1083.08 1487.53 C 1041.11 1465.67 955.565 1435.41 986.963 1367.72 L 1245.64 809.579 C 1259.94 778.795 1269.05 743.834 1307.83 739.994 z" fill="rgb(73,103,147)" transform="translate(0,0)"></path>
<path d="M 1094.28 1403.51 C 1070.89 1373.38 1070.69 1331.27 1093.81 1300.93 C 1116.93 1270.58 1157.57 1259.59 1192.84 1274.14 C 1225.5 1287.61 1246.26 1320.05 1244.82 1355.35 C 1243.37 1390.65 1220.03 1421.29 1186.38 1432.06 C 1152.73 1442.82 1115.94 1431.42 1094.28 1403.51 z" fill="rgb(213,128,8)" transform="translate(0,0)"></path>
<path d="M 1192.84 1274.14 C 1225.5 1287.61 1246.26 1320.05 1244.82 1355.35 C 1243.37 1390.65 1220.03 1421.29 1186.38 1432.06 C 1152.73 1442.82 1115.94 1431.42 1094.28 1403.51 C 1097.61 1402.38 1104.79 1403.78 1108.43 1404.33 C 1179.62 1415.09 1235.7 1344.32 1192.84 1274.14 z" fill="rgb(241,166,62)" transform="translate(0,0)"></path>
<path d="M 1409.16 1547.91 C 1398.92 1519.9 1404.38 1488.56 1423.48 1465.66 C 1442.58 1442.75 1472.43 1431.76 1501.82 1436.81 C 1541.84 1443.68 1571.13 1478.31 1571.27 1518.91 C 1571.41 1559.51 1542.36 1594.34 1502.4 1601.49 C 1462.43 1608.64 1423.11 1586.04 1409.16 1547.91 z" fill="rgb(213,128,8)" transform="translate(0,0)"></path>
<path d="M 1501.82 1436.81 C 1541.84 1443.68 1571.13 1478.31 1571.27 1518.91 C 1571.41 1559.51 1542.36 1594.34 1502.4 1601.49 C 1462.43 1608.64 1423.11 1586.04 1409.16 1547.91 C 1419.77 1551.53 1424.93 1563.81 1442.1 1566.05 C 1518.05 1575.94 1566.99 1491.27 1501.82 1436.81 z" fill="rgb(241,166,62)" transform="translate(0,0)"></path>
<path d="M 1288.9 992.044 C 1264.39 960.938 1265.37 916.824 1291.23 886.83 C 1317.08 856.836 1360.57 849.377 1394.95 869.04 C 1423.92 885.608 1440.09 917.957 1435.97 951.07 C 1431.84 984.184 1408.23 1011.58 1376.08 1020.53 C 1343.94 1029.49 1309.56 1018.25 1288.9 992.044 z" fill="rgb(213,128,8)" transform="translate(0,0)"></path>
<path d="M 1394.95 869.04 C 1423.92 885.608 1440.09 917.957 1435.97 951.07 C 1431.84 984.184 1408.23 1011.58 1376.08 1020.53 C 1343.94 1029.49 1309.56 1018.25 1288.9 992.044 C 1292.72 991.241 1300.73 990.594 1304.61 990.459 C 1381.28 987.798 1413.07 938.407 1394.95 869.04 z" fill="rgb(241,166,62)" transform="translate(0,0)"></path>
<path d="M 1352.87 1289.37 C 1331.64 1260.42 1331.59 1221.05 1352.76 1192.04 C 1373.92 1163.03 1411.42 1151.05 1445.48 1162.43 C 1479.24 1173.7 1501.95 1205.36 1501.81 1240.96 C 1501.66 1276.55 1478.7 1308.03 1444.85 1319.03 C 1411 1330.03 1373.92 1318.08 1352.87 1289.37 z" fill="rgb(213,128,8)" transform="translate(0,0)"></path>
<path d="M 1445.48 1162.43 C 1479.24 1173.7 1501.95 1205.36 1501.81 1240.96 C 1501.66 1276.55 1478.7 1308.03 1444.85 1319.03 C 1411 1330.03 1373.92 1318.08 1352.87 1289.37 C 1358.17 1288.98 1369.7 1290.89 1375.43 1291.37 C 1448.52 1297.54 1493.04 1228.16 1445.48 1162.43 z" fill="rgb(241,166,62)" transform="translate(0,0)"></path>
<path d="M 1608.9 1161.18 C 1602.77 1147.16 1598.11 1136.55 1597.89 1120.86 C 1596.89 1051.76 1681.41 1007.27 1715.22 1040.68 C 1731.99 1046 1744.05 1059.6 1751.25 1074.95 C 1796.22 1170.78 1671.06 1244.64 1608.9 1161.18 z" fill="rgb(213,128,8)" transform="translate(0,0)"></path>
<path d="M 1715.22 1040.68 C 1731.99 1046 1744.05 1059.6 1751.25 1074.95 C 1796.22 1170.78 1671.06 1244.64 1608.9 1161.18 C 1617.39 1158.18 1633.69 1164.11 1643.74 1164.13 C 1698.16 1164.23 1744.87 1114.2 1725.5 1059.71 C 1723.08 1052.89 1717.82 1047.53 1715.22 1040.68 z" fill="rgb(241,166,62)" transform="translate(0,0)"></path>
<path d="M 165.541 854.957 C 174.225 844.496 173.937 819.53 193.037 811.001 C 217.973 799.865 245.526 794.805 272.052 788.283 L 693.871 684.909 C 726.79 676.476 759.566 663.557 790.575 685.166 C 818.038 704.304 840.343 778.273 853.081 810.414 L 967.651 1099.12 C 980.782 1131.95 1012.26 1189.47 977.88 1217.6 C 954.615 1229.39 888.307 1242.49 861.604 1248.54 C 856.364 1249 850.249 1250.43 845.045 1251.57 C 739.258 1274.72 629.476 1305.22 523.739 1332.36 L 464.532 1347.03 C 450.506 1350.39 436.802 1354.28 422.345 1355.45 C 339.925 1366.13 319.193 1254.54 297.184 1198.14 L 165.541 854.957 z" fill="rgb(47,64,97)" transform="translate(0,0)"></path>
<path d="M 735.163 1058.75 C 796.596 992.224 899.623 1098.57 841.648 1157.75 C 831.258 1168.36 815.834 1174.46 801.119 1175.17 C 761.783 1186.86 691.32 1110.01 735.163 1058.75 z" fill="rgb(133,142,160)" transform="translate(0,0)"></path>
<path d="M 735.163 1058.75 C 796.596 992.224 899.623 1098.57 841.648 1157.75 C 831.258 1168.36 815.834 1174.46 801.119 1175.17 C 801.668 1172.77 813.096 1157.76 815.004 1151.08 C 826.696 1110.14 795.74 1072.54 757.401 1061.76 C 750.671 1059.92 741.257 1061.29 735.163 1058.75 z" fill="rgb(167,168,174)" transform="translate(0,0)"></path>
<path d="M 314.221 876.938 C 381.815 787.035 508.804 977.211 383.09 993.576 C 324.019 1002.65 276.813 908.175 314.221 876.938 z" fill="rgb(133,142,160)" transform="translate(0,0)"></path>
<path d="M 314.221 876.938 C 381.815 787.035 508.804 977.211 383.09 993.576 L 379.996 992.708 C 379.037 990.491 391.261 969.836 392.451 964.493 C 400.778 927.135 368.134 887.935 333.388 878.502 C 327.326 876.856 320.391 878.55 314.221 876.938 z" fill="rgb(167,168,174)" transform="translate(0,0)"></path>
<path d="M 639.341 800.817 C 723.552 714.199 823.478 906.566 699.684 914.417 C 661.646 923.993 596.327 847.97 639.341 800.817 z" fill="rgb(133,142,160)" transform="translate(0,0)"></path>
<path d="M 639.341 800.817 C 723.552 714.199 823.478 906.566 699.684 914.417 C 700.128 910.204 710.744 892.894 712.491 883.664 C 719.247 847.962 692.986 813.423 659.437 803.529 C 653.094 801.659 645.136 802.807 639.341 800.817 z" fill="rgb(167,168,174)" transform="translate(0,0)"></path>
<path d="M 418.147 1136.73 C 498.032 1052.98 604.308 1226.7 486.749 1248.54 C 429.887 1250.82 380.787 1180.47 418.147 1136.73 z" fill="rgb(133,142,160)" transform="translate(0,0)"></path>
<path d="M 418.147 1136.73 C 498.032 1052.98 604.308 1226.7 486.749 1248.54 L 484.437 1247.25 C 485.015 1239.81 497.556 1226.04 498.229 1211.9 C 500.6 1162.05 461.952 1140.2 418.986 1136.8 L 418.147 1136.73 z" fill="rgb(167,168,174)" transform="translate(0,0)"></path>
<path d="M 960.457 289.851 C 975.158 309.195 987.497 348.198 996.6 372.254 L 1093.97 628.865 C 1097.73 639.011 1120.84 703.653 1124.94 709.526 C 1125.6 714.332 1135.96 740.994 1138.27 746.394 C 1166.09 811.605 1163.21 825.937 1143.67 891.071 C 1137.32 899.861 1111.51 976.013 1111.72 984.027 C 1085.42 1048.6 1054.92 1111.84 1030.44 1177.34 C 1027.11 1186.24 1014 1196.1 1009.16 1204.27 C 1000.71 1220.11 993.585 1238.2 985.971 1254.71 L 956.025 1319.86 C 930.91 1375.26 916.16 1410.83 955.745 1464.23 C 962.149 1474.69 972.07 1479.19 974.161 1486.7 C 925.043 1466.79 849.768 1428.46 832.018 1378.3 C 816.111 1333.36 843.11 1288.78 861.604 1248.54 C 888.307 1242.49 954.615 1229.39 977.88 1217.6 C 985.005 1215.18 1001.98 1210.11 1004.79 1204.27 C 1027.84 1156.38 970.886 1037.92 954.079 992.678 C 931.7 932.881 911.065 873.819 887.018 814.548 C 866.45 763.852 811.583 655.165 831.64 600.955 C 866.778 505.984 919.524 414.603 952.393 320.935 C 954.685 314.403 958.227 293.141 960.457 289.851 z" fill="url(#Gradient1)" transform="translate(0,0)"></path>
<path d="M 956.175 487.062 C 1000.42 485.71 1040.81 602.08 1003.55 624.341 C 961.195 623.057 914.76 509.517 956.175 487.062 z" fill="rgb(241,166,62)" transform="translate(0,0)"></path>
<path d="M 889.99 630.994 C 934.698 635.974 972.978 742.638 936.121 768.992 C 886.667 768.374 854.393 646.935 889.99 630.994 z" fill="rgb(241,166,62)" transform="translate(0,0)"></path>
<path d="M 974.161 901.948 C 1018.05 910.108 1052.01 1016.69 1017.51 1040.68 C 971.629 1036.97 936.92 919.804 974.161 901.948 z" fill="rgb(241,166,62)" transform="translate(0,0)"></path>
<path d="M 1030.69 739.994 C 1073.3 742.003 1112.7 844.66 1078.74 876.938 C 1035.29 880.465 998.146 759.303 1030.69 739.994 z" fill="rgb(241,166,62)" transform="translate(0,0)"></path>
<path d="M 881.702 283.349 C 896.378 282.601 902.632 284.196 912.537 295.303 C 909.564 311.128 897.633 335.833 890.811 351.154 L 818.675 513.582 C 769.28 623.816 756.144 621.497 637.024 652.241 L 293.147 739.331 C 271.043 744.786 247.525 752.289 225.204 755.786 C 157.289 763.212 218.556 681.701 234.535 651.564 L 293.971 538.838 C 350.562 431.783 325.323 439.404 450.494 404.783 L 786.808 309.002 C 812.488 301.805 857.76 286.651 881.702 283.349 z" fill="rgb(73,103,147)" transform="translate(0,0)"></path>
<path d="M 580.643 477.266 C 661.533 472.494 613.376 569.261 536.981 582 C 452.882 583.697 503.811 490.071 580.643 477.266 z" fill="rgb(241,166,62)" transform="translate(0,0)"></path>
<metadata><recraft-signature>{"signed_by": "recraft", "signature_b64": "suoKoKffS4Zmm4fzwssaZZn9qQVhdBrUYqxhhkxEFTHtSwIauYGqU5xsw1fnP5oqjUdO3hCIWoqLylto9tdDDg==", "signing_algo": "Ed25519", "generation_timestamp": 1782337338, "identifier": "0aed1fed-2b7d-405c-b2eb-db06814b9f4f"}</recraft-signature></metadata></svg>