<svg version="1.1" xmlns="http://www.w3.org/2000/svg" style="display: block;" viewBox="0 0 2048 2048" width="512" height="512" preserveAspectRatio="none">
<path transform="translate(0,0)" fill="rgb(235,111,46)" d="M 1290.17 1201.69 C 1244.06 1259.81 1159.94 1303.82 1088.37 1320.42 C 986.527 1344.65 879.225 1327.17 790.34 1271.87 C 698.65 1213.56 633.922 1121.18 610.436 1015.09 C 587.083 911.009 609.518 800.686 667.279 711.746 C 726.877 619.976 812.939 562.675 918.92 539.232 C 1021.59 517.369 1128.73 537.231 1216.74 594.44 C 1303.49 650.254 1364.31 738.446 1385.65 839.366 C 1409.08 948.714 1383.56 1068.51 1323.2 1162 C 1339.25 1175.26 1444.41 1277.98 1449.96 1289.15 C 1446.09 1295.15 1420.22 1318.74 1414.04 1324.46 C 1398.95 1312.4 1380.53 1294.13 1366.49 1280.35 C 1340.46 1254.72 1315.01 1228.49 1290.17 1201.69 z M 1193.56 991.278 L 1193.21 992.845 C 1191.91 998.884 1191.55 1007.99 1190.37 1014.84 C 1187.15 1032.55 1176.72 1048.14 1161.57 1057.86 C 1131.05 1077.74 1088.04 1068.57 1068.61 1037.56 C 1063.38 1029.21 1058.03 1016.87 1051.63 1009.87 C 1042.86 1000.32 1029.84 989.652 1020.15 980.697 C 980.006 943.594 953.286 925.986 898.259 918.387 C 888.578 918.174 873.012 923.645 861.239 924.264 C 854.197 924.634 832.012 921.536 829.881 922.37 C 780.91 947.73 739.541 1007.52 715.416 1056.52 C 709.048 1069.46 704.874 1090.77 698.094 1102.36 C 699.456 1107.58 709.63 1121.38 713.312 1126.72 C 748.026 1176.92 795.224 1217.2 850.252 1243.6 C 1084.26 1354.14 1350.53 1176.57 1343.39 921.607 C 1342.46 888.526 1335.68 847.797 1324.43 816.749 C 1301.95 853.487 1273.35 902.93 1246.77 935.074 C 1237.58 946.402 1227.75 957.203 1217.35 967.425 C 1210.84 973.897 1199.15 984.753 1193.56 991.278 z M 794.85 880.774 C 795.278 876.712 792.335 860.942 792.504 853.754 C 792.889 836.756 800.141 820.639 812.607 809.077 C 845.48 778.699 904.443 791.358 919.456 834.192 C 923.605 846.028 924.604 853.242 924.087 865.753 C 976.156 869.762 1042.5 917.881 1076 956.978 L 1077.12 958.289 C 1080.84 953.92 1084.12 950.958 1088.75 947.621 C 1104.89 936.169 1125.56 933.206 1144.26 939.661 C 1148.77 941.22 1156.96 945.814 1161.15 945.876 C 1171.03 933.401 1184.51 919.835 1195.33 907.47 C 1213.68 886.732 1230.42 864.632 1245.43 841.359 C 1254.75 827.103 1263.24 812.311 1270.83 797.062 C 1277.87 783.168 1285.77 765.795 1294.49 753.415 C 1289.1 744.072 1282.88 735.185 1276.49 726.496 C 1171.86 584.139 976.79 544.125 823.357 633.59 C 744.819 679.964 687.725 755.426 664.455 843.615 C 651.164 894.447 650.665 946.445 659.238 998.181 C 660.388 1005.12 663.231 1020.54 666.541 1026.27 C 666.93 1025 667.318 1023.71 667.847 1022.47 C 687.842 975.553 723.433 936.836 761.62 903.893 C 769.352 897.224 785.659 884.613 794.85 880.774 z"/>
<path transform="translate(0,0)" fill="rgb(244,162,88)" d="M 1077.12 958.289 C 1080.84 953.92 1084.12 950.958 1088.75 947.621 C 1104.89 936.169 1125.56 933.206 1144.26 939.661 C 1148.77 941.22 1156.96 945.814 1161.15 945.876 C 1167.87 954.176 1176.96 959.582 1183.15 968.638 C 1187.33 974.746 1189.37 986.087 1193.56 991.278 L 1193.21 992.845 C 1191.91 998.884 1191.55 1007.99 1190.37 1014.84 C 1187.15 1032.55 1176.72 1048.14 1161.57 1057.86 C 1131.05 1077.74 1088.04 1068.57 1068.61 1037.56 C 1063.38 1029.21 1058.03 1016.87 1051.63 1009.87 C 1052.98 1009.07 1054.75 1008.06 1055.21 1006.38 C 1060.22 988.122 1066.51 974.067 1077.12 958.289 z"/>
<path transform="translate(0,0)" fill="rgb(244,162,88)" d="M 794.85 880.774 C 795.278 876.712 792.335 860.942 792.504 853.754 C 792.889 836.756 800.141 820.639 812.607 809.077 C 845.48 778.699 904.443 791.358 919.456 834.192 C 923.605 846.028 924.604 853.242 924.087 865.753 C 917.509 878.444 916.258 894.228 904.754 905.86 C 899.7 910.971 897.066 912.289 898.259 918.387 C 888.578 918.174 873.012 923.645 861.239 924.264 C 854.197 924.634 832.012 921.536 829.881 922.37 C 826.261 918.938 821.578 915.653 817.625 911.913 C 807.28 902.128 802.054 892.592 794.85 880.774 z"/>
<path transform="translate(0,0)" fill="rgb(254,196,135)" d="M 1294.49 753.415 C 1306.07 772.238 1318.19 795.461 1324.43 816.749 C 1301.95 853.487 1273.35 902.93 1246.77 935.074 C 1237.58 946.402 1227.75 957.203 1217.35 967.425 C 1210.84 973.897 1199.15 984.753 1193.56 991.278 C 1189.37 986.087 1187.33 974.746 1183.15 968.638 C 1176.96 959.582 1167.87 954.176 1161.15 945.876 C 1171.03 933.401 1184.51 919.835 1195.33 907.47 C 1213.68 886.732 1230.42 864.632 1245.43 841.359 C 1254.75 827.103 1263.24 812.311 1270.83 797.062 C 1277.87 783.168 1285.77 765.795 1294.49 753.415 z"/>
<path transform="translate(0,0)" fill="rgb(254,196,135)" d="M 794.85 880.774 C 802.054 892.592 807.28 902.128 817.625 911.913 C 821.578 915.653 826.261 918.938 829.881 922.37 C 780.91 947.73 739.541 1007.52 715.416 1056.52 C 709.048 1069.46 704.874 1090.77 698.094 1102.36 C 690.722 1091.22 664.858 1038.27 666.541 1026.27 C 666.93 1025 667.318 1023.71 667.847 1022.47 C 687.842 975.553 723.433 936.836 761.62 903.893 C 769.352 897.224 785.659 884.613 794.85 880.774 z"/>
<path transform="translate(0,0)" fill="rgb(254,196,135)" d="M 924.087 865.753 C 976.156 869.762 1042.5 917.881 1076 956.978 L 1077.12 958.289 C 1066.51 974.067 1060.22 988.122 1055.21 1006.38 C 1054.75 1008.06 1052.98 1009.07 1051.63 1009.87 C 1042.86 1000.32 1029.84 989.652 1020.15 980.697 C 980.006 943.594 953.286 925.986 898.259 918.387 C 897.066 912.289 899.7 910.971 904.754 905.86 C 916.258 894.228 917.509 878.444 924.087 865.753 z"/>
<path transform="translate(0,0)" fill="rgb(244,162,88)" d="M 275.506 360.459 L 1188.26 362.066 L 1509.25 361.931 C 1559.23 361.918 1609.28 361.77 1659.27 361.822 C 1664.46 361.828 1671.4 361.616 1675.77 364.145 C 1683.33 368.525 1687.27 375.208 1689.45 383.451 C 1698.13 416.318 1692.14 454.373 1691.91 487.686 C 1691.69 518.247 1691.83 548.307 1691.83 578.576 L 1691.84 1096.52 L 1691.36 1242.18 C 1691.35 1252.88 1692.95 1309.4 1690.25 1314.57 C 1684.66 1312.64 1642.03 1269.03 1640.2 1260.64 C 1638.97 1255.04 1638.68 1235.24 1638.78 1228.64 C 1639.76 1165.33 1639.87 1102.12 1639.86 1038.82 L 1640.05 413.223 C 1611.69 414.231 1575.58 413.158 1546.61 413.156 L 1352.85 413.151 L 766.764 413.153 L 427.709 413.139 L 326.923 413.151 C 311.752 413.169 288.648 414.248 274.541 412.698 C 276.451 426.358 275.961 442.731 275.952 456.73 L 275.923 514.747 L 275.924 714.5 L 275.914 1378.54 L 275.932 1553.62 L 275.991 1602.74 C 275.994 1611.61 276.466 1625.82 274.869 1634.15 C 304.205 1633.57 336.257 1634.2 365.76 1634.21 L 554.716 1634.21 L 1121.96 1634.22 L 1399.91 1634.21 L 1477.12 1634.12 C 1490.04 1634.07 1521.47 1631.51 1530.78 1639.17 C 1537.38 1644.59 1575.17 1679.37 1574.15 1685.42 C 1570.06 1687.1 1540.2 1686.01 1533.16 1686.01 L 1431.21 1685.98 L 1117.52 1685.98 L 536.663 1686.21 L 350.9 1686.22 C 326.042 1686.23 256.144 1689.03 236.435 1683.02 C 227.282 1673.11 225.192 1663.11 224.672 1650 C 223.781 1627.51 224.127 1604.52 224.144 1581.97 L 224.151 1469.49 L 224.126 1118.25 L 224.093 639.075 L 224.035 481.732 C 224.022 453.264 223.833 424.626 224.245 396.181 C 224.787 388.287 224.249 378.132 230.373 372.139 C 241.214 361.53 261.29 361.03 275.506 360.459 z"/>
<path transform="translate(0,0)" fill="rgb(210,85,65)" d="M 1496.85 1252.43 C 1520.55 1258.71 1540.54 1284.41 1557.84 1301.84 L 1626.9 1370.83 L 1744.18 1487.95 C 1768.62 1512.36 1812.68 1547.76 1821.05 1581.17 C 1829.94 1616.69 1811.48 1660.05 1779.09 1678.4 C 1759.31 1689.71 1735.8 1692.56 1713.9 1686.28 C 1681.97 1677.45 1661.25 1651.93 1638.67 1629.25 L 1585.21 1576.12 L 1456.47 1448.52 C 1432.76 1425.08 1404.77 1400.33 1384.95 1373.91 C 1371.42 1355.89 1405.75 1334.65 1414.04 1324.46 C 1420.22 1318.74 1446.09 1295.15 1449.96 1289.15 C 1456.88 1288.32 1465.63 1259.83 1496.85 1252.43 z"/>
<path transform="translate(0,0)" fill="rgb(254,196,135)" d="M 1496.92 1316.81 C 1503.43 1321.03 1520.86 1339.96 1527.52 1346.6 L 1587.54 1406.23 L 1697.95 1515.58 C 1716.93 1534.4 1735.98 1553.17 1754.74 1572.2 C 1759.31 1578.16 1769.16 1585.58 1770.16 1593.24 C 1773.91 1621.87 1754.9 1645 1725.86 1634.97 C 1706.01 1623.77 1649.48 1567.3 1631.43 1549.67 C 1569.52 1489.19 1509.29 1426.77 1446.58 1366.95 C 1463.45 1349.78 1479.48 1333.46 1496.92 1316.81 z"/>
<path transform="translate(0,0)" fill="rgb(254,196,135)" d="M 680.303 1443.84 C 702.167 1445.71 730.353 1445 752.565 1444.99 L 865.142 1444.99 L 1158.12 1444.97 C 1209.65 1444.95 1265.81 1443.86 1317.02 1445.2 C 1335.33 1456.39 1354.96 1478.38 1370.3 1493.99 C 1373.28 1497.02 1372.87 1496.81 1372.6 1499.99 C 1223.3 1498.68 1073.99 1498.34 924.679 1498.97 L 769.948 1498.98 C 744.377 1498.99 705.163 1497.94 680.65 1500.05 C 679.533 1484.07 679.692 1459.86 680.303 1443.84 z"/>
<path transform="translate(0,0)" fill="rgb(244,162,88)" d="M 572.069 1443.78 C 586.196 1445.56 617.854 1445.29 632.191 1444.2 C 631.873 1452.82 634.079 1495.45 630.746 1499.73 C 613.684 1498.69 588.775 1498.93 571.941 1500.23 C 571.758 1479.06 570.764 1465.44 572.069 1443.78 z"/>
</svg>