<svg xmlns="http://www.w3.org/2000/svg" height="512" preserveAspectRatio="none" style="display: block;" version="1.1" viewBox="0 0 2048 2048" width="512">
<path d="M 1290.22 1201.29 C 1245.19 1257.48 1162.9 1301.83 1093.19 1318.69 C 746.208 1402.62 477.208 1025.47 662.384 721.144 C 776.164 534.151 1023.18 474.196 1209.79 590.94 C 1409.79 716.058 1444.05 969.472 1322.99 1162.01 C 1338.32 1174.43 1351.23 1190.06 1365.4 1203.8 L 1420.02 1257.41 C 1429.47 1266.84 1442.82 1279.49 1450.86 1289.72 C 1441.64 1299.35 1424.51 1317.18 1414.73 1324.67 C 1380.84 1296.33 1321.25 1234.94 1290.22 1201.29 z M 1190.95 996.312 C 1193.33 1058.97 1124.67 1090.21 1078.81 1049.22 C 1065.62 1037.43 1063.19 1018.75 1052.48 1008.61 C 997.714 961.303 976.797 927.172 894.786 916.713 C 875.215 921.715 853.621 928.458 833.235 920.291 C 786.489 936.233 727.798 1020.48 710.856 1063.49 C 708.223 1070.17 699.773 1100.36 697.48 1102.89 C 786.304 1258.82 979.552 1321.02 1142.65 1246.17 C 1305.75 1171.33 1384.61 984.266 1324.33 815.247 L 1323.73 816.148 C 1278.26 886.07 1262.72 926.525 1193.49 988.915 C 1192 990.251 1191.33 994.237 1190.95 996.312 z M 795.952 879.968 C 771.581 773.216 926.509 761.263 922.977 866.819 C 969.872 867.578 1048 922.208 1076.47 959.87 C 1097.69 934.482 1132.36 930.615 1160.15 947.805 C 1206.41 898.819 1237.58 863.178 1269.83 802.043 C 1277.84 786.872 1285.52 769.041 1294.46 754.59 L 1295.15 753.499 C 1205.61 604.194 1019.11 544.62 859.593 614.364 C 700.077 684.108 617.175 861.47 665.978 1028.59 C 665.13 1029.57 682.155 995.111 686.57 988.676 C 718.252 942.51 750.644 911.051 795.952 879.968 z" fill="rgb(234,110,45)" transform="translate(0,0)"></path>
<path d="M 1076.47 959.87 C 1097.69 934.482 1132.36 930.615 1160.15 947.805 C 1177.44 959.402 1190.52 974.779 1190.95 996.312 C 1193.33 1058.97 1124.67 1090.21 1078.81 1049.22 C 1065.62 1037.43 1063.19 1018.75 1052.48 1008.61 L 1055.6 1008.05 C 1058.84 1005.25 1059.56 991.66 1061.44 986.714 C 1065.17 976.904 1072.35 969.157 1076.47 959.87 z" fill="rgb(243,162,87)" transform="translate(0,0)"></path>
<path d="M 795.952 879.968 C 771.581 773.216 926.509 761.263 922.977 866.819 C 916.802 879.06 916.502 892.748 905.193 903.929 C 903.321 905.779 895.528 915.145 894.786 916.713 C 875.215 921.715 853.621 928.458 833.235 920.291 C 817.605 917.975 801.655 893.13 795.952 879.968 z" fill="rgb(243,162,87)" transform="translate(0,0)"></path>
<path d="M 1295.15 753.499 C 1306.89 773.069 1316.66 793.753 1324.33 815.247 L 1323.73 816.148 C 1278.26 886.07 1262.72 926.525 1193.49 988.915 C 1192 990.251 1191.33 994.237 1190.95 996.312 C 1190.52 974.779 1177.44 959.402 1160.15 947.805 C 1206.41 898.819 1237.58 863.178 1269.83 802.043 C 1277.84 786.872 1285.52 769.041 1294.46 754.59 L 1295.15 753.499 z" fill="rgb(252,196,134)" transform="translate(0,0)"></path>
<path d="M 665.978 1028.59 C 665.13 1029.57 682.155 995.111 686.57 988.676 C 718.252 942.51 750.644 911.051 795.952 879.968 C 801.655 893.13 817.605 917.975 833.235 920.291 C 786.489 936.233 727.798 1020.48 710.856 1063.49 C 708.223 1070.17 699.773 1100.36 697.48 1102.89 C 684.118 1079.44 673.546 1054.5 665.978 1028.59 z" fill="rgb(252,196,134)" transform="translate(0,0)"></path>
<path d="M 922.977 866.819 C 969.872 867.578 1048 922.208 1076.47 959.87 C 1072.35 969.157 1065.17 976.904 1061.44 986.714 C 1059.56 991.66 1058.84 1005.25 1055.6 1008.05 L 1052.48 1008.61 C 997.714 961.303 976.797 927.172 894.786 916.713 C 895.528 915.145 903.321 905.779 905.193 903.929 C 916.502 892.748 916.802 879.06 922.977 866.819 z" fill="rgb(252,196,134)" transform="translate(0,0)"></path>
<path d="M 319.203 362.312 L 1665.51 362.248 C 1704.13 358.086 1690.83 456.042 1690.83 481.417 L 1690.84 1097.33 C 1690.84 1169.36 1689.66 1244.89 1690.82 1316.68 C 1673.34 1300.1 1657.57 1281.33 1640.08 1264.53 C 1639.5 1233.38 1640.07 1200.08 1640.07 1168.74 L 1640.08 412.575 L 275.022 412.575 L 275.022 759.5 L 275.022 1634.68 L 1477.43 1634.65 C 1492.72 1634.62 1510.77 1634.04 1525.84 1634.68 C 1536.82 1644.57 1568.05 1675.07 1576.85 1685.67 L 248.486 1685.82 C 228.239 1685.76 224.762 1660.93 224.712 1645.75 L 224.555 450.722 C 224.543 429.308 224.282 407.883 224.999 386.498 C 226.165 351.731 293.114 362.223 319.203 362.312 z" fill="rgb(243,162,87)" transform="translate(0,0)"></path>
<path d="M 1450.86 1289.72 C 1470.74 1268.23 1490.74 1236.06 1520.28 1265.2 L 1761.66 1506.24 C 1780.71 1525.14 1810.83 1549.5 1818.67 1574.96 C 1835.33 1629.11 1794.63 1691.72 1735.65 1689.08 C 1691.11 1687.82 1672.75 1662.37 1643.3 1633.02 L 1394.26 1386.39 C 1386.92 1379.04 1384.68 1373.59 1382.15 1363.7 C 1388.93 1345.06 1399.98 1337.97 1414.73 1324.67 C 1424.51 1317.18 1441.64 1299.35 1450.86 1289.72 z" fill="rgb(209,85,63)" transform="translate(0,0)"></path>
<path d="M 1496.82 1316.68 C 1501.62 1320.16 1528.9 1348.17 1534.75 1353.95 L 1753.41 1570.68 C 1756.06 1573.32 1768.17 1586.22 1769.14 1589.44 C 1777.41 1616.9 1755.24 1647.75 1724.88 1634.68 C 1702.84 1626.59 1484.59 1401.16 1446.55 1367.13 C 1461.67 1350.62 1480.47 1332.09 1496.82 1316.68 z" fill="rgb(252,196,134)" transform="translate(0,0)"></path>
<path d="M 681.087 1445.33 L 1318.49 1445.33 C 1325.5 1450.18 1369.3 1492.35 1373.61 1498.65 C 1351.47 1499.73 1319.91 1498.67 1297.12 1498.66 L 681.087 1498.65 C 680.364 1482.7 681.048 1461.66 681.087 1445.33 z" fill="rgb(252,196,134)" transform="translate(0,0)"></path>
<path d="M 572.151 1445.33 L 630.993 1445.33 L 630.993 1498.65 L 572.151 1498.65 C 571.705 1481.52 572.131 1462.59 572.151 1445.33 z" fill="rgb(243,162,87)" transform="translate(0,0)"></path>
<metadata><recraft-signature>{"signed_by": "recraft", "signature_b64": "zBbxqAa8T5gYKKreXN7rX+/2s8XGNd5nTgsHNE37z6dng1EgLfUnuRFideCVtyLks5ID3/Fl78msR/NHTCmlBw==", "signing_algo": "Ed25519", "generation_timestamp": 1782332230, "identifier": "61595f0a-8c9b-4931-b3a1-dd92321a7051"}</recraft-signature></metadata></svg>