<svg xmlns="http://www.w3.org/2000/svg" height="512" preserveAspectRatio="none" style="display: block;" version="1.1" viewBox="0 0 2048 2048" width="512">
<defs>
	<linearGradient gradientUnits="userSpaceOnUse" id="Gradient1" x1="778.023" x2="1127.18" y1="638.724" y2="1192.36">
		<stop class="stop0" offset="0" stop-color="rgb(26,68,119)" stop-opacity="1"></stop>
		<stop class="stop1" offset="1" stop-color="rgb(39,92,145)" stop-opacity="1"></stop>
	</linearGradient>
</defs>
<path d="M 284.008 286.49 L 1763.98 286.49 L 1763.98 1519.6 C 1755.78 1510.97 1734.6 1491.79 1728.68 1483.27 L 1728.68 322.072 L 1536.97 322.072 L 1536.97 1332.69 C 1531.92 1329.15 1520.95 1317.49 1515.07 1320.68 C 1521.51 1341.16 1723.11 1525.52 1768.42 1581.09 C 1821.22 1645.85 1777.67 1750.46 1696.51 1762.1 C 1602.58 1776.08 1565.96 1686.81 1502.05 1639.74 C 1502.45 1646.65 1504.14 1667.02 1502.05 1672.67 L 1502.05 1688.22 C 1502.72 1692.84 1502.48 1694.04 1502.05 1698.78 L 1502.05 1709.67 C 1507.03 1709.4 1511.54 1709.55 1516.51 1709.67 C 1522.64 1714.65 1525.51 1718.5 1530.55 1724.65 C 1530.01 1734.28 1530.5 1748.98 1530.55 1758.99 L 284.008 1758.99 L 284.008 286.49 z M 1502.05 352.983 L 1502.05 322.072 L 318.926 322.072 C 318.127 333.843 318.173 341.232 318.926 352.983 L 1502.05 352.983 z M 1351.99 934.215 C 1358.8 793.632 1290.75 659.931 1173.09 582.7 C 1055.42 505.469 905.685 496.226 779.414 558.399 C 605.571 643.995 518.787 842.476 573.991 1028.22 C 629.194 1213.96 810.293 1332.83 1002.67 1309.59 C 1195.04 1286.34 1342.62 1127.76 1351.99 934.215 z M 1755.17 1639.74 C 1748.49 1600.28 1712.85 1574.45 1685.96 1547.43 L 1476.16 1334.83 C 1442.51 1301.35 1415.71 1260.26 1361.74 1291.35 C 1436.34 1289.28 1489.77 1372.78 1540.84 1424.02 L 1755.17 1639.74 z M 1279 1205.49 C 1288.95 1213.47 1329.44 1255.58 1336.55 1265.5 C 1342.44 1263.11 1346.74 1261 1352.38 1258.15 C 1339.21 1240.58 1306.76 1210.56 1289.53 1193.89 C 1285.61 1197.72 1282.55 1201.36 1279 1205.49 z" fill="rgb(22,56,102)" transform="translate(0,0)"></path>
<path d="M 318.926 352.983 L 1502.05 352.983 L 1502.05 358.8 C 1489.49 373.832 1469.35 392.226 1455 406.747 L 1290.8 573.794 C 1283.7 580.958 1263.93 602.194 1257.54 606.873 C 1014.51 377.596 622.208 477.998 534.557 807.146 C 531.853 817.303 526.085 862.137 523.974 865.704 C 524.485 911.059 521.742 952.653 531.401 998.142 L 530.213 1000.66 C 520.944 1002.03 524.844 1006.13 519.927 998.142 C 524.08 1067.01 579.756 1188.52 627.775 1232.81 C 644.57 1254.67 673.118 1279.1 694.454 1296.2 C 676.407 1313.1 658.571 1333.91 641.415 1351.82 L 538.59 1458.6 C 518.593 1479.42 321.645 1679.26 319.785 1679.65 L 318.926 1679.23 L 318.926 352.983 z" fill="rgb(72,135,196)" transform="translate(0,0)"></path>
<path d="M 519.927 998.142 C 514.631 975.385 514.854 883.532 523.974 865.704 C 524.485 911.059 521.742 952.653 531.401 998.142 L 530.213 1000.66 C 520.944 1002.03 524.844 1006.13 519.927 998.142 z" fill="rgb(245,204,173)" transform="translate(0,0)"></path>
<path d="M 694.454 1296.2 C 842.685 1405.18 1028.83 1411.8 1186.46 1322.63 C 1205.31 1342.91 1222.74 1360.79 1243.35 1379.24 C 1241.74 1399.33 1244.1 1427.79 1258.59 1442.94 C 1322.68 1509.98 1388.56 1575.91 1454.64 1641.04 C 1457.51 1643.87 1462.5 1649.36 1465.39 1651.35 C 1476.57 1663.56 1490.17 1676.47 1502.05 1688.22 C 1502.72 1692.84 1502.48 1694.04 1502.05 1698.78 L 318.926 1698.78 C 318.753 1692.31 318.876 1685.72 318.926 1679.23 L 319.785 1679.65 C 321.645 1679.26 518.593 1479.42 538.59 1458.6 L 641.415 1351.82 C 658.571 1333.91 676.407 1313.1 694.454 1296.2 z" fill="rgb(44,102,158)" transform="translate(0,0)"></path>
<path d="M 1257.54 606.873 C 1263.93 602.194 1283.7 580.958 1290.8 573.794 L 1455 406.747 C 1469.35 392.226 1489.49 373.832 1502.05 358.8 C 1503.58 387.782 1502.04 429.193 1502.04 459.443 L 1502.05 1311.87 C 1461.1 1275.97 1450.47 1244.06 1389.82 1246.95 C 1369.94 1224.13 1336.9 1188.85 1312.11 1170.79 L 1310.92 1169.91 L 1311.66 1168.17 C 1317.12 1155.42 1325.44 1141.39 1332.13 1129.44 C 1428.86 956.615 1389.4 748.299 1257.54 606.873 z" fill="rgb(44,102,158)" transform="translate(0,0)"></path>
<path d="M 531.401 998.142 C 540.832 1047.79 556.415 1084.74 580.363 1129.56 C 585.436 1139.05 601.614 1161.77 604.046 1169.91 L 605.199 1170.99 C 614.024 1179.36 620.59 1188.89 628.618 1197.79 C 771.821 1356.56 1015.96 1401.02 1194.86 1276.39 C 1214.32 1298.37 1250.92 1335.43 1272.36 1355.61 C 1269.93 1373.57 1273.61 1403.47 1285.91 1417.34 C 1339.83 1478.12 1401.82 1532 1456.79 1592.04 C 1469.61 1606.05 1492.85 1624.54 1502.05 1639.74 C 1502.45 1646.65 1504.14 1667.02 1502.05 1672.67 L 1502.05 1688.22 C 1490.17 1676.47 1476.57 1663.56 1465.39 1651.35 C 1462.5 1649.36 1457.51 1643.87 1454.64 1641.04 C 1388.56 1575.91 1322.68 1509.98 1258.59 1442.94 C 1244.1 1427.79 1241.74 1399.33 1243.35 1379.24 C 1222.74 1360.79 1205.31 1342.91 1186.46 1322.63 C 1028.83 1411.8 842.685 1405.18 694.454 1296.2 C 673.118 1279.1 644.57 1254.67 627.775 1232.81 C 579.756 1188.52 524.08 1067.01 519.927 998.142 C 524.844 1006.13 520.944 1002.03 530.213 1000.66 L 531.401 998.142 z" fill="rgb(245,204,173)" transform="translate(0,0)"></path>
<path d="M 531.401 998.142 C 540.832 1047.79 556.415 1084.74 580.363 1129.56 C 585.436 1139.05 601.614 1161.77 604.046 1169.91 C 595.106 1166.85 554.514 1081.52 549.681 1069.15 C 534.277 1100.38 587.62 1179.5 605.154 1203.18 C 611.327 1211.51 625.763 1222.84 627.775 1232.81 C 579.756 1188.52 524.08 1067.01 519.927 998.142 C 524.844 1006.13 520.944 1002.03 530.213 1000.66 L 531.401 998.142 z" fill="rgb(244,196,158)" transform="translate(0,0)"></path>
<path d="M 1465.39 1651.35 L 1467.18 1650.85 C 1483.81 1665.31 1491.4 1660.1 1499.54 1682.42 C 1501.14 1677.41 1499.56 1675.37 1501.22 1670.46 L 1502.05 1672.67 L 1502.05 1688.22 C 1490.17 1676.47 1476.57 1663.56 1465.39 1651.35 z" fill="rgb(244,196,158)" transform="translate(0,0)"></path>
<path d="M 318.926 1698.78 L 1502.05 1698.78 L 1502.05 1709.67 L 1500.18 1724.65 L 318.926 1724.65 L 318.926 1698.78 z" fill="rgb(90,84,78)" transform="translate(0,0)"></path>
<path d="M 779.414 558.399 C 791.287 556.942 805.931 550.001 817.751 546.86 C 928.018 517.563 1076.25 532.524 1168.9 604.861 C 1258.83 672.905 1327.71 768.845 1345.76 881.655 C 1348.55 899.107 1349.35 917.16 1351.99 934.215 C 1342.62 1127.76 1195.04 1286.34 1002.67 1309.59 C 810.293 1332.83 629.194 1213.96 573.991 1028.22 C 518.787 842.476 605.571 643.995 779.414 558.399 z M 630.811 953.774 C 627.028 1007.84 656.656 1095.69 690.061 1135.46 C 717.057 1167.6 809.252 1226.4 850.152 1222.38 C 1000.09 1277.18 1172.12 1213.07 1243.87 1068.39 C 1385.47 782.831 1073.18 477.57 793.587 628.163 C 762.849 644.719 709.33 683.011 694.454 713.63 C 640.681 750.158 630.595 890.593 630.811 953.774 z" fill="rgb(234,144,32)" transform="translate(0,0)"></path>
<path d="M 694.454 713.63 C 709.33 683.011 762.849 644.719 793.587 628.163 C 1073.18 477.57 1385.47 782.831 1243.87 1068.39 C 1172.12 1213.07 1000.09 1277.18 850.152 1222.38 C 763.188 1197.82 671.745 1093.48 643.345 1011.69 C 637.228 994.07 633.936 972.258 630.811 953.774 C 630.595 890.593 640.681 750.158 694.454 713.63 z M 892.708 633.794 C 912.498 633.337 931.245 632.978 950.952 634.747 C 1109.96 649.024 1241.51 796.365 1235.94 956.261 C 1235.53 967.905 1234.97 981.692 1235.73 993.261 L 1235.84 994.788 C 1284.01 774.809 1112.2 596.866 892.708 629.793 L 894.006 631.45 C 892.665 633.239 893.49 632.446 890.403 633.016 L 892.708 633.794 z" fill="url(#Gradient1)" transform="translate(0,0)"></path>
<path d="M 694.454 713.63 C 709.33 683.011 762.849 644.719 793.587 628.163 C 1073.18 477.57 1385.47 782.831 1243.87 1068.39 C 1172.12 1213.07 1000.09 1277.18 850.152 1222.38 C 850.48 1222.06 1113.2 1307.5 1237.47 1076.49 C 1284.6 990.513 1285.77 888.261 1251.38 798.084 C 1231.13 744.969 1174.09 673.626 1126.23 645.814 C 1108.99 635.942 1058.06 619.717 1037.17 610.595 C 1031.15 607.968 1016.62 609.489 1009.6 608.079 L 1009.77 605.953 C 1009.38 609.074 1010.06 607.876 1008.41 610.149 C 989.542 604.944 936.043 598.299 917.471 608.428 C 915.516 609.494 916.165 609.291 913.951 608.84 L 913.733 607.128 C 906.958 607.115 904.382 608.85 902.808 602.566 C 898.823 602.886 897.037 610.595 892.888 604.488 L 895.216 602.365 L 895.152 601.291 C 888.217 603.88 891.906 595.829 887.759 597.217 C 815.355 610.769 741.747 652.5 697.16 711.813 C 695.793 713.631 697.064 712.691 694.454 713.63 z" fill="rgb(22,56,102)" transform="translate(0,0)"></path>
<path d="M 821.995 1172.75 C 781.316 1154.21 729.847 1100.24 706.905 1061.95 C 630.486 935.571 669.327 781.378 796.43 706.603 C 932.573 626.509 1091.5 686.471 1167.29 817.415 C 1124.07 860.146 1075.9 909.432 1034.17 953.774 C 1034.4 960.409 902.236 1086.95 881.714 1115.19 C 890.713 1123.92 902.298 1134.86 889.571 1146.26 C 868.243 1165.38 863.19 1121.14 825.565 1172.91 L 826.037 1174.21 C 848.272 1183.44 869.919 1192.3 893.53 1197.77 C 902.05 1199.74 940.738 1203.95 944.72 1205.55 C 931.88 1213.03 836.231 1183.18 821.995 1172.75 z" fill="rgb(72,135,196)" transform="translate(0,0)"></path>
<path d="M 877.281 1116.18 C 887.109 1107.24 904.947 1085.29 915.591 1074.56 C 940.055 1049.89 1009.36 970.84 1034.17 953.774 C 1034.4 960.409 902.236 1086.95 881.714 1115.19 C 890.713 1123.92 902.298 1134.86 889.571 1146.26 C 868.243 1165.38 863.19 1121.14 825.565 1172.91 L 826.037 1174.21 C 848.272 1183.44 869.919 1192.3 893.53 1197.77 C 902.05 1199.74 940.738 1203.95 944.72 1205.55 C 931.88 1213.03 836.231 1183.18 821.995 1172.75 C 830.793 1165.38 844.269 1151.37 853.294 1142.82 C 798.764 1114.87 752.298 1070.79 725.102 1015.37 C 719.999 1003.14 706.721 977.371 710.751 964.529 C 714.484 952.633 735.964 948.311 744.152 970.201 C 769.584 1038.2 813.724 1082.97 877.281 1116.18 L 877.281 1116.18 z" fill="rgb(44,102,158)" transform="translate(0,0)"></path>
<path d="M 877.281 1116.18 C 897.078 1124.02 898.456 1140.08 879.508 1150.88 C 868.925 1149.49 863.146 1146.82 853.294 1142.82 C 861.882 1133.94 867.864 1124.58 877.281 1116.18 L 877.281 1116.18 z" fill="rgb(22,56,102)" transform="translate(0,0)"></path>
<path d="M 715.288 837.111 C 726.714 836.01 729.037 837.895 733.867 848.024 C 735.781 866.873 738.548 913.975 721.157 922.578 C 692.379 925.178 698.146 868.564 699.975 848.024 C 705.38 842.267 708.539 840.656 715.288 837.111 z" fill="rgb(44,102,158)" transform="translate(0,0)"></path>
<path d="M 940.453 1136.26 C 953.13 1136.06 973.187 1134.6 984.552 1138.92 C 999.091 1144.44 994.51 1165.3 979.88 1169.91 C 965.099 1170.22 941.464 1172.25 929.381 1164.73 C 920.916 1152.11 925.345 1139.52 940.453 1136.26 z" fill="rgb(22,56,102)" transform="translate(0,0)"></path>
<path d="M 853.294 639 C 866.46 634.916 879.11 631.99 892.708 629.793 L 894.006 631.45 C 892.665 633.239 893.49 632.446 890.403 633.016 L 892.708 633.794 C 889.074 635.302 858.563 638.448 853.294 639 z" fill="none" opacity="0" transform="translate(0,0)"></path>
<path d="M 585.306 971.797 C 589.662 976.274 604.863 1059.33 607.727 1074.6 C 594.955 1065.22 584.628 985.925 585.306 971.797 z" fill="rgb(254,240,199)" transform="translate(0,0)"></path>
<path d="M 1755.17 1639.74 C 1766.02 1692.74 1699.2 1747.7 1642.6 1722.27 C 1619.37 1711.83 1601.93 1688.78 1583.96 1670.67 L 1388.67 1474.15 C 1367.35 1452.98 1345.53 1431.93 1325.09 1410.22 C 1288.06 1370.9 1316.1 1309.24 1361.74 1291.35 C 1436.34 1289.28 1489.77 1372.78 1540.84 1424.02 L 1755.17 1639.74 z" fill="rgb(234,144,32)" transform="translate(0,0)"></path>
<path d="M 1279 1205.49 C 1288.95 1213.47 1329.44 1255.58 1336.55 1265.5 C 1312.24 1280.15 1301.35 1295.33 1285.92 1318.62 C 1266.69 1301.73 1243.98 1272.05 1224.34 1258.15 C 1241.3 1239.78 1261.24 1223.28 1279 1205.49 z" fill="rgb(234,144,32)" transform="translate(0,0)"></path>
<metadata><recraft-signature>{"signed_by": "recraft", "signature_b64": "AmqiqD9DRRZm8pJBCaprJVqY9WJbXhYIu+kCYw447dty2+48wVReTm+2iBAM0l+YJyYHxPVdlZZU/bC8kfeaCA==", "signing_algo": "Ed25519", "generation_timestamp": 1782337261, "identifier": "badca899-5a5c-4d40-80e2-97986af80e39"}</recraft-signature></metadata></svg>