<svg version="1.1" xmlns="http://www.w3.org/2000/svg" style="display: block;" viewBox="0 0 2048 2048" width="512" height="512" preserveAspectRatio="none">
<path transform="translate(0,0)" fill="rgb(215,163,65)" d="M 432.063 1366.72 L 433.917 1366.61 C 439.444 1366.23 453.13 1363.47 459.218 1362.41 C 472.647 1360.07 486.104 1357.88 499.586 1355.87 C 722.971 1320.92 926.339 1206.8 1072.56 1034.35 C 1169.02 919.661 1240.45 786.093 1282.29 642.199 C 1300.78 580.469 1313.97 518.853 1322.51 454.925 C 1324.36 441.626 1325.97 428.295 1327.34 414.939 C 1328.49 402.647 1328.05 324.734 1351.3 342.302 C 1360.26 349.075 1351.88 406.568 1351.19 419.113 C 1317.38 716.221 1194.54 994.575 955.205 1182.65 C 837.008 1276.26 698.67 1341.12 551.111 1372.11 C 528.094 1376.93 504.898 1380.86 481.577 1383.89 C 467.931 1385.53 444.598 1387.08 432.043 1389.47 L 417.001 1390.02 C 401.096 1392.74 382.351 1393.13 366.06 1394.28 C 326.724 1397.08 287.641 1396.66 248.283 1397.92 C 247.656 1390.03 248.023 1379.91 248.097 1371.84 C 296.257 1374.94 368.501 1371.45 417.179 1367.36 L 432.063 1366.72 z"/>
<path transform="translate(0,0)" fill="rgb(91,116,141)" d="M 417.001 1390.02 L 432.043 1389.47 C 432.214 1414.33 432.207 1439.19 432.022 1464.05 C 431.989 1474.51 431.482 1489.76 432.113 1499.89 C 446.297 1498.46 473.058 1499.52 488.412 1499.44 L 613.446 1499.28 L 993.027 1499.29 L 1518.65 1499.28 L 1693.13 1499.29 C 1718.84 1499.34 1755.14 1498.24 1779.48 1499.75 C 1772.11 1494.17 1751.48 1475.18 1750.06 1466.13 L 1751.11 1464.26 C 1765.69 1461.4 1796.24 1494.77 1804.46 1505.88 C 1797.29 1515.53 1761.81 1554.61 1749.09 1549.08 C 1748.75 1543.12 1754.94 1536.6 1758.94 1532.14 C 1764.23 1526.24 1769.76 1520.57 1775.52 1515.14 C 1771.12 1515.38 1766.77 1515.83 1762.43 1515.26 C 1752.75 1516.38 1731.75 1515.75 1721.38 1515.71 L 1646.37 1515.61 L 1391.89 1515.62 L 757.436 1515.63 L 551.214 1515.6 C 511.991 1515.58 471.399 1515.06 432.281 1515.83 C 431.571 1545.52 432.168 1577.81 432.154 1607.66 L 432.158 1788.93 C 427.096 1789.03 421.799 1789.36 416.72 1789.59 C 417.622 1698.41 415.927 1606.59 417.018 1515.42 L 417.063 1499.07 L 416.627 1430.32 C 416.578 1419.17 415.984 1400.67 417.001 1390.02 z"/>
<path transform="translate(0,0)" fill="rgb(9,51,72)" d="M 417.001 1390.02 L 432.043 1389.47 C 432.214 1414.33 432.207 1439.19 432.022 1464.05 C 431.989 1474.51 431.482 1489.76 432.113 1499.89 C 431.944 1505.06 431.799 1509.77 431.924 1514.96 L 1358.94 1514.95 L 1636.67 1514.95 L 1719.91 1514.9 C 1729.65 1514.89 1753.98 1514.29 1762.43 1515.26 C 1752.75 1516.38 1731.75 1515.75 1721.38 1515.71 L 1646.37 1515.61 L 1391.89 1515.62 L 757.436 1515.63 L 551.214 1515.6 C 511.991 1515.58 471.399 1515.06 432.281 1515.83 C 431.571 1545.52 432.168 1577.81 432.154 1607.66 L 432.158 1788.93 C 427.096 1789.03 421.799 1789.36 416.72 1789.59 C 417.622 1698.41 415.927 1606.59 417.018 1515.42 L 417.063 1499.07 L 416.627 1430.32 C 416.578 1419.17 415.984 1400.67 417.001 1390.02 z"/>
<path transform="translate(0,0)" fill="rgb(91,116,141)" d="M 416.563 258.548 C 410.548 264.559 384.906 293.237 377.283 284.991 C 375.397 270.152 408.874 238.818 420.417 232.641 C 429.085 228.002 474.996 276.581 468.609 287.772 C 458.117 289.621 438.25 266.128 432.182 258.772 L 432.063 1366.72 L 417.179 1367.36 C 415.558 1286.04 416.88 1200.51 416.88 1118.95 L 416.895 556.467 C 416.899 458.672 418.418 356.095 416.563 258.548 z"/>
<path transform="translate(0,0)" fill="rgb(91,116,141)" d="M 248.274 1499.6 C 261.597 1498.42 285.149 1499.43 299.066 1499.28 C 338.232 1498.88 377.928 1500.1 417.063 1499.07 L 417.018 1515.42 C 380.56 1515.94 343.629 1515.06 307.14 1515.38 C 287.858 1515.55 267.519 1514.77 248.366 1516.17 L 248.274 1499.6 z"/>
<path transform="translate(0,0)" fill="rgb(216,123,49)" d="M 297.322 570.869 C 308.698 577.146 304.709 607.584 303.721 618.557 C 308.003 619.052 311.134 619.101 315.066 620.917 L 315.404 622.429 C 306.242 627.588 306.873 638.201 299.59 643.933 C 292.192 644.234 293.814 633.143 293.869 627.987 C 290.582 621.608 270.26 632.017 261.849 625.646 C 257.715 615.036 287.526 577.028 297.322 570.869 z M 273.87 618.309 C 280.918 618.369 288.076 618.361 295.113 618.505 C 294.714 612.204 295.881 589.472 294.471 586.692 C 287.324 594.237 278.041 607.853 272.574 616.626 L 272.873 618.262 L 273.87 618.309 z"/>
<path transform="translate(0,0)" fill="rgb(216,123,49)" d="M 291.67 1004.99 C 299.291 1004.94 301.695 1006.42 308.159 1010.54 C 311.531 1017.09 311.943 1018.81 313.773 1025.83 C 308.818 1044.06 300.309 1052.34 288.106 1066.18 C 297.375 1065.86 306.696 1065.18 315.515 1068.41 L 316.194 1069.93 C 311.645 1074.31 285.945 1074.62 278.262 1074.95 L 275.368 1073.51 C 273.245 1062.35 302.347 1039.93 305.727 1023.29 C 304.899 1019.49 304.946 1018.45 302.425 1015.41 C 291.061 1010.62 284.546 1026.28 275.067 1026.88 L 274.003 1024.97 C 274.064 1013.68 282.611 1009.01 291.67 1004.99 z"/>
</svg>