<svg version="1.1" xmlns="http://www.w3.org/2000/svg" style="display: block;" viewBox="0 0 2048 2048" width="512" height="512" preserveAspectRatio="none">
<defs>
	<linearGradient id="Gradient1" gradientUnits="userSpaceOnUse" x1="851.835" y1="1034.18" x2="514.994" y2="530.011">
		<stop class="stop0" offset="0" stop-opacity="1" stop-color="rgb(228,182,146)"/>
		<stop class="stop1" offset="1" stop-opacity="1" stop-color="rgb(255,223,188)"/>
	</linearGradient>
	<linearGradient id="Gradient2" gradientUnits="userSpaceOnUse" x1="820.361" y1="1069.91" x2="716.224" y2="975.348">
		<stop class="stop0" offset="0" stop-opacity="1" stop-color="rgb(223,115,48)"/>
		<stop class="stop1" offset="1" stop-opacity="1" stop-color="rgb(251,169,64)"/>
	</linearGradient>
	<linearGradient id="Gradient3" gradientUnits="userSpaceOnUse" x1="1323.69" y1="1078.46" x2="1236.38" y2="967.702">
		<stop class="stop0" offset="0" stop-opacity="1" stop-color="rgb(225,117,46)"/>
		<stop class="stop1" offset="1" stop-opacity="1" stop-color="rgb(252,169,63)"/>
	</linearGradient>
	<linearGradient id="Gradient4" gradientUnits="userSpaceOnUse" x1="557.513" y1="1077.24" x2="466.116" y2="967.903">
		<stop class="stop0" offset="0" stop-opacity="1" stop-color="rgb(222,113,47)"/>
		<stop class="stop1" offset="1" stop-opacity="1" stop-color="rgb(248,161,59)"/>
	</linearGradient>
	<linearGradient id="Gradient5" gradientUnits="userSpaceOnUse" x1="1072.76" y1="1075.22" x2="975.305" y2="970.848">
		<stop class="stop0" offset="0" stop-opacity="1" stop-color="rgb(224,116,48)"/>
		<stop class="stop1" offset="1" stop-opacity="1" stop-color="rgb(252,174,70)"/>
	</linearGradient>
	<linearGradient id="Gradient6" gradientUnits="userSpaceOnUse" x1="1402.78" y1="1594.03" x2="970.27" y2="929.336">
		<stop class="stop0" offset="0" stop-opacity="1" stop-color="rgb(192,128,91)"/>
		<stop class="stop1" offset="1" stop-opacity="1" stop-color="rgb(230,184,147)"/>
	</linearGradient>
</defs>
<path transform="translate(0,0)" fill="url(#Gradient6)" d="M 313.741 1375.4 C 247.039 1357.42 252.928 1295.03 253.081 1240.55 L 253.096 1136.87 L 252.741 771.986 C 253.098 661.708 315.005 660.059 407.815 660.049 L 484.442 660.096 L 734.697 660.097 L 1497.16 660.24 C 1550.8 659.709 1604.46 660.922 1658.11 660.494 C 1676.62 660.347 1694.51 660.788 1712.74 664.685 C 1783.25 679.754 1791.49 746.605 1791.99 807.875 L 1792.21 1148.93 C 1792.21 1171.33 1791.93 1193.8 1792.2 1216.18 C 1792.54 1244.58 1795.46 1274.37 1791.49 1302.48 C 1788.68 1322.34 1781.34 1344.03 1766.67 1358.32 C 1738.85 1385.41 1715.04 1384.21 1679.7 1384.21 L 774.816 1383.75 L 515.037 1383.78 L 427.832 1383.81 C 397.22 1383.81 344.84 1385.44 316.797 1376.38 L 314.885 1375.78 L 313.741 1375.4 z M 328.783 1340.47 C 362.965 1345.53 388.371 1345.1 423.112 1345.05 L 527.421 1345.03 L 878.766 1345.02 L 1523.83 1344 C 1560.95 1343.8 1598.08 1343.86 1635.21 1344.16 C 1657.13 1344.41 1678.89 1344.37 1700.8 1344.64 C 1767.63 1345.48 1753.43 1259.96 1753.77 1214.93 L 1753.96 1029.74 L 1753.99 865.803 C 1754 830.512 1754.79 796.704 1751.8 761.323 C 1746.45 697.879 1695.3 702.601 1646.53 701.192 C 1630.46 700.728 1613.91 701.146 1597.81 701.141 L 1452.12 701.161 C 1427.22 701.174 1398.22 701.929 1373.64 700.96 C 1293.32 702.172 1209.83 701.033 1129.31 701.062 L 637.78 701.197 L 440.312 701.122 L 376.69 701.072 C 333.196 701.035 298.721 695.11 292.344 751.522 C 289.33 778.188 291.821 804.083 291.956 830.775 L 292.003 969.337 L 291.973 1183.63 C 291.945 1220.87 291.564 1258.17 292.125 1295.4 C 292.534 1322.54 305.401 1332.04 328.783 1340.47 z"/>
<path transform="translate(0,0)" fill="url(#Gradient5)" d="M 1016.81 950.385 C 1057.13 946.165 1093.26 975.381 1097.57 1015.69 C 1101.88 1056.01 1072.75 1092.2 1032.45 1096.61 C 992.015 1101.03 955.676 1071.78 951.35 1031.33 C 947.024 990.891 976.355 954.619 1016.81 950.385 z"/>
<path transform="translate(0,0)" fill="url(#Gradient4)" d="M 500.928 950.42 C 540.985 944.277 578.454 971.722 584.68 1011.77 C 590.907 1051.81 563.541 1089.34 523.51 1095.65 C 483.36 1101.98 445.697 1074.51 439.451 1034.35 C 433.206 994.185 460.751 956.58 500.928 950.42 z"/>
<path transform="translate(0,0)" fill="url(#Gradient3)" d="M 1268.66 951.519 C 1308.33 944.952 1345.82 971.777 1352.4 1011.44 C 1358.99 1051.11 1332.18 1088.61 1292.51 1095.21 C 1252.82 1101.81 1215.3 1074.98 1208.71 1035.29 C 1202.12 995.604 1228.97 958.091 1268.66 951.519 z"/>
<path transform="translate(0,0)" fill="url(#Gradient2)" d="M 757.313 951.556 C 796.805 945.295 833.921 972.162 840.308 1011.63 C 846.695 1051.11 819.947 1088.31 780.496 1094.82 C 740.865 1101.36 703.458 1074.47 697.042 1034.82 C 690.626 995.165 717.641 957.845 757.313 951.556 z"/>
<path transform="translate(0,0)" fill="url(#Gradient1)" d="M 313.741 1375.4 C 247.039 1357.42 252.928 1295.03 253.081 1240.55 L 253.096 1136.87 L 252.741 771.986 C 253.098 661.708 315.005 660.059 407.815 660.049 L 484.442 660.096 L 734.697 660.097 L 1497.16 660.24 C 1485.46 665.566 1430.98 661.996 1414.76 663.376 C 1404.9 664.215 1395.42 660.004 1387.77 667.973 C 1384.36 668.619 1383.54 668.647 1380.2 668.76 C 1381.35 675.217 1382.87 669.911 1382.54 677.016 C 1377.07 684.425 1358.86 688.759 1350.58 690.654 L 1363.17 691.429 C 1359.75 692.052 1356.24 692.022 1354.32 694.094 C 1351.78 696.837 1343.88 696.598 1337.34 698.51 C 1345.39 698.387 1369.07 696.751 1373.64 700.96 C 1293.32 702.172 1209.83 701.033 1129.31 701.062 L 637.78 701.197 L 440.312 701.122 L 376.69 701.072 C 333.196 701.035 298.721 695.11 292.344 751.522 C 289.33 778.188 291.821 804.083 291.956 830.775 L 292.003 969.337 L 291.973 1183.63 C 291.945 1220.87 291.564 1258.17 292.125 1295.4 C 292.534 1322.54 305.401 1332.04 328.783 1340.47 C 329.236 1341.12 331.799 1344.72 331.824 1345.18 C 332.053 1349.27 330.063 1349.42 332.774 1350.72 L 334.785 1349.65 L 334.802 1345.6 C 340.829 1348.93 335.761 1355.96 331.251 1358.35 C 331.387 1361.02 331.757 1361.56 332.65 1364.13 C 328.333 1368.03 323.441 1362.19 318.777 1364.23 C 319.581 1365.95 319.702 1366.15 319.952 1368.08 C 316.942 1368.6 318.483 1368.66 315.297 1366.91 C 315.215 1369.28 315.249 1370.2 315.475 1372.56 L 313.741 1375.4 z"/>
</svg>