<svg version="1.1" xmlns="http://www.w3.org/2000/svg" style="display: block;" viewBox="0 0 2048 2048" width="512" height="512" preserveAspectRatio="none">
<path transform="translate(0,0)" fill="rgb(207,118,62)" d="M 460.901 166.593 C 494.639 161.279 526.315 184.269 531.72 217.993 C 537.125 251.717 514.221 283.454 480.512 288.951 C 446.674 294.468 414.787 271.457 409.361 237.604 C 403.936 203.751 427.033 171.927 460.901 166.593 z"/>
<path transform="translate(0,0)" fill="rgb(254,175,96)" d="M 465.641 194.581 C 484.418 192.035 501.685 205.243 504.142 224.032 C 506.6 242.821 493.31 260.025 474.509 262.393 C 455.835 264.746 438.77 251.564 436.329 232.9 C 433.888 214.237 446.989 197.11 465.641 194.581 z"/>
<path transform="translate(0,0)" fill="rgb(207,118,62)" d="M 667.481 351.029 C 674.883 319.079 706.05 298.557 738.324 304.381 C 770.598 310.205 792.627 340.327 788.394 372.848 C 784.162 405.369 755.158 428.85 722.468 426.219 C 689.778 423.589 664.902 395.773 665.924 362.993 C 666.05 358.964 666.571 354.956 667.481 351.029 z"/>
<path transform="translate(0,0)" fill="rgb(254,175,96)" d="M 723.37 330.512 C 742.068 328.733 758.707 342.351 760.662 361.031 C 762.616 379.711 749.155 396.477 730.494 398.607 C 711.584 400.764 694.545 387.084 692.564 368.155 C 690.584 349.226 704.423 332.315 723.37 330.512 z"/>
<path transform="translate(0,0)" fill="rgb(207,118,62)" d="M 1422.88 1349.32 C 1456.33 1343.58 1488.09 1366.07 1493.8 1399.52 C 1499.5 1432.98 1476.98 1464.71 1443.52 1470.38 C 1410.11 1476.04 1378.43 1453.56 1372.74 1420.16 C 1367.04 1386.75 1389.48 1355.05 1422.88 1349.32 z"/>
<path transform="translate(0,0)" fill="rgb(254,175,96)" d="M 1430.53 1375.59 C 1442.79 1374.51 1454.68 1380.15 1461.6 1390.34 C 1468.52 1400.52 1469.4 1413.65 1463.89 1424.66 C 1458.38 1435.67 1447.35 1442.84 1435.05 1443.4 C 1416.57 1444.25 1400.81 1430.16 1399.58 1411.71 C 1398.35 1393.25 1412.1 1377.2 1430.53 1375.59 z"/>
<path transform="translate(0,0)" fill="rgb(207,118,62)" d="M 906.752 479.447 C 940.414 477.38 969.395 502.957 971.528 536.616 C 973.661 570.274 948.141 599.305 914.487 601.504 C 880.739 603.71 851.609 578.103 849.47 544.351 C 847.331 510.599 872.995 481.519 906.752 479.447 z"/>
<path transform="translate(0,0)" fill="rgb(254,175,96)" d="M 907.827 507.552 C 926.011 505.826 942.175 519.11 944.004 537.284 C 945.834 555.458 932.641 571.697 914.478 573.629 C 896.168 575.577 879.77 562.255 877.927 543.935 C 876.083 525.615 889.497 509.293 907.827 507.552 z"/>
<path transform="translate(0,0)" fill="rgb(207,118,62)" d="M 1219.42 894.562 C 1252.64 892.661 1281.13 918.028 1283.09 951.253 C 1285.04 984.477 1259.72 1013.01 1226.49 1015.01 C 1193.2 1017.02 1164.59 991.627 1162.64 958.33 C 1160.68 925.032 1186.12 896.466 1219.42 894.562 z"/>
<path transform="translate(0,0)" fill="rgb(254,175,96)" d="M 1219.47 921.571 C 1237.7 919.837 1253.92 933.099 1255.85 951.305 C 1257.77 969.511 1244.68 985.874 1226.5 987.992 C 1214.56 989.381 1202.8 984.253 1195.7 974.562 C 1188.59 964.87 1187.24 952.111 1192.16 941.148 C 1197.08 930.185 1207.51 922.709 1219.47 921.571 z"/>
<path transform="translate(0,0)" fill="rgb(207,118,62)" d="M 1331.87 1122.7 C 1364.52 1120.81 1392.58 1145.63 1394.67 1178.27 C 1396.76 1210.91 1372.1 1239.11 1339.48 1241.4 C 1306.58 1243.7 1278.08 1218.79 1275.97 1185.88 C 1273.86 1152.96 1298.94 1124.62 1331.87 1122.7 z"/>
<path transform="translate(0,0)" fill="rgb(254,175,96)" d="M 1327.62 1150.57 C 1339.01 1147.65 1351.08 1151.12 1359.18 1159.64 C 1367.29 1168.15 1370.16 1180.38 1366.69 1191.61 C 1363.22 1202.84 1353.96 1211.31 1342.46 1213.77 C 1325.17 1217.47 1308.1 1206.66 1304.06 1189.45 C 1300.02 1172.23 1310.49 1154.95 1327.62 1150.57 z"/>
<path transform="translate(0,0)" fill="rgb(207,118,62)" d="M 1076.02 678.765 C 1108.53 676.13 1137.02 700.368 1139.63 732.885 C 1142.24 765.402 1117.97 793.869 1085.46 796.447 C 1052.98 799.023 1024.55 774.797 1021.95 742.32 C 1019.34 709.843 1043.55 681.397 1076.02 678.765 z"/>
<path transform="translate(0,0)" fill="rgb(254,175,96)" d="M 1074.13 705.516 C 1091.77 701.998 1108.95 713.365 1112.6 730.977 C 1116.26 748.59 1105.04 765.858 1087.45 769.658 C 1069.67 773.501 1052.16 762.117 1048.46 744.303 C 1044.76 726.49 1056.28 709.074 1074.13 705.516 z"/>
<path transform="translate(0,0)" fill="rgb(56,104,136)" d="M 1661.6 1379.33 C 1673.18 1377.93 1683.11 1379.69 1692.7 1386.89 C 1701.34 1393.38 1706.95 1403.11 1708.23 1413.83 C 1710.01 1428.1 1704.38 1437.15 1696.36 1447.74 C 1704.1 1454.79 1709.32 1460.2 1711.34 1471.06 C 1715.55 1493.73 1691.65 1513.9 1671.25 1516.71 C 1649.43 1520.3 1622.67 1502.6 1622.37 1479.38 C 1622.18 1465.44 1627.58 1457.32 1636.27 1447.53 C 1612.19 1414.25 1622.68 1389.31 1661.6 1379.33 z M 1671.83 1493.71 C 1680.72 1488.59 1683.53 1485.26 1687.62 1475.63 C 1682.03 1461.77 1675.17 1458.7 1660.81 1456.98 C 1636.86 1469.42 1645.48 1496.88 1671.83 1493.71 z M 1667.57 1437.93 C 1695.26 1429.36 1688.28 1403.68 1664.61 1402 C 1639.77 1411.55 1640.28 1432.22 1667.57 1437.93 z"/>
<path transform="translate(0,0)" fill="rgb(56,104,136)" d="M 1443.26 1778.77 C 1456.29 1782.63 1486.29 1816.68 1497.78 1828.66 C 1496.44 1817.94 1495.81 1802.02 1505.09 1794.58 C 1517.6 1791.52 1519.74 1811.85 1521.1 1820.56 C 1531.93 1807.65 1544.43 1793.2 1558.39 1783.76 C 1572.52 1774.2 1581.76 1786.5 1576.36 1800.65 C 1569.8 1810.14 1514.69 1866.66 1503.87 1864.32 C 1493.18 1862.01 1447.14 1815.04 1437.49 1803.41 C 1428.55 1792.65 1431.58 1785.67 1443.26 1778.77 z"/>
<path transform="translate(0,0)" fill="rgb(106,146,174)" d="M 1611.08 1560.48 C 1631.94 1560.19 1730.67 1557.48 1741.84 1563.89 C 1744.55 1565.45 1746.51 1567.8 1747.16 1570.9 C 1747.86 1574.3 1747.19 1578.37 1744.88 1581.06 C 1739.81 1586.95 1722.79 1585.3 1715.25 1585.37 C 1700.59 1585.29 1587.82 1587.98 1580.75 1582.39 C 1578.25 1580.41 1576.9 1577.47 1576.61 1574.34 C 1576.29 1571.01 1577.03 1567.8 1579.41 1565.35 C 1585.89 1558.65 1602.38 1560.54 1611.08 1560.48 z"/>
<path transform="translate(0,0)" fill="rgb(106,146,174)" d="M 339.608 742.489 C 358.184 743.091 454.403 740.093 464.789 745.744 C 467.544 747.243 470.259 751.043 470.694 754.164 C 471.01 756.433 469.74 761.223 468.187 762.955 C 462.958 768.788 445.648 767.11 438.138 767.144 C 418.988 767.002 316.102 770.397 306.904 762.597 C 305.27 761.212 304.169 758.456 303.845 756.386 C 303.35 753.221 304.037 750.705 306.072 748.258 C 312.611 740.395 330.461 742.574 339.608 742.489 z"/>
<path transform="translate(0,0)" fill="rgb(56,104,136)" d="M 394.671 573.189 C 397.544 573.565 401.093 574.294 403.093 576.548 C 407.866 581.929 405.943 683.042 405.757 697.568 C 383.207 700.614 381.417 699.909 380.471 677.25 C 379.602 656.893 380.193 631.153 380.054 610.236 C 373.15 612.849 359.769 618.406 354.385 611.359 C 351.436 595.637 381.77 577.372 394.671 573.189 z"/>
<path transform="translate(0,0)" fill="rgb(56,104,136)" d="M 1107.27 840.526 C 1123.02 841.382 1141.15 861.702 1144.01 876.762 C 1145.6 885.156 1144.12 889.499 1139.58 896.409 C 1119.24 894.296 1107.15 868.146 1102.03 851.1 C 1103.68 846.762 1104.97 844.617 1107.27 840.526 z"/>
<path transform="translate(0,0)" fill="rgb(56,104,136)" d="M 1494.06 1715.96 C 1519.28 1715.24 1520.44 1758.59 1509.59 1774.5 C 1487.52 1780.59 1486.4 1737.51 1488.44 1723.99 C 1489.19 1719.03 1490.44 1718.67 1494.06 1715.96 z"/>
<path transform="translate(0,0)" fill="rgb(56,104,136)" d="M 1446.47 1508.1 C 1467.57 1513.65 1472.15 1537.42 1472.44 1556.4 C 1468.9 1558.82 1464.86 1560.87 1461.07 1562.93 C 1454 1562.14 1448.91 1557.82 1446.18 1551.36 C 1440.36 1537.56 1429.97 1517.51 1446.47 1508.1 z"/>
<path transform="translate(0,0)" fill="rgb(56,104,136)" d="M 548.308 290.918 C 565.831 290.266 607.235 306.807 585.656 331.319 C 573.024 327.282 556.456 320.948 546.589 312.157 C 537.623 304.168 540.469 297.759 548.308 290.918 z"/>
<path transform="translate(0,0)" fill="rgb(56,104,136)" d="M 1475.58 1609.98 C 1495.97 1616.11 1507.18 1654.14 1489.24 1668.62 C 1469.64 1662.17 1458.74 1622.99 1475.58 1609.98 z"/>
<path transform="translate(0,0)" fill="rgb(56,104,136)" d="M 954.081 634.342 C 967.771 634.41 992.178 660.072 991.843 673.892 C 991.696 679.954 990.289 681.705 986.507 686.069 C 983.475 686.022 979.421 684.231 976.951 682.609 C 960.396 671.739 941.12 654.886 954.081 634.342 z"/>
<path transform="translate(0,0)" fill="rgb(56,104,136)" d="M 782.251 448.534 C 795.526 448.903 836.933 481.456 815.337 495.95 C 808.205 495.845 797.156 490.23 792.002 485.544 C 779.478 474.158 770.102 463.45 782.251 448.534 z"/>
<path transform="translate(0,0)" fill="rgb(56,104,136)" d="M 1236.45 1060.68 C 1257.77 1059.6 1265.47 1084.67 1270.31 1100.81 C 1268.09 1105.68 1267.56 1106.71 1264.27 1110.89 C 1258.78 1111.7 1253.33 1109.72 1249.34 1105.95 C 1238.26 1095.51 1224.44 1074.47 1236.45 1060.68 z"/>
<path transform="translate(0,0)" fill="rgb(56,104,136)" d="M 1353.67 1288.53 C 1368.88 1288.9 1382.07 1315.31 1380.61 1329.02 C 1379.81 1336.56 1378.67 1338.21 1373.31 1343.29 C 1354.95 1333.58 1334.84 1307.57 1353.67 1288.53 z"/>
<path transform="translate(0,0)" fill="rgb(56,104,136)" d="M 665.924 362.993 C 664.465 364.815 663.817 365.32 662.105 366.956 C 652.625 370.342 637.123 360.985 633.474 353.461 C 620.153 325.989 656.984 329.78 667.481 351.029 C 666.571 354.956 666.05 358.964 665.924 362.993 z"/>
</svg>