<svg xmlns="http://www.w3.org/2000/svg" xmlns:xlink="http://www.w3.org/1999/xlink" xmlns:inkscape="http://www.inkscape.org/namespaces/inkscape" version="1.1" width="162.918" height="103.022" viewBox="0 0 162.918 103.022">
<defs>
<clipPath id="clip_1">
<path transform="matrix(1,0,0,-1,16.549,84.66701)" d="M0 0H143.18264V75.14793H0Z"/>
</clipPath>
<path id="font_2_1" d="M.6589966 .23046875C.6759949 .23046875 .69400027 .23046875 .69400027 .25045777 .69400027 .27046205 .6759949 .27046205 .6589966 .27046205H.117996219C.100997928 .27046205 .08299255 .27046205 .08299255 .25045777 .08299255 .23046875 .100997928 .23046875 .117996219 .23046875H.6589966Z"/>
<path id="font_3_1" d="M.45999146 .31976319C.45999146 .39982606 .45498658 .47988893 .41999818 .5539398 .37399293 .65000918 .2919922 .6660156 .25 .6660156 .18998719 .6660156 .116989139 .64001467 .07598877 .54693606 .04399109 .47789 .038986207 .39982606 .038986207 .31976319 .038986207 .24472046 .042999269 .15464783 .083999637 .07859802 .1269989-.0024719239 .19999695-.022460938 .24899292-.022460938 .30299378-.022460938 .3789978-.0014648438 .4229889 .09359741 .45498658 .16265869 .45999146 .2407074 .45999146 .31976319M.24899292-.00047302247C.20999146-.00047302247 .15098572 .024551392 .1329956 .12062073 .12199402 .18066406 .12199402 .2727356 .12199402 .3317871 .12199402 .39582826 .12199402 .46188355 .12998963 .5159149 .14898682 .63500979 .22399903 .64401248 .24899292 .64401248 .28199769 .64401248 .34799195 .6259918 .36698915 .52693179 .3769989 .47088624 .3769989 .39482118 .3769989 .3317871 .3769989 .25672914 .3769989 .18867493 .3659973 .12461853 .35099793 .029556275 .2939911-.00047302247 .24899292-.00047302247Z"/>
<path id="font_4_1" d="M.19198609 .052993776C.19198609 .08198547 .16799927 .10598755 .13899231 .10598755 .10998535 .10598755 .085998538 .08198547 .085998538 .052993776 .085998538 .023986817 .10998535 0 .13899231 0 .16799927 0 .19198609 .023986817 .19198609 .052993776Z"/>
<path id="font_3_3" d="M.1269989 .07699585 .23298645 .18003845C.3889923 .31811524 .44898988 .3721466 .44898988 .47216798 .44898988 .5860901 .35899354 .6660156 .23699951 .6660156 .12399292 .6660156 .049987794 .57411196 .049987794 .48516847 .049987794 .4291687 .099990848 .4291687 .102996829 .4291687 .11999512 .4291687 .15499878 .44117738 .15499878 .48217774 .15499878 .5081787 .13699341 .5341797 .101989749 .5341797 .09399414 .5341797 .09199524 .5341797 .08898926 .5331726 .11199951 .59806826 .1659851 .63500979 .22399903 .63500979 .31498719 .63500979 .35798646 .5541382 .35798646 .47216798 .35798646 .39215089 .30799867 .31311036 .25299073 .25108338L.06098938 .036987306C.049987794 .025985718 .049987794 .023986817 .049987794 0H.42099L.44898988 .17404175H.42399598C.4189911 .14402771 .4119873 .1000061 .4019928 .084991458 .394989 .07699585 .32899476 .07699585 .30699159 .07699585H.1269989Z"/>
<path id="font_3_5" d="M.2939911 .16503906V.07800293C.2939911 .041992189 .2919922 .0309906 .21798706 .0309906H.19699097V0C.23799134 .0029907227 .2899933 .0029907227 .33198548 .0029907227 .37399293 .0029907227 .4269867 .0029907227 .46798707 0V.0309906H.44699098C.37298585 .0309906 .37098695 .041992189 .37098695 .07800293V.16503906H.47099305V.19602967H.37098695V.65075686C.37098695 .67074587 .37098695 .6767578 .35499574 .6767578 .34599305 .6767578 .34298707 .6767578 .33499146 .66474917L.027999878 .19602967V.16503906H.2939911M.2999878 .19602967H.055999757L.2999878 .5688019V.19602967Z"/>
<path id="font_3_6" d="M.13198853 .327713V.35173036C.13198853 .6047821 .2559967 .64100649 .30699159 .64100649 .33099366 .64100649 .37298585 .634964 .394989 .6007538 .37998963 .6007538 .33999635 .6007538 .33999635 .5557556 .33999635 .524765 .3639984 .5097656 .38598634 .5097656 .4019928 .5097656 .43199159 .51875308 .43199159 .5577545 .43199159 .6178589 .3880005 .6660156 .30499269 .6660156 .1769867 .6660156 .041992189 .5367584 .041992189 .31570436 .041992189 .048553468 .1579895-.022460938 .25099183-.022460938 .3619995-.022460938 .45700074 .07156372 .45700074 .2036438 .45700074 .33070375 .36799623 .4267578 .25698854 .4267578 .18899536 .4267578 .1519928 .37573243 .13198853 .327713M.25099183 .0055389406C.18798828 .0055389406 .1579895 .06556702 .1519928 .080566409 .13398743 .127594 .13398743 .2076416 .13398743 .22564698 .13398743 .30369569 .1659851 .40374757 .2559967 .40374757 .27198792 .40374757 .31799317 .40374757 .34899903 .34172059 .36698915 .30470277 .36698915 .2536621 .36698915 .20463562 .36698915 .15661621 .36698915 .10658264 .34999085 .0705719 .31999208 .010528564 .27398683 .0055389406 .25099183 .0055389406Z"/>
<path id="font_3_7" d="M.16299439 .4569702C.116989139 .486969 .11299133 .52098086 .11299133 .5379791 .11299133 .598999 .17799378 .64100649 .24899292 .64100649 .32199098 .64100649 .38598634 .58898928 .38598634 .51698306 .38598634 .45996095 .34700013 .4119568 .2869873 .37695313L.16299439 .4569702M.30899049 .36193849C.3809967 .3989563 .42999269 .45095826 .42999269 .51698306 .42999269 .6090088 .34098817 .6660156 .25 .6660156 .1499939 .6660156 .068984989 .59199526 .068984989 .49897767 .068984989 .4809723 .070999149 .43595887 .11299133 .38894654 .12399292 .37695313 .16099549 .35194398 .18598938 .33494569 .12799073 .30592347 .041992189 .24984741 .041992189 .15072632 .041992189 .04458618 .14399719-.022460938 .24899292-.022460938 .3619995-.022460938 .45700074 .06060791 .45700074 .16773987 .45700074 .20379639 .44599916 .24885559 .4079895 .2909088 .3889923 .31193543 .37298585 .3219452 .30899049 .36193849M.20899964 .3199463 .33198548 .24183655C.3600006 .2228241 .40699769 .19277954 .40699769 .13169861 .40699769 .05760193 .33198548 .0055389406 .25 .0055389406 .1639862 .0055389406 .09199524 .067611698 .09199524 .15072632 .09199524 .20880127 .12399292 .27288819 .20899964 .3199463Z"/>
<path id="font_3_2" d="M.2939911 .64004519C.2939911 .66400149 .2939911 .6660156 .2709961 .6660156 .20899964 .60227969 .12098694 .60227969 .08898926 .60227969V.57128909C.10899353 .57128909 .16799927 .57128909 .21998596 .5972748V.07902527C.21998596 .042999269 .21699524 .0309906 .1269989 .0309906H.09498596V0C.12998963 .0029907227 .21699524 .0029907227 .25698854 .0029907227 .29699708 .0029907227 .38398744 .0029907227 .4189911 0V.0309906H.3869934C.29699708 .0309906 .2939911 .041992189 .2939911 .07902527V.64004519Z"/>
<path id="font_3_4" d="M.2899933 .35191346C.37199403 .37893678 .42999269 .4490509 .42999269 .52809146 .42999269 .6100464 .34199525 .6660156 .24598694 .6660156 .14498902 .6660156 .068984989 .60606387 .068984989 .53009036 .068984989 .49710084 .09098816 .47808839 .11999512 .47808839 .15098572 .47808839 .17098999 .50009158 .17098999 .5290985 .17098999 .57910159 .12399292 .57910159 .10899353 .57910159 .13999939 .62802127 .20599365 .64100649 .24198914 .64100649 .2829895 .64100649 .33799745 .6190338 .33799745 .5290985 .33799745 .51708987 .33599855 .45906068 .30999757 .4149933 .27999879 .36691285 .24598694 .36390687 .22099304 .36291505 .21299744 .36190797 .18899536 .35990907 .18199158 .35990907 .17399597 .35890199 .16699219 .35791017 .16699219 .3479004 .16699219 .33691407 .17399597 .33691407 .19099427 .33691407H.23498535C.31698609 .33691407 .35398866 .2686615 .35398866 .17037964 .35398866 .034469606 .2849884 .0055389406 .24099732 .0055389406 .19799805 .0055389406 .12298584 .022491456 .08799744 .08137512 .12298584 .07637024 .1539917 .09837341 .1539917 .1363678 .1539917 .17237854 .1269989 .19238281 .09799194 .19238281 .07398987 .19238281 .041992189 .17837525 .041992189 .1343689 .041992189 .043441774 .1349945-.022460938 .24398804-.022460938 .3659973-.022460938 .45700074 .06838989 .45700074 .17037964 .45700074 .252594 .3939972 .33088685 .2899933 .35191346Z"/>
<clipPath id="clip_5">
<path transform="matrix(1,0,0,-1,16.549,84.66701)" d="M0 0H143.18264V75.14793H0Z"/>
</clipPath>
<path id="font_4_2" d="M.33399964 .30233766C.33999635 .32835389 .36299134 .42037965 .43299867 .42037965 .43798829 .42037965 .46199037 .42037965 .48298646 .40734864 .45498658 .402359 .43499757 .37734986 .43499757 .35334779 .43499757 .33735658 .44599916 .31835938 .47299195 .31835938 .49499513 .31835938 .5269928 .3363495 .5269928 .37635804 .5269928 .42837525 .46798707 .4423828 .43399049 .4423828 .37599183 .4423828 .34098817 .38935853 .32899476 .36634828 .3039856 .43237306 .25 .4423828 .22099304 .4423828 .116989139 .4423828 .05999756 .3133545 .05999756 .28834535 .05999756 .27833558 .069992069 .27833558 .07199097 .27833558 .07998657 .27833558 .08299255 .28033448 .084991458 .28933717 .11898804 .39535523 .18499756 .42037965 .21899414 .42037965 .23799134 .42037965 .272995 .4113617 .272995 .35334779 .272995 .32235719 .2559967 .25532533 .21899414 .11528015 .20298767 .053268434 .16799927 .011245728 .12399292 .011245728 .117996219 .011245728 .09498596 .011245728 .07398987 .024276734 .09899902 .029266358 .12098694 .05027771 .12098694 .07827759 .12098694 .105270389 .09899902 .11328125 .083999637 .11328125 .053985597 .11328125 .0289917 .08728027 .0289917 .055267335 .0289917 .009246826 .07899475-.0107421879 .12298584-.0107421879 .18899536-.0107421879 .22499085 .059280397 .22799683 .0652771 .23999024 .028274537 .27598573-.0107421879 .33599855-.0107421879 .43899537-.0107421879 .49598695 .118270877 .49598695 .14328003 .49598695 .1532898 .4869995 .1532898 .48399354 .1532898 .47499085 .1532898 .47299195 .14929199 .47099305 .14228821 .43798829 .03527832 .36999513 .011245728 .33799745 .011245728 .29899598 .011245728 .2829895 .043273927 .2829895 .07727051 .2829895 .09927368 .2889862 .121276859 .2999878 .16529846L.33399964 .30233766Z"/>
<path id="font_4_3" d="M.48599244 .38136292C.48999024 .39537049 .48999024 .39736939 .48999024 .40437318 .48999024 .42237855 .47599793 .43138124 .46099855 .43138124 .45098878 .43138124 .43499757 .42536927 .42599488 .41036988 .42399598 .405365 .41600038 .37435914 .4119873 .35635377 .40499879 .33035279 .397995 .30334474 .3919983 .27633668L.34700013 .09628296C.34298707 .08126831 .2999878 .011245728 .23399353 .011245728 .18299866 .011245728 .17199707 .055267335 .17199707 .0922699 .17199707 .1382904 .18899536 .20030213 .22299195 .28833009 .23899842 .3293457 .24299622 .3403473 .24299622 .36035157 .24299622 .405365 .21099854 .4423828 .16099549 .4423828 .06599426 .4423828 .0289917 .29733277 .0289917 .28833009 .0289917 .27833558 .038986207 .27833558 .040985109 .27833558 .050994874 .27833558 .051986696 .28033448 .056991579 .29634095 .083999637 .3903656 .12399292 .42037965 .1579895 .42037965 .1659851 .42037965 .18299866 .42037965 .18299866 .3883667 .18299866 .36335755 .17298889 .3373413 .1659851 .31834413 .12599182 .21231079 .10798645 .1552887 .10798645 .10827637 .10798645 .019256592 .17098999-.0107421879 .22999573-.0107421879 .2689972-.0107421879 .30299378 .0062561037 .33099366 .03425598 .31799317-.017745972 .30599977-.06674194 .2659912-.11973572 .23999024-.15385437 .20199585-.18309021 .1559906-.18309021 .14199829-.18309021 .09700012-.18005371 .07998657-.14074707 .09599304-.14074707 .10899353-.14074707 .12298584-.1287384 .1329956-.11973572 .14299011-.10673523 .14299011-.08773804 .14299011-.056747438 .115997318-.052734376 .10598755-.052734376 .08299255-.052734376 .049987794-.068740848 .049987794-.11773682 .049987794-.16796875 .09399414-.20507813 .1559906-.20507813 .25898744-.20507813 .3619995-.11373901 .3899994-.00074768069L.48599244 .38136292Z"/>
</defs>
<path transform="matrix(1,0,0,-1,16.549,84.66701)" stroke-width=".3985" stroke-linecap="butt" stroke-miterlimit="10" stroke-linejoin="miter" fill="none" stroke="#e5e6e5" d="M0 0V75.14793M38.18202 0V75.14793M57.27306 0V75.14793M76.36407 0V75.14793M95.45508 0V75.14793M114.54611 0V75.14793M133.63713 0V75.14793"/>
<path transform="matrix(1,0,0,-1,16.549,84.66701)" stroke-width=".3985" stroke-linecap="butt" stroke-miterlimit="10" stroke-linejoin="miter" fill="none" stroke="#e5e6e5" d="M0 15.02959H143.18264M0 45.08876H143.18264M0 75.14793H143.18264"/>
<path transform="matrix(1,0,0,-1,16.549,84.66701)" stroke-width=".19925" stroke-linecap="butt" stroke-miterlimit="10" stroke-linejoin="miter" fill="none" stroke="#7f807f" d="M0-1.27567V1.27567M38.18202-1.27567V1.27567M57.27306-1.27567V1.27567M76.36407-1.27567V1.27567M95.45508-1.27567V1.27567M114.54611-1.27567V1.27567M133.63713-1.27567V1.27567"/>
<path transform="matrix(1,0,0,-1,16.549,84.66701)" stroke-width=".19925" stroke-linecap="butt" stroke-miterlimit="10" stroke-linejoin="miter" fill="none" stroke="#7f807f" d="M17.81523 15.02959H20.36676M17.81523 45.08876H20.36676M17.81523 75.14793H20.36676"/>
<path transform="matrix(1,0,0,-1,16.549,84.66701)" stroke-width=".3985" stroke-linecap="butt" stroke-miterlimit="10" stroke-linejoin="miter" fill="none" stroke="#000000" d="M0 0H141.19011"/>
<path transform="matrix(1,0,0,-1,157.7391,84.66701)" d="M1.99252 0-1.19551 1.59401 0 0-1.19551-1.59401"/>
<path transform="matrix(1,0,0,-1,16.549,84.66701)" stroke-width=".3985" stroke-linecap="butt" stroke-miterlimit="10" stroke-linejoin="miter" fill="none" stroke="#000000" d="M19.091 0V73.15541"/>
<path transform="matrix(0,-1,-1,-0,35.64,11.511597)" d="M1.99252 0-1.19551 1.59401 0 0-1.19551-1.59401"/>
<g clip-path="url(#clip_1)">
</g>
<use data-text="&#x2212;" xlink:href="#font_2_1" transform="matrix(9.96264,0,0,-9.96264,6.309,95.882)"/>
<use data-text="0" xlink:href="#font_3_1" transform="matrix(9.96264,0,0,-9.96264,14.058,95.882)"/>
<use data-text="." xlink:href="#font_4_1" transform="matrix(9.96264,0,0,-9.96264,19.039,95.882)"/>
<use data-text="2" xlink:href="#font_3_3" transform="matrix(9.96264,0,0,-9.96264,21.807,95.882)"/>
<use data-text="0" xlink:href="#font_3_1" transform="matrix(9.96264,0,0,-9.96264,48.364999,95.882)"/>
<use data-text="." xlink:href="#font_4_1" transform="matrix(9.96264,0,0,-9.96264,53.346998,95.882)"/>
<use data-text="2" xlink:href="#font_3_3" transform="matrix(9.96264,0,0,-9.96264,56.113996,95.882)"/>
<use data-text="0" xlink:href="#font_3_1" transform="matrix(9.96264,0,0,-9.96264,67.456,95.882)"/>
<use data-text="." xlink:href="#font_4_1" transform="matrix(9.96264,0,0,-9.96264,72.437,95.882)"/>
<use data-text="4" xlink:href="#font_3_5" transform="matrix(9.96264,0,0,-9.96264,75.205,95.882)"/>
<use data-text="0" xlink:href="#font_3_1" transform="matrix(9.96264,0,0,-9.96264,86.547,95.882)"/>
<use data-text="." xlink:href="#font_4_1" transform="matrix(9.96264,0,0,-9.96264,91.528,95.882)"/>
<use data-text="6" xlink:href="#font_3_6" transform="matrix(9.96264,0,0,-9.96264,94.296,95.882)"/>
<use data-text="0" xlink:href="#font_3_1" transform="matrix(9.96264,0,0,-9.96264,105.638,95.882)"/>
<use data-text="." xlink:href="#font_4_1" transform="matrix(9.96264,0,0,-9.96264,110.619,95.882)"/>
<use data-text="8" xlink:href="#font_3_7" transform="matrix(9.96264,0,0,-9.96264,113.386,95.882)"/>
<use data-text="1" xlink:href="#font_3_2" transform="matrix(9.96264,0,0,-9.96264,128.603,95.882)"/>
<use data-text="1" xlink:href="#font_3_2" transform="matrix(9.96264,0,0,-9.96264,143.819,95.882)"/>
<use data-text="." xlink:href="#font_4_1" transform="matrix(9.96264,0,0,-9.96264,148.8,95.882)"/>
<use data-text="2" xlink:href="#font_3_3" transform="matrix(9.96264,0,0,-9.96264,151.568,95.882)"/>
<use data-text="1" xlink:href="#font_3_2" transform="matrix(9.96264,0,0,-9.96264,25.862999,72.847)"/>
<use data-text="2" xlink:href="#font_3_3" transform="matrix(9.96264,0,0,-9.96264,25.862999,42.78901)"/>
<use data-text="3" xlink:href="#font_3_4" transform="matrix(9.96264,0,0,-9.96264,25.862999,12.730011)"/>
<g clip-path="url(#clip_5)">
<path transform="matrix(1,0,0,-1,16.549,84.66701)" stroke-width=".79701" stroke-linecap="butt" stroke-miterlimit="10" stroke-linejoin="miter" fill="none" stroke="#2471a3" d="M0 9.5807 .7195 9.76689 1.43901 9.95453 2.15852 10.14355 2.87804 10.33403 3.59753 10.52592 4.31706 10.71928 5.03656 10.91411 5.75609 11.1104 6.4756 11.30817 7.1951 11.50745 7.91461 11.70824 8.63412 11.91052 9.35364 12.11438 10.07315 12.31973 10.79266 12.52667 11.51218 12.73517 12.23169 12.94524 12.9512 13.1569 13.6707 13.37016 14.39023 13.58504 15.10973 13.80153 15.82925 14.01968 16.54877 14.23947 17.26826 14.46092 17.9878 14.68405 18.70729 14.90887 19.4268 15.13539 20.14632 15.36363 20.86583 15.59358 21.58534 15.82529 22.30486 16.05875 23.02437 16.29396 23.74388 16.53096 24.4634 16.76974 25.1829 17.01033 25.90242 17.25276 26.62192 17.49701 27.34143 17.74312 28.06096 17.99107 28.78046 18.24092 29.49998 18.49265 30.21948 18.74628 30.939 19.00185 31.65851 19.25932 32.37802 19.51875 33.09753 19.78015 33.81705 20.04353 34.53656 20.30891 35.25607 20.57628 35.97559 20.84567 36.69508 21.11713 37.41461 21.39061 38.13412 21.66617 38.85362 21.94382 39.57315 22.22357 40.29265 22.50543 41.01216 22.78941 41.73169 23.07556 42.45119 23.36386 43.1707 23.65436 43.89021 23.94705 44.60973 24.24196 45.32924 24.5391 46.04875 24.83847 46.76825 25.14012 47.48778 25.44405 48.20729 25.75027 48.9268 26.05882 49.64632 26.3697 50.36581 26.68295 51.08533 26.99854 51.80486 27.31653 52.52435 27.63693 53.24387 27.95976 53.96338 28.28502 54.68289 28.61275 55.4024 28.94295 56.12192 29.27567 56.84143 29.61087 57.56094 29.94864 58.28046 30.28893 58.99997 30.63182 59.71947 30.97731 60.43898 31.32541 61.15851 31.67613 61.87802 32.02951 62.59753 32.38557 63.31703 32.74432 64.03654 33.10579 64.75606 33.46997 65.47557 33.83693 66.19508 34.20668 66.9146 34.57921 67.63411 34.95456 68.35362 35.33273 69.07314 35.71379 69.79263 36.09772 70.51215 36.48456 71.23167 36.87433 71.95119 37.26703 72.6707 37.6627 73.3902 38.0614 74.10971 38.46309 74.82924 38.86781 75.54874 39.27562 76.26825 39.68651 76.98776 40.1005 77.70728 40.51761 78.42679 40.93788 79.1463 41.36136 79.8658 41.78801 80.58533 42.21791 81.30484 42.65106 82.02435 43.08748 82.74387 43.52719 83.46336 43.97025 84.18288 44.41664 84.9024 44.86642 85.6219 45.31961 86.34142 45.77621 87.06093 46.23628 87.78044 46.69983 88.49997 47.16689 89.21947 47.63748 89.93896 48.11162 90.6585 48.58936 91.378 49.07071 92.09752 49.55571 92.81703 50.04437 93.53653 50.53673 94.25606 51.03282 94.97557 51.53265 95.69508 52.03627 96.41458 52.5437 97.1341 53.05498 97.8536 53.57011 98.57314 54.08914 99.29263 54.6121 100.01215 55.13902 100.73166 55.66994 101.45117 56.20486 102.17068 56.74382 102.89018 57.28688 103.6097 57.83405 104.32922 58.38533 105.04874 58.94081 105.76825 59.50049 106.48775 60.06439 107.20726 60.63257 107.92679 61.20503 108.6463 61.78183 109.3658 62.363 110.08531 62.94856 110.80482 63.53856 111.52434 64.13303 112.24387 64.73198 112.96335 65.33546 113.68288 65.94351 114.40239 66.55617 115.1219 67.17346 115.84142 67.79544 116.56091 68.42209 117.28043 69.0535 117.99995 69.6897 118.71947 70.33069 119.43896 70.97655 120.15848 71.62727 120.87799 72.28294 121.5975 72.94356 122.31702 73.60918 123.03651 74.27982 123.75604 74.95557 124.47556 75.6364 125.19507 76.32239 125.91458 77.01358 126.63408 77.70999 127.3536 78.41168 128.07312 79.11867 128.79264 79.83101 129.51213 80.54874 130.23165 81.2719 130.95116 82.00055 131.67069 82.73468 132.39019 83.47438 133.1097 84.21968 133.82921 84.97061 134.54872 85.72723 135.26824 86.48958 135.98773 87.25769 136.70725 88.0316 137.42678 88.81139 138.14629 89.59706 138.8658 90.38869 139.5853 91.1863 140.30481 91.98994 141.02433 92.79967 141.74385 93.61552 142.46335 94.43755 143.18286 95.2658"/>
<path transform="matrix(1,0,0,-1,16.549,84.66701)" stroke-width=".79701" stroke-linecap="butt" stroke-miterlimit="10" stroke-linejoin="miter" fill="none" stroke="#b30000" d="M0 15.02948H.7195 1.43901 2.15852 2.87804 3.59753 4.31706 5.03656 5.75609 6.4756 7.1951 7.91461 8.63412 9.35364 10.07315 10.79266 11.51218 12.23169 12.9512 13.6707 14.39023 15.10973 15.82925 16.54877 17.26826 17.9878 18.70729 19.4268 20.14632 20.86583 21.58534 22.30486 23.02437 23.74388 24.4634 25.1829 25.90242 26.62192 27.34143 28.06096 28.78046 29.49998 30.21948 30.939 31.65851 32.37802 33.09753 33.81705 34.53656 35.25607 35.97559 36.69508 37.41461 38.13412 38.85362 39.57315 40.29265 41.01216 41.73169 42.45119 43.1707 43.89021 44.60973 45.32924 46.04875 46.76825 47.48778 48.20729 48.9268 49.64632 50.36581 51.08533 51.80486 52.52435 53.24387 53.96338 54.68289 55.4024 56.12192 56.84143 57.56094 58.28046 58.99997 59.71947 60.43898 61.15851 61.87802 62.59753 63.31703 64.03654 64.75606 65.47557 66.19508 66.9146 67.63411 68.35362 69.07314 69.79263 70.51215 71.23167 71.95119 72.6707 73.3902 74.10971 74.82924 75.54874 76.26825 76.98776 77.70728 78.42679 79.1463 79.8658 80.58533 81.30484 82.02435 82.74387 83.46336 84.18288 84.9024 85.6219 86.34142 87.06093 87.78044 88.49997 89.21947 89.93896 90.6585 91.378 92.09752 92.81703 93.53653 94.25606 94.97557 95.69508 96.41458 97.1341 97.8536 98.57314 99.29263 100.01215 100.73166 101.45117 102.17068 102.89018 103.6097 104.32922 105.04874 105.76825 106.48775 107.20726 107.92679 108.6463 109.3658 110.08531 110.80482 111.52434 112.24387 112.96335 113.68288 114.40239 115.1219 115.84142 116.56091 117.28043 117.99995 118.71947 119.43896 120.15848 120.87799 121.5975 122.31702 123.03651 123.75604 124.47556 125.19507 125.91458 126.63408 127.3536 128.07312 128.79264 129.51213 130.23165 130.95116 131.67069 132.39019 133.1097 133.82921 134.54872 135.26824 135.98773 136.70725 137.42678 138.14629 138.8658 139.5853 140.30481 141.02433 141.74385 142.46335 143.18286"/>
</g>
<use data-text="x" xlink:href="#font_4_2" transform="matrix(9.96264,0,0,-9.96264,150.317,80.948009)"/>
<use data-text="y" xlink:href="#font_4_3" transform="matrix(9.96264,0,0,-9.96264,39.358,17.528008)"/>
</svg>
