<svg xmlns="http://www.w3.org/2000/svg" xmlns:xlink="http://www.w3.org/1999/xlink" xmlns:inkscape="http://www.inkscape.org/namespaces/inkscape" version="1.1" width="204.087" height="148.005" viewBox="0 0 204.087 148.005">
<defs>
<path id="font_1_1" d="M.18199158 .116867069C.1329956 .036987306 .08898926 .033981325 .04899597 .0309906 .041992189 .02999878 .036987306 .021987915 .036987306 .0129852299 .036987306 .0069885256 .040985109 0 .050994874 0 .069992069 0 .116989139 .0029907227 .13598633 .0029907227 .1579895 .0029907227 .21199036 0 .23399353 0 .23999024 0 .25299073 0 .25299073 .017990113 .25299073 .02999878 .24099732 .0309906 .23799134 .0309906 .22898865 .03199768 .19099427 .033981325 .19099427 .063949588 .19099427 .077926639 .20199585 .09689331 .20498657 .101882938L.28399659 .23068238H.54499819C.5479889 .2077179 .5509949 .17378235 .55400088 .14881897 .55799868 .10987854 .56399539 .06593323 .56399539 .062942508 .56399539 .047973634 .5499878 .0309906 .49198915 .0309906 .48199464 .0309906 .46899415 .0309906 .46899415 .0129852299 .46899415 .0019989014 .47698976 0 .48399354 0 .5029907 0 .5269928 .0019989014 .5469971 .0019989014 .5669861 .0019989014 .59098818 .0029907227 .6069946 .0029907227 .6399994 .0029907227 .6419983 .0029907227 .66600039 .0019989014 .6819916 .0009918213 .7049866 0 .72099307 0 .72698977 0 .73999026 0 .73999026 .017990113 .73999026 .0309906 .72898867 .0309906 .71699526 .0309906 .6569977 .0309906 .6559906 .037979127 .6529999 .06694031L.58299258 .68881228C.58099368 .7108154 .5799866 .7158203 .5629883 .7158203 .548996 .7158203 .54299929 .7088165 .5349884 .69581606L.18199158 .116867069M.30299378 .26168824 .5049896 .5917816 .5419922 .26168824H.30299378Z"/>
<path id="font_1_2" d="M.16299439 .07595825C.1539917 .039993287 .1519928 .0309906 .07699585 .0309906 .057998659 .0309906 .04699707 .0309906 .04699707 .0129852299 .04699707 0 .056991579 0 .07499695 0H.43899537C.6009979 0 .7200012 .11793518 .7200012 .21485901 .7200012 .28581239 .6609955 .34576417 .56199648 .35676576 .6759949 .37875367 .772995 .4547119 .772995 .54367068 .772995 .6216278 .70098879 .6826172 .58200076 .6826172H.23999024C.22200012 .6826172 .20999146 .6826172 .20999146 .6646118 .20999146 .6516113 .21899414 .6516113 .23999024 .6516113 .24398804 .6516113 .2619934 .6516113 .27799989 .6496124 .29499818 .6476135 .3019867 .6456146 .3019867 .63461306 .3019867 .6296234 .30099488 .6256256 .2979889 .614624L.16299439 .07595825M.31900025 .36776734 .37998963 .6126251C.3889923 .64860537 .3909912 .6516113 .43299867 .6516113H.56799319C.6719971 .6516113 .68099978 .5726471 .68099978 .54766848 .68099978 .45870973 .58799746 .36776734 .47499085 .36776734H.31900025M.2709961 .0309906C.25698854 .0309906 .25498963 .0309906 .25099183 .03199768 .24099732 .032989503 .23799134 .033996583 .23799134 .040985109 .23799134 .04397583 .23799134 .04597473 .24299622 .063964847L.31199647 .34277345H.5C.56199648 .34277345 .625 .31578065 .625 .22485352 .625 .12593079 .5339966 .0309906 .4139862 .0309906H.2709961Z"/>
<path id="font_1_3" d="M.7739868 .67807009C.7769928 .6900635 .7769928 .69207766 .7769928 .69407656 .7769928 .69506838 .776001 .7050781 .7649994 .7050781 .7589874 .7050781 .7559967 .70207217 .7489929 .69407656L.6879883 .6270294C.6839905 .62202456 .6799927 .61802676 .67900088 .61802676 .6779938 .61802676 .6769867 .61901858 .67099 .62602236 .6559906 .64604189 .61099246 .7050781 .5069885 .7050781 .27799989 .7050781 .050994874 .48291017 .050994874 .25473023 .050994874 .09159851 .16999817-.022460938 .33099366-.022460938 .43499757-.022460938 .5169983 .031555177 .55599978 .0665741 .6469879 .14764405 .6639862 .23571778 .6639862 .23971558 .6639862 .24372864 .6619873 .25073243 .6499939 .25073243 .6389923 .25073243 .6369934 .24472046 .6359863 .24072266 .58699038 .079589847 .44400025 .008529663 .34399415 .008529663 .24699402 .008529663 .14399719 .06758118 .14399719 .21870423 .14399719 .2637329 .15899658 .42185975 .2599945 .54496768 .31999208 .61701968 .41799928 .67407229 .5139923 .67407229 .625 .67407229 .6839905 .5890045 .6839905 .47891236 .6839905 .44488526 .68099978 .43788148 .68099978 .4298706 .68099978 .41886903 .69299319 .41886903 .69599917 .41886903 .70899966 .41886903 .70899966 .42086793 .71398928 .43988038L.7739868 .67807009Z"/>
<path id="font_2_3" d="M.43798829 .38304139C.4019928 .37702943 .3869934 .34902955 .3869934 .32702638 .3869934 .30003358 .4079895 .29003907 .42599488 .29003907 .44799806 .29003907 .48298646 .30603028 .48298646 .35403443 .48298646 .4223938 .40499879 .44140626 .35099793 .44140626 .20098877 .44140626 .06199646 .3030243 .06199646 .16412354 .06199646 .078186038 .12199402-.009765625 .24699402-.009765625 .41600038-.009765625 .49499513 .08917236 .49499513 .10316467 .49499513 .10916138 .48599244 .120147708 .47799684 .120147708 .47200013 .120147708 .46998597 .1181488 .46199037 .11016846 .38398744 .018234253 .2669983 .018234253 .24899292 .018234253 .1769867 .018234253 .14498902 .06718445 .14498902 .12915039 .14498902 .15812683 .15899658 .26704408 .21099854 .33602906 .24899292 .3850708 .30099488 .4133911 .35099793 .4133911 .36499024 .4133911 .41299439 .41137696 .43798829 .38304139Z"/>
<path id="font_2_2" d="M.2639923 .66430667C.2649994 .66630557 .2679901 .67930606 .2679901 .68029788 .2679901 .68530276 .2639923 .6943054 .2519989 .6943054 .23199463 .6943054 .14898682 .6863098 .12399292 .6843109 .115997318 .68330386 .101989749 .682312 .101989749 .66130068 .101989749 .64730837 .115997318 .64730837 .12799073 .64730837 .17599488 .64730837 .17599488 .64030459 .17599488 .63230898 .17599488 .62532046 .1659851 .58532717 .1599884 .5623474L.13699341 .4703827C.12799073 .43640138 .07299805 .21731568 .070999149 .20431519 .06599426 .18029785 .06599426 .16729737 .06599426 .1552887 .06599426 .054244996 .12998963-.009765625 .21299744-.009765625 .33799745-.009765625 .47099305 .12626648 .47099305 .27433778 .47099305 .39138795 .3899994 .44140626 .32099916 .44140626 .2689972 .44140626 .22499085 .4123993 .19499207 .38638307L.2639923 .66430667M.21398926 .018234253C.16499329 .018234253 .13699341 .06124878 .13699341 .120269779 .13699341 .1572876 .1459961 .19129944 .17399597 .3043518 .17999268 .32336427 .17999268 .32536317 .19898987 .34736634 .23699951 .39138795 .28199769 .4133911 .31799317 .4133911 .35699464 .4133911 .3909912 .38438417 .3909912 .31636048 .3909912 .27534486 .36898805 .17329407 .33898927 .11526489 .31498719 .06625366 .2649994 .018234253 .21398926 .018234253Z"/>
<path id="font_2_1" d="M.42199708 .38238526C.40098573 .41540528 .36698915 .44140626 .31900025 .44140626 .19099427 .44140626 .06098938 .300354 .06098938 .15628052 .06098938 .059249879 .12599182-.009765625 .21199036-.009765625 .2659912-.009765625 .31399537 .021224976 .35398866 .0602417 .37298585 .00022888184 .43099977-.009765625 .45700074-.009765625 .49299623-.009765625 .5179901 .01222229 .5359955 .04324341 .55799868 .08226013 .57099917 .13928223 .57099917 .14328003 .57099917 .15628052 .55799868 .15628052 .5549927 .15628052 .54100039 .15628052 .5399933 .15228272 .5329895 .12527466 .5209961 .07725525 .5019989 .018234253 .45999146 .018234253 .43399049 .018234253 .4269867 .040237428 .4269867 .06724548 .4269867 .08425903 .43499757 .120269779 .44198609 .14628601 .44898988 .17329407 .45899964 .21430969 .46398927 .23632813L.48399354 .3123474C.48999024 .33836366 .5019989 .38539125 .5019989 .39038087 .5019989 .4123993 .48399354 .4223938 .46798707 .4223938 .45098878 .4223938 .42799378 .4104004 .42199708 .38238526M.35798646 .12527466C.35099793 .09725952 .32899476 .07725525 .30699159 .058242799 .2979889 .050247194 .2579956 .018234253 .21499634 .018234253 .17799378 .018234253 .14199829 .04423523 .14199829 .11526489 .14199829 .16828919 .17098999 .27833558 .19400025 .31835938 .23999024 .39839173 .29100038 .4133911 .31900025 .4133911 .3889923 .4133911 .4079895 .33737184 .4079895 .32635499 .4079895 .32235719 .4059906 .3153534 .40499879 .3123474L.35798646 .12527466Z"/>
<path id="font_3_2" d="M.5289917 .1640625V.20005799H.41799928V.64582827C.41799928 .66682437 .41799928 .6738281 .3959961 .6738281 .38398744 .6738281 .37998963 .6738281 .36999513 .65982058L.038986207 .20005799V.1640625H.33299256V.08201599C.33299256 .04800415 .33299256 .035995485 .2519989 .035995485H.22499085V0C.2749939 .0019989014 .33898927 .0039978029 .375 .0039978029 .4119873 .0039978029 .47599793 .0019989014 .526001 0V.035995485H.49899293C.41799928 .035995485 .41799928 .04800415 .41799928 .08201599V.1640625H.5289917M.33999635 .5658722V.20005799H.07598877L.33999635 .5658722Z"/>
<path id="font_3_3" d="M.15499878 .5588074C.20599365 .5458069 .23599243 .5458069 .2519989 .5458069 .38398744 .5458069 .46199037 .6358032 .46199037 .6508026 .46199037 .6618042 .45498658 .6648102 .44999696 .6648102 .44799806 .6648102 .44599916 .6648102 .44198609 .6618042 .41799928 .6528015 .36499024 .6328125 .29100038 .6328125 .2630005 .6328125 .20999146 .6348114 .14498902 .6598053 .1349945 .6648102 .1329956 .6648102 .13198853 .6648102 .11898804 .6648102 .11898804 .6538086 .11898804 .6378021V.34251405C.11898804 .32548524 .11898804 .3134613 .1349945 .3134613 .14399719 .3134613 .14498902 .3154602 .15499878 .32748414 .19799805 .38259889 .25898744 .390625 .2939911 .390625 .35398866 .390625 .3809967 .34251405 .38598634 .33450318 .4039917 .30143739 .4099884 .26335145 .4099884 .20524597 .4099884 .17524719 .4099884 .116256717 .37998963 .07234192 .35499574 .03640747 .31199647 .012466431 .2630005 .012466431 .19799805 .012466431 .1309967 .04838562 .10598755 .11425781 .14399719 .11125183 .16299439 .13624573 .16299439 .16325379 .16299439 .20625305 .12599182 .21424866 .11299133 .21424866 .11099243 .21424866 .06298828 .21424866 .06298828 .1602478 .06298828 .07034302 .14498902-.01953125 .2649994-.01953125 .3929901-.01953125 .5049896 .07533264 .5049896 .20124817 .5049896 .31445313 .4189911 .41862489 .29499818 .41862489 .25099183 .41862489 .19898987 .4076233 .15499878 .36956788V.5588074Z"/>
<path id="font_4_1" d="M.61099246 .25C.61099246 .3841095 .5019989 .49316407 .36799623 .49316407 .23399353 .49316407 .125 .3841095 .125 .25 .125 .115875247 .23399353 .0068359377 .36799623 .0068359377 .5019989 .0068359377 .61099246 .115875247 .61099246 .25M.36799623 .06283569C.2649994 .06283569 .18099976 .14689636 .18099976 .25 .18099976 .35308839 .2649994 .43714906 .36799623 .43714906 .47099305 .43714906 .5549927 .35308839 .5549927 .25 .5549927 .14689636 .47099305 .06283569 .36799623 .06283569Z"/>
<path id="font_3_4" d="M.1499939 .3274536C.1499939 .40945436 .15699768 .48303224 .19499207 .543869 .22898865 .5978699 .2829895 .63505557 .34700013 .63505557 .3769989 .63505557 .4169922 .62701418 .43699647 .5998688 .4119873 .5978699 .3909912 .5808716 .3909912 .5518799 .3909912 .5268707 .4079895 .5048828 .43798829 .5048828 .46798707 .5048828 .48599244 .5248718 .48599244 .5538788 .48599244 .6119385 .44400025 .6640625 .34498597 .6640625 .20098877 .6640625 .053985597 .5318756 .053985597 .3174591 .053985597 .05845642 .17599488-.01953125 .28599549-.01953125 .4079895-.01953125 .5139923 .07345581 .5139923 .20445252 .5139923 .33145143 .41299439 .42546083 .29599 .42546083 .21598816 .42546083 .17199707 .37245179 .1499939 .3274536M.28599549 .012466431C.23599243 .012466431 .19699097 .04145813 .17599488 .08546448 .16099549 .11546326 .15299988 .16545105 .15299988 .22544861 .15299988 .32244874 .21099854 .39746095 .29100038 .39746095 .33699037 .39746095 .36799623 .37945558 .3929901 .342453 .4169922 .30445863 .41799928 .26245118 .41799928 .20445252 .41799928 .14746094 .41799928 .10545349 .3909912 .066467288 .36698915 .031463624 .33499146 .012466431 .28599549 .012466431Z"/>
<path id="font_3_1" d="M.5159912 .31925965C.5159912 .42918397 .5029907 .50813296 .45700074 .5780945 .42599488 .62405398 .3639984 .6640625 .28399659 .6640625 .051986696 .6640625 .051986696 .39120484 .051986696 .31925965 .051986696 .2472992 .051986696-.01953125 .28399659-.01953125 .5159912-.01953125 .5159912 .2472992 .5159912 .31925965M.28399659 .008468628C.23799134 .008468628 .1769867 .035446168 .15699768 .117385867 .14299011 .17634583 .14299011 .25830079 .14299011 .33224488 .14299011 .40519715 .14299011 .4811554 .1579895 .53611758 .1789856 .6150665 .24299622 .63604739 .28399659 .63604739 .33799745 .63604739 .3899994 .6030731 .4079895 .545105 .42399598 .4911499 .4249878 .41918946 .4249878 .33224488 .4249878 .25830079 .4249878 .18434143 .4119873 .12138367 .3919983 .030441285 .32398988 .008468628 .28399659 .008468628Z"/>
<path id="font_3_5" d="M.5349884 .6045227C.54499819 .6165161 .54499819 .6185303 .54499819 .64453127H.2829895C.24299622 .64453127 .23199463 .6455078 .19599915 .6484375 .14399719 .65234377 .14199829 .6592407 .13899231 .676239H.10499573L.069992069 .46250917H.10398865C.10598755 .47750855 .115997318 .54351809 .13198853 .5535126 .13999939 .55952456 .22099304 .55952456 .23599243 .55952456H.45399476C.42199708 .5175171 .37098695 .45550538 .34999085 .4275055 .21899414 .25549317 .20698548 .096466068 .20698548 .037460329 .20698548 .02645874 .20698548-.01953125 .2539978-.01953125 .3019867-.01953125 .3019867 .025466919 .3019867 .038467409V.07847595C.3019867 .27249146 .34199525 .36149598 .3849945 .41551209L.5349884 .6045227Z"/>
</defs>
<path transform="matrix(1,0,0,-1,16.739,132.04901)" stroke-width=".79701" stroke-linecap="butt" stroke-miterlimit="10" stroke-linejoin="miter" fill="none" stroke="#000000" d="M0 0H170.10161L45.50246 116.09415Z"/>
<use data-text="A" xlink:href="#font_1_1" transform="matrix(8.96638,0,0,-8.96638,6.309,141.69602)"/>
<use data-text="B" xlink:href="#font_1_2" transform="matrix(8.96638,0,0,-8.96638,190.358,141.69602)"/>
<use data-text="C" xlink:href="#font_1_3" transform="matrix(8.96638,0,0,-8.96638,58.633005,12.436005)"/>
<use data-text="c" xlink:href="#font_2_3" transform="matrix(6.97385,0,0,-6.97385,100.008998,138.57102)"/>
<use data-text="b" xlink:href="#font_2_2" transform="matrix(6.97385,0,0,-6.97385,32.467,76.424)"/>
<use data-text="a" xlink:href="#font_2_1" transform="matrix(6.97385,0,0,-6.97385,128.06,75.504009)"/>
<path transform="matrix(1,0,0,-1,16.739,132.04901)" stroke-width=".3985" stroke-linecap="butt" stroke-miterlimit="10" stroke-linejoin="miter" fill="none" stroke="#000000" d="M22.67744 0C22.67744 9.32932 16.96005 17.70824 8.27461 21.11234"/>
<use data-text="4" xlink:href="#font_3_2" transform="matrix(6.97385,0,0,-6.97385,38.785,115.61301)"/>
<use data-text="5" xlink:href="#font_3_3" transform="matrix(6.97385,0,0,-6.97385,42.75312,115.61301)"/>
<use data-text="&#x25e6;" xlink:href="#font_4_1" transform="matrix(4.98132,0,0,-4.98132,46.727,112.60701)"/>
<path transform="matrix(1,0,0,-1,16.739,132.04901)" stroke-width=".3985" stroke-linecap="butt" stroke-miterlimit="10" stroke-linejoin="miter" fill="none" stroke="#000000" d="M155.56363 13.52684C152.1421 9.8548 150.23809 5.0191 150.23809 0"/>
<use data-text="6" xlink:href="#font_3_4" transform="matrix(6.97385,0,0,-6.97385,151.22499,123.15201)"/>
<use data-text="0" xlink:href="#font_3_1" transform="matrix(6.97385,0,0,-6.97385,155.19312,123.15201)"/>
<use data-text="&#x25e6;" xlink:href="#font_4_1" transform="matrix(4.98132,0,0,-4.98132,159.16699,120.145008)"/>
<path transform="matrix(1,0,0,-1,16.739,132.04901)" stroke-width=".3985" stroke-linecap="butt" stroke-miterlimit="10" stroke-linejoin="miter" fill="none" stroke="#000000" d="M39.29097 100.24573C45.7879 97.69939 53.18295 99.37994 57.94025 104.48555"/>
<use data-text="7" xlink:href="#font_3_5" transform="matrix(6.97385,0,0,-6.97385,62.592004,46.894006)"/>
<use data-text="5" xlink:href="#font_3_3" transform="matrix(6.97385,0,0,-6.97385,66.56012,46.894006)"/>
<use data-text="&#x25e6;" xlink:href="#font_4_1" transform="matrix(4.98132,0,0,-4.98132,70.535,43.88801)"/>
<path transform="matrix(1,0,0,-1,16.739,132.04901)" d="M1.79327 0C1.79327 .9904 .9904 1.79327 0 1.79327-.9904 1.79327-1.79327 .9904-1.79327 0-1.79327-.9904-.9904-1.79327 0-1.79327 .9904-1.79327 1.79327-.9904 1.79327 0ZM0 0"/>
<path transform="matrix(1,0,0,-1,16.739,132.04901)" d="M171.89488 0C171.89488 .9904 171.09201 1.79327 170.10161 1.79327 169.11119 1.79327 168.30832 .9904 168.30832 0 168.30832-.9904 169.11119-1.79327 170.10161-1.79327 171.09201-1.79327 171.89488-.9904 171.89488 0ZM170.10161 0"/>
<path transform="matrix(1,0,0,-1,16.739,132.04901)" d="M47.29575 116.09415C47.29575 117.08455 46.49287 117.88742 45.50246 117.88742 44.51205 117.88742 43.70918 117.08455 43.70918 116.09415 43.70918 115.10373 44.51205 114.30086 45.50246 114.30086 46.49287 114.30086 47.29575 115.10373 47.29575 116.09415ZM45.50246 116.09415"/>
</svg>
