<svg xmlns="http://www.w3.org/2000/svg" xmlns:xlink="http://www.w3.org/1999/xlink" xmlns:inkscape="http://www.inkscape.org/namespaces/inkscape" version="1.1" width="402.96" height="229.507" viewBox="0 0 402.96 229.507">
<defs>
<path id="font_1_2" d="M.20599365 .3996582H.2999878C.31999208 .3996582 .32998658 .3996582 .32998658 .41966249 .32998658 .43066407 .31999208 .43066407 .3019867 .43066407H.21398926C.25 .5724945 .25498963 .59246829 .25498963 .59846499 .25498963 .61546328 .24299622 .62545779 .22599793 .62545779 .22299195 .62545779 .19499207 .62446597 .18598938 .58947756L.14698792 .43066407H.052993776C.032989503 .43066407 .022994996 .43066407 .022994996 .4116516 .022994996 .3996582 .0309906 .3996582 .050994874 .3996582H.13899231C.066986087 .11608887 .06298828 .099121097 .06298828 .08114624 .06298828 .02722168 .100997928-.0107421879 .15499878-.0107421879 .25698854-.0107421879 .31399537 .13505554 .31399537 .14305115 .31399537 .1530304 .30599977 .1530304 .3019867 .1530304 .29299928 .1530304 .2919922 .15003968 .2869873 .13905335 .24398804 .035217287 .19099427 .011245728 .15699768 .011245728 .13598633 .011245728 .12599182 .024230957 .12599182 .057174684 .12599182 .08114624 .12799073 .088134769 .13198853 .10510254L.20599365 .3996582Z"/>
<path id="font_2_1" d="M.33099366-.2400055C.33099366-.23701477 .33099366-.23500061 .31399537-.21800232 .18899536-.0920105 .15699768 .09700012 .15699768 .25 .15699768 .42399598 .19499207 .59799197 .31799317 .72299197 .33099366 .73498538 .33099366 .7369995 .33099366 .73999026 .33099366 .746994 .32699586 .75 .32099916 .75 .31098939 .75 .22099304 .6819916 .1619873 .5549927 .11099243 .44499208 .09899902 .33399964 .09899902 .25 .09899902 .17199707 .10998535 .050994874 .16499329-.06201172 .22499085-.18501282 .31098939-.25 .32099916-.25 .32699586-.25 .33099366-.24700928 .33099366-.2400055Z"/>
<path id="font_2_5" d="M.20799256 .19424439C.22999573 .19024658 .31199647 .17424011 .31199647 .102249149 .31199647 .051254274 .2769928 .011245728 .19898987 .011245728 .114990238 .011245728 .07899475 .06825256 .05999756 .15324402 .056991579 .1662445 .055999757 .17024231 .04598999 .17024231 .032989503 .17024231 .032989503 .16323853 .032989503 .14524842V.013244629C.032989503-.003753662 .032989503-.0107421879 .04399109-.0107421879 .04899597-.0107421879 .049987794-.009750366 .068984989 .009246826 .070999149 .011245728 .070999149 .013244629 .08898926 .03224182 .1329956-.009750366 .17799378-.0107421879 .19898987-.0107421879 .31399537-.0107421879 .3600006 .056243898 .3600006 .12825012 .3600006 .1812439 .32998658 .21124268 .31799317 .22323609 .2849884 .25523377 .24598694 .26324464 .20399475 .27124024 .147995 .28224183 .08099365 .2952423 .08099365 .35324098 .08099365 .38822938 .10699463 .42922975 .19299317 .42922975 .30299378 .42922975 .30799867 .3392334 .30999757 .3082428 .31098939 .2992401 .31999208 .2992401 .32199098 .2992401 .33499146 .2992401 .33499146 .304245 .33499146 .3232422V.4242401C.33499146 .4412384 .33499146 .4482422 .32398988 .4482422 .31900025 .4482422 .31698609 .4482422 .3039856 .43623353 .30099488 .43223573 .29100038 .42323304 .2869873 .42022706 .24899292 .4482422 .20799256 .4482422 .19299317 .4482422 .070999149 .4482422 .032989503 .38124085 .032989503 .3252411 .032989503 .29023744 .04899597 .26223756 .07598877 .24023438 .10798645 .21424866 .13598633 .2082367 .20799256 .19424439Z"/>
<path id="font_2_2" d="M.2889862 .25C.2889862 .32798768 .27799989 .44898988 .22299195 .56199648 .16299439 .68499758 .07699585 .75 .066986087 .75 .06098938 .75 .056991579 .74598696 .056991579 .73999026 .056991579 .7369995 .056991579 .73498538 .07598877 .71699526 .17399597 .6179962 .23098755 .45899964 .23098755 .25 .23098755 .07899475 .19400025-.09700012 .069992069-.2230072 .056991579-.23500061 .056991579-.23701477 .056991579-.2400055 .056991579-.2460022 .06098938-.25 .066986087-.25 .07699585-.25 .16699219-.18200684 .22599793-.055007936 .2769928 .054992677 .2889862 .16600037 .2889862 .25Z"/>
<path id="font_1_3" d="M.46798707 .37236024C.46798707 .42637635 .44198609 .4423828 .42399598 .4423828 .39898683 .4423828 .375 .41636659 .375 .3943634 .375 .38136292 .37998963 .3753662 .3909912 .36434938 .4119873 .3443451 .4249878 .31834413 .4249878 .28233338 .4249878 .24032593 .3639984 .011245728 .24699402 .011245728 .19599915 .011245728 .17298889 .04626465 .17298889 .09828186 .17298889 .15429688 .19999695 .22731018 .23098755 .31033326 .23799134 .3273468 .24299622 .34135438 .24299622 .36035157 .24299622 .405365 .21099854 .4423828 .16099549 .4423828 .066986087 .4423828 .0289917 .29733277 .0289917 .28833009 .0289917 .27833558 .038986207 .27833558 .040985109 .27833558 .050994874 .27833558 .051986696 .28033448 .056991579 .29634095 .085998538 .39736939 .1289978 .42037965 .1579895 .42037965 .1659851 .42037965 .18299866 .42037965 .18299866 .3883667 .18299866 .36335755 .17298889 .3363495 .1659851 .31834413 .12199402 .20230103 .10899353 .15629578 .10899353 .11328125 .10899353 .0052490236 .19699097-.0107421879 .24299622-.0107421879 .41099549-.0107421879 .46798707 .32034303 .46798707 .37236024Z"/>
<path id="font_2_3" d="M.10598755 .07595825C.10598755 .0309906 .09498596 .0309906 .027999878 .0309906V0C.06098938 .0009918213 .10798645 .0029907227 .13699341 .0029907227 .16699219 .0029907227 .20698548 .0019989014 .24699402 0V.0309906C.17999268 .0309906 .16899109 .0309906 .16899109 .07595825V.17886353L.23298645 .23381043C.30999757 .12789917 .35198976 .07196045 .35198976 .053970338 .35198976 .034988405 .33499146 .0309906 .31599427 .0309906V0C.34399415 .0009918213 .40299989 .0029907227 .42399598 .0029907227 .45298768 .0029907227 .48199464 .0019989014 .5109863 0V.0309906C.47399903 .0309906 .45199586 .0309906 .4139862 .0839386L.2869873 .26278688C.28599549 .26478578 .2809906 .2707672 .2809906 .2737732 .2809906 .277771 .35198976 .33770753 .3619995 .34570313 .4249878 .39666749 .46699525 .39865113 .48799134 .3996582V.43066407C.45899964 .42765809 .44599916 .42765809 .41799928 .42765809 .38198854 .42765809 .31999208 .42965699 .30599977 .43066407V.3996582C.32499696 .39865113 .33499146 .3876648 .33499146 .37467958 .33499146 .3547058 .32099916 .3427124 .31298829 .33570863L.17199707 .21382141V.69433596L.027999878 .68333438V.6523285C.09799194 .6523285 .10598755 .64530947 .10598755 .5961609V.07595825Z"/>
<path id="font_2_4" d="M.10998535 .34429933V.076034549C.10998535 .0309906 .09899902 .0309906 .03199768 .0309906V0C.066986087 .0009918213 .117996219 .0029907227 .14498902 .0029907227 .17098999 .0029907227 .22299195 .0009918213 .25698854 0V.0309906C.18998719 .0309906 .1789856 .0309906 .1789856 .076034549V.2602234C.1789856 .36431886 .25 .42037965 .31399537 .42037965 .3769989 .42037965 .3880005 .36631776 .3880005 .30926515V.076034549C.3880005 .0309906 .3769989 .0309906 .30999757 .0309906V0C.34498597 .0009918213 .3959961 .0029907227 .4229889 .0029907227 .44898988 .0029907227 .5009918 .0009918213 .5349884 0V.0309906C.46798707 .0309906 .45700074 .0309906 .45700074 .076034549V.2602234C.45700074 .36431886 .5279999 .42037965 .59199526 .42037965 .6549988 .42037965 .66600039 .36631776 .66600039 .30926515V.076034549C.66600039 .0309906 .6549988 .0309906 .58799746 .0309906V0C.6230011 .0009918213 .673996 .0029907227 .70098879 .0029907227 .72698977 .0029907227 .7789917 .0009918213 .8129883 0V.0309906C.7609863 .0309906 .73599246 .0309906 .7350006 .061019899V.25221253C.7350006 .3383026 .7350006 .36932374 .70399478 .405365 .6899872 .42237855 .6569977 .4423828 .598999 .4423828 .5149994 .4423828 .47099305 .38233949 .45399476 .34429933 .43998719 .43138124 .3659973 .4423828 .32099916 .4423828 .24798584 .4423828 .20098877 .39935304 .17298889 .33729554V.4423828L.03199768 .43138124V.40037538C.101989749 .4003601 .10998535 .39335633 .10998535 .34429933Z"/>
<path id="font_1_1" d="M.43899537 .71199038C.44400025 .72499087 .44400025 .72898867 .44400025 .7299957 .44400025 .7409973 .43499757 .75 .42399598 .75 .4169922 .75 .4099884 .746994 .40699769 .7409973L.05999756-.21200562C.054992677-.2250061 .054992677-.2290039 .054992677-.23001099 .054992677-.24101258 .06399536-.25 .07499695-.25 .08799744-.25 .09098816-.24301148 .09700012-.22601319L.43899537 .71199038Z"/>
<path id="font_3_56" d="M.5049896 .20095825C.5049896 .31396485 .4189911 .41796876 .29499818 .41796876 .25099183 .41796876 .19898987 .40696717 .15499878 .36895753V.5579071C.20599365 .5449219 .23599243 .5449219 .2519989 .5449219 .38398744 .5449219 .46199037 .6349182 .46199037 .6499176 .46199037 .6610565 .45498658 .6640625 .44999696 .6640625 .44999696 .6640625 .44599916 .6640625 .44198609 .6610565 .41799928 .65205386 .36499024 .63204959 .29100038 .63204959 .2630005 .63204959 .20999146 .63404849 .14498902 .6590576 .1349945 .6640625 .13198853 .6640625 .13198853 .6640625 .11898804 .6640625 .11898804 .6530609 .11898804 .63705447V.34204103C.11898804 .32507325 .11898804 .3130951 .1349945 .3130951 .14399719 .3130951 .14498902 .31507875 .15499878 .32707215 .19799805 .38197328 .25898744 .3899536 .2939911 .3899536 .35398866 .3899536 .3809967 .34204103 .38598634 .33406068 .4039917 .30110169 .4099884 .26316834 .4099884 .20524597 .4099884 .17524719 .4099884 .116256717 .37998963 .07234192 .35499574 .03640747 .31199647 .012466431 .2630005 .012466431 .19799805 .012466431 .1309967 .04838562 .10598755 .11425781 .14399719 .11125183 .16299439 .13624573 .16299439 .16325379 .16299439 .20625305 .12599182 .21424866 .11299133 .21424866 .11299133 .21424866 .06298828 .21424866 .06298828 .1602478 .06298828 .07034302 .14498902-.01953125 .2649994-.01953125 .3929901-.019744873 .5049896 .07525635 .5049896 .20124817V.20095825Z"/>
<path id="font_3_82" d="M.47299195 0V.035995485H.43499757C.33499146 .035995485 .33499146 .048980714 .33499146 .081970218V.6357422C.33499146 .66304019 .33299256 .6640625 .30499269 .6640625 .24099732 .6007385 .1499939 .59973147 .10899353 .59973147V.5644531C.1329956 .5644531 .19898987 .5644531 .2539978 .592453V.08203125C.2539978 .04899597 .2539978 .035995485 .1539917 .035995485H.115997318V0L.2939911 .0039978029 .47299195 0Z"/>
<path id="font_3_121" d="M.5159912 .31925965C.5159912 .42918397 .5029907 .50813296 .45700074 .5780945 .42599488 .62405398 .3639984 .6640625 .28399659 .6640625 .051986696 .6640625 .051986696 .39120484 .051986696 .31925965 .051986696 .2472992 .051986696-.01953125 .28399659-.01953125 .5159912-.01953125 .5159912 .2472992 .5159912 .31925965M.4249878 .33224488C.4249878 .25830079 .4249878 .18434143 .4119873 .12138367 .3919983 .030441285 .32398988 .008468628 .28399659 .008468628 .23799134 .008468628 .1769867 .035446168 .15699768 .117385867 .14299011 .17634583 .14299011 .25830079 .14299011 .33224488 .14299011 .40519715 .14299011 .4811554 .1579895 .53611758 .1789856 .6150665 .24299622 .63604739 .28399659 .63604739 .33799745 .63604739 .3899994 .6030731 .4079895 .545105 .42399598 .4911499 .4249878 .41918946 .4249878 .33224488Z"/>
<path id="font_3_107" d="M.5049896 .18203736H.47099305C.46798707 .16001892 .45799256 .100997928 .44499208 .09098816 .43699647 .084991458 .3600006 .084991458 .34599305 .084991458H.1619873C.2669983 .17803955 .3019867 .20603943 .3619995 .25306703 .43598939 .312088 .5049896 .374115 .5049896 .46914674 .5049896 .5900879 .39898683 .6640625 .2709961 .6640625 .14698792 .6640625 .06298828 .57710269 .06298828 .4851532 .06298828 .43414308 .10598755 .42915345 .115997318 .42915345 .13999939 .42915345 .16899109 .44615174 .16899109 .48214723 .16899109 .5001526 .1619873 .53515627 .10998535 .53515627 .14099121 .6060791 .20899964 .62805178 .2559967 .62805178 .35598756 .62805178 .4079895 .5501404 .4079895 .46914674 .4079895 .38212586 .34599305 .3130951 .31399537 .27708436L.07299805 .038986207C.06298828 .02999878 .06298828 .027999878 .06298828 0H.47499085L.5049896 .18203736Z"/>
<path id="font_3_106" d="M.5139923 .1733551C.5139923 .2513275 .44999696 .32929994 .33999635 .35229493 .44499208 .39024354 .48298646 .4650879 .48298646 .5260773 .48298646 .60505679 .3919983 .6640625 .2809906 .6640625 .16999817 .6640625 .084991458 .61006167 .084991458 .5300751 .084991458 .49606324 .10699463 .47706605 .13699341 .47706605 .16799927 .47706605 .18798828 .5000763 .18798828 .5280762 .18798828 .5570679 .16799927 .57806399 .13699341 .5800781 .17199707 .62405398 .24099732 .63505557 .27799989 .63505557 .32299806 .63505557 .38598634 .6130676 .38598634 .5260773 .38598634 .48406983 .37199403 .43814088 .34599305 .4072113 .31298829 .36927796 .2849884 .3672943 .23498535 .36428834 .20999146 .3623047 .20799256 .3623047 .20298767 .3612976 .20298767 .3612976 .19299317 .3592987 .19299317 .34829713 .19299317 .33428956 .20199585 .33428956 .21899414 .33428956H.272995C.35099793 .33428956 .40699769 .2803192 .40699769 .1733551 .40699769 .04940796 .33499146 .012466431 .2769928 .012466431 .23699951 .012466431 .14898682 .0234375 .10699463 .082351688 .1539917 .084350589 .16499329 .11735535 .16499329 .13835144 .16499329 .17034912 .14099121 .19335938 .10998535 .19335938 .08198547 .19335938 .053985597 .17634583 .053985597 .13534546 .053985597 .041412355 .1579895-.01953125 .2789917-.01953125 .41799928-.01953125 .5139923 .07336426 .5139923 .1733551Z"/>
<path id="font_3_57" d="M.5289917 .1640625V.20005799H.41799928V.6458435C.41799928 .66682437 .41799928 .6738281 .3959961 .6738281 .38398744 .6738281 .37998963 .6738281 .36999513 .6598358L.038986207 .20005799V.1640625H.33299256V.08201599C.33299256 .04800415 .33299256 .035995485 .2519989 .035995485H.22499085V0L.375 .0039978029 .526001 0V.035995485H.49899293C.41799928 .035995485 .41799928 .04800415 .41799928 .08201599V.1640625H.5289917M.33999635 .20005799H.07598877L.33999635 .5658722V.20005799Z"/>
<path id="font_3_101" d="M.5139923 .20445252C.5139923 .33145143 .41299439 .42546083 .29599 .42546083 .21598816 .42546083 .17199707 .37245179 .1499939 .3274536 .1499939 .40945436 .15699768 .48303224 .19499207 .543869 .22898865 .5978699 .2829895 .63505557 .34700013 .63505557 .3769989 .63505557 .4169922 .62701418 .43699647 .5998688 .4119873 .5978699 .3909912 .5808716 .3909912 .5518799 .3909912 .5268707 .4079895 .5048828 .43798829 .5048828 .46798707 .5048828 .48599244 .5248718 .48599244 .5538788 .48599244 .6119385 .44400025 .6640625 .34498597 .6640625 .20098877 .6640625 .053985597 .5318756 .053985597 .3174591 .053985597 .05845642 .17599488-.01953125 .28599549-.01953125 .4079895-.01953125 .5139923 .07345581 .5139923 .20445252M.41799928 .20445252C.41799928 .14746094 .41799928 .10545349 .3909912 .066467288 .36698915 .031463624 .33499146 .012466431 .28599549 .012466431 .23599243 .012466431 .19699097 .04145813 .17599488 .08546448 .16099549 .115448 .15299988 .16545105 .15299988 .22544861 .15299988 .32244874 .21099854 .39746095 .29100038 .39746095 .33699037 .39746095 .36799623 .37945558 .3929901 .342453 .4169922 .30445863 .41799928 .26245118 .41799928 .20445252Z"/>
<path id="font_3_51" d="M.5139923 .16905213C.5139923 .23504639 .47499085 .2910614 .4169922 .32505799L.35499574 .36105348C.43299867 .39904786 .48298646 .44606019 .48298646 .5150604 .48298646 .61206057 .38198854 .6640625 .2849884 .6640625 .1749878 .6640625 .084991458 .5920563 .084991458 .49705506 .084991458 .45005799 .10699463 .4160614 .125 .39605714 .14299011 .37506105 .1499939 .37104798 .20899964 .33605958 .15299988 .31245423 .053985597 .25846864 .053985597 .15345764 .053985597 .04246521 .16899109-.01953125 .2829895-.01953125 .4099884-.01953125 .5139923 .061462404 .5139923 .16946411V.16905213M.42999269 .51545718C.42999269 .4264679 .32398988 .38145448 .32398988 .38145448 .32398988 .38145448 .31999208 .38246156 .31298829 .38645936L.19198609 .45646668C.1659851 .4711609 .13798523 .49813844 .13798523 .53512576 .13798523 .5980835 .21099854 .63505557 .2829895 .63505557 .36099244 .63505557 .42999269 .5860901 .42999269 .5151367V.51545718M.45399476 .13438416C.45399476 .059432985 .37098695 .012466431 .2849884 .012466431 .19299317 .011993408 .11399841 .070999149 .11399841 .15299988 .11399841 .22698975 .16899109 .28399659 .24099732 .31698609 .29699708 .2849884 .29899598 .2849884 .37799073 .23799134 .4039917 .22299195 .45399476 .19299317 .45399476 .13398743V.13438416Z"/>
<path id="font_4_3" d="M.71499636 .5637207C.7519989 .61764529 .7839966 .64260867 .83799746 .64660647 .84999087 .6476135 .86099246 .64860537 .86099246 .6686096 .86099246 .6716156 .85899356 .6826172 .8470001 .6826172 .82299807 .6826172 .7919922 .6786041 .7669983 .6786041 .7350006 .6786041 .69299319 .6826172 .6629944 .6826172 .6539917 .6826172 .6429901 .6796112 .6429901 .660614 .6429901 .6476135 .6569977 .64660647 .6609955 .64660647 .69299319 .64460757 .70199587 .6326294 .70199587 .61764529 .70199587 .6036682 .69499209 .5936737 .6839905 .57769778L.35598756 .09434509 .2649994 .60466006C.2630005 .61364749 .2630005 .61564639 .2630005 .61964419 .2630005 .64660647 .31900025 .64660647 .32598878 .64660647 .34298707 .64660647 .35598756 .64660647 .35598756 .6686096 .35598756 .6696167 .35499574 .6826172 .33898927 .6826172 .30999757 .6826172 .23899842 .6786041 .20999146 .6786041 .18499756 .6786041 .12399292 .6826172 .09899902 .6826172 .08999634 .6826172 .07899475 .6796112 .07899475 .660614 .07899475 .64660647 .09298706 .64660647 .10398865 .64660647 .1599884 .64660647 .16099549 .64060977 .1659851 .61465457L.2749939 .007446289C.2789917-.013534546 .27999879-.01953125 .29899598-.01953125 .31799317-.01953125 .32299806-.012542725 .33299256 .002456665L.71499636 .5637207Z"/>
<path id="font_5_1" d="M.35499574 .75C.16499329 .61598208 .114990238 .40397645 .114990238 .25097657 .114990238 .10997009 .15699768-.10902405 .35499574-.24902344 .36299134-.24902344 .375-.24902344 .375-.23703003 .375-.23103333 .37199403-.22903443 .36499024-.22203064 .23199463-.10203552 .18299866 .067977908 .18299866 .24996948 .18299866 .519989 .28599549 .65197756 .36799623 .72598269 .37199403 .7299957 .375 .73298647 .375 .73799136 .375 .75 .36299134 .75 .35499574 .75Z"/>
<path id="font_5_5" d="M.15499878 .5588074C.20599365 .5458069 .23599243 .5458069 .2519989 .5458069 .38398744 .5458069 .46199037 .6358032 .46199037 .6508026 .46199037 .6618042 .45498658 .6648102 .44999696 .6648102 .44799806 .6648102 .44599916 .6648102 .44198609 .6618042 .41799928 .6528015 .36499024 .6328125 .29100038 .6328125 .2630005 .6328125 .20999146 .6348114 .14498902 .6598053 .1349945 .6648102 .1329956 .6648102 .13198853 .6648102 .11898804 .6648102 .11898804 .6538086 .11898804 .6378021V.34251405C.11898804 .32548524 .11898804 .3134613 .1349945 .3134613 .14399719 .3134613 .14498902 .3154602 .15499878 .32748414 .19799805 .38259889 .25898744 .390625 .2939911 .390625 .35398866 .390625 .3809967 .34251405 .38598634 .33450318 .4039917 .30143739 .4099884 .26335145 .4099884 .20524597 .4099884 .17524719 .4099884 .116256717 .37998963 .07234192 .35499574 .03640747 .31199647 .012466431 .2630005 .012466431 .19799805 .012466431 .1309967 .04838562 .10598755 .11425781 .14399719 .11125183 .16299439 .13624573 .16299439 .16325379 .16299439 .20625305 .12599182 .21424866 .11299133 .21424866 .11099243 .21424866 .06298828 .21424866 .06298828 .1602478 .06298828 .07034302 .14498902-.01953125 .2649994-.01953125 .3929901-.01953125 .5049896 .07533264 .5049896 .20124817 .5049896 .31445313 .4189911 .41862489 .29499818 .41862489 .25099183 .41862489 .19898987 .4076233 .15499878 .36956788V.5588074Z"/>
<path id="font_4_1" d="M.21099854 .015991211C.21099854-.03907776 .20098877-.10321045 .1329956-.16732788 .1289978-.17134094 .12599182-.17434693 .12599182-.17933655 .12599182-.18634033 .13398743-.19334412 .13999939-.19334412 .1539917-.19334412 .23899842-.113220218 .23899842 .005996704 .23899842 .067993167 .21499634 .114990238 .16899109 .114990238 .13598633 .114990238 .11199951 .08898926 .11199951 .057998659 .11199951 .025985718 .1349945 0 .16999817 0 .19400025 0 .20999146 .015991211 .21099854 .015991211Z"/>
<path id="font_5_4" d="M.272995 .33428956C.35099793 .33428956 .40699769 .2803192 .40699769 .1733551 .40699769 .04940796 .33499146 .012466431 .2769928 .012466431 .23699951 .012466431 .14898682 .0234375 .10699463 .082351688 .1539917 .084350589 .16499329 .11735535 .16499329 .13835144 .16499329 .17034912 .14099121 .19335938 .10998535 .19335938 .08198547 .19335938 .053985597 .17634583 .053985597 .13534546 .053985597 .041412355 .1579895-.01953125 .2789917-.01953125 .41799928-.01953125 .5139923 .07336426 .5139923 .1733551 .5139923 .2513275 .44999696 .32929994 .33999635 .35229493 .44499208 .39024354 .48298646 .4650879 .48298646 .5260773 .48298646 .60505679 .3919983 .6640625 .2809906 .6640625 .16999817 .6640625 .084991458 .61006167 .084991458 .5300751 .084991458 .49606324 .10699463 .47706605 .13699341 .47706605 .16799927 .47706605 .18798828 .5000763 .18798828 .5280762 .18798828 .5570679 .16799927 .57806399 .13699341 .5800781 .17199707 .62405398 .24099732 .63505557 .27799989 .63505557 .32299806 .63505557 .38598634 .6130676 .38598634 .5260773 .38598634 .48406983 .37199403 .43814088 .34599305 .4072113 .31298829 .36927796 .2849884 .3672943 .23498535 .36428834 .20999146 .3623047 .20799256 .3623047 .20298767 .3612976 .20098877 .3612976 .19299317 .3592987 .19299317 .34829713 .19299317 .33428956 .20199585 .33428956 .21899414 .33428956H.272995Z"/>
<path id="font_5_3" d="M.5159912 .31925965C.5159912 .42918397 .5029907 .50813296 .45700074 .5780945 .42599488 .62405398 .3639984 .6640625 .28399659 .6640625 .051986696 .6640625 .051986696 .39120484 .051986696 .31925965 .051986696 .2472992 .051986696-.01953125 .28399659-.01953125 .5159912-.01953125 .5159912 .2472992 .5159912 .31925965M.28399659 .008468628C.23799134 .008468628 .1769867 .035446168 .15699768 .117385867 .14299011 .17634583 .14299011 .25830079 .14299011 .33224488 .14299011 .40519715 .14299011 .4811554 .1579895 .53611758 .1789856 .6150665 .24299622 .63604739 .28399659 .63604739 .33799745 .63604739 .3899994 .6030731 .4079895 .545105 .42399598 .4911499 .4249878 .41918946 .4249878 .33224488 .4249878 .25830079 .4249878 .18434143 .4119873 .12138367 .3919983 .030441285 .32398988 .008468628 .28399659 .008468628Z"/>
<path id="font_5_2" d="M.08999634 .75C.08299255 .75 .070999149 .75 .070999149 .73799136 .070999149 .73298647 .07398987 .7299957 .07998657 .72299197 .1659851 .64398196 .2619934 .5089874 .2619934 .25097657 .2619934 .04197693 .19699097-.11602783 .08898926-.21403504 .07199097-.23103333 .070999149-.23202515 .070999149-.23703003 .070999149-.24203491 .07398987-.24902344 .083999637-.24902344 .09599304-.24902344 .19099427-.18302918 .25698854-.058029176 .30099488 .024978638 .32998658 .13298035 .32998658 .24996948 .32998658 .39097596 .28799439 .60998538 .08999634 .75Z"/>
<path id="font_4_2" d="M.20599365 .11984253C.17098999 .06594849 .13899231 .039978029 .07998657 .035995485 .069992069 .034988405 .056991579 .034988405 .056991579 .01499939 .056991579 .0039978029 .06599426 0 .070999149 0 .09700012 0 .12998963 .0039978029 .15699768 .0039978029 .18899536 .0039978029 .22999573 0 .2599945 0 .2649994 0 .27999879 0 .27999879 .021987915 .27999879 .034988405 .2669983 .035995485 .2630005 .035995485 .25498963 .036987306 .21899414 .038986207 .21899414 .06594849 .21899414 .077926639 .22898865 .09489441 .23399353 .103881839L.31399537 .22766114H.59999087L.6239929 .061950685C.6199951 .051971437 .6139984 .035995485 .5549927 .035995485 .54299929 .035995485 .5289917 .035995485 .5289917 .01399231 .5289917 .009994507 .5319977 0 .54499819 0 .57398989 0 .644989 .0039978029 .673996 .0039978029 .69200137 .0039978029 .71499636 .0029907227 .73298647 .0029907227 .7509918 .0019989014 .7719879 0 .7899933 0 .8029938 0 .80999758 .0079956059 .80999758 .020996094 .80999758 .035995485 .7979889 .035995485 .7819977 .035995485 .723999 .035995485 .7220001 .04397583 .71899417 .06793213L.6309967 .6848755C.6279907 .70588687 .6259918 .7128906 .6069946 .7128906 .58799746 .7128906 .58200076 .70388796 .57299807 .6898804L.20599365 .11984253M.33799745 .26367188 .5479889 .5908356 .59498599 .26367188H.33799745Z"/>
</defs>
<path transform="matrix(1,0,0,-1,48.553,209.715)" stroke-width=".3985" stroke-linecap="butt" stroke-miterlimit="10" stroke-linejoin="miter" fill="none" stroke="#000000" d="M-14.17339 0H323.99577"/>
<path transform="matrix(1,0,0,-1,372.54878,209.715)" d="M1.99252 0-1.19551 1.59401 0 0-1.19551-1.59401"/>
<use data-text="t" xlink:href="#font_1_2" transform="matrix(9.96264,0,0,-9.96264,378.057,220.707)"/>
<use data-text="(" xlink:href="#font_2_1" transform="matrix(9.96264,0,0,-9.96264,384.972,220.707)"/>
<use data-text="s" xlink:href="#font_2_5" transform="matrix(9.96264,0,0,-9.96264,388.84745,220.707)"/>
<use data-text=")" xlink:href="#font_2_2" transform="matrix(9.96264,0,0,-9.96264,392.77275,220.707)"/>
<path transform="matrix(1,0,0,-1,48.553,209.715)" stroke-width=".3985" stroke-linecap="butt" stroke-miterlimit="10" stroke-linejoin="miter" fill="none" stroke="#000000" d="M0-14.17339V196.43514"/>
<path transform="matrix(0,-1,-1,-0,48.553,13.279861)" d="M1.99252 0-1.19551 1.59401 0 0-1.19551-1.59401"/>
<use data-text="v" xlink:href="#font_1_3" transform="matrix(9.96264,0,0,-9.96264,6.309002,13.780991)"/>
<use data-text="(" xlink:href="#font_2_1" transform="matrix(9.96264,0,0,-9.96264,14.813002,13.780991)"/>
<use data-text="k" xlink:href="#font_2_3" transform="matrix(9.96264,0,0,-9.96264,18.688469,13.780991)"/>
<use data-text="m" xlink:href="#font_2_4" transform="matrix(9.96264,0,0,-9.96264,23.948744,13.780991)"/>
<use data-text="/" xlink:href="#font_1_1" transform="matrix(9.96264,0,0,-9.96264,32.248,13.780991)"/>
<use data-text="s" xlink:href="#font_2_5" transform="matrix(9.96264,0,0,-9.96264,37.229005,13.780991)"/>
<use data-text=")" xlink:href="#font_2_2" transform="matrix(9.96264,0,0,-9.96264,41.15428,13.780991)"/>
<path transform="matrix(1,0,0,-1,48.553,209.715)" stroke-width=".3985" stroke-linecap="butt" stroke-miterlimit="10" stroke-linejoin="miter" fill="none" stroke="#000000" d="M-2.83484 28.3468H2.83484"/>
<use data-text="5" xlink:href="#font_3_56" transform="matrix(6.97385,0,0,-6.97385,37.664,183.614)"/>
<path transform="matrix(1,0,0,-1,48.553,209.715)" stroke-width=".3985" stroke-linecap="butt" stroke-miterlimit="10" stroke-linejoin="miter" fill="none" stroke="#000000" d="M-2.83484 56.69362H2.83484"/>
<use data-text="1" xlink:href="#font_3_82" transform="matrix(6.97385,0,0,-6.97385,33.696,155.268)"/>
<use data-text="0" xlink:href="#font_3_121" transform="matrix(6.97385,0,0,-6.97385,37.66412,155.268)"/>
<path transform="matrix(1,0,0,-1,48.553,209.715)" stroke-width=".3985" stroke-linecap="butt" stroke-miterlimit="10" stroke-linejoin="miter" fill="none" stroke="#000000" d="M-2.83484 85.04042H2.83484"/>
<use data-text="1" xlink:href="#font_3_82" transform="matrix(6.97385,0,0,-6.97385,33.696,126.92099)"/>
<use data-text="5" xlink:href="#font_3_56" transform="matrix(6.97385,0,0,-6.97385,37.66412,126.92099)"/>
<path transform="matrix(1,0,0,-1,48.553,209.715)" stroke-width=".3985" stroke-linecap="butt" stroke-miterlimit="10" stroke-linejoin="miter" fill="none" stroke="#000000" d="M-2.83484 113.38724H2.83484"/>
<use data-text="2" xlink:href="#font_3_107" transform="matrix(6.97385,0,0,-6.97385,33.696,98.575)"/>
<use data-text="0" xlink:href="#font_3_121" transform="matrix(6.97385,0,0,-6.97385,37.66412,98.575)"/>
<path transform="matrix(1,0,0,-1,48.553,209.715)" stroke-width=".3985" stroke-linecap="butt" stroke-miterlimit="10" stroke-linejoin="miter" fill="none" stroke="#000000" d="M-2.83484 141.73404H2.83484"/>
<use data-text="2" xlink:href="#font_3_107" transform="matrix(6.97385,0,0,-6.97385,33.696,70.229007)"/>
<use data-text="5" xlink:href="#font_3_56" transform="matrix(6.97385,0,0,-6.97385,37.66412,70.229007)"/>
<path transform="matrix(1,0,0,-1,48.553,209.715)" stroke-width=".3985" stroke-linecap="butt" stroke-miterlimit="10" stroke-linejoin="miter" fill="none" stroke="#000000" d="M-2.83484 170.08086H2.83484"/>
<use data-text="3" xlink:href="#font_3_106" transform="matrix(6.97385,0,0,-6.97385,33.696,41.882005)"/>
<use data-text="0" xlink:href="#font_3_121" transform="matrix(6.97385,0,0,-6.97385,37.66412,41.882005)"/>
<path transform="matrix(1,0,0,-1,48.553,209.715)" stroke-width=".3985" stroke-linecap="butt" stroke-miterlimit="10" stroke-linejoin="miter" fill="none" stroke="#000000" d="M56.69362-2.83484V2.83484"/>
<use data-text="2" xlink:href="#font_3_107" transform="matrix(6.97385,0,0,-6.97385,103.262,221.267)"/>
<path transform="matrix(1,0,0,-1,48.553,209.715)" stroke-width=".3985" stroke-linecap="butt" stroke-miterlimit="10" stroke-linejoin="miter" fill="none" stroke="#000000" d="M113.38724-2.83484V2.83484"/>
<use data-text="4" xlink:href="#font_3_57" transform="matrix(6.97385,0,0,-6.97385,159.955,221.33699)"/>
<path transform="matrix(1,0,0,-1,48.553,209.715)" stroke-width=".3985" stroke-linecap="butt" stroke-miterlimit="10" stroke-linejoin="miter" fill="none" stroke="#000000" d="M170.08086-2.83484V2.83484"/>
<use data-text="6" xlink:href="#font_3_101" transform="matrix(6.97385,0,0,-6.97385,216.64801,221.267)"/>
<path transform="matrix(1,0,0,-1,48.553,209.715)" stroke-width=".3985" stroke-linecap="butt" stroke-miterlimit="10" stroke-linejoin="miter" fill="none" stroke="#000000" d="M226.77448-2.83484V2.83484"/>
<use data-text="8" xlink:href="#font_3_51" transform="matrix(6.97385,0,0,-6.97385,273.341,221.267)"/>
<path transform="matrix(1,0,0,-1,48.553,209.715)" stroke-width=".3985" stroke-linecap="butt" stroke-miterlimit="10" stroke-linejoin="miter" fill="none" stroke="#000000" d="M283.4681-2.83484V2.83484"/>
<use data-text="1" xlink:href="#font_3_82" transform="matrix(6.97385,0,0,-6.97385,328.05003,221.267)"/>
<use data-text="0" xlink:href="#font_3_121" transform="matrix(6.97385,0,0,-6.97385,332.01814,221.267)"/>
<path transform="matrix(1,0,0,-1,48.553,209.715)" stroke-width=".79701" stroke-linecap="butt" stroke-miterlimit="10" stroke-linejoin="miter" fill="none" stroke="#0000ff" d="M0 28.3468C0 28.3468 1.80693 31.94104 2.50092 33.30455 3.1949 34.66806 4.30785 36.8351 5.00185 38.17406 5.69586 39.51302 6.80879 41.64043 7.50279 42.9549 8.1968 44.26936 9.30974 46.35788 10.00372 47.64793 10.69772 48.93799 11.81067 50.98717 12.50465 52.25273 13.19864 53.5183 14.31158 55.52829 15.00558 56.7693 15.69958 58.01031 16.81253 59.98065 17.50653 61.19719 18.20053 62.41373 19.31348 64.34517 20.00746 65.53728 20.70145 66.72939 21.8144 68.62157 22.50839 69.78912 23.20238 70.95668 24.31532 72.80922 25.00932 73.9523 25.70332 75.09538 26.81627 76.90909 27.51027 78.02768 28.20427 79.14627 29.31721 80.92033 30.0112 82.01437 30.70518 83.10841 31.81815 84.84322 32.51213 85.91284 33.20612 86.98247 34.31906 88.67836 35.01306 89.7235 35.70706 90.76863 36.82 92.42491 37.514 93.4455 38.20801 94.46608 39.32095 96.08315 40.01494 97.07925 40.70892 98.07536 41.82188 99.65308 42.51587 100.62476 43.20985 101.59644 44.3228 103.13527 45.0168 104.08246 45.7108 105.02965 46.82375 106.52885 47.51775 107.4515 48.21175 108.37416 49.32468 109.83415 50.01868 110.73232 50.71268 111.63048 51.82564 113.0512 52.51962 113.92487 53.21361 114.79854 54.32655 116.18002 55.02054 117.0292 55.71452 117.87839 56.82748 119.22064 57.52148 120.04529 58.21548 120.86993 59.32841 122.17255 60.02242 122.9727 60.71642 123.77286 61.82938 125.03659 62.52336 125.81232 63.21735 126.58804 64.33029 127.81244 65.02428 128.56369 65.71826 129.31494 66.83122 130.5001 67.52522 131.2268 68.21922 131.95352 69.33215 133.09908 70.02615 133.80129 70.72015 134.5035 71.83311 135.61022 72.5271 136.28795 73.22108 136.96569 74.33403 138.0327 75.02802 138.68595 75.722 139.33919 76.83496 140.36737 77.52896 140.99613 78.22296 141.62488 79.33589 142.61336 80.02989 143.21764 80.72389 143.82192 81.83685 144.77156 82.53084 145.35135 83.22482 145.93114 84.33777 146.84114 85.03175 147.39638 85.72574 147.95162 86.8387 148.82244 87.5327 149.3532 88.2267 149.88396 89.33963 150.71543 90.03363 151.22176 90.72763 151.72808 91.84059 152.52066 92.53458 153.0025 93.22856 153.48435 94.3415 154.23732 95.03549 154.69461 95.72948 155.1519 96.84244 155.86563 97.53644 156.29845 98.23044 156.73126 99.34337 157.40575 100.03737 157.81407 100.73137 158.2224 101.84431 158.8576 102.53831 159.24144 103.23232 159.62528 104.34526 160.2212 105.03925 160.58057 105.73323 160.93993 106.84619 161.49668 107.54018 161.83148 108.23416 162.16629 109.3471 162.68338 110.0411 162.9937 110.7351 163.30402 111.84805 163.78223 112.54205 164.06813 113.23605 164.35404 114.349 164.79291 115.04298 165.05432 115.73697 165.31574 116.84993 165.71541 117.54391 165.95227 118.2379 166.18914 119.35085 166.54917 120.04485 166.76155 120.73885 166.97394 121.85179 167.29512 122.54579 167.48302 123.23979 167.67092 124.35274 167.95243 125.04672 168.11583 125.7407 168.27924 126.85367 168.52188 127.54765 168.66082 128.24164 168.79975 129.35459 169.00272 130.04859 169.11716 130.74259 169.2316 131.85553 169.39572 132.54953 169.48567 133.24353 169.57563 134.35648 169.70012 135.05046 169.76552 135.74445 169.83092 136.8574 169.91616 137.55139 169.95714 138.24538 169.99813 139.35832 170.04447 140.05233 170.06096 140.74633 170.07746 141.85926 170.08414 142.55327 170.0761 143.24727 170.06806 144.3602 170.0355 145.0542 170.00299 145.7482 169.97048 146.86115 169.89865 147.55513 169.84165 148.24913 169.78464 149.36208 169.67357 150.05606 169.59207 150.75005 169.51058 151.86299 169.36023 152.55699 169.25426 153.251 169.14829 154.36394 168.95868 155.05794 168.8282 155.75194 168.69774 156.86489 168.46887 157.55887 168.31392 158.25286 168.15897 159.36582 167.89089 160.0598 167.7114 160.75379 167.5319 161.86673 167.22418 162.56073 167.0202 163.25473 166.81623 164.36768 166.4696 165.06168 166.2412 165.75568 166.01279 166.86862 165.62693 167.5626 165.37397 168.25659 165.12102 169.36956 164.6955 170.06354 164.41806 170.75753 164.14063 171.87047 163.67621 172.56447 163.37435 173.25847 163.07248 174.37142 162.56879 175.06542 162.24239 175.75942 161.91599 176.87236 161.37265 177.56635 161.02176 178.26033 160.67087 179.37329 160.08873 180.06728 159.71335 180.76126 159.33797 181.8742 158.71616 182.5682 158.31624 183.2622 157.91632 184.37516 157.25527 185.06916 156.83092 185.76316 156.40657 186.8761 155.7066 187.57009 155.25777 188.26407 154.80893 189.37703 154.06934 190.07102 153.59597 190.765 153.12259 191.87795 152.34378 192.57195 151.84592 193.26595 151.34806 194.37889 150.52999 195.07289 150.00763 195.76689 149.48528 196.87982 148.62795 197.57382 148.0811 198.26782 147.53426 199.38079 146.63765 200.07477 146.06633 200.76876 145.49501 201.8817 144.55915 202.57569 143.96334 203.26967 143.36753 204.38263 142.3924 205.07663 141.7721 205.77063 141.1518 206.88356 140.13739 207.57756 139.49262 208.27156 138.84784 209.38452 137.79418 210.0785 137.12491 210.77249 136.45565 211.88544 135.36278 212.57942 134.66895 213.2734 133.97513 214.38637 132.84264 215.08037 132.12435 215.77437 131.40605 216.8873 130.23462 217.5813 129.4919 218.2753 128.74918 219.38826 127.53853 220.08225 126.77126 220.77623 126.00398 221.88918 124.75366 222.58316 123.96191 223.27715 123.17017 224.3901 121.88101 225.0841 121.06477 225.7781 120.24854 226.89104 118.9197 227.58504 118.07896 228.27904 117.23822 229.392 115.87054 230.08599 115.00534 230.77997 114.14014 231.89292 112.73276 232.5869 111.84306 233.28089 110.95337 234.39385 109.50716 235.08785 108.59297 235.78185 107.67879 236.89478 106.19295 237.58878 105.25421 238.28278 104.31549 239.39572 102.79042 240.08972 101.82721 240.78372 100.864 241.89667 99.29968 242.59066 98.31198 243.28464 97.32428 244.3976 95.72063 245.09159 94.7085 245.78557 93.69637 246.89852 92.05383 247.59252 91.01723 248.28652 89.98062 249.39946 88.29843 250.09346 87.23727 250.78746 86.17612 251.9004 84.4548 252.59439 83.36908 253.28838 82.28337 254.40134 80.52242 255.09532 79.41223 255.7893 78.30203 256.90226 76.50218 257.59626 75.36757 258.29026 74.23296 259.4032 72.39377 260.0972 71.23466 260.7912 70.07556 261.90415 68.19711 262.59815 67.01353 263.2921 65.82996 264.4051 63.9123 265.09907 62.70416 265.79307 61.49602 266.90599 59.53873 267.59999 58.3061 268.29399 57.07349 269.40696 55.07729 270.10096 53.82025 270.79496 52.56322 271.90788 50.52776 272.60188 49.24617 273.29585 47.96457 274.4088 45.8895 275.1028 44.5834 275.79679 43.27733 276.90974 41.16339 277.60374 39.83284 278.29774 38.50229 279.41069 36.34865 280.10469 34.9936 280.79869 33.63857 281.91163 31.4461 282.6056 30.06657 283.2996 28.68704 284.41255 26.45494 285.10655 25.05086 285.8005 23.64677 286.91349 21.37546 287.60749 19.9469 288.30149 18.51834 289.4144 16.2077 290.1084 14.75471 290.8024 13.30173 291.91535 10.95221 292.60935 9.47473 293.30335 7.99725 294.4163 5.60802 295.1103 4.10606 295.8043 2.60411 297.6112-1.35037 297.6112-1.35037"/>
<path transform="matrix(1,0,0,-1,48.553,209.715)" d="M143.3281 170.08086C143.3281 170.96123 142.61443 171.6749 141.73404 171.6749 140.85367 171.6749 140.14 170.96123 140.14 170.08086 140.14 169.20047 140.85367 168.4868 141.73404 168.4868 142.61443 168.4868 143.3281 169.20047 143.3281 170.08086ZM141.73404 170.08086" fill="#0000ff"/>
<use data-text="V" xlink:href="#font_4_3" transform="matrix(6.97385,0,0,-6.97385,193.805,34.373)" fill="#0000ff"/>
<use data-text="(" xlink:href="#font_5_1" transform="matrix(6.97385,0,0,-6.97385,200.226,34.373)" fill="#0000ff"/>
<use data-text="5" xlink:href="#font_5_5" transform="matrix(6.97385,0,0,-6.97385,203.33634,34.373)" fill="#0000ff"/>
<use data-text="," xlink:href="#font_4_1" transform="matrix(6.97385,0,0,-6.97385,207.31,34.373)" fill="#0000ff"/>
<use data-text="3" xlink:href="#font_5_4" transform="matrix(6.97385,0,0,-6.97385,211.037,34.373)" fill="#0000ff"/>
<use data-text="0" xlink:href="#font_5_3" transform="matrix(6.97385,0,0,-6.97385,215.00513,34.373)" fill="#0000ff"/>
<use data-text=")" xlink:href="#font_5_2" transform="matrix(6.97385,0,0,-6.97385,218.97325,34.373)" fill="#0000ff"/>
<path transform="matrix(1,0,0,-1,48.553,209.715)" d="M1.59404 28.3468C1.59404 29.22717 .88037 29.94086 0 29.94086-.88037 29.94086-1.59404 29.22717-1.59404 28.3468-1.59404 27.46643-.88037 26.75275 0 26.75275 .88037 26.75275 1.59404 27.46643 1.59404 28.3468ZM0 28.3468" fill="#0000ff"/>
<use data-text="A" xlink:href="#font_4_2" transform="matrix(6.97385,0,0,-6.97385,21.146002,176.10599)" fill="#0000ff"/>
<use data-text="(" xlink:href="#font_5_1" transform="matrix(6.97385,0,0,-6.97385,27.138003,176.10599)" fill="#0000ff"/>
<use data-text="0" xlink:href="#font_5_3" transform="matrix(6.97385,0,0,-6.97385,30.248339,176.10599)" fill="#0000ff"/>
<use data-text="," xlink:href="#font_4_1" transform="matrix(6.97385,0,0,-6.97385,34.222,176.10599)" fill="#0000ff"/>
<use data-text="5" xlink:href="#font_5_5" transform="matrix(6.97385,0,0,-6.97385,37.949007,176.10599)" fill="#0000ff"/>
<use data-text=")" xlink:href="#font_5_2" transform="matrix(6.97385,0,0,-6.97385,41.91712,176.10599)" fill="#0000ff"/>
<path transform="matrix(1,0,0,-1,48.553,209.715)" stroke-width=".3985" stroke-linecap="butt" stroke-dasharray="2.98883,2.98883" stroke-miterlimit="10" stroke-linejoin="miter" fill="none" stroke="#7f807f" d="M141.73404 0V170.08086"/>
</svg>
