<svg xmlns="http://www.w3.org/2000/svg" xmlns:xlink="http://www.w3.org/1999/xlink" xmlns:inkscape="http://www.inkscape.org/namespaces/inkscape" version="1.1" width="218.485" height="170.943" viewBox="0 0 218.485 170.943">
<defs>
<path id="font_1_1" d="M.33399964 .30233766C.33999635 .32835389 .36299134 .42037965 .43299867 .42037965 .43798829 .42037965 .46199037 .42037965 .48298646 .40734864 .45498658 .402359 .43499757 .37734986 .43499757 .35334779 .43499757 .33735658 .44599916 .31835938 .47299195 .31835938 .49499513 .31835938 .5269928 .3363495 .5269928 .37635804 .5269928 .42837525 .46798707 .4423828 .43399049 .4423828 .37599183 .4423828 .34098817 .38935853 .32899476 .36634828 .3039856 .43237306 .25 .4423828 .22099304 .4423828 .116989139 .4423828 .05999756 .3133545 .05999756 .28834535 .05999756 .27833558 .069992069 .27833558 .07199097 .27833558 .07998657 .27833558 .08299255 .28033448 .084991458 .28933717 .11898804 .39535523 .18499756 .42037965 .21899414 .42037965 .23799134 .42037965 .272995 .4113617 .272995 .35334779 .272995 .32235719 .2559967 .25532533 .21899414 .11528015 .20298767 .053268434 .16799927 .011245728 .12399292 .011245728 .117996219 .011245728 .09498596 .011245728 .07398987 .024276734 .09899902 .029266358 .12098694 .05027771 .12098694 .07827759 .12098694 .105270389 .09899902 .11328125 .083999637 .11328125 .053985597 .11328125 .0289917 .08728027 .0289917 .055267335 .0289917 .009246826 .07899475-.0107421879 .12298584-.0107421879 .18899536-.0107421879 .22499085 .059280397 .22799683 .0652771 .23999024 .028274537 .27598573-.0107421879 .33599855-.0107421879 .43899537-.0107421879 .49598695 .118270877 .49598695 .14328003 .49598695 .1532898 .4869995 .1532898 .48399354 .1532898 .47499085 .1532898 .47299195 .14929199 .47099305 .14228821 .43798829 .03527832 .36999513 .011245728 .33799745 .011245728 .29899598 .011245728 .2829895 .043273927 .2829895 .07727051 .2829895 .09927368 .2889862 .121276859 .2999878 .16529846L.33399964 .30233766Z"/>
<path id="font_1_2" d="M.48599244 .38136292C.48999024 .39537049 .48999024 .39736939 .48999024 .40437318 .48999024 .42237855 .47599793 .43138124 .46099855 .43138124 .45098878 .43138124 .43499757 .42536927 .42599488 .41036988 .42399598 .405365 .41600038 .37435914 .4119873 .35635377 .40499879 .33035279 .397995 .30334474 .3919983 .27633668L.34700013 .09628296C.34298707 .08126831 .2999878 .011245728 .23399353 .011245728 .18299866 .011245728 .17199707 .055267335 .17199707 .0922699 .17199707 .1382904 .18899536 .20030213 .22299195 .28833009 .23899842 .3293457 .24299622 .3403473 .24299622 .36035157 .24299622 .405365 .21099854 .4423828 .16099549 .4423828 .06599426 .4423828 .0289917 .29733277 .0289917 .28833009 .0289917 .27833558 .038986207 .27833558 .040985109 .27833558 .050994874 .27833558 .051986696 .28033448 .056991579 .29634095 .083999637 .3903656 .12399292 .42037965 .1579895 .42037965 .1659851 .42037965 .18299866 .42037965 .18299866 .3883667 .18299866 .36335755 .17298889 .3373413 .1659851 .31834413 .12599182 .21231079 .10798645 .1552887 .10798645 .10827637 .10798645 .019256592 .17098999-.0107421879 .22999573-.0107421879 .2689972-.0107421879 .30299378 .0062561037 .33099366 .03425598 .31799317-.017745972 .30599977-.06674194 .2659912-.11973572 .23999024-.15385437 .20199585-.18309021 .1559906-.18309021 .14199829-.18309021 .09700012-.18005371 .07998657-.14074707 .09599304-.14074707 .10899353-.14074707 .12298584-.1287384 .1329956-.11973572 .14299011-.10673523 .14299011-.08773804 .14299011-.056747438 .115997318-.052734376 .10598755-.052734376 .08299255-.052734376 .049987794-.068740848 .049987794-.11773682 .049987794-.16796875 .09399414-.20507813 .1559906-.20507813 .25898744-.20507813 .3619995-.11373901 .3899994-.00074768069L.48599244 .38136292Z"/>
<path id="font_2_9" d="M.68699648 .32714845C.70199587 .32714845 .72099307 .32714845 .72099307 .34713746 .72099307 .36714173 .70199587 .36714173 .6879883 .36714173H.08898926C.07499695 .36714173 .055999757 .36714173 .055999757 .34713746 .055999757 .32714845 .07499695 .32714845 .08999634 .32714845H.68699648M.6879883 .13284302C.70199587 .13284302 .72099307 .13284302 .72099307 .15284729 .72099307 .17285156 .70199587 .17285156 .68699648 .17285156H.08999634C.07499695 .17285156 .055999757 .17285156 .055999757 .15284729 .055999757 .13284302 .07499695 .13284302 .08898926 .13284302H.6879883Z"/>
<path id="font_2_7" d="M.16299439 .4569702C.116989139 .486969 .11299133 .52098086 .11299133 .5379791 .11299133 .598999 .17799378 .64100649 .24899292 .64100649 .32199098 .64100649 .38598634 .58898928 .38598634 .51698306 .38598634 .45996095 .34700013 .4119568 .2869873 .37695313L.16299439 .4569702M.30899049 .36193849C.3809967 .3989563 .42999269 .45095826 .42999269 .51698306 .42999269 .6090088 .34098817 .6660156 .25 .6660156 .1499939 .6660156 .068984989 .59199526 .068984989 .49897767 .068984989 .4809723 .070999149 .43595887 .11299133 .38894654 .12399292 .37695313 .16099549 .35194398 .18598938 .33494569 .12799073 .30592347 .041992189 .24984741 .041992189 .15072632 .041992189 .04458618 .14399719-.022460938 .24899292-.022460938 .3619995-.022460938 .45700074 .06060791 .45700074 .16773987 .45700074 .20379639 .44599916 .24885559 .4079895 .2909088 .3889923 .31193543 .37298585 .3219452 .30899049 .36193849M.20899964 .3199463 .33198548 .24183655C.3600006 .2228241 .40699769 .19277954 .40699769 .13169861 .40699769 .05760193 .33198548 .0055389406 .25 .0055389406 .1639862 .0055389406 .09199524 .067611698 .09199524 .15072632 .09199524 .20880127 .12399292 .27288819 .20899964 .3199463Z"/>
<path id="font_2_3" d="M.33099366-.2400055C.33099366-.23701477 .33099366-.23500061 .31399537-.21800232 .18899536-.0920105 .15699768 .09700012 .15699768 .25 .15699768 .42399598 .19499207 .59799197 .31799317 .72299197 .33099366 .73498538 .33099366 .7369995 .33099366 .73999026 .33099366 .746994 .32699586 .75 .32099916 .75 .31098939 .75 .22099304 .6819916 .1619873 .5549927 .11099243 .44499208 .09899902 .33399964 .09899902 .25 .09899902 .17199707 .10998535 .050994874 .16499329-.06201172 .22499085-.18501282 .31098939-.25 .32099916-.25 .32699586-.25 .33099366-.24700928 .33099366-.2400055Z"/>
<path id="font_2_5" d="M.1269989 .07699585 .23298645 .18003845C.3889923 .31811524 .44898988 .3721466 .44898988 .47216798 .44898988 .5860901 .35899354 .6660156 .23699951 .6660156 .12399292 .6660156 .049987794 .57411196 .049987794 .48516847 .049987794 .4291687 .099990848 .4291687 .102996829 .4291687 .11999512 .4291687 .15499878 .44117738 .15499878 .48217774 .15499878 .5081787 .13699341 .5341797 .101989749 .5341797 .09399414 .5341797 .09199524 .5341797 .08898926 .5331726 .11199951 .59806826 .1659851 .63500979 .22399903 .63500979 .31498719 .63500979 .35798646 .5541382 .35798646 .47216798 .35798646 .39215089 .30799867 .31311036 .25299073 .25108338L.06098938 .036987306C.049987794 .025985718 .049987794 .023986817 .049987794 0H.42099L.44898988 .17404175H.42399598C.4189911 .14402771 .4119873 .1000061 .4019928 .084991458 .394989 .07699585 .32899476 .07699585 .30699159 .07699585H.1269989Z"/>
<path id="font_2_8" d="M.19198609 .37765504C.19198609 .406662 .16799927 .43066407 .13899231 .43066407 .10998535 .43066407 .085998538 .406662 .085998538 .37765504 .085998538 .34866334 .10998535 .32466126 .13899231 .32466126 .16799927 .32466126 .19198609 .34866334 .19198609 .37765504M.17298889 .010986328C.17298889-.017044068 .17298889-.095199588 .10899353-.1693573 .101989749-.17736817 .101989749-.17936707 .101989749-.18237305 .101989749-.18936157 .10699463-.19335938 .11199951-.19335938 .12298584-.19335938 .19499207-.11325073 .19499207 .0029907227 .19499207 .03199768 .19299317 .10598755 .13899231 .10598755 .10398865 .10598755 .085998538 .07899475 .085998538 .052993776 .085998538 .026992798 .102996829 0 .13899231 0 .14399719 0 .1459961 0 .14698792 .0009918213 .1539917 .0019989014 .16499329 .0039978029 .17298889 .010986328Z"/>
<path id="font_2_6" d="M.2939911 .16503906V.07800293C.2939911 .041992189 .2919922 .0309906 .21798706 .0309906H.19699097V0C.23799134 .0029907227 .2899933 .0029907227 .33198548 .0029907227 .37399293 .0029907227 .4269867 .0029907227 .46798707 0V.0309906H.44699098C.37298585 .0309906 .37098695 .041992189 .37098695 .07800293V.16503906H.47099305V.19602967H.37098695V.65075686C.37098695 .67074587 .37098695 .6767578 .35499574 .6767578 .34599305 .6767578 .34298707 .6767578 .33499146 .66474917L.027999878 .19602967V.16503906H.2939911M.2999878 .19602967H.055999757L.2999878 .5688019V.19602967Z"/>
<path id="font_2_4" d="M.2889862 .25C.2889862 .32798768 .27799989 .44898988 .22299195 .56199648 .16299439 .68499758 .07699585 .75 .066986087 .75 .06098938 .75 .056991579 .74598696 .056991579 .73999026 .056991579 .7369995 .056991579 .73498538 .07598877 .71699526 .17399597 .6179962 .23098755 .45899964 .23098755 .25 .23098755 .07899475 .19400025-.09700012 .069992069-.2230072 .056991579-.23500061 .056991579-.23701477 .056991579-.2400055 .056991579-.2460022 .06098938-.25 .066986087-.25 .07699585-.25 .16699219-.18200684 .22599793-.055007936 .2769928 .054992677 .2889862 .16600037 .2889862 .25Z"/>
<path id="font_2_1" d="M.55400088 .6796112H.032989503V.64860537H.056991579C.13398743 .64860537 .13598633 .637619 .13598633 .6016388V.07795715C.13598633 .041992189 .13398743 .0309906 .056991579 .0309906H.032989503V0C.067993167 .0029907227 .1459961 .0029907227 .18499756 .0029907227 .22599793 .0029907227 .31698609 .0029907227 .35299684 0V.0309906H.31999208C.22499085 .0309906 .22499085 .04399109 .22499085 .07896423V.6086273C.22499085 .6416168 .22698975 .64860537 .27398683 .64860537H.3769989C.519989 .64860537 .54100039 .5896454 .5569916 .45472718H.58200076L.55400088 .6796112Z"/>
<path id="font_2_2" d="M.36999513 .69480898C.3639984 .71380618 .35798646 .7158203 .34700013 .7158203 .33099366 .7158203 .32899476 .71180728 .32398988 .69480898L.13198853 .099975589C.12199402 .06997681 .101989749 .0309906 .03199768 .0309906V0C.06498718 .0019989014 .115997318 .0029907227 .125 .0029907227 .1539917 .0029907227 .20698548 .0009918213 .23799134 0V.0309906C.18399048 .03199768 .16099549 .05899048 .16099549 .082977298 .16099549 .08798218 .16099549 .0909729 .1659851 .10496521L.31599427 .57084658 .47399903 .07897949C.47898866 .06498718 .47898866 .06298828 .47898866 .06098938 .47898866 .0309906 .41999818 .0309906 .3939972 .0309906V0C.42900086 .0029907227 .5 .0029907227 .5379944 .0029907227 .57699587 .0029907227 .621994 .0009918213 .6609955 0V.0309906C.58499148 .0309906 .58200076 .036987306 .56999209 .07397461L.36999513 .69480898Z"/>
</defs>
<path transform="matrix(1,0,0,-1,15.071,156.82399)" stroke-width=".3985" stroke-linecap="butt" stroke-miterlimit="10" stroke-linejoin="miter" fill="none" stroke="#000000" d="M-8.50412 0H173.7576"/>
<path transform="matrix(1,0,0,-1,188.8286,156.82399)" d="M1.99252 0-1.19551 1.59401 0 0-1.19551-1.59401"/>
<use data-text="x" xlink:href="#font_1_1" transform="matrix(9.96264,0,0,-9.96264,194.339,164.63399)"/>
<path transform="matrix(1,0,0,-1,15.071,156.82399)" stroke-width=".3985" stroke-linecap="butt" stroke-miterlimit="10" stroke-linejoin="miter" fill="none" stroke="#000000" d="M0-8.50412V145.4108"/>
<path transform="matrix(0,-1,-1,-0,15.071,11.413193)" d="M1.99252 0-1.19551 1.59401 0 0-1.19551-1.59401"/>
<use data-text="y" xlink:href="#font_1_2" transform="matrix(9.96264,0,0,-9.96264,6.309,10.598984)"/>
<path transform="matrix(1,0,0,-1,15.071,156.82399)" stroke-width=".3985" stroke-linecap="butt" stroke-dasharray="2.98883,2.98883" stroke-miterlimit="10" stroke-linejoin="miter" fill="none" stroke="#000000" d="M0 124.72578H170.08086"/>
<use data-text="y" xlink:href="#font_1_2" transform="matrix(9.96264,0,0,-9.96264,188.669,34.341997)"/>
<use data-text="=" xlink:href="#font_2_9" transform="matrix(9.96264,0,0,-9.96264,196.679,34.341997)"/>
<use data-text="8" xlink:href="#font_2_7" transform="matrix(9.96264,0,0,-9.96264,207.18958,34.341997)"/>
<path transform="matrix(1,0,0,-1,15.071,156.82399)" stroke-width=".79701" stroke-linecap="butt" stroke-miterlimit="10" stroke-linejoin="miter" fill="none" stroke="#000000" d="M0 2.24356C0 2.24356 1.24097 2.44302 1.71759 2.52644 2.19421 2.60985 2.95857 2.75111 3.4352 2.84479 3.91182 2.93846 4.67618 3.0965 5.15282 3.20163 5.62944 3.30678 6.3938 3.48473 6.87042 3.60258 7.34705 3.72044 8.1114 3.91911 8.58803 4.05113 9.06465 4.18317 9.82901 4.4063 10.30565 4.55417 10.78227 4.70204 11.54662 4.95163 12.02324 5.1169 12.49986 5.28218 13.26422 5.56079 13.74084 5.74538 14.21747 5.92998 14.98183 6.24138 15.45847 6.44739 15.93509 6.65341 16.69945 7.00081 17.17607 7.2303 17.6527 7.4598 18.41705 7.84625 18.89368 8.10141 19.3703 8.35658 20.13466 8.78632 20.6113 9.06944 21.08792 9.35258 21.85226 9.82838 22.32889 10.14214 22.80551 10.45587 23.56987 10.98387 24.0465 11.33075 24.52312 11.67764 25.28748 12.25974 25.76411 12.6422 26.24074 13.02467 27.0051 13.66669 27.48172 14.08731 27.95834 14.50793 28.7227 15.21268 29.19933 15.67387 29.67596 16.13507 30.4403 16.90726 30.91695 17.41136 31.39357 17.91548 32.15793 18.75806 32.63455 19.30719 33.11118 19.85631 33.87552 20.7734 34.35214 21.3691 34.82878 21.96478 35.59312 22.95705 36.06976 23.60056 36.54639 24.24408 37.31075 25.31502 37.78737 26.0072 38.26399 26.6994 39.02835 27.84845 39.50497 28.58945 39.98161 29.33043 40.74596 30.55856 41.2226 31.34775 41.69922 32.13693 42.46358 33.44188 42.9402 34.27733 43.41682 35.11276 44.18117 36.48955 44.65779 37.3691 45.13443 38.24866 45.89877 39.69627 46.37541 40.6166 46.85204 41.53691 47.6164 43.04527 48.09302 44.00208 48.56964 44.95888 49.334 46.52461 49.81062 47.51256 50.28726 48.5005 51.0516 50.1093 51.52824 51.12251 52.00487 52.13573 52.76923 53.78333 53.24585 54.8151 53.72247 55.84685 54.48683 57.51538 54.96346 58.55872 55.4401 59.60204 56.20442 61.28777 56.68106 62.33476 57.15768 63.38176 57.92204 65.06215 58.39867 66.10477 58.87529 67.14737 59.63965 68.8172 60.11627 69.84926 60.59291 70.8813 61.35725 72.52956 61.8339 73.54312 62.31052 74.55669 63.07487 76.16566 63.5515 77.15437 64.02812 78.1431 64.79248 79.71149 65.2691 80.66919 65.74574 81.62688 66.51007 83.1361 66.98671 84.05682 67.46333 84.97754 68.22769 86.42497 68.70432 87.30518 69.18094 88.1854 69.9453 89.56505 70.42192 90.40085 70.89856 91.23666 71.6629 92.53978 72.13954 93.32913 72.61617 94.11848 73.38052 95.3479 73.85715 96.09003 74.33377 96.83215 75.09813 97.98415 75.57475 98.6779 76.05139 99.37166 76.81573 100.44551 77.29237 101.09016 77.769 101.73482 78.53334 102.72794 79.00996 103.32422 79.48659 103.9205 80.25095 104.83844 80.72757 105.38786 81.20421 105.93727 81.96855 106.77832 82.44519 107.2841 82.92181 107.78989 83.68617 108.57034 84.1628 109.0333 84.63942 109.49625 85.40378 110.19948 85.8804 110.62071 86.35704 111.04195 87.12138 111.68585 87.59802 112.06927 88.07465 112.4527 88.83899 113.03654 89.31561 113.38419 89.79224 113.73184 90.5566 114.26147 91.03322 114.57498 91.50986 114.88849 92.2742 115.3602 92.75084 115.64377 93.22746 115.92734 93.99182 116.36307 94.46844 116.61871 94.94507 116.87437 95.70943 117.25786 96.18605 117.48639 96.66269 117.71492 97.42703 118.05894 97.90367 118.26582 98.3803 118.47269 99.14464 118.7913 99.62126 118.97736 100.09789 119.16339 100.86224 119.44112 101.33887 119.60667 101.8155 119.77225 102.57985 120.02327 103.05649 120.17072 103.53311 120.31816 104.29747 120.53694 104.7741 120.66943 105.25072 120.80194 106.01508 121.007 106.4917 121.12576 106.96834 121.24452 107.73268 121.42041 108.20932 121.52542 108.68594 121.63045 109.4503 121.78987 109.92693 121.8827 110.40355 121.97554 111.1679 122.11157 111.64452 122.19456 112.12115 122.27754 112.88551 122.40619 113.36214 122.4809 113.83876 122.55562 114.60312 122.66623 115.07974 122.73308 115.55637 122.79991 116.32072 122.90376 116.79735 122.96274 117.27399 123.02173 118.03835 123.10556 118.51497 123.15826 118.9916 123.21095 119.75595 123.29651 120.23257 123.34251 120.7092 123.38853 121.47354 123.45029 121.95016 123.49 122.4268 123.52974 123.19116 123.59225 123.66779 123.62886 124.14441 123.66547 124.90877 123.72159 125.38539 123.75386 125.86201 123.78613 126.62637 123.83252 127.103 123.86156 127.57964 123.8906 128.344 123.9373 128.82062 123.96321 129.29724 123.98914 130.0616 124.02641 130.53823 124.04843 131.01485 124.07043 131.7792 124.10191 132.25583 124.12196 132.73247 124.142 133.49681 124.17477 133.97344 124.19289 134.45006 124.21101 135.21442 124.23721 135.69104 124.25258 136.16767 124.26793 136.93202 124.28947 137.40865 124.30362 137.88529 124.31778 138.64965 124.3417 139.12627 124.35466 139.60289 124.3676 140.36725 124.38644 140.84387 124.39705 141.3205 124.40767 142.08486 124.4218 142.5615 124.43121 143.03812 124.44063 143.80246 124.45633 144.27909 124.46497 144.7557 124.47359 145.52007 124.4856 145.99669 124.49352 146.47332 124.50142 147.23767 124.51497 147.71431 124.52205 148.19094 124.52911 148.95529 124.53831 149.43192 124.54454 149.90854 124.55078 150.6729 124.56152 151.14952 124.56705 151.62615 124.57256 152.3905 124.58002 152.86714 124.58434 153.34377 124.58865 154.10813 124.59428 154.58475 124.59818 155.06137 124.60207 155.82572 124.60892 156.30234 124.61244 156.77896 124.61598 157.54332 124.62051 158.01996 124.6237 158.49658 124.62688 159.26094 124.6322 159.73757 124.63538 160.21419 124.63855 160.97855 124.64388 161.45517 124.64662 161.9318 124.64937 162.69615 124.65329 163.17279 124.65527 163.64942 124.65724 164.41378 124.65898 164.8904 124.6609 165.36702 124.66281 166.13137 124.66719 166.60799 124.66911 167.08461 124.67102 167.84897 124.67354 168.3256 124.67473 168.80223 124.67592 170.04322 124.67775 170.04322 124.67775"/>
<path transform="matrix(1,0,0,-1,15.071,156.82399)" stroke-width=".3985" stroke-linecap="butt" stroke-dasharray=".3985,.99628" stroke-miterlimit="10" stroke-linejoin="miter" fill="none" stroke="#000000" d="M0 0 113.38724 124.72578"/>
<path transform="matrix(1,0,0,-1,15.071,156.82399)" d="M57.88914 62.36288C57.88914 63.02315 57.35388 63.55841 56.69362 63.55841 56.03334 63.55841 55.49808 63.02315 55.49808 62.36288 55.49808 61.70262 56.03334 61.16736 56.69362 61.16736 57.35388 61.16736 57.88914 61.70262 57.88914 62.36288ZM56.69362 62.36288"/>
<use data-text="(" xlink:href="#font_2_3" transform="matrix(9.96264,0,0,-9.96264,46.105,88.451999)"/>
<use data-text="2" xlink:href="#font_2_5" transform="matrix(9.96264,0,0,-9.96264,49.980466,88.451999)"/>
<use data-text=";" xlink:href="#font_2_8" transform="matrix(9.96264,0,0,-9.96264,54.961786,88.451999)"/>
<use data-text="4" xlink:href="#font_2_6" transform="matrix(9.96264,0,0,-9.96264,59.385198,88.451999)"/>
<use data-text=")" xlink:href="#font_2_4" transform="matrix(9.96264,0,0,-9.96264,64.366519,88.451999)"/>
<path transform="matrix(1,0,0,-1,15.071,156.82399)" stroke-width=".79701" stroke-linecap="butt" stroke-miterlimit="10" stroke-linejoin="miter" fill="none" stroke="#000000" d="M0 .11201C0 .11201 1.24097 .14726 1.71759 .16478 2.19421 .1823 2.95857 .21371 3.4352 .23831 3.91182 .26291 4.67618 .30798 5.15282 .34213 5.62944 .37627 6.3938 .43858 6.87042 .48444 7.34705 .53029 8.1114 .61049 8.58803 .67259 9.06465 .7347 9.82901 .84804 10.30565 .9321 10.78227 1.01617 11.54662 1.16911 12.02324 1.27856 12.49986 1.38803 13.26422 1.5795 13.74084 1.72105 14.21747 1.86261 14.98183 2.11673 15.45847 2.29892 15.93509 2.48112 16.69945 2.80475 17.17607 3.03423 17.6527 3.26372 18.41705 3.66777 18.89368 3.95294 19.3703 4.23813 20.13466 4.73943 20.6113 5.08966 21.08792 5.4399 21.85226 6.05336 22.32889 6.47723 22.80551 6.90111 23.56987 7.63853 24.0465 8.14468 24.52312 8.65083 25.28748 9.52959 25.76411 10.12527 26.24074 10.72096 27.0051 11.74802 27.48172 12.43805 27.95834 13.12808 28.7227 14.31013 29.19933 15.09859 29.67596 15.88704 30.4403 17.23404 30.91695 18.12074 31.39357 19.00743 32.15793 20.50938 32.63455 21.48935 33.11118 22.4693 33.87552 24.11769 34.35214 25.18365 34.82878 26.24962 35.59312 28.03247 36.06976 29.17207 36.54639 30.31168 37.31075 32.20279 37.78737 33.39711 38.26399 34.59145 39.02835 36.55154 39.50497 37.78001 39.98161 39.00848 40.74596 41.01523 41.2226 42.25116 41.69922 43.48708 42.46358 45.47452 42.9402 46.6877 43.41682 47.90088 44.18117 49.83559 44.65779 50.99492 45.13443 52.15425 45.89877 53.97084 46.37541 55.04347 46.85204 56.11609 47.6164 57.77103 48.09302 58.72566 48.56964 59.6803 49.334 61.11945 49.81062 61.92386 50.28726 62.72827 51.0516 63.89459 51.52824 64.5234 52.00487 65.15222 52.76923 66.02367 53.24585 66.456 53.72247 66.88832 54.48683 67.42073 54.96346 67.63942 55.4401 67.8581 56.20442 68.03024 56.68106 68.03217 57.15768 68.03407 57.92204 67.86919 58.39867 67.65324 58.87529 67.43732 59.63965 66.90541 60.11627 66.47589 60.59291 66.04637 61.35725 65.18352 61.8339 64.55759 62.31052 63.93164 63.07487 62.76624 63.5515 61.96452 64.02812 61.1628 64.79248 59.73112 65.2691 58.77931 65.74574 57.8275 66.51007 56.17606 66.98671 55.10446 67.46333 54.03285 68.22769 52.21434 68.70432 51.0559 69.18094 49.89746 69.9453 47.96835 70.42192 46.75519 70.89856 45.542 71.6629 43.54807 72.13954 42.31215 72.61617 41.07622 73.38052 39.0759 73.85715 37.84749 74.33377 36.61908 75.09813 34.65369 75.57475 33.45853 76.05139 32.26337 76.81573 30.37395 77.29237 29.2335 77.769 28.09306 78.53334 26.3069 79.00996 25.23901 79.48659 24.17114 80.25095 22.51797 80.72757 21.53693 81.20421 20.55588 81.96855 19.05585 82.44519 18.16832 82.92181 17.28078 83.68617 15.93044 84.1628 15.14012 84.63942 14.3498 85.40378 13.16339 85.8804 12.47221 86.35704 11.78104 87.12138 10.75528 87.59802 10.15858 88.07465 9.56187 88.83899 8.6794 89.31561 8.1715 89.79224 7.6636 90.5566 6.9229 91.03322 6.498 91.50986 6.0731 92.2742 5.46037 92.75084 5.10912 93.22746 4.75786 93.99182 4.25237 94.46844 3.96635 94.94507 3.68034 95.70943 3.27798 96.18605 3.04765 96.66269 2.81734 97.42703 2.48938 97.90367 2.30629 98.3803 2.1232 99.14464 1.87054 99.62126 1.72797 100.09789 1.58539 100.86224 1.38815 101.33887 1.27856 101.8155 1.16899 102.57985 1.02127 103.05649 .93817 103.53311 .85506 104.29747 .74216 104.7741 .6795 105.25072 .61685 106.01508 .5331 106.4917 .48659 106.96834 .4401 107.73268 .37843 108.20932 .34428 108.68594 .31015 109.4503 .26526 109.92693 .24048 110.40355 .2157 111.1679 .18335 111.64452 .16565 112.12115 .14795 112.88551 .12537 113.36214 .11288 113.83876 .1004 114.60312 .08432 115.07974 .07568 115.55637 .06705 116.32072 .05652 116.79735 .05058 117.27399 .04466 118.03835 .03687 118.51497 .03285 118.9916 .02884 119.75595 .0243 120.23257 .0216 120.7092 .01892 121.47354 .01526 121.95016 .0134 122.4268 .01155 123.19116 .00993 123.66779 .0082 124.14441 .00647 124.90877 .00186 125.38539 .00084 125.86201-.00015 126.62637 .00084 127.103 .00084 127.57964 .00084 128.344 .00084 128.82062 .00084 129.29724 .00084 130.0616 .00084 130.53823 .00084 131.01485 .00084 131.7792 .00084 132.25583 .00084 132.73247 .00084 133.49681 .00084 133.97344 .00084 134.45006 .00084 135.21442 .00084 135.69104 .00084 136.16767 .00084 136.93202 .00084 137.40865 .00084 137.88529 .00084 138.64965 .00084 139.12627 .00084 139.60289 .00084 140.36725 .00084 140.84387 .00084 141.3205 .00084 142.08486 .00084 142.5615 .00084 143.03812 .00084 143.80246 .00084 144.27909 .00084 144.7557 .00084 145.52007 .00084 145.99669 .00084 146.47332 .00084 147.23767 .00084 147.71431 .00084 148.19094 .00084 148.95529 .00084 149.43192 .00084 149.90854 .00084 150.6729 .00084 151.14952 .00084 151.62615 .00084 152.3905 .00084 152.86714 .00084 153.34377 .00084 154.10813 .00084 154.58475 .00084 155.06137 .00084 155.82572 .00084 156.30234 .00084 156.77896 .00084 157.54332 .00084 158.01996 .00084 158.49658 .00084 159.26094 .00084 159.73757 .00084 160.21419 .00084 160.97855 .00084 161.45517 .00084 161.9318 .00084 162.69615 .00084 163.17279 .00084 163.64942 .00084 164.41378 .00084 164.8904 .00084 165.36702 .00084 166.13137 .00084 166.60799 .00084 167.08461 .00084 167.84897 .00084 168.3256 .00084 168.80223 .00084 170.04322 .00084 170.04322 .00084"/>
<use data-text="&#x0393;" xlink:href="#font_2_1" transform="matrix(9.96264,0,0,-9.96264,159.359,44.007997)"/>
<use data-text="&#x039b;" xlink:href="#font_2_2" transform="matrix(9.96264,0,0,-9.96264,102.32,117.70899)"/>
</svg>
