<svg xmlns="http://www.w3.org/2000/svg" xmlns:xlink="http://www.w3.org/1999/xlink" xmlns:inkscape="http://www.inkscape.org/namespaces/inkscape" version="1.1" width="187.868" height="119.575" viewBox="0 0 187.868 119.575">
<defs>
<clipPath id="clip_1">
<path transform="matrix(1,0,0,-1,12.674,109.64)" d="M0 0H166.39626V106.45345H0Z"/>
</clipPath>
<path id="font_2_1" d="M.6589966 .23046875C.6759949 .23046875 .69400027 .23046875 .69400027 .25045777 .69400027 .27046205 .6759949 .27046205 .6589966 .27046205H.117996219C.100997928 .27046205 .08299255 .27046205 .08299255 .25045777 .08299255 .23046875 .100997928 .23046875 .117996219 .23046875H.6589966Z"/>
<path id="font_3_2" d="M.1269989 .07699585 .23298645 .18003845C.3889923 .31811524 .44898988 .3721466 .44898988 .47216798 .44898988 .5860901 .35899354 .6660156 .23699951 .6660156 .12399292 .6660156 .049987794 .57411196 .049987794 .48516847 .049987794 .4291687 .099990848 .4291687 .102996829 .4291687 .11999512 .4291687 .15499878 .44117738 .15499878 .48217774 .15499878 .5081787 .13699341 .5341797 .101989749 .5341797 .09399414 .5341797 .09199524 .5341797 .08898926 .5331726 .11199951 .59806826 .1659851 .63500979 .22399903 .63500979 .31498719 .63500979 .35798646 .5541382 .35798646 .47216798 .35798646 .39215089 .30799867 .31311036 .25299073 .25108338L.06098938 .036987306C.049987794 .025985718 .049987794 .023986817 .049987794 0H.42099L.44898988 .17404175H.42399598C.4189911 .14402771 .4119873 .1000061 .4019928 .084991458 .394989 .07699585 .32899476 .07699585 .30699159 .07699585H.1269989Z"/>
<path id="font_3_1" d="M.2939911 .64004519C.2939911 .66400149 .2939911 .6660156 .2709961 .6660156 .20899964 .60227969 .12098694 .60227969 .08898926 .60227969V.57128909C.10899353 .57128909 .16799927 .57128909 .21998596 .5972748V.07902527C.21998596 .042999269 .21699524 .0309906 .1269989 .0309906H.09498596V0C.12998963 .0029907227 .21699524 .0029907227 .25698854 .0029907227 .29699708 .0029907227 .38398744 .0029907227 .4189911 0V.0309906H.3869934C.29699708 .0309906 .2939911 .041992189 .2939911 .07902527V.64004519Z"/>
<path id="font_3_3" d="M.2899933 .35191346C.37199403 .37893678 .42999269 .4490509 .42999269 .52809146 .42999269 .6100464 .34199525 .6660156 .24598694 .6660156 .14498902 .6660156 .068984989 .60606387 .068984989 .53009036 .068984989 .49710084 .09098816 .47808839 .11999512 .47808839 .15098572 .47808839 .17098999 .50009158 .17098999 .5290985 .17098999 .57910159 .12399292 .57910159 .10899353 .57910159 .13999939 .62802127 .20599365 .64100649 .24198914 .64100649 .2829895 .64100649 .33799745 .6190338 .33799745 .5290985 .33799745 .51708987 .33599855 .45906068 .30999757 .4149933 .27999879 .36691285 .24598694 .36390687 .22099304 .36291505 .21299744 .36190797 .18899536 .35990907 .18199158 .35990907 .17399597 .35890199 .16699219 .35791017 .16699219 .3479004 .16699219 .33691407 .17399597 .33691407 .19099427 .33691407H.23498535C.31698609 .33691407 .35398866 .2686615 .35398866 .17037964 .35398866 .034469606 .2849884 .0055389406 .24099732 .0055389406 .19799805 .0055389406 .12298584 .022491456 .08799744 .08137512 .12298584 .07637024 .1539917 .09837341 .1539917 .1363678 .1539917 .17237854 .1269989 .19238281 .09799194 .19238281 .07398987 .19238281 .041992189 .17837525 .041992189 .1343689 .041992189 .043441774 .1349945-.022460938 .24398804-.022460938 .3659973-.022460938 .45700074 .06838989 .45700074 .17037964 .45700074 .252594 .3939972 .33088685 .2899933 .35191346Z"/>
<path id="font_3_4" d="M.2939911 .16503906V.07800293C.2939911 .041992189 .2919922 .0309906 .21798706 .0309906H.19699097V0C.23799134 .0029907227 .2899933 .0029907227 .33198548 .0029907227 .37399293 .0029907227 .4269867 .0029907227 .46798707 0V.0309906H.44699098C.37298585 .0309906 .37098695 .041992189 .37098695 .07800293V.16503906H.47099305V.19602967H.37098695V.65075686C.37098695 .67074587 .37098695 .6767578 .35499574 .6767578 .34599305 .6767578 .34298707 .6767578 .33499146 .66474917L.027999878 .19602967V.16503906H.2939911M.2999878 .19602967H.055999757L.2999878 .5688019V.19602967Z"/>
<clipPath id="clip_4">
<path transform="matrix(1,0,0,-1,12.674,109.64)" d="M0 0H166.39626V106.45345H0Z"/>
</clipPath>
<path id="font_2_2" d="M.44400025 .24998474C.44400025 .35688783 .35499574 .44381715 .25 .44381715 .14199829 .44381715 .054992677 .35488893 .054992677 .24998474 .054992677 .14407349 .14199829 .056137086 .25 .056137086 .35499574 .056137086 .44400025 .14308167 .44400025 .24998474Z"/>
<path id="font_5_1" d="M.33399964 .30233766C.33999635 .32835389 .36299134 .42037965 .43299867 .42037965 .43798829 .42037965 .46199037 .42037965 .48298646 .40734864 .45498658 .402359 .43499757 .37734986 .43499757 .35334779 .43499757 .33735658 .44599916 .31835938 .47299195 .31835938 .49499513 .31835938 .5269928 .3363495 .5269928 .37635804 .5269928 .42837525 .46798707 .4423828 .43399049 .4423828 .37599183 .4423828 .34098817 .38935853 .32899476 .36634828 .3039856 .43237306 .25 .4423828 .22099304 .4423828 .116989139 .4423828 .05999756 .3133545 .05999756 .28834535 .05999756 .27833558 .069992069 .27833558 .07199097 .27833558 .07998657 .27833558 .08299255 .28033448 .084991458 .28933717 .11898804 .39535523 .18499756 .42037965 .21899414 .42037965 .23799134 .42037965 .272995 .4113617 .272995 .35334779 .272995 .32235719 .2559967 .25532533 .21899414 .11528015 .20298767 .053268434 .16799927 .011245728 .12399292 .011245728 .117996219 .011245728 .09498596 .011245728 .07398987 .024276734 .09899902 .029266358 .12098694 .05027771 .12098694 .07827759 .12098694 .105270389 .09899902 .11328125 .083999637 .11328125 .053985597 .11328125 .0289917 .08728027 .0289917 .055267335 .0289917 .009246826 .07899475-.0107421879 .12298584-.0107421879 .18899536-.0107421879 .22499085 .059280397 .22799683 .0652771 .23999024 .028274537 .27598573-.0107421879 .33599855-.0107421879 .43899537-.0107421879 .49598695 .118270877 .49598695 .14328003 .49598695 .1532898 .4869995 .1532898 .48399354 .1532898 .47499085 .1532898 .47299195 .14929199 .47099305 .14228821 .43798829 .03527832 .36999513 .011245728 .33799745 .011245728 .29899598 .011245728 .2829895 .043273927 .2829895 .07727051 .2829895 .09927368 .2889862 .121276859 .2999878 .16529846L.33399964 .30233766Z"/>
<path id="font_5_2" d="M.48599244 .38136292C.48999024 .39537049 .48999024 .39736939 .48999024 .40437318 .48999024 .42237855 .47599793 .43138124 .46099855 .43138124 .45098878 .43138124 .43499757 .42536927 .42599488 .41036988 .42399598 .405365 .41600038 .37435914 .4119873 .35635377 .40499879 .33035279 .397995 .30334474 .3919983 .27633668L.34700013 .09628296C.34298707 .08126831 .2999878 .011245728 .23399353 .011245728 .18299866 .011245728 .17199707 .055267335 .17199707 .0922699 .17199707 .1382904 .18899536 .20030213 .22299195 .28833009 .23899842 .3293457 .24299622 .3403473 .24299622 .36035157 .24299622 .405365 .21099854 .4423828 .16099549 .4423828 .06599426 .4423828 .0289917 .29733277 .0289917 .28833009 .0289917 .27833558 .038986207 .27833558 .040985109 .27833558 .050994874 .27833558 .051986696 .28033448 .056991579 .29634095 .083999637 .3903656 .12399292 .42037965 .1579895 .42037965 .1659851 .42037965 .18299866 .42037965 .18299866 .3883667 .18299866 .36335755 .17298889 .3373413 .1659851 .31834413 .12599182 .21231079 .10798645 .1552887 .10798645 .10827637 .10798645 .019256592 .17098999-.0107421879 .22999573-.0107421879 .2689972-.0107421879 .30299378 .0062561037 .33099366 .03425598 .31799317-.017745972 .30599977-.06674194 .2659912-.11973572 .23999024-.15385437 .20199585-.18309021 .1559906-.18309021 .14199829-.18309021 .09700012-.18005371 .07998657-.14074707 .09599304-.14074707 .10899353-.14074707 .12298584-.1287384 .1329956-.11973572 .14299011-.10673523 .14299011-.08773804 .14299011-.056747438 .115997318-.052734376 .10598755-.052734376 .08299255-.052734376 .049987794-.068740848 .049987794-.11773682 .049987794-.16796875 .09399414-.20507813 .1559906-.20507813 .25898744-.20507813 .3619995-.11373901 .3899994-.00074768069L.48599244 .38136292Z"/>
</defs>
<path transform="matrix(1,0,0,-1,12.674,109.64)" stroke-width=".19925" stroke-linecap="butt" stroke-miterlimit="10" stroke-linejoin="miter" fill="none" stroke="#7f807f" d="M0 28.60817V32.22234M27.7327 28.60817V32.22234M83.19812 28.60817V32.22234M110.93083 28.60817V32.22234M138.66355 28.60817V32.22234M166.39626 28.60817V32.22234"/>
<path transform="matrix(1,0,0,-1,12.674,109.64)" stroke-width=".19925" stroke-linecap="butt" stroke-miterlimit="10" stroke-linejoin="miter" fill="none" stroke="#7f807f" d="M53.65836 0H57.27246M53.65836 60.83052H57.27246M53.65836 91.2458H57.27246"/>
<path transform="matrix(1,0,0,-1,12.674,109.64)" stroke-width=".3985" stroke-linecap="butt" stroke-miterlimit="10" stroke-linejoin="miter" fill="none" stroke="#000000" d="M0 30.41525H164.40373"/>
<path transform="matrix(1,0,0,-1,177.07773,79.22475)" d="M1.99252 0-1.19551 1.59401 0 0-1.19551-1.59401"/>
<path transform="matrix(1,0,0,-1,12.674,109.64)" stroke-width=".3985" stroke-linecap="butt" stroke-miterlimit="10" stroke-linejoin="miter" fill="none" stroke="#000000" d="M55.46541 0V104.46092"/>
<path transform="matrix(0,-1,-1,-0,68.139408,5.179077)" d="M1.99252 0-1.19551 1.59401 0 0-1.19551-1.59401"/>
<g clip-path="url(#clip_1)">
</g>
<use data-text="&#x2212;" xlink:href="#font_2_1" transform="matrix(9.96264,0,0,-9.96264,6.309,90.973)"/>
<use data-text="2" xlink:href="#font_3_2" transform="matrix(9.96264,0,0,-9.96264,14.058,90.973)"/>
<use data-text="&#x2212;" xlink:href="#font_2_1" transform="matrix(9.96264,0,0,-9.96264,34.042,90.973)"/>
<use data-text="1" xlink:href="#font_3_1" transform="matrix(9.96264,0,0,-9.96264,41.79,90.973)"/>
<use data-text="1" xlink:href="#font_3_1" transform="matrix(9.96264,0,0,-9.96264,93.381,90.973)"/>
<use data-text="2" xlink:href="#font_3_2" transform="matrix(9.96264,0,0,-9.96264,121.11301,90.973)"/>
<use data-text="3" xlink:href="#font_3_3" transform="matrix(9.96264,0,0,-9.96264,148.845,90.973)"/>
<use data-text="4" xlink:href="#font_3_4" transform="matrix(9.96264,0,0,-9.96264,176.578,90.973)"/>
<use data-text="&#x2212;" xlink:href="#font_2_1" transform="matrix(9.96264,0,0,-9.96264,50.082,112.435)"/>
<use data-text="2" xlink:href="#font_3_2" transform="matrix(9.96264,0,0,-9.96264,57.831,112.435)"/>
<use data-text="2" xlink:href="#font_3_2" transform="matrix(9.96264,0,0,-9.96264,57.831,52.020998)"/>
<use data-text="4" xlink:href="#font_3_4" transform="matrix(9.96264,0,0,-9.96264,57.831,21.606003)"/>
<g clip-path="url(#clip_4)">
<path transform="matrix(1,0,0,-1,12.674,109.64)" stroke-width="1.19553" stroke-linecap="butt" stroke-miterlimit="10" stroke-linejoin="miter" fill="none" stroke="#2471a3" d="M13.86617-19.00946C13.86617-19.00946 14.70805-16.71309 15.03139-15.84143 15.35474-14.96977 15.87328-13.58386 16.19662-12.7271 16.51996-11.87035 17.0385-10.50833 17.36183-9.66647 17.68518-8.82462 18.20372-7.4865 18.52707-6.65953 18.85042-5.8326 19.36896-4.51836 19.69229-3.7063 20.01563-2.89424 20.53416-1.60391 20.85751-.80676 21.18085-.0096 21.6994 1.2568 22.02275 2.03906 22.3461 2.82133 22.86462 4.06386 23.18796 4.8312 23.5113 5.59857 24.02985 6.81721 24.35318 7.56969 24.67653 8.32213 25.19508 9.51689 25.51843 10.25444 25.84177 10.992 26.3603 12.16287 26.68364 12.88551 27.00699 13.60817 27.52551 14.75513 27.84886 15.46288 28.17221 16.17062 28.69077 17.29372 29.0141 17.98656 29.33743 18.67943 29.85597 19.7786 30.17932 20.45654 30.50266 21.13449 31.0212 22.20978 31.34454 22.87283 31.6679 23.53589 32.18643 24.58727 32.50977 25.23543 32.83311 25.88358 33.35165 26.91107 33.67499 27.54433 33.99834 28.17757 34.51688 29.18117 34.84023 29.79951 35.16356 30.41788 35.68211 31.39758 36.00545 32.00102 36.3288 32.60448 36.84732 33.56029 37.17067 34.14883 37.49402 34.73738 38.01256 35.66933 38.33589 36.24297 38.65923 36.81662 39.17778 37.72462 39.50113 38.28337 39.82446 38.84213 40.343 39.72624 40.66635 40.2701 40.9897 40.81395 41.50822 41.67418 41.83156 42.20313 42.1549 42.73209 42.67346 43.5684 42.9968 44.08246 43.32014 44.59651 43.83868 45.40894 44.16203 45.9081 44.48537 46.40726 45.0039 47.1958 45.32724 47.68005 45.65059 48.1643 46.16913 48.92894 46.49248 49.3983 46.81583 49.86766 47.33437 50.60841 47.6577 51.06287 47.98103 51.5173 48.49957 52.23416 48.82292 52.6737 49.14626 53.11325 49.66481 53.80623 49.98816 54.23088 50.31151 54.65553 50.83003 55.3246 51.15337 55.73434 51.47672 56.1441 51.99525 56.78928 52.31859 57.18411 52.64194 57.57898 53.16049 58.20024 53.48384 58.5802 53.80716 58.96013 54.3257 59.55753 54.64905 59.92259 54.9724 60.28763 55.49092 60.86111 55.81427 61.21127 56.13762 61.56142 56.65617 62.11102 56.9795 62.44626 57.30284 62.78151 57.82138 63.3072 58.14473 63.62755 58.46806 63.94789 58.9866 64.4497 59.30995 64.75516 59.6333 65.0606 60.15184 65.53851 60.47517 65.82906 60.79852 66.1196 61.31706 66.57362 61.6404 66.84927 61.96375 67.12492 62.48228 67.55502 62.80563 67.8158 63.12895 68.07654 63.6475 68.48274 63.97086 68.7286 64.2942 68.97446 64.81273 69.35678 65.13608 69.58774 65.45943 69.81868 65.97797 70.17711 66.3013 70.39316 66.62463 70.6092 67.14319 70.94377 67.46654 71.1449 67.78987 71.34604 68.30841 71.6567 68.63176 71.84293 68.95511 72.02917 69.47363 72.31593 69.79697 72.48729 70.12032 72.65863 70.63887 72.92146 70.9622 73.07793 71.28555 73.23438 71.8041 73.47334 72.12744 73.61488 72.45076 73.75642 72.9693 73.97148 73.29265 74.09813 73.616 74.22478 74.13454 74.41595 74.45789 74.52771 74.78123 74.63945 75.29977 74.8067 75.62311 74.90356 75.94644 75.00041 76.46498 75.14378 76.78833 75.22574 77.11166 75.3077 77.63022 75.42715 77.95357 75.49422 78.27692 75.56126 78.79544 75.65686 79.11877 75.70898 79.44212 75.76114 79.96066 75.83284 80.284 75.87009 80.60735 75.90732 81.1259 75.95512 81.44925 75.97748 81.77257 75.99982 82.2911 76.02371 82.61446 76.03117 82.9378 76.0386 83.45633 76.0386 83.77968 76.03117 84.10303 76.02371 84.62158 75.99982 84.9449 75.97748 85.26825 75.95512 85.78679 75.90732 86.11014 75.87009 86.43347 75.83284 86.95201 75.76114 87.27536 75.70898 87.59871 75.65686 88.11725 75.56126 88.44058 75.49422 88.76393 75.42715 89.28247 75.3077 89.6058 75.22574 89.92915 75.14378 90.4477 75.00041 90.77104 74.90356 91.09436 74.8067 91.61292 74.63945 91.93626 74.52771 92.25961 74.41595 92.77814 74.22478 93.10149 74.09813 93.42484 73.97148 93.94337 73.75642 94.2667 73.61488 94.59004 73.47334 95.1086 73.23438 95.43195 73.07793 95.75528 72.92146 96.27382 72.65863 96.59717 72.48729 96.92052 72.31593 97.43904 72.02917 97.76237 71.84293 98.08572 71.6567 98.60428 71.34604 98.92761 71.1449 99.25096 70.94377 99.7695 70.6092 100.09285 70.39316 100.41617 70.17711 100.93471 69.81868 101.25806 69.58774 101.5814 69.35678 102.09995 68.97446 102.4233 68.7286 102.74664 68.48274 103.26518 68.07654 103.5885 67.8158 103.91185 67.55502 104.43039 67.12492 104.75374 66.84927 105.07707 66.57362 105.59563 66.1196 105.91898 65.82906 106.24231 65.53851 106.76085 65.0606 107.08418 64.75516 107.40753 64.4497 107.92607 63.94789 108.2494 63.62755 108.57275 63.3072 109.09131 62.78151 109.41466 62.44626 109.73798 62.11102 110.25652 61.56142 110.57986 61.21127 110.90321 60.86111 111.42174 60.28763 111.74509 59.92259 112.06844 59.55753 112.58699 58.96013 112.91031 58.5802 113.23366 58.20024 113.7522 57.57898 114.07555 57.18411 114.39888 56.78928 114.91742 56.1441 115.24077 55.73434 115.5641 55.3246 116.08264 54.65553 116.40599 54.23088 116.72934 53.80623 117.24788 53.11325 117.57121 52.6737 117.89456 52.23416 118.4131 51.5173 118.73645 51.06287 119.05977 50.60841 119.57832 49.86766 119.90167 49.3983 120.22502 48.92894 120.74355 48.1643 121.0669 47.68005 121.39024 47.1958 121.90878 46.40726 122.2321 45.9081 122.55545 45.40894 123.074 44.59651 123.39735 44.08246 123.72069 43.5684 124.23923 42.73209 124.56258 42.20313 124.88591 41.67418 125.40443 40.81395 125.72778 40.2701 126.05113 39.72624 126.56969 38.84213 126.89302 38.28337 127.21637 37.72462 127.73491 36.81662 128.05826 36.24297 128.38158 35.66933 128.90012 34.73738 129.22347 34.14883 129.54682 33.56029 130.06536 32.60448 130.3887 32.00102 130.71205 31.39758 131.23059 30.41788 131.55391 29.79951 131.87726 29.18117 132.3958 28.17757 132.71915 27.54433 133.04248 26.91107 133.56104 25.88358 133.88439 25.23543 134.20772 24.58727 134.72624 23.53589 135.04959 22.87283 135.37294 22.20978 135.89148 21.13449 136.21482 20.45654 136.53816 19.7786 137.05672 18.67943 137.38005 17.98656 137.70339 17.29372 138.22193 16.17062 138.54528 15.46288 138.86862 14.75513 139.38715 13.60817 139.7105 12.88551 140.03385 12.16287 140.5524 10.992 140.87572 10.25444 141.19907 9.51689 141.7176 8.32213 142.04096 7.56969 142.36429 6.81721 142.88283 5.59857 143.20618 4.8312 143.52951 4.06386 144.04805 2.82133 144.3714 2.03906 144.69475 1.2568 145.21329-.0096 145.53662-.80676 145.85997-1.60391 146.37851-2.89424 146.70185-3.7063 147.02518-4.51836 147.54373-5.8326 147.86708-6.65953 148.19043-7.4865 148.70896-8.82462 149.0323-9.66647 149.35565-10.50833 149.87419-11.87035 150.19751-12.7271 150.52086-13.58386 151.03942-14.96977 151.36277-15.84143 151.6861-16.71309 152.52799-19.00946 152.52799-19.00946"/>
<path transform="matrix(1,0,0,-1,12.674,109.64)" stroke-width=".79701" stroke-linecap="butt" stroke-miterlimit="10" stroke-linejoin="miter" fill="none" stroke="#b30000" d="M13.86617 63.87183C13.86617 63.87183 14.70805 62.95326 15.03139 62.6046 15.35474 62.25594 15.87328 61.70157 16.19662 61.35887 16.51996 61.01617 17.0385 60.47134 17.36183 60.13461 17.68518 59.79787 18.20372 59.26262 18.52707 58.93184 18.85042 58.60106 19.36896 58.07536 19.69229 57.75055 20.01563 57.42574 20.53416 56.90959 20.85751 56.59073 21.18085 56.27187 21.6994 55.7653 22.02275 55.45241 22.3461 55.1395 22.86462 54.64247 23.18796 54.33553 23.5113 54.02858 24.02985 53.54112 24.35318 53.24014 24.67653 52.93918 25.19508 52.46124 25.51843 52.16623 25.84177 51.87123 26.3603 51.40286 26.68364 51.1138 27.00699 50.82475 27.52551 50.36597 27.84886 50.08287 28.17221 49.79977 28.69077 49.35052 29.0141 49.0734 29.33743 48.79626 29.85597 48.35657 30.17932 48.0854 30.50266 47.81421 31.0212 47.38411 31.34454 47.1189 31.6679 46.85365 32.18643 46.4331 32.50977 46.17386 32.83311 45.91458 33.35165 45.50359 33.67499 45.25029 33.99834 44.997 34.51688 44.59555 34.84023 44.3482 35.16356 44.10088 35.68211 43.70898 36.00545 43.4676 36.3288 43.22623 36.84732 42.8439 37.17067 42.60847 37.49402 42.37306 38.01256 42.00029 38.33589 41.77083 38.65923 41.5414 39.17778 41.17816 39.50113 40.95467 39.82446 40.73117 40.343 40.37753 40.66635 40.15999 40.9897 39.94244 41.50822 39.59834 41.83156 39.38676 42.1549 39.17519 42.67346 38.84065 42.9968 38.63503 43.32014 38.42941 43.83868 38.10442 44.16203 37.90477 44.48537 37.70511 45.0039 37.3897 45.32724 37.196 45.65059 37.0023 46.16913 36.69644 46.49248 36.5087 46.81583 36.32095 47.33437 36.02466 47.6577 35.84288 47.98103 35.66112 48.49957 35.37436 48.82292 35.19853 49.14626 35.02272 49.66481 34.74553 49.98816 34.57567 50.31151 34.4058 50.83003 34.13818 51.15337 33.97427 51.47672 33.81038 51.99525 33.5523 52.31859 33.39438 52.64194 33.23643 53.16049 32.9879 53.48384 32.83594 53.80716 32.68396 54.3257 32.44499 54.64905 32.29898 54.9724 32.15297 55.49092 31.92357 55.81427 31.7835 56.13762 31.64345 56.65617 31.4236 56.9795 31.28952 57.30284 31.15543 57.82138 30.94513 58.14473 30.817 58.46806 30.68886 58.9866 30.48814 59.30995 30.36597 59.6333 30.24377 60.15184 30.0526 60.47517 29.93639 60.79852 29.82018 61.31706 29.63858 61.6404 29.5283 61.96375 29.41805 62.48228 29.246 62.80563 29.1417 63.12895 29.03741 63.6475 28.87491 63.97086 28.77657 64.2942 28.67824 64.81273 28.5253 65.13608 28.43292 65.45943 28.34056 65.97797 28.19717 66.3013 28.11075 66.62463 28.02432 67.14319 27.89052 67.46654 27.81006 67.78987 27.7296 68.30841 27.60535 68.63176 27.53085 68.95511 27.45634 69.47363 27.34164 69.79697 27.2731 70.12032 27.20457 70.63887 27.09944 70.9622 27.03685 71.28555 26.97426 71.8041 26.87868 72.12744 26.82205 72.45076 26.76544 72.9693 26.67941 73.29265 26.62877 73.616 26.57811 74.13454 26.50165 74.45789 26.45694 74.78123 26.41225 75.29977 26.34534 75.62311 26.30661 75.94644 26.26785 76.46498 26.2105 76.78833 26.17772 77.11166 26.14496 77.63022 26.09715 77.95357 26.07034 78.27692 26.04352 78.79544 26.00526 79.11877 25.98442 79.44212 25.96356 79.96066 25.93489 80.284 25.91998 80.60735 25.90509 81.1259 25.88596 81.44925 25.87703 81.77257 25.8681 82.2911 25.85852 82.61446 25.85555 82.9378 25.85258 83.45633 25.85258 83.77968 25.85555 84.10303 25.85852 84.62158 25.8681 84.9449 25.87703 85.26825 25.88596 85.78679 25.90509 86.11014 25.91998 86.43347 25.93489 86.95201 25.96356 87.27536 25.98442 87.59871 26.00526 88.11725 26.04352 88.44058 26.07034 88.76393 26.09715 89.28247 26.14496 89.6058 26.17772 89.92915 26.2105 90.4477 26.26785 90.77104 26.30661 91.09436 26.34534 91.61292 26.41225 91.93626 26.45694 92.25961 26.50165 92.77814 26.57811 93.10149 26.62877 93.42484 26.67941 93.94337 26.76544 94.2667 26.82205 94.59004 26.87868 95.1086 26.97426 95.43195 27.03685 95.75528 27.09944 96.27382 27.20457 96.59717 27.2731 96.92052 27.34164 97.43904 27.45634 97.76237 27.53085 98.08572 27.60535 98.60428 27.7296 98.92761 27.81006 99.25096 27.89052 99.7695 28.02432 100.09285 28.11075 100.41617 28.19717 100.93471 28.34056 101.25806 28.43292 101.5814 28.5253 102.09995 28.67824 102.4233 28.77657 102.74664 28.87491 103.26518 29.03741 103.5885 29.1417 103.91185 29.246 104.43039 29.41805 104.75374 29.5283 105.07707 29.63858 105.59563 29.82018 105.91898 29.93639 106.24231 30.0526 106.76085 30.24377 107.08418 30.36597 107.40753 30.48814 107.92607 30.68886 108.2494 30.817 108.57275 30.94513 109.09131 31.15543 109.41466 31.28952 109.73798 31.4236 110.25652 31.64345 110.57986 31.7835 110.90321 31.92357 111.42174 32.15297 111.74509 32.29898 112.06844 32.44499 112.58699 32.68396 112.91031 32.83594 113.23366 32.9879 113.7522 33.23643 114.07555 33.39438 114.39888 33.5523 114.91742 33.81038 115.24077 33.97427 115.5641 34.13818 116.08264 34.4058 116.40599 34.57567 116.72934 34.74553 117.24788 35.02272 117.57121 35.19853 117.89456 35.37436 118.4131 35.66112 118.73645 35.84288 119.05977 36.02466 119.57832 36.32095 119.90167 36.5087 120.22502 36.69644 120.74355 37.0023 121.0669 37.196 121.39024 37.3897 121.90878 37.70511 122.2321 37.90477 122.55545 38.10442 123.074 38.42941 123.39735 38.63503 123.72069 38.84065 124.23923 39.17519 124.56258 39.38676 124.88591 39.59834 125.40443 39.94244 125.72778 40.15999 126.05113 40.37753 126.56969 40.73117 126.89302 40.95467 127.21637 41.17816 127.73491 41.5414 128.05826 41.77083 128.38158 42.00029 128.90012 42.37306 129.22347 42.60847 129.54682 42.8439 130.06536 43.22623 130.3887 43.4676 130.71205 43.70898 131.23059 44.10088 131.55391 44.3482 131.87726 44.59555 132.3958 44.997 132.71915 45.25029 133.04248 45.50359 133.56104 45.91458 133.88439 46.17386 134.20772 46.4331 134.72624 46.85365 135.04959 47.1189 135.37294 47.38411 135.89148 47.81421 136.21482 48.0854 136.53816 48.35657 137.05672 48.79626 137.38005 49.0734 137.70339 49.35052 138.22193 49.79977 138.54528 50.08287 138.86862 50.36597 139.38715 50.82475 139.7105 51.1138 140.03385 51.40286 140.5524 51.87123 140.87572 52.16623 141.19907 52.46124 141.7176 52.93918 142.04096 53.24014 142.36429 53.54112 142.88283 54.02858 143.20618 54.33553 143.52951 54.64247 144.04805 55.1395 144.3714 55.45241 144.69475 55.7653 145.21329 56.27187 145.53662 56.59073 145.85997 56.90959 146.37851 57.42574 146.70185 57.75055 147.02518 58.07536 147.54373 58.60106 147.86708 58.93184 148.19043 59.26262 148.70896 59.79787 149.0323 60.13461 149.35565 60.47134 149.87419 61.01617 150.19751 61.35887 150.52086 61.70157 151.03942 62.25594 151.36277 62.6046 151.6861 62.95326 152.52799 63.87183 152.52799 63.87183"/>
<use data-text="&#x2022;" xlink:href="#font_2_2" transform="matrix(9.96264,0,0,-9.96264,52.891,84.632999)" fill="#1e8449"/>
<use data-text="&#x2022;" xlink:href="#font_2_2" transform="matrix(9.96264,0,0,-9.96264,133.87,84.632999)" fill="#1e8449"/>
</g>
<use data-text="x" xlink:href="#font_5_1" transform="matrix(9.96264,0,0,-9.96264,169.65599,75.506)"/>
<use data-text="y" xlink:href="#font_5_2" transform="matrix(9.96264,0,0,-9.96264,71.858,11.196999)"/>
</svg>
