<svg xmlns="http://www.w3.org/2000/svg" xmlns:xlink="http://www.w3.org/1999/xlink" xmlns:inkscape="http://www.inkscape.org/namespaces/inkscape" version="1.1" width="241.863" height="137.209" viewBox="0 0 241.863 137.209">
<defs>
<path id="font_1_1" d="M.6589966 .23046875C.6759949 .23046875 .69400027 .23046875 .69400027 .25045777 .69400027 .27046205 .6759949 .27046205 .6589966 .27046205H.117996219C.100997928 .27046205 .08299255 .27046205 .08299255 .25045777 .08299255 .23046875 .100997928 .23046875 .117996219 .23046875H.6589966Z"/>
<path id="font_2_4" d="M.45999146 .31976319C.45999146 .39982606 .45498658 .47988893 .41999818 .5539398 .37399293 .65000918 .2919922 .6660156 .25 .6660156 .18998719 .6660156 .116989139 .64001467 .07598877 .54693606 .04399109 .47789 .038986207 .39982606 .038986207 .31976319 .038986207 .24472046 .042999269 .15464783 .083999637 .07859802 .1269989-.0024719239 .19999695-.022460938 .24899292-.022460938 .30299378-.022460938 .3789978-.0014648438 .4229889 .09359741 .45498658 .16265869 .45999146 .2407074 .45999146 .31976319M.24899292-.00047302247C.20999146-.00047302247 .15098572 .024551392 .1329956 .12062073 .12199402 .18066406 .12199402 .2727356 .12199402 .3317871 .12199402 .39582826 .12199402 .46188355 .12998963 .5159149 .14898682 .63500979 .22399903 .64401248 .24899292 .64401248 .28199769 .64401248 .34799195 .6259918 .36698915 .52693179 .3769989 .47088624 .3769989 .39482118 .3769989 .3317871 .3769989 .25672914 .3769989 .18867493 .3659973 .12461853 .35099793 .029556275 .2939911-.00047302247 .24899292-.00047302247Z"/>
<path id="font_3_1" d="M.19198609 .052993776C.19198609 .08198547 .16799927 .10598755 .13899231 .10598755 .10998535 .10598755 .085998538 .08198547 .085998538 .052993776 .085998538 .023986817 .10998535 0 .13899231 0 .16799927 0 .19198609 .023986817 .19198609 .052993776Z"/>
<path id="font_2_6" d="M.1269989 .07699585 .23298645 .18003845C.3889923 .31811524 .44898988 .3721466 .44898988 .47216798 .44898988 .5860901 .35899354 .6660156 .23699951 .6660156 .12399292 .6660156 .049987794 .57411196 .049987794 .48516847 .049987794 .4291687 .099990848 .4291687 .102996829 .4291687 .11999512 .4291687 .15499878 .44117738 .15499878 .48217774 .15499878 .5081787 .13699341 .5341797 .101989749 .5341797 .09399414 .5341797 .09199524 .5341797 .08898926 .5331726 .11199951 .59806826 .1659851 .63500979 .22399903 .63500979 .31498719 .63500979 .35798646 .5541382 .35798646 .47216798 .35798646 .39215089 .30799867 .31311036 .25299073 .25108338L.06098938 .036987306C.049987794 .025985718 .049987794 .023986817 .049987794 0H.42099L.44898988 .17404175H.42399598C.4189911 .14402771 .4119873 .1000061 .4019928 .084991458 .394989 .07699585 .32899476 .07699585 .30699159 .07699585H.1269989Z"/>
<path id="font_2_8" d="M.2939911 .16503906V.07800293C.2939911 .041992189 .2919922 .0309906 .21798706 .0309906H.19699097V0C.23799134 .0029907227 .2899933 .0029907227 .33198548 .0029907227 .37399293 .0029907227 .4269867 .0029907227 .46798707 0V.0309906H.44699098C.37298585 .0309906 .37098695 .041992189 .37098695 .07800293V.16503906H.47099305V.19602967H.37098695V.65075686C.37098695 .67074587 .37098695 .6767578 .35499574 .6767578 .34599305 .6767578 .34298707 .6767578 .33499146 .66474917L.027999878 .19602967V.16503906H.2939911M.2999878 .19602967H.055999757L.2999878 .5688019V.19602967Z"/>
<path id="font_2_10" d="M.13198853 .327713V.35173036C.13198853 .6047821 .2559967 .64100649 .30699159 .64100649 .33099366 .64100649 .37298585 .634964 .394989 .6007538 .37998963 .6007538 .33999635 .6007538 .33999635 .5557556 .33999635 .524765 .3639984 .5097656 .38598634 .5097656 .4019928 .5097656 .43199159 .51875308 .43199159 .5577545 .43199159 .6178589 .3880005 .6660156 .30499269 .6660156 .1769867 .6660156 .041992189 .5367584 .041992189 .31570436 .041992189 .048553468 .1579895-.022460938 .25099183-.022460938 .3619995-.022460938 .45700074 .07156372 .45700074 .2036438 .45700074 .33070375 .36799623 .4267578 .25698854 .4267578 .18899536 .4267578 .1519928 .37573243 .13198853 .327713M.25099183 .0055389406C.18798828 .0055389406 .1579895 .06556702 .1519928 .080566409 .13398743 .127594 .13398743 .2076416 .13398743 .22564698 .13398743 .30369569 .1659851 .40374757 .2559967 .40374757 .27198792 .40374757 .31799317 .40374757 .34899903 .34172059 .36698915 .30470277 .36698915 .2536621 .36698915 .20463562 .36698915 .15661621 .36698915 .10658264 .34999085 .0705719 .31999208 .010528564 .27398683 .0055389406 .25099183 .0055389406Z"/>
<path id="font_2_11" d="M.16299439 .4569702C.116989139 .486969 .11299133 .52098086 .11299133 .5379791 .11299133 .598999 .17799378 .64100649 .24899292 .64100649 .32199098 .64100649 .38598634 .58898928 .38598634 .51698306 .38598634 .45996095 .34700013 .4119568 .2869873 .37695313L.16299439 .4569702M.30899049 .36193849C.3809967 .3989563 .42999269 .45095826 .42999269 .51698306 .42999269 .6090088 .34098817 .6660156 .25 .6660156 .1499939 .6660156 .068984989 .59199526 .068984989 .49897767 .068984989 .4809723 .070999149 .43595887 .11299133 .38894654 .12399292 .37695313 .16099549 .35194398 .18598938 .33494569 .12799073 .30592347 .041992189 .24984741 .041992189 .15072632 .041992189 .04458618 .14399719-.022460938 .24899292-.022460938 .3619995-.022460938 .45700074 .06060791 .45700074 .16773987 .45700074 .20379639 .44599916 .24885559 .4079895 .2909088 .3889923 .31193543 .37298585 .3219452 .30899049 .36193849M.20899964 .3199463 .33198548 .24183655C.3600006 .2228241 .40699769 .19277954 .40699769 .13169861 .40699769 .05760193 .33198548 .0055389406 .25 .0055389406 .1639862 .0055389406 .09199524 .067611698 .09199524 .15072632 .09199524 .20880127 .12399292 .27288819 .20899964 .3199463Z"/>
<path id="font_2_5" d="M.2939911 .64004519C.2939911 .66400149 .2939911 .6660156 .2709961 .6660156 .20899964 .60227969 .12098694 .60227969 .08898926 .60227969V.57128909C.10899353 .57128909 .16799927 .57128909 .21998596 .5972748V.07902527C.21998596 .042999269 .21699524 .0309906 .1269989 .0309906H.09498596V0C.12998963 .0029907227 .21699524 .0029907227 .25698854 .0029907227 .29699708 .0029907227 .38398744 .0029907227 .4189911 0V.0309906H.3869934C.29699708 .0309906 .2939911 .041992189 .2939911 .07902527V.64004519Z"/>
<path id="font_2_9" d="M.44898988 .20022583C.44898988 .3193512 .36698915 .41944886 .25898744 .41944886 .21099854 .41944886 .16799927 .40345765 .13198853 .36842347V.5637665C.1519928 .5577698 .18499756 .55078127 .21699524 .55078127 .33999635 .55078127 .4099884 .6417694 .4099884 .6547699 .4099884 .6607666 .40699769 .6657715 .3999939 .6657715 .39898683 .6657715 .39698792 .6657715 .3919983 .66278079 .37199403 .6537781 .32299806 .6337738 .2559967 .6337738 .21598816 .6337738 .16999817 .6407776 .12298584 .6617737 .114990238 .66477969 .11299133 .66477969 .11099243 .66477969 .100997928 .66477969 .100997928 .6567688 .100997928 .6407776V.34439088C.100997928 .32637025 .100997928 .31835938 .114990238 .31835938 .12199402 .31835938 .12399292 .32136537 .12799073 .32736207 .13899231 .3433838 .17599488 .39746095 .25698854 .39746095 .30899049 .39746095 .33399964 .35139466 .34199525 .33337403 .35798646 .29632569 .3600006 .25727845 .3600006 .20722962 .3600006 .17222595 .3600006 .11222839 .33599855 .07035828 .31199647 .031463624 .2749939 .0055389406 .22898865 .0055389406 .1559906 .0055389406 .09899902 .058380128 .08198547 .11723328 .084991458 .1162262 .08799744 .115234378 .09899902 .115234378 .13198853 .115234378 .14898682 .14022827 .14898682 .16423035 .14898682 .18823242 .13198853 .21322632 .09899902 .21322632 .084991458 .21322632 .049987794 .20622254 .049987794 .16023255 .049987794 .07434082 .11898804-.022460938 .23098755-.022460938 .34700013-.022460938 .44898988 .073349 .44898988 .20022583Z"/>
<clipPath id="clip_4">
<path transform="matrix(.85,0,0,-.85,3.7080999,133.8817)" d="M0 0H266.9817V153.59395H0Z"/>
</clipPath>
<path id="font_5_2" d="M.18199158 .116867069C.1329956 .036987306 .08898926 .033981325 .04899597 .0309906 .041992189 .02999878 .036987306 .021987915 .036987306 .0129852299 .036987306 .0069885256 .040985109 0 .050994874 0 .069992069 0 .116989139 .0029907227 .13598633 .0029907227 .1579895 .0029907227 .21199036 0 .23399353 0 .23999024 0 .25299073 0 .25299073 .017990113 .25299073 .02999878 .24099732 .0309906 .23799134 .0309906 .22898865 .03199768 .19099427 .033981325 .19099427 .063949588 .19099427 .077926639 .20199585 .09689331 .20498657 .101882938L.28399659 .23068238H.54499819C.5479889 .2077179 .5509949 .17378235 .55400088 .14881897 .55799868 .10987854 .56399539 .06593323 .56399539 .062942508 .56399539 .047973634 .5499878 .0309906 .49198915 .0309906 .48199464 .0309906 .46899415 .0309906 .46899415 .0129852299 .46899415 .0019989014 .47698976 0 .48399354 0 .5029907 0 .5269928 .0019989014 .5469971 .0019989014 .5669861 .0019989014 .59098818 .0029907227 .6069946 .0029907227 .6399994 .0029907227 .6419983 .0029907227 .66600039 .0019989014 .6819916 .0009918213 .7049866 0 .72099307 0 .72698977 0 .73999026 0 .73999026 .017990113 .73999026 .0309906 .72898867 .0309906 .71699526 .0309906 .6569977 .0309906 .6559906 .037979127 .6529999 .06694031L.58299258 .68881228C.58099368 .7108154 .5799866 .7158203 .5629883 .7158203 .548996 .7158203 .54299929 .7088165 .5349884 .69581606L.18199158 .116867069M.30299378 .26168824 .5049896 .5917816 .5419922 .26168824H.30299378Z"/>
<path id="font_6_1" d="M.34098817-.23803711C.34098817-.23303223 .33799745-.23002625 .33198548-.22303772 .20298767-.105026248 .1639862 .07498169 .1639862 .24996948 .1639862 .40498353 .19400025 .59298709 .33499146 .72698977 .33898927 .73098757 .34098817 .73399356 .34098817 .7389984 .34098817 .74598696 .33599855 .75 .32899476 .75 .31698609 .75 .22698975 .6779785 .17298889 .568985 .125 .47297669 .100997928 .36997987 .100997928 .25097657 .100997928 .17897034 .10998535 .064971927 .16499329-.053024293 .22399903-.17602539 .31698609-.24902344 .32899476-.24902344 .33599855-.24902344 .34098817-.24502564 .34098817-.23803711Z"/>
<path id="font_7_1" d="M.35899354 .6349335C.35899354 .66503909 .35499574 .66503909 .32499696 .66503909 .25898744 .60058596 .15699768 .60058596 .12098694 .60058596V.5615845C.14698792 .5615845 .21299744 .5615845 .272995 .58958438V.08496094C.272995 .051986696 .272995 .038986207 .16999817 .038986207H.1269989V0C.18199158 .0039978029 .2599945 .0039978029 .31599427 .0039978029 .37199403 .0039978029 .44999696 .0039978029 .5049896 0V.038986207H.46199037C.35899354 .038986207 .35899354 .051986696 .35899354 .08496094V.6349335Z"/>
<path id="font_7_2" d="M.5379944 .18702698H.5009918C.49899293 .17301941 .4889984 .10699463 .47399903 .09599304 .46699525 .08999634 .38598634 .08999634 .37199403 .08999634H.18499756L.31298829 .19403076C.34700013 .22103882 .43598939 .28504945 .46699525 .31506349 .49699403 .3450775 .5379944 .39608766 .5379944 .46710206 .5379944 .5920563 .4249878 .66503909 .29100038 .66503909 .1619873 .66503909 .07199097 .58006289 .07199097 .48609925 .07199097 .43510438 .114990238 .42910768 .12599182 .42910768 .15098572 .42910768 .17999268 .44709779 .17999268 .48310853 .17999268 .50509646 .16699219 .5371094 .12298584 .5371094 .1459961 .5880585 .20698548 .6260376 .27598573 .6260376 .3809967 .6260376 .43699647 .5480957 .43699647 .46710206 .43699647 .39608766 .3899994 .32305909 .31999208 .25904847L.08299255 .041992189C.07299805 .03199768 .07199097 .0309906 .07199097 0H.5069885L.5379944 .18702698Z"/>
<path id="font_5_1" d="M.18199158 .015991211C.18199158-.017044068 .18199158-.09921265 .10798645-.17036438 .101989749-.17636109 .101989749-.17736817 .101989749-.18136597 .101989749-.18836975 .10899353-.19335938 .114990238-.19335938 .12599182-.19335938 .20698548-.115249637 .20698548 .0019989014 .20698548 .06399536 .18499756 .10798645 .14199829 .10798645 .10798645 .10798645 .08799744 .08198547 .08799744 .053985597 .08799744 .025985718 .10798645 0 .14199829 0 .15699768 0 .17199707 .004989624 .18199158 .015991211Z"/>
<path id="font_6_3" d="M.47299195 .31976319C.47299195 .38682557 .46998597 .47288514 .43499757 .5479431 .3909912 .64201357 .31498719 .6660156 .25698854 .6660156 .19699097 .6660156 .12098694 .64201357 .07699585 .5459442 .04499817 .47688294 .039993287 .39582826 .039993287 .31976319 .039993287 .25471498 .041992189 .15765381 .084991458 .07858276 .13198853-.0064697267 .20999146-.022460938 .2559967-.022460938 .32099916-.022460938 .394989 .0055389406 .43699647 .097595218 .46699525 .1646576 .47299195 .23971558 .47299195 .31976319M.25698854 .002532959C.22698975 .002532959 .15499878 .016540528 .13598633 .12962342 .12599182 .18867493 .12599182 .2747345 .12599182 .33177186 .12599182 .39982606 .12599182 .47888185 .13798523 .53393557 .1579895 .6230011 .22200012 .64100649 .2559967 .64100649 .2939911 .64100649 .35699464 .62098696 .37599183 .5279236 .3869934 .47288514 .3869934 .39482118 .3869934 .33177186 .3869934 .2697296 .3869934 .18566895 .3769989 .12661743 .35598756 .012542725 .28199769 .002532959 .25698854 .002532959Z"/>
<path id="font_6_2" d="M.2979889 .25097657C.2979889 .3329773 .28599549 .4429779 .23399353 .5539856 .1749878 .6769867 .08198547 .75 .069992069 .75 .05999756 .75 .057998659 .74198916 .057998659 .7389984 .057998659 .73399356 .05999756 .73098757 .066986087 .72398379 .125 .6719818 .23498535 .5359802 .23498535 .25097657 .23498535 .10797119 .20899964-.091033939 .06399536-.22602844 .06199646-.22903443 .057998659-.23303223 .057998659-.23803711 .057998659-.24102783 .05999756-.24902344 .069992069-.24902344 .08198547-.24902344 .17199707-.17703247 .22599793-.06802368 .27398683 .02796936 .2979889 .13098145 .2979889 .25097657Z"/>
<path id="font_6_4" d="M.3039856 .6392822C.3039856 .6642761 .30299378 .666275 .27799989 .666275 .21598816 .60227969 .12399292 .60227969 .09298706 .60227969V.57128909C.11199951 .57128909 .17298889 .57128909 .22698975 .5972748V.08001709C.22698975 .042999269 .22399903 .0309906 .1309967 .0309906H.09899902V0C.1349945 .0029907227 .22399903 .0029907227 .2649994 .0029907227 .30599977 .0029907227 .3959961 .0029907227 .43199159 0V.0309906H.3999939C.30699159 .0309906 .3039856 .042999269 .3039856 .08001709V.6392822Z"/>
<path id="font_5_3" d="M.6459961 .5646057C.68699648 .6286011 .7220001 .6476135 .7679901 .6516113 .7799988 .65260317 .78900149 .6536102 .78900149 .6696167 .78900149 .6776123 .7829895 .6826172 .776001 .6826172 .7719879 .6826172 .746994 .6796112 .69400027 .6796112 .6619873 .6796112 .6279907 .6826172 .5970001 .6826172 .58999636 .6826172 .57899478 .680603 .57899478 .6646118 .57899478 .65260317 .58999636 .6516113 .59298709 .6516113 .6029968 .65060427 .6389923 .64860537 .6389923 .61961367 .6389923 .6116028 .6359863 .604599 .6319885 .5966034 .6279907 .5886078 .6259918 .58461 .621994 .5776062L.30899049 .092544559 .23298645 .62161257C.23298645 .63061526 .23999024 .6516113 .3019867 .6516113 .31399537 .6516113 .32598878 .6516113 .32598878 .6696167 .32598878 .680603 .31599427 .6826172 .30999757 .6826172 .2919922 .6826172 .2709961 .680603 .2519989 .680603 .23199463 .680603 .20999146 .6796112 .18899536 .6796112 .17098999 .6796112 .14299011 .6796112 .13398743 .680603 .12599182 .680603 .084991458 .6826172 .07699585 .6826172 .07299805 .6826172 .05899048 .6826172 .05899048 .6646118 .05899048 .6516113 .069992069 .6516113 .08198547 .6516113 .13798523 .6516113 .13899231 .64260867 .14299011 .6175995L.23098755 .0035247803C.23399353-.015472412 .23498535-.022460938 .2519989-.022460938 .2679901-.022460938 .27398683-.014465332 .2809906-.0024719239L.6459961 .5646057Z"/>
<path id="font_7_3" d="M.2939911 .33203126C.3789978 .33203126 .43598939 .274765 .43598939 .17237854 .43598939 .062408449 .36999513 .014511108 .29699708 .014511108 .269989 .014511108 .16699219 .020492554 .12199402 .07836914 .16099549 .0823822 .1769867 .10836792 .1769867 .13537598 .1769867 .16937256 .15299988 .19238281 .11999512 .19238281 .09298706 .19238281 .06298828 .17536927 .06298828 .13337708 .06298828 .034469606 .17298889-.021484375 .2999878-.021484375 .44799806-.021484375 .5469971 .07337952 .5469971 .17237854 .5469971 .24562073 .4909973 .3229828 .37199403 .35302735 .45098878 .37902833 .5149994 .44306947 .5149994 .5251007 .5149994 .60505679 .42099 .66503909 .30099488 .66503909 .18399048 .66503909 .09498596 .61105349 .09498596 .5290985 .09498596 .48609925 .12799073 .47409059 .147995 .47409059 .17399597 .47409059 .20098877 .49209596 .20098877 .5270996 .20098877 .5580902 .1789856 .5760956 .1519928 .5800934 .19898987 .6320343 .2899933 .6320343 .29899598 .6320343 .34999085 .6320343 .4139862 .60806277 .4139862 .5251007 .4139862 .47009278 .3829956 .37402345 .2829895 .36802674 .2649994 .36701966 .23799134 .36502076 .22898865 .36502076 .21899414 .36402894 .20799256 .36302186 .20799256 .34802247 .20799256 .33203126 .21899414 .33203126 .23599243 .33203126H.2939911Z"/>
<path id="font_7_4" d="M.56399539 .1640625V.2030487H.44699098V.6448059C.44699098 .6678009 .44699098 .6748047 .42199708 .6748047 .4039917 .6748047 .4019928 .6717987 .3929901 .65979006L.04598999 .2030487V.1640625H.35699464V.08401489C.35699464 .050994874 .35699464 .038986207 .272995 .038986207H.24398804V0C.2639923 .0009918213 .35798646 .0039978029 .4019928 .0039978029 .44599916 .0039978029 .5399933 .0009918213 .55999758 0V.038986207H.5309906C.44699098 .038986207 .44699098 .050994874 .44699098 .08401489V.1640625H.56399539M.3639984 .56585696V.2030487H.08898926L.3639984 .56585696Z"/>
<path id="font_8_1" d="M.6749878 .22944641C.69299319 .22944641 .71199038 .22944641 .71199038 .25144959 .71199038 .27246095 .69200137 .27246095 .6749878 .27246095H.12298584C.10598755 .27246095 .085998538 .27246095 .085998538 .25144959 .085998538 .22944641 .10499573 .22944641 .12298584 .22944641H.6749878Z"/>
<path id="font_7_5" d="M.3849945 .36080934C.45899964 .39382936 .5149994 .4428711 .5149994 .51493838 .5149994 .61302188 .4099884 .66503909 .30599977 .66503909 .19299317 .66503909 .09498596 .5970001 .09498596 .49591065 .09498596 .4338684 .13598633 .38581849 .17799378 .36080934 .18798828 .35479737 .21199036 .34178163 .22200012 .3357849 .1559906 .3107605 .06298828 .25471498 .06298828 .15362549 .06298828 .03652954 .18798828-.021484375 .3039856-.021484375 .43699647-.021484375 .5469971 .058547975 .5469971 .16964722 .5469971 .23869324 .5049896 .27973939 .48999024 .29475404 .47099305 .3127594 .42099 .3407898 .3849945 .36080934M.20399475 .45988465C.20199585 .46089173 .15098572 .48890687 .15098572 .5349579 .15098572 .6000061 .22999573 .6320343 .3039856 .6320343 .38198854 .6320343 .45899964 .58898928 .45899964 .5139313 .45899964 .4368744 .37599183 .39582826 .34799195 .38182069L.20399475 .45988465M.2619934 .3147583C.272995 .3087616 .37998963 .248703 .40699769 .23469544 .42799378 .22167969 .48298646 .19166565 .48298646 .13461304 .48298646 .055541994 .3909912 .014511108 .30599977 .014511108 .21299744 .014511108 .1269989 .06855774 .1269989 .15362549 .1269989 .23869324 .20698548 .29475404 .2619934 .3147583Z"/>
<path id="font_3_4" d="M.33399964 .30233766C.33999635 .32835389 .36299134 .42037965 .43299867 .42037965 .43798829 .42037965 .46199037 .42037965 .48298646 .40734864 .45498658 .402359 .43499757 .37734986 .43499757 .35334779 .43499757 .33735658 .44599916 .31835938 .47299195 .31835938 .49499513 .31835938 .5269928 .3363495 .5269928 .37635804 .5269928 .42837525 .46798707 .4423828 .43399049 .4423828 .37599183 .4423828 .34098817 .38935853 .32899476 .36634828 .3039856 .43237306 .25 .4423828 .22099304 .4423828 .116989139 .4423828 .05999756 .3133545 .05999756 .28834535 .05999756 .27833558 .069992069 .27833558 .07199097 .27833558 .07998657 .27833558 .08299255 .28033448 .084991458 .28933717 .11898804 .39535523 .18499756 .42037965 .21899414 .42037965 .23799134 .42037965 .272995 .4113617 .272995 .35334779 .272995 .32235719 .2559967 .25532533 .21899414 .11528015 .20298767 .053268434 .16799927 .011245728 .12399292 .011245728 .117996219 .011245728 .09498596 .011245728 .07398987 .024276734 .09899902 .029266358 .12098694 .05027771 .12098694 .07827759 .12098694 .105270389 .09899902 .11328125 .083999637 .11328125 .053985597 .11328125 .0289917 .08728027 .0289917 .055267335 .0289917 .009246826 .07899475-.0107421879 .12298584-.0107421879 .18899536-.0107421879 .22499085 .059280397 .22799683 .0652771 .23999024 .028274537 .27598573-.0107421879 .33599855-.0107421879 .43899537-.0107421879 .49598695 .118270877 .49598695 .14328003 .49598695 .1532898 .4869995 .1532898 .48399354 .1532898 .47499085 .1532898 .47299195 .14929199 .47099305 .14228821 .43798829 .03527832 .36999513 .011245728 .33799745 .011245728 .29899598 .011245728 .2829895 .043273927 .2829895 .07727051 .2829895 .09927368 .2889862 .121276859 .2999878 .16529846L.33399964 .30233766Z"/>
<path id="font_3_5" d="M.48599244 .38136292C.48999024 .39537049 .48999024 .39736939 .48999024 .40437318 .48999024 .42237855 .47599793 .43138124 .46099855 .43138124 .45098878 .43138124 .43499757 .42536927 .42599488 .41036988 .42399598 .405365 .41600038 .37435914 .4119873 .35635377 .40499879 .33035279 .397995 .30334474 .3919983 .27633668L.34700013 .09628296C.34298707 .08126831 .2999878 .011245728 .23399353 .011245728 .18299866 .011245728 .17199707 .055267335 .17199707 .0922699 .17199707 .1382904 .18899536 .20030213 .22299195 .28833009 .23899842 .3293457 .24299622 .3403473 .24299622 .36035157 .24299622 .405365 .21099854 .4423828 .16099549 .4423828 .06599426 .4423828 .0289917 .29733277 .0289917 .28833009 .0289917 .27833558 .038986207 .27833558 .040985109 .27833558 .050994874 .27833558 .051986696 .28033448 .056991579 .29634095 .083999637 .3903656 .12399292 .42037965 .1579895 .42037965 .1659851 .42037965 .18299866 .42037965 .18299866 .3883667 .18299866 .36335755 .17298889 .3373413 .1659851 .31834413 .12599182 .21231079 .10798645 .1552887 .10798645 .10827637 .10798645 .019256592 .17098999-.0107421879 .22999573-.0107421879 .2689972-.0107421879 .30299378 .0062561037 .33099366 .03425598 .31799317-.017745972 .30599977-.06674194 .2659912-.11973572 .23999024-.15385437 .20199585-.18309021 .1559906-.18309021 .14199829-.18309021 .09700012-.18005371 .07998657-.14074707 .09599304-.14074707 .10899353-.14074707 .12298584-.1287384 .1329956-.11973572 .14299011-.10673523 .14299011-.08773804 .14299011-.056747438 .115997318-.052734376 .10598755-.052734376 .08299255-.052734376 .049987794-.068740848 .049987794-.11773682 .049987794-.16796875 .09399414-.20507813 .1559906-.20507813 .25898744-.20507813 .3619995-.11373901 .3899994-.00074768069L.48599244 .38136292Z"/>
<path id="font_2_12" d="M.68699648 .32714845C.70199587 .32714845 .72099307 .32714845 .72099307 .34713746 .72099307 .36714173 .70199587 .36714173 .6879883 .36714173H.08898926C.07499695 .36714173 .055999757 .36714173 .055999757 .34713746 .055999757 .32714845 .07499695 .32714845 .08999634 .32714845H.68699648M.6879883 .13284302C.70199587 .13284302 .72099307 .13284302 .72099307 .15284729 .72099307 .17285156 .70199587 .17285156 .68699648 .17285156H.08999634C.07499695 .17285156 .055999757 .17285156 .055999757 .15284729 .055999757 .13284302 .07499695 .13284302 .08898926 .13284302H.6879883Z"/>
<path id="font_9_2" d="M.5049896 .18203736H.47099305C.46798707 .16001892 .45799256 .100997928 .44499208 .09098816 .43699647 .084991458 .3600006 .084991458 .34599305 .084991458H.1619873C.2669983 .17803955 .3019867 .20603943 .3619995 .25306703 .43598939 .312088 .5049896 .374115 .5049896 .46914674 .5049896 .5900879 .39898683 .6640625 .2709961 .6640625 .14698792 .6640625 .06298828 .57710269 .06298828 .4851532 .06298828 .43414308 .10598755 .42915345 .115997318 .42915345 .13999939 .42915345 .16899109 .44615174 .16899109 .48214723 .16899109 .5001526 .1619873 .53515627 .10998535 .53515627 .14099121 .6060791 .20899964 .62805178 .2559967 .62805178 .35598756 .62805178 .4079895 .5501404 .4079895 .46914674 .4079895 .38212586 .34599305 .3130951 .31399537 .27708436L.07299805 .038986207C.06298828 .02999878 .06298828 .027999878 .06298828 0H.47499085L.5049896 .18203736Z"/>
<path id="font_2_7" d="M.2899933 .35191346C.37199403 .37893678 .42999269 .4490509 .42999269 .52809146 .42999269 .6100464 .34199525 .6660156 .24598694 .6660156 .14498902 .6660156 .068984989 .60606387 .068984989 .53009036 .068984989 .49710084 .09098816 .47808839 .11999512 .47808839 .15098572 .47808839 .17098999 .50009158 .17098999 .5290985 .17098999 .57910159 .12399292 .57910159 .10899353 .57910159 .13999939 .62802127 .20599365 .64100649 .24198914 .64100649 .2829895 .64100649 .33799745 .6190338 .33799745 .5290985 .33799745 .51708987 .33599855 .45906068 .30999757 .4149933 .27999879 .36691285 .24598694 .36390687 .22099304 .36291505 .21299744 .36190797 .18899536 .35990907 .18199158 .35990907 .17399597 .35890199 .16699219 .35791017 .16699219 .3479004 .16699219 .33691407 .17399597 .33691407 .19099427 .33691407H.23498535C.31698609 .33691407 .35398866 .2686615 .35398866 .17037964 .35398866 .034469606 .2849884 .0055389406 .24099732 .0055389406 .19799805 .0055389406 .12298584 .022491456 .08799744 .08137512 .12298584 .07637024 .1539917 .09837341 .1539917 .1363678 .1539917 .17237854 .1269989 .19238281 .09799194 .19238281 .07398987 .19238281 .041992189 .17837525 .041992189 .1343689 .041992189 .043441774 .1349945-.022460938 .24398804-.022460938 .3659973-.022460938 .45700074 .06838989 .45700074 .17037964 .45700074 .252594 .3939972 .33088685 .2899933 .35191346Z"/>
<path id="font_2_3" d="M.40899659 .23046875H.6879883C.70199587 .23046875 .72099307 .23046875 .72099307 .25045777 .72099307 .27046205 .70199587 .27046205 .6879883 .27046205H.40899659V.5500183C.40899659 .56399539 .40899659 .5830078 .3889923 .5830078 .36898805 .5830078 .36898805 .56399539 .36898805 .5500183V.27046205H.08898926C.07499695 .27046205 .055999757 .27046205 .055999757 .25045777 .055999757 .23046875 .07499695 .23046875 .08898926 .23046875H.36898805V-.05000305C.36898805-.06401062 .36898805-.08300781 .3889923-.08300781 .40899659-.08300781 .40899659-.06401062 .40899659-.05000305V.23046875Z"/>
<path id="font_10_105" d="M.33198548 .12385559V.18066406H.30699159V.12585449C.30699159 .052108766 .2769928 .014251709 .23999024 .014251709 .17298889 .014251709 .17298889 .10491943 .17298889 .12187195V.3996582H.31599427V.43066407H.17298889V.6142578H.147995C.14698792 .5324249 .116989139 .42565919 .018997193 .42166139V.3996582H.10398865V.12408447C.10398865 .0012512207 .19699097-.0107421879 .23298645-.0107421879 .3039856-.0107421879 .33198548 .060180665 .33198548 .12408447V.12385559Z"/>
<path id="font_10_28" d="M.48298646 .08912659V.14511109H.45799256V.08912659C.45799256 .03112793 .43299867 .025131226 .42199708 .025131226 .3889923 .025131226 .3849945 .070129398 .3849945 .07511902V.27508546C.3849945 .31707765 .3849945 .3560791 .34899903 .39312745 .30999757 .43223573 .2599945 .4482422 .21199036 .4482422 .12998963 .4482422 .06098938 .40115357 .06098938 .335083 .06098938 .30508424 .08099365 .28808595 .10699463 .28808595 .1349945 .28808595 .15299988 .30807496 .15299988 .33407594 .15299988 .3460846 .147995 .37908937 .101989749 .38008119 .1289978 .41519166 .17799378 .426239 .20999146 .426239 .25898744 .426239 .31599427 .38710023 .31599427 .29808045V.26107789C.2649994 .25808717 .19499207 .25508119 .13198853 .22509766 .056991579 .19110108 .03199768 .13911438 .03199768 .09512329 .03199768 .014251709 .1289978-.0107421879 .19198609-.0107421879 .2579956-.0107421879 .3039856 .029251099 .32299806 .07624817 .32699586 .036132814 .35398866-.005859375 .40098573-.005859375 .42199708-.005859375 .48298646 .008132935 .48298646 .08912659M.31599427 .14013672C.31599427 .04525757 .24398804 .011245728 .19898987 .011245728 .1499939 .011245728 .10899353 .04624939 .10899353 .09625244 .10899353 .15124512 .15098572 .23425293 .31599427 .24024964V.14013672Z"/>
<path id="font_10_77" d="M.5349884 0V.0309906C.48298646 .0309906 .45799256 .0309906 .45700074 .061019899V.25221253C.45700074 .3383026 .45700074 .36932374 .42599488 .405365 .4119873 .42237855 .3789978 .4423828 .32099916 .4423828 .24798584 .4423828 .20098877 .39935304 .17298889 .33729554V.4423828L.03199768 .43066407V.3996582C.101989749 .3996582 .10998535 .39266969 .10998535 .34370423V.07595825C.10998535 .0309906 .09899902 .0309906 .03199768 .0309906V0L.14498902 .0029907227 .25698854 0V.0309906C.18998719 .0309906 .1789856 .0309906 .1789856 .07595825V.25978089C.1789856 .36431886 .25 .42037965 .31399537 .42037965 .3769989 .42037965 .3880005 .36631776 .3880005 .30926515V.076034549C.3880005 .0309906 .3769989 .0309906 .30999757 .0309906V0L.4229889 .0029907227 .5349884 0Z"/>
<path id="font_10_59" d="M.4850006 .40411378C.4850006 .42111207 .47299195 .453125 .43399049 .453125 .4139862 .453125 .36999513 .44711305 .32798768 .40611268 .28599549 .43937684 .24398804 .4423828 .22200012 .4423828 .1289978 .4423828 .05999756 .37338258 .05999756 .29638673 .05999756 .25239564 .08198547 .21440125 .10699463 .19340515 .09399414 .17840576 .07598877 .14538574 .07598877 .11035156 .07598877 .07899475 .08898926 .04083252 .11999512 .020828248 .05999756 .003829956 .027999878-.039138795 .027999878-.07911682 .027999878-.15107727 .1269989-.20605469 .24899292-.20605469 .36698915-.20605469 .47099305-.15507508 .47099305-.07711792 .47099305-.042144777 .45700074 .008834839 .4059906 .036834718 .35299684 .064834598 .29499818 .064834598 .23399353 .064834598 .20899964 .064834598 .1659851 .064834598 .15899658 .065841678 .1269989 .069885257 .10598755 .101242069 .10598755 .13334656 .10598755 .13735962 .10598755 .16040039 .12298584 .18040467 .1619873 .15240479 .20298767 .14941406 .22200012 .14941406 .31498719 .14941406 .38398744 .21839905 .38398744 .2953949 .38398744 .3323822 .36799623 .36938478 .34298707 .39237977 .3789978 .42637635 .4149933 .43138124 .43299867 .43138124 .43299867 .43112184 .43998719 .43112184 .44299317 .43011476 .43199159 .42611695 .4269867 .41513063 .4269867 .40315248 .4269867 .38616944 .43998719 .37417604 .45599366 .37417604 .46598817 .37417604 .4850006 .3811798 .4850006 .4041443V.40411378M.30899049 .29626466C.30899049 .26930238 .30799867 .2373352 .29299928 .21235657 .2849884 .20037842 .2619934 .17240906 .22200012 .17240906 .1349945 .17240906 .1349945 .2722931 .1349945 .29527284 .1349945 .3222351 .13598633 .35420228 .15098572 .3791809 .15899658 .3913269 .18199158 .41937257 .22200012 .41937257 .30899049 .41937257 .30899049 .31922914 .30899049 .29618836V.29626466M.4189911-.07911682C.4189911-.13308716 .34799195-.18305969 .25-.18305969 .14898682-.18305969 .07998657-.13209534 .07998657-.07911682 .07998657-.03314209 .117996219 .003829956 .1619873 .0068359377H.22099304C.30699159 .0068359377 .4189911 .0068359377 .4189911-.07911682Z"/>
<path id="font_10_88" d="M.19198609 .052993776C.19198609 .08198547 .16799927 .10598755 .13899231 .10598755 .10998535 .10598755 .085998538 .08198547 .085998538 .052993776 .085998538 .023986817 .10998535 0 .13899231 0 .16799927 0 .19198609 .023986817 .19198609 .052993776Z"/>
<path id="font_10_66" d="M.24699402 0V.0309906C.18099976 .0309906 .1769867 .035995485 .1769867 .075042728V.4423828L.036987306 .43066407V.3996582C.101989749 .3996582 .11099243 .3936615 .11099243 .3447113V.07595825C.11099243 .0309906 .099990848 .0309906 .032989503 .0309906V0L.14299011 .0029907227C.17799378 .0029907227 .21299744 .0009918213 .24699402 0M.19198609 .603775C.19198609 .6307678 .16899109 .6567688 .13899231 .6567688 .10499573 .6567688 .084991458 .6287689 .084991458 .603775 .084991458 .57676699 .10798645 .55078127 .13798523 .55078127 .17199707 .55078127 .19198609 .5787811 .19198609 .603775Z"/>
<path id="font_3_3" d="M.1789856 .114868167C.13899231 .047973634 .099990848 .033981325 .055999757 .0309906 .04399109 .02999878 .034988405 .02999878 .034988405 .010986328 .034988405 .004989624 .039993287 0 .04798889 0 .07499695 0 .10598755 .0029907227 .13398743 .0029907227 .16699219 .0029907227 .20199585 0 .23399353 0 .23999024 0 .25299073 0 .25299073 .018997193 .25299073 .02999878 .24398804 .0309906 .23699951 .0309906 .21398926 .032989503 .18998719 .04096985 .18998719 .06593323 .18998719 .077926639 .19599915 .088897708 .20399475 .102890018L.27999879 .23068238H.5309906C.5329895 .2097168 .5469971 .07392883 .5469971 .063949588 .5469971 .033981325 .49499513 .0309906 .47499085 .0309906 .46099855 .0309906 .45098878 .0309906 .45098878 .010986328 .45098878 0 .46299745 0 .46499635 0 .5059967 0 .548996 .0029907227 .58999636 .0029907227 .61499026 .0029907227 .6779938 0 .7029877 0 .70899966 0 .72099307 0 .72099307 .019989014 .72099307 .0309906 .71099856 .0309906 .69799807 .0309906 .6359863 .0309906 .6359863 .037979127 .6329956 .06694031L.57199099 .691803C.56999209 .71180728 .56999209 .7158203 .5529938 .7158203 .5369873 .7158203 .5329895 .7088165 .5269928 .69880679L.1789856 .114868167M.29899598 .26168824 .49598695 .5917816 .5279999 .26168824H.29899598Z"/>
<path id="font_10_44" d="M.19198609 .37765504C.19198609 .406662 .16799927 .43066407 .13899231 .43066407 .10998535 .43066407 .085998538 .406662 .085998538 .37765504 .085998538 .34866334 .10998535 .32466126 .13899231 .32466126 .16799927 .32466126 .19198609 .34866334 .19198609 .37765504M.19198609 .052993776C.19198609 .08198547 .16799927 .10598755 .13899231 .10598755 .10998535 .10598755 .085998538 .08198547 .085998538 .052993776 .085998538 .023986817 .10998535 0 .13899231 0 .16799927 0 .19198609 .023986817 .19198609 .052993776Z"/>
<path id="font_9_1" d="M.33499146 .63612368C.33499146 .6630554 .33299256 .6640625 .30499269 .6640625 .24099732 .6014404 .1499939 .6004486 .10899353 .6004486V.5644531C.1329956 .5644531 .19898987 .5644531 .2539978 .592453V.08203125C.2539978 .04899597 .2539978 .035995485 .1539917 .035995485H.115997318V0C.13398743 .0009918213 .25698854 .0039978029 .2939911 .0039978029 .32499696 .0039978029 .45098878 .0009918213 .47299195 0V.035995485H.43499757C.33499146 .035995485 .33499146 .04899597 .33499146 .08203125V.63612368Z"/>
<path id="font_2_1" d="M.33099366-.2400055C.33099366-.23701477 .33099366-.23500061 .31399537-.21800232 .18899536-.0920105 .15699768 .09700012 .15699768 .25 .15699768 .42399598 .19499207 .59799197 .31799317 .72299197 .33099366 .73498538 .33099366 .7369995 .33099366 .73999026 .33099366 .746994 .32699586 .75 .32099916 .75 .31098939 .75 .22099304 .6819916 .1619873 .5549927 .11099243 .44499208 .09899902 .33399964 .09899902 .25 .09899902 .17199707 .10998535 .050994874 .16499329-.06201172 .22499085-.18501282 .31098939-.25 .32099916-.25 .32699586-.25 .33099366-.24700928 .33099366-.2400055Z"/>
<path id="font_3_2" d="M.20298767 .0009918213C.20298767 .066986087 .17799378 .10598755 .13899231 .10598755 .10598755 .10598755 .085998538 .08099365 .085998538 .052993776 .085998538 .025985718 .10598755 0 .13899231 0 .15098572 0 .1639862 .0039978029 .17399597 .0129852299 .1769867 .01499939 .17799378 .015991211 .1789856 .015991211 .17999268 .015991211 .18099976 .01499939 .18099976 .0009918213 .18099976-.07316589 .1459961-.13328552 .11299133-.16635132 .101989749-.17736817 .101989749-.17936707 .101989749-.18237305 .101989749-.18936157 .10699463-.19335938 .11199951-.19335938 .12298584-.19335938 .20298767-.116256717 .20298767 .0009918213Z"/>
<path id="font_2_2" d="M.2889862 .25C.2889862 .32798768 .27799989 .44898988 .22299195 .56199648 .16299439 .68499758 .07699585 .75 .066986087 .75 .06098938 .75 .056991579 .74598696 .056991579 .73999026 .056991579 .7369995 .056991579 .73498538 .07598877 .71699526 .17399597 .6179962 .23098755 .45899964 .23098755 .25 .23098755 .07899475 .19400025-.09700012 .069992069-.2230072 .056991579-.23500061 .056991579-.23701477 .056991579-.2400055 .056991579-.2460022 .06098938-.25 .066986087-.25 .07699585-.25 .16699219-.18200684 .22599793-.055007936 .2769928 .054992677 .2889862 .16600037 .2889862 .25Z"/>
</defs>
<path transform="matrix(.85,0,0,-.85,3.7080999,133.8817)" stroke-width=".3985" stroke-linecap="butt" stroke-miterlimit="10" stroke-linejoin="miter" fill="none" stroke="#e5e6e5" d="M12.71341 0V153.59395M63.56706 0V153.59395M88.9939 0V153.59395M114.42073 0V153.59395M139.84755 0V153.59395M165.27439 0V153.59395M190.70122 0V153.59395M216.12804 0V153.59395M241.55487 0V153.59395M266.9817 0V153.59395"/>
<path transform="matrix(.85,0,0,-.85,3.7080999,133.8817)" stroke-width=".3985" stroke-linecap="butt" stroke-miterlimit="10" stroke-linejoin="miter" fill="none" stroke="#e5e6e5" d="M0 81.91676H266.9817M0 133.11475H266.9817"/>
<path transform="matrix(.85,0,0,-.85,3.7080999,133.8817)" stroke-width=".19925" stroke-linecap="butt" stroke-miterlimit="10" stroke-linejoin="miter" fill="none" stroke="#7f807f" d="M12.71341 28.5925V32.84505M63.56706 28.5925V32.84505M88.9939 28.5925V32.84505M114.42073 28.5925V32.84505M139.84755 28.5925V32.84505M165.27439 28.5925V32.84505M190.70122 28.5925V32.84505M216.12804 28.5925V32.84505M241.55487 28.5925V32.84505M266.9817 28.5925V32.84505"/>
<path transform="matrix(.85,0,0,-.85,3.7080999,133.8817)" stroke-width=".19925" stroke-linecap="butt" stroke-miterlimit="10" stroke-linejoin="miter" fill="none" stroke="#7f807f" d="M36.01393 81.91676H40.26653M36.01393 133.11475H40.26653"/>
<path transform="matrix(.85,0,0,-.85,3.7080999,133.8817)" stroke-width=".79701" stroke-linecap="butt" stroke-miterlimit="10" stroke-linejoin="miter" fill="none" stroke="#000000" d="M0 30.71878H264.39143"/>
<path transform="matrix(.85,0,0,-.85,228.44081,107.77074)" d="M2.59026 0-1.55415 2.0722 0 0-1.55415-2.0722"/>
<path transform="matrix(.85,0,0,-.85,3.7080999,133.8817)" stroke-width=".79701" stroke-linecap="butt" stroke-miterlimit="10" stroke-linejoin="miter" fill="none" stroke="#000000" d="M38.14024 0V151.00368"/>
<path transform="matrix(0,-.85,-.85,-0,36.127305,5.5285646)" d="M2.59026 0-1.55415 2.0722 0 0-1.55415-2.0722"/>
<use data-text="&#x2212;" xlink:href="#font_1_1" transform="matrix(8.468244,0,0,-8.468244,5.811,118.19665)"/>
<use data-text="0" xlink:href="#font_2_4" transform="matrix(8.468244,0,0,-8.468244,12.39765,118.19665)"/>
<use data-text="." xlink:href="#font_3_1" transform="matrix(8.468244,0,0,-8.468244,16.631499,118.19665)"/>
<use data-text="2" xlink:href="#font_2_6" transform="matrix(8.468244,0,0,-8.468244,18.984299,118.19665)"/>
<use data-text="0" xlink:href="#font_2_4" transform="matrix(8.468244,0,0,-8.468244,52.3298,118.19665)"/>
<use data-text="." xlink:href="#font_3_1" transform="matrix(8.468244,0,0,-8.468244,56.56365,118.19665)"/>
<use data-text="2" xlink:href="#font_2_6" transform="matrix(8.468244,0,0,-8.468244,58.915605,118.19665)"/>
<use data-text="0" xlink:href="#font_2_4" transform="matrix(8.468244,0,0,-8.468244,73.9419,118.19665)"/>
<use data-text="." xlink:href="#font_3_1" transform="matrix(8.468244,0,0,-8.468244,78.1766,118.19665)"/>
<use data-text="4" xlink:href="#font_2_8" transform="matrix(8.468244,0,0,-8.468244,80.52855,118.19665)"/>
<use data-text="0" xlink:href="#font_2_4" transform="matrix(8.468244,0,0,-8.468244,95.554859,118.19665)"/>
<use data-text="." xlink:href="#font_3_1" transform="matrix(8.468244,0,0,-8.468244,99.78871,118.19665)"/>
<use data-text="6" xlink:href="#font_2_10" transform="matrix(8.468244,0,0,-8.468244,102.14066,118.19665)"/>
<use data-text="0" xlink:href="#font_2_4" transform="matrix(8.468244,0,0,-8.468244,117.166957,118.19665)"/>
<use data-text="." xlink:href="#font_3_1" transform="matrix(8.468244,0,0,-8.468244,121.401668,118.19665)"/>
<use data-text="8" xlink:href="#font_2_11" transform="matrix(8.468244,0,0,-8.468244,123.75361,118.19665)"/>
<use data-text="1" xlink:href="#font_2_5" transform="matrix(8.468244,0,0,-8.468244,142.0728,118.19665)"/>
<use data-text="1" xlink:href="#font_2_5" transform="matrix(8.468244,0,0,-8.468244,160.392,118.19665)"/>
<use data-text="." xlink:href="#font_3_1" transform="matrix(8.468244,0,0,-8.468244,164.6267,118.19665)"/>
<use data-text="2" xlink:href="#font_2_6" transform="matrix(8.468244,0,0,-8.468244,166.97864,118.19665)"/>
<use data-text="1" xlink:href="#font_2_5" transform="matrix(8.468244,0,0,-8.468244,182.00496,118.19665)"/>
<use data-text="." xlink:href="#font_3_1" transform="matrix(8.468244,0,0,-8.468244,186.23882,118.19665)"/>
<use data-text="4" xlink:href="#font_2_8" transform="matrix(8.468244,0,0,-8.468244,188.59076,118.19665)"/>
<use data-text="1" xlink:href="#font_2_5" transform="matrix(8.468244,0,0,-8.468244,203.61705,118.19665)"/>
<use data-text="." xlink:href="#font_3_1" transform="matrix(8.468244,0,0,-8.468244,207.85175,118.19665)"/>
<use data-text="6" xlink:href="#font_2_10" transform="matrix(8.468244,0,0,-8.468244,210.2037,118.19665)"/>
<use data-text="1" xlink:href="#font_2_5" transform="matrix(8.468244,0,0,-8.468244,225.23001,118.19665)"/>
<use data-text="." xlink:href="#font_3_1" transform="matrix(8.468244,0,0,-8.468244,229.46385,118.19665)"/>
<use data-text="8" xlink:href="#font_2_11" transform="matrix(8.468244,0,0,-8.468244,231.8158,118.19665)"/>
<use data-text="0" xlink:href="#font_2_4" transform="matrix(8.468244,0,0,-8.468244,20.33835,66.9816)"/>
<use data-text="." xlink:href="#font_3_1" transform="matrix(8.468244,0,0,-8.468244,24.572203,66.9816)"/>
<use data-text="5" xlink:href="#font_2_9" transform="matrix(8.468244,0,0,-8.468244,26.925002,66.9816)"/>
<use data-text="1" xlink:href="#font_2_5" transform="matrix(8.468244,0,0,-8.468244,26.925,23.46415)"/>
<g clip-path="url(#clip_4)">
<path transform="matrix(.85,0,0,-.85,3.7080999,133.8817)" stroke-width=".79701" stroke-linecap="butt" stroke-miterlimit="10" stroke-linejoin="miter" fill="none" stroke="#2471a3" d="M25.42697 165.88207 26.57692 162.74974 27.7269 159.65094 28.87686 156.58565 30.02682 153.55385 31.17679 150.55559 32.32675 147.59082 33.47672 144.65956 34.62668 141.76181 35.77664 138.89759 36.9266 136.06687 38.07657 133.26966 39.22653 130.50595 40.3765 127.77577 41.52646 125.07909 42.67644 122.41591 43.8264 119.78625 44.97635 117.19011 46.12633 114.62747 47.27629 112.09834 48.42624 109.60272 49.57622 107.14063 50.72618 104.71204 51.87613 102.31696 53.02611 99.95537 54.17607 97.6273 55.32602 95.33276 56.476 93.07172 57.62596 90.84421 58.77592 88.65018 59.92589 86.48967 61.07585 84.36267 62.22581 82.26918 63.37578 80.2092 64.52574 78.18275 65.6757 76.18979 66.82567 74.23035 67.97563 72.30441 69.1256 70.41199 70.27556 68.55307 71.42554 66.72768 72.57549 64.93579 73.72545 63.17741 74.87543 61.45253 76.02538 59.76117 77.17534 58.10332 78.32532 56.47899 79.47527 54.88817 80.62523 53.33084 81.7752 51.80704 82.92516 50.31674 84.07513 48.85995 85.2251 47.43669 86.37505 46.04692 87.52502 44.69067 88.67499 43.36794 89.82494 42.0787 90.97491 40.82298 92.12488 39.60078 93.27483 38.41208 94.4248 37.2569 95.57477 36.13522 96.72472 35.04704 97.8747 33.99239 99.02466 32.97124 100.17462 31.98361 101.32458 31.0295 102.47455 30.10887 103.62451 29.22177 104.77448 28.36818 105.92444 27.54811 107.0744 26.76152 108.22437 26.00847 109.37433 25.28893 110.52429 24.60289 111.67426 23.95036 112.82423 23.33133 113.97418 22.74583 115.12415 22.19383 116.27412 21.67535 117.42407 21.19038 118.57404 20.7389 119.72401 20.32097 120.87396 19.93652 122.02393 19.58559 123.1739 19.26816 124.32385 18.98425 125.47382 18.73386 126.6238 18.51697 127.77374 18.33359 128.92372 18.18373 130.07369 18.06738 131.22364 17.98453 132.37361 17.9352 133.52358 17.91937 134.67353 17.93706 135.8235 17.98825 136.97347 18.07295 138.12342 18.19118 139.27339 18.3429 140.42336 18.52815 141.57332 18.74689 142.72328 18.99915 143.87325 19.28491 145.02321 19.6042 146.17317 19.957 147.32314 20.3433 148.4731 20.7631 149.62306 21.21643 150.77303 21.70328 151.92299 22.22363 153.07295 22.77748 154.22292 23.36485 155.37288 23.98573 156.52285 24.64012 157.67282 25.32802 158.82277 26.04944 159.97274 26.80435 161.12271 27.59279 162.27266 28.41472 163.42263 29.27017 164.5726 30.15913 165.72255 31.08162 166.87252 32.0376 168.02249 33.0271 169.17244 34.0501 170.32242 35.10661 171.47238 36.19666 172.62233 37.32019 173.77231 38.47723 174.92227 39.66779 176.07222 40.89188 177.2222 42.14946 178.37216 43.44054 179.52211 44.76515 180.67209 46.12325 181.82205 47.5149 182.972 48.94002 184.12198 50.39867 185.27194 51.89082 186.4219 53.41649 187.57187 54.97566 188.72183 56.56834 189.8718 58.19455 191.02176 59.85425 192.17173 61.54749 193.32169 63.27422 194.47165 65.03445 195.62162 66.8282 196.77158 68.65547 197.92154 70.51624 199.07152 72.41052 200.22148 74.33832 201.37143 76.29964 202.52141 78.29443 203.67137 80.32277 204.82132 82.38461 205.9713 84.47995 207.12125 86.60883 208.27121 88.77118 209.42119 90.96707 210.57114 93.19647 211.7211 95.45935 212.87108 97.75577 214.02103 100.0857 215.171 102.44913 216.32097 104.84607 217.47092 107.27654 218.6209 109.74051 219.77086 112.23798 220.92082 114.76895 222.07079 117.33345 223.22075 119.93147 224.37071 122.56299 225.52068 125.22803 226.67064 127.92656 227.82062 130.65862 228.97057 133.42417 230.12053 136.22325 231.27051 139.05583 232.42046 141.92192 233.57042 144.82154 234.7204 147.75466 235.87035 150.72127 237.02031 153.7214 238.17029 156.75505 239.32024 159.8222 240.4702 162.92288 241.62018 166.05706 242.77013 169.22475 243.9201 172.42595 245.07007 175.66066 246.22002 178.9289 247.37 182.23062 248.51996 185.56586 249.6699 188.93462 250.81989 192.33689 251.96985 195.77266 253.1198 199.24195 254.26978 202.74475"/>
<path transform="matrix(.85,0,0,-.85,3.7080999,133.8817)" stroke-width=".79701" stroke-linecap="butt" stroke-dasharray="2.98883,2.98883" stroke-miterlimit="10" stroke-linejoin="miter" fill="none" stroke="#1b4f72" d="M25.42697 92.1567 26.32138 91.43633 27.2158 90.71594 28.11021 89.99557 29.00464 89.27519 29.89905 88.55481 30.79347 87.83444 31.68788 87.11406 32.5823 86.39369 33.47672 85.67331 34.37114 84.95294 35.26556 84.23256 36.15996 83.51218 37.05438 82.79181 37.94879 82.07143 38.84322 81.35106 39.73763 80.63068 40.63205 79.91031 41.52646 79.18993 42.42088 78.46954 43.31529 77.74918 44.20972 77.0288 45.10413 76.30843 45.99855 75.58804 46.89296 74.86768 47.78738 74.1473 48.6818 73.42691 49.57622 72.70654 50.47063 71.98616 51.36505 71.2658 52.25946 70.54541 53.15387 69.82504 54.04828 69.10466 54.9427 68.38428 55.83711 67.66391 56.73154 66.94353 57.62596 66.22316 58.52037 65.50278 59.4148 64.78241 60.3092 64.06203 61.20363 63.34164 62.09804 62.62128 62.99246 61.9009 63.88687 61.18053 64.7813 60.46014 65.6757 59.73978 66.57013 59.0194 67.46454 58.29901 68.35896 57.57864 69.25337 56.85826 70.14778 56.1379 71.04219 55.41751 71.93661 54.69714 72.83102 53.97676 73.72545 53.25638 74.61986 52.53601 75.51428 51.81563 76.40869 51.09526 77.30312 50.37488 78.19754 49.65451 79.09195 48.93413 79.98637 48.21375 80.88078 47.49338 81.7752 46.773 82.66962 46.05263 83.56404 45.33224 84.45845 44.61188 85.35287 43.8915 86.24728 43.17111 87.1417 42.45074 88.0361 41.73036 88.93053 41.01 89.82494 40.28961 90.71936 39.56924 91.61377 38.84886 92.5082 38.12848 93.4026 37.40811 94.29703 36.68773 95.19144 35.96736 96.08586 35.24698 96.98027 34.52661 97.8747 33.80623 98.7691 33.08585 99.66353 32.36548 100.55795 31.64508 101.45236 30.92473 102.34679 30.20435 103.2412 29.48396 104.1356 28.76358 105.03001 28.04321 105.92444 27.32283 106.81885 26.60245 107.71327 25.88208 108.60768 25.1617 109.5021 24.44133 110.39651 23.72095 111.29094 23.00056 112.18535 22.2802 113.07977 21.55981 113.97418 20.83945 114.8686 20.11906 115.76302 19.3987 116.65744 18.67831 117.55185 17.95793 118.44627 17.23756 119.34068 16.51718 120.23509 15.79681 121.1295 15.07643 122.02393 14.35606 122.91835 13.63568 123.81276 12.9153 124.70718 12.19493 125.6016 11.47455 126.49602 10.75418 127.39043 10.0338 128.28485 9.31343 129.17926 8.59305 130.07369 7.87267 130.9681 7.1523 131.86252 6.43192 132.75693 5.71155 133.65135 4.99117 134.54576 4.2708 135.44019 3.55042 136.3346 2.83003 137.229 2.10966 138.12342 1.38928 139.01784 .66891 139.91225-.05145 140.80667-.77182 141.70108-1.4922 142.5955-2.21259 143.48992-2.93295 144.38434-3.65334 145.27875-4.3737 146.17317-5.09409 147.0676-5.81445 147.962-6.53484 148.85643-7.25522 149.75084-7.97559 150.64527-8.69597 151.53968-9.41634 152.4341-10.13672 153.3285-10.85709 154.22292-11.57747 155.11733-12.29785 156.01175-13.01822 156.90616-13.7386 157.80059-14.45897 158.69499-15.17935 159.58942-15.89972 160.48383-16.6201 161.37825-17.34048 162.27266-18.06085 163.16709-18.78123 164.0615-19.5016 164.95592-20.22198 165.85034-20.94235 166.74475-21.66273 167.63918-22.38312 168.53359-23.10349 169.42801-23.82387 170.32242-24.54424 171.21683-25.26462 172.11124-25.98499 173.00566-26.70537 173.90007-27.42575 174.7945-28.14612 175.6889-28.8665 176.58333-29.58687 177.47774-30.30725 178.37216-31.02762 179.26657-31.748 180.161-32.46838 181.0554-33.18875 181.94983-33.90913 182.84424-34.6295 183.73867-35.34988 184.63307-36.07025 185.5275-36.79063 186.4219-37.51102 187.31633-38.23138 188.21074-38.95177 189.10515-39.67213 189.99958-40.39252 190.89398-41.11288 191.7884-41.83327 192.68282-42.55365 193.57724-43.27402 194.47165-43.9944 195.36608-44.71477 196.26049-45.43515 197.1549-46.15552 198.04932-46.8759 198.94374-47.59628 199.83815-48.31665 200.73258-49.03703 201.62699-49.7574 202.52141-50.47778 203.41582-51.19815"/>
<path transform="matrix(.85,0,0,-.85,3.7080999,133.8817)" stroke-width=".79701" stroke-linecap="butt" stroke-dasharray="2.98883,2.98883" stroke-miterlimit="10" stroke-linejoin="miter" fill="none" stroke="#1e8449" d="M38.14046-71.67743 39.22653-70.80269 40.3126-69.92793 41.39868-69.0532 42.48476-68.17847 43.57083-67.30371 44.6569-66.42897 45.743-65.55423 46.82909-64.67949 47.91516-63.80475 49.00124-62.93 50.08731-62.05525 51.17339-61.18053 52.25946-60.30577 53.34555-59.43103 54.43163-58.55629 55.5177-57.68155 56.60378-56.80681 57.68985-55.93207 58.77592-55.05731 59.862-54.18259 60.94807-53.30783 62.03416-52.43309 63.12024-51.55835 64.20631-50.6836 65.29239-49.80887 66.37846-48.93413 67.46454-48.05937 68.55061-47.18463 69.6367-46.3099 70.72278-45.43515 71.80885-44.56041 72.89493-43.68565 73.981-42.81093 75.06708-41.93619 76.15315-41.06143 77.23923-40.18669 78.32532-39.31197 79.41139-38.43721 80.49747-37.56247 81.58354-36.68773 82.66962-35.81297 83.75569-34.93825 84.84177-34.06349 85.92784-33.18875 87.01393-32.31401 88.1-31.43927 89.18608-30.56453 90.27216-29.68979 91.35823-28.81503 92.4443-27.9403 93.53038-27.06557 94.61647-26.19081 95.70255-25.31607 96.78862-24.44133 97.8747-23.56659 98.96077-22.69185 100.04684-21.8171 101.13292-20.94235 102.219-20.06763 103.30508-19.19287 104.39116-18.31813 105.47723-17.44337 106.56331-16.56865 107.64938-15.69391 108.73546-14.81915 109.82153-13.94441 110.90761-13.06969 111.9937-12.19493 113.07977-11.32019 114.16585-10.44545 115.25192-9.57071 116.338-8.69597 117.42407-7.82121 118.51015-6.94647 119.59624-6.07173 120.68231-5.19699 121.76839-4.32225 122.85446-3.44751 123.94054-2.57275 125.02661-1.69803 126.11269-.82329 127.19878 .05145 128.28485 .9262 129.37093 1.80093 130.457 2.67567 131.54308 3.55042 132.62915 4.42517 133.71523 5.2999 134.8013 6.17464 135.88739 7.0494 136.97347 7.92413 138.05954 8.79887 139.14562 9.67361 140.23169 10.54836 141.31777 11.42311 142.40384 12.29785 143.48992 13.17258 144.576 14.04733 145.66208 14.92207 146.74816 15.79681 147.83423 16.67155 148.9203 17.5463 150.00638 18.42104 151.09246 19.29579 152.17855 20.17052 153.26462 21.04527 154.3507 21.92001 155.43677 22.79475 156.52285 23.66951 157.60892 24.54424 158.69499 25.41898 159.78107 26.29373 160.86716 27.16847 161.95323 28.04321 163.0393 28.91795 164.12538 29.7927 165.21146 30.66745 166.29753 31.54218 167.3836 32.41692 168.46968 33.29167 169.55577 34.16641 170.64185 35.04115 171.72792 35.9159 172.814 36.79063 173.90007 37.66539 174.98615 38.54013 176.07222 39.41486 177.15831 40.28961 178.24439 41.16435 179.33046 42.0391 180.41654 42.91383 181.50261 43.78857 182.58869 44.66331 183.67476 45.53807 184.76085 46.4128 185.84693 47.28755 186.933 48.1623 188.01908 49.03703 189.10515 49.91179 190.19123 50.78651 191.2773 51.66125 192.36338 52.53601 193.44947 53.41075 194.53554 54.28548 195.62162 55.16023 196.70769 56.03497 197.79376 56.90973 198.87984 57.78445 199.96591 58.6592 201.05199 59.53395 202.13808 60.40869 203.22415 61.28342 204.31024 62.15817 205.39632 63.03291 206.48239 63.90765 207.56847 64.78241 208.65454 65.65714 209.74063 66.53189 210.8267 67.40663 211.91278 68.28137 212.99886 69.15611 214.08493 70.03085 215.171 70.9056 216.25708 71.78035 217.34316 72.65508 218.42925 73.52983 219.51532 74.40457 220.6014 75.27931 221.68747 76.15405 222.77355 77.0288 223.85962 77.90353 224.9457 78.77829 226.03177 79.65303 227.11786 80.52776 228.20394 81.40251 229.29001 82.27725 230.37609 83.15201 231.46216 84.02673 232.54824 84.90147 233.63431 85.77623 234.7204 86.65097 235.80648 87.5257 236.89255 88.40045 237.97863 89.27519 239.0647 90.14993 240.15077 91.02467 241.23685 91.89941 242.32294 92.77417 243.40901 93.64891 244.49509 94.52365 245.58116 95.39839 246.66724 96.27313 247.75331 97.14787 248.83939 98.02263 249.92546 98.89735 251.01155 99.7721 252.09763 100.64685 253.1837 101.52159 254.26978 102.39633"/>
<use data-text="A" xlink:href="#font_5_2" transform="matrix(7.6214234,0,0,-7.6214234,77.908,97.6717)"/>
<use data-text="(" xlink:href="#font_6_1" transform="matrix(7.6214234,0,0,-7.6214234,83.7815,97.6717)"/>
<use data-text="1" xlink:href="#font_7_1" transform="matrix(5.080943,0,0,-5.080943,87.84365,94.5488)"/>
<path transform="matrix(.85,0,0,-.85,87.84365,95.766)" stroke-width=".379" stroke-linecap="butt" stroke-miterlimit="10" stroke-linejoin="miter" fill="none" stroke="#000000" d="M0 0H3.653"/>
<use data-text="2" xlink:href="#font_7_2" transform="matrix(5.080943,0,0,-5.080943,87.84365,100.258258)"/>
<use data-text="," xlink:href="#font_5_1" transform="matrix(7.6214234,0,0,-7.6214234,91.9653,97.6717)"/>
<use data-text="0" xlink:href="#font_6_3" transform="matrix(7.6214234,0,0,-7.6214234,95.4469,97.6717)"/>
<use data-text=")" xlink:href="#font_6_2" transform="matrix(7.6214234,0,0,-7.6214234,99.36431,97.6717)"/>
<use data-text="(" xlink:href="#font_6_1" transform="matrix(7.6214234,0,0,-7.6214234,147.3513,98.352558)"/>
<use data-text="1" xlink:href="#font_6_4" transform="matrix(7.6214234,0,0,-7.6214234,150.39987,98.352558)"/>
<use data-text="," xlink:href="#font_5_1" transform="matrix(7.6214234,0,0,-7.6214234,154.31366,98.352558)"/>
<use data-text="0" xlink:href="#font_6_3" transform="matrix(7.6214234,0,0,-7.6214234,157.79526,98.352558)"/>
<use data-text=")" xlink:href="#font_6_2" transform="matrix(7.6214234,0,0,-7.6214234,161.71266,98.352558)"/>
<use data-text="V" xlink:href="#font_5_3" transform="matrix(7.6214234,0,0,-7.6214234,101.04925,128.20795)"/>
<use data-text="(" xlink:href="#font_6_1" transform="matrix(7.6214234,0,0,-7.6214234,107.357959,128.20795)"/>
<use data-text="3" xlink:href="#font_7_3" transform="matrix(5.080943,0,0,-5.080943,111.42095,125.0859)"/>
<path transform="matrix(.85,0,0,-.85,111.42095,126.3031)" stroke-width=".379" stroke-linecap="butt" stroke-miterlimit="10" stroke-linejoin="miter" fill="none" stroke="#000000" d="M0 0H3.653"/>
<use data-text="4" xlink:href="#font_7_4" transform="matrix(5.080943,0,0,-5.080943,111.42095,130.7945)"/>
<use data-text="," xlink:href="#font_5_1" transform="matrix(7.6214234,0,0,-7.6214234,115.541759,128.20795)"/>
<use data-text="&#x2212;" xlink:href="#font_8_1" transform="matrix(7.6214234,0,0,-7.6214234,119.02335,128.20795)"/>
<use data-text="1" xlink:href="#font_7_1" transform="matrix(5.080943,0,0,-5.080943,126.131908,125.0859)"/>
<path transform="matrix(.85,0,0,-.85,126.131908,126.3031)" stroke-width=".379" stroke-linecap="butt" stroke-miterlimit="10" stroke-linejoin="miter" fill="none" stroke="#000000" d="M0 0H3.653"/>
<use data-text="8" xlink:href="#font_7_5" transform="matrix(5.080943,0,0,-5.080943,126.131908,130.7945)"/>
<use data-text=")" xlink:href="#font_6_2" transform="matrix(7.6214234,0,0,-7.6214234,130.2527,128.20795)"/>
</g>
<path transform="matrix(.85,0,0,-.85,3.7080999,133.8817)" d="M104.1986 30.71889C104.1986 32.09447 103.08348 33.20958 101.7079 33.20958 100.33232 33.20958 99.21721 32.09447 99.21721 30.71889 99.21721 29.3433 100.33232 28.2282 101.7079 28.2282 103.08348 28.2282 104.1986 29.3433 104.1986 30.71889ZM101.7079 30.71889"/>
<path transform="matrix(.85,0,0,-.85,3.7080999,133.8817)" stroke-width=".79701" stroke-linecap="butt" stroke-miterlimit="10" stroke-linejoin="miter" fill="none" stroke="#000000" d="M104.1986 30.71889C104.1986 32.09447 103.08348 33.20958 101.7079 33.20958 100.33232 33.20958 99.21721 32.09447 99.21721 30.71889 99.21721 29.3433 100.33232 28.2282 101.7079 28.2282 103.08348 28.2282 104.1986 29.3433 104.1986 30.71889ZM101.7079 30.71889"/>
<path transform="matrix(.85,0,0,-.85,3.7080999,133.8817)" d="M167.76605 30.71889C167.76605 32.09447 166.65094 33.20958 165.27536 33.20958 163.89978 33.20958 162.78467 32.09447 162.78467 30.71889 162.78467 29.3433 163.89978 28.2282 165.27536 28.2282 166.65094 28.2282 167.76605 29.3433 167.76605 30.71889ZM165.27536 30.71889"/>
<path transform="matrix(.85,0,0,-.85,3.7080999,133.8817)" stroke-width=".79701" stroke-linecap="butt" stroke-miterlimit="10" stroke-linejoin="miter" fill="none" stroke="#000000" d="M167.76605 30.71889C167.76605 32.09447 166.65094 33.20958 165.27536 33.20958 163.89978 33.20958 162.78467 32.09447 162.78467 30.71889 162.78467 29.3433 163.89978 28.2282 165.27536 28.2282 166.65094 28.2282 167.76605 29.3433 167.76605 30.71889ZM165.27536 30.71889"/>
<path transform="matrix(.85,0,0,-.85,3.7080999,133.8817)" d="M135.98232 17.91936C135.98232 19.29494 134.8672 20.41005 133.49163 20.41005 132.11605 20.41005 131.00093 19.29494 131.00093 17.91936 131.00093 16.54378 132.11605 15.42867 133.49163 15.42867 134.8672 15.42867 135.98232 16.54378 135.98232 17.91936ZM133.49163 17.91936"/>
<path transform="matrix(.85,0,0,-.85,3.7080999,133.8817)" stroke-width=".79701" stroke-linecap="butt" stroke-miterlimit="10" stroke-linejoin="miter" fill="none" stroke="#000000" d="M135.98232 17.91936C135.98232 19.29494 134.8672 20.41005 133.49163 20.41005 132.11605 20.41005 131.00093 19.29494 131.00093 17.91936 131.00093 16.54378 132.11605 15.42867 133.49163 15.42867 134.8672 15.42867 135.98232 16.54378 135.98232 17.91936ZM133.49163 17.91936"/>
<path transform="matrix(.85,0,0,-.85,3.7080999,133.8817)" stroke-width=".79701" stroke-linecap="butt" stroke-miterlimit="10" stroke-linejoin="miter" fill="none" stroke="#000000" d=""/>
<use data-text="x" xlink:href="#font_3_4" transform="matrix(8.468244,0,0,-8.468244,222.63922,104.6094)"/>
<use data-text="y" xlink:href="#font_3_5" transform="matrix(8.468244,0,0,-8.468244,39.28825,10.1353)"/>
<path transform="matrix(.85,0,0,-.85,3.7080999,133.8817)" d="M121.89854 104.16554H258.57405V148.58779H121.89854Z" fill="#ffffff"/>
<path transform="matrix(.85,0,0,-.85,3.7080999,133.8817)" stroke-width=".79701" stroke-linecap="butt" stroke-miterlimit="10" stroke-linejoin="miter" fill="none" stroke="#000000" d="M121.89854 104.16554H258.57405V148.58779H121.89854Z"/>
<path transform="matrix(.85,0,0,-.85,110.200359,15.052546)" stroke-width=".79701" stroke-linecap="butt" stroke-miterlimit="10" stroke-linejoin="miter" fill="none" stroke="#2471a3" d="M0 0H8.50412 17.00826"/>
<use data-text="y" xlink:href="#font_3_5" transform="matrix(8.468244,0,0,-8.468244,141.66056,17.863503)"/>
<use data-text="=" xlink:href="#font_2_12" transform="matrix(8.468244,0,0,-8.468244,148.46822,17.863503)"/>
<use data-text="2" xlink:href="#font_2_6" transform="matrix(8.468244,0,0,-8.468244,157.40219,17.863503)"/>
<use data-text="x" xlink:href="#font_3_4" transform="matrix(8.468244,0,0,-8.468244,161.64151,17.863503)"/>
<use data-text="2" xlink:href="#font_9_2" transform="matrix(5.9277727,0,0,-5.9277727,166.4814,14.790741)"/>
<use data-text="&#x2212;" xlink:href="#font_1_1" transform="matrix(8.468244,0,0,-8.468244,172.16196,17.863503)"/>
<use data-text="3" xlink:href="#font_2_7" transform="matrix(8.468244,0,0,-8.468244,180.63051,17.863503)"/>
<use data-text="x" xlink:href="#font_3_4" transform="matrix(8.468244,0,0,-8.468244,184.86437,17.863503)"/>
<use data-text="+" xlink:href="#font_2_3" transform="matrix(8.468244,0,0,-8.468244,191.58615,17.863503)"/>
<use data-text="1" xlink:href="#font_2_5" transform="matrix(8.468244,0,0,-8.468244,200.05438,17.863503)"/>
<path transform="matrix(.85,0,0,-.85,110.20035,26.733246)" stroke-width=".79701" stroke-linecap="butt" stroke-dasharray="2.98883,2.98883" stroke-miterlimit="10" stroke-linejoin="miter" fill="none" stroke="#1b4f72" d="M0 0H8.50412 17.00826"/>
<use data-text="t" xlink:href="#font_10_105" transform="matrix(8.468244,0,0,-8.468244,129.04315,29.67595)"/>
<use data-text="a" xlink:href="#font_10_28" transform="matrix(8.468244,0,0,-8.468244,132.3373,29.67595)"/>
<use data-text="n" xlink:href="#font_10_77" transform="matrix(8.468244,0,0,-8.468244,136.57143,29.67595)"/>
<use data-text="g" xlink:href="#font_10_59" transform="matrix(8.468244,0,0,-8.468244,141.27977,29.67595)"/>
<use data-text="." xlink:href="#font_10_88" transform="matrix(8.468244,0,0,-8.468244,145.5139,29.67595)"/>
<use data-text="i" xlink:href="#font_10_66" transform="matrix(8.468244,0,0,-8.468244,151.62796,29.67595)"/>
<use data-text="n" xlink:href="#font_10_77" transform="matrix(8.468244,0,0,-8.468244,153.98213,29.67595)"/>
<use data-text="A" xlink:href="#font_3_3" transform="matrix(8.468244,0,0,-8.468244,161.50975,29.67595)"/>
<use data-text=":" xlink:href="#font_10_44" transform="matrix(8.468244,0,0,-8.468244,167.86095,29.67595)"/>
<use data-text="y" xlink:href="#font_3_5" transform="matrix(8.468244,0,0,-8.468244,173.975,29.67595)"/>
<use data-text="=" xlink:href="#font_2_12" transform="matrix(8.468244,0,0,-8.468244,180.78351,29.67595)"/>
<use data-text="&#x2212;" xlink:href="#font_1_1" transform="matrix(8.468244,0,0,-8.468244,189.7221,29.67595)"/>
<use data-text="x" xlink:href="#font_3_4" transform="matrix(8.468244,0,0,-8.468244,196.3079,29.67595)"/>
<use data-text="+" xlink:href="#font_2_3" transform="matrix(8.468244,0,0,-8.468244,203.0297,29.67595)"/>
<use data-text="1" xlink:href="#font_9_1" transform="matrix(5.9277727,0,0,-5.9277727,212.514,26.3414)"/>
<path transform="matrix(.85,0,0,-.85,212.514,27.558594)" stroke-width=".398" stroke-linecap="butt" stroke-miterlimit="10" stroke-linejoin="miter" fill="none" stroke="#000000" d="M0 0H3.971"/>
<use data-text="2" xlink:href="#font_9_2" transform="matrix(5.9277727,0,0,-5.9277727,212.514,32.595705)"/>
<path transform="matrix(.85,0,0,-.85,110.20035,38.143648)" stroke-width=".79701" stroke-linecap="butt" stroke-dasharray="2.98883,2.98883" stroke-miterlimit="10" stroke-linejoin="miter" fill="none" stroke="#1e8449" d="M0 0H8.50412 17.00826"/>
<use data-text="t" xlink:href="#font_10_105" transform="matrix(8.468244,0,0,-8.468244,126.6895,40.684297)"/>
<use data-text="a" xlink:href="#font_10_28" transform="matrix(8.468244,0,0,-8.468244,129.98366,40.684297)"/>
<use data-text="n" xlink:href="#font_10_77" transform="matrix(8.468244,0,0,-8.468244,134.21778,40.684297)"/>
<use data-text="g" xlink:href="#font_10_59" transform="matrix(8.468244,0,0,-8.468244,138.92612,40.684297)"/>
<use data-text="." xlink:href="#font_10_88" transform="matrix(8.468244,0,0,-8.468244,143.16025,40.684297)"/>
<use data-text="i" xlink:href="#font_10_66" transform="matrix(8.468244,0,0,-8.468244,149.27433,40.684297)"/>
<use data-text="n" xlink:href="#font_10_77" transform="matrix(8.468244,0,0,-8.468244,151.62848,40.684297)"/>
<use data-text="(" xlink:href="#font_2_1" transform="matrix(8.468244,0,0,-8.468244,159.15695,40.684297)"/>
<use data-text="1" xlink:href="#font_2_5" transform="matrix(8.468244,0,0,-8.468244,162.45111,40.684297)"/>
<use data-text="," xlink:href="#font_3_2" transform="matrix(8.468244,0,0,-8.468244,166.6837,40.684297)"/>
<use data-text="0" xlink:href="#font_2_4" transform="matrix(8.468244,0,0,-8.468244,170.4475,40.684297)"/>
<use data-text=")" xlink:href="#font_2_2" transform="matrix(8.468244,0,0,-8.468244,174.68163,40.684297)"/>
<use data-text=":" xlink:href="#font_10_44" transform="matrix(8.468244,0,0,-8.468244,177.9751,40.684297)"/>
<use data-text="y" xlink:href="#font_3_5" transform="matrix(8.468244,0,0,-8.468244,184.08916,40.684297)"/>
<use data-text="=" xlink:href="#font_2_12" transform="matrix(8.468244,0,0,-8.468244,190.8968,40.684297)"/>
<use data-text="x" xlink:href="#font_3_4" transform="matrix(8.468244,0,0,-8.468244,199.8354,40.684297)"/>
<use data-text="&#x2212;" xlink:href="#font_1_1" transform="matrix(8.468244,0,0,-8.468244,206.5572,40.684297)"/>
<use data-text="1" xlink:href="#font_2_5" transform="matrix(8.468244,0,0,-8.468244,215.02576,40.684297)"/>
</svg>
