<svg xmlns="http://www.w3.org/2000/svg" xmlns:xlink="http://www.w3.org/1999/xlink" xmlns:inkscape="http://www.inkscape.org/namespaces/inkscape" version="1.1" width="160.87" height="868.19" viewBox="0 0 160.87 868.19">
<defs>
<path id="font_1_1" d="M.33399964 .30233766C.33999635 .32835389 .36299134 .42037965 .43299867 .42037965 .43798829 .42037965 .46199037 .42037965 .48298646 .40734864 .45498658 .402359 .43499757 .37734986 .43499757 .35334779 .43499757 .33735658 .44599916 .31835938 .47299195 .31835938 .49499513 .31835938 .5269928 .3363495 .5269928 .37635804 .5269928 .42837525 .46798707 .4423828 .43399049 .4423828 .37599183 .4423828 .34098817 .38935853 .32899476 .36634828 .3039856 .43237306 .25 .4423828 .22099304 .4423828 .116989139 .4423828 .05999756 .3133545 .05999756 .28834535 .05999756 .27833558 .069992069 .27833558 .07199097 .27833558 .07998657 .27833558 .08299255 .28033448 .084991458 .28933717 .11898804 .39535523 .18499756 .42037965 .21899414 .42037965 .23799134 .42037965 .272995 .4113617 .272995 .35334779 .272995 .32235719 .2559967 .25532533 .21899414 .11528015 .20298767 .053268434 .16799927 .011245728 .12399292 .011245728 .117996219 .011245728 .09498596 .011245728 .07398987 .024276734 .09899902 .029266358 .12098694 .05027771 .12098694 .07827759 .12098694 .105270389 .09899902 .11328125 .083999637 .11328125 .053985597 .11328125 .0289917 .08728027 .0289917 .055267335 .0289917 .009246826 .07899475-.0107421879 .12298584-.0107421879 .18899536-.0107421879 .22499085 .059280397 .22799683 .0652771 .23999024 .028274537 .27598573-.0107421879 .33599855-.0107421879 .43899537-.0107421879 .49598695 .118270877 .49598695 .14328003 .49598695 .1532898 .4869995 .1532898 .48399354 .1532898 .47499085 .1532898 .47299195 .14929199 .47099305 .14228821 .43798829 .03527832 .36999513 .011245728 .33799745 .011245728 .29899598 .011245728 .2829895 .043273927 .2829895 .07727051 .2829895 .09927368 .2889862 .121276859 .2999878 .16529846L.33399964 .30233766Z"/>
<path id="font_1_2" d="M.48599244 .38136292C.48999024 .39537049 .48999024 .39736939 .48999024 .40437318 .48999024 .42237855 .47599793 .43138124 .46099855 .43138124 .45098878 .43138124 .43499757 .42536927 .42599488 .41036988 .42399598 .405365 .41600038 .37435914 .4119873 .35635377 .40499879 .33035279 .397995 .30334474 .3919983 .27633668L.34700013 .09628296C.34298707 .08126831 .2999878 .011245728 .23399353 .011245728 .18299866 .011245728 .17199707 .055267335 .17199707 .0922699 .17199707 .1382904 .18899536 .20030213 .22299195 .28833009 .23899842 .3293457 .24299622 .3403473 .24299622 .36035157 .24299622 .405365 .21099854 .4423828 .16099549 .4423828 .06599426 .4423828 .0289917 .29733277 .0289917 .28833009 .0289917 .27833558 .038986207 .27833558 .040985109 .27833558 .050994874 .27833558 .051986696 .28033448 .056991579 .29634095 .083999637 .3903656 .12399292 .42037965 .1579895 .42037965 .1659851 .42037965 .18299866 .42037965 .18299866 .3883667 .18299866 .36335755 .17298889 .3373413 .1659851 .31834413 .12599182 .21231079 .10798645 .1552887 .10798645 .10827637 .10798645 .019256592 .17098999-.0107421879 .22999573-.0107421879 .2689972-.0107421879 .30299378 .0062561037 .33099366 .03425598 .31799317-.017745972 .30599977-.06674194 .2659912-.11973572 .23999024-.15385437 .20199585-.18309021 .1559906-.18309021 .14199829-.18309021 .09700012-.18005371 .07998657-.14074707 .09599304-.14074707 .10899353-.14074707 .12298584-.1287384 .1329956-.11973572 .14299011-.10673523 .14299011-.08773804 .14299011-.056747438 .115997318-.052734376 .10598755-.052734376 .08299255-.052734376 .049987794-.068740848 .049987794-.11773682 .049987794-.16796875 .09399414-.20507813 .1559906-.20507813 .25898744-.20507813 .3619995-.11373901 .3899994-.00074768069L.48599244 .38136292Z"/>
<path id="font_2_1" d="M.33499146 .63612368C.33499146 .6630554 .33299256 .6640625 .30499269 .6640625 .24099732 .6014404 .1499939 .6004486 .10899353 .6004486V.5644531C.1329956 .5644531 .19898987 .5644531 .2539978 .592453V.08203125C.2539978 .04899597 .2539978 .035995485 .1539917 .035995485H.115997318V0C.13398743 .0009918213 .25698854 .0039978029 .2939911 .0039978029 .32499696 .0039978029 .45098878 .0009918213 .47299195 0V.035995485H.43499757C.33499146 .035995485 .33499146 .04899597 .33499146 .08203125V.63612368Z"/>
<path id="font_2_2" d="M.5049896 .18203736H.47099305C.46798707 .16001892 .45799256 .100997928 .44499208 .09098816 .43699647 .084991458 .3600006 .084991458 .34599305 .084991458H.1619873C.2669983 .17803955 .3019867 .20603943 .3619995 .25306703 .43598939 .312088 .5049896 .374115 .5049896 .46914674 .5049896 .5900879 .39898683 .6640625 .2709961 .6640625 .14698792 .6640625 .06298828 .57710269 .06298828 .4851532 .06298828 .43414308 .10598755 .42915345 .115997318 .42915345 .13999939 .42915345 .16899109 .44615174 .16899109 .48214723 .16899109 .5001526 .1619873 .53515627 .10998535 .53515627 .14099121 .6060791 .20899964 .62805178 .2559967 .62805178 .35598756 .62805178 .4079895 .5501404 .4079895 .46914674 .4079895 .38212586 .34599305 .3130951 .31399537 .27708436L.07299805 .038986207C.06298828 .02999878 .06298828 .027999878 .06298828 0H.47499085L.5049896 .18203736Z"/>
<path id="font_2_3" d="M.272995 .33428956C.35099793 .33428956 .40699769 .2803192 .40699769 .1733551 .40699769 .04940796 .33499146 .012466431 .2769928 .012466431 .23699951 .012466431 .14898682 .0234375 .10699463 .082351688 .1539917 .084350589 .16499329 .11735535 .16499329 .13835144 .16499329 .17034912 .14099121 .19335938 .10998535 .19335938 .08198547 .19335938 .053985597 .17634583 .053985597 .13534546 .053985597 .041412355 .1579895-.01953125 .2789917-.01953125 .41799928-.01953125 .5139923 .07336426 .5139923 .1733551 .5139923 .2513275 .44999696 .32929994 .33999635 .35229493 .44499208 .39024354 .48298646 .4650879 .48298646 .5260773 .48298646 .60505679 .3919983 .6640625 .2809906 .6640625 .16999817 .6640625 .084991458 .61006167 .084991458 .5300751 .084991458 .49606324 .10699463 .47706605 .13699341 .47706605 .16799927 .47706605 .18798828 .5000763 .18798828 .5280762 .18798828 .5570679 .16799927 .57806399 .13699341 .5800781 .17199707 .62405398 .24099732 .63505557 .27799989 .63505557 .32299806 .63505557 .38598634 .6130676 .38598634 .5260773 .38598634 .48406983 .37199403 .43814088 .34599305 .4072113 .31298829 .36927796 .2849884 .3672943 .23498535 .36428834 .20999146 .3623047 .20799256 .3623047 .20298767 .3612976 .20098877 .3612976 .19299317 .3592987 .19299317 .34829713 .19299317 .33428956 .20199585 .33428956 .21899414 .33428956H.272995Z"/>
<path id="font_2_4" d="M.5289917 .1640625V.20005799H.41799928V.64582827C.41799928 .66682437 .41799928 .6738281 .3959961 .6738281 .38398744 .6738281 .37998963 .6738281 .36999513 .65982058L.038986207 .20005799V.1640625H.33299256V.08201599C.33299256 .04800415 .33299256 .035995485 .2519989 .035995485H.22499085V0C.2749939 .0019989014 .33898927 .0039978029 .375 .0039978029 .4119873 .0039978029 .47599793 .0019989014 .526001 0V.035995485H.49899293C.41799928 .035995485 .41799928 .04800415 .41799928 .08201599V.1640625H.5289917M.33999635 .5658722V.20005799H.07598877L.33999635 .5658722Z"/>
<path id="font_3_1" d="M.74398806 .2263794C.7599945 .2263794 .7839966 .2263794 .7839966 .25038148 .7839966 .27539063 .7609863 .27539063 .74398806 .27539063H.147995C.13198853 .27539063 .10798645 .27539063 .10798645 .25138856 .10798645 .2263794 .1309967 .2263794 .147995 .2263794H.74398806Z"/>
<path id="font_2_7" d="M.5349884 .6045227C.54499819 .6165161 .54499819 .6185303 .54499819 .64453127H.2829895C.24299622 .64453127 .23199463 .6455078 .19599915 .6484375 .14399719 .65234377 .14199829 .6592407 .13899231 .676239H.10499573L.069992069 .46250917H.10398865C.10598755 .47750855 .115997318 .54351809 .13198853 .5535126 .13999939 .55952456 .22099304 .55952456 .23599243 .55952456H.45399476C.42199708 .5175171 .37098695 .45550538 .34999085 .4275055 .21899414 .25549317 .20698548 .096466068 .20698548 .037460329 .20698548 .02645874 .20698548-.01953125 .2539978-.01953125 .3019867-.01953125 .3019867 .025466919 .3019867 .038467409V.07847595C.3019867 .27249146 .34199525 .36149598 .3849945 .41551209L.5349884 .6045227Z"/>
<path id="font_2_6" d="M.1499939 .3274536C.1499939 .40945436 .15699768 .48303224 .19499207 .543869 .22898865 .5978699 .2829895 .63505557 .34700013 .63505557 .3769989 .63505557 .4169922 .62701418 .43699647 .5998688 .4119873 .5978699 .3909912 .5808716 .3909912 .5518799 .3909912 .5268707 .4079895 .5048828 .43798829 .5048828 .46798707 .5048828 .48599244 .5248718 .48599244 .5538788 .48599244 .6119385 .44400025 .6640625 .34498597 .6640625 .20098877 .6640625 .053985597 .5318756 .053985597 .3174591 .053985597 .05845642 .17599488-.01953125 .28599549-.01953125 .4079895-.01953125 .5139923 .07345581 .5139923 .20445252 .5139923 .33145143 .41299439 .42546083 .29599 .42546083 .21598816 .42546083 .17199707 .37245179 .1499939 .3274536M.28599549 .012466431C.23599243 .012466431 .19699097 .04145813 .17599488 .08546448 .16099549 .11546326 .15299988 .16545105 .15299988 .22544861 .15299988 .32244874 .21099854 .39746095 .29100038 .39746095 .33699037 .39746095 .36799623 .37945558 .3929901 .342453 .4169922 .30445863 .41799928 .26245118 .41799928 .20445252 .41799928 .14746094 .41799928 .10545349 .3909912 .066467288 .36698915 .031463624 .33499146 .012466431 .28599549 .012466431Z"/>
<path id="font_2_5" d="M.15499878 .5588074C.20599365 .5458069 .23599243 .5458069 .2519989 .5458069 .38398744 .5458069 .46199037 .6358032 .46199037 .6508026 .46199037 .6618042 .45498658 .6648102 .44999696 .6648102 .44799806 .6648102 .44599916 .6648102 .44198609 .6618042 .41799928 .6528015 .36499024 .6328125 .29100038 .6328125 .2630005 .6328125 .20999146 .6348114 .14498902 .6598053 .1349945 .6648102 .1329956 .6648102 .13198853 .6648102 .11898804 .6648102 .11898804 .6538086 .11898804 .6378021V.34251405C.11898804 .32548524 .11898804 .3134613 .1349945 .3134613 .14399719 .3134613 .14498902 .3154602 .15499878 .32748414 .19799805 .38259889 .25898744 .390625 .2939911 .390625 .35398866 .390625 .3809967 .34251405 .38598634 .33450318 .4039917 .30143739 .4099884 .26335145 .4099884 .20524597 .4099884 .17524719 .4099884 .116256717 .37998963 .07234192 .35499574 .03640747 .31199647 .012466431 .2630005 .012466431 .19799805 .012466431 .1309967 .04838562 .10598755 .11425781 .14399719 .11125183 .16299439 .13624573 .16299439 .16325379 .16299439 .20625305 .12599182 .21424866 .11299133 .21424866 .11099243 .21424866 .06298828 .21424866 .06298828 .1602478 .06298828 .07034302 .14498902-.01953125 .2649994-.01953125 .3929901-.01953125 .5049896 .07533264 .5049896 .20124817 .5049896 .31445313 .4189911 .41862489 .29499818 .41862489 .25099183 .41862489 .19898987 .4076233 .15499878 .36956788V.5588074Z"/>
<path id="font_2_8" d="M.35499574 .36123658C.43299867 .3992157 .48298646 .44618226 .48298646 .5151367 .48298646 .6120758 .38198854 .6640625 .2849884 .6640625 .1749878 .6640625 .084991458 .5920868 .084991458 .4971466 .084991458 .45018006 .10699463 .41619874 .125 .39620973 .14299011 .37522889 .1499939 .37123109 .20899964 .33624269 .15299988 .31227113 .053985597 .25830079 .053985597 .15336609 .053985597 .042434694 .16899109-.01953125 .2829895-.01953125 .4099884-.01953125 .5139923 .061431886 .5139923 .1693573 .5139923 .23532105 .47499085 .29127503 .4169922 .32525636 .4039917 .33325196 .36898805 .35324098 .35499574 .36123658M.19198609 .45617677C.1659851 .4711609 .13798523 .49813844 .13798523 .53512576 .13798523 .5980835 .21099854 .63505557 .2829895 .63505557 .36099244 .63505557 .42999269 .5860901 .42999269 .5151367 .42999269 .42619325 .32598878 .3812256 .32398988 .3812256 .32199098 .3812256 .31999208 .3822174 .31298829 .3862152L.19198609 .45617677M.24099732 .31726075 .37799073 .23831177C.4039917 .22332764 .45399476 .19334412 .45399476 .13438416 .45399476 .059432985 .37098695 .012466431 .2849884 .012466431 .19299317 .012466431 .11399841 .07142639 .11399841 .15336609 .11399841 .22732544 .16899109 .2842865 .24099732 .31726075Z"/>
<path id="font_4_1" d="M.55400088 .6796112H.032989503V.64860537H.056991579C.13398743 .64860537 .13598633 .637619 .13598633 .6016388V.07795715C.13598633 .041992189 .13398743 .0309906 .056991579 .0309906H.032989503V0C.067993167 .0029907227 .1459961 .0029907227 .18499756 .0029907227 .22599793 .0029907227 .31698609 .0029907227 .35299684 0V.0309906H.31999208C.22499085 .0309906 .22499085 .04399109 .22499085 .07896423V.6086273C.22499085 .6416168 .22698975 .64860537 .27398683 .64860537H.3769989C.519989 .64860537 .54100039 .5896454 .5569916 .45472718H.58200076L.55400088 .6796112Z"/>
<path id="font_5_1" d="M.82899478 .4252472C.82899478 .5821686 .71598818 .703125 .5389862 .703125 .2999878 .703125 .068984989 .47921754 .068984989 .2543335 .068984989 .09341431 .18798828-.01953125 .3600006-.01953125 .59799197-.01953125 .82899478 .19836426 .82899478 .4252472M.36799623 .013458252C.2619934 .013458252 .17199707 .0854187 .17199707 .23335266 .17199707 .28431703 .18598938 .426239 .27799989 .54019168 .34498597 .6221466 .44198609 .67111209 .5309906 .67111209 .6349945 .67111209 .73098757 .6051483 .73098757 .4602356 .73098757 .38726808 .69999697 .24134827 .6069946 .13439942 .5369873 .05444336 .44599916 .013458252 .36799623 .013458252Z"/>
</defs>
<path transform="matrix(1,0,0,-1,34.511,214.22699)" stroke-width=".19925" stroke-linecap="butt" stroke-miterlimit="10" stroke-linejoin="miter" fill="none" stroke="#d9d9d9" d="M-31.3235-168.66472H110.83694M-31.3235-144.56977H110.83694M-31.3235-120.4748H110.83694M-31.3235-96.37984H110.83694M-31.3235-72.28487H110.83694M-31.3235-48.18991H110.83694M-31.3235-24.09494H110.83694M-31.3235 0H110.83694M-31.3235 24.09494H110.83694M-31.3235 48.18991H110.83694M-31.3235 72.28487H110.83694M-31.3235 96.37984H110.83694M-31.3235 120.4748H110.83694M-31.3235 144.56977H110.83694M-31.3235 168.66472H110.83694M-31.3235 192.75968H110.83694M-24.09492-180.71219V204.80716M-12.04745-180.71219V204.80716M0-180.71219V204.80716M12.04745-180.71219V204.80716M24.09492-180.71219V204.80716M36.14241-180.71219V204.80716M48.18988-180.71219V204.80716M60.23737-180.71219V204.80716M72.28484-180.71219V204.80716M84.3323-180.71219V204.80716M96.37978-180.71219V204.80716M108.42725-180.71219V204.80716M110.83694 204.80716"/>
<path transform="matrix(1,0,0,-1,34.511,214.22699)" stroke-width=".3985" stroke-linecap="butt" stroke-miterlimit="10" stroke-linejoin="miter" fill="none" stroke="#000000" d="M-31.3235 0H108.84442"/>
<path transform="matrix(1,0,0,-1,143.35543,214.22699)" d="M1.99252 0-1.19551 1.59401 0 0-1.19551-1.59401"/>
<use data-text="x" xlink:href="#font_1_1" transform="matrix(9.96264,0,0,-9.96264,148.866,222.03601)"/>
<path transform="matrix(1,0,0,-1,34.511,214.22699)" stroke-width=".3985" stroke-linecap="butt" stroke-miterlimit="10" stroke-linejoin="miter" fill="none" stroke="#000000" d="M0-180.71219V202.81464"/>
<path transform="matrix(0,-1,-1,-0,34.511,11.4123539)" d="M1.99252 0-1.19551 1.59401 0 0-1.19551-1.59401"/>
<use data-text="y" xlink:href="#font_1_2" transform="matrix(9.96264,0,0,-9.96264,25.749,10.598999)"/>
<path transform="matrix(1,0,0,-1,34.511,214.22699)" stroke-width=".3985" stroke-linecap="butt" stroke-miterlimit="10" stroke-linejoin="miter" fill="none" stroke="#000000" d="M24.09494 2.40962V-2.40962"/>
<use data-text="1" xlink:href="#font_2_1" transform="matrix(6.97385,0,0,-6.97385,56.620004,224.651)"/>
<path transform="matrix(1,0,0,-1,34.511,214.22699)" stroke-width=".3985" stroke-linecap="butt" stroke-miterlimit="10" stroke-linejoin="miter" fill="none" stroke="#000000" d="M48.18991 2.40962V-2.40962"/>
<use data-text="2" xlink:href="#font_2_2" transform="matrix(6.97385,0,0,-6.97385,80.715,224.651)"/>
<path transform="matrix(1,0,0,-1,34.511,214.22699)" stroke-width=".3985" stroke-linecap="butt" stroke-miterlimit="10" stroke-linejoin="miter" fill="none" stroke="#000000" d="M72.28487 2.40962V-2.40962"/>
<use data-text="3" xlink:href="#font_2_3" transform="matrix(6.97385,0,0,-6.97385,104.809,224.651)"/>
<path transform="matrix(1,0,0,-1,34.511,214.22699)" stroke-width=".3985" stroke-linecap="butt" stroke-miterlimit="10" stroke-linejoin="miter" fill="none" stroke="#000000" d="M96.37984 2.40962V-2.40962"/>
<use data-text="4" xlink:href="#font_2_4" transform="matrix(6.97385,0,0,-6.97385,128.90399,224.651)"/>
<path transform="matrix(1,0,0,-1,34.511,214.22699)" stroke-width=".3985" stroke-linecap="butt" stroke-miterlimit="10" stroke-linejoin="miter" fill="none" stroke="#000000" d="M1.92761-168.66472H-1.92761"/>
<use data-text="&#x2212;" xlink:href="#font_3_1" transform="matrix(6.97385,0,0,-6.97385,18.866002,384.72196)"/>
<use data-text="7" xlink:href="#font_2_7" transform="matrix(6.97385,0,0,-6.97385,25.093003,384.72196)"/>
<path transform="matrix(1,0,0,-1,34.511,214.22699)" stroke-width=".3985" stroke-linecap="butt" stroke-miterlimit="10" stroke-linejoin="miter" fill="none" stroke="#000000" d="M1.92761-144.56977H-1.92761"/>
<use data-text="&#x2212;" xlink:href="#font_3_1" transform="matrix(6.97385,0,0,-6.97385,18.866002,360.62696)"/>
<use data-text="6" xlink:href="#font_2_6" transform="matrix(6.97385,0,0,-6.97385,25.093003,360.62696)"/>
<path transform="matrix(1,0,0,-1,34.511,214.22699)" stroke-width=".3985" stroke-linecap="butt" stroke-miterlimit="10" stroke-linejoin="miter" fill="none" stroke="#000000" d="M1.92761-120.4748H-1.92761"/>
<use data-text="&#x2212;" xlink:href="#font_3_1" transform="matrix(6.97385,0,0,-6.97385,18.866002,336.53297)"/>
<use data-text="5" xlink:href="#font_2_5" transform="matrix(6.97385,0,0,-6.97385,25.093003,336.53297)"/>
<path transform="matrix(1,0,0,-1,34.511,214.22699)" stroke-width=".3985" stroke-linecap="butt" stroke-miterlimit="10" stroke-linejoin="miter" fill="none" stroke="#000000" d="M1.92761-96.37984H-1.92761"/>
<use data-text="&#x2212;" xlink:href="#font_3_1" transform="matrix(6.97385,0,0,-6.97385,18.866002,312.438)"/>
<use data-text="4" xlink:href="#font_2_4" transform="matrix(6.97385,0,0,-6.97385,25.093003,312.438)"/>
<path transform="matrix(1,0,0,-1,34.511,214.22699)" stroke-width=".3985" stroke-linecap="butt" stroke-miterlimit="10" stroke-linejoin="miter" fill="none" stroke="#000000" d="M1.92761-72.28487H-1.92761"/>
<use data-text="&#x2212;" xlink:href="#font_3_1" transform="matrix(6.97385,0,0,-6.97385,18.866002,288.34297)"/>
<use data-text="3" xlink:href="#font_2_3" transform="matrix(6.97385,0,0,-6.97385,25.093003,288.34297)"/>
<path transform="matrix(1,0,0,-1,34.511,214.22699)" stroke-width=".3985" stroke-linecap="butt" stroke-miterlimit="10" stroke-linejoin="miter" fill="none" stroke="#000000" d="M1.92761-48.18991H-1.92761"/>
<use data-text="&#x2212;" xlink:href="#font_3_1" transform="matrix(6.97385,0,0,-6.97385,18.866002,264.24897)"/>
<use data-text="2" xlink:href="#font_2_2" transform="matrix(6.97385,0,0,-6.97385,25.093003,264.24897)"/>
<path transform="matrix(1,0,0,-1,34.511,214.22699)" stroke-width=".3985" stroke-linecap="butt" stroke-miterlimit="10" stroke-linejoin="miter" fill="none" stroke="#000000" d="M1.92761-24.09494H-1.92761"/>
<use data-text="&#x2212;" xlink:href="#font_3_1" transform="matrix(6.97385,0,0,-6.97385,18.866002,240.15399)"/>
<use data-text="1" xlink:href="#font_2_1" transform="matrix(6.97385,0,0,-6.97385,25.093003,240.15399)"/>
<path transform="matrix(1,0,0,-1,34.511,214.22699)" stroke-width=".3985" stroke-linecap="butt" stroke-miterlimit="10" stroke-linejoin="miter" fill="none" stroke="#000000" d="M1.92761 24.09494H-1.92761"/>
<use data-text="1" xlink:href="#font_2_1" transform="matrix(6.97385,0,0,-6.97385,25.093003,192.38)"/>
<path transform="matrix(1,0,0,-1,34.511,214.22699)" stroke-width=".3985" stroke-linecap="butt" stroke-miterlimit="10" stroke-linejoin="miter" fill="none" stroke="#000000" d="M1.92761 48.18991H-1.92761"/>
<use data-text="2" xlink:href="#font_2_2" transform="matrix(6.97385,0,0,-6.97385,25.093003,168.28498)"/>
<path transform="matrix(1,0,0,-1,34.511,214.22699)" stroke-width=".3985" stroke-linecap="butt" stroke-miterlimit="10" stroke-linejoin="miter" fill="none" stroke="#000000" d="M1.92761 72.28487H-1.92761"/>
<use data-text="3" xlink:href="#font_2_3" transform="matrix(6.97385,0,0,-6.97385,25.093003,144.19)"/>
<path transform="matrix(1,0,0,-1,34.511,214.22699)" stroke-width=".3985" stroke-linecap="butt" stroke-miterlimit="10" stroke-linejoin="miter" fill="none" stroke="#000000" d="M1.92761 96.37984H-1.92761"/>
<use data-text="4" xlink:href="#font_2_4" transform="matrix(6.97385,0,0,-6.97385,25.093003,120.09601)"/>
<path transform="matrix(1,0,0,-1,34.511,214.22699)" stroke-width=".3985" stroke-linecap="butt" stroke-miterlimit="10" stroke-linejoin="miter" fill="none" stroke="#000000" d="M1.92761 120.4748H-1.92761"/>
<use data-text="5" xlink:href="#font_2_5" transform="matrix(6.97385,0,0,-6.97385,25.093003,96.00098)"/>
<path transform="matrix(1,0,0,-1,34.511,214.22699)" stroke-width=".3985" stroke-linecap="butt" stroke-miterlimit="10" stroke-linejoin="miter" fill="none" stroke="#000000" d="M1.92761 144.56977H-1.92761"/>
<use data-text="6" xlink:href="#font_2_6" transform="matrix(6.97385,0,0,-6.97385,25.093003,71.906009)"/>
<path transform="matrix(1,0,0,-1,34.511,214.22699)" stroke-width=".3985" stroke-linecap="butt" stroke-miterlimit="10" stroke-linejoin="miter" fill="none" stroke="#000000" d="M1.92761 168.66472H-1.92761"/>
<use data-text="7" xlink:href="#font_2_7" transform="matrix(6.97385,0,0,-6.97385,25.093003,47.81201)"/>
<path transform="matrix(1,0,0,-1,34.511,214.22699)" stroke-width=".3985" stroke-linecap="butt" stroke-miterlimit="10" stroke-linejoin="miter" fill="none" stroke="#000000" d="M1.92761 192.75968H-1.92761"/>
<use data-text="8" xlink:href="#font_2_8" transform="matrix(6.97385,0,0,-6.97385,25.093003,23.71698)"/>
<path transform="matrix(1,0,0,-1,34.511,214.22699)" stroke-width=".79701" stroke-linecap="butt" stroke-miterlimit="10" stroke-linejoin="miter" fill="none" stroke="#0000ff" d="M-26.50458-40.89001C-26.50458-40.89001-26.03229-38.58731-25.85088-37.73659-25.6695-36.88588-25.37859-35.56142-25.19717-34.75856-25.0158-33.95567-24.72488-32.70665-24.54349-31.95-24.36209-31.19333-24.07118-30.01706-23.88979-29.30504-23.70839-28.59303-23.41748-27.48717-23.2361-26.81819-23.05469-26.14923-22.76378-25.11119-22.5824-24.48355-22.40099-23.85591-22.11008-22.88226-21.9287-22.2945-21.74728-21.70674-21.45639-20.79672-21.275-20.24739-21.09358-19.69804-20.80269-18.8478-20.62129-18.33517-20.4399-17.82257-20.14899-17.02998-19.96759-16.55276-19.7862-16.07555-19.49529-15.33896-19.31389-14.8957-19.13249-14.45247-18.84158-13.76901-18.66019-13.35817-18.47879-12.94733-18.18788-12.31448-18.00648-11.9346-17.82509-11.5547-17.53418-10.9705-17.3528-10.6202-17.1714-10.2699-16.88048-9.73186-16.6991-9.40987-16.5177-9.08789-16.22678-8.59459-16.0454-8.29955-15.864-8.00449-15.57307-7.55287-15.3917-7.28333-15.2103-7.01378-14.91939-6.60217-14.73799-6.35681-14.5566-6.11147-14.26569-5.73729-14.08429-5.51488-13.90291-5.29247-13.612-4.95448-13.43059-4.75381-13.2492-4.55313-12.9583-4.24878-12.77689-4.06851-12.5955-3.88823-12.3046-3.61555-12.12318-3.4545-11.9418-3.29346-11.6509-3.05083-11.46948-2.90779-11.2881-2.76476-10.9972-2.54984-10.8158-2.4236-10.6344-2.29735-10.34349-2.10843-10.1621-1.99785-9.9807-1.88725-9.68979-1.72261-9.50839-1.6265-9.327-1.53041-9.03609-1.38786-8.85469-1.30518-8.6733-1.22249-8.3824-1.10088-8.20099-1.03053-8.01959-.96019-7.7287-.85735-7.5473-.79816-7.3659-.739-7.075-.653-6.8936-.60405-6.7122-.55508-6.4213-.485-6.2399-.4452-6.0585-.40543-5.7676-.34894-5.5862-.31728-5.4048-.2856-5.1139-.24142-4.93251-.2169-4.75111-.19237-4.4602-.15874-4.27882-.14041-4.09741-.12212-3.8065-.098-3.62512-.08492-3.44371-.07181-3.1528-.0547-2.97142-.04593-2.79001-.03716-2.4991-.02696-2.31772-.02167-2.1363-.01636-1.84541-.0105-1.66402-.0077-1.4826-.0049-1.19171-.0025-1.01031-.00145-.8289-.00038-.53801-.00017-.35661 0-.17522 .00017 .11565-.00017 .29704 0 .47844 .00017 .76935 .00049 .95074 .00145 1.13214 .0024 1.42305 .00452 1.60445 .00697 1.78584 .0094 2.07675 .01436 2.25813 .0191 2.43954 .02385 2.73045 .03336 2.91183 .04115 3.09325 .04895 3.38416 .06392 3.56554 .07535 3.74693 .08676 4.03786 .10771 4.21924 .12352 4.40063 .13931 4.69154 .16847 4.87294 .18933 5.05434 .21019 5.34525 .24738 5.52664 .27388 5.70804 .3004 5.99895 .34766 6.18034 .3805 6.36172 .41335 6.65263 .47092 6.83405 .51065 7.01543 .5504 7.30634 .61969 7.48775 .66692 7.66913 .71416 7.96004 .79588 8.14145 .85112 8.32283 .90636 8.61374 1.00133 8.79514 1.0651 8.97653 1.12885 9.26744 1.2379 9.44884 1.31068 9.63023 1.38348 9.92114 1.50735 10.10254 1.58974 10.28394 1.67212 10.57484 1.81209 10.75624 1.90446 10.93764 1.99683 11.22853 2.15274 11.40994 2.25557 11.59134 2.3584 11.88223 2.53195 12.06364 2.64566 12.24504 2.75935 12.53593 2.9501 12.71735 3.07507 12.89873 3.20007 13.18964 3.40976 13.37103 3.54643 13.55243 3.68309 13.84334 3.9114 14.02473 4.06004 14.20613 4.2087 14.49704 4.4568 14.67844 4.6178 14.85983 4.77878 15.15074 5.04678 15.33212 5.22038 15.51353 5.39397 15.80444 5.68236 15.98582 5.86894 16.16724 6.05553 16.45815 6.36543 16.63953 6.56529 16.82094 6.76515 17.11185 7.09615 17.29323 7.30942 17.47464 7.52269 17.76555 7.87547 17.94693 8.10246 18.12834 8.32947 18.41924 8.70459 18.60063 8.94551 18.78204 9.18645 19.07294 9.58397 19.25433 9.83893 19.43571 10.09386 19.72664 10.5139 19.90804 10.78308 20.08942 11.05226 20.38034 11.49548 20.56174 11.77907 20.74312 12.06262 21.03404 12.52884 21.21544 12.8269 21.39682 13.12495 21.68774 13.61465 21.86913 13.9273 22.05052 14.23994 22.34145 14.75294 22.52283 15.08029 22.70422 15.40762 22.99513 15.9445 23.17653 16.28658 23.35793 16.62866 23.64883 17.18895 23.83023 17.5458 24.01163 17.9027 24.30254 18.48717 24.48393 18.85873 24.66533 19.2303 24.9562 19.8376 25.13762 20.22385 25.31902 20.6101 25.60991 21.2416 25.79132 21.64265 25.9727 22.04372 26.26361 22.69868 26.44502 23.1144 26.6264 23.53009 26.91731 24.20837 27.09872 24.6387 27.2801 25.06905 27.57101 25.7712 27.75243 26.21597 27.9338 26.66074 28.22472 27.38528 28.40613 27.84435 28.58751 28.3034 28.87842 29.05127 29.05981 29.52455 29.24121 29.99783 29.53212 30.76813 29.71352 31.2555 29.89491 31.74283 30.18582 32.53587 30.36722 33.03716 30.54861 33.53845 30.83952 34.35362 31.02092 34.86848 31.20232 35.38333 31.49321 36.21968 31.6746 36.74796 31.85602 37.27625 32.14691 38.13448 32.32831 38.67596 32.5097 39.21745 32.80061 40.09633 32.98201 40.65068 33.1634 41.20502 33.45432 42.10439 33.63571 42.67133 33.81711 43.23827 34.10802 44.15761 34.28941 44.73683 34.47081 45.31607 34.76172 46.25493 34.94312 46.8461 35.12451 47.43729 35.41542 48.3949 35.5968 48.99763 35.77821 49.6004 36.06912 50.57634 36.2505 51.19037 36.43192 51.8044 36.72282 52.79839 36.9042 53.42319 37.08562 54.04797 37.37653 55.05838 37.5579 55.69348 37.7393 56.32857 38.03021 57.3555 38.21161 58.00053 38.393 58.64558 38.68391 59.688 38.86531 60.34253 39.04669 60.99706 39.33762 62.05449 39.51901 62.71799 39.7004 63.3815 39.99132 64.45271 40.17271 65.12468 40.3541 65.79665 40.645 66.88129 40.82642 67.56117 41.0078 68.24104 41.2987 69.33768 41.48012 70.02486 41.6615 70.71202 41.95241 71.81996 42.1338 72.51392 42.3152 73.20789 42.60611 74.32632 42.7875 75.02652 42.9689 75.72668 43.25981 76.85468 43.44121 77.56041 43.6226 78.26616 43.91351 79.40244 44.09491 80.11308 44.2763 80.82372 44.5672 81.96735 44.74861 82.6823 44.93001 83.39723 45.2209 84.5474 45.40231 85.26584 45.58371 85.98428 45.8746 87.1391 46.05602 87.86041 46.2374 88.58173 46.5283 89.74109 46.70972 90.46454 46.8911 91.18799 47.182 92.34973 47.3634 93.07455 47.5448 93.79938 47.83571 94.96318 48.0171 95.68861 48.1985 96.41406 48.48941 97.57777 48.67079 98.30305 48.8522 99.02834 49.14311 100.19179 49.3245 100.916 49.5059 101.64023 49.79681 102.80038 49.9782 103.52272 50.1596 104.24504 50.45052 105.40234 50.6319 106.12207 50.81331 106.84181 51.1042 107.99394 51.2856 108.71004 51.46701 109.42613 51.7579 110.57172 51.9393 111.2833 52.12071 111.99486 52.4116 113.13242 52.593 113.83852 52.7744 114.54462 53.0653 115.67267 53.2467 116.37245 53.42809 117.07222 53.71901 118.18965 53.9004 118.88208 54.08179 119.57451 54.3727 120.67894 54.5541 121.36304 54.73549 122.04716 55.0264 123.13794 55.20778 123.81276 55.38919 124.48761 55.6801 125.56245 55.86148 126.22682 56.04288 126.89119 56.3338 127.94821 56.51518 128.60117 56.69658 129.25412 56.9875 130.29242 57.16888 130.93286 57.35028 131.57334 57.64119 132.59032 57.82259 133.21715 58.00398 133.844 58.29489 134.8386 58.47629 135.45067 58.65768 136.06276 58.94858 137.03247 59.12999 137.6287 59.31137 138.22493 59.60228 139.16866 59.78369 139.7479 59.96507 140.32712 60.25598 141.24251 60.4374 141.80347 60.61877 142.36446 60.90968 143.24951 61.0911 143.79105 61.27248 144.3326 61.56339 145.18567 61.74478 145.70655 61.92618 146.22743 62.21709 147.04628 62.39848 147.54523 62.57988 148.04418 62.87079 148.8269 63.05219 149.30265 63.23358 149.77837 63.52449 150.52283 63.70589 150.97402 63.88728 151.42522 64.17819 152.12909 64.35959 152.55458 64.54099 152.98007 64.83188 153.64226 65.01329 154.04067 65.19469 154.43907 65.48558 155.05622 65.66698 155.42601 65.84837 155.79579 66.13928 156.3659 66.32068 156.70583 66.50208 157.04576 66.79298 157.56737 66.97438 157.8761 67.15578 158.1848 67.44669 158.65494 67.62808 158.93091 67.80948 159.20688 68.10039 159.6234 68.28177 159.86515 68.46318 160.10688 68.75409 160.46718 68.93547 160.67327 69.11688 160.87934 69.40779 161.18144 69.58917 161.3505 69.77058 161.51952 70.0615 161.76129 70.24287 161.89168 70.42429 162.02205 70.7152 162.2 70.89658 162.29022 71.07799 162.38047 71.36888 162.49352 71.55028 162.54207 71.73167 162.59062 72.02258 162.63509 72.20398 162.64023 72.38536 162.64539 72.67628 162.61888 72.85768 162.57921 73.03906 162.53952 73.32999 162.44045 73.51138 162.3542 73.69276 162.26795 73.98369 162.09189 74.16508 161.95749 74.34647 161.82308 74.63739 161.5695 74.81877 161.3854 75.00017 161.20131 75.29108 160.86632 75.47247 160.6306 75.65387 160.39488 75.94478 159.97545 76.12617 159.68645 76.30757 159.39748 76.59848 158.89177 76.77988 158.5478 76.96127 158.20384 77.25218 157.60796 77.43358 157.20734 77.61497 156.80669 77.90587 156.11928 78.08728 155.6602 78.26868 155.20116 78.55957 154.41815 78.74098 153.89875 78.92236 153.37934 79.21327 152.49813 79.39468 151.9167 79.57607 151.33528 79.86697 150.35352 80.04839 149.70816 80.22977 149.0628 80.52068 147.97669 80.70209 147.26543 80.88347 146.55419 81.17438 145.36083 81.35577 144.58188 81.53717 143.80292 81.82808 142.49965 82.00946 141.65126 82.19087 140.80289 82.48178 139.38718 82.66316 138.46733 82.84457 137.54747 83.13548 136.01497 83.31686 135.02162 83.49828 134.02828 83.78918 132.3767 83.97057 131.30789 84.15198 130.23909 84.44286 128.4646 84.62425 127.31842 84.80566 126.17221 85.09656 124.27255 85.27795 123.04694 85.45935 121.82132 85.75026 119.79219 85.93166 118.485 86.11305 117.17783 86.40396 115.01624 86.58536 113.62564 86.76675 112.23506 87.05766 109.93861 87.23906 108.4626 87.42046 106.98656 87.71136 104.55128 87.89276 102.98741 88.07416 101.42354 88.36507 98.84496 88.54645 97.19125 88.72786 95.53755 89.01877 92.81429 89.20015 91.0686 89.38156 89.32292 89.67247 86.4494 89.85385 84.60956 90.03525 82.7697 90.32617 79.74432 90.50755 77.80821 90.68895 75.87212 90.97986 72.69 91.16125 70.6554 91.34265 68.62077 91.63356 65.27931 91.81496 63.1441 91.99635 61.0089 92.28726 57.5045 92.46866 55.26625 92.65004 53.02798 92.94096 49.35599 93.12236 47.01228 93.30374 44.6686 93.59465 40.82573 93.77606 38.37448 93.95744 35.92325 94.24835 31.90639 94.42976 29.34549 94.61115 26.78459 94.90205 22.59041 95.08345 19.91722 95.26485 17.24403 95.55576 12.86697 95.73715 10.07901 95.91855 7.29105 96.20946 2.72818 96.39085-.17645 96.57225-3.08113 96.86316-7.83177 97.04456-10.85588 97.22595-13.87997 97.51685-18.826 97.69826-21.97206 97.87965-25.11813 98.17055-30.26044 98.35196-33.53056 98.53336-36.8007 98.82425-42.14401 99.00566-45.54091 99.18704-48.93779 99.47795-54.48698 99.65935-58.01303 99.84074-61.5391 100.13165-67.29654 100.31305-70.9543 100.49445-74.61206 100.78535-80.5837 100.96675-84.37572 101.14815-88.16776 101.43906-94.35608 101.62044-98.28467 101.80185-102.21326 102.09276-108.62207 102.27414-112.69032 102.45555-116.75859 102.74646-123.39569 102.92784-127.60591 103.10925-131.81615 103.58154-143.03478 103.58154-143.03478"/>
<use data-text="&#x0393;" xlink:href="#font_4_1" transform="matrix(9.96264,0,0,-9.96264,118.313,106.04797)" fill="#0000ff"/>
<use data-text="2" xlink:href="#font_2_2" transform="matrix(6.97385,0,0,-6.97385,124.54,107.54303)" fill="#0000ff"/>
<path transform="matrix(1,0,0,-1,34.511,214.22699)" stroke-width=".79701" stroke-linecap="butt" stroke-miterlimit="10" stroke-linejoin="miter" fill="none" stroke="#ff0000" d="M-22.8901 102.2554C-22.8901 102.2554-22.4529 96.13428-22.28496 93.87827-22.11702 91.62225-21.84772 88.11707-21.67978 85.99564-21.51184 83.8742-21.24252 80.5802-21.07462 78.5884-20.9067 76.59657-20.63736 73.50682-20.46944 71.63998-20.30151 69.77315-20.0322 66.88048-19.86429 65.13351-19.69637 63.38654-19.42705 60.68047-19.25912 59.04912-19.09119 57.41774-18.82187 54.8959-18.65393 53.37573-18.48601 51.85558-18.21669 49.5067-18.04877 48.09283-17.88084 46.67899-17.61153 44.4974-17.4436 43.18568-17.27568 41.87396-17.00636 39.8529-16.83844 38.63882-16.67052 37.42476-16.4012 35.556-16.23326 34.43538-16.06534 33.31474-15.79602 31.59363-15.6281 30.56207-15.46017 29.53052-15.19084 27.9476-15.02293 27.00056-14.85501 26.05353-14.58568 24.60275-14.41776 23.73647-14.24985 22.87018-13.98053 21.54652-13.8126 20.75696-13.64467 19.96739-13.37535 18.76256-13.20743 18.04584-13.03949 17.32912-12.77017 16.23918-12.60225 15.59134-12.43434 14.9435-12.16501 13.95978-11.99709 13.37654-11.82916 12.79333-11.55984 11.90999-11.39192 11.38788-11.22401 10.86577-10.9547 10.07822-10.78676 9.61356-10.61884 9.1489-10.34952 8.44987-10.18158 8.03886-10.01364 7.62785-9.74434 7.01237-9.57642 6.65132-9.4085 6.29025-9.13916 5.75136-8.97124 5.43657-8.80333 5.12178-8.53401 4.65417-8.36609 4.38248-8.19815 4.11081-7.92885 3.71036-7.76091 3.47841-7.59297 3.24646-7.32365 2.90663-7.15575 2.71074-6.98782 2.51486-6.71849 2.22957-6.55057 2.06659-6.38264 1.90361-6.11333 1.66925-5.9454 1.53606-5.7775 1.40288-5.50816 1.21338-5.34026 1.10663-5.17232 .99988-4.903 .8501-4.73506 .76654-4.56714 .68298-4.29782 .56746-4.1299 .50441-3.96198 .44136-3.69266 .35773-3.52473 .31212-3.35681 .26653-3.08748 .20694-2.91956 .17572-2.75166 .1445-2.48235 .10674-2.3144 .08711-2.14647 .06749-1.87717 .04503-1.70923 .03418-1.54129 .02333-1.27197 .01353-1.10406 .00879-.93614 .00406-.66681 .00119-.49889 0-.33096-.00119-.06166 .00017 .10622 0 .27414-.00017 .54347 .00055 .7114-.00145 .87933-.00348 1.14865-.00826 1.31657-.0147 1.4845-.0211 1.75381-.03488 1.92174-.04778 2.08966-.06067 2.359-.08607 2.5269-.1077 2.69482-.12932 2.96414-.17072 3.13206-.20366 3.29999-.23662 3.5693-.29884 3.73724-.34521 3.90518-.39159 4.17448-.476 4.3424-.53787 4.51033-.59975 4.77966-.71176 4.94759-.79118 5.1155-.8706 5.38481-1.0113 5.55275-1.11032 5.72067-1.20932 5.98997-1.38393 6.15791-1.50482 6.32585-1.6257 6.59517-1.83751 6.76308-1.98166 6.931-2.12582 7.20033-2.37442 7.36826-2.54381 7.53618-2.71323 7.8055-3.0059 7.97342-3.20265 8.14134-3.39941 8.41066-3.73645 8.57858-3.96187 8.7465-4.1873 9.01582-4.57153 9.18376-4.82735 9.35168-5.08319 9.621-5.51794 9.78893-5.80571 9.95685-6.09344 10.22618-6.57996 10.39409-6.90132 10.56201-7.2227 10.83134-7.76549 10.99927-8.12195 11.16719-8.47842 11.4365-9.0781 11.60442-9.47054 11.77235-9.86298 12.04167-10.52034 12.2096-10.95036 12.37753-11.38039 12.64685-12.10065 12.81477-12.5699 12.98268-13.03915 13.25201-13.82312 13.41994-14.33246 13.58786-14.84183 13.85718-15.69063 14.0251-16.241 14.19302-16.79135 14.46234-17.70644 14.63026-18.29915 14.7982-18.89186 15.06752-19.87671 15.23544-20.51283 15.40337-21.14894 15.67268-22.20374 15.8406-22.88387 16.00853-23.564 16.27786-24.68951 16.44577-25.41484 16.6137-26.14017 16.88301-27.34033 17.05095-28.11163 17.21886-28.88293 17.48817-30.15593 17.65611-30.97386 17.82405-31.79176 18.09335-33.14146 18.26128-34.00668 18.4292-34.8719 18.69853-36.29683 18.86646-37.20973 19.03436-38.12265 19.3037-39.62465 19.47162-40.58632 19.63954-41.548 19.90886-43.1302 20.07677-44.14085 20.2447-45.1515 20.51402-46.81049 20.68195-47.87039 20.84988-48.93033 21.1192-50.6703 21.28712-51.7801 21.45505-52.88992 21.72437-54.7093 21.89229-55.8692 22.06021-57.02911 22.32953-58.9299 22.49745-60.13995 22.66537-61.34999 22.93471-63.33011 23.10263-64.59047 23.27055-65.85083 23.53987-67.91267 23.7078-69.22372 23.87572-70.53479 24.14505-72.678 24.31296-74.03969 24.48088-75.40141 24.75021-77.62567 24.91814-79.03802 25.08604-80.4504 25.35536-82.75644 25.5233-84.2191 25.69122-85.68178 25.96054-88.0671 26.12846-89.57996 26.2964-91.09282 26.56572-93.55954 26.73364-95.1228 26.90155-96.68607 27.17088-99.23373 27.3388-100.8469 27.50673-102.46004 27.77605-105.08664 27.94397-106.7493 28.1119-108.41199 28.38121-111.11868 28.54913-112.8304 28.71706-114.54211 28.98637-117.32591 29.15431-119.08614 29.32224-120.84634 29.59155-123.70839 29.75948-125.51688 29.9274-127.32535 30.19673-130.2646 30.36464-132.12042 30.53256-133.97623 30.80188-136.9897 30.96982-138.89234 31.13773-140.79499 31.40706-143.88448 31.57498-145.83339 31.74292-147.78232 32.01222-150.94457 32.18015-152.93878 32.34807-154.93302 32.6174-158.16779 32.78532-160.20633 32.95323-162.24488 33.22256-165.54907 33.39049-167.63123 33.55841-169.71338 33.82773-173.08844 33.99565-175.2131 34.16357-177.33774 34.43289-180.77823 34.60081-182.94426 34.76875-185.11029 35.03807-188.61748 35.206-190.8243 35.37392-193.03115 35.64323-196.60353 35.81116-198.8496 35.97908-201.09566 36.2484-204.72858 36.41632-207.01239 36.58426-209.29619 36.85358-212.98909 37.0215-215.30973 37.18942-217.63036 37.45874-221.38198 37.62666-223.73796 37.79459-226.09395 38.0639-229.90035 38.23183-232.2901 38.39975-234.67986 38.66908-238.53936 38.837-240.96172 39.00491-243.38408 39.27423-247.29569 39.44217-249.7488 39.6101-252.20192 39.87941-256.1597 40.04733-258.64213 40.21527-261.12455 40.48459-265.1301 40.65251-267.64024 40.82042-270.1504 41.08975-274.19776 41.25768-276.73359 41.4256-279.26939 41.69492-283.35694 41.86284-285.9166 42.03076-288.4763 42.30008-292.60017 42.46802-295.182 42.63593-297.76383 42.90524-301.9224 43.07318-304.5246 43.2411-307.12684 43.51042-311.31666 43.67834-313.9371 43.84627-316.5575 44.1156-320.77449 44.28351-323.41093 44.45143-326.0474 44.72075-330.2884 44.88869-332.93885 45.05661-335.5893 45.32593-339.85118 45.49387-342.51344 45.66179-345.1757 45.93109-349.45484 46.09901-352.12666 46.26694-354.79847 46.53627-359.09117 46.7042-361.77 46.8721-364.44886 47.14143-368.7501 47.30936-371.43394 47.47728-374.11778 47.7466-378.42695 47.91452-381.11335 48.08246-383.7997 48.35178-388.10963 48.51968-390.79566 48.68762-393.4817 48.95694-397.78904 49.12486-400.47248 49.29279-403.1559 49.5621-407.45796 49.73003-410.13603 49.89795-412.8141 50.16728-417.10429 50.33519-419.77427 50.50311-422.4442 50.77243-426.7202 50.94037-429.37937 51.10828-432.0385 51.37761-436.29414 51.54553-438.9396 51.71347-441.5851 51.98277-445.8172 52.1507-448.4462 52.31862-451.0752 52.58795-455.27833 52.75587-457.8877 52.92378-460.49708 53.1931-464.66584 53.36104-467.25276 53.52898-469.83967 53.79828-473.97096 53.96622-476.53248 54.13414-479.09403 54.40346-483.1819 54.57137-485.71443 54.73929-488.24696 55.00862-492.28489 55.17654-494.7853 55.34447-497.28578 55.61378-501.27076 55.78171-503.73603 55.94963-506.20127 56.21895-510.12648 56.38687-512.5532 56.55481-514.98 56.82413-518.84158 56.99205-521.2263 57.15997-523.6111 57.42929-527.4018 57.59721-529.74099 57.76514-532.08016 58.03447-535.7953 58.20238-538.0854 58.3703-540.3754 58.63963-544.0089 58.80756-546.2463 58.97548-548.4837 59.24478-552.02987 59.41272-554.21096 59.58064-556.392 59.84998-559.8451 60.01788-561.9664 60.18582-564.0876 60.45514-567.44186 60.62306-569.4993 60.79097-571.5568 61.0603-574.8054 61.22823-576.79519 61.39615-578.7849 61.66547-581.9217 61.83339-583.8399 62.00133-585.7581 62.27065-588.7777 62.43857-590.6203 62.60649-592.4628 62.87581-595.35678 63.04373-597.11978 63.21165-598.8829 63.48097-601.648 63.6489-603.32736 63.81682-605.00668 64.08615-607.63198 64.25406-609.22317 64.42198-610.8144 64.6913-613.29647 64.85924-614.7958 65.02716-616.2951 65.29648-618.62637 65.4644-620.0294 65.63234-621.4325 65.90164-623.60617 66.06956-624.90829 66.23749-626.2104 66.50682-628.2176 66.67474-629.4143 66.84265-630.611 67.11197-632.4465 67.2799-633.53359 67.44785-634.62069 67.71715-636.2767 67.88509-637.2495 68.05302-638.22238 68.32234-639.69137 68.49023-640.5452 68.65816-641.3991 68.92749-642.6732 69.09541-643.40377 69.26334-644.1343 69.53265-645.2084 69.70058-645.8105 69.8685-646.41256 70.13782-647.2745 70.30574-647.7433 70.47368-648.212 70.743-648.8577 70.91093-649.18887 71.07884-649.52 71.34816-649.9421 71.51608-650.1301 71.684-650.3181 71.95332-650.50436 72.12125-650.54409 72.28917-650.5838 72.5585-650.52938 72.72643-650.4165 72.89433-650.30368 73.16365-650.0019 73.33159-649.73086 73.49953-649.4598 73.76883-648.8974 73.93677-648.46279 74.10469-648.0281 74.37401-647.2009 74.54193-646.59799 74.70984-645.9951 74.97917-644.8944 75.1471-644.1174 75.31502-643.3404 75.58434-641.9544 75.75226-640.9978 75.9202-640.0412 76.18951-638.3639 76.35744-637.22268 76.52538-636.0814 76.7947-634.1037 76.9626-632.7725 77.13052-631.4413 77.39984-629.1553 77.56776-627.6282 77.73569-626.1011 78.00502-623.4951 78.17293-621.76626 78.34085-620.03738 78.61017-617.1033 78.7781-615.1675 78.94603-613.2317 79.21535-609.9632 79.38329-607.8143 79.55121-605.66537 79.82053-602.0471 79.98843-599.67947 80.15636-597.31179 80.42569-593.3421 80.59361-590.7497 80.76152-588.1573 81.03085-583.81826 81.19878-580.99496 81.3667-578.17166 81.63602-573.461 81.80394-570.4012 81.97188-567.34146 82.2412-562.2449 82.40912-558.94198 82.57704-555.6391 82.84636-550.1479 83.01428-546.5963 83.1822-543.04476 83.45152-537.15158 83.61945-533.3448 83.78737-529.53799 84.05669-523.2276 84.22461-519.1597 84.39255-515.0918 84.66187-508.362 84.8298-504.0261 84.99773-499.69017 85.26704-492.51985 85.43495-487.90937 85.60287-483.29884 85.8722-475.6871 86.04012-470.79664 86.20804-465.90614 86.47737-457.84019 86.6453-452.66215 86.8132-447.4841 87.08252-438.94905 87.25046-433.4769 87.4184-428.0048 87.6877-418.99479 87.85564-413.2229 88.02356-407.45106 88.2929-397.95668 88.46078-391.8773 88.62871-385.79795 88.89804-375.80073 89.06596-369.407 89.23389-363.0133 89.50319-352.51039 89.67113-345.7959 89.83907-339.08146 90.10838-328.05583 90.2763-321.0138 90.44424-313.97178 90.71356-302.4183 90.88148-295.04194 91.0494-287.66557 91.31871-275.5687 91.48663-267.85017 91.65456-260.13163 91.92389-247.48006 92.0918-239.41205 92.25972-231.34403 92.52904-218.12528 92.69698-209.70143 92.8649-201.2776 93.13422-187.48583 93.30215-178.69889 93.4701-169.91196 93.7394-155.52848 93.9073-146.37128 94.07523-137.2141 94.34456-122.23497 94.51248-112.70026 94.68039-103.16553 94.94972-87.57237 95.11765-77.6516 95.28557-67.7308 95.55489-51.51236 95.72281-41.19812 95.89075-30.88388 96.16006-14.02802 96.32799-3.31369 96.49593 7.40059 96.76524 24.90117 96.93315 36.0233 97.10107 47.14542 97.53831 76.84679 97.53831 76.84679"/>
<use data-text="&#x0393;" xlink:href="#font_4_1" transform="matrix(9.96264,0,0,-9.96264,52.053,139.781)" fill="#ff0000"/>
<use data-text="1" xlink:href="#font_2_1" transform="matrix(6.97385,0,0,-6.97385,58.28,141.276)" fill="#ff0000"/>
<path transform="matrix(1,0,0,-1,34.511,214.22699)" d="M1.27025 0C1.27025 .70154 .70154 1.27025 0 1.27025-.70154 1.27025-1.27025 .70154-1.27025 0-1.27025-.70154-.70154-1.27025 0-1.27025 .70154-1.27025 1.27025-.70154 1.27025 0ZM0 0"/>
<use data-text="O" xlink:href="#font_5_1" transform="matrix(6.97385,0,0,-6.97385,24.717003,210.70697)"/>
</svg>
